<svg xmlns="http://www.w3.org/2000/svg" viewBox="0 0 18 24" fill="none" aria-hidden="true">
  <!-- AgMRI alfalfa crop glyph. Tint: color on parent + fill="currentColor". Local clip id (not /retailer/home#...). Spec: docs/scout-list-table-pills-crop-icons.md -->
  <g id="ag-crop-alfalfa" clip-path="url(#ag-crop-alfalfa-clip)">
    <path d="M11.1544 3.59809L10.0793 0.287267C10.0513 0.204299 9.99848 0.132294 9.9282 0.0813142C9.85793 0.0303347 9.77372 0.00292969 9.68736 0.00292969C9.601 0.00292969 9.5168 0.0303347 9.44652 0.0813142C9.37624 0.132294 9.32341 0.204299 9.2954 0.287267L8.20687 3.59809C7.25608 6.50856 8.22703 7.9746 9.06358 9.21886L9.33908 9.62831C9.38119 9.69027 9.50778 10.133 9.5 10.5C9.36225 17.0011 7.47558 23.4619 7.45654 23.5335L8.78019 23.6222C8.80035 23.5483 9.86225 16.5454 10 10C10 10 9.9777 9.69222 10.0222 9.62603L10.3033 9.21886C11.1354 7.9746 12.1052 6.50856 11.1544 3.59809Z" fill="currentColor" />
    <path d="M14.9306 8.9141L15.7503 5.9388C15.7715 5.8634 15.7687 5.78314 15.7423 5.70947C15.7159 5.6358 15.6672 5.5725 15.6032 5.5286C15.5393 5.4847 15.4633 5.46246 15.3861 5.46505C15.309 5.46763 15.2346 5.49492 15.1736 5.543L12.767 7.43214C10.6481 9.09835 10.6459 10.6577 10.6548 11.9906V12.4319C10.6555 12.4923 10.6707 12.5516 10.699 12.6047C10.7273 12.6578 10.7679 12.7031 10.8173 12.7367C10.8667 12.7702 10.9234 12.7911 10.9825 12.7975C11.0416 12.8038 11.1013 12.7955 11.1566 12.7731L11.5597 12.6105C12.7826 12.1192 14.2105 11.53 14.9306 8.9141Z" fill="currentColor" />
    <path d="M4.7237 8.05162L1.89261 6.92109C1.82074 6.89197 1.74164 6.88664 1.66661 6.90587C1.59158 6.9251 1.52444 6.9679 1.47478 7.02817C1.42512 7.08844 1.39547 7.1631 1.39006 7.2415C1.38465 7.3199 1.40376 7.39803 1.44466 7.46475L3.0517 10.0897C4.46388 12.3974 5.99589 12.5578 7.30728 12.6852L7.73844 12.7273C7.7978 12.7331 7.85766 12.7241 7.91283 12.7011C7.96799 12.6781 8.01679 12.6418 8.05498 12.5952C8.09317 12.5487 8.11959 12.4934 8.13196 12.4342C8.14432 12.3749 8.14225 12.3135 8.12592 12.2553L8.01393 11.831C7.64549 10.5481 7.21321 9.04566 4.7237 8.05162Z" fill="currentColor" />
    <path d="M9.9673 16.2111C9.9673 16.2111 11.3705 12.2736 14.7313 12.376C18.0921 12.4783 18.5905 12.2702 17.4504 14.4437L17.2757 14.8543C17.2757 14.8543 14.8948 12.8309 11.4915 16.086C10.8744 16.6248 10.2867 17.1974 9.731 17.8011C9.731 17.8011 9.33344 17.4622 9.9673 16.2111Z" fill="currentColor" />
    <path d="M9.8833 17.8756C9.8833 17.8756 13.2251 14.1223 15.8938 14.9185C18.5625 15.7146 17.0484 16.935 17.0484 16.935C17.0484 16.935 14.2307 18.1429 11.3112 18.5648C10.4533 18.6524 9.8833 17.8756 9.8833 17.8756Z" fill="currentColor" />
    <path d="M7.84718 16.2462C7.84718 16.2462 6.66793 12.2336 3.30714 12.1415C-0.0536515 12.0494 -0.545283 11.8117 0.470457 14.042L0.621643 14.4617C0.621643 14.4617 3.11004 12.5851 6.33308 16.0324C6.91865 16.608 7.47306 17.2155 7.99388 17.8521C7.99388 17.8521 8.39928 17.5325 7.84718 16.2462Z" fill="currentColor" />
    <path d="M7.83151 17.9126C7.83151 17.9126 4.70366 13.9762 1.998 14.6052C-0.707652 15.2341 0.732527 16.5523 0.732527 16.5523C0.732527 16.5523 3.47178 17.9274 6.37117 18.5188C7.21893 18.6519 7.83151 17.9126 7.83151 17.9126Z" fill="currentColor" />
  </g>
  <defs>
    <clipPath id="ag-crop-alfalfa-clip">
      <rect width="18" height="23.625" fill="white" />
    </clipPath>
  </defs>
</svg>
