<svg xmlns="http://www.w3.org/2000/svg" viewBox="0 0 22 22" fill="none" aria-hidden="true">
  <!-- AgMRI canola crop glyph. Tint: color on parent + fill="currentColor". Spec: docs/scout-list-table-pills-crop-icons.md -->
  <path
    id="ag-crop-canola"
    d="M13.8152 8.8961C13.8436 7.22325 12.4427 5.86839 12.4427 5.86839C12.4427 5.86839 10.9952 7.27148 10.9669 8.94433C10.9508 9.89379 11.3884 10.7452 11.7861 11.2808L9.47487 8.96959C9.75074 8.69372 10.8795 7.43163 10.8818 5.96262C10.9101 4.28977 9.50924 2.93491 9.50924 2.93491C9.50924 2.93491 8.06171 4.33799 8.03339 6.01085C8.01731 6.9603 8.45489 7.81168 8.85262 8.34734L7.38587 6.88059C7.30693 6.20394 7.07702 5.10045 6.32143 4.34486C5.14359 3.16702 3.1987 3.24515 3.1987 3.24515C3.1987 3.24515 3.14279 5.21226 4.29841 6.36788C5.054 7.12347 6.15749 7.35338 6.83414 7.43233L8.30088 8.89907C7.74224 8.52433 6.91385 8.06377 5.96439 8.07984C4.29154 8.10817 2.88846 9.5557 2.88846 9.5557C2.88846 9.5557 4.24332 10.9565 5.91617 10.9282C7.40817 10.903 8.64727 9.79719 8.92314 9.52132L11.2344 11.8326C10.6757 11.4578 9.84733 10.9973 8.89788 11.0133C7.22502 11.0416 5.82194 12.4892 5.82194 12.4892C5.82194 12.4892 7.1768 13.89 8.84965 13.8617C10.3417 13.8364 11.5808 12.7307 11.8566 12.4548L14.1678 14.766C13.6092 14.3913 12.7808 13.9307 11.8314 13.9468C10.1585 13.9751 8.75542 15.4227 8.75542 15.4227C8.75542 15.4227 10.1103 16.8235 11.7831 16.7952C13.2751 16.7699 14.5142 15.6642 14.7901 15.3883L17.0791 17.6773C16.5205 17.3026 15.6921 16.842 14.7426 16.8581C13.0698 16.8864 11.6667 18.3339 11.6667 18.3339C11.6667 18.3339 13.0215 19.7348 14.6944 19.7064C16.1864 19.6812 17.4255 18.5754 17.7014 18.2995L18.1903 18.7885C18.3458 18.944 18.6171 18.9394 18.778 18.7785C18.939 18.6176 18.9436 18.3463 18.788 18.1908L18.2769 17.6796C18.5527 17.4038 19.6815 16.1417 19.6837 14.6726C19.7121 12.9998 18.3112 11.6449 18.3112 11.6449C18.3112 11.6449 16.8637 13.048 16.8354 14.7209C16.8193 15.6703 17.2569 16.5217 17.6546 17.0574L15.3878 14.7906C15.6637 14.5147 16.7924 13.2526 16.7947 11.7836C16.823 10.1108 15.4222 8.7559 15.4222 8.7559C15.4222 8.7559 13.9747 10.159 13.9463 11.8318C13.9303 12.7813 14.3678 13.6327 14.7656 14.1683L12.4543 11.8571C12.662 11.605 13.7678 10.3659 13.8152 8.8961Z"
    fill="currentColor"
  />
</svg>
