<svg xmlns="http://www.w3.org/2000/svg" viewBox="0 0 22 22" fill="none" aria-hidden="true">
  <!-- AgMRI corn crop glyph. Tint: color on parent + fill="currentColor". Spec: docs/scout-list-table-pills-crop-icons.md -->
  <path id="ag-crop-corn"
    fill-rule="evenodd"
    clip-rule="evenodd"
    d="M7.95065 9.79171C8.51239 8.31405 9.78936 7.5438 11.6288 7.57314C11.5919 7.3502 11.4883 7.1346 11.3211 6.96154C11.2409 6.87891 11.2025 6.77454 11.2018 6.66722C11.2025 6.55991 11.2406 6.45554 11.3211 6.37291V6.37218C11.5359 6.14998 11.6447 5.86007 11.6447 5.57334C11.6447 5.2866 11.5357 4.99669 11.3211 4.77449L11.1754 4.6244C11.0974 4.54325 11.0568 4.4374 11.0568 4.32936C11.0568 4.26556 11.0703 4.20249 11.0996 4.14383V4.14309L11.1913 3.95463C11.2707 3.79403 11.3083 3.62047 11.3083 3.45083C11.3083 3.24427 11.2536 3.04236 11.1485 2.8666C11.0448 2.68938 10.8908 2.53783 10.698 2.43565L10.3653 2.25843C10.2497 2.19756 10.1685 2.08634 10.1467 1.95727L10.0815 1.58718C10.0326 1.31023 9.8869 1.06994 9.68499 0.902492C9.48454 0.735048 9.22543 0.636048 8.94994 0.636048C8.89665 0.636048 8.84263 0.639715 8.78714 0.648026L8.78788 0.647292L8.41632 0.699848C8.39603 0.702781 8.37648 0.704248 8.35619 0.704248C8.24741 0.704248 8.14156 0.662204 8.06114 0.584959L7.79079 0.323648C7.56932 0.108048 7.27868 -0.00072965 6.99194 3.68314e-06C6.70448 -0.00072965 6.41456 0.108048 6.19261 0.323648L5.92225 0.585692C5.8433 0.662204 5.73672 0.704248 5.62794 0.704248C5.60839 0.704248 5.5881 0.702781 5.56781 0.699848L5.19552 0.647292V0.647781C5.14223 0.63947 5.08748 0.635804 5.03419 0.635804C4.7587 0.635804 4.50032 0.734803 4.29841 0.902248C4.09797 1.06969 3.95154 1.30998 3.90265 1.58694L3.83812 1.95703C3.8149 2.08634 3.73448 2.19731 3.61885 2.25818L3.28617 2.4354C3.0933 2.53758 2.9393 2.68914 2.83492 2.86636C2.73128 3.04211 2.67505 3.24403 2.67505 3.45058C2.67505 3.62023 2.71343 3.79378 2.79214 3.95438L2.88454 4.14285C2.91314 4.20298 2.92732 4.26605 2.92732 4.32911C2.92732 4.43716 2.88674 4.543 2.80803 4.62416L2.66234 4.77425C2.44748 4.99645 2.3387 5.28636 2.33943 5.57309C2.3387 5.75251 2.38148 5.9334 2.46557 6.09791C5.03981 5.99354 6.88316 7.76014 7.95065 9.79171ZM13.3517 9.16398C13.4096 9.06938 13.435 8.96574 13.4343 8.8682C13.4343 8.79682 13.4223 8.72789 13.3976 8.66189C13.3607 8.56411 13.2962 8.47196 13.2023 8.40205C13.1094 8.33214 12.9855 8.29009 12.8615 8.29082H11.6288C11.2389 8.28862 11.0116 8.30207 10.8869 8.31405H10.8862C10.565 8.35609 10.2631 8.44996 9.98834 8.58734C9.41536 8.87334 8.96192 9.34487 8.65563 9.91394C8.53268 10.1415 8.4327 10.384 8.35765 10.6377C8.88174 11.8182 9.24963 13.4127 9.24963 15.2213C9.24963 15.7694 9.21663 16.3257 9.15283 16.8799C9.15283 16.8813 9.15283 16.8821 9.1521 16.8835C9.02352 17.8481 8.89225 18.415 8.44174 19.108C8.33272 19.2762 8.10759 19.3233 7.94014 19.2138C7.77196 19.1048 7.72479 18.8804 7.8343 18.713C8.21196 18.1334 8.29385 17.6694 8.43123 16.8046L8.43196 16.8002C8.49283 16.2717 8.52436 15.7432 8.52436 15.2213C8.15794 9.83669 5.73745 6.81854 2.46557 6.81854H1.10279C1.03068 6.81854 0.955632 6.83345 0.889632 6.86351C0.788921 6.90776 0.709477 6.9828 0.659121 7.06616C0.608766 7.15025 0.583344 7.24338 0.583344 7.33945C0.583344 7.42891 0.606566 7.52351 0.656921 7.60834C0.70801 7.69389 0.788921 7.766 0.881321 7.80951C1.31814 8.01754 1.68603 8.33751 1.94441 8.73082C2.20279 9.12414 2.35141 9.58956 2.35214 10.1009V16.2964C2.35141 17.5758 2.87159 18.7386 3.71101 19.5773C4.22532 20.0916 4.86136 20.4864 5.57074 20.7147C5.57074 21.4241 6.14665 22 6.85603 22H7.12712C7.83723 22 8.41241 21.4241 8.41241 20.7147C9.1235 20.4864 9.7593 20.0916 10.2736 19.5773C11.1123 18.7386 11.6325 17.5758 11.6325 16.2964V11.5485C11.6332 11.0374 11.7811 10.5967 12.0363 10.2302C12.2917 9.86456 12.6572 9.57245 13.0965 9.38251C13.2016 9.33729 13.294 9.25785 13.3517 9.16398Z"
    fill="currentColor"
  />
</svg>
