<svg xmlns="http://www.w3.org/2000/svg" viewBox="0 0 22 22" fill="none" aria-hidden="true">
  <!-- AgMRI cotton crop glyph. Tint: color on parent + fill="currentColor". Spec: docs/scout-list-table-pills-crop-icons.md -->
  <path
    id="ag-crop-cotton"
    fill-rule="evenodd"
    clip-rule="evenodd"
    d="M11.5122 2.99121C13.2886 1.47923 15.8838 1.52811 17.4839 3.14307C18.4927 4.16119 18.8877 5.58807 18.6439 6.95764C20.2567 7.99797 20.5946 10.3953 19.1725 11.9711C18.7475 11.1106 18.2568 10.6196 17.8476 10.2102C17.6997 10.0622 17.5625 9.92495 17.4429 9.78473C17.354 9.88999 17.2317 10.0083 17.089 10.1464C16.5867 10.6324 15.8315 11.3632 15.3879 12.6312C14.1894 12.0613 13.1554 12.1182 12.477 12.1554C12.2988 12.1652 12.1451 12.1737 12.0194 12.1691C12.0235 12.3082 12.0168 12.47 12.0093 12.6521C11.9798 13.3622 11.9375 14.3811 12.4772 15.5688C11.223 16.0158 10.5212 16.7541 10.0323 17.2684C9.89242 17.4156 9.76995 17.5444 9.65697 17.6429C9.74891 17.7357 9.84192 17.8374 9.94014 17.9448C10.3622 18.4064 10.8804 18.9731 11.8232 19.3886C10.3347 20.7504 7.99258 20.5163 6.92703 18.8534C5.57005 19.0995 4.15629 18.7008 3.14752 17.6827C1.68656 16.2081 1.56056 13.8778 2.66642 12.1297C4.1929 10.6593 6.93045 10.7049 8.49578 12.2848C8.6697 12.4603 8.98916 12.489 9.20745 12.2687C9.38937 12.0851 9.39736 11.7259 9.22343 11.5504C7.69289 10.0056 5.35395 9.62789 3.45123 10.4248C2.25133 8.40594 2.52555 5.67165 4.3083 3.87236C6.01828 2.1465 8.51554 1.80275 10.4495 2.79991C9.1949 4.83851 9.80788 7.66039 11.408 9.27534C11.5819 9.45088 11.9378 9.44282 12.1197 9.25922C12.338 9.0389 12.3096 8.71648 12.1356 8.54094C10.779 7.17174 10.2308 4.63556 11.5122 2.99121ZM14.2423 16.176C13.4771 15.4037 13.0028 14.3375 13.03 13.1165C14.2399 13.0891 15.2962 13.5677 16.0978 14.3033C16.1218 13.2259 16.5744 12.067 17.4476 11.1857C18.2824 12.0283 18.6854 13.096 18.6599 14.2453C18.6739 15.2141 18.3321 16.1911 17.674 16.9957L20.893 20.2446C21.094 20.4474 21.0939 20.7762 20.893 20.979C20.6921 21.1818 20.3669 21.1824 20.166 20.9796L16.9463 17.7301C15.6777 18.7998 14.0013 19.0173 12.5907 18.4749C12.0262 18.2723 11.5708 17.9596 11.1534 17.5383C12.0265 16.657 13.1036 16.2018 14.2423 16.176Z"
    fill="currentColor"
  />
</svg>
