<svg id="icon" xmlns="http://www.w3.org/2000/svg" viewBox="0 0 16 16" fill="none" aria-hidden="true">
  <!-- AgMRI retailer mat-icon Equipment_Harvest (partial combine header path; add paths for full parity if needed). Tint: parent `color` + `fill="currentColor"`. Spec: docs/field-view-flight-chicklets.md -->
  <path
    fill="currentColor"
    d="M2.28571 5.71429C2.28571 5.0831 1.77404 4.57143 1.14286 4.57143C0.511675 4.57143 0 5.0831 0 5.71429C0 5.86092 0.027617 6.00111 0.0779335 6.12993L0.754692 9.73931C1.36558 9.36114 2.08587 9.14286 2.85714 9.14286C5.06628 9.14286 6.85714 10.9337 6.85714 13.1429C6.85714 13.3369 6.84333 13.5277 6.81664 13.7143H9.18337C9.15667 13.5277 9.14286 13.3369 9.14286 13.1429C9.14286 10.9337 10.9337 9.14286 13.1429 9.14286C13.9141 9.14286 14.6344 9.36114 15.2453 9.73931L15.9221 6.12993C15.9724 6.00111 16 5.86092 16 5.71429C16 5.0831 15.4883 4.57143 14.8571 4.57143C14.226 4.57143 13.7143 5.0831 13.7143 5.71429H12.5714C12.5714 5.0831 12.0598 4.57143 11.4286 4.57143C10.7974 4.57143 10.2857 5.0831 10.2857 5.71429H9.14286C9.14286 5.0831 8.63118 4.57143 8 4.57143C7.36882 4.57143 6.85714 5.0831 6.85714 5.71429H5.71429C5.71429 5.0831 5.20261 4.57143 4.57143 4.57143C3.94025 4.57143 3.42857 5.0831 3.42857 5.71429H2.28571Z"
  />
</svg>
