<svg id="icon" xmlns="http://www.w3.org/2000/svg" viewBox="0 0 18 18" fill="none" aria-hidden="true">
  <!-- AgMRI retailer mat-icon Equipment_Tillage (tractor). Tint: parent `color` + path `fill="currentColor"`. Spec: docs/field-view-flight-chicklets.md -->
  <path
    fill="currentColor"
    d="M14.2 11.4C12.985 11.4 12 12.385 12 13.6C12 14.815 12.985 15.8 14.2 15.8C15.415 15.8 16.4 14.815 16.4 13.6C16.4 12.385 15.415 11.4 14.2 11.4ZM14.2 14.2C13.8693 14.2 13.6 13.9307 13.6 13.6C13.6 13.2692 13.8693 13 14.2 13C14.5308 13 14.8 13.2692 14.8 13.6C14.8 13.9307 14.5308 14.2 14.2 14.2ZM16.2 7H14.6V5.995C14.6 5.642 14.7175 5.301 14.9288 5.024C15.0393 4.879 15.0175 4.6725 14.8958 4.53675L14.355 3.9325C14.1885 3.74625 13.897 3.7595 13.7375 3.952C13.2645 4.5225 13 5.24525 13 5.995V7H10.4418L9.0395 3.7285C8.94739 3.51221 8.79366 3.3278 8.59748 3.19826C8.4013 3.06872 8.17134 2.99977 7.93625 3H4.6C3.93825 3 3.4 3.53825 3.4 4.2V7.863C3.18425 7.69475 2.876 7.7015 2.67775 7.89975L1.9 8.6775C1.68525 8.89225 1.68525 9.2405 1.9 9.45525L2.0265 9.58175C1.90175 9.81325 1.8025 10.0522 1.72875 10.2997H1.55C1.24625 10.2997 1 10.546 1 10.8498V11.9497C1 12.2535 1.24625 12.4998 1.55 12.4998H1.7285C1.8025 12.7475 1.9015 12.9862 2.02625 13.218L1.89975 13.3445C1.685 13.5592 1.685 13.9075 1.89975 14.1223L2.6775 14.9C2.89225 15.1147 3.2405 15.1147 3.45525 14.9L3.58175 14.7735C3.81325 14.8983 4.05225 14.9975 4.29975 15.0712V15.25C4.29975 15.5538 4.546 15.8 4.84975 15.8H5.94975C6.2535 15.8 6.49975 15.5538 6.49975 15.25V15.0715C6.74725 14.9977 6.98625 14.8985 7.21775 14.7738L7.34425 14.9003C7.559 15.115 7.90725 15.115 8.122 14.9003L8.89975 14.1225C9.1145 13.9078 9.1145 13.5595 8.89975 13.3448L8.77325 13.2183C8.898 12.9868 8.99725 12.7478 9.071 12.5003H9.25C9.55375 12.5003 9.8 12.254 9.8 11.9503V11.8003H11.8135C12.3613 11.0755 13.2215 10.6003 14.2 10.6003C14.666 10.6003 15.1018 10.7155 15.495 10.9053L16.7655 9.63475C16.9155 9.48475 16.9998 9.28125 16.9998 9.069V7.8C17 7.35825 16.6418 7 16.2 7ZM5.4 13.4C4.2955 13.4 3.4 12.5045 3.4 11.4C3.4 10.2955 4.2955 9.4 5.4 9.4C6.5045 9.4 7.4 10.2955 7.4 11.4C7.4 12.5045 6.5045 13.4 5.4 13.4ZM5.95 7H5V4.6H7.67225L8.701 7H5.95Z"
  />
</svg>
