<svg id="icon" xmlns="http://www.w3.org/2000/svg" viewBox="0 0 14 14" fill="none" aria-hidden="true">
  <!-- AgMRI retailer mat-icon Equipment_Planter (seeding). Tint: parent `color` + `fill="currentColor"`. Spec: docs/field-view-flight-chicklets.md -->
  <path
    fill-rule="evenodd"
    clip-rule="evenodd"
    fill="currentColor"
    d="M3.66508 5.99874C4.71015 6.35266 5.85802 5.83948 6.23182 4.85C6.60717 3.86051 6.66947 1.17223 5.6244 0.81684C4.58088 0.462925 2.82404 2.57757 2.45024 3.56558C2.078 4.55507 2.62156 5.64483 3.66508 5.99874ZM4.07816 12.9724C4.80495 13.4432 5.76915 13.2274 6.2343 12.493C6.70065 11.7574 6.48625 10.7802 5.75946 10.3082C5.03267 9.83734 2.88986 9.28929 2.42592 10.0262C1.96199 10.763 3.34895 12.5016 4.07816 12.9724ZM7.87949 8.87401C7.2134 8.22469 8.26235 6.09062 8.91664 5.42958C9.56961 4.76724 10.6395 4.75683 11.3069 5.40746C11.9743 6.05679 11.9848 7.11992 11.3305 7.78096C10.6763 8.442 8.54557 9.52334 7.87949 8.87401Z"
  />
</svg>
