<svg xmlns="http://www.w3.org/2000/svg" viewBox="0 0 24 24" fill="none" aria-hidden="true">
  <!-- AgMRI hay crop glyph. Tint: color on parent + fill="currentColor". Spec: docs/scout-list-table-pills-crop-icons.md -->
  <path
    id="ag-crop-hay"
    d="M13.2903 3.00196C13.2192 3.0102 13.1449 3.04509 13.0884 3.09695C12.9714 3.20447 10.2311 5.77396 10.5645 10.245C10.5796 10.4429 10.5645 10.6012 10.5645 10.6012H12.0676C12.0271 10.4819 12.0003 10.3553 12.0003 10.2212C12.0003 7.73095 12.705 5.96128 13.537 4.73553C13.6153 3.97408 13.6807 3.44499 13.6829 3.42941C13.7037 3.27249 13.6351 3.12506 13.5034 3.04945C13.4375 3.01183 13.3613 2.99374 13.2903 3.00196ZM16.6105 3.00196C16.5724 3.00465 16.535 3.00972 16.4983 3.02571C16.344 3.09372 12.7182 4.74902 12.7182 10.2212V10.6012H13.8623C13.816 10.4629 13.7882 10.3108 13.795 10.1618C13.8934 7.97213 15.0591 5.33654 16.5993 4.20121C16.7881 3.82049 16.9199 3.60287 16.9246 3.59565C17.0147 3.45697 17.0135 3.27516 16.9134 3.14445C16.8385 3.04643 16.7248 2.99387 16.6105 3.00196ZM10.0037 3.72626C9.92805 3.7307 9.85178 3.75505 9.79058 3.80939C9.66818 3.91805 9.63659 4.10595 9.70084 4.26059C9.703 4.2655 9.76231 4.42435 9.84666 4.68805C10.1116 4.9221 10.3849 5.2047 10.6318 5.53108C10.7751 5.19444 10.9247 4.87575 11.0805 4.59305C10.7718 4.23855 10.4427 3.93724 10.228 3.78564C10.1618 3.7389 10.0793 3.72189 10.0037 3.72626ZM7.31163 4.22496C7.19583 4.24626 7.09169 4.32013 7.04242 4.43869C6.97638 4.59675 7.01559 4.78198 7.14337 4.88989C7.1484 4.89401 7.297 5.03238 7.50232 5.31735C8.38675 6.04535 9.24866 7.20081 9.84666 8.87948C9.90266 7.94515 10.0776 7.10278 10.3178 6.36224C9.18423 4.55515 7.44964 4.22952 7.4238 4.22496C7.38333 4.21799 7.35022 4.21784 7.31163 4.22496ZM17.9004 4.41494C16.2023 4.69155 14.6199 7.82195 14.5129 10.1975C14.5083 10.3012 14.5129 10.6012 14.5129 10.6012H16.9919C16.9919 10.6012 16.9919 10.4309 16.9919 10.2212C16.9919 7.72297 18.2689 4.98849 18.2818 4.96113C18.3418 4.83423 18.3275 4.68405 18.2482 4.5693C18.1692 4.45456 18.0315 4.3929 17.9004 4.41494ZM5.30379 5.09175C5.19397 5.11087 5.09883 5.18416 5.0458 5.2936C4.97545 5.43912 4.99349 5.61628 5.10189 5.73293C5.12055 5.75307 6.97512 7.783 6.97512 10.2212C6.97512 10.4309 6.9639 10.6012 6.9639 10.6012H9.12878H9.5438C9.5438 10.6012 9.54237 10.4648 9.49894 10.2212C9.48817 10.1608 9.47848 10.1063 9.45407 10.055C8.58004 6.74362 6.73866 5.30718 5.41596 5.09175C5.37827 5.08541 5.3404 5.08541 5.30379 5.09175ZM6.97512 10.9811C6.77698 10.9811 6.61618 11.1514 6.61618 11.3611C6.61618 11.5708 6.77698 11.7411 6.97512 11.7411H17.0255C17.224 11.7411 17.3845 11.5708 17.3845 11.3611C17.3845 11.1514 17.224 10.9811 17.0255 10.9811H6.97512ZM6.97512 12.121C6.77698 12.121 6.61618 12.2912 6.61618 12.501C6.61618 12.7107 6.77698 12.8809 6.97512 12.8809H17.0255C17.224 12.8809 17.3845 12.7107 17.3845 12.501C17.3845 12.2912 17.224 12.121 17.0255 12.121H6.97512ZM6.97512 13.2609C6.77698 13.2609 6.61618 13.4307 6.61618 13.6409C6.61618 13.8293 6.74936 13.9788 6.91903 14.0089C6.05985 17.6222 4.12355 19.6171 4.10358 19.6371C4.02245 19.7192 3.99006 19.8395 4.00262 19.9577C4.01519 20.0751 4.07468 20.17 4.17088 20.2308L5.78612 21.2638C5.84391 21.3007 5.90278 21.3113 5.96559 21.3113C6.08692 21.3113 6.21219 21.251 6.27967 21.1332C6.37949 20.9588 8.67863 16.8991 8.75862 14.0208H9.4765C9.40774 16.7963 7.51354 20.4168 6.99755 21.3469C7.00581 21.3781 7.01505 21.4016 7.0312 21.4301C7.08002 21.5171 7.15172 21.5838 7.24433 21.6082L8.6801 21.9881C8.70953 21.9957 8.74112 22 8.76983 22C8.92346 22 9.06982 21.9006 9.11756 21.7388C9.1769 21.5377 10.5391 16.8822 10.5645 14.0208H11.6526L12.3593 21.6557C12.3772 21.8502 12.5333 22 12.7182 22H14.154C14.1565 21.9996 14.163 22 14.1652 22C14.1839 22 14.1921 21.9911 14.2101 21.9881C14.2068 21.9783 14.2017 21.9742 14.1988 21.9644C14.1381 21.7593 12.7448 17.0148 12.7182 14.0208H13.4361C13.4615 16.8822 14.8234 21.5373 14.8831 21.7388C14.9308 21.9006 15.0775 22 15.2308 22C15.2599 22 15.2915 21.9957 15.3205 21.9881L16.7563 21.6081C16.8493 21.5838 16.9203 21.5171 16.9694 21.43C16.9899 21.3939 17.0064 21.3638 17.0143 21.3232C16.5489 20.481 14.6105 16.8022 14.5241 14.0208H15.242C15.3396 16.8969 17.6209 20.9235 17.721 21.0976C17.7881 21.2154 17.9137 21.2757 18.035 21.2757C18.0979 21.2757 18.156 21.2651 18.2145 21.2282L19.8298 20.1952C19.9263 20.134 19.9865 20.0291 19.998 19.9102C20.0098 19.7913 19.9684 19.6709 19.8859 19.5896C19.8659 19.5699 17.9432 17.6311 17.0816 14.0089C17.2515 13.9788 17.3845 13.8293 17.3845 13.6409C17.3845 13.4307 17.224 13.2609 17.0255 13.2609L6.97512 13.2609ZM11.1142 16.0156C10.7538 18.6525 9.9224 21.5563 9.8018 21.9644C9.79892 21.9735 9.79345 21.9794 9.79058 21.9881C9.81068 21.9922 9.8262 22 9.84666 22H11.2824C11.4673 22 11.6234 21.8502 11.6414 21.6556L11.1142 16.0156Z"
    fill="currentColor"
  />
</svg>
