<svg xmlns="http://www.w3.org/2000/svg" viewBox="7.15 0.2 6.5 9.85" fill="none" aria-hidden="true">
  <!-- AgMRI oats crop glyph. Tint: color on parent + fill="currentColor". Tight viewBox. Spec: docs/scout-list-table-pills-crop-icons.md -->
  <path
    id="ag-crop-oats"
    d="M10.9525 0.585767C10.9313 0.516582 10.8924 0.454028 10.8399 0.404144C10.7873 0.354261 10.7227 0.318729 10.6523 0.300969C10.5819 0.283209 10.5082 0.28382 10.4381 0.302749C10.368 0.321677 10.3041 0.358283 10.2523 0.409034C9.33639 1.31625 7.69365 3.70212 9.64071 7.94365C9.92701 8.60564 10.43 9.15131 11.0675 9.49155C11.705 9.8318 12.4394 9.94652 13.1507 9.81699C13.2268 9.80669 13.2997 9.78003 13.3643 9.73885C13.429 9.69766 13.4839 9.64293 13.5252 9.57847C13.5665 9.51402 13.5933 9.44137 13.6036 9.36557C13.614 9.28977 13.6076 9.21264 13.5851 9.13953L10.9525 0.585767Z"
    fill="currentColor"
  />
</svg>
