<svg id="icon" xmlns="http://www.w3.org/2000/svg" viewBox="0 0 20 19" fill="none" aria-hidden="true">
  <!-- AgMRI retailer mat-icon Scouting (flight strip). Tint: parent `color` + `fill="currentColor"`. Spec: docs/field-view-flight-chicklets.md -->
  <path
    fill-rule="evenodd"
    clip-rule="evenodd"
    fill="currentColor"
    d="M18.7736 11.061L16.5609 5.46923C16.5392 5.41526 16.5074 5.36608 16.4672 5.32443L15.2596 4.09714L14.0153 0.735871C13.9938 0.678513 13.9607 0.626284 13.9183 0.582459C13.0062 -0.194153 11.6747 -0.194153 10.7626 0.582459C10.6828 0.663432 10.6381 0.773191 10.6383 0.887559V5.18567C10.3617 5.15982 10.08 5.14172 9.78724 5.14172C9.64257 5.14172 9.50216 5.14861 9.36174 5.15551L9.36171 5.15551V0.889283C9.36191 0.774918 9.31721 0.665159 9.23746 0.584186C8.32531 -0.192427 6.99386 -0.192427 6.08172 0.584186C6.03929 0.628011 6.00626 0.680239 5.98469 0.737597L4.74044 4.09714L3.53193 5.32444C3.49173 5.36608 3.45993 5.41526 3.43831 5.46923L1.2264 11.061C-0.518058 12.9931 -0.385607 15.9914 1.52225 17.758C3.4301 19.5246 6.39089 19.3905 8.13535 17.4584C8.9265 16.5822 9.36414 15.4372 9.36171 14.2499V9.47517C9.49363 9.46224 9.6332 9.45362 9.78725 9.45362C10.0729 9.45173 10.358 9.47887 10.6383 9.53464V14.2482C10.633 16.8661 12.7243 18.9928 15.3094 18.9982C17.8946 19.0037 19.9946 16.8858 20 14.2678C20.0024 13.0805 19.5648 11.9355 18.7736 11.0593L18.7736 11.061ZM7.65921 14.2481C7.65921 15.9141 6.32559 17.2646 4.68048 17.2646C3.03538 17.2646 1.70176 15.9141 1.70176 14.2481C1.70176 12.5821 3.03538 11.2316 4.68048 11.2316C6.32559 11.2316 7.6592 12.5821 7.65921 14.2481ZM12.34 14.2481C12.34 15.9141 13.6736 17.2646 15.3187 17.2646C16.9639 17.2646 18.2975 15.9141 18.2975 14.2481C18.2975 12.5821 16.9639 11.2316 15.3187 11.2316C13.6736 11.2316 12.34 12.5821 12.34 14.2481Z"
  />
</svg>
