<svg xmlns="http://www.w3.org/2000/svg" viewBox="0 0 22 22" fill="none" aria-hidden="true">
  <!-- AgMRI soybean crop glyph. Tint: color on parent + fill="currentColor". Spec: docs/scout-list-table-pills-crop-icons.md -->
  <path id="ag-crop-soy"
    fill-rule="evenodd"
    clip-rule="evenodd"
    d="M4.64131 19.5005C4.73418 19.3168 4.83659 19.1143 4.95004 18.8997C3.97001 18.9072 3.28493 18.4371 2.8594 18.1173C2.29363 17.6923 0 17.3017 0 17.3017C1.06624 16.8729 1.65798 15.8 1.65798 15.8C2.07845 12.4264 3.8677 11.653 5.15211 11.298C5.41607 11.2251 5.68241 11.1694 5.94369 11.1147C6.954 10.9034 7.88867 10.7079 8.31773 9.59386C8.8582 8.19151 9.99824 7.67886 9.99824 7.67886C12.5569 6.54204 12.7514 5.95237 12.7514 5.95237C12.7514 5.95237 14.1239 3.13849 15.955 2.5364C16.8725 2.23501 17.5713 1.96052 18.0399 1.76189L18.0369 1.75293C18.0369 1.75293 19.8395 0.677952 20.0516 0C20.0516 0 21.1492 2.72974 21.1889 3.35665C21.5604 4.17162 22.3609 6.35537 21.3011 8.19588C20.8495 8.98028 20.4719 9.42519 20.151 9.80333C19.5257 10.5402 19.1154 11.0236 18.7914 13.2717C18.3015 16.6734 15.5931 17.17 15.5931 17.17C15.5931 17.17 13.4319 17.689 12.9199 19.161C12.4075 20.6326 10.0311 22.5577 7.51058 21.848C4.98981 21.1386 3.02331 21.4715 3.02331 21.4715C3.02331 21.4715 3.5516 21.0439 4.14404 20.3744C4.2731 20.2287 4.43326 19.9119 4.64131 19.5005ZM3.90156 16.0466C4.16952 16.7128 4.73321 17.1705 5.38048 17.3313C5.8642 16.4383 6.65865 15.268 8.03774 15.0472C8.019 14.8444 7.9711 14.6408 7.89113 14.442C7.44823 13.3403 6.19575 12.8065 5.09406 13.2495C3.99222 13.6924 3.45852 14.9448 3.90156 16.0466ZM12.9603 10.2547C11.6656 11.0676 11.4223 11.9529 11.3423 12.2442C11.3259 12.3038 11.3163 12.3385 11.306 12.3426C11.2932 12.3479 11.272 12.3939 11.239 12.4656L11.239 12.4656C11.1669 12.6222 11.0385 12.9011 10.8183 13.1422C10.2892 12.9044 9.84718 12.4708 9.61374 11.8901C9.13545 10.7004 9.71179 9.348 10.9015 8.86942C11.9017 8.46714 13.0165 8.81094 13.6311 9.63723C13.5471 9.79106 13.3613 10.0026 12.9603 10.2547ZM15.3103 7.24486C15.3314 7.1702 15.3169 7.12897 15.3169 7.12897C15.3169 7.12897 15.3123 5.37015 16.7839 4.23939C16.4874 4.20367 16.1781 4.2418 15.8834 4.36626C14.981 4.74712 14.5584 5.78741 14.9395 6.68973C15.0295 6.90305 15.1568 7.08924 15.3103 7.24486Z"
    fill="currentColor"
  />
</svg>
