<svg xmlns="http://www.w3.org/2000/svg" viewBox="0 0 24 24" fill="none" color="#737373" aria-hidden="true" width="24" height="24">
  <!-- Emergence / analytics empty state: chart + search. fill=currentColor (root color for img; override when inlining in app). -->
  <path id="emergence-empty-icon" fill="currentColor" d="M20.7457 21.9938L18.3563 19.629C18.0278 19.8589 17.6625 20.0314 17.2601 20.1463C16.8578 20.2613 16.4431 20.3187 16.0161 20.3187C14.7845 20.3187 13.7376 19.8877 12.8755 19.0255C12.0133 18.1634 11.5822 17.1165 11.5822 15.8848C11.5822 14.6532 12.0133 13.6063 12.8755 12.7441C13.7376 11.882 14.7845 11.4509 16.0161 11.4509C17.2478 11.4509 18.2947 11.882 19.1568 12.7441C20.019 13.6063 20.4501 14.6532 20.4501 15.8848C20.4501 16.3118 20.3926 16.7264 20.2776 17.1288C20.1627 17.5311 19.9903 17.9047 19.7604 18.2496L22.1251 20.6143C22.3222 20.8114 22.4248 21.0413 22.433 21.3041C22.4412 21.5668 22.3468 21.7967 22.1498 21.9938C21.9527 22.1909 21.7187 22.2894 21.4477 22.2894C21.1768 22.2894 20.9427 22.1909 20.7457 21.9938ZM16.0161 18.3481C16.7059 18.3481 17.2889 18.11 17.7651 17.6338C18.2413 17.1575 18.4794 16.5745 18.4794 15.8848C18.4794 15.1951 18.2413 14.6121 17.7651 14.1359C17.2889 13.6596 16.7059 13.4215 16.0161 13.4215C15.3264 13.4215 14.7434 13.6596 14.2672 14.1359C13.791 14.6121 13.5529 15.1951 13.5529 15.8848C13.5529 16.5745 13.791 17.1575 14.2672 17.6338C14.7434 18.11 15.3264 18.3481 16.0161 18.3481ZM1.90148 17.3382C1.68799 17.1904 1.56072 16.9892 1.51967 16.7347C1.47861 16.4801 1.52377 16.2379 1.65515 16.008L5.37472 10.0468C5.55536 9.76764 5.8058 9.61574 6.12603 9.5911C6.44625 9.56647 6.72132 9.67732 6.95123 9.92365L9.04503 12.3623L12.1734 7.26329C12.3541 6.95127 12.6291 6.79527 12.9986 6.79527C13.3681 6.79527 13.6514 6.94306 13.8485 7.23866L15.6713 9.97292C15.2936 9.98934 14.9364 10.0345 14.5998 10.1084C14.2631 10.1823 13.9306 10.2849 13.6021 10.4163L13.0602 9.60342L10.0303 14.53C9.8497 14.8092 9.59517 14.9652 9.26673 14.998C8.93829 15.0309 8.65911 14.9159 8.42921 14.6532L6.33541 12.2145L3.33019 17.0672C3.18239 17.3135 2.9648 17.4654 2.67742 17.5229C2.39003 17.5804 2.13139 17.5188 1.90148 17.3382ZM18.2085 10.4656C17.8965 10.3342 17.5721 10.2275 17.2355 10.1453C16.8988 10.0632 16.5499 10.014 16.1886 9.99755L20.6718 2.90326C20.8196 2.67335 21.0331 2.52556 21.3122 2.45987C21.5914 2.39418 21.8459 2.45166 22.0759 2.6323C22.2893 2.7801 22.4207 2.98127 22.47 3.23581C22.5192 3.49035 22.4782 3.73257 22.3468 3.96248L18.2085 10.4656Z"/>
</svg>
