<svg width="48" height="48" viewBox="0 0 48 48" fill="none" xmlns="http://www.w3.org/2000/svg">
<path d="M46.7132 31.9603C47.4809 32.399 48.139 28.67 47.9744 33.6054C47.9744 34.2635 47.5906 34.9216 46.768 35.4151L27.0809 46.8216C25.4357 47.7538 22.7486 47.7538 21.1035 46.8216L1.30671 35.4151C0.484129 34.9216 0.100256 34.3184 0.0454174 33.6603C-0.173937 28.2861 0.429287 32.399 1.25187 31.9054L20.939 20.499C22.5841 19.5667 25.2712 19.5667 26.9164 20.499L46.7132 31.9603Z" fill="url(#paint0_linear_21_7303)"/>
<g opacity="0.615047" filter="url(#filter0_i_21_7303)">
<path fill-rule="evenodd" clip-rule="evenodd" d="M46.4009 28.6831C48.5233 29.9085 48.5344 31.8953 46.4259 33.1205L27.9041 43.8841C25.7957 45.1097 22.3656 45.1097 20.2432 43.8841L1.59918 33.1201C-0.523205 31.8947 -0.534501 29.9079 1.57417 28.6825L20.0957 17.9191C22.2044 16.6937 25.6343 16.6937 27.7567 17.9189L46.4009 28.6831Z" fill="url(#paint1_linear_21_7303)" fill-opacity="0.3"/>
<path fill-rule="evenodd" clip-rule="evenodd" d="M46.4009 28.6831C48.5233 29.9085 48.5344 31.8953 46.4259 33.1205L27.9041 43.8841C25.7957 45.1097 22.3656 45.1097 20.2432 43.8841L1.59918 33.1201C-0.523205 31.8947 -0.534501 29.9079 1.57417 28.6825L20.0957 17.9191C22.2044 16.6937 25.6343 16.6937 27.7567 17.9189L46.4009 28.6831Z" fill="url(#paint2_linear_21_7303)" fill-opacity="0.3"/>
</g>
<g opacity="0.7" filter="url(#filter1_i_21_7303)">
<path d="M46.4012 28.5195C48.5235 29.7449 48.5341 31.7319 46.4257 32.957L34.0927 40.123C31.1105 38.1904 29.2333 35.3872 29.2333 32.2656C29.2333 28.2698 32.3074 24.7925 36.8407 23L46.4012 28.5195Z" fill="url(#paint3_linear_21_7303)"/>
</g>
<path opacity="0.7" d="M46.4012 28.5195C48.5236 29.7449 48.5341 31.7319 46.4257 32.957L34.0927 40.124C31.1103 38.1914 29.2333 35.3873 29.2333 32.2656C29.2333 28.2698 32.3074 24.7925 36.8407 23L46.4012 28.5195Z" fill="url(#paint4_linear_21_7303)"/>
<path opacity="0.6" d="M14 19.9564C14 18.1329 14.9927 16.454 16.5904 15.5753L31.0362 7.63011C32.3691 6.89701 34 7.86134 34 9.38254V21.8175C34 22.5468 33.6029 23.2184 32.9638 23.5699L16.9638 32.3699C15.6309 33.103 14 32.1387 14 30.6175V19.9564Z" fill="url(#paint5_linear_21_7303)"/>
<path opacity="0.8" d="M16 20.9564C16 19.1329 16.9927 17.454 18.5904 16.5753L33.0362 8.63011C34.3691 7.89701 36 8.86134 36 10.3825V22.8175C36 23.5468 35.6029 24.2184 34.9638 24.5699L18.9638 33.3699C17.6309 34.103 16 33.1387 16 31.6175V20.9564Z" fill="url(#paint6_linear_21_7303)"/>
<g clip-path="url(#clip0_21_7303)">
<path d="M19.3222 30.9199V28.9883L20.7959 27.7402L25.55 25.0604V27.4172L19.3222 30.9199ZM21.2657 29.4901L19.3222 28.9883C19.3222 28.6879 19.4045 28.2951 19.5692 27.81C19.7602 27.2624 19.9899 26.7286 20.2568 26.2123C20.5546 25.6279 20.8874 25.0613 21.2536 24.5154L22.3428 22.8902C22.5087 22.6533 22.674 22.3914 22.8387 22.1047C22.9984 21.8275 23.135 21.5382 23.2472 21.2395C23.3466 20.9887 23.401 20.7229 23.4079 20.4539C23.4184 20.2498 23.3737 20.0466 23.2784 19.8648C23.2408 19.7962 23.1856 19.7384 23.1181 19.6972C23.0507 19.656 22.9734 19.6329 22.8939 19.6301C22.7252 19.6189 22.5044 19.6903 22.2314 19.8441C22.0161 19.9703 21.8287 20.1372 21.6802 20.3351C21.5172 20.5457 21.3842 20.7769 21.2847 21.0225C21.1826 21.2718 21.1059 21.5303 21.0559 21.7944L19 22.4866C19.1972 21.1155 19.7632 19.8203 20.6403 18.7335C21.0743 18.1898 21.6102 17.7319 22.2193 17.3843C22.8959 17.0026 23.4738 16.8357 23.9529 16.8835C24.1799 16.9027 24.3988 16.9752 24.5911 17.0949C24.7833 17.2146 24.9432 17.3778 25.0572 17.5709C25.3202 17.9813 25.4513 18.5532 25.4507 19.2864C25.4495 20.0729 25.2874 20.8511 24.9738 21.5754C24.6293 22.3713 24.2088 23.1338 23.718 23.8526L22.7644 25.2745C22.5302 25.6162 22.2969 26.0031 22.0647 26.4352C21.8227 26.8839 21.6296 27.3562 21.4885 27.8443C21.336 28.3801 21.261 28.934 21.2657 29.4901Z" fill="#333A3D"/>
<path d="M30.2802 24.7461V14.4795L30.0322 13.2029L32.1624 12V23.6856L30.2802 24.7461ZM27.6551 23.0198L26.2307 22.8234L30.0202 13.2098L31.1836 14.0563L27.6551 23.0198ZM26.2277 24.9739V22.8204L27.3048 22.08L33.5456 18.5636V20.8506L26.2277 24.9739Z" fill="#333A3D"/>
<path d="M19.4387 30.9709V29.0344L20.9123 27.7873L25.6665 25.1084V27.4652L19.4387 30.9709ZM21.3831 29.5421L19.4387 29.0344C19.4387 28.7339 19.5213 28.3395 19.6866 27.8511C19.8768 27.3037 20.1063 26.7702 20.3732 26.2544C20.6708 25.6699 21.0037 25.1033 21.3701 24.5576L22.4602 22.9422C22.6249 22.7046 22.7898 22.4427 22.9551 22.1566C23.1149 21.8798 23.2515 21.5908 23.3637 21.2925C23.4635 21.0417 23.5178 20.7759 23.5243 20.5069C23.5345 20.3028 23.4898 20.0997 23.3948 19.9177C23.3575 19.8501 23.303 19.7931 23.2365 19.7523C23.17 19.7115 23.0938 19.6883 23.0153 19.685C22.8467 19.6751 22.6259 19.7458 22.3538 19.9C22.1384 20.0236 21.9509 20.1886 21.8027 20.3851C21.6395 20.5957 21.5061 20.8269 21.4062 21.0725C21.3038 21.3217 21.2271 21.5802 21.1773 21.8443L19.1215 22.5317C19.3184 21.163 19.883 19.87 20.7577 18.7845C21.1914 18.2411 21.727 17.7836 22.3357 17.4362C23.0123 17.0539 23.5902 16.887 24.0694 16.9354C24.2964 16.9544 24.5155 17.0269 24.7077 17.1465C24.9 17.2662 25.0598 17.4296 25.1736 17.6228C25.4333 18.0333 25.5634 18.6058 25.5641 19.3403C25.5629 20.1245 25.4022 20.9006 25.0913 21.6234C24.7462 22.4193 24.3254 23.1817 23.8345 23.9006L22.8808 25.3225C22.65 25.6642 22.4157 26.0518 22.1781 26.4852C21.9388 26.9351 21.7483 27.4084 21.61 27.8973C21.4561 28.4325 21.3797 28.9861 21.3831 29.5421Z" fill="#31373A"/>
<path d="M30.3966 24.7974V14.5308L30.1487 13.2542L32.2788 12.0513V23.7368L30.3966 24.7974ZM27.7716 23.0711L26.3481 22.8747L30.1366 13.2611L31.3001 14.1085L27.7716 23.0711ZM26.3481 25.0252V22.8717L27.4253 22.1313L33.6651 18.6158V20.9028L26.3481 25.0252Z" fill="#31373A"/>
<path d="M19.5551 31.0218V29.0863L21.0288 27.8392L25.7839 25.1583V27.5151L19.5551 31.0218ZM21.4996 29.593L19.5551 29.0863C19.5551 28.7858 19.6378 28.393 19.8031 27.9079C19.9936 27.3602 20.2234 26.8263 20.4907 26.3102C20.7878 25.7257 21.1203 25.159 21.4865 24.6133L22.5767 22.998C22.7413 22.7603 22.9063 22.4985 23.0716 22.2124C23.2319 21.9359 23.3686 21.6468 23.4801 21.3483C23.5802 21.0976 23.6349 20.8317 23.6418 20.5627C23.6522 20.3585 23.6071 20.1552 23.5113 19.9735C23.4739 19.9051 23.4188 19.8475 23.3515 19.8065C23.2842 19.7655 23.207 19.7425 23.1278 19.7398C22.9585 19.7286 22.7376 19.8 22.4653 19.9538C22.2491 20.0789 22.0616 20.246 21.9141 20.4448C21.7494 20.6553 21.6144 20.8865 21.5126 21.1322C21.4103 21.3814 21.3336 21.64 21.2837 21.9041L19.2289 22.5914C19.4262 21.2186 19.9941 19.922 20.8742 18.8354C21.308 18.2918 21.844 17.8342 22.4532 17.4871C23.1298 17.1061 23.7073 16.9392 24.1858 16.9863C24.4129 17.0054 24.6319 17.0779 24.8241 17.1975C25.0164 17.3172 25.1762 17.4806 25.2901 17.6737C25.5531 18.0809 25.6846 18.6527 25.6846 19.3892C25.6827 20.1753 25.5206 20.9532 25.2077 21.6772C24.8627 22.4735 24.4419 23.2362 23.9509 23.9554L22.9973 25.3773C22.7664 25.7191 22.5322 26.1063 22.2946 26.539C22.0532 26.9878 21.8604 27.4601 21.7194 27.9482C21.5679 28.4837 21.4939 29.0373 21.4996 29.593Z" fill="#2E3437"/>
<path d="M30.5131 24.8491V14.5825L30.2661 13.306L32.3953 12.103V23.7886L30.5131 24.8491ZM27.888 23.1228L26.4646 22.9264L30.2531 13.3128L31.4175 14.1603L27.888 23.1228ZM26.4646 25.076V22.9235L27.5417 22.1821L33.7826 18.6666V20.9536L26.4646 25.076Z" fill="#2E3437"/>
<path d="M19.6726 31.074V29.1375L21.1452 27.8894L25.9004 25.2116V27.5683L19.6726 31.074ZM21.616 29.6442L19.6726 29.1375C19.6726 28.837 19.7549 28.4426 19.9195 27.9542C20.1102 27.4067 20.3396 26.8729 20.6062 26.3566C20.9037 25.7724 21.2366 25.2061 21.603 24.6607L22.6921 23.0443C22.8581 22.808 23.0234 22.5461 23.188 22.2587C23.3478 21.9816 23.4844 21.6923 23.5966 21.3936C23.6961 21.1428 23.7504 20.877 23.7572 20.608C23.7678 20.4038 23.7228 20.2005 23.6267 20.0189C23.5894 19.9503 23.5344 19.8925 23.4671 19.8513C23.3998 19.8101 23.3226 19.787 23.2432 19.7842C23.0736 19.7734 22.8537 19.845 22.5807 19.9982C22.3654 20.1244 22.1781 20.2913 22.0296 20.4892C21.8666 20.6998 21.7336 20.931 21.6341 21.1766C21.5336 21.4268 21.4583 21.6859 21.4092 21.9504L19.3544 22.6378C19.5501 21.2679 20.1148 19.9736 20.9906 18.8876C21.4247 18.3442 21.9606 17.8866 22.5697 17.5393C23.2463 17.1577 23.8241 16.9904 24.3033 17.0376C24.5303 17.057 24.7491 17.1296 24.9413 17.2492C25.1335 17.3689 25.2934 17.532 25.4075 17.7249C25.6672 18.1354 25.797 18.7076 25.797 19.4414C25.797 20.2273 25.6362 21.0053 25.3242 21.7295C24.9793 22.5255 24.5585 23.2879 24.0674 24.0067L23.1158 25.4286C22.8835 25.7703 22.6493 26.1575 22.4131 26.5903C22.1709 27.0392 21.9778 27.5119 21.8369 28.0004C21.6851 28.5355 21.6107 29.0889 21.616 29.6442Z" fill="#2C3234"/>
<path d="M30.6304 24.9004V14.6338L30.3825 13.3572L32.5116 12.1543V23.8399L30.6304 24.9004ZM28.0054 23.1741L26.5809 22.9777L30.3704 13.3641L31.5339 14.2106L28.0054 23.1741ZM26.5809 25.1282V22.9747L27.6581 22.2343L33.8989 18.7188V21.0059L26.5809 25.1282Z" fill="#2C3234"/>
<path d="M19.789 31.1253V29.1849L21.2627 27.9378L26.0168 25.2628V27.6196L19.789 31.1253ZM21.7325 29.6965L19.789 29.1849C19.789 28.8844 19.8717 28.4916 20.037 28.0065C20.227 27.4587 20.4564 26.9248 20.7236 26.4088C21.0214 25.8245 21.3542 25.2578 21.7204 24.7119L22.8146 23.0966C22.9792 22.859 23.1442 22.5971 23.3095 22.311C23.4694 22.0332 23.606 21.7433 23.7181 21.4439C23.8178 21.1932 23.8722 20.9273 23.8787 20.6583C23.8889 20.4542 23.8442 20.2511 23.7492 20.0691C23.7115 20.0007 23.6562 19.943 23.5888 19.9019C23.5214 19.8607 23.4441 19.8375 23.3647 19.8345C23.1961 19.8246 22.9752 19.8963 22.7022 20.0495C22.485 20.1755 22.2964 20.3436 22.148 20.5434C21.9848 20.754 21.8514 20.9853 21.7515 21.2308C21.6491 21.48 21.5724 21.7386 21.5227 22.0027L19.4668 22.6901C19.6645 21.3195 20.2309 20.025 21.1081 18.9389C21.5418 18.3955 22.0773 17.9379 22.6861 17.5906C23.3627 17.2096 23.9409 17.0427 24.4207 17.0898C24.6479 17.1087 24.8669 17.181 25.0592 17.3007C25.2515 17.4204 25.4113 17.5839 25.525 17.7772C25.7853 18.187 25.9151 18.7592 25.9144 19.4937C25.913 20.2797 25.7512 21.0576 25.4386 21.7817C25.0938 22.5777 24.673 23.3402 24.1818 24.0589L23.2282 25.4808C22.9973 25.8226 22.7631 26.2101 22.5255 26.6435C22.2837 27.0923 22.0906 27.5646 21.9493 28.0526C21.7989 28.588 21.7259 29.1413 21.7325 29.6965Z" fill="#292F31"/>
<path d="M30.7449 24.9512V14.6846L30.4969 13.408L32.6291 12.2061V23.8916L30.7449 24.9512ZM28.1218 23.2249L26.6974 23.0285L30.4869 13.4149L31.6483 14.2584L28.1218 23.2249ZM26.6974 25.179V23.0255L27.7755 22.2851L34.0154 18.7696V21.0566L26.6974 25.179Z" fill="#292F31"/>
<path d="M19.9035 31.177V29.2406L21.3791 27.9925L26.1333 25.3136V27.6704L19.9035 31.177ZM21.8479 29.7473L19.9035 29.2406C19.9035 28.9401 19.9861 28.5473 20.1514 28.0622C20.3416 27.5145 20.5711 26.9806 20.8381 26.4645C21.1364 25.8794 21.4699 25.3122 21.8369 24.7657L22.9271 23.1503C23.0917 22.9127 23.2566 22.6508 23.4219 22.3647C23.5821 22.0878 23.7187 21.7984 23.8305 21.4996C23.9307 21.2489 23.9854 20.9831 23.9921 20.714C24.002 20.5098 23.957 20.3067 23.8616 20.1248C23.8242 20.0564 23.7691 19.9989 23.7018 19.9578C23.6345 19.9168 23.5574 19.8938 23.4782 19.8911C23.3088 19.88 23.088 19.9514 22.8156 20.1052C22.6002 20.2291 22.4127 20.3945 22.2645 20.5913C22.0998 20.8018 21.9648 21.033 21.863 21.2787C21.7608 21.5279 21.6841 21.7865 21.6341 22.0505L19.5782 22.7379C19.6712 22.0767 19.8524 21.4303 20.1173 20.8152C20.3953 20.1568 20.767 19.5402 21.2215 18.9838C21.6567 18.4422 22.1933 17.9867 22.8026 17.6414C23.4798 17.2604 24.0577 17.0935 24.5362 17.1406C24.7632 17.1598 24.9821 17.2324 25.1743 17.352C25.3666 17.4717 25.5265 17.635 25.6404 17.828C25.9008 18.2385 26.0309 18.8106 26.0309 19.5445C26.0291 20.3309 25.867 21.1091 25.5541 21.8335C25.2088 22.6293 24.788 23.3917 24.2973 24.1107L23.3436 25.5326C23.1128 25.8743 22.8785 26.2616 22.641 26.6943C22.4021 27.1438 22.2116 27.6164 22.0728 28.1044C21.9205 28.6392 21.8455 29.1922 21.8499 29.7473H21.8479Z" fill="#272C2E"/>
<path d="M30.8634 25.0034V14.7368L30.6154 13.4603L32.7456 12.2573V23.9429L30.8634 25.0034ZM28.2353 23.2771L26.8119 23.0807L30.6004 13.4671L31.7648 14.3136L28.2353 23.2771ZM26.8119 25.2313V23.0778L27.889 22.3374L34.1289 18.8209V21.1079L26.8119 25.2313Z" fill="#272C2E"/>
<path d="M20.0219 31.228V29.2915L21.4955 28.0444L26.2507 25.3656V27.7223L20.0219 31.228ZM21.9663 29.7992L20.0219 29.2915C20.0219 28.991 20.1045 28.5966 20.2698 28.1082C20.4608 27.561 20.6906 27.0275 20.9574 26.5115C21.2548 25.9269 21.5876 25.3603 21.9542 24.8147L23.0434 23.1993C23.208 22.9617 23.373 22.6998 23.5383 22.4137C23.6988 22.1373 23.8355 21.8483 23.9469 21.5496C24.0469 21.2989 24.1016 21.0331 24.1085 20.764C24.1189 20.5598 24.0739 20.3565 23.978 20.1748C23.9406 20.1063 23.8856 20.0486 23.8183 20.0074C23.751 19.9662 23.6738 19.943 23.5945 19.9401C23.4249 19.9303 23.204 20.001 22.932 20.1552C22.7167 20.2793 22.5293 20.4446 22.3809 20.6413C22.218 20.8521 22.0846 21.0833 21.9844 21.3286C21.883 21.5778 21.8063 21.836 21.7555 22.0995L19.7026 22.7957C19.8982 21.4242 20.4637 20.1285 21.3409 19.0416C21.7752 18.4989 22.3111 18.042 22.9199 17.6953C23.5965 17.3136 24.1744 17.1467 24.6536 17.1945C24.8806 17.2137 25.0995 17.2863 25.2917 17.4059C25.4839 17.5256 25.6438 17.6889 25.7578 17.8819C26.0181 18.2924 26.1479 18.8648 26.1473 19.5994C26.146 20.3855 25.9838 21.1635 25.6705 21.8874C25.3278 22.6819 24.9094 23.443 24.4207 24.1607L23.467 25.5826C23.2361 25.9243 23.0019 26.3115 22.7643 26.7443C22.5222 27.1932 22.329 27.6658 22.1881 28.1544C22.0359 28.6898 21.9613 29.2435 21.9663 29.7992Z" fill="#24292C"/>
<path d="M30.9798 25.0542V14.7876L30.7328 13.511L32.862 12.3081V23.9937L30.9798 25.0542ZM28.3557 23.3279L26.9313 23.1315L30.7198 13.5179L31.8842 14.3644L28.3557 23.3279ZM26.9303 25.282V23.1286L28.0074 22.3881L34.2493 18.8736V21.1597L26.9303 25.282Z" fill="#24292C"/>
<path d="M20.1394 31.2791V29.3426L21.61 28.0955L26.3642 25.4166V27.7734L20.1394 31.2791ZM22.0828 29.8503L20.1394 29.3426C20.1394 29.0421 20.2217 28.6493 20.3863 28.1642C20.5773 27.6167 20.8071 27.0828 21.0739 26.5665C21.3715 25.9802 21.7044 25.4116 22.0708 24.8638L23.1599 23.2484C23.3259 23.0108 23.4912 22.7489 23.6558 22.4629C23.8157 22.1861 23.9524 21.8971 24.0644 21.5987C24.1642 21.348 24.2185 21.0821 24.225 20.8131C24.2352 20.609 24.1905 20.4059 24.0955 20.2239C24.0578 20.1555 24.0025 20.0978 23.9351 20.0567C23.8677 20.0155 23.7904 19.9923 23.711 19.9892C23.5424 19.9794 23.3215 20.0511 23.0485 20.2043C22.8328 20.3299 22.6453 20.4969 22.4974 20.6953C22.3348 20.9061 22.2017 21.1373 22.1019 21.3827C21.9996 21.6319 21.9229 21.8904 21.873 22.1545L19.8171 22.8419C20.0154 21.4723 20.5814 20.1786 21.4574 19.0927C21.8917 18.5495 22.4276 18.092 23.0364 17.7444C23.713 17.3634 24.2909 17.1965 24.7701 17.2436C24.9972 17.2625 25.2163 17.3348 25.4086 17.4545C25.6009 17.5742 25.7607 17.7377 25.8743 17.931C26.1346 18.3408 26.2645 18.913 26.2638 19.6475C26.2625 20.4337 26.1004 21.2116 25.787 21.9355C25.4429 22.7319 25.0221 23.4944 24.5302 24.2127L23.5775 25.6346C23.3453 25.9777 23.1111 26.3652 22.8748 26.7973C22.6353 27.2449 22.4446 27.7159 22.3057 28.2025C22.1528 28.7389 22.0778 29.2935 22.0828 29.8503Z" fill="#222729"/>
<path d="M31.0972 25.1055V14.8389L30.8493 13.5623L32.9794 12.3604V24.0459L31.0972 25.1055ZM28.4722 23.3801L27.0477 23.1837L30.8372 13.5711L32.0007 14.4176L28.4722 23.3801ZM27.0477 25.3333V23.1798L28.1248 22.4394L34.3657 18.9239V21.2109L27.0477 25.3333Z" fill="#222729"/>
<path d="M20.2558 31.3313V29.3949L21.7295 28.1468L26.4836 25.4689V27.8257L20.2558 31.3313ZM22.2003 29.9016L20.2558 29.3949C20.2558 29.0944 20.3385 28.7016 20.5038 28.2165C20.694 27.6688 20.9234 27.1349 21.1904 26.6188C21.4882 26.0345 21.821 25.4678 22.1872 24.9219L23.2774 23.3066C23.442 23.0703 23.607 22.8084 23.7723 22.521C23.932 22.2438 24.0686 21.9545 24.1808 21.6559C24.2807 21.4052 24.3351 21.1393 24.3414 20.8703C24.352 20.6662 24.3073 20.463 24.212 20.2811C24.1746 20.2126 24.1195 20.1549 24.0522 20.1137C23.985 20.0725 23.9078 20.0493 23.8285 20.0464C23.6585 20.0353 23.4377 20.1066 23.166 20.2605C22.9503 20.3861 22.7628 20.5531 22.6148 20.7515C22.4515 20.962 22.3181 21.1933 22.2183 21.4389C22.116 21.6887 22.0394 21.9479 21.9895 22.2127L19.9336 22.9C20.1302 21.528 20.6967 20.2319 21.5749 19.145C22.0081 18.6003 22.5437 18.1417 23.1529 17.7937C23.8295 17.4127 24.4074 17.2458 24.8865 17.2929C25.1135 17.3122 25.3324 17.3847 25.5247 17.5044C25.7169 17.624 25.8768 17.7873 25.9908 17.9803C26.2504 18.3908 26.3806 18.963 26.3812 19.6968C26.3795 20.4833 26.2174 21.2614 25.9044 21.9858C25.5605 22.7818 25.1411 23.5446 24.6516 24.264L23.698 25.6859C23.4671 26.0277 23.2329 26.4149 22.9953 26.8476C22.7539 27.2968 22.5611 27.7694 22.4201 28.2577C22.2686 28.7929 22.1946 29.3463 22.2003 29.9016Z" fill="#202426"/>
<path d="M31.2136 25.1587V14.8911L30.9657 13.6145L33.0958 12.4116V24.0972L31.2136 25.1587ZM28.5886 23.4314L27.1652 23.235L30.9536 13.6214L32.1171 14.4679L28.5886 23.4314ZM27.1652 25.3855V23.2321L28.2423 22.4917L34.4821 18.9722V21.2622L27.1652 25.3855Z" fill="#202426"/>
<path d="M20.3722 31.3821V29.4456L21.8459 28.2024L26.6011 25.5236V27.8804L20.3722 31.3821ZM22.3127 29.9533L20.3682 29.4456C20.3682 29.1451 20.4509 28.7524 20.6162 28.2673C20.808 27.718 21.0395 27.1828 21.3088 26.6656C21.606 26.081 21.9389 25.5143 22.3056 24.9688L23.3948 23.3534C23.5594 23.1158 23.7244 22.8539 23.8897 22.5678C24.0498 22.2912 24.1865 22.0022 24.2983 21.7037C24.3983 21.453 24.453 21.1872 24.4599 20.9181C24.4703 20.7139 24.4253 20.5106 24.3294 20.3289C24.2919 20.2605 24.2368 20.2029 24.1695 20.1618C24.1022 20.1206 24.0252 20.0973 23.9459 20.0942C23.7763 20.0844 23.5554 20.1551 23.2834 20.3093C23.068 20.4328 22.8805 20.5979 22.7323 20.7944C22.5676 21.0049 22.4326 21.2361 22.3307 21.4818C22.2287 21.7311 22.1521 21.9896 22.1019 22.2536L20.047 22.941C20.2459 21.572 20.8134 20.2794 21.6913 19.1957C22.1254 18.6523 22.6613 18.1948 23.2703 17.8475C23.9469 17.4665 24.5244 17.2995 25.0029 17.3467C25.2301 17.3655 25.4491 17.4379 25.6414 17.5576C25.8337 17.6773 25.9935 17.8408 26.1072 18.034C26.3675 18.4432 26.4977 19.0154 26.4977 19.7505C26.4981 20.536 26.3381 21.3135 26.0269 22.0376C25.682 22.8336 25.2612 23.596 24.7701 24.3148L23.8184 25.7367C23.5875 26.0784 23.3533 26.466 23.1157 26.8994C22.8743 27.3482 22.6815 27.8205 22.5405 28.3085C22.3863 28.8436 22.3096 29.3973 22.3127 29.9533Z" fill="#1D2123"/>
<path d="M31.3301 25.2085V14.9458L31.0832 13.6693L33.2123 12.4624V24.148L31.3301 25.2085ZM28.7051 23.4822L27.2816 23.2858L31.0701 13.6693L32.2346 14.5167L28.7051 23.4822ZM27.2816 25.4363V23.2828L28.3587 22.5424L34.5996 19.0269V21.314L27.2816 25.4363Z" fill="#1D2123"/>
<path d="M20.4897 31.4335V29.497L21.9623 28.2499L26.7175 25.5711V27.9278L20.4897 31.4335ZM22.4331 30.0047L20.4897 29.497C20.4897 29.1965 20.572 28.8037 20.7367 28.3186C20.9277 27.7711 21.1574 27.2373 21.4243 26.721C21.7221 26.1366 22.0549 25.57 22.4211 25.0241L23.5103 23.4087C23.6762 23.1711 23.8415 22.9092 24.0062 22.6232C24.1661 22.3464 24.3027 22.0574 24.4147 21.759C24.514 21.5081 24.5684 21.2424 24.5753 20.9734C24.5855 20.7693 24.5409 20.5662 24.4458 20.3842C24.4083 20.3158 24.353 20.2582 24.2855 20.2171C24.2181 20.1761 24.1408 20.1532 24.0614 20.1505C23.8927 20.1394 23.6719 20.2108 23.3988 20.3646C23.1833 20.4905 22.9959 20.6574 22.8477 20.8556C22.6847 21.0662 22.5517 21.2974 22.4522 21.543C22.3504 21.7911 22.2734 22.0483 22.2223 22.3109L20.1675 22.9983C20.3651 21.6273 20.9323 20.3326 21.8108 19.2471C22.2442 18.7042 22.779 18.2467 23.3868 17.8988C24.0634 17.5178 24.6423 17.3519 25.1234 17.401C25.3505 17.4201 25.5695 17.4925 25.7617 17.6122C25.954 17.7319 26.1138 17.8953 26.2277 18.0884C26.4873 18.4988 26.6171 19.071 26.6171 19.8049C26.6157 20.5913 26.4536 21.3696 26.1403 22.0939C25.7954 22.8899 25.3747 23.6523 24.8835 24.3711L23.9309 25.793C23.6986 26.1347 23.4644 26.5219 23.2282 26.9547C22.986 27.4033 22.7929 27.8756 22.652 28.3638C22.5012 28.8981 22.4276 29.4504 22.4331 30.0047Z" fill="#1B1E20"/>
<path d="M31.4476 25.2568V14.9941L31.1996 13.7176L33.3298 12.5146V24.2002L31.4476 25.2568ZM28.8225 23.5344L27.3981 23.338L31.1876 13.7244L32.351 14.568L28.8225 23.5344ZM27.3981 25.4886V23.3351L28.4752 22.5947L34.7161 19.0782V21.3652L27.3981 25.4886Z" fill="#1B1E20"/>
<path d="M20.6062 31.4856V29.5491L22.0798 28.301L26.83 25.6232V27.9799L20.6062 31.4856ZM22.5496 30.0568L20.6062 29.5491C20.6062 29.2487 20.6888 28.8542 20.8541 28.3659C21.0442 27.8184 21.2736 27.2849 21.5408 26.7692C21.8381 26.1846 22.171 25.6179 22.5376 25.0723L23.6277 23.4569C23.7924 23.2193 23.9573 22.9574 24.1226 22.6714C24.2824 22.3942 24.419 22.1049 24.5312 21.8062C24.6312 21.5555 24.6855 21.2897 24.6918 21.0206C24.7022 20.8165 24.6576 20.6133 24.5623 20.4315C24.5248 20.3629 24.4696 20.3051 24.4021 20.2639C24.3346 20.2227 24.2573 20.1996 24.1778 20.1968C24.0092 20.1863 23.7887 20.2576 23.5163 20.4108C23.3011 20.5351 23.1137 20.7004 22.9652 20.8969C22.8001 21.1072 22.665 21.3384 22.5637 21.5843C22.4615 21.8335 22.3848 22.0921 22.3348 22.3561L20.2789 23.0435C20.4793 21.6749 21.0474 20.3828 21.9252 19.2992C22.3587 18.7556 22.8943 18.298 23.5033 17.951C24.1819 17.5693 24.7597 17.402 25.2369 17.4492C25.4639 17.4684 25.6828 17.541 25.875 17.6606C26.0673 17.7803 26.2271 17.9436 26.3411 18.1366C26.6041 18.5464 26.7356 19.1195 26.7356 19.856C26.7339 20.6424 26.5718 21.4206 26.2588 22.145C25.9137 22.9409 25.493 23.7034 25.002 24.4222L24.0483 25.8441C23.8175 26.1859 23.5832 26.5731 23.3457 27.0058C23.1043 27.4551 22.9112 27.9277 22.7695 28.4159C22.6183 28.9502 22.5443 29.5025 22.5496 30.0568Z" fill="#181C1D"/>
<path d="M31.564 25.3115V15.0439L31.3161 13.7674L33.4462 12.5654V24.251L31.564 25.3115ZM28.938 23.5872L27.5145 23.3908L31.303 13.7772L32.4665 14.6237L28.938 23.5872ZM27.5145 25.5413V23.3908L28.5916 22.6504L34.8315 19.1349V21.417L27.5145 25.5413Z" fill="#181C1D"/>
<path d="M20.7226 31.5414V29.6L22.1962 28.3529L26.9504 25.6741V28.0308L20.7226 31.5414ZM22.667 30.1077L20.7226 29.6C20.7226 29.2995 20.8052 28.9067 20.9705 28.4216C21.1612 27.8741 21.3906 27.3403 21.6572 26.824C21.9549 26.2396 22.2878 25.673 22.654 25.1271L23.7441 23.5117C23.9088 23.2741 24.0737 23.0122 24.239 22.7262C24.3992 22.4495 24.5358 22.1605 24.6476 21.862C24.7477 21.6113 24.8024 21.3455 24.8092 21.0764C24.8191 20.8723 24.7741 20.6691 24.6787 20.4872C24.6417 20.4181 24.5869 20.3597 24.5196 20.3178C24.4523 20.276 24.3749 20.2521 24.2953 20.2486C24.1259 20.2388 23.9051 20.3105 23.6327 20.4637C23.4173 20.5872 23.2299 20.7522 23.0816 20.9488C22.9187 21.1596 22.7854 21.3908 22.6851 21.6362C22.5828 21.8854 22.5061 22.1439 22.4562 22.408L20.4014 23.0954C20.5991 21.7268 21.1652 20.4342 22.0416 19.3501C22.4746 18.8068 23.0095 18.3492 23.6177 18.0019C24.2963 17.6208 24.8748 17.4533 25.3533 17.4991C25.5804 17.5179 25.7995 17.5903 25.9918 17.71C26.1841 17.8297 26.3439 17.9932 26.4575 18.1865C26.7179 18.5963 26.848 19.1684 26.848 19.903C26.8462 20.6891 26.6841 21.4669 26.3712 22.191C26.0294 22.9877 25.6116 23.7511 25.1234 24.4711L24.1698 25.893C23.9389 26.2348 23.7047 26.6223 23.4671 27.0557C23.2257 27.5045 23.0329 27.9768 22.8919 28.4649C22.7389 28.9995 22.6632 29.5525 22.667 30.1077Z" fill="#16191A"/>
<path d="M31.6804 25.3628V15.0962L31.4335 13.8196L33.5626 12.6177V24.3032L31.6804 25.3628ZM29.0554 23.6365L27.632 23.4401L31.4204 13.8275L32.5849 14.6739L29.0554 23.6365ZM27.633 25.5906V23.4371L28.7101 22.6967L34.9509 19.1812V21.4683L27.633 25.5906Z" fill="#16191A"/>
<path d="M20.8401 31.5886V29.6522L22.3127 28.4041L27.0679 25.7252V28.082L20.8401 31.5886ZM22.7835 30.1589L20.8401 29.6522C20.8401 29.3517 20.9224 28.9589 21.087 28.4738C21.278 27.9263 21.5078 27.3924 21.7746 26.8761C22.0724 26.2918 22.4053 25.7252 22.7714 25.1793L23.8606 23.5639C24.0259 23.3263 24.1912 23.0644 24.3565 22.7783C24.5162 22.5012 24.6529 22.2118 24.7651 21.9132C24.8645 21.6623 24.9188 21.3966 24.9257 21.1276C24.9361 20.9234 24.8911 20.7201 24.7952 20.5384C24.7576 20.4702 24.7025 20.4127 24.6352 20.3717C24.568 20.3307 24.4909 20.3076 24.4117 20.3047C24.2421 20.2939 24.0222 20.3656 23.7492 20.5188C23.5337 20.6447 23.3463 20.8116 23.1981 21.0098C23.0351 21.2204 22.902 21.4516 22.8026 21.6972C22.7005 21.9465 22.6235 22.205 22.5727 22.469L20.5178 23.1564C20.7136 21.7846 21.2798 20.4887 22.1581 19.4023C22.5921 18.8586 23.128 18.4007 23.7371 18.053C24.4137 17.672 24.9916 17.5051 25.4708 17.5522C25.6977 17.5716 25.9166 17.6442 26.1088 17.7639C26.301 17.8835 26.4609 18.0467 26.575 18.2396C26.838 18.6494 26.9692 19.2209 26.9685 19.9541C26.9672 20.7406 26.805 21.5189 26.4917 22.2431C26.1468 23.0391 25.726 23.8016 25.2349 24.5204L24.2822 25.9442C24.0507 26.286 23.8164 26.6732 23.5795 27.1059C23.3375 27.5546 23.1444 28.0269 23.0033 28.515C22.852 29.0503 22.778 29.6036 22.7835 30.1589Z" fill="#131617"/>
<path d="M31.7979 25.4151V15.1484L31.5479 13.866L33.6791 12.6689V24.3545L31.7979 25.4151ZM29.1729 23.6858L27.7484 23.4894L31.5379 13.8758L32.7014 14.7223L29.1729 23.6858ZM27.7484 25.6399V23.4894L28.8255 22.749L35.0664 19.2325V21.5195L27.7484 25.6399Z" fill="#131617"/>
<path d="M20.9565 31.6398V29.7033L22.4301 28.4562L27.1843 25.7774V28.1341L20.9565 31.6398ZM22.8999 30.211L20.9565 29.7033C20.9565 29.4029 21.0391 29.0084 21.2044 28.5201C21.3948 27.9737 21.6242 27.4411 21.8911 26.9263C22.1884 26.3417 22.5213 25.7751 22.8879 25.2294L23.977 23.6141C24.1423 23.3764 24.3076 23.1146 24.4729 22.8285C24.6327 22.5517 24.7693 22.2627 24.8815 21.9644C24.9813 21.7136 25.0356 21.4478 25.0421 21.1788C25.0523 20.9747 25.0077 20.7715 24.9126 20.5896C24.8751 20.521 24.8199 20.4632 24.7524 20.422C24.6849 20.3809 24.6076 20.3577 24.5282 20.3549C24.3595 20.3451 24.1387 20.4158 23.8656 20.5699C23.6512 20.6936 23.4645 20.8583 23.3165 21.0541C23.1515 21.2644 23.0164 21.4956 22.915 21.7414C22.8127 21.9903 22.736 22.2485 22.6861 22.5123L20.6302 23.1997C20.8302 21.8307 21.3976 20.5381 22.2745 19.4534C22.7089 18.9103 23.2447 18.4527 23.8536 18.1052C24.5302 17.7229 25.108 17.5559 25.5872 17.6044C25.8143 17.6234 26.0333 17.6958 26.2256 17.8155C26.4178 17.9352 26.5777 18.0986 26.6914 18.2918C26.9518 18.7022 27.0816 19.2747 27.0809 20.0092C27.0794 20.7953 26.9177 21.5731 26.6051 22.2972C26.261 23.0913 25.8416 23.8521 25.3523 24.5696L24.3987 25.9915C24.1678 26.3332 23.9335 26.7207 23.696 27.1541C23.454 27.6028 23.2609 28.0751 23.1198 28.5633C22.968 29.0997 22.894 29.6544 22.8999 30.211Z" fill="#111314"/>
<path d="M31.9144 25.4658V15.1992L31.6664 13.9227L33.7965 12.7197V24.4053L31.9144 25.4658ZM29.2893 23.7395L27.8649 23.5431L31.6544 13.9295L32.8178 14.777L29.2893 23.7395ZM27.8649 25.6937V23.5402L28.943 22.8017L35.1828 19.2862V21.5713L27.8649 25.6937Z" fill="#111314"/>
<path d="M21.073 31.6907V29.7542L22.5466 28.5071L27.3008 25.8283V28.185L21.073 31.6907ZM23.0154 30.2649L21.073 29.7542C21.073 29.4537 21.1556 29.061 21.3209 28.5759C21.5122 28.0267 21.743 27.4915 22.0116 26.9742C22.3093 26.3899 22.6422 25.8233 23.0084 25.2774L24.0985 23.662C24.2632 23.4244 24.4281 23.1625 24.5934 22.8764C24.7538 22.5999 24.8904 22.3109 25.002 22.0123C25.1018 21.7615 25.1561 21.4957 25.1626 21.2267C25.1728 21.0226 25.1282 20.8195 25.0331 20.6375C24.9956 20.5691 24.9405 20.5115 24.8733 20.4704C24.806 20.4292 24.7289 20.4059 24.6497 20.4028C24.4797 20.393 24.2588 20.4647 23.9871 20.6179C23.771 20.7429 23.5834 20.91 23.436 21.1089C23.2727 21.3194 23.1393 21.5507 23.0395 21.7963C22.9372 22.0455 22.8605 22.304 22.8106 22.5681L20.7548 23.2555C20.8477 22.5943 21.029 21.9479 21.2938 21.3328C21.5715 20.6743 21.9433 20.0577 22.398 19.5014C22.8303 18.9596 23.3637 18.5031 23.9701 18.1561C24.648 17.775 25.2259 17.6081 25.7037 17.6552C25.9308 17.6741 26.1499 17.7465 26.3422 17.8662C26.5345 17.9859 26.6943 18.1493 26.8079 18.3426C27.0682 18.7524 27.1984 19.3246 27.1984 20.0591C27.199 20.8444 27.0396 21.6219 26.7296 22.3462C26.3846 23.1424 25.9638 23.9052 25.4728 24.6244L24.5151 26.0423C24.2843 26.3854 24.05 26.7729 23.8125 27.205C23.571 27.6538 23.3783 28.1261 23.2373 28.6142C23.0845 29.1515 23.0098 29.7072 23.0154 30.2649Z" fill="#0F1111"/>
<path d="M32.0308 25.5181V15.2515L31.7828 13.9749L33.913 12.772V24.4575L32.0308 25.5181ZM29.4057 23.7918L27.9823 23.5954L31.7708 13.9828L32.9352 14.8292L29.4057 23.7918ZM27.9823 25.7479V23.5875L29.0594 22.8471L35.2993 19.3316V21.6235L27.9823 25.7479Z" fill="#0F1111"/>
<path d="M21.1894 31.7429V29.8065L22.663 28.5584L27.4182 25.8805V28.2373L21.1894 31.7429ZM23.1338 30.3132L21.1894 29.8065C21.1894 29.506 21.2721 29.1116 21.4374 28.6232C21.6279 28.0752 21.8577 27.5409 22.125 27.0245C22.4222 26.4402 22.755 25.8739 23.1218 25.3286L24.211 23.7123C24.3756 23.476 24.5406 23.2141 24.7059 22.9267C24.866 22.6498 25.0026 22.3604 25.1144 22.0616C25.2147 21.811 25.2694 21.5451 25.276 21.276C25.2867 21.0718 25.2416 20.8684 25.1455 20.6868C25.1082 20.6183 25.0531 20.5606 24.9858 20.5194C24.9185 20.4782 24.8414 20.455 24.7621 20.4521C24.5928 20.4475 24.3719 20.5205 24.0995 20.6711C23.8839 20.7968 23.6964 20.9638 23.5484 21.1621C23.3837 21.3726 23.2487 21.6038 23.1469 21.8495C23.0456 22.099 22.969 22.3575 22.918 22.6213L20.8632 23.3087C21.0631 21.9384 21.6327 20.6449 22.5135 19.5615C22.9453 19.0162 23.4795 18.5566 24.0875 18.2073C24.7641 17.8263 25.3436 17.6594 25.8261 17.7065C26.0531 17.7258 26.272 17.7983 26.4643 17.918C26.6565 18.0376 26.8164 18.2009 26.9304 18.3939C27.19 18.8044 27.3202 19.3765 27.3209 20.1104C27.3197 20.8969 27.1576 21.6752 26.844 22.3994C26.4981 23.195 26.0766 23.957 25.5852 24.6756L24.6316 26.0975C24.4007 26.4393 24.1665 26.8265 23.9289 27.2592C23.6867 27.7082 23.4936 28.1808 23.3527 28.6693C23.2016 29.2046 23.1279 29.7579 23.1338 30.3132Z" fill="#0C0E0F"/>
<path d="M32.1502 25.5689V15.3023L31.9033 14.0257L34.0294 12.8228V24.5083L32.1502 25.5689ZM29.5232 23.8425L28.0988 23.6461L31.8872 14.0326L33.0537 14.8761L29.5232 23.8425ZM28.0988 25.7967V23.6432L29.1759 22.8998L35.4167 19.3834V21.6733L28.0988 25.7967Z" fill="#0C0E0F"/>
<path d="M21.3088 31.7937V29.8573L22.7824 28.6101L27.5326 25.9313V28.2881L21.3088 31.7937ZM23.2502 30.363L21.3088 29.8573C21.3088 29.5568 21.3911 29.164 21.5557 28.6789C21.7466 28.1313 21.9763 27.5974 22.2434 27.0812C22.5409 26.4967 22.8738 25.9301 23.2402 25.3843L24.3294 23.769C24.4953 23.5313 24.6606 23.2695 24.8252 22.9834C24.985 22.7066 25.1216 22.4176 25.2338 22.1192C25.3336 21.8685 25.388 21.6027 25.3944 21.3337C25.4046 21.1296 25.36 20.9264 25.2649 20.7445C25.2273 20.676 25.172 20.6184 25.1045 20.5772C25.0371 20.536 24.9599 20.5128 24.8805 20.5098C24.7118 20.5 24.491 20.5707 24.2179 20.7248C24.0029 20.8489 23.8155 21.0138 23.6668 21.2099C23.5039 21.4206 23.3709 21.6518 23.2713 21.8973C23.1689 22.1465 23.0922 22.4051 23.0424 22.6692L20.9866 23.3565C21.1843 21.9871 21.7495 20.6934 22.6248 19.6073C23.0592 19.0642 23.595 18.6067 24.2039 18.2591C24.8838 17.8781 25.4617 17.7111 25.9375 17.7583C26.1646 17.7771 26.3837 17.8495 26.576 17.9692C26.7683 18.0889 26.9281 18.2524 27.0417 18.4457C27.3021 18.8542 27.4322 19.426 27.4322 20.1612C27.4309 20.9473 27.2688 21.7253 26.9554 22.4492C26.6123 23.2455 26.1925 24.008 25.7016 24.7264L24.749 26.1483C24.5167 26.49 24.2825 26.8776 24.0463 27.311C23.8041 27.7596 23.611 28.2319 23.4701 28.7201C23.3187 29.255 23.2447 29.808 23.2502 30.363Z" fill="#0A0B0C"/>
<path d="M32.2647 25.6201V15.3535L32.0167 14.0769L34.1469 12.874V24.5596L32.2647 25.6201ZM29.6407 23.8938L28.2162 23.6974L32.0057 14.0838L33.1692 14.9313L29.6407 23.8938ZM28.2152 25.846V23.6945L29.2923 22.9541L35.5332 19.4386V21.7217L28.2152 25.846Z" fill="#0A0B0C"/>
<path d="M21.4233 31.846V29.9095L22.897 28.6614L27.6511 25.9826V28.3393L21.4233 31.846ZM23.3678 30.4162L21.4233 29.9095C21.4233 29.6084 21.506 29.2156 21.6713 28.7311C21.8615 28.1834 22.0909 27.6496 22.3579 27.1334C22.6557 26.5491 22.9885 25.9825 23.3547 25.4366L24.4449 23.8212C24.6095 23.5836 24.7745 23.3217 24.9398 23.0356C25.0995 22.7585 25.2361 22.4692 25.3483 22.1705C25.4481 21.9198 25.5025 21.6539 25.5089 21.3849C25.5191 21.1808 25.4745 20.9777 25.3794 20.7957C25.342 20.7274 25.2869 20.6698 25.2196 20.6288C25.1524 20.5877 25.0752 20.5647 24.996 20.562C24.8267 20.5509 24.6058 20.6223 24.3334 20.7761C24.1176 20.9015 23.93 21.0685 23.7823 21.2671C23.6173 21.4774 23.4822 21.7086 23.3808 21.9545C23.2786 22.2037 23.202 22.4623 23.1519 22.7263L21.0961 23.4137C21.2947 22.0416 21.8629 20.746 22.7424 19.6596C23.176 19.1159 23.7116 18.658 24.3204 18.3104C24.997 17.9293 25.5749 17.7624 26.054 17.8095C26.281 17.8288 26.4999 17.9013 26.6922 18.021C26.8844 18.1407 27.0443 18.3039 27.1582 18.4969C27.4186 18.9074 27.5487 19.4796 27.5487 20.2134C27.5469 20.9998 27.3848 21.778 27.0719 22.5024C26.7266 23.2982 26.3059 24.0607 25.8151 24.7796L24.8615 26.2015C24.6306 26.5433 24.3964 26.9305 24.1588 27.3632C23.9175 27.8121 23.7248 28.2844 23.5836 28.7724C23.4336 29.3078 23.3609 29.8611 23.3678 30.4162Z" fill="#070809"/>
<path d="M32.3811 25.6719V15.4053L32.1332 14.1287L34.2633 12.9258V24.6114L32.3811 25.6719ZM29.7561 23.9456L28.3326 23.7492L32.1211 14.1356L33.2846 14.982L29.7561 23.9456ZM28.3357 25.8997V23.7462L29.4128 23.0058L35.6526 19.4893V21.7764L28.3357 25.8997Z" fill="#070809"/>
<path d="M21.5397 31.8967V29.9602L23.0154 28.7131L27.7706 26.0342V28.391L21.5397 31.8967ZM23.4842 30.4679L21.5397 29.9602C21.5397 29.6597 21.6224 29.2653 21.7877 28.7769C21.9783 28.2295 22.208 27.696 22.4753 27.1802C22.7719 26.5952 23.1048 26.0286 23.4721 25.4834L24.5613 23.868C24.7259 23.6304 24.8909 23.3685 25.0562 23.0824C25.2166 22.8039 25.3532 22.5129 25.4647 22.2124C25.565 21.9617 25.6197 21.6959 25.6264 21.4268C25.6369 21.2226 25.5919 21.0192 25.4959 20.8376C25.4585 20.7691 25.4034 20.7114 25.3362 20.6702C25.2689 20.629 25.1917 20.6058 25.1124 20.6029C24.9431 20.5924 24.7222 20.6641 24.4499 20.818C24.2345 20.9415 24.047 21.1065 23.8988 21.3031C23.7358 21.5138 23.6024 21.745 23.5022 21.9904C23.4001 22.2397 23.3234 22.4982 23.2734 22.7623L21.2185 23.4497C21.4173 22.0832 21.9833 20.7928 22.8588 19.7103C23.2926 19.1666 23.8285 18.709 24.4378 18.362C25.1144 17.983 25.6919 17.816 26.1704 17.8612C26.3975 17.8802 26.6165 17.9527 26.8088 18.0723C27.0011 18.192 27.1609 18.3554 27.2747 18.5486C27.535 18.9591 27.6652 19.5316 27.6652 20.2661C27.6633 21.0522 27.5012 21.83 27.1883 22.5541C26.8433 23.35 26.4225 24.1125 25.9315 24.8313L24.9779 26.2532C24.747 26.595 24.5128 26.9822 24.2752 27.4149C24.0338 27.8641 23.841 28.3367 23.7 28.825C23.55 29.3601 23.4774 29.9131 23.4842 30.4679Z" fill="#050606"/>
<path d="M32.4976 25.7231V15.4565L32.2506 14.1799L34.3798 12.9819V24.6675L32.4976 25.7231ZM29.8725 23.9968L28.4491 23.8004L32.2376 14.1868L33.402 15.0333L29.8725 23.9968ZM28.4491 25.951V23.7975L29.5262 23.0571L35.7641 19.5416V21.8286L28.4491 25.951Z" fill="#050606"/>
<path d="M21.6572 31.948V30.0116L23.1298 28.7644L27.885 26.0856V28.4423L21.6572 31.948ZM23.6006 30.5192L21.6572 30.0116C21.6572 29.7111 21.7395 29.3183 21.9042 28.8332C22.0951 28.2856 22.3249 27.7518 22.5918 27.2355C22.8896 26.6511 23.2224 26.0845 23.5886 25.5386L24.6778 23.9233C24.8431 23.6856 25.0084 23.4238 25.1737 23.1377C25.3334 22.8609 25.47 22.5719 25.5822 22.2735C25.6815 22.0227 25.7359 21.7569 25.7428 21.488C25.7532 21.2837 25.7082 21.0805 25.6123 20.8988C25.5749 20.8303 25.5198 20.7726 25.4525 20.7315C25.3853 20.6903 25.3082 20.6671 25.2289 20.6641C25.0592 20.6543 24.8394 20.7259 24.5663 20.8791C24.3527 21.0031 24.1667 21.1677 24.0192 21.3632C23.8562 21.5738 23.7232 21.8051 23.6237 22.0506C23.5215 22.3 23.4446 22.5585 23.3938 22.8225L21.339 23.5099C21.5344 22.1393 22.0991 20.8442 22.9752 19.7577C23.41 19.216 23.9458 18.7598 24.5543 18.4134C25.2309 18.0324 25.8087 17.8654 26.2879 17.9126C26.515 17.9314 26.7341 18.0038 26.9264 18.1235C27.1187 18.2432 27.2785 18.4067 27.3921 18.6C27.6525 19.0098 27.7823 19.5819 27.7816 20.3165C27.7817 21.1027 27.621 21.881 27.3088 22.6055C26.9644 23.4017 26.5436 24.1641 26.052 24.8827L25.0994 26.3046C24.8678 26.6463 24.6336 27.0339 24.3967 27.4672C24.1545 27.9158 23.9614 28.3882 23.8205 28.8764C23.6691 29.4113 23.5951 29.9643 23.6006 30.5192Z" fill="#020303"/>
<path d="M32.615 25.7744V15.5078L32.3671 14.2312L34.4962 13.0322V24.7178L32.615 25.7744ZM29.99 24.0481L28.5656 23.8517L32.351 14.2361L33.5145 15.0826L29.99 24.0481ZM28.5656 26.0022V23.8487L29.6407 23.1083L35.8815 19.5928V21.8799L28.5656 26.0022Z" fill="#020303"/>
<path d="M21.7737 32V30.0684L23.2473 28.8203L28.0015 26.1405V28.4972L21.7737 32ZM23.7181 30.5702L21.7737 30.0684C21.7737 29.7679 21.8563 29.3751 22.0216 28.89C22.2118 28.3424 22.4412 27.8085 22.7082 27.2924C23.006 26.708 23.3389 26.1414 23.705 25.5955L24.7952 23.9703C24.9598 23.7333 25.1248 23.4715 25.2901 23.1847C25.4499 22.9076 25.5865 22.6183 25.6987 22.3196C25.7986 22.0689 25.8529 21.803 25.8593 21.534C25.8698 21.3299 25.8251 21.1267 25.7298 20.9448C25.6923 20.8762 25.637 20.8185 25.5696 20.7773C25.5021 20.7361 25.4248 20.713 25.3453 20.7101C25.1767 20.699 24.9558 20.7704 24.6828 20.9242C24.4676 21.0502 24.2806 21.2171 24.1327 21.4152C23.9676 21.6255 23.8325 21.8567 23.7311 22.1026C23.629 22.3518 23.5523 22.6104 23.5023 22.8744L21.4464 23.5618C21.6457 22.1917 22.2139 20.8981 23.0927 19.8136C23.5261 19.2697 24.0617 18.8118 24.6707 18.4644C25.3473 18.0827 25.9252 17.9158 26.4044 17.9635C26.6314 17.9828 26.8503 18.0553 27.0425 18.175C27.2347 18.2947 27.3946 18.4579 27.5086 18.6509C27.7716 19.0614 27.9028 19.6332 27.9021 20.3664C27.9007 21.1528 27.739 21.931 27.4263 22.6554C27.081 23.4513 26.6602 24.2137 26.1695 24.9327L25.2158 26.3546C24.9849 26.6963 24.7534 27.0832 24.5212 27.5153C24.2796 27.9641 24.0865 28.4364 23.945 28.9244C23.7911 29.4599 23.7147 30.0139 23.7181 30.5702Z" fill="black"/>
<path d="M32.7315 25.8262V15.5596L32.4835 14.283L34.6137 13.0801V24.7656L32.7315 25.8262ZM30.1064 24.0999L28.683 23.9035L32.4715 14.2899L33.6349 15.1363L30.1064 24.0999ZM28.683 26.054V23.9005L29.7601 23.1601L36 19.6436V21.9307L28.683 26.054Z" fill="black"/>
<path opacity="0.8" d="M23.7181 30.5702L21.7737 30.0684C21.7737 29.7679 21.8563 29.3751 22.0216 28.89C22.2118 28.3424 22.4412 27.8085 22.7082 27.2924C23.006 26.708 23.3389 26.1414 23.705 25.5955L24.7952 23.9703C24.9598 23.7333 25.1248 23.4715 25.2901 23.1847C25.4499 22.9076 25.5865 22.6183 25.6987 22.3196C25.7986 22.0689 25.8529 21.803 25.8593 21.534C25.8698 21.3299 25.8251 21.1267 25.7298 20.9448C25.6923 20.8762 25.637 20.8185 25.5696 20.7773C25.5021 20.7361 25.4248 20.713 25.3453 20.7101C25.1767 20.699 24.9558 20.7704 24.6828 20.9242C24.4676 21.0502 24.2806 21.2171 24.1327 21.4152C23.9676 21.6255 23.8325 21.8567 23.7311 22.1026C23.629 22.3518 23.5523 22.6104 23.5023 22.8744L21.4464 23.5618C21.6457 22.1917 22.2139 20.8981 23.0927 19.8136C23.5261 19.2697 24.0617 18.8118 24.6707 18.4644C25.3473 18.0827 25.9252 17.9158 26.4044 17.9635C26.6314 17.9828 26.8503 18.0553 27.0425 18.175C27.2347 18.2947 27.3946 18.4579 27.5086 18.6509C27.7716 19.0614 27.9028 19.6332 27.9021 20.3664C27.9007 21.1528 27.739 21.931 27.4263 22.6554C27.081 23.4513 26.6602 24.2137 26.1695 24.9327L25.2158 26.3546C24.9849 26.6963 24.7534 27.0832 24.5212 27.5153C24.2796 27.9641 24.0865 28.4364 23.945 28.9244C23.7911 29.4599 23.7147 30.0139 23.7181 30.5702ZM21.7737 32V30.0684L23.2473 28.8203L28.0015 26.1405V28.4972L21.7737 32Z" fill="url(#paint7_linear_21_7303)"/>
<path opacity="0.8" d="M30.1064 24.0999L28.683 23.9035L32.4715 14.2899L33.6349 15.1363L30.1064 24.0999ZM28.683 26.054V23.9005L29.7601 23.1601L36 19.6436V21.9307L28.683 26.054ZM32.7315 25.8262V15.5596L32.4835 14.283L34.6137 13.0801V24.7656L32.7315 25.8262Z" fill="url(#paint8_linear_21_7303)"/>
</g>
<defs>
<filter id="filter0_i_21_7303" x="0" y="17" width="48" height="27.8032" filterUnits="userSpaceOnUse" color-interpolation-filters="sRGB">
<feFlood flood-opacity="0" result="BackgroundImageFix"/>
<feBlend mode="normal" in="SourceGraphic" in2="BackgroundImageFix" result="shape"/>
<feColorMatrix in="SourceAlpha" type="matrix" values="0 0 0 0 0 0 0 0 0 0 0 0 0 0 0 0 0 0 127 0" result="hardAlpha"/>
<feOffset dy="-1"/>
<feComposite in2="hardAlpha" operator="arithmetic" k2="-1" k3="1"/>
<feColorMatrix type="matrix" values="0 0 0 0 1 0 0 0 0 1 0 0 0 0 1 0 0 0 0.6 0"/>
<feBlend mode="normal" in2="shape" result="effect1_innerShadow_21_7303"/>
</filter>
<filter id="filter1_i_21_7303" x="29.2333" y="23" width="18.7667" height="17.123" filterUnits="userSpaceOnUse" color-interpolation-filters="sRGB">
<feFlood flood-opacity="0" result="BackgroundImageFix"/>
<feBlend mode="normal" in="SourceGraphic" in2="BackgroundImageFix" result="shape"/>
<feColorMatrix in="SourceAlpha" type="matrix" values="0 0 0 0 0 0 0 0 0 0 0 0 0 0 0 0 0 0 127 0" result="hardAlpha"/>
<feOffset dy="3"/>
<feComposite in2="hardAlpha" operator="arithmetic" k2="-1" k3="1"/>
<feColorMatrix type="matrix" values="0 0 0 0 0.231857 0 0 0 0 0.61547 0 0 0 0 0.586211 0 0 0 1 0"/>
<feBlend mode="normal" in2="shape" result="effect1_innerShadow_21_7303"/>
</filter>
<linearGradient id="paint0_linear_21_7303" x1="51.3603" y1="22.0847" x2="0" y2="22.0847" gradientUnits="userSpaceOnUse">
<stop stop-color="#49E0F2"/>
<stop offset="1" stop-color="#35852E"/>
</linearGradient>
<linearGradient id="paint1_linear_21_7303" x1="24.8801" y1="4.79188" x2="4.63041" y2="43.141" gradientUnits="userSpaceOnUse">
<stop stop-color="white"/>
<stop offset="1" stop-color="#2EE2FF"/>
</linearGradient>
<linearGradient id="paint2_linear_21_7303" x1="21.7589" y1="53.9002" x2="46.8255" y2="16.2187" gradientUnits="userSpaceOnUse">
<stop stop-color="#EFFFFA" stop-opacity="0.01"/>
<stop offset="0.279879" stop-color="#E3FBF8" stop-opacity="0.744453"/>
<stop offset="0.281674" stop-color="#E1FAF7" stop-opacity="0.01"/>
<stop offset="1" stop-color="#BEEFF1" stop-opacity="0.01"/>
</linearGradient>
<linearGradient id="paint3_linear_21_7303" x1="38.9607" y1="15.4815" x2="24.1119" y2="33.3337" gradientUnits="userSpaceOnUse">
<stop stop-color="white"/>
<stop offset="1" stop-color="#2EE2FF"/>
</linearGradient>
<linearGradient id="paint4_linear_21_7303" x1="37.0252" y1="37.8814" x2="37.8372" y2="24.74" gradientUnits="userSpaceOnUse">
<stop stop-color="#EFFFFA" stop-opacity="0.01"/>
<stop offset="0.279879" stop-color="#E3FBF8" stop-opacity="0.744453"/>
<stop offset="0.281674" stop-color="#E1FAF7" stop-opacity="0.01"/>
<stop offset="1" stop-color="#BEEFF1" stop-opacity="0.01"/>
</linearGradient>
<linearGradient id="paint5_linear_21_7303" x1="24.3667" y1="-6.29448" x2="0.38927" y2="12.4929" gradientUnits="userSpaceOnUse">
<stop stop-color="#1D3246"/>
<stop offset="1" stop-color="#0B2329"/>
</linearGradient>
<linearGradient id="paint6_linear_21_7303" x1="26.3667" y1="-5.29448" x2="2.38927" y2="13.4929" gradientUnits="userSpaceOnUse">
<stop stop-color="#75B4F3"/>
<stop offset="1" stop-color="#ACEDFF"/>
</linearGradient>
<linearGradient id="paint7_linear_21_7303" x1="24.8441" y1="11.7888" x2="14.7949" y2="16.934" gradientUnits="userSpaceOnUse">
<stop stop-color="#75B4F3"/>
<stop offset="1" stop-color="#ACEDFF"/>
</linearGradient>
<linearGradient id="paint8_linear_21_7303" x1="32.4756" y1="7.38337" x2="22.2368" y2="13.7178" gradientUnits="userSpaceOnUse">
<stop stop-color="#75B4F3"/>
<stop offset="1" stop-color="#ACEDFF"/>
</linearGradient>
<clipPath id="clip0_21_7303">
<rect width="17" height="20" fill="white" transform="translate(19 12)"/>
</clipPath>
</defs>
</svg>
