<svg width="48" height="49" viewBox="0 0 48 49" fill="none" xmlns="http://www.w3.org/2000/svg">
<path d="M46.7133 32.5683C47.481 33.0069 48.1391 29.2785 47.9746 34.2132C47.9746 34.8712 47.5907 35.5291 46.7681 36.0226L27.081 47.4273C25.4358 48.3594 22.7487 48.3594 21.1035 47.4273L1.30671 36.0226C0.48413 35.5291 0.100256 34.926 0.0454175 34.268C-0.173938 28.8947 0.429288 33.0069 1.25187 32.5135L20.939 21.1088C22.5842 20.1766 25.2713 20.1766 26.9164 21.1088L46.7133 32.5683Z" fill="url(#paint0_linear_21_1925)"/>
<g filter="url(#filter0_i_21_1925)">
<path d="M46.7159 30.1033C48.3611 31.0354 48.3611 32.6255 46.7159 33.5576L27.0288 44.9623C25.3836 45.8944 22.6965 45.8944 21.0514 44.9623L1.25453 33.5576C-0.390631 32.6255 -0.390631 31.0354 1.25453 30.1033L20.9417 18.6986C22.5868 17.7665 25.2739 17.7665 26.9191 18.6986L46.7159 30.1033Z" fill="url(#paint1_linear_21_1925)"/>
</g>
<path d="M23.9613 18.25C24.4262 18.25 24.8773 18.3502 25.2074 18.5371L34.2787 23.7637L34.2807 23.7646C34.6086 23.9504 34.7192 24.1692 34.7192 24.3389C34.7191 24.5086 34.6085 24.7273 34.2807 24.9131L34.2787 24.9141L25.2582 30.1396C24.928 30.3267 24.4763 30.4277 24.0112 30.4277C23.5462 30.4277 23.0952 30.3267 22.7651 30.1396H22.7641L13.6938 24.9141L13.6918 24.9131L13.5795 24.8418C13.3384 24.6732 13.2534 24.4874 13.2533 24.3389C13.2533 24.1692 13.364 23.9504 13.6918 23.7646L13.6938 23.7637L22.7162 18.5361C23.0463 18.3497 23.4971 18.25 23.9613 18.25Z" stroke="#5F4E13" stroke-opacity="0.4" stroke-width="0.5"/>
<path fill-rule="evenodd" clip-rule="evenodd" d="M24.2221 5.01175C26.0265 5.11189 27.8603 5.86183 28.9728 7.40755C29.7404 8.47404 30.0771 9.68735 30.1728 10.8381C30.3599 13.0872 29.6541 15.3781 28.9673 16.8329C28.5708 17.6728 27.9154 18.6246 27.2769 19.5519C27.0408 19.8947 26.8071 20.2342 26.5896 20.5635C25.728 21.8676 25.0801 23.0592 24.9768 24.1023C24.9324 24.5496 24.5339 24.8763 24.0865 24.832C23.6392 24.7876 23.3125 24.3891 23.3568 23.9417C23.5043 22.4533 24.3785 20.9572 25.2313 19.6662C25.4996 19.2601 25.7652 18.8743 26.0186 18.5063C26.6235 17.6278 27.1589 16.8503 27.4952 16.1379C28.1097 14.8365 28.7058 12.84 28.5505 10.973C28.4726 10.0362 28.2049 9.12735 27.6515 8.35849C26.8992 7.31316 25.5847 6.71775 24.1319 6.63712C22.6775 6.5564 21.2196 7.00196 20.2592 7.86501C18.9976 8.9987 18.103 10.5482 17.6634 11.6327C17.4945 12.0493 17.0199 12.2501 16.6033 12.0812C16.1867 11.9123 15.9859 11.4377 16.1547 11.0211C16.6595 9.77593 17.6777 7.99623 19.1711 6.6542C20.5112 5.44996 22.4195 4.9117 24.2221 5.01175Z" fill="#225635"/>
<path fill-rule="evenodd" clip-rule="evenodd" d="M24.2221 5.01175C26.0265 5.11189 27.8603 5.86183 28.9728 7.40755C29.7404 8.47404 30.0771 9.68735 30.1728 10.8381C30.3599 13.0872 29.6541 15.3781 28.9673 16.8329C28.5708 17.6728 27.9154 18.6246 27.2769 19.5519C27.0408 19.8947 26.8071 20.2342 26.5896 20.5635C25.728 21.8676 25.0801 23.0592 24.9768 24.1023C24.9324 24.5496 24.5339 24.8763 24.0865 24.832C23.6392 24.7876 23.3125 24.3891 23.3568 23.9417C23.5043 22.4533 24.3785 20.9572 25.2313 19.6662C25.4996 19.2601 25.7652 18.8743 26.0186 18.5063C26.6235 17.6278 27.1589 16.8503 27.4952 16.1379C28.1097 14.8365 28.7058 12.84 28.5505 10.973C28.4726 10.0362 28.2049 9.12735 27.6515 8.35849C26.8992 7.31316 25.5847 6.71775 24.1319 6.63712C22.6775 6.5564 21.2196 7.00196 20.2592 7.86501C18.9976 8.9987 18.103 10.5482 17.6634 11.6327C17.4945 12.0493 17.0199 12.2501 16.6033 12.0812C16.1867 11.9123 15.9859 11.4377 16.1547 11.0211C16.6595 9.77593 17.6777 7.99623 19.1711 6.6542C20.5112 5.44996 22.4195 4.9117 24.2221 5.01175Z" fill="url(#paint2_radial_21_1925)" fill-opacity="0.3"/>
<path d="M12.2532 11.5586C13.7383 10.6668 16.3373 11.0384 17.4512 11.3356C16.8325 11.8559 14.8525 11.5586 14.4813 13.5652C14.4813 15.4585 14.1512 16.6641 13.7387 17.2421C12.8476 18.4906 11.6347 18.9159 10.3971 19.1389C11.0158 18.3214 11.4367 16.7516 11.1397 15.6814C10.7684 14.3437 10.3967 12.6733 12.2532 11.5586Z" fill="url(#paint3_linear_21_1925)"/>
<path d="M12.2532 11.5586C13.7383 10.6668 16.3373 11.0384 17.4512 11.3356C16.8325 11.8559 14.8525 11.5586 14.4813 13.5652C14.4813 15.4585 14.1512 16.6641 13.7387 17.2421C12.8476 18.4906 11.6347 18.9159 10.3971 19.1389C11.0158 18.3214 11.4367 16.7516 11.1397 15.6814C10.7684 14.3437 10.3967 12.6733 12.2532 11.5586Z" fill="url(#paint4_linear_21_1925)" fill-opacity="0.2"/>
<path d="M25.5886 7.47243C25.5886 6.86469 24.8452 5.95308 24.4735 5.57324C24.1549 5.76316 23.4222 6.48485 23.0399 7.85226C22.562 9.56153 23.2464 10.5111 23.565 11.6506C23.8199 12.5622 23.8363 12.7639 23.8363 13.17C24.208 13.0434 25.0151 12.5622 25.27 11.6506C25.5886 10.5111 24.7546 10.5111 24.9139 9.37161C25.0732 8.2321 25.5886 8.2321 25.5886 7.47243Z" fill="url(#paint5_linear_21_1925)"/>
<path d="M16.7121 13.4703C16.615 12.5609 16.5165 11.825 16.7278 11.2C17.6329 11.4442 19.7601 12.4322 21.0284 14.4304C22.6137 16.9281 20.8863 18.4349 20.1937 20.1799C19.6397 21.576 18.9302 21.7683 18.8214 22.5791C17.6904 21.6971 17.104 21.2862 16.2585 19.9541C15.8336 18.9291 17.1903 19.2172 16.1259 16.939C15.5064 15.2538 16.8336 14.6071 16.7121 13.4703Z" fill="url(#paint6_linear_21_1925)"/>
<path d="M16.7121 13.4703C16.615 12.5609 16.5165 11.825 16.7278 11.2C17.6329 11.4442 19.7601 12.4322 21.0284 14.4304C22.6137 16.9281 20.8863 18.4349 20.1937 20.1799C19.6397 21.576 18.9302 21.7683 18.8214 22.5791C17.6904 21.6971 17.104 21.2862 16.2585 19.9541C15.8336 18.9291 17.1903 19.2172 16.1259 16.939C15.5064 15.2538 16.8336 14.6071 16.7121 13.4703Z" fill="url(#paint7_linear_21_1925)" fill-opacity="0.2"/>
<path opacity="0.2" d="M17.6204 12.4321C18.2366 13.0122 19.4401 14.3886 19.324 15.2535C19.179 16.3345 18.802 16.0406 18.6206 17.3919C18.4393 18.7433 19.1933 19.3313 18.5261 21.1995" stroke="#FFFFCD" stroke-width="0.1" stroke-miterlimit="10" stroke-linecap="round" stroke-linejoin="round"/>
<path d="M29.6716 9.86875C29.6716 9.86875 31.2859 10.9038 31.542 20.5856C31.542 20.5856 37.2681 12.853 29.6716 9.86875Z" fill="url(#paint8_linear_21_1925)"/>
<path d="M29.6618 9.91353C29.6618 9.91353 31.1367 11.1741 30.2076 15.4267C29.7207 17.6553 30.7719 18.9386 31.5313 20.6306C31.5313 20.6306 32.3198 20.1795 33.0187 17.7411C33.6072 15.6884 31.9887 15.5286 31.4987 14.3566C30.8267 12.7492 31.2405 11.273 29.6618 9.91353Z" fill="url(#paint9_linear_21_1925)"/>
<path opacity="0.2" d="M24.3625 5.57324C24.3625 5.8058 24.6807 6.53252 24.3625 6.99763C24.0779 7.41371 23.69 7.66622 23.69 8.82899C23.69 10.0148 24.6928 10.2243 24.0566 12.0847" stroke="#FFFFCD" stroke-width="0.1" stroke-miterlimit="10" stroke-linecap="round" stroke-linejoin="round"/>
<path opacity="0.2" d="M15.2782 11.542C14.1929 11.8133 12.9688 12.3195 12.5654 12.7489C10.9377 14.4814 12.9724 15.131 12.5654 16.2139C12.2399 17.0801 11.3443 18.163 10.9372 18.5961" stroke="#FFFFCD" stroke-width="0.1" stroke-miterlimit="10" stroke-linecap="round" stroke-linejoin="round"/>
<path d="M11.9773 25.0498C12.442 25.0498 12.8932 25.1523 13.2234 25.3438L22.3083 30.7031L22.3103 30.7041C22.6375 30.8939 22.7517 31.1198 22.7517 31.2998C22.7516 31.4797 22.6372 31.7048 22.3103 31.8945L22.3083 31.8965L13.2742 37.2549C12.9439 37.4465 12.4921 37.5498 12.0271 37.5498C11.6205 37.5498 11.2247 37.4702 10.9109 37.3223L10.781 37.2549L1.69604 31.8955L1.69409 31.8945C1.36734 31.7048 1.25278 31.4797 1.25269 31.2998C1.25269 31.1198 1.36703 30.8939 1.69409 30.7041L1.69702 30.7031L10.7322 25.3428C11.0623 25.1518 11.5132 25.0498 11.9773 25.0498Z" stroke="#5F4E13" stroke-opacity="0.4" stroke-width="0.5"/>
<path d="M15.7709 32.2185C16.4851 31.7067 16.3264 30.4272 15.6122 30.0434C14.4219 29.4037 13.3712 29.2808 12.9488 29.2808C12.2919 29.2808 10.2162 29.6596 9.1846 30.4272C8.70849 30.8111 8.54978 31.4508 8.78784 32.0905C9.10525 32.7303 9.90513 33.2549 11.2541 33.6387C12.8412 33.8946 14.5806 33.1141 15.7709 32.2185Z" fill="url(#paint10_linear_21_1925)"/>
<g opacity="0.6">
<path d="M9.34749 30.921C10.1101 31.3572 10.6884 31.1293 11.1908 31.1252L12.2391 30.1237C12.0616 29.9801 11.1367 29.8487 10.3155 29.6997C9.17268 29.4922 8.33434 29.6803 7.7666 29.9248C8.33891 30.3469 8.93845 30.687 9.34749 30.921Z" fill="black" fill-opacity="0.28"/>
<path d="M9.20035 27.2286C10.1309 27.8939 11.6059 29.5881 12.0445 30.1554L11.9387 30.8143L11.7253 31.398C11.3899 31.2062 10.4096 30.17 9.49888 29.252C8.23155 27.9744 7.72491 27.017 7.52742 26.3617C7.83857 26.4497 8.559 26.77 9.20035 27.2286Z" fill="black" fill-opacity="0.28"/>
<path d="M10.8701 31.4835C10.4959 31.3928 9.72887 31.1389 9.4429 30.9754C9.8103 31.0315 10.4215 31.1038 11.0354 30.9618C11.6492 30.8199 12.1583 30.6283 12.4033 30.6656C12.4254 30.6269 12.5656 30.8242 12.3531 31.1957C12.1406 31.5672 11.8273 31.5174 11.7717 31.537C11.6271 31.557 11.2443 31.5743 10.8701 31.4835Z" fill="black" fill-opacity="0.28"/>
<path d="M12.0211 29.5642C11.4648 28.9571 10.71 28.3809 9.20035 27.2286C9.54663 27.5711 10.2508 28.5517 11.0173 29.4234C11.621 30.11 12.0587 31.0784 12.2896 31.3067L12.4763 30.9802C12.6755 30.6319 12.6761 30.4204 12.6514 30.3581C12.5567 30.2077 12.3619 29.9361 12.0211 29.5642Z" fill="black" fill-opacity="0.28"/>
</g>
<path d="M15.6129 23.5055C15.6257 26.0956 14.6757 27.2326 14.1835 28.5073L11.4507 29.6973C11.3754 29.032 12.0429 26.4794 12.58 24.165C13.3273 20.9443 14.4601 19.0854 15.4284 18C15.6008 20.0841 15.606 22.1162 15.6129 23.5055Z" fill="url(#paint11_linear_21_1925)"/>
<path d="M9.38321 23.1157C9.62585 25.0982 11.1761 28.7938 11.7528 29.9476L13.0641 30.3576L14.3507 30.5397C14.3507 29.8667 13.4841 27.4882 12.7602 25.3171C11.7528 22.2959 10.5359 20.7018 9.54731 19.8364C9.38321 20.383 9.21597 21.7494 9.38321 23.1157Z" fill="url(#paint12_linear_21_1925)"/>
<path d="M15.1272 28.2447C15.3199 27.0959 15.6089 24.6369 15.6089 23.6138C15.3682 24.6907 14.9347 26.4498 14.1641 27.8857C13.3934 29.3216 12.6388 30.3986 12.4782 31.1166C12.3979 31.1166 12.5809 31.7987 13.3516 31.7987C14.1222 31.7987 14.3245 30.8773 14.4048 30.7576C14.5653 30.3986 14.9346 29.3934 15.1272 28.2447Z" fill="url(#paint13_linear_21_1925)"/>
<path d="M10.6789 29.7429C10.1323 28.2738 9.62713 25.8183 9.31233 22.3555C9.62713 24.2443 10.2567 25.1887 11.516 27.7071C12.2958 29.2669 13.5033 31.2119 13.6855 31.7996H12.8656C11.991 31.7996 11.5901 31.6037 11.499 31.5057C11.3168 31.2119 11.0137 30.6427 10.6789 29.7429Z" fill="url(#paint14_linear_21_1925)"/>
<path d="M10.6789 29.7429C10.1323 28.2738 9.62713 25.8183 9.31233 22.3555C9.62713 24.2443 10.2567 25.1887 11.516 27.7071C12.2958 29.2669 13.5033 31.2119 13.6855 31.7996H12.8656C11.991 31.7996 11.5901 31.6037 11.499 31.5057C11.3168 31.2119 11.0137 30.6427 10.6789 29.7429Z" fill="url(#paint15_linear_21_1925)" fill-opacity="0.4"/>
<path d="M35.9838 25.2705C36.4489 25.2706 36.9001 25.3709 37.2309 25.5576V25.5586L46.3236 30.7959L46.3246 30.7969C46.6533 30.9831 46.765 31.2027 46.765 31.373C46.7648 31.5433 46.653 31.7622 46.3246 31.9482L46.3226 31.9492L37.2826 37.1865C36.9516 37.3739 36.4995 37.4746 36.0336 37.4746C35.5676 37.4746 35.1155 37.3739 34.7846 37.1865H34.7836L25.6937 31.9492L25.6918 31.9482C25.3637 31.7622 25.2525 31.5432 25.2523 31.373C25.2523 31.2028 25.3633 30.9831 25.6918 30.7969L25.6947 30.7959L34.7328 25.5586L34.7338 25.5596C35.0648 25.372 35.5176 25.2705 35.9838 25.2705Z" stroke="#5F4E13" stroke-opacity="0.4" stroke-width="0.5"/>
<path opacity="0.2" d="M30.8706 28.0942C31.7147 28.3053 33.6245 28.7222 38.0455 31.6817C38.0455 31.6817 37.7118 32.5258 35.9299 32.5258C33.6139 32.5258 30.2375 30.2045 28.1273 29.1494L30.8706 28.0942Z" fill="#0F0F0F"/>
<ellipse opacity="0.75" cx="35.9346" cy="31.6817" rx="2.95435" ry="1.26615" fill="black" fill-opacity="0.2"/>
<path d="M34.6091 31.6816C34.6091 21.9747 34.7785 17.4663 35.0311 15.2217H36.7193C36.9303 17.965 37.1351 23.7322 37.1351 31.6816C37.1351 31.6816 36.9412 32.5257 35.8721 32.5257C34.8029 32.5257 34.6091 31.6816 34.6091 31.6816Z" fill="url(#paint16_linear_21_1925)"/>
<path d="M34.6091 31.6816C34.6091 21.9747 34.7785 17.4663 35.0311 15.2217H36.7193C36.9303 17.965 37.1351 23.7322 37.1351 31.6816C37.1351 31.6816 36.9412 32.5257 35.8721 32.5257C34.8029 32.5257 34.6091 31.6816 34.6091 31.6816Z" fill="black" fill-opacity="0.2"/>
<ellipse cx="35.8712" cy="15.2219" rx="0.8441" ry="0.42205" fill="url(#paint17_linear_21_1925)"/>
<path opacity="0.2" d="M41.7664 33.3097C38.9732 33.1338 39.4988 32.1467 39 32.0001C40.0241 30.5941 41.9075 30.1224 43.4735 30.8795L47.7518 32.9482C46.9205 33.0948 44.5596 33.4856 41.7664 33.3097Z" fill="black"/>
<path d="M35.9316 17.3321C36.559 16.9017 37.4087 16.2769 39.5189 16.0659C41.0664 16.2769 42.1354 17.4165 40.7849 17.7541C39.4343 18.0918 37.3477 20.0754 36.9257 23.6628C36.9257 23.6628 36.7147 23.8738 36.1422 23.8738C35.4485 23.8738 34.8154 23.6628 34.8154 23.6628C34.8154 20.4974 34.3934 18.3872 35.9316 17.3321Z" fill="url(#paint18_linear_21_1925)"/>
<path d="M41.9609 15.7407C39.6217 15.2691 36.9767 16.5244 35.9316 17.3321C36.7757 17.2273 37.8309 17.1209 38.675 18.5981C39.7602 20.4973 38.1022 22.2826 38.3433 23.4941C38.5845 24.7056 39.7301 25.1399 40.0315 26.406C40.2828 27.4612 39.2918 28.1038 40.0315 30.036C41.2374 33.1858 45.5785 32.9435 47.749 32.9435C47.5079 31.9744 46.7843 30.5206 46.7843 29.3091C46.7843 28.3101 47.749 27.1285 47.5079 25.4324C47.3004 23.9734 46.5432 23.4941 45.8197 22.2826C44.1376 19.4661 47.2763 16.8122 41.9609 15.7407Z" fill="url(#paint19_linear_21_1925)"/>
<path d="M41.9609 15.7407C39.6217 15.2691 36.9767 16.5244 35.9316 17.3321C36.7757 17.2273 37.8309 17.1209 38.675 18.5981C39.7602 20.4973 38.1022 22.2826 38.3433 23.4941C38.5845 24.7056 39.7301 25.1399 40.0315 26.406C40.2828 27.4612 39.2918 28.1038 40.0315 30.036C41.2374 33.1858 45.5785 32.9435 47.749 32.9435C47.5079 31.9744 46.7843 30.5206 46.7843 29.3091C46.7843 28.3101 47.749 27.1285 47.5079 25.4324C47.3004 23.9734 46.5432 23.4941 45.8197 22.2826C44.1376 19.4661 47.2763 16.8122 41.9609 15.7407Z" fill="url(#paint20_linear_21_1925)" fill-opacity="0.2"/>
<mask id="mask0_21_1925" style="mask-type:alpha" maskUnits="userSpaceOnUse" x="35" y="15" width="13" height="18">
<path d="M41.9605 15.7407C39.6213 15.2691 36.9763 16.5244 35.9313 17.3321C36.7754 17.2273 37.8305 17.1209 38.6746 18.5981C39.7599 20.4973 38.1018 22.2826 38.343 23.4941C38.5841 24.7056 39.7297 25.1399 40.0312 26.406C40.2824 27.4612 39.2915 28.1038 40.0312 30.036C41.237 33.1858 45.5781 32.9435 47.7487 32.9435C47.5075 31.9744 46.784 30.5206 46.784 29.3091C46.784 28.3101 47.7487 27.1285 47.5075 25.4324C47.3 23.9734 46.5428 23.4941 45.8193 22.2826C44.1372 19.4661 47.276 16.8122 41.9605 15.7407Z" fill="url(#paint21_linear_21_1925)"/>
</mask>
<g mask="url(#mask0_21_1925)">
<path d="M46.9084 26.6275C46.9637 26.2361 47.0216 25.3658 46.7576 24.9287C46.7576 24.9287 46.4885 25.4492 46.3778 26.232C46.2671 27.0148 46.3702 27.6685 46.3702 27.6685C46.4783 27.3645 46.8458 27.0703 46.9084 26.6275Z" fill="#FEFF8C" style="mix-blend-mode:overlay"/>
<path d="M46.1175 28.6239C46.2359 28.3728 46.4461 27.831 46.3136 27.6328C46.3136 27.6328 45.9975 28.016 45.7608 28.5182C45.5242 29.0203 45.4853 29.3903 45.4853 29.3903C45.6301 29.1789 45.9837 28.9079 46.1175 28.6239Z" fill="#FEFF8C" style="mix-blend-mode:overlay"/>
<path d="M45.7717 27.0464C45.8321 26.7331 45.9102 26.0488 45.696 25.7607C45.696 25.7607 45.4466 26.2146 45.3257 26.8413C45.2048 27.468 45.2728 27.9542 45.2728 27.9542C45.3761 27.6985 45.7033 27.4009 45.7717 27.0464Z" fill="#FEFF8C" style="mix-blend-mode:overlay"/>
<path d="M39.6531 19.9141C39.6168 20.2855 39.5882 21.1268 39.8089 21.6196C39.8089 21.6196 40.0142 21.1726 40.0869 20.4299C40.1597 19.6872 40.0636 19.0201 40.0636 19.0201C39.9831 19.2929 39.6943 19.494 39.6531 19.9141Z" fill="#FEFF8C" style="mix-blend-mode:overlay"/>
<path d="M42.1897 27.9332C42.1534 28.3045 42.1248 29.1458 42.3455 29.6387C42.3455 29.6387 42.5508 29.1917 42.6235 28.449C42.6963 27.7063 42.6002 27.0392 42.6002 27.0392C42.5197 27.312 42.2309 27.513 42.1897 27.9332Z" fill="#FEFF8C" style="mix-blend-mode:overlay"/>
<path d="M41.2991 25.4748C41.4079 25.9231 41.5993 26.957 41.4683 27.6445C41.4683 27.6445 41.1721 27.1606 40.9544 26.2641C40.7368 25.3677 40.7066 24.5069 40.7066 24.5069C40.8416 24.8177 41.176 24.9677 41.2991 25.4748Z" fill="#FEFF8C" style="mix-blend-mode:overlay"/>
<path d="M45.9952 23.5926C45.7817 23.2865 45.2573 22.628 44.7694 22.3965C44.7694 22.3965 44.9035 22.8697 45.3303 23.4818C45.7572 24.094 46.2634 24.539 46.2634 24.539C46.1475 24.2792 46.2366 23.9388 45.9952 23.5926Z" fill="#FEFF8C" style="mix-blend-mode:overlay"/>
<path d="M40.0606 22.3978C39.9894 22.2009 39.8686 21.7646 39.9769 21.5522C39.9769 21.5522 40.1844 21.8187 40.3268 22.2125C40.4693 22.6063 40.4755 22.9306 40.4755 22.9306C40.3826 22.7762 40.1412 22.6206 40.0606 22.3978Z" fill="#FEFF8C" style="mix-blend-mode:overlay"/>
<path d="M44.0809 31.6428C43.9212 31.5074 43.5996 31.1888 43.588 30.9507C43.588 30.9507 43.9005 31.0787 44.2198 31.3497C44.5392 31.6206 44.7058 31.8989 44.7058 31.8989C44.5484 31.8111 44.2616 31.7961 44.0809 31.6428Z" fill="#FEFF8C" style="mix-blend-mode:overlay"/>
<path d="M39.4265 18.5995C39.3552 18.4026 39.2344 17.9663 39.3427 17.7539C39.3427 17.7539 39.5502 18.0203 39.6927 18.4141C39.8352 18.808 39.8414 19.1323 39.8414 19.1323C39.7485 18.9779 39.5071 18.8223 39.4265 18.5995Z" fill="#FEFF8C" style="mix-blend-mode:overlay"/>
<path d="M40.6025 28.307C40.6738 28.1101 40.7946 27.6738 40.6862 27.4614C40.6862 27.4614 40.4788 27.7278 40.3363 28.1217C40.1938 28.5155 40.1876 28.8398 40.1876 28.8398C40.2805 28.6854 40.5219 28.5298 40.6025 28.307Z" fill="#FEFF8C" style="mix-blend-mode:overlay"/>
<path d="M39.8434 17.7557C39.7721 17.5588 39.6513 17.1225 39.7596 16.9102C39.7596 16.9102 39.9671 17.1766 40.1096 17.5704C40.2521 17.9642 40.2583 18.2885 40.2583 18.2885C40.1654 18.1341 39.924 17.9785 39.8434 17.7557Z" fill="#FEFF8C" style="mix-blend-mode:overlay"/>
<path d="M44.5628 19.5004C44.5783 19.6447 44.5891 19.9497 44.4876 20.0308C44.4876 20.0308 44.3956 19.7906 44.3645 19.5019C44.3335 19.2131 44.3789 19.0201 44.3789 19.0201C44.4147 19.1483 44.5453 19.337 44.5628 19.5004Z" fill="#FEFF8C" style="mix-blend-mode:overlay"/>
<path d="M40.693 19.0251C40.6354 18.8238 40.5448 18.3802 40.6674 18.1758C40.6674 18.1758 40.8562 18.4558 40.9713 18.8584C41.0865 19.2611 41.0705 19.5851 41.0705 19.5851C40.9884 19.4246 40.7582 19.2529 40.693 19.0251Z" fill="#FEFF8C" style="mix-blend-mode:overlay"/>
<path d="M44.3088 23.2585C44.4165 23.4381 44.6189 23.8431 44.5533 24.0723C44.5533 24.0723 44.2986 23.8507 44.0831 23.4915C43.8676 23.1324 43.7992 22.8153 43.7992 22.8153C43.92 22.9491 44.1869 23.0554 44.3088 23.2585Z" fill="#FEFF8C" style="mix-blend-mode:overlay"/>
<path d="M43.1431 21.1112C43.1747 20.5757 43.3324 19.4195 43.8053 18.9932C43.8053 18.9932 44.0258 19.8083 43.9627 20.8793C43.8996 21.9503 43.5843 22.7415 43.5843 22.7415C43.5213 22.2913 43.1074 21.717 43.1431 21.1112Z" fill="#FEFF8C" style="mix-blend-mode:overlay"/>
<path d="M42.8724 25.114C42.9862 25.6382 43.1454 26.7942 42.8048 27.332C42.8048 27.332 42.3729 26.6063 42.1455 25.5579C41.9181 24.5094 42.0087 23.6625 42.0087 23.6625C42.1906 24.0792 42.7438 24.5209 42.8724 25.114Z" fill="#FEFF8C" style="mix-blend-mode:overlay"/>
<path d="M44.7644 17.7867C44.689 17.5196 44.4921 16.9728 44.2621 16.9102C44.2621 16.9102 44.275 17.4068 44.4259 17.941C44.5768 18.4752 44.7903 18.7799 44.7903 18.7799C44.7608 18.5253 44.8498 18.0889 44.7644 17.7867Z" fill="#FEFF8C" style="mix-blend-mode:overlay"/>
<path d="M41.515 18.2086C41.4396 17.9415 41.2427 17.3947 41.0127 17.332C41.0127 17.332 41.0256 17.8286 41.1765 18.3628C41.3274 18.8971 41.5409 19.2018 41.5409 19.2018C41.5114 18.9472 41.6004 18.5108 41.515 18.2086Z" fill="#FEFF8C" style="mix-blend-mode:overlay"/>
<path d="M44.9689 21.4998C44.9468 21.1814 44.8462 20.5001 44.5651 20.2769C44.5651 20.2769 44.4408 20.7796 44.4852 21.4163C44.5296 22.0531 44.7204 22.5054 44.7204 22.5054C44.7544 22.2316 44.9941 21.86 44.9689 21.4998Z" fill="#FEFF8C" style="mix-blend-mode:overlay"/>
<path d="M43.019 16.4114C42.7678 16.2145 42.1947 15.8326 41.8406 15.8916C41.8406 15.8916 42.1305 16.3208 42.6328 16.7145C43.1352 17.1082 43.5988 17.2697 43.5988 17.2697C43.4184 17.061 43.3031 16.6341 43.019 16.4114Z" fill="#FEFF8C" style="mix-blend-mode:overlay"/>
<path d="M41.3462 21.2215C41.3521 20.8437 41.3204 19.9804 41.1031 19.4424C41.1031 19.4424 40.961 19.8752 40.9492 20.6309C40.9375 21.3866 41.062 22.0872 41.062 22.0872C41.1113 21.817 41.3396 21.649 41.3462 21.2215Z" fill="#FEFF8C" style="mix-blend-mode:overlay"/>
<path d="M41.3954 30.4228C41.6288 30.7199 42.1973 31.3704 42.7049 31.6514C42.7049 31.6514 42.5426 31.2257 42.0757 30.6314C41.6088 30.0371 41.0708 29.5714 41.0708 29.5714C41.2027 29.8123 41.1312 30.0866 41.3954 30.4228Z" fill="#FEFF8C" style="mix-blend-mode:overlay"/>
</g>
<path d="M36.5661 22.8189C36.1442 22.1858 35.5111 21.9748 34.456 21.5527C32.9085 21.7638 29.7289 22.4812 31.0795 22.8189C32.43 23.1565 34.395 24.7181 34.606 28.3055C34.817 28.4462 34.9076 28.9386 35.7221 28.9386C36.5052 28.9386 36.9273 28.5166 37.1383 28.3055C37.1383 25.1402 37.0726 23.3253 36.5661 22.8189Z" fill="url(#paint22_linear_21_1925)"/>
<path d="M30.4454 20.2864C32.8872 20.1737 34.8869 21.6352 35.932 22.2053C35.2989 22.1744 34.7386 22.2053 34.2438 23.0494C33.5281 24.2704 34.0629 25.7817 33.8218 26.6368C33.5806 27.4919 33.0255 27.8738 32.6762 28.7471C32.2542 29.8022 33.4159 29.9704 32.6762 31.3342C31.4704 33.5575 27.1293 33.3865 24.9587 33.3865C25.1999 32.7024 25.9234 31.6763 25.9234 30.8212C25.9234 30.116 25.5617 29.3112 25.8028 28.114C26.0103 27.0841 27.2117 26.3019 27.491 25.3707C28.1241 23.2604 27.491 20.4228 30.4454 20.2864Z" fill="url(#paint23_linear_21_1925)"/>
<path d="M30.4454 20.2864C32.8872 20.1737 34.8869 21.6352 35.932 22.2053C35.2989 22.1744 34.7386 22.2053 34.2438 23.0494C33.5281 24.2704 34.0629 25.7817 33.8218 26.6368C33.5806 27.4919 33.0255 27.8738 32.6762 28.7471C32.2542 29.8022 33.4159 29.9704 32.6762 31.3342C31.4704 33.5575 27.1293 33.3865 24.9587 33.3865C25.1999 32.7024 25.9234 31.6763 25.9234 30.8212C25.9234 30.116 25.5617 29.3112 25.8028 28.114C26.0103 27.0841 27.2117 26.3019 27.491 25.3707C28.1241 23.2604 27.491 20.4228 30.4454 20.2864Z" fill="url(#paint24_linear_21_1925)" fill-opacity="0.2"/>
<mask id="mask1_21_1925" style="mask-type:alpha" maskUnits="userSpaceOnUse" x="24" y="20" width="12" height="14">
<path d="M30.4406 20.2864C32.8825 20.1737 34.8822 21.6352 35.9273 22.2053C35.2942 22.1744 34.7339 22.2053 34.2391 23.0494C33.5233 24.2704 34.0582 25.7817 33.817 26.6368C33.5758 27.4919 33.0208 27.8738 32.6714 28.7471C32.2494 29.8022 33.4111 29.9704 32.6714 31.3342C31.4656 33.5575 27.1245 33.3865 24.954 33.3865C25.1951 32.7024 25.9187 31.6763 25.9187 30.8212C25.9187 30.116 25.5569 29.3112 25.7981 28.114C26.0055 27.0841 27.2069 26.3019 27.4863 25.3707C28.1193 23.2604 27.4863 20.4228 30.4406 20.2864Z" fill="url(#paint25_linear_21_1925)"/>
</mask>
<g mask="url(#mask1_21_1925)">
<path d="M32.1154 22.8437C31.9714 23.1879 31.6965 23.9835 31.7625 24.5195C31.7625 24.5195 32.0902 24.1527 32.3782 23.4643C32.6663 22.7758 32.7707 22.11 32.7707 22.11C32.6135 22.347 32.2783 22.4542 32.1154 22.8437Z" fill="#FEFEAF" style="mix-blend-mode:overlay"/>
<path d="M28.9609 22.8672C29.0563 22.3394 29.3513 21.2104 29.8718 20.8438C29.8718 20.8438 29.9932 21.6795 29.8023 22.7352C29.6114 23.7909 29.2036 24.5387 29.2036 24.5387C29.195 24.0842 28.8529 23.4644 28.9609 22.8672Z" fill="#FEFEAF" style="mix-blend-mode:overlay"/>
<path d="M31.4529 31.279C31.7977 30.8681 32.477 29.9193 32.426 29.2847C32.426 29.2847 31.7059 29.7258 31.0164 30.5477C30.3268 31.3695 30.0127 32.1612 30.0127 32.1612C30.3676 31.8772 31.0629 31.744 31.4529 31.279Z" fill="#FEFEAF" style="mix-blend-mode:overlay"/>
<path d="M26.9351 27.6945C27.0944 27.3328 27.504 26.5628 27.9588 26.3306C27.9588 26.3306 27.9131 26.9147 27.5944 27.6383C27.2758 28.3618 26.8435 28.8629 26.8435 28.8629C26.9119 28.5476 26.7548 28.1038 26.9351 27.6945Z" fill="#FEFEAF" style="mix-blend-mode:overlay"/>
<path d="M28.1633 25.3952C28.2119 25.1915 28.3506 24.7605 28.5578 24.6426C28.5578 24.6426 28.5848 24.9792 28.4875 25.3865C28.3903 25.7939 28.2174 26.0683 28.2174 26.0683C28.2246 25.8882 28.1083 25.6256 28.1633 25.3952Z" fill="#FEFEAF" style="mix-blend-mode:overlay"/>
<path d="M27.6794 28.6493C27.7932 28.3511 28.0877 27.7285 28.4215 27.5967C28.4215 27.5967 28.3942 28.1139 28.1665 28.7101C27.9388 29.3064 27.6247 29.6836 27.6247 29.6836C27.6717 29.4119 27.5506 28.9866 27.6794 28.6493Z" fill="#FEFEAF" style="mix-blend-mode:overlay"/>
<path d="M31.725 28.2274C31.8388 27.9293 32.1333 27.3066 32.4671 27.1748C32.4671 27.1748 32.4398 27.692 32.2121 28.2883C31.9844 28.8845 31.6703 29.2618 31.6703 29.2618C31.7173 28.99 31.5962 28.5647 31.725 28.2274Z" fill="#FEFEAF" style="mix-blend-mode:overlay"/>
<path d="M29.6147 30.3373C29.7285 30.0391 30.023 29.4165 30.3569 29.2847C30.3569 29.2847 30.3295 29.8018 30.1018 30.3981C29.8742 30.9944 29.56 31.3716 29.56 31.3716C29.6071 31.0998 29.4859 30.6746 29.6147 30.3373Z" fill="#FEFEAF" style="mix-blend-mode:overlay"/>
<path d="M29.3811 25.3217C29.462 25.1286 29.6683 24.7256 29.8918 24.6426C29.8918 24.6426 29.8642 24.9791 29.7026 25.3655C29.5409 25.7518 29.326 25.9948 29.326 25.9948C29.3621 25.8182 29.2897 25.5403 29.3811 25.3217Z" fill="#FEFEAF" style="mix-blend-mode:overlay"/>
<path d="M30.6471 28.6977C30.728 28.5045 30.9343 28.1016 31.1578 28.0186C31.1578 28.0186 31.1302 28.3551 30.9686 28.7415C30.8069 29.1278 30.592 29.3708 30.592 29.3708C30.6281 29.1942 30.5557 28.9163 30.6471 28.6977Z" fill="#FEFEAF" style="mix-blend-mode:overlay"/>
<path d="M26.8493 31.6523C26.9301 31.4591 27.1364 31.0562 27.3599 30.9731C27.3599 30.9731 27.3323 31.3097 27.1707 31.696C27.009 32.0824 26.7941 32.3254 26.7941 32.3254C26.8303 32.1488 26.7578 31.8709 26.8493 31.6523Z" fill="#FEFEAF" style="mix-blend-mode:overlay"/>
<path d="M32.7078 26.509C32.815 26.3292 33.0762 25.9594 33.3091 25.9087C33.3091 25.9087 33.2343 26.238 33.0198 26.5977C32.8053 26.9574 32.5582 27.1676 32.5582 27.1676C32.6189 26.9979 32.5864 26.7125 32.7078 26.509Z" fill="#FEFEAF" style="mix-blend-mode:overlay"/>
<path d="M33.1813 22.789C33.2621 22.5958 33.4685 22.1929 33.6919 22.1099C33.6919 22.1099 33.6644 22.4464 33.5027 22.8328C33.3411 23.2191 33.1262 23.4621 33.1262 23.4621C33.1623 23.2855 33.0899 23.0076 33.1813 22.789Z" fill="#FEFEAF" style="mix-blend-mode:overlay"/>
<path d="M30.7327 20.5359C30.9261 20.4556 31.3564 20.3147 31.5735 20.4131C31.5735 20.4131 31.317 20.6327 30.9302 20.7933C30.5434 20.9538 30.2197 20.9751 30.2197 20.9751C30.3697 20.8751 30.5139 20.6267 30.7327 20.5359Z" fill="#FEFEAF" style="mix-blend-mode:overlay"/>
<path d="M32.7359 24.4412C32.8297 24.254 33.0629 23.866 33.2915 23.7983C33.2915 23.7983 33.2412 24.1322 33.0536 24.5067C32.8661 24.8812 32.6352 25.109 32.6352 25.109C32.6832 24.9353 32.6298 24.6531 32.7359 24.4412Z" fill="#FEFEAF" style="mix-blend-mode:overlay"/>
<path d="M31.1031 26.4037C31.2169 26.1055 31.5114 25.4829 31.8453 25.3511C31.8453 25.3511 31.8179 25.8683 31.5902 26.4645C31.3626 27.0608 31.0484 27.438 31.0484 27.438C31.0955 27.1663 30.9743 26.741 31.1031 26.4037Z" fill="#FEFF8C" style="mix-blend-mode:overlay"/>
</g>
<path d="M23.9604 32.2495C24.4245 32.2495 24.8755 32.3493 25.2055 32.5356V32.5366L34.2788 37.7642L34.2797 37.7651C34.6076 37.9509 34.7182 38.1696 34.7182 38.3394C34.7181 38.5091 34.6074 38.7279 34.2797 38.9136L34.2778 38.9146L25.2573 44.1401C24.9271 44.3272 24.4763 44.4282 24.0112 44.4282C23.5461 44.4282 23.0943 44.3272 22.7641 44.1401L13.6938 38.9136H13.6918C13.3642 38.7279 13.2535 38.5091 13.2534 38.3394C13.2534 38.1697 13.3642 37.9509 13.6918 37.7651L13.6938 37.7642L22.7163 32.5366L22.7153 32.5356C23.0452 32.3491 23.4961 32.2496 23.9604 32.2495Z" stroke="#5F4E13" stroke-opacity="0.4" stroke-width="0.5"/>
<g opacity="0.6">
<path opacity="0.2" d="M18.6235 36.7451C19.1965 36.7451 19.6263 36.8294 20.1277 36.8294V36.7451C19.9128 36.6608 19.7695 36.5765 19.5547 36.4922C19.0533 36.4079 18.5519 36.2393 18.0505 36.155C17.764 36.0707 17.4775 36.0707 17.1194 36.0707C16.9045 36.0707 16.618 35.9864 16.4031 35.9021C16.4031 35.9021 16.4031 35.9021 16.4031 35.8178C16.5463 35.7335 16.6896 35.7335 16.8329 35.6492C16.9761 35.5649 16.9761 35.4806 16.6896 35.312C16.3315 35.1434 16.045 35.0591 15.6152 34.9748C15.1138 34.9748 14.6124 34.8905 14.0394 34.8062C13.8962 34.8062 13.6813 34.7219 13.4664 34.6376C13.4664 34.6376 13.4664 34.5533 13.3948 34.5533C13.6097 34.5533 13.7529 34.5533 13.9678 34.5533C14.1111 34.5533 14.1827 34.469 14.2543 34.469C14.1827 34.3847 14.1111 34.3004 13.9678 34.3004C13.6813 34.1318 13.3232 34.0475 12.965 34.0475C12.6069 34.0475 12.4637 33.9632 12.5353 33.7946C12.5353 33.7103 12.5353 33.626 12.2488 33.5417C11.7474 33.4574 11.6041 33.2045 11.3893 32.9516C11.246 32.783 11.1028 32.6144 11.0311 32.4458C10.9595 32.3615 11.0311 32.2772 11.1744 32.1929C11.3176 32.1086 11.4609 32.2772 11.5325 32.3615C11.6042 32.3615 11.6758 32.4458 11.7474 32.4458C12.4637 32.6987 12.8934 33.0359 13.3948 33.3731C13.4664 33.2888 13.6097 33.2045 13.7529 33.1202C13.8962 33.2888 13.9678 33.4574 14.0394 33.626C14.1827 33.8789 14.3259 33.8789 14.5408 33.7946C14.8273 33.7103 14.8273 33.7103 15.2571 33.9632C15.3287 34.0475 15.4003 34.0475 15.472 34.0475C15.6868 34.1318 15.8301 34.1318 15.8301 34.0475C15.8301 33.9632 15.7585 33.8789 15.7585 33.7946C16.4031 34.1318 17.1194 34.3004 17.4059 34.7219C17.4775 34.8062 17.4775 34.8062 17.5491 34.8905C17.6207 34.9748 17.764 34.9748 17.8356 34.9748C17.9072 34.9748 17.9073 34.8905 17.9789 34.8905C17.9789 34.8905 17.9789 34.8062 17.9072 34.8062C17.6207 34.3847 17.6207 34.3847 18.4086 34.6376C19.1965 34.8062 19.483 35.1434 19.7695 35.4806C19.9128 35.6492 20.056 35.8178 20.1993 35.9864C20.2709 35.9864 20.2709 35.9864 20.3425 35.9864C20.4142 35.8178 20.4858 35.6492 20.629 35.4806C20.7723 35.5649 20.8439 35.6492 20.9155 35.6492C21.6318 36.2393 22.4197 36.8294 23.136 37.5038C23.2792 37.6724 23.4225 37.7567 23.4941 37.9253C23.5657 38.0096 23.4941 38.0939 23.4225 38.0939C23.3508 38.0939 23.136 38.0939 22.9927 38.0096C22.3481 37.6724 21.7034 37.5038 20.9872 37.4195C20.1993 37.2509 19.483 36.998 18.8384 36.7451C18.8384 36.9137 18.7668 36.8294 18.6235 36.7451Z" fill="black"/>
</g>
<g filter="url(#filter1_i_21_1925)">
<path d="M28.5744 34.8054C28.0014 34.8897 27.5 34.8897 27.0702 34.974C27.0702 34.8897 26.9986 34.8897 26.9986 34.8054C27.1419 34.6368 27.2135 34.4682 27.4284 34.3839C27.8581 34.131 28.3595 33.9624 28.7893 33.7095C29.0758 33.6252 29.3623 33.5409 29.6488 33.4566C29.8636 33.3723 30.0785 33.2037 30.2934 33.1194C30.2934 33.0351 30.2934 33.0351 30.2218 32.9508C30.0069 32.8665 29.8636 32.6979 29.6488 32.6136C29.4339 32.445 29.3623 32.2764 29.5055 31.9392C29.7204 31.5177 29.9353 31.3491 30.365 31.2648C30.8664 31.2648 31.3678 31.0962 31.8692 31.0119C32.0124 31.0119 32.1557 30.8433 32.2989 30.6747C32.2989 30.5904 32.2989 30.5904 32.2989 30.5061C32.0841 30.5061 31.8692 30.5061 31.6543 30.5061C31.511 30.5061 31.4394 30.4218 31.2962 30.3375C31.3678 30.1689 31.3678 30.0846 31.4394 29.916C31.6543 29.5788 31.8692 29.3259 32.2273 29.3259C32.5854 29.3259 32.6571 29.1573 32.4422 28.8201C32.2989 28.5672 32.2989 28.4829 32.5138 28.3143C32.9436 28.0614 32.8719 27.5556 32.9436 27.0498C33.0152 26.7126 33.0152 26.3754 32.9436 26.0382C32.9436 25.8696 32.7287 25.6167 32.5854 25.5324C32.3706 25.4481 32.3706 25.701 32.2989 25.8696C32.2989 25.9539 32.2273 26.0382 32.2273 26.1225C31.6543 26.6283 31.4394 27.3027 31.2962 28.1457C31.0813 27.9771 30.938 27.8085 30.7232 27.5556C30.7232 27.9771 30.7948 28.23 30.7948 28.5672C30.7948 29.073 30.7232 29.073 30.365 28.9044C29.9353 28.6515 29.9353 28.6515 29.7204 29.1573C29.6488 29.2416 29.6488 29.3259 29.5771 29.4102C29.4339 29.6631 29.2906 29.6631 29.219 29.3259C29.1474 29.1573 29.1474 29.073 29.0758 28.8201C28.646 29.4102 28.073 29.916 28.1446 30.759C28.1446 30.8433 28.1446 31.0119 28.1446 31.0962C28.073 31.1805 28.0014 31.2648 27.9297 31.2648C27.8581 31.2648 27.7865 31.1805 27.7149 31.0962C27.7149 31.0962 27.7149 31.0119 27.7149 30.9276C27.6432 30.0846 27.6432 30.0846 26.9986 30.5061C26.354 30.9276 26.354 31.602 26.2823 32.3607C26.2823 32.6979 26.2823 33.0351 26.2107 33.3723C26.1391 33.3723 26.1391 33.3723 26.0675 33.4566C25.8526 33.1194 25.6377 32.7822 25.3512 32.445C25.2796 32.6136 25.2079 32.6979 25.2079 32.7822C24.9214 34.0467 24.7066 35.3955 24.4201 36.66C24.3484 36.9129 24.3484 37.2501 24.4201 37.5873C24.4201 37.7559 24.5633 37.9245 24.6349 38.0088C24.7066 38.0088 24.9214 37.9245 24.9931 37.8402C25.3512 37.0815 25.9958 36.8286 26.5689 36.4914C27.2135 36.1542 27.7865 35.6484 28.3595 35.0583C28.4311 35.1426 28.5027 34.974 28.5744 34.8054Z" fill="url(#paint26_linear_21_1925)"/>
</g>
<g filter="url(#filter2_i_21_1925)">
<path d="M22.7072 31.9195C23.0653 32.341 23.4235 32.6782 23.7816 33.0997C23.8532 33.0997 23.8532 33.0154 23.9249 33.0154C23.9249 32.8468 23.9249 32.5939 23.8532 32.4253C23.6384 31.9195 23.4235 31.498 23.137 30.9922C22.9937 30.7393 22.7788 30.4864 22.6356 30.2335C22.4923 29.9806 22.4207 29.7277 22.3491 29.4748L22.4207 29.3905C22.6356 29.4748 22.8505 29.4748 22.9937 29.5591C23.2802 29.6434 23.3518 29.4748 23.4235 29.2219C23.4951 28.8004 23.4235 28.4632 23.0653 28.126C22.7072 27.7045 22.4207 27.283 22.0626 26.8615C21.991 26.6929 21.9193 26.5243 21.8477 26.3557L21.9193 26.2714C22.0626 26.44 22.2058 26.5243 22.4207 26.6929C22.4923 26.7772 22.6356 26.7772 22.7788 26.8615C22.7788 26.7772 22.8505 26.6086 22.8505 26.5243C22.8505 26.1028 22.8505 25.7656 22.564 25.5127C22.2775 25.2598 22.2775 25.0912 22.6356 24.9226C22.8505 24.8383 22.9221 24.754 22.8505 24.5011C22.7072 23.9953 22.9937 23.6581 23.137 23.3209C23.2802 23.068 23.4235 22.8151 23.6384 22.5622C23.7816 22.4779 23.9965 22.3936 24.1397 22.3936C24.3546 22.4779 24.2114 22.6465 24.2114 22.8151C24.2114 22.8994 24.1397 22.9837 24.1397 23.068C24.283 23.8267 24.1397 24.5011 23.8532 25.1755C24.0681 25.1755 24.283 25.1755 24.5695 25.1755C24.3546 25.4284 24.2114 25.6813 23.9965 25.8499C23.7816 26.1871 23.7816 26.2714 24.1397 26.3557C24.5695 26.5243 24.5695 26.5243 24.4979 27.0301C24.4979 27.1144 24.4979 27.1987 24.4262 27.283C24.4262 27.5359 24.4979 27.6202 24.7127 27.5359C24.7844 27.4516 24.9276 27.3673 25.0709 27.283C25.0709 28.0417 25.2141 28.8004 24.7844 29.3905C24.7128 29.4748 24.6411 29.5591 24.6411 29.6434C24.6411 29.7277 24.6411 29.8963 24.7127 29.9806C24.7844 30.0649 24.856 29.9806 24.9276 29.9806C24.9993 29.9806 24.9993 29.8963 24.9993 29.8963C25.5006 29.3062 25.5006 29.3062 25.7155 30.0649C25.9304 30.8236 25.6439 31.3294 25.2858 31.9195C25.1425 32.1724 24.9993 32.4253 24.7844 32.6782C24.7844 32.7625 24.856 32.7625 24.856 32.8468C25.2141 32.7625 25.5006 32.6782 25.9304 32.5939C25.8588 32.7625 25.8588 32.8468 25.8588 32.9311C25.429 34.027 24.9276 35.2072 24.4979 36.3031C24.4262 36.556 24.2114 36.8089 24.0681 36.9775C23.9965 37.0618 23.7816 37.1461 23.71 37.0618C23.6384 36.9775 23.4951 36.8089 23.4951 36.7246C23.6384 35.9659 23.2802 35.2915 22.9937 34.7014C22.6356 34.027 22.4923 33.2683 22.4207 32.4253C22.6356 32.1724 22.6356 32.0881 22.7072 31.9195Z" fill="url(#paint27_linear_21_1925)"/>
</g>
<g filter="url(#filter3_i_21_1925)">
<path d="M19.6212 34.8054C20.1942 34.8897 20.6956 34.8897 21.1253 34.974C21.1253 34.8897 21.1969 34.8897 21.1969 34.8054C21.0537 34.6368 20.9821 34.4682 20.7672 34.3839C20.3374 34.131 19.8361 33.9624 19.4063 33.7095C19.1198 33.6252 18.8333 33.5409 18.5468 33.4566C18.3319 33.3723 18.117 33.2037 17.9021 33.1194C17.9021 33.0351 17.9021 33.0351 17.9738 32.9508C18.1887 32.8665 18.3319 32.6979 18.5468 32.6136C18.7617 32.445 18.8333 32.2764 18.69 31.9392C18.4752 31.5177 18.2603 31.3491 17.8305 31.2648C17.3291 31.2648 16.8278 31.0962 16.3264 31.0119C16.1831 31.0119 16.0399 30.8433 15.8966 30.6747C15.8966 30.5904 15.8966 30.5904 15.8966 30.5061C16.1115 30.5061 16.3264 30.5061 16.5412 30.5061C16.6845 30.5061 16.7561 30.4218 16.8994 30.3375C16.8278 30.1689 16.8277 30.0846 16.7561 29.916C16.5412 29.5788 16.3264 29.3259 15.9682 29.3259C15.6101 29.3259 15.5385 29.1573 15.7534 28.8201C15.8966 28.5672 15.8966 28.4829 15.6817 28.3143C15.252 28.0614 15.3236 27.5556 15.252 27.0498C15.1804 26.7126 15.1804 26.3754 15.252 26.0382C15.252 25.8696 15.4669 25.6167 15.6101 25.5324C15.825 25.4481 15.825 25.701 15.8966 25.8696C15.8966 25.9539 15.9682 26.0382 15.9682 26.1225C16.5412 26.6283 16.7561 27.3027 16.8994 28.1457C17.1143 27.9771 17.2575 27.8085 17.4724 27.5556C17.4724 27.9771 17.4008 28.23 17.4008 28.5672C17.4008 29.073 17.4724 29.073 17.8305 28.9044C18.2603 28.6515 18.2603 28.6515 18.4752 29.1573C18.5468 29.2416 18.5468 29.3259 18.6184 29.4102C18.7617 29.6631 18.9049 29.6631 18.9765 29.3259C19.0482 29.1573 19.0482 29.073 19.1198 28.8201C19.5495 29.4102 20.1226 29.916 20.0509 30.759C20.0509 30.8433 20.0509 31.0119 20.0509 31.0962C20.1226 31.1805 20.1942 31.2648 20.2658 31.2648C20.3374 31.2648 20.4091 31.1805 20.4807 31.0962C20.4807 31.0962 20.4807 31.0119 20.4807 30.9276C20.5523 30.0846 20.5523 30.0846 21.1969 30.5061C21.8416 30.9276 21.8416 31.602 21.9132 32.3607C21.9132 32.6979 21.9132 33.0351 21.9848 33.3723C22.0565 33.3723 22.0565 33.3723 22.1281 33.4566C22.343 33.1194 22.5578 32.7822 22.8443 32.445C22.916 32.6136 22.9876 32.6979 22.9876 32.7822C23.2741 34.0467 23.489 35.3955 23.7755 36.66C23.8471 36.9129 23.8471 37.2501 23.7755 37.5873C23.7755 37.7559 23.6322 37.9245 23.5606 38.0088C23.489 38.0088 23.2741 37.9245 23.2025 37.8402C22.8443 37.0815 22.1997 36.8286 21.6267 36.4914C20.9821 36.1542 20.4091 35.6484 19.836 35.0583C19.6928 35.1426 19.6928 34.974 19.6212 34.8054Z" fill="url(#paint28_linear_21_1925)"/>
</g>
<g filter="url(#filter4_d_21_1925)">
<path d="M24.0709 36.3864C24.0709 36.3864 24.7155 33.8574 24.3574 30.8226C23.9992 27.7877 23.2114 27.5348 23.5695 23.3198" stroke="#A6C989" stroke-width="0.2" stroke-miterlimit="10" stroke-linecap="round" stroke-linejoin="round" shape-rendering="crispEdges"/>
</g>
<g filter="url(#filter5_d_21_1925)">
<path d="M24.7828 37.4184C24.7828 37.4184 25.1409 35.9853 26.7883 33.5406C28.4357 31.1802 30.9427 30.7587 32.4468 26.8809" stroke="#A6C989" stroke-width="0.2" stroke-miterlimit="10" stroke-linecap="round" stroke-linejoin="round" shape-rendering="crispEdges"/>
</g>
<g filter="url(#filter6_d_21_1925)">
<path d="M23.4159 37.4184C23.4159 37.4184 23.0578 35.9853 21.4104 33.5406C19.763 31.1802 17.256 30.7587 15.7519 26.8809" stroke="#A6C989" stroke-width="0.2" stroke-miterlimit="10" stroke-linecap="round" stroke-linejoin="round" shape-rendering="crispEdges"/>
</g>
<path fill-rule="evenodd" clip-rule="evenodd" d="M21.9259 21.765L21.2097 25.1314L23.2868 22.4813L24.0031 24.4868V22.4813L26.0802 23.8422C26.0802 23.8422 24.0031 21.8366 24.7193 21.8366C25.4356 21.8366 28.1574 21.8366 28.1574 21.8366L24.0031 20.5474L21.9259 21.765Z" fill="#275F3D"/>
<path d="M25.9587 18.7598C25.9672 18.8189 25.9833 18.8595 26.0076 18.8838L26.0925 18.9688H25.6794C25.6763 18.9685 25.6718 18.9685 25.6667 18.9678L25.6648 18.9668C25.6717 18.9793 25.679 18.9914 25.6853 19.0039C25.7131 19.0595 25.7321 19.1181 25.7341 19.1934C25.752 19.2647 25.766 19.3252 25.7732 19.375C25.7802 19.4237 25.7819 19.4696 25.7693 19.5078C25.7551 19.5504 25.7248 19.5788 25.6833 19.5947C25.6651 19.6018 25.6444 19.6055 25.6218 19.6084C25.652 19.6658 25.6868 19.7332 25.7068 19.7998C25.7361 19.8975 25.7395 20.0102 25.6492 20.1006C25.6153 20.1344 25.5695 20.1376 25.532 20.1338C25.4935 20.1298 25.4502 20.117 25.4099 20.1035C25.3676 20.0894 25.3282 20.0745 25.2878 20.0625C25.269 20.0569 25.2505 20.056 25.2341 20.0527V20.1982C25.2693 20.3049 25.2893 20.4016 25.2791 20.4834C25.2693 20.5611 25.2306 20.6208 25.1628 20.6641V20.7236L25.156 20.7354C25.103 20.8237 25.0608 20.8938 25.0242 20.9424C24.9889 20.9891 24.9489 21.0295 24.8962 21.0371C24.8427 21.0448 24.7937 21.0162 24.7488 20.9805C24.7284 20.9642 24.7079 20.9422 24.6833 20.9189C24.6933 21.0141 24.6896 21.0923 24.6716 21.1572C24.6446 21.2552 24.5895 21.3193 24.5212 21.3613C24.455 21.4021 24.3776 21.4209 24.3083 21.4346C24.2355 21.4489 24.1754 21.4571 24.1257 21.4736C24.0652 21.4938 24.0119 21.4961 23.9646 21.4766C23.9181 21.4573 23.8867 21.4203 23.8621 21.3809C23.8377 21.3419 23.8153 21.2934 23.7927 21.2461C23.7798 21.2191 23.7631 21.193 23.7478 21.165C23.7148 21.2091 23.6789 21.2476 23.6443 21.2822C23.5899 21.3366 23.5421 21.3852 23.5105 21.4482L23.5085 21.4521C23.2897 21.8168 23.0668 22.0401 22.696 22.1885L22.6873 22.1924H22.6775C22.6762 22.1924 22.6693 22.1936 22.6531 22.2061C22.6373 22.2182 22.6195 22.2357 22.5964 22.2588C22.5522 22.303 22.4926 22.3625 22.4128 22.4023C22.3498 22.434 22.3012 22.4818 22.2468 22.5361C22.194 22.5889 22.1351 22.6486 22.0554 22.6885C22.0191 22.7066 21.9826 22.7225 21.949 22.7295C21.9145 22.7367 21.8753 22.7362 21.8416 22.7109C21.8097 22.687 21.7929 22.6482 21.783 22.6045C21.7813 22.5974 21.7804 22.5898 21.7791 22.582C21.7651 22.5999 21.7529 22.6189 21.7371 22.6348C21.6873 22.6845 21.6281 22.7225 21.5535 22.7598C21.4844 22.7943 21.4196 22.8444 21.3425 22.8926C21.2731 22.9359 21.1943 22.9755 21.1111 22.9785C21.0911 22.9868 21.071 22.9933 21.0496 22.9912C21.023 22.9885 21.0004 22.9763 20.9832 22.96C20.9515 22.9299 20.9332 22.8821 20.9197 22.8369C20.9056 22.7899 20.8936 22.7334 20.8816 22.6787C20.8763 22.6546 20.8688 22.6311 20.863 22.6074C20.6638 22.8581 20.4463 23.0518 20.0984 23.0518C20.0261 23.0518 19.9354 23.0528 19.8484 22.9658L19.8337 22.9512V22.6357L19.8367 22.6279C19.8738 22.5165 19.9288 22.4056 19.9822 22.2988C20.0252 22.2128 20.0648 22.1285 20.0974 22.0459C19.9402 22.042 19.7845 22.0282 19.6375 22.0127C19.4663 21.9947 19.3077 21.9775 19.1677 21.9775H19.1179V21.8379L19.1287 21.8242C19.2764 21.6397 19.4423 21.511 19.614 21.3936C19.7753 21.2832 19.9366 21.1831 20.1013 21.0557C19.833 20.6883 19.8394 20.2575 19.9802 19.835L19.9812 19.832C20.0177 19.7409 20.0544 19.6645 20.0945 19.6074C20.1342 19.5509 20.1803 19.5075 20.2351 19.4893C20.2926 19.4701 20.3508 19.482 20.406 19.5156C20.4597 19.5484 20.5138 19.6031 20.5691 19.6768C20.6008 19.7085 20.6178 19.7255 20.6345 19.7422C20.6419 19.7118 20.6516 19.6854 20.6609 19.6621C20.6708 19.6373 20.679 19.6203 20.6853 19.6025C20.6912 19.5858 20.6931 19.5732 20.6931 19.5635C20.6932 19.1923 20.8424 18.8927 21.1375 18.6689C21.1915 18.6149 21.2397 18.5709 21.2849 18.542C21.3308 18.5127 21.3789 18.4965 21.4304 18.5029C21.4808 18.5093 21.5264 18.5371 21.5701 18.5771C21.6126 18.6162 21.6577 18.6712 21.7097 18.7402L21.7117 18.7422C21.8132 18.2121 22.1659 17.9316 22.5027 17.6621L22.5115 17.6562C22.5468 17.6386 22.5855 17.6199 22.6228 17.6055C22.6598 17.5912 22.6999 17.5801 22.74 17.5801C22.7818 17.5801 22.8232 17.5927 22.8591 17.624C22.8921 17.6528 22.9171 17.6947 22.9363 17.749C22.9764 17.795 22.9958 17.8551 23.0046 17.9082C23.0069 17.9216 23.0053 17.9352 23.0066 17.9482C23.1271 17.8296 23.257 17.7081 23.4373 17.5879C23.5847 17.4427 23.7992 17.3 23.9441 17.2275C23.9992 17.1915 24.0511 17.1689 24.0994 17.166C24.1524 17.1629 24.197 17.183 24.2292 17.2217C24.2594 17.2579 24.2771 17.3083 24.2878 17.3633C24.2987 17.419 24.3035 17.4854 24.3035 17.5586V17.6113C24.4797 17.4988 24.606 17.4332 24.7322 17.3701C24.8007 17.3359 24.8523 17.3014 24.906 17.2656C24.9596 17.2299 25.016 17.1926 25.0906 17.1553L25.1013 17.1504H25.3064V17.4268L25.3005 17.4375C25.2677 17.5033 25.2511 17.5696 25.2332 17.6416C25.2247 17.6755 25.2149 17.7111 25.2039 17.7471C25.3104 17.6974 25.4219 17.6529 25.5359 17.6514C25.6483 17.6163 25.7456 17.6305 25.7986 17.71C25.8476 17.7836 25.8416 17.8925 25.8044 18.0039C25.7694 18.109 25.7548 18.1902 25.7625 18.2598C25.7699 18.3271 25.7991 18.3891 25.864 18.4541L25.9363 18.5254L25.9509 18.54V18.5615C25.9509 18.6338 25.9504 18.7015 25.9587 18.7598Z" fill="url(#paint29_linear_21_1925)" stroke="#BD6600" stroke-width="0.1"/>
<path d="M23.8541 36.6134C23.8541 36.6134 26.669 27.6055 24.1355 22.5557" stroke="#275F3D" stroke-width="0.5" stroke-miterlimit="10" stroke-linecap="round" stroke-linejoin="round"/>
<path d="M27.2867 39.0959C27.9313 38.8094 27.7881 38.0932 27.1435 37.8783C26.0691 37.5202 24.7082 37.162 24.35 37.0904C23.9203 36.9472 22.2729 37.6634 21.3417 38.0932C20.912 38.3081 20.7687 38.6662 20.9836 39.0243C21.2701 39.3824 23.4189 39.0959 24.6365 39.3108C26.0691 39.5257 26.1407 39.5973 27.2867 39.0959Z" fill="url(#paint30_linear_21_1925)"/>
<defs>
<filter id="filter0_i_21_1925" x="0.0206604" y="17.9995" width="47.9292" height="27.6621" filterUnits="userSpaceOnUse" color-interpolation-filters="sRGB">
<feFlood flood-opacity="0" result="BackgroundImageFix"/>
<feBlend mode="normal" in="SourceGraphic" in2="BackgroundImageFix" result="shape"/>
<feColorMatrix in="SourceAlpha" type="matrix" values="0 0 0 0 0 0 0 0 0 0 0 0 0 0 0 0 0 0 127 0" result="hardAlpha"/>
<feOffset dy="-1"/>
<feComposite in2="hardAlpha" operator="arithmetic" k2="-1" k3="1"/>
<feColorMatrix type="matrix" values="0 0 0 0 1 0 0 0 0 0.7 0 0 0 0 0.5375 0 0 0 0.75 0"/>
<feBlend mode="normal" in2="shape" result="effect1_innerShadow_21_1925"/>
</filter>
<filter id="filter1_i_21_1925" x="24.3663" y="25.5156" width="8.63095" height="12.4932" filterUnits="userSpaceOnUse" color-interpolation-filters="sRGB">
<feFlood flood-opacity="0" result="BackgroundImageFix"/>
<feBlend mode="normal" in="SourceGraphic" in2="BackgroundImageFix" result="shape"/>
<feColorMatrix in="SourceAlpha" type="matrix" values="0 0 0 0 0 0 0 0 0 0 0 0 0 0 0 0 0 0 127 0" result="hardAlpha"/>
<feOffset dy="-0.5"/>
<feComposite in2="hardAlpha" operator="arithmetic" k2="-1" k3="1"/>
<feColorMatrix type="matrix" values="0 0 0 0 0 0 0 0 0 0 0 0 0 0 0 0 0 0 0.5 0"/>
<feBlend mode="normal" in2="shape" result="effect1_innerShadow_21_1925"/>
</filter>
<filter id="filter2_i_21_1925" x="21.8477" y="22.3936" width="4.08269" height="14.7031" filterUnits="userSpaceOnUse" color-interpolation-filters="sRGB">
<feFlood flood-opacity="0" result="BackgroundImageFix"/>
<feBlend mode="normal" in="SourceGraphic" in2="BackgroundImageFix" result="shape"/>
<feColorMatrix in="SourceAlpha" type="matrix" values="0 0 0 0 0 0 0 0 0 0 0 0 0 0 0 0 0 0 127 0" result="hardAlpha"/>
<feOffset dy="-0.5"/>
<feComposite in2="hardAlpha" operator="arithmetic" k2="-1" k3="1"/>
<feColorMatrix type="matrix" values="0 0 0 0 0 0 0 0 0 0 0 0 0 0 0 0 0 0 0.5 0"/>
<feBlend mode="normal" in2="shape" result="effect1_innerShadow_21_1925"/>
</filter>
<filter id="filter3_i_21_1925" x="15.1983" y="25.5156" width="8.63095" height="12.4932" filterUnits="userSpaceOnUse" color-interpolation-filters="sRGB">
<feFlood flood-opacity="0" result="BackgroundImageFix"/>
<feBlend mode="normal" in="SourceGraphic" in2="BackgroundImageFix" result="shape"/>
<feColorMatrix in="SourceAlpha" type="matrix" values="0 0 0 0 0 0 0 0 0 0 0 0 0 0 0 0 0 0 127 0" result="hardAlpha"/>
<feOffset dy="-0.5"/>
<feComposite in2="hardAlpha" operator="arithmetic" k2="-1" k3="1"/>
<feColorMatrix type="matrix" values="0 0 0 0 0 0 0 0 0 0 0 0 0 0 0 0 0 0 0.5 0"/>
<feBlend mode="normal" in2="shape" result="effect1_innerShadow_21_1925"/>
</filter>
<filter id="filter4_d_21_1925" x="19.3783" y="23.2197" width="9.18741" height="21.2666" filterUnits="userSpaceOnUse" color-interpolation-filters="sRGB">
<feFlood flood-opacity="0" result="BackgroundImageFix"/>
<feColorMatrix in="SourceAlpha" type="matrix" values="0 0 0 0 0 0 0 0 0 0 0 0 0 0 0 0 0 0 127 0" result="hardAlpha"/>
<feOffset dy="4"/>
<feGaussianBlur stdDeviation="2"/>
<feComposite in2="hardAlpha" operator="out"/>
<feColorMatrix type="matrix" values="0 0 0 0 0 0 0 0 0 0 0 0 0 0 0 0 0 0 0.25 0"/>
<feBlend mode="normal" in2="BackgroundImageFix" result="effect1_dropShadow_21_1925"/>
<feBlend mode="normal" in="SourceGraphic" in2="effect1_dropShadow_21_1925" result="shape"/>
</filter>
<filter id="filter5_d_21_1925" x="20.6828" y="26.7808" width="15.864" height="18.7378" filterUnits="userSpaceOnUse" color-interpolation-filters="sRGB">
<feFlood flood-opacity="0" result="BackgroundImageFix"/>
<feColorMatrix in="SourceAlpha" type="matrix" values="0 0 0 0 0 0 0 0 0 0 0 0 0 0 0 0 0 0 127 0" result="hardAlpha"/>
<feOffset dy="4"/>
<feGaussianBlur stdDeviation="2"/>
<feComposite in2="hardAlpha" operator="out"/>
<feColorMatrix type="matrix" values="0 0 0 0 0 0 0 0 0 0 0 0 0 0 0 0 0 0 0.25 0"/>
<feBlend mode="normal" in2="BackgroundImageFix" result="effect1_dropShadow_21_1925"/>
<feBlend mode="normal" in="SourceGraphic" in2="effect1_dropShadow_21_1925" result="shape"/>
</filter>
<filter id="filter6_d_21_1925" x="11.6519" y="26.7808" width="15.864" height="18.7378" filterUnits="userSpaceOnUse" color-interpolation-filters="sRGB">
<feFlood flood-opacity="0" result="BackgroundImageFix"/>
<feColorMatrix in="SourceAlpha" type="matrix" values="0 0 0 0 0 0 0 0 0 0 0 0 0 0 0 0 0 0 127 0" result="hardAlpha"/>
<feOffset dy="4"/>
<feGaussianBlur stdDeviation="2"/>
<feComposite in2="hardAlpha" operator="out"/>
<feColorMatrix type="matrix" values="0 0 0 0 0 0 0 0 0 0 0 0 0 0 0 0 0 0 0.25 0"/>
<feBlend mode="normal" in2="BackgroundImageFix" result="effect1_dropShadow_21_1925"/>
<feBlend mode="normal" in="SourceGraphic" in2="effect1_dropShadow_21_1925" result="shape"/>
</filter>
<linearGradient id="paint0_linear_21_1925" x1="0" y1="33.2415" x2="48" y2="33.2415" gradientUnits="userSpaceOnUse">
<stop stop-color="#7B4F39"/>
<stop offset="0.0001" stop-color="#5F312D"/>
<stop offset="1" stop-color="#9B6B51"/>
</linearGradient>
<linearGradient id="paint1_linear_21_1925" x1="0.0206605" y1="18.3686" x2="0.446897" y2="46.0436" gradientUnits="userSpaceOnUse">
<stop stop-color="#AFFFA1"/>
<stop offset="1" stop-color="#00B37C"/>
</linearGradient>
<radialGradient id="paint2_radial_21_1925" cx="0" cy="0" r="1" gradientUnits="userSpaceOnUse" gradientTransform="translate(22.5 14.5) rotate(-60.9454) scale(10.2956 7.32281)">
<stop stop-color="white" stop-opacity="0"/>
<stop offset="0.765487" stop-color="white" stop-opacity="0"/>
<stop offset="1" stop-color="#FEFF63"/>
</radialGradient>
<linearGradient id="paint3_linear_21_1925" x1="15.2131" y1="19.1042" x2="15.0746" y2="13.907" gradientUnits="userSpaceOnUse">
<stop stop-color="#98C55F"/>
<stop offset="0.5" stop-color="#489744"/>
<stop offset="1" stop-color="#AED166"/>
</linearGradient>
<linearGradient id="paint4_linear_21_1925" x1="11.5" y1="12.5001" x2="14.5" y2="14.5001" gradientUnits="userSpaceOnUse">
<stop/>
<stop offset="0.427439" stop-opacity="0"/>
<stop offset="1"/>
</linearGradient>
<linearGradient id="paint5_linear_21_1925" x1="24.4835" y1="9.94137" x2="25.2949" y2="7.09445" gradientUnits="userSpaceOnUse">
<stop stop-color="#25863A"/>
<stop offset="1" stop-color="#AED166"/>
</linearGradient>
<linearGradient id="paint6_linear_21_1925" x1="18.3468" y1="22.5519" x2="18.3432" y2="15.255" gradientUnits="userSpaceOnUse">
<stop stop-color="#98C55F"/>
<stop offset="0.5" stop-color="#489744"/>
<stop offset="1" stop-color="#AED166"/>
</linearGradient>
<linearGradient id="paint7_linear_21_1925" x1="16" y1="16.0001" x2="21.4797" y2="16.3335" gradientUnits="userSpaceOnUse">
<stop/>
<stop offset="0.527254" stop-opacity="0"/>
<stop offset="1"/>
</linearGradient>
<linearGradient id="paint8_linear_21_1925" x1="34.9752" y1="17.5568" x2="29.5261" y2="14.6794" gradientUnits="userSpaceOnUse">
<stop stop-color="#25863A"/>
<stop offset="1" stop-color="#AED166"/>
</linearGradient>
<linearGradient id="paint9_linear_21_1925" x1="35.237" y1="17.8731" x2="29.7879" y2="14.9957" gradientUnits="userSpaceOnUse">
<stop stop-color="#25863A"/>
<stop offset="1" stop-color="#020300"/>
</linearGradient>
<linearGradient id="paint10_linear_21_1925" x1="8.65445" y1="31.1058" x2="16.2241" y2="31.1058" gradientUnits="userSpaceOnUse">
<stop offset="0.00558659" stop-color="#A65953"/>
<stop offset="1" stop-color="#D09270"/>
</linearGradient>
<linearGradient id="paint11_linear_21_1925" x1="12.4934" y1="27.9938" x2="14.8798" y2="21.9487" gradientUnits="userSpaceOnUse">
<stop offset="0.33858" stop-color="#061006"/>
<stop offset="1" stop-color="#25863A"/>
</linearGradient>
<linearGradient id="paint12_linear_21_1925" x1="13.8591" y1="35.6864" x2="11.5038" y2="23.9327" gradientUnits="userSpaceOnUse">
<stop stop-color="#061006"/>
<stop offset="1" stop-color="#25863A"/>
</linearGradient>
<linearGradient id="paint13_linear_21_1925" x1="13.834" y1="30.3159" x2="14.498" y2="25.4598" gradientUnits="userSpaceOnUse">
<stop stop-color="#25863A"/>
<stop offset="1" stop-color="#AED166"/>
</linearGradient>
<linearGradient id="paint14_linear_21_1925" x1="12.1471" y1="31.1442" x2="11.7517" y2="27.1344" gradientUnits="userSpaceOnUse">
<stop stop-color="#25863A"/>
<stop offset="1" stop-color="#AED166"/>
</linearGradient>
<linearGradient id="paint15_linear_21_1925" x1="10" y1="27.5005" x2="11.5" y2="27.0005" gradientUnits="userSpaceOnUse">
<stop/>
<stop offset="1" stop-opacity="0"/>
</linearGradient>
<linearGradient id="paint16_linear_21_1925" x1="38.5243" y1="9.73503" x2="36.0706" y2="31.19" gradientUnits="userSpaceOnUse">
<stop stop-color="#85BB59"/>
<stop offset="1" stop-color="#016B00"/>
</linearGradient>
<linearGradient id="paint17_linear_21_1925" x1="37.6373" y1="13.9557" x2="37.6236" y2="15.5923" gradientUnits="userSpaceOnUse">
<stop stop-color="#016B00"/>
<stop offset="1" stop-color="#85BB59"/>
</linearGradient>
<linearGradient id="paint18_linear_21_1925" x1="41.2072" y1="26.8282" x2="42.1307" y2="18.3955" gradientUnits="userSpaceOnUse">
<stop stop-color="#25863A"/>
<stop offset="1" stop-color="#020300"/>
</linearGradient>
<linearGradient id="paint19_linear_21_1925" x1="40.9769" y1="34.1828" x2="38.3006" y2="17.5296" gradientUnits="userSpaceOnUse">
<stop stop-color="#98C55F"/>
<stop offset="0.224714" stop-color="#489744"/>
<stop offset="0.464952" stop-color="#AED166"/>
<stop offset="0.692728" stop-color="#7AB354"/>
<stop offset="1" stop-color="#AED166"/>
</linearGradient>
<linearGradient id="paint20_linear_21_1925" x1="46" y1="21.9999" x2="39" y2="24.4999" gradientUnits="userSpaceOnUse">
<stop/>
<stop offset="0.139602" stop-opacity="0"/>
<stop offset="0.848783" stop-opacity="0"/>
<stop offset="1"/>
</linearGradient>
<linearGradient id="paint21_linear_21_1925" x1="40.9765" y1="34.1828" x2="38.3002" y2="17.5296" gradientUnits="userSpaceOnUse">
<stop stop-color="#98C55F"/>
<stop offset="0.224714" stop-color="#489744"/>
<stop offset="0.464952" stop-color="#AED166"/>
<stop offset="0.692728" stop-color="#7AB354"/>
<stop offset="1" stop-color="#AED166"/>
</linearGradient>
<linearGradient id="paint22_linear_21_1925" x1="31.7126" y1="30.4158" x2="32.1289" y2="23.1979" gradientUnits="userSpaceOnUse">
<stop stop-color="#25863A"/>
<stop offset="1" stop-color="#020300"/>
</linearGradient>
<linearGradient id="paint23_linear_21_1925" x1="31.2471" y1="34.3248" x2="32.9142" y2="21.6058" gradientUnits="userSpaceOnUse">
<stop stop-color="#98C55F"/>
<stop offset="0.224714" stop-color="#489744"/>
<stop offset="0.464952" stop-color="#AED166"/>
<stop offset="0.692728" stop-color="#7AB354"/>
<stop offset="1" stop-color="#AED166"/>
</linearGradient>
<linearGradient id="paint24_linear_21_1925" x1="27" y1="25.4998" x2="32.7909" y2="27.7448" gradientUnits="userSpaceOnUse">
<stop/>
<stop offset="0.139602" stop-opacity="0"/>
<stop offset="0.848783" stop-opacity="0"/>
<stop offset="1"/>
</linearGradient>
<linearGradient id="paint25_linear_21_1925" x1="31.7261" y1="34.2624" x2="33.8417" y2="22.1218" gradientUnits="userSpaceOnUse">
<stop stop-color="#98C55F"/>
<stop offset="0.177848" stop-color="#489744"/>
<stop offset="0.464332" stop-color="#AED166"/>
<stop offset="0.697907" stop-color="#7AB354"/>
<stop offset="0.857818" stop-color="#AED166"/>
</linearGradient>
<linearGradient id="paint26_linear_21_1925" x1="25.5261" y1="36.2786" x2="33.5591" y2="25.9026" gradientUnits="userSpaceOnUse">
<stop stop-color="#275F3D"/>
<stop offset="0.614357" stop-color="#6BE16F"/>
</linearGradient>
<linearGradient id="paint27_linear_21_1925" x1="22.3963" y1="35.0604" x2="30.3831" y2="30.914" gradientUnits="userSpaceOnUse">
<stop stop-color="#275F3D"/>
<stop offset="0.614357" stop-color="#6BE16F"/>
</linearGradient>
<linearGradient id="paint28_linear_21_1925" x1="16.358" y1="36.2786" x2="24.391" y2="25.9026" gradientUnits="userSpaceOnUse">
<stop stop-color="#275F3D"/>
<stop offset="0.614357" stop-color="#6BE16F"/>
</linearGradient>
<linearGradient id="paint29_linear_21_1925" x1="19.5024" y1="15.9385" x2="24.1884" y2="21.2938" gradientUnits="userSpaceOnUse">
<stop offset="0.485709" stop-color="#F5D107"/>
<stop offset="1" stop-color="#E68615"/>
</linearGradient>
<linearGradient id="paint30_linear_21_1925" x1="20.857" y1="38.2556" x2="27.6896" y2="38.2556" gradientUnits="userSpaceOnUse">
<stop offset="0.00558659" stop-color="#A65953"/>
<stop offset="1" stop-color="#D09270"/>
</linearGradient>
</defs>
</svg>
