<svg width="292" height="66" viewBox="0 0 292 66" fill="none" xmlns="http://www.w3.org/2000/svg">
<path d="M40.919 29.4139C41.5915 29.7982 42.168 26.5317 42.0239 30.855C42.0239 31.4315 41.6876 32.0079 40.9671 32.4403L23.7219 42.4319C22.2808 43.2485 19.927 43.2485 18.4859 42.4319L1.14463 32.4403C0.424079 32.0079 0.0878207 31.4795 0.039784 30.9031C-0.152363 26.1955 0.376039 29.7982 1.09659 29.3659L18.3418 19.3743C19.7829 18.5576 22.1367 18.5576 23.5778 19.3743L40.919 29.4139Z" fill="url(#paint0_linear_21_7427)"/>
<g filter="url(#filter0_i_21_7427)">
<path d="M40.9189 27.2542C42.36 28.0708 42.36 29.4639 40.9189 30.2805L23.6737 40.2722C22.2326 41.0888 19.8788 41.0888 18.4377 40.2722L1.09647 30.2805C-0.344633 29.4639 -0.344633 28.0708 1.09647 27.2542L18.3416 17.2626C19.7828 16.446 22.1365 16.446 23.5776 17.2626L40.9189 27.2542Z" fill="url(#paint1_linear_21_7427)"/>
</g>
<path d="M29.1896 29.6878C30.9284 28.4671 30.542 25.4156 28.8032 24.5001C25.9051 22.9743 23.3469 22.6811 22.3186 22.6811C20.719 22.6811 15.6653 23.5846 13.1536 25.4156C11.9944 26.331 11.608 27.8568 12.1876 29.3826C12.9604 30.9084 14.9079 32.1597 18.1924 33.0751C22.0565 33.6855 26.2915 31.8239 29.1896 29.6878Z" fill="url(#paint2_linear_21_7427)"/>
<path opacity="0.5" d="M12.5783 21.6957C13.8922 22.0242 16.865 22.6731 23.7468 27.2799C23.7468 27.2799 23.2275 28.5939 20.4537 28.5939C16.8486 28.5939 11.5928 24.9805 8.30795 23.3381L12.5783 21.6957Z" fill="url(#paint3_linear_21_7427)"/>
<ellipse opacity="0.3" cx="20.4619" cy="27.2799" rx="4.5988" ry="1.97091" fill="black" fill-opacity="0.5"/>
<g filter="url(#filter1_ii_21_7427)">
<path d="M18.9212 27.408C18.9212 16.7942 19.1328 11.8646 19.4481 9.41023H21.5557C21.8191 12.4099 22.0747 18.7159 22.0747 27.408C22.0747 27.408 21.8327 28.331 20.498 28.331C19.1632 28.331 18.9212 27.408 18.9212 27.408Z" fill="url(#paint4_linear_21_7427)"/>
<path d="M18.9212 27.408C18.9212 16.7942 19.1328 11.8646 19.4481 9.41023H21.5557C21.8191 12.4099 22.0747 18.7159 22.0747 27.408C22.0747 27.408 21.8327 28.331 20.498 28.331C19.1632 28.331 18.9212 27.408 18.9212 27.408Z" fill="black" fill-opacity="0.2"/>
</g>
<g filter="url(#filter2_i_21_7427)">
<ellipse cx="20.3661" cy="9.01624" rx="1.31394" ry="0.656971" fill="url(#paint5_linear_21_7427)"/>
</g>
<path d="M11.2513 30.2395C14.9316 29.9943 17.1677 29.5012 17.8257 29.2854L12.5918 24.6616L3.36934 29.8735C4.46324 30.0977 7.5711 30.4848 11.2513 30.2395Z" fill="url(#paint6_linear_21_7427)"/>
<path d="M29.5401 29.8136C25.1921 29.5398 22.5523 29.015 21.7759 28.7868L27.9872 23.9951L38.8571 29.2509C37.5631 29.479 33.888 30.0875 29.5401 29.8136Z" fill="url(#paint7_linear_21_7427)"/>
<g filter="url(#filter3_i_21_7427)">
<path d="M20.7721 10.9443C21.7655 10.4229 23.1109 9.66592 26.4518 9.41023C28.9019 9.66592 30.5943 11.0466 28.4561 11.4557C26.3178 11.8648 23.0143 14.2683 22.3461 18.6149C22.3461 18.6149 22.012 18.8706 21.1057 18.8706C20.0074 18.8706 19.005 18.6149 19.005 18.6149C19.005 14.7796 18.3368 12.2228 20.7721 10.9443Z" fill="url(#paint8_linear_21_7427)"/>
</g>
<g filter="url(#filter4_i_21_7427)">
<path d="M29.3612 9.52907C25.7188 8.98487 21.6004 10.4336 19.9731 11.3656C21.2874 11.2447 19.9731 13.104 19.9731 15.0675C19.9731 17.0789 21.0229 17.9556 21.587 19.3537C22.296 21.1107 22.6948 21.0097 23.1642 22.4709C23.5554 23.6886 24.7414 25.1879 27.8958 27.1468C32.6274 29.3822 34.994 29.3822 38.3737 29.3822C37.9982 28.2637 37.8847 26.207 37.8847 24.8089C37.8847 23.656 38.4367 22.3735 38.9361 20.5227C39.4619 18.5744 40.5884 16.0759 39.4619 14.6778C36.8427 11.4274 37.6377 10.7657 29.3612 9.52907Z" fill="url(#paint9_linear_21_7427)"/>
</g>
<mask id="mask0_21_7427" style="mask-type:alpha" maskUnits="userSpaceOnUse" x="19" y="9" width="20" height="21">
<path d="M29.6265 9.52904C25.8813 8.98498 21.6464 10.4333 19.9731 11.3652C21.3246 11.2443 23.0139 11.1215 24.3654 12.8259C26.103 15.0171 23.4483 17.077 23.8345 18.4747C24.2206 19.8725 26.0548 20.3736 26.5374 21.8344C26.9397 23.0518 25.3531 23.7933 26.5374 26.0226C28.4681 29.6567 35.4186 29.3772 38.8939 29.3772C38.5077 28.259 37.3493 26.5817 37.3493 25.1839C37.3493 24.0313 38.8939 22.668 38.5077 20.7111C38.1756 19.0278 36.9632 18.4747 35.8048 17.077C33.1116 13.8273 38.137 10.7653 29.6265 9.52904Z" fill="url(#paint10_linear_21_7427)"/>
</mask>
<g mask="url(#mask0_21_7427)">
<path opacity="0.75" d="M25.0607 2.97179C26.4841 2.8623 29.5281 3.23458 30.3165 5.59968C31.3019 8.55605 29.331 8.88432 29.988 12.4977C30.645 16.111 33.2728 14.4686 33.6013 18.0819C33.9298 21.6953 31.6304 22.6807 32.9444 24.6516C33.9955 26.2284 36.2292 27.7175 37.2147 28.265" stroke="#FFFF9E" stroke-miterlimit="10" stroke-linecap="round" stroke-linejoin="round"/>
<circle cx="32.8485" cy="27.7159" r="0.437952" fill="#FF1717" stroke="#FF9D0B" stroke-opacity="0.5" stroke-width="0.5"/>
<circle cx="35.7416" cy="16.7681" r="1.05115" fill="#E2833E" stroke="#FF9D0B" stroke-opacity="0.5" stroke-width="0.5"/>
<circle cx="27.5928" cy="12.8256" r="0.437952" fill="#FF1717" stroke="#FF9D0B" stroke-opacity="0.5" stroke-width="0.5"/>
<circle cx="35.4764" cy="21.5847" r="0.437952" fill="#151313" stroke="#FF9D0B" stroke-opacity="0.5" stroke-width="0.5"/>
<circle cx="28.3819" cy="23.0753" r="1.05115" fill="#393838" stroke="#FF9D0B" stroke-opacity="0.5" stroke-width="0.5"/>
<circle cx="30.4858" cy="14.6662" r="1.05115" fill="#FF1717" stroke="#FF9D0B" stroke-opacity="0.5" stroke-width="0.5"/>
<circle cx="30.2206" cy="25.0885" r="0.437952" fill="#FF1717" stroke="#FF9D0B" stroke-opacity="0.5" stroke-width="0.5"/>
<circle cx="32.5235" cy="19.1992" r="0.437952" transform="rotate(84.918 32.5235 19.1992)" fill="#FF1717" stroke="#FF9D0B" stroke-opacity="0.5" stroke-width="0.5"/>
<circle cx="30.2572" cy="17.2425" r="0.437952" transform="rotate(84.918 30.2572 17.2425)" fill="#FF1717" stroke="#FF9D0B" stroke-opacity="0.5" stroke-width="0.5"/>
<circle cx="25.0018" cy="13.7127" r="0.437952" transform="rotate(84.918 25.0018 13.7127)" fill="#FF1717" stroke="#FF9D0B" stroke-opacity="0.5" stroke-width="0.5"/>
<circle cx="27.5928" cy="16.3294" r="0.437952" fill="#FF1717" stroke="#FF9D0B" stroke-opacity="0.5" stroke-width="0.5"/>
<circle cx="25.8408" cy="9.32221" r="0.437952" fill="#FF1717" stroke="#FF9D0B" stroke-opacity="0.5" stroke-width="0.5"/>
<circle cx="26.7168" cy="18.9568" r="0.437952" fill="#FF1717" stroke="#FF9D0B" stroke-opacity="0.5" stroke-width="0.5"/>
<circle cx="33.1133" cy="10.987" r="1.57673" fill="#FF1717" stroke="#FF9D0B" stroke-opacity="0.5" stroke-width="0.5"/>
<circle cx="28.5054" cy="10.2093" r="0.437952" transform="rotate(84.918 28.5054 10.2093)" fill="#FF1717" stroke="#FF9D0B" stroke-opacity="0.5" stroke-width="0.5"/>
<circle cx="32.8485" cy="13.7015" r="0.437952" fill="#FF1717" stroke="#FF9D0B" stroke-opacity="0.5" stroke-width="0.5"/>
<circle cx="31.9726" cy="22.4607" r="0.437952" fill="#FF1717" stroke="#FF9D0B" stroke-opacity="0.5" stroke-width="0.5"/>
<circle cx="34.6004" cy="24.2126" r="0.437952" fill="#FF1717" stroke="#FF9D0B" stroke-opacity="0.5" stroke-width="0.5"/>
<circle cx="36.389" cy="26.8771" r="0.437952" transform="rotate(84.918 36.389 26.8771)" fill="#FF1717" stroke="#FF9D0B" stroke-opacity="0.5" stroke-width="0.5"/>
<circle cx="37.2264" cy="21.5847" r="0.437952" fill="#FF1717" stroke="#FF9D0B" stroke-opacity="0.5" stroke-width="0.5"/>
<circle cx="30.2206" cy="19.8328" r="0.437952" fill="#FF1717" stroke="#FF9D0B" stroke-opacity="0.5" stroke-width="0.5"/>
</g>
<g filter="url(#filter5_i_21_7427)">
<path d="M21.4453 13.4835C20.7884 12.4981 19.803 12.1696 18.1606 11.5126C15.7517 11.8411 10.8023 12.958 12.9046 13.4835C15.0069 14.0091 18.0656 16.4399 18.3941 22.0242C18.7226 22.2432 18.8636 23.0096 20.1315 23.0096C21.3505 23.0096 22.0074 22.3527 22.3359 22.0242C22.3359 17.0969 22.2336 14.2719 21.4453 13.4835Z" fill="url(#paint11_linear_21_7427)"/>
</g>
<g filter="url(#filter6_i_21_7427)">
<path d="M11.9193 9.54156C15.7204 9.36607 18.8332 11.6411 20.46 12.5285C19.4745 12.4804 19.6928 13.6943 19.9712 15.1917C20.46 17.8195 20.4968 17.0665 19.9712 19.3963C19.4457 21.7261 18.9383 22.2415 18.3945 23.6009C17.7375 25.2433 17.9692 25.1569 16.8178 27.2799C14.9407 30.7408 6.75742 29.9334 3.37871 29.9334C3.75412 28.8685 4.88036 27.2712 4.88036 25.9401C4.88036 24.8425 4.59721 23.899 4.20393 22.0241C3.71521 19.6943 4.2578 17.6923 4.69265 16.2428C5.67811 12.9579 7.32054 9.75387 11.9193 9.54156Z" fill="url(#paint12_linear_21_7427)"/>
</g>
<mask id="mask1_21_7427" style="mask-type:alpha" maskUnits="userSpaceOnUse" x="3" y="9" width="18" height="21">
<path d="M11.9193 9.54156C15.7204 9.36607 18.8332 11.6411 20.46 12.5285C19.4745 12.4804 18.6023 12.5285 17.8321 13.8424C16.7179 15.743 17.5505 18.0956 17.1751 19.4267C16.7997 20.7578 15.9357 21.3521 15.3919 22.7115C14.7349 24.354 16.5433 24.6158 15.3919 26.7388C13.5148 30.1996 6.75742 29.9334 3.37871 29.9334C3.75412 28.8685 4.88036 27.2712 4.88036 25.9401C4.88036 24.8425 4.31724 23.5896 4.69265 21.7261C5.01559 20.123 6.88568 18.9053 7.32054 17.4558C8.30599 14.1709 7.32054 9.75387 11.9193 9.54156Z" fill="url(#paint13_linear_21_7427)"/>
</mask>
<g mask="url(#mask1_21_7427)">
<path opacity="0.75" d="M17.1753 10.8558C15.9709 10.6368 13.2992 10.6587 12.2481 12.4982C10.9341 14.7976 12.5765 16.4399 11.9196 17.7538C11.2626 19.0678 9.94842 20.3817 9.29145 22.3526C8.63448 24.3235 9.61993 25.309 8.96296 26.2945C8.43739 27.0828 5.8971 28.5939 4.69265 29.2508" stroke="#FFFF9E" stroke-miterlimit="10" stroke-linecap="round" stroke-linejoin="round"/>
<circle cx="10.9495" cy="27.7159" r="0.437952" fill="#FF1717" stroke="#FF9D0B" stroke-opacity="0.5" stroke-width="0.5"/>
<circle cx="5.69372" cy="27.7159" r="0.437952" fill="#FF1717" stroke="#FF9D0B" stroke-opacity="0.5" stroke-width="0.5"/>
<circle cx="10.0735" cy="13.7015" r="0.437952" fill="#FF1717" stroke="#FF9D0B" stroke-opacity="0.5" stroke-width="0.5"/>
<circle cx="10.0735" cy="16.3294" r="0.437952" fill="#4B3F3F" stroke="#FF9D0B" stroke-opacity="0.5" stroke-width="0.5"/>
<circle cx="15.3273" cy="19.8328" r="0.437952" fill="#FF1717" stroke="#FF9D0B" stroke-opacity="0.5" stroke-width="0.5"/>
<circle cx="10.9495" cy="22.4607" r="0.437952" fill="#FF1717" stroke="#FF9D0B" stroke-opacity="0.5" stroke-width="0.5"/>
<circle cx="7.44564" cy="19.8328" r="0.437952" fill="#FF1717" stroke="#FF9D0B" stroke-opacity="0.5" stroke-width="0.5"/>
<circle cx="10.9495" cy="11.0741" r="0.437952" fill="#FF1717" stroke="#FF9D0B" stroke-opacity="0.5" stroke-width="0.5"/>
<circle cx="17.0793" cy="12.8256" r="0.437952" fill="#3C3A3A" stroke="#FF9D0B" stroke-opacity="0.5" stroke-width="0.5"/>
<circle cx="11.8254" cy="25.0885" r="0.437952" fill="#FF1717" stroke="#FF9D0B" stroke-opacity="0.5" stroke-width="0.5"/>
<circle cx="14.4533" cy="24.2126" r="0.437952" fill="#FF1717" stroke="#FF9D0B" stroke-opacity="0.5" stroke-width="0.5"/>
<circle cx="7.48225" cy="25.1256" r="0.437952" transform="rotate(84.918 7.48225 25.1256)" fill="#FF1717" stroke="#FF9D0B" stroke-opacity="0.5" stroke-width="0.5"/>
<circle cx="16.2033" cy="24.2126" r="0.437952" fill="#FF1717" stroke="#FF9D0B" stroke-opacity="0.5" stroke-width="0.5"/>
<circle cx="6.56968" cy="22.4607" r="0.437952" fill="#FF1717" stroke="#FF9D0B" stroke-opacity="0.5" stroke-width="0.5"/>
<circle cx="16.2033" cy="15.4535" r="0.437952" fill="#FF1717" stroke="#FF9D0B" stroke-opacity="0.5" stroke-width="0.5"/>
<circle cx="18.8312" cy="17.2054" r="0.437952" fill="#FF1717" stroke="#FF9D0B" stroke-opacity="0.5" stroke-width="0.5"/>
<circle cx="14.0458" cy="16.7024" r="0.83691" transform="rotate(84.918 14.0458 16.7024)" fill="#FF1717" stroke="#FF9D0B" stroke-opacity="0.5" stroke-width="0.5"/>
<circle cx="14.4533" cy="11.9496" r="0.437952" fill="#FF1717" stroke="#FF9D0B" stroke-opacity="0.5" stroke-width="0.5"/>
<circle cx="10.0735" cy="18.9573" r="0.437952" fill="#FF1717" stroke="#FF9D0B" stroke-opacity="0.5" stroke-width="0.5"/>
</g>
<path opacity="0.8" d="M107.655 63.0692L110.25 54.66H111.271L108.664 63.0692H107.655ZM102.537 63.0692L99.9665 54.66H100.988L103.534 63.0692H102.537ZM102.645 63.0692L105.12 54.66H106.093L103.618 63.0692H102.645ZM107.571 63.0692L105.156 54.66H106.129L108.58 63.0692H107.571ZM112.231 63.0692V54.5038H113.193V63.0692H112.231ZM116.46 63.0692V59.9938L117.421 59.6335V63.0692H116.46ZM116.46 59.9938C116.46 59.4012 116.388 58.9487 116.244 58.6364C116.108 58.324 115.92 58.1118 115.679 57.9997C115.439 57.8795 115.167 57.8195 114.862 57.8195C114.334 57.8195 113.921 58.0077 113.625 58.3841C113.337 58.7525 113.193 59.2771 113.193 59.9578H112.724C112.724 59.3251 112.816 58.7805 113 58.324C113.185 57.8675 113.453 57.5191 113.805 57.2789C114.158 57.0386 114.582 56.9185 115.079 56.9185C115.799 56.9185 116.372 57.1427 116.796 57.5912C117.221 58.0397 117.429 58.7205 117.421 59.6335L116.46 59.9938ZM118.99 63.0692L119.014 57.0626H119.975L119.951 63.0692H118.99ZM119.483 55.6691C119.323 55.6691 119.182 55.609 119.062 55.4889C118.942 55.3688 118.882 55.2286 118.882 55.0684C118.882 54.9003 118.942 54.7601 119.062 54.648C119.182 54.5278 119.323 54.4678 119.483 54.4678C119.651 54.4678 119.791 54.5278 119.903 54.648C120.023 54.7601 120.083 54.9003 120.083 55.0684C120.083 55.2286 120.023 55.3688 119.903 55.4889C119.791 55.609 119.651 55.6691 119.483 55.6691ZM124.101 63.2134C123.516 63.2134 123.064 63.0612 122.743 62.7569C122.423 62.4525 122.263 62.0241 122.263 61.4715V55.1886H123.224V61.3754C123.224 61.6797 123.304 61.916 123.464 62.0841C123.632 62.2443 123.865 62.3244 124.161 62.3244C124.257 62.3244 124.349 62.3124 124.437 62.2884C124.533 62.2563 124.658 62.1843 124.81 62.0721L125.182 62.853C124.974 62.9891 124.786 63.0812 124.618 63.1293C124.449 63.1854 124.277 63.2134 124.101 63.2134ZM121.218 57.9156V57.0626H125.026V57.9156H121.218ZM129 63.2134C128.415 63.2134 127.898 63.0812 127.45 62.8169C127.009 62.5446 126.661 62.1722 126.405 61.6997C126.148 61.2272 126.02 60.6826 126.02 60.0659C126.02 59.4493 126.144 58.9047 126.393 58.4321C126.649 57.9596 127.001 57.5912 127.45 57.3269C127.898 57.0546 128.407 56.9185 128.975 56.9185C129.536 56.9185 130.021 57.0586 130.429 57.3389C130.838 57.6112 131.154 57.9957 131.378 58.4922C131.602 58.9887 131.715 59.5734 131.715 60.2461H130.753C130.753 59.7336 130.685 59.2971 130.549 58.9367C130.413 58.5683 130.213 58.284 129.949 58.0838C129.684 57.8835 129.356 57.7834 128.963 57.7834C128.571 57.7834 128.227 57.8795 127.93 58.0717C127.642 58.2559 127.418 58.5202 127.258 58.8646C127.097 59.209 127.017 59.6134 127.017 60.0779C127.017 60.5344 127.105 60.9309 127.282 61.2672C127.458 61.5956 127.698 61.8559 128.002 62.0481C128.307 62.2323 128.655 62.3244 129.048 62.3244C129.472 62.3244 129.828 62.2243 130.117 62.0241C130.405 61.8239 130.629 61.5636 130.789 61.2432L131.642 61.6637C131.482 61.976 131.274 62.2483 131.018 62.4806C130.769 62.7128 130.477 62.893 130.141 63.0212C129.804 63.1493 129.424 63.2134 129 63.2134ZM126.669 60.2461V59.4172H131.126V60.2461H126.669ZM135.929 63.0692V57.0626H136.83L136.89 58.1678V63.0692H135.929ZM140.146 63.0692V59.9938L141.107 59.6335V63.0692H140.146ZM144.375 63.0692V59.9938L145.336 59.6335V63.0692H144.375ZM140.146 59.9938C140.146 59.4012 140.078 58.9487 139.942 58.6364C139.806 58.324 139.617 58.1118 139.377 57.9997C139.137 57.8795 138.865 57.8195 138.56 57.8195C138.032 57.8195 137.619 58.0077 137.323 58.3841C137.035 58.7525 136.89 59.2771 136.89 59.9578H136.422C136.422 59.3251 136.514 58.7805 136.698 58.324C136.882 57.8675 137.147 57.5191 137.491 57.2789C137.843 57.0386 138.268 56.9185 138.764 56.9185C139.493 56.9185 140.066 57.1427 140.482 57.5912C140.907 58.0397 141.115 58.7205 141.107 59.6335L140.146 59.9938ZM144.375 59.9938C144.375 59.4012 144.303 58.9487 144.158 58.6364C144.022 58.324 143.834 58.1118 143.594 57.9997C143.353 57.8795 143.081 57.8195 142.777 57.8195C142.248 57.8195 141.836 58.0077 141.54 58.3841C141.251 58.7525 141.107 59.2771 141.107 59.9578H140.639C140.639 59.3251 140.731 58.7805 140.915 58.324C141.099 57.8675 141.367 57.5191 141.72 57.2789C142.072 57.0386 142.497 56.9185 142.993 56.9185C143.714 56.9185 144.283 57.1427 144.699 57.5912C145.123 58.0397 145.336 58.7205 145.336 59.6335L144.375 59.9938ZM149.542 63.2134C148.958 63.2134 148.437 63.0812 147.981 62.8169C147.524 62.5446 147.168 62.1722 146.912 61.6997C146.655 61.2272 146.527 60.6826 146.527 60.0659C146.527 59.4493 146.651 58.9047 146.9 58.4321C147.156 57.9596 147.512 57.5912 147.969 57.3269C148.425 57.0546 148.942 56.9185 149.518 56.9185C150.111 56.9185 150.632 57.0546 151.08 57.3269C151.537 57.5912 151.889 57.9596 152.137 58.4321C152.394 58.9047 152.522 59.4493 152.522 60.0659C152.522 60.6826 152.394 61.2272 152.137 61.6997C151.889 62.1722 151.541 62.5446 151.092 62.8169C150.644 63.0812 150.127 63.2134 149.542 63.2134ZM149.542 62.3004C149.935 62.3004 150.279 62.2083 150.576 62.0241C150.872 61.8319 151.104 61.5676 151.272 61.2312C151.441 60.8948 151.525 60.5064 151.525 60.0659C151.525 59.6254 151.437 59.237 151.26 58.9006C151.092 58.5643 150.856 58.304 150.552 58.1198C150.255 57.9276 149.911 57.8315 149.518 57.8315C149.126 57.8315 148.782 57.9276 148.485 58.1198C148.189 58.304 147.953 58.5643 147.777 58.9006C147.608 59.237 147.524 59.6254 147.524 60.0659C147.524 60.5064 147.608 60.8948 147.777 61.2312C147.953 61.5676 148.193 61.8319 148.497 62.0241C148.802 62.2083 149.15 62.3004 149.542 62.3004ZM153.879 63.0692L153.903 54.66H154.864L154.84 63.0692H153.879ZM160.987 63.0692L160.939 61.952V54.66H161.9V63.0692H160.987ZM158.908 63.2134C158.372 63.2134 157.899 63.0812 157.491 62.8169C157.082 62.5527 156.762 62.1843 156.53 61.7117C156.306 61.2312 156.193 60.6826 156.193 60.0659C156.193 59.4412 156.306 58.8926 156.53 58.4201C156.762 57.9476 157.082 57.5792 157.491 57.3149C157.899 57.0506 158.372 56.9185 158.908 56.9185C159.413 56.9185 159.853 57.0506 160.23 57.3149C160.614 57.5792 160.911 57.9476 161.119 58.4201C161.327 58.8926 161.431 59.4412 161.431 60.0659C161.431 60.6826 161.327 61.2312 161.119 61.7117C160.911 62.1843 160.614 62.5527 160.23 62.8169C159.853 63.0812 159.413 63.2134 158.908 63.2134ZM159.125 62.3364C159.477 62.3364 159.789 62.2403 160.062 62.0481C160.334 61.8559 160.546 61.5876 160.698 61.2432C160.859 60.8988 160.939 60.5064 160.939 60.0659C160.939 59.6254 160.859 59.233 160.698 58.8886C160.546 58.5443 160.334 58.276 160.062 58.0838C159.789 57.8915 159.473 57.7954 159.113 57.7954C158.736 57.7954 158.4 57.8915 158.104 58.0838C157.815 58.276 157.587 58.5443 157.419 58.8886C157.251 59.233 157.167 59.6254 157.167 60.0659C157.167 60.5064 157.251 60.8988 157.419 61.2432C157.587 61.5876 157.819 61.8559 158.116 62.0481C158.412 62.2403 158.748 62.3364 159.125 62.3364Z" fill="black"/>
<path d="M151.043 28.4146C151.715 28.7989 152.292 25.5322 152.148 29.8558C152.148 30.4323 151.812 31.0088 151.091 31.4411L133.844 41.4335C132.403 42.2502 130.049 42.2502 128.608 41.4335L111.266 31.4411C110.545 31.0088 110.209 30.4803 110.161 29.9038C109.968 25.1959 110.497 28.7989 111.218 28.3666L128.464 18.3742C129.905 17.5575 132.259 17.5575 133.7 18.3742L151.043 28.4146Z" fill="url(#paint14_linear_21_7427)"/>
<g filter="url(#filter7_i_21_7427)">
<path d="M151.042 26.2549C152.484 27.0715 152.484 28.4647 151.042 29.2814L133.796 39.2738C132.355 40.0904 130.001 40.0904 128.56 39.2738L111.217 29.2814C109.776 28.4647 109.776 27.0715 111.217 26.2549L128.464 16.2625C129.905 15.4458 132.259 15.4458 133.7 16.2625L151.042 26.2549Z" fill="url(#paint15_linear_21_7427)"/>
</g>
<ellipse opacity="0.3" cx="131.635" cy="29.4343" rx="4.59913" ry="1.97106" fill="black" fill-opacity="0.5"/>
<path d="M130.017 26.8257C128.483 28.6353 124.078 29.3492 120.551 29.0061C120.021 28.9546 119.32 29.1821 118.989 28.7651C118.797 28.5235 118.989 27.8703 118.989 27.8703C118.989 27.8703 119.441 25.3496 121.574 24.5914C123.542 23.8923 124.264 22.5992 124.788 21.8366C126.415 19.4698 126.879 21.0377 128.361 19.2893C130.142 17.189 130.239 15.843 131.46 14.476C132.681 13.109 135.403 12.7036 136.657 12.0214C137.66 11.4757 138.915 9.36014 139.15 9.00947C139.263 10.8559 138.454 16.1239 137.776 17.3867C136.929 18.9652 136.371 19.043 135.775 19.6739C135.179 20.3047 135.134 22.0956 134.053 22.9362C132.7 23.9876 132.113 23.7749 131.416 24.3792C130.72 24.9835 130.642 26.0895 130.017 26.8257Z" fill="url(#paint16_linear_21_7427)"/>
<path fill-rule="evenodd" clip-rule="evenodd" d="M137.277 11.8262C135.443 14.1188 135.245 13.5522 133.441 14.0031C132.692 14.1903 132.112 14.6598 131.601 15.3235C131.084 15.9956 130.665 16.8313 130.223 17.7162C129.773 18.6142 129.208 19.5206 128.634 20.2098C128.348 20.5537 128.048 20.856 127.75 21.0759C127.46 21.2893 127.121 21.4624 126.765 21.4624C126.508 21.4624 126.29 21.5761 126.002 21.9117C125.78 22.1707 125.561 22.5069 125.283 22.9345C125.178 23.0956 125.064 23.2696 124.939 23.4574C124.439 24.2068 123.703 24.6866 122.975 25.0784C122.712 25.2204 122.455 25.3484 122.206 25.4727C121.736 25.7077 121.292 25.9293 120.875 26.207C120.464 26.4812 120.179 26.9609 119.997 27.5039C119.816 28.0417 118.88 28.5854 118.88 28.9086C118.88 28.5019 118.952 27.8629 119.166 27.2254C119.378 26.593 119.75 25.9048 120.39 25.4781C120.85 25.1713 121.381 24.9053 121.882 24.6545C122.119 24.5362 122.348 24.4212 122.56 24.3071C123.256 23.9324 123.834 23.5361 124.21 22.9715C124.316 22.8126 124.418 22.656 124.517 22.504C124.809 22.0557 125.075 21.6478 125.337 21.3416C125.706 20.9107 126.146 20.5864 126.765 20.5864C126.846 20.5864 127 20.5405 127.23 20.3706C127.452 20.2073 127.7 19.962 127.961 19.649C128.482 19.0241 129.012 18.1784 129.439 17.3244L129.45 17.3031C129.88 16.4422 130.334 15.5347 130.907 14.7894C131.492 14.0296 132.225 13.4041 133.229 13.1532C134.929 12.7281 137.328 11.7494 139.029 9.19808L137.277 11.8262Z" fill="#4A9845" fill-opacity="0.1"/>
<path opacity="0.8" fill-rule="evenodd" clip-rule="evenodd" d="M138.586 14.5213L139.029 9.19819L137.721 14.3822L137.719 14.3922C137.651 14.8688 137.464 15.6641 137.126 16.4624C136.785 17.2674 136.312 18.0253 135.7 18.4839C134.758 19.1901 134.646 19.8906 134.398 20.5111C134.324 20.695 134.266 20.8632 134.211 21.0245C134.078 21.4093 133.959 21.7551 133.674 22.1829C133.317 22.7175 132.622 22.8087 132.077 23.0267L132.058 23.0343C131.512 23.2527 130.856 23.515 130.342 24.2855C130.211 24.4819 130.095 24.6681 129.984 24.8468C129.693 25.314 129.799 25.8744 129.393 26.2806C128.855 26.8183 127.806 27.61 126.327 28.0327C123.953 28.711 120.456 29.0509 119.318 28.9086C120.517 29.0585 123.795 29.6321 126.327 28.9088C127.913 28.4554 129.164 27.8234 129.831 27.1566C130.314 26.6735 130.464 25.736 130.771 25.2434C130.872 25.0802 130.971 24.9217 131.071 24.7714C131.428 24.2367 131.857 24.0581 132.403 23.8401L132.421 23.8325C132.968 23.6141 133.889 23.4392 134.403 22.6688C134.755 22.1404 134.927 21.6421 135.07 21.2269C135.119 21.0866 135.164 20.9558 135.211 20.8365C135.401 20.3619 135.415 19.7925 136.226 19.1847C137.016 18.592 137.565 17.6709 137.932 16.8041C138.301 15.9335 138.507 15.0671 138.586 14.5213Z" fill="#4A9845"/>
<path d="M138.909 30.9487C138.357 32.8027 135.304 34.7802 132.558 35.6812C132.146 35.8165 131.697 36.2162 131.314 36.0135C131.091 35.8961 131.02 35.3456 131.02 35.3456C131.02 35.3456 130.531 33.3159 131.874 32.0504C133.113 30.8834 133.229 29.6812 133.37 28.9401C133.807 26.6403 134.668 27.6582 135.201 25.867C135.841 23.7152 135.472 22.6788 135.935 21.2581C136.398 19.8374 138.296 18.6421 139.008 17.7216C139.578 16.9852 139.821 14.9948 139.882 14.6557C140.571 15.9969 141.695 20.1942 141.603 21.359C141.489 22.815 141.098 23.0559 140.86 23.7224C140.622 24.3888 141.176 25.7401 140.645 26.7221C139.98 27.9506 139.472 27.9843 139.15 28.6639C138.829 29.3434 139.133 30.1945 138.909 30.9487Z" fill="url(#paint17_linear_21_7427)"/>
<path d="M138.909 30.9487C138.357 32.8027 135.304 34.7802 132.558 35.6812C132.146 35.8165 131.697 36.2162 131.314 36.0135C131.091 35.8961 131.02 35.3456 131.02 35.3456C131.02 35.3456 130.531 33.3159 131.874 32.0504C133.113 30.8834 133.229 29.6812 133.37 28.9401C133.807 26.6403 134.668 27.6582 135.201 25.867C135.841 23.7152 135.472 22.6788 135.935 21.2581C136.398 19.8374 138.296 18.6421 139.008 17.7216C139.578 16.9852 139.821 14.9948 139.882 14.6557C140.571 15.9969 141.695 20.1942 141.603 21.359C141.489 22.815 141.098 23.0559 140.86 23.7224C140.622 24.3888 141.176 25.7401 140.645 26.7221C139.98 27.9506 139.472 27.9843 139.15 28.6639C138.829 29.3434 139.133 30.1945 138.909 30.9487Z" fill="black" fill-opacity="0.2"/>
<path fill-rule="evenodd" clip-rule="evenodd" d="M139.407 17.3724C138.791 19.6851 138.457 19.3272 137.259 20.2554C136.761 20.6407 136.482 21.1814 136.319 21.8443C136.153 22.5154 136.114 23.2767 136.074 24.0823C136.034 24.8999 135.909 25.7617 135.707 26.4644C135.606 26.8151 135.481 27.1388 135.331 27.4009C135.185 27.6551 134.988 27.8956 134.722 28.0125C134.53 28.0968 134.405 28.2531 134.3 28.598C134.22 28.8641 134.167 29.1868 134.099 29.5974C134.073 29.752 134.046 29.9191 134.014 30.1004C133.887 30.8235 133.495 31.4231 133.08 31.9542C132.93 32.1467 132.78 32.3264 132.635 32.5008C132.361 32.8305 132.103 33.1415 131.883 33.4853C131.666 33.8249 131.61 34.2766 131.652 34.7416C131.694 35.2022 131.174 35.9149 131.28 36.1562C131.147 35.8525 130.991 35.3521 130.941 34.8061C130.892 34.2646 130.943 33.6291 131.281 33.1007C131.524 32.7209 131.833 32.3479 132.125 31.9965C132.263 31.8306 132.396 31.6695 132.517 31.5148C132.914 31.0069 133.215 30.5216 133.311 29.9767C133.337 29.8234 133.362 29.673 133.386 29.5272C133.457 29.0968 133.522 28.7053 133.617 28.3906C133.751 27.9479 133.973 27.5618 134.435 27.3587C134.496 27.332 134.595 27.2474 134.712 27.045C134.823 26.8504 134.928 26.5858 135.02 26.2666C135.204 25.6294 135.322 24.8244 135.361 24.0469L135.362 24.0275C135.401 23.2438 135.442 22.4177 135.625 21.6734C135.812 20.9145 136.155 20.207 136.821 19.6907C137.951 18.8157 139.42 17.2983 139.853 14.8362L139.407 17.3724Z" fill="#4A9845" fill-opacity="0.1"/>
<path opacity="0.8" fill-rule="evenodd" clip-rule="evenodd" d="M141.268 18.9546L139.853 14.8363L140.577 19.1344L140.579 19.1424C140.684 19.5205 140.805 20.1756 140.815 20.8824C140.824 21.595 140.72 22.3158 140.414 22.8586C139.943 23.6946 140.089 24.2542 140.107 24.7988C140.112 24.9602 140.124 25.1047 140.136 25.2434C140.163 25.5741 140.187 25.8713 140.115 26.2841C140.024 26.8 139.535 27.0961 139.2 27.4376L139.188 27.4494C138.852 27.7916 138.449 28.2026 138.318 28.9461C138.285 29.1356 138.259 29.3127 138.235 29.4825C138.171 29.9267 138.434 30.3103 138.264 30.7466C138.039 31.3244 137.516 32.2592 136.55 33.06C135 34.345 132.502 35.7454 131.607 36.0125C132.55 35.7312 135.185 35.0842 136.837 33.7139C137.873 32.8552 138.599 31.9731 138.878 31.2568C139.08 30.7378 138.885 29.9887 138.952 29.5205C138.974 29.3654 138.996 29.2147 139.021 29.0697C139.112 28.5537 139.374 28.2794 139.71 27.9379L139.721 27.9261C140.057 27.5839 140.688 27.1512 140.818 26.4077C140.908 25.8977 140.873 25.4695 140.843 25.1126C140.834 24.992 140.824 24.8795 140.821 24.7748C140.807 24.3584 140.631 23.9287 141.036 23.2093C141.431 22.5078 141.539 21.6401 141.529 20.8728C141.519 20.102 141.388 19.3877 141.268 18.9546Z" fill="#4A9845"/>
<path d="M144.491 6.57215C145.107 6.63087 145.777 6.88807 145.936 7.54881C146.012 7.86299 145.944 8.19206 145.79 8.50885C145.636 8.82543 145.382 9.15895 145.033 9.50799C143.395 11.146 142.374 12.3465 141.878 12.9845L141.979 13.0695C141.536 13.4637 141.206 14.1824 140.977 14.8948C140.691 15.785 141.395 16.8222 141.595 17.7358C141.754 18.464 141.686 19.3508 141.582 19.9139C141.075 17.8452 140.795 17.7098 140.718 17.901C140.305 19.6037 139.397 20.3756 138.994 20.5484C140.235 18.1089 140.046 17.0773 139.797 16.8667C139.43 17.7872 138.532 18.3636 138.13 18.5365C139.394 17.0402 139.221 16.6372 139.508 15.0844C139.775 13.6325 140.814 12.682 141.168 12.4702C141.695 11.7888 142.75 10.551 144.413 8.88817C144.721 8.58044 144.905 8.32561 145.003 8.12562C145.1 7.92573 145.097 7.80953 145.084 7.75412C145.065 7.67574 144.941 7.49499 144.407 7.44421C143.706 7.37749 142.646 7.59521 141.574 8.15592L141.657 8.32212C141.095 8.50968 140.508 9.03967 140.016 9.6038C139.402 10.3088 139.641 11.5402 139.464 12.4585C139.322 13.1904 138.909 13.9784 138.592 14.4548C138.942 12.3528 138.738 12.1181 138.592 12.2639C137.54 13.6656 136.402 14.0159 135.964 14.0159C138.066 12.2639 138.3 11.242 138.154 10.95C137.453 11.6508 136.402 11.826 135.964 11.826C137.716 10.95 137.716 10.5121 138.592 9.19808C139.31 8.12067 140.422 7.63505 140.959 7.49407C142.227 6.78373 143.543 6.48202 144.491 6.57215Z" fill="#517031"/>
<g filter="url(#filter8_f_21_7427)">
<circle cx="125.89" cy="25.4049" r="0.876025" fill="white" fill-opacity="0.4"/>
</g>
<g filter="url(#filter9_f_21_7427)">
<circle cx="134.962" cy="31.0924" r="0.876025" transform="rotate(-25.3232 134.962 31.0924)" fill="white" fill-opacity="0.4"/>
</g>
<g filter="url(#filter10_f_21_7427)">
<circle cx="130.27" cy="19.2727" r="0.876025" fill="white"/>
</g>
<g filter="url(#filter11_f_21_7427)">
<circle cx="136.692" cy="25.6954" r="0.876025" transform="rotate(-25.3232 136.692 25.6954)" fill="white"/>
</g>
<g filter="url(#filter12_f_21_7427)">
<circle cx="133.774" cy="21.0246" r="0.876025" fill="white"/>
</g>
<g filter="url(#filter13_f_21_7427)">
<circle cx="139.32" cy="23.067" r="0.876025" transform="rotate(-25.3232 139.32 23.067)" fill="white"/>
</g>
<g filter="url(#filter14_f_21_7427)">
<circle cx="133.774" cy="15.7683" r="0.876025" fill="white"/>
</g>
<g filter="url(#filter15_f_21_7427)">
<ellipse cx="0.316993" cy="0.316993" rx="0.316993" ry="0.316993" transform="matrix(0.904903 -0.428193 -0.428193 -0.904903 137.549 20.9937)" fill="white"/>
</g>
<g filter="url(#filter16_f_21_7427)">
<circle cx="136.402" cy="15.7683" r="0.876025" fill="white"/>
</g>
<g filter="url(#filter17_f_21_7427)">
<circle cx="135.526" cy="17.5203" r="0.876025" fill="white"/>
</g>
<g filter="url(#filter18_f_21_7427)">
<circle cx="137.278" cy="22.7765" r="0.876025" fill="white"/>
</g>
<g filter="url(#filter19_f_21_7427)">
<circle cx="139.564" cy="18.0549" r="0.401171" transform="rotate(-25.3232 139.564 18.0549)" fill="white"/>
</g>
<g filter="url(#filter20_f_21_7427)">
<circle cx="129.394" cy="24.5289" r="0.876025" fill="white"/>
</g>
<g filter="url(#filter21_f_21_7427)">
<circle cx="137.568" cy="28.3233" r="0.876025" transform="rotate(-25.3232 137.568 28.3233)" fill="white"/>
</g>
<g filter="url(#filter22_f_21_7427)">
<circle cx="124.136" cy="25.4049" r="0.876025" fill="white"/>
</g>
<g filter="url(#filter23_f_21_7427)">
<circle cx="134.064" cy="32.7036" r="0.876025" transform="rotate(-25.3232 134.064 32.7036)" fill="white"/>
</g>
<g filter="url(#filter24_f_21_7427)">
<circle cx="126.766" cy="24.5289" r="0.876025" fill="white"/>
</g>
<g filter="url(#filter25_f_21_7427)">
<circle cx="135.38" cy="29.9256" r="0.876025" transform="rotate(-25.3232 135.38 29.9256)" fill="white"/>
</g>
<g filter="url(#filter26_f_21_7427)">
<circle cx="129.394" cy="22.7766" r="1.75205" fill="white" fill-opacity="0.4"/>
</g>
<g filter="url(#filter27_f_21_7427)">
<circle cx="136.107" cy="29.4898" r="1.75205" transform="rotate(-25.3232 136.107 29.4898)" fill="white" fill-opacity="0.4"/>
</g>
<g filter="url(#filter28_f_21_7427)">
<circle cx="132.898" cy="18.3963" r="1.75205" fill="white" fill-opacity="0.4"/>
</g>
<g filter="url(#filter29_f_21_7427)">
<circle cx="138.299" cy="24.388" r="1.75205" transform="rotate(-25.3232 138.299 24.388)" fill="white" fill-opacity="0.4"/>
</g>
<g filter="url(#filter30_f_21_7427)">
<circle cx="135.526" cy="14.8924" r="0.876025" fill="white" fill-opacity="0.4"/>
</g>
<g filter="url(#filter31_f_21_7427)">
<circle cx="139.177" cy="20.0965" r="0.876025" transform="rotate(-25.3232 139.177 20.0965)" fill="white" fill-opacity="0.4"/>
</g>
<path opacity="0.8" d="M199.644 63.0692V54.66H200.666V63.0692H199.644ZM200.569 59.3812V58.4562H204.173V59.3812H200.569ZM200.569 55.585V54.66H204.642V55.585H200.569ZM206.302 59.8137C206.302 59.1649 206.426 58.6404 206.675 58.2399C206.923 57.8315 207.239 57.5311 207.624 57.3389C208.016 57.1387 208.429 57.0386 208.861 57.0386V57.9396C208.509 57.9396 208.168 57.9997 207.84 58.1198C207.52 58.2319 207.255 58.4201 207.047 58.6844C206.839 58.9487 206.735 59.3091 206.735 59.7656L206.302 59.8137ZM205.774 63.0692V57.0626H206.735V63.0692H205.774ZM212.524 63.2134C211.939 63.2134 211.418 63.0812 210.962 62.8169C210.505 62.5446 210.149 62.1722 209.893 61.6997C209.637 61.2272 209.508 60.6826 209.508 60.0659C209.508 59.4493 209.633 58.9047 209.881 58.4321C210.137 57.9596 210.493 57.5912 210.95 57.3269C211.406 57.0546 211.923 56.9185 212.5 56.9185C213.092 56.9185 213.613 57.0546 214.061 57.3269C214.518 57.5912 214.87 57.9596 215.119 58.4321C215.375 58.9047 215.503 59.4493 215.503 60.0659C215.503 60.6826 215.375 61.2272 215.119 61.6997C214.87 62.1722 214.522 62.5446 214.073 62.8169C213.625 63.0812 213.108 63.2134 212.524 63.2134ZM212.524 62.3004C212.916 62.3004 213.26 62.2083 213.557 62.0241C213.853 61.8319 214.085 61.5676 214.254 61.2312C214.422 60.8948 214.506 60.5064 214.506 60.0659C214.506 59.6254 214.418 59.237 214.242 58.9006C214.073 58.5643 213.837 58.304 213.533 58.1198C213.236 57.9276 212.892 57.8315 212.5 57.8315C212.107 57.8315 211.763 57.9276 211.467 58.1198C211.17 58.304 210.934 58.5643 210.758 58.9006C210.59 59.237 210.505 59.6254 210.505 60.0659C210.505 60.5064 210.59 60.8948 210.758 61.2312C210.934 61.5676 211.174 61.8319 211.479 62.0241C211.783 62.2083 212.131 62.3004 212.524 62.3004ZM219.263 65.616C218.878 65.616 218.526 65.576 218.205 65.4959C217.893 65.4238 217.625 65.3397 217.401 65.2436C217.184 65.1555 217.028 65.0794 216.932 65.0154L217.292 64.2345C217.397 64.2906 217.545 64.3586 217.737 64.4387C217.929 64.5268 218.153 64.5989 218.41 64.655C218.674 64.719 218.954 64.7511 219.251 64.7511C219.635 64.7511 219.979 64.671 220.284 64.5108C220.596 64.3586 220.836 64.1144 221.005 63.778C221.181 63.4496 221.269 63.0252 221.269 62.5046V57.0626H222.23V62.4926C222.23 63.1813 222.102 63.758 221.845 64.2225C221.589 64.687 221.237 65.0354 220.788 65.2676C220.34 65.4999 219.831 65.616 219.263 65.616ZM219.227 63.0212C218.69 63.0212 218.217 62.893 217.809 62.6367C217.401 62.3805 217.08 62.0241 216.848 61.5676C216.624 61.1031 216.512 60.5745 216.512 59.9818C216.512 59.3732 216.624 58.8406 216.848 58.3841C217.08 57.9196 217.401 57.5592 217.809 57.3029C218.217 57.0466 218.69 56.9185 219.227 56.9185C219.731 56.9185 220.172 57.0466 220.548 57.3029C220.924 57.5592 221.217 57.9196 221.425 58.3841C221.641 58.8406 221.749 59.3732 221.749 59.9818C221.749 60.5825 221.641 61.1111 221.425 61.5676C221.217 62.0241 220.924 62.3805 220.548 62.6367C220.172 62.893 219.731 63.0212 219.227 63.0212ZM219.455 62.1923C219.807 62.1923 220.12 62.0962 220.392 61.9039C220.664 61.7117 220.876 61.4514 221.029 61.1231C221.181 60.7867 221.257 60.3983 221.257 59.9578C221.257 59.5333 221.177 59.1569 221.017 58.8286C220.864 58.4922 220.652 58.2319 220.38 58.0477C220.116 57.8555 219.803 57.7594 219.443 57.7594C219.066 57.7594 218.73 57.8555 218.434 58.0477C218.145 58.2319 217.917 58.4922 217.749 58.8286C217.589 59.1569 217.509 59.5333 217.509 59.9578C217.509 60.3983 217.593 60.7867 217.761 61.1231C217.929 61.4514 218.157 61.7117 218.446 61.9039C218.742 62.0962 219.078 62.1923 219.455 62.1923ZM226.413 63.2134C225.828 63.2134 225.312 63.0812 224.863 62.8169C224.423 62.5446 224.075 62.1722 223.818 61.6997C223.562 61.2272 223.434 60.6826 223.434 60.0659C223.434 59.4493 223.558 58.9047 223.806 58.4321C224.063 57.9596 224.415 57.5912 224.863 57.3269C225.312 57.0546 225.82 56.9185 226.389 56.9185C226.95 56.9185 227.434 57.0586 227.843 57.3389C228.251 57.6112 228.567 57.9957 228.792 58.4922C229.016 58.9887 229.128 59.5734 229.128 60.2461H228.167C228.167 59.7336 228.099 59.2971 227.963 58.9367C227.827 58.5683 227.626 58.284 227.362 58.0838C227.098 57.8835 226.769 57.7834 226.377 57.7834C225.985 57.7834 225.64 57.8795 225.344 58.0717C225.056 58.2559 224.831 58.5202 224.671 58.8646C224.511 59.209 224.431 59.6134 224.431 60.0779C224.431 60.5344 224.519 60.9309 224.695 61.2672C224.871 61.5956 225.112 61.8559 225.416 62.0481C225.72 62.2323 226.069 62.3244 226.461 62.3244C226.886 62.3244 227.242 62.2243 227.53 62.0241C227.819 61.8239 228.043 61.5636 228.203 61.2432L229.056 61.6637C228.896 61.976 228.688 62.2483 228.431 62.4806C228.183 62.7128 227.891 62.893 227.554 63.0212C227.218 63.1493 226.838 63.2134 226.413 63.2134ZM224.083 60.2461V59.4172H228.539V60.2461H224.083ZM230.763 65.616C230.611 65.616 230.435 65.584 230.234 65.5199C230.034 65.4639 229.822 65.3878 229.598 65.2917L229.958 64.4868C230.142 64.5669 230.302 64.6269 230.439 64.667C230.583 64.707 230.695 64.727 230.775 64.727C230.991 64.727 231.167 64.667 231.303 64.5468C231.448 64.4347 231.568 64.2705 231.664 64.0543L232.349 62.4205L234.571 57.0626H235.604L232.721 63.9101C232.569 64.2625 232.409 64.5669 232.241 64.8231C232.08 65.0794 231.884 65.2756 231.652 65.4118C231.42 65.5479 231.123 65.616 230.763 65.616ZM232.084 63.0692L229.489 57.0626H230.511L232.745 62.4085L233.033 63.0692H232.084ZM239.06 63.2134C238.475 63.2134 237.959 63.0812 237.51 62.8169C237.07 62.5446 236.721 62.1722 236.465 61.6997C236.209 61.2272 236.081 60.6826 236.081 60.0659C236.081 59.4493 236.205 58.9047 236.453 58.4321C236.709 57.9596 237.062 57.5912 237.51 57.3269C237.959 57.0546 238.467 56.9185 239.036 56.9185C239.596 56.9185 240.081 57.0586 240.489 57.3389C240.898 57.6112 241.214 57.9957 241.438 58.4922C241.663 58.9887 241.775 59.5734 241.775 60.2461H240.814C240.814 59.7336 240.746 59.2971 240.609 58.9367C240.473 58.5683 240.273 58.284 240.009 58.0838C239.745 57.8835 239.416 57.7834 239.024 57.7834C238.631 57.7834 238.287 57.8795 237.991 58.0717C237.702 58.2559 237.478 58.5202 237.318 58.8646C237.158 59.209 237.078 59.6134 237.078 60.0779C237.078 60.5344 237.166 60.9309 237.342 61.2672C237.518 61.5956 237.758 61.8559 238.063 62.0481C238.367 62.2323 238.715 62.3244 239.108 62.3244C239.532 62.3244 239.889 62.2243 240.177 62.0241C240.465 61.8239 240.69 61.5636 240.85 61.2432L241.703 61.6637C241.543 61.976 241.334 62.2483 241.078 62.4806C240.83 62.7128 240.537 62.893 240.201 63.0212C239.865 63.1493 239.484 63.2134 239.06 63.2134ZM236.729 60.2461V59.4172H241.186V60.2461H236.729ZM245.99 63.0692L246.014 54.66H246.975L246.951 63.0692H245.99ZM251.308 63.2134C250.723 63.2134 250.206 63.0812 249.758 62.8169C249.317 62.5446 248.969 62.1722 248.713 61.6997C248.456 61.2272 248.328 60.6826 248.328 60.0659C248.328 59.4493 248.452 58.9047 248.701 58.4321C248.957 57.9596 249.309 57.5912 249.758 57.3269C250.206 57.0546 250.715 56.9185 251.284 56.9185C251.844 56.9185 252.329 57.0586 252.737 57.3389C253.146 57.6112 253.462 57.9957 253.686 58.4922C253.91 58.9887 254.023 59.5734 254.023 60.2461H253.062C253.062 59.7336 252.993 59.2971 252.857 58.9367C252.721 58.5683 252.521 58.284 252.257 58.0838C251.992 57.8835 251.664 57.7834 251.272 57.7834C250.879 57.7834 250.535 57.8795 250.238 58.0717C249.95 58.2559 249.726 58.5202 249.566 58.8646C249.406 59.209 249.325 59.6134 249.325 60.0779C249.325 60.5344 249.414 60.9309 249.59 61.2672C249.766 61.5956 250.006 61.8559 250.311 62.0481C250.615 62.2323 250.963 62.3244 251.356 62.3244C251.78 62.3244 252.137 62.2243 252.425 62.0241C252.713 61.8239 252.937 61.5636 253.098 61.2432L253.95 61.6637C253.79 61.976 253.582 62.2483 253.326 62.4806C253.078 62.7128 252.785 62.893 252.449 63.0212C252.112 63.1493 251.732 63.2134 251.308 63.2134ZM248.977 60.2461V59.4172H253.434V60.2461H248.977ZM259.029 63.0692L258.933 59.8977C258.917 59.4252 258.857 59.0368 258.753 58.7325C258.649 58.4201 258.489 58.1879 258.273 58.0357C258.056 57.8755 257.768 57.7954 257.408 57.7954C257.063 57.7954 256.763 57.8635 256.507 57.9997C256.258 58.1358 256.054 58.348 255.894 58.6364L255.041 58.288C255.193 58.0077 255.381 57.7674 255.606 57.5672C255.83 57.359 256.094 57.1988 256.399 57.0867C256.703 56.9745 257.043 56.9185 257.42 56.9185C257.972 56.9185 258.433 57.0266 258.801 57.2428C259.17 57.4591 259.442 57.7834 259.618 58.2159C259.802 58.6404 259.894 59.1729 259.894 59.8137V63.0692H259.029ZM257.203 63.2134C256.491 63.2134 255.934 63.0532 255.534 62.7329C255.141 62.4045 254.945 61.952 254.945 61.3754C254.945 60.7667 255.145 60.3022 255.546 59.9818C255.954 59.6535 256.523 59.4893 257.251 59.4893H259.366V60.2942H257.468C256.907 60.2942 256.507 60.3863 256.266 60.5705C256.034 60.7547 255.918 61.019 255.918 61.3634C255.918 61.6757 256.034 61.924 256.266 62.1082C256.499 62.2844 256.823 62.3725 257.239 62.3725C257.592 62.3725 257.896 62.2924 258.152 62.1322C258.409 61.972 258.605 61.7558 258.741 61.4835C258.877 61.2032 258.945 60.8868 258.945 60.5344H259.534C259.534 61.3513 259.334 62.0041 258.933 62.4926C258.533 62.9731 257.956 63.2134 257.203 63.2134ZM262.017 63.0692V56.3779C262.017 55.7532 262.162 55.2847 262.45 54.9723C262.746 54.652 263.195 54.4918 263.795 54.4918C263.955 54.4918 264.136 54.5198 264.336 54.5759C264.536 54.632 264.748 54.7121 264.973 54.8162L264.612 55.573C264.428 55.5009 264.272 55.4449 264.144 55.4048C264.016 55.3648 263.907 55.3447 263.819 55.3447C263.539 55.3447 263.327 55.4368 263.183 55.621C263.046 55.7972 262.978 56.0735 262.978 56.45V63.0692H262.017ZM260.912 57.8915V57.0626H264.72V57.8915H260.912ZM270.922 63.2134C270.481 63.2134 270.097 63.1493 269.768 63.0212C269.44 62.885 269.164 62.7088 268.939 62.4926C268.723 62.2764 268.567 62.0401 268.471 61.7838L269.312 61.4354C269.448 61.6997 269.652 61.916 269.925 62.0841C270.197 62.2523 270.497 62.3364 270.826 62.3364C271.202 62.3364 271.514 62.2643 271.763 62.1202C272.019 61.968 272.147 61.7598 272.147 61.4955C272.147 61.2472 272.051 61.047 271.859 60.8948C271.674 60.7427 271.402 60.6185 271.042 60.5224L270.465 60.3663C269.921 60.2221 269.496 60.0059 269.192 59.7175C268.887 59.4212 268.735 59.0889 268.735 58.7205C268.735 58.1518 268.919 57.7113 269.288 57.399C269.664 57.0786 270.221 56.9185 270.958 56.9185C271.31 56.9185 271.63 56.9705 271.919 57.0746C272.207 57.1788 272.455 57.3269 272.664 57.5191C272.872 57.7033 273.024 57.9236 273.12 58.1799L272.279 58.5523C272.175 58.28 272.003 58.0878 271.763 57.9756C271.522 57.8555 271.23 57.7954 270.886 57.7954C270.517 57.7954 270.229 57.8715 270.021 58.0237C269.812 58.1759 269.708 58.3921 269.708 58.6724C269.708 58.8326 269.792 58.9847 269.961 59.1289C270.137 59.265 270.393 59.3772 270.729 59.4653L271.33 59.6214C271.723 59.7175 272.051 59.8617 272.315 60.0539C272.579 60.2381 272.78 60.4503 272.916 60.6906C273.052 60.9309 273.12 61.1872 273.12 61.4595C273.12 61.8199 273.024 62.1322 272.832 62.3965C272.64 62.6608 272.379 62.865 272.051 63.0092C271.723 63.1453 271.346 63.2134 270.922 63.2134ZM274.475 65.4719V57.0626H275.376L275.436 58.1678V65.4719H274.475ZM277.467 63.2134C276.962 63.2134 276.518 63.0812 276.133 62.8169C275.757 62.5527 275.464 62.1843 275.256 61.7117C275.048 61.2312 274.944 60.6826 274.944 60.0659C274.944 59.4412 275.048 58.8926 275.256 58.4201C275.464 57.9476 275.757 57.5792 276.133 57.3149C276.518 57.0506 276.962 56.9185 277.467 56.9185C278.003 56.9185 278.476 57.0506 278.884 57.3149C279.293 57.5792 279.609 57.9476 279.833 58.4201C280.066 58.8926 280.182 59.4412 280.182 60.0659C280.182 60.6826 280.066 61.2312 279.833 61.7117C279.609 62.1843 279.293 62.5527 278.884 62.8169C278.476 63.0812 278.003 63.2134 277.467 63.2134ZM277.25 62.3364C277.627 62.3364 277.959 62.2403 278.248 62.0481C278.544 61.8559 278.776 61.5876 278.944 61.2432C279.12 60.8988 279.209 60.5064 279.209 60.0659C279.209 59.6254 279.125 59.233 278.956 58.8886C278.796 58.5443 278.568 58.276 278.272 58.0838C277.975 57.8915 277.639 57.7954 277.262 57.7954C276.91 57.7954 276.594 57.8915 276.313 58.0838C276.041 58.276 275.825 58.5443 275.665 58.8886C275.513 59.233 275.436 59.6254 275.436 60.0659C275.436 60.5064 275.513 60.8988 275.665 61.2432C275.825 61.5876 276.041 61.8559 276.313 62.0481C276.586 62.2403 276.898 62.3364 277.25 62.3364ZM284.204 63.2134C283.619 63.2134 283.099 63.0812 282.642 62.8169C282.186 62.5446 281.829 62.1722 281.573 61.6997C281.317 61.2272 281.189 60.6826 281.189 60.0659C281.189 59.4493 281.313 58.9047 281.561 58.4321C281.817 57.9596 282.174 57.5912 282.63 57.3269C283.087 57.0546 283.603 56.9185 284.18 56.9185C284.773 56.9185 285.293 57.0546 285.742 57.3269C286.198 57.5912 286.55 57.9596 286.799 58.4321C287.055 58.9047 287.183 59.4493 287.183 60.0659C287.183 60.6826 287.055 61.2272 286.799 61.6997C286.55 62.1722 286.202 62.5446 285.754 62.8169C285.305 63.0812 284.789 63.2134 284.204 63.2134ZM284.204 62.3004C284.596 62.3004 284.941 62.2083 285.237 62.0241C285.533 61.8319 285.766 61.5676 285.934 61.2312C286.102 60.8948 286.186 60.5064 286.186 60.0659C286.186 59.6254 286.098 59.237 285.922 58.9006C285.754 58.5643 285.517 58.304 285.213 58.1198C284.917 57.9276 284.572 57.8315 284.18 57.8315C283.787 57.8315 283.443 57.9276 283.147 58.1198C282.85 58.304 282.614 58.5643 282.438 58.9006C282.27 59.237 282.186 59.6254 282.186 60.0659C282.186 60.5064 282.27 60.8948 282.438 61.2312C282.614 61.5676 282.854 61.8319 283.159 62.0241C283.463 62.2083 283.811 62.3004 284.204 62.3004ZM290.919 63.2134C290.334 63.2134 289.882 63.0612 289.561 62.7569C289.241 62.4525 289.081 62.0241 289.081 61.4715V55.1886H290.042V61.3754C290.042 61.6797 290.122 61.916 290.282 62.0841C290.45 62.2443 290.683 62.3244 290.979 62.3244C291.075 62.3244 291.167 62.3124 291.255 62.2884C291.351 62.2563 291.475 62.1843 291.628 62.0721L292 62.853C291.792 62.9891 291.604 63.0812 291.435 63.1293C291.267 63.1854 291.095 63.2134 290.919 63.2134ZM288.036 57.9156V57.0626H291.844V57.9156H288.036Z" fill="black"/>
<path d="M265.165 28.4146C265.838 28.7989 266.414 25.5322 266.27 29.8558C266.27 30.4323 265.934 31.0088 265.213 31.4411L247.968 41.4335C246.527 42.2502 244.173 42.2502 242.732 41.4335L225.391 31.4411C224.67 31.0088 224.334 30.4803 224.286 29.9038C224.094 25.1959 224.622 28.7989 225.343 28.3666L242.588 18.3742C244.029 17.5575 246.383 17.5575 247.824 18.3742L265.165 28.4146Z" fill="url(#paint18_linear_21_7427)"/>
<g filter="url(#filter32_i_21_7427)">
<path d="M265.165 26.2549C266.606 27.0715 266.606 28.4647 265.165 29.2814L247.92 39.2738C246.479 40.0904 244.125 40.0904 242.684 39.2738L225.343 29.2814C223.901 28.4647 223.901 27.0715 225.343 26.2549L242.588 16.2625C244.029 15.4458 246.383 15.4458 247.824 16.2625L265.165 26.2549Z" fill="url(#paint19_linear_21_7427)"/>
</g>
<path d="M253.436 28.6886C255.175 27.4679 254.788 24.4161 253.049 23.5006C250.151 21.9747 247.593 21.6815 246.565 21.6815C244.965 21.6815 239.911 22.5851 237.4 24.4161C236.241 25.3317 235.854 26.8576 236.434 28.3835C237.207 29.9094 239.154 31.1607 242.439 32.0763C246.303 32.6866 250.538 30.8249 253.436 28.6886Z" fill="url(#paint20_linear_21_7427)"/>
<path opacity="0.5" d="M236.824 20.6961C238.138 21.0246 241.111 21.6736 247.993 26.2807C247.993 26.2807 247.474 27.5948 244.7 27.5948C241.095 27.5948 235.839 23.9811 232.554 22.3386L236.824 20.6961Z" fill="url(#paint21_linear_21_7427)"/>
<ellipse opacity="0.3" cx="244.708" cy="26.2809" rx="4.5988" ry="1.97106" fill="black" fill-opacity="0.5"/>
<g filter="url(#filter33_ii_21_7427)">
<path d="M243.167 26.4092C243.167 15.7946 243.379 10.8647 243.694 8.41011H245.802C246.065 11.41 246.321 17.7164 246.321 26.4092C246.321 26.4092 246.079 27.3323 244.744 27.3323C243.409 27.3323 243.167 26.4092 243.167 26.4092Z" fill="url(#paint22_linear_21_7427)"/>
<path d="M243.167 26.4092C243.167 15.7946 243.379 10.8647 243.694 8.41011H245.802C246.065 11.41 246.321 17.7164 246.321 26.4092C246.321 26.4092 246.079 27.3323 244.744 27.3323C243.409 27.3323 243.167 26.4092 243.167 26.4092Z" fill="black" fill-opacity="0.2"/>
</g>
<g filter="url(#filter34_i_21_7427)">
<ellipse cx="244.612" cy="8.01568" rx="1.31394" ry="0.657019" fill="url(#paint23_linear_21_7427)"/>
</g>
<path d="M235.497 29.2403C239.178 28.995 241.414 28.5019 242.072 28.2861L236.838 23.662L227.615 28.8743C228.709 29.0985 231.817 29.4856 235.497 29.2403Z" fill="url(#paint24_linear_21_7427)"/>
<path d="M253.786 28.8149C249.438 28.5411 246.798 28.0162 246.022 27.788L252.233 22.9959L263.103 28.2521C261.809 28.4803 258.134 29.0888 253.786 28.8149Z" fill="url(#paint25_linear_21_7427)"/>
<g filter="url(#filter35_i_21_7427)">
<path d="M245.018 9.94434C246.012 9.42282 247.357 8.66581 250.698 8.41011C253.148 8.66581 254.84 10.0466 252.702 10.4557C250.564 10.8649 247.26 13.2685 246.592 17.6155C246.592 17.6155 246.258 17.8712 245.352 17.8712C244.253 17.8712 243.251 17.6155 243.251 17.6155C243.251 13.7799 242.583 11.2229 245.018 9.94434Z" fill="url(#paint26_linear_21_7427)"/>
</g>
<g filter="url(#filter36_i_21_7427)">
<path d="M253.607 8.52896C249.965 7.98472 245.847 9.43353 244.219 10.3657C245.534 10.2447 244.219 12.1042 244.219 14.0678C244.219 16.0793 245.269 16.9561 245.833 18.3543C246.542 20.1114 246.941 20.0104 247.41 21.4718C247.801 22.6895 248.988 24.1889 252.142 26.148C256.873 28.3835 259.24 28.3835 262.62 28.3835C262.244 27.2649 262.131 25.2081 262.131 23.8099C262.131 22.6569 262.683 21.3744 263.182 19.5233C263.708 17.5749 261.726 16.2898 260.6 14.8916C257.981 11.6409 261.884 9.76565 253.607 8.52896Z" fill="url(#paint27_linear_21_7427)"/>
</g>
<mask id="mask2_21_7427" style="mask-type:alpha" maskUnits="userSpaceOnUse" x="244" y="8" width="20" height="21">
<path d="M253.873 8.52893C250.127 7.98483 245.892 9.43328 244.219 10.3652C245.571 10.2443 245.233 11.8732 246.584 13.5777C248.322 15.7691 247.694 16.0774 248.081 17.4753C248.467 18.8731 250.301 19.3742 250.784 20.8352C251.186 22.0527 249.599 22.7942 250.784 25.0237C252.714 28.6581 259.665 28.3785 263.14 28.3785C262.754 27.2602 261.595 25.5828 261.595 24.185C261.595 23.0323 263.14 21.6688 262.754 19.7118C262.422 18.0283 261.209 17.4752 260.051 16.0774C257.358 12.8275 262.383 9.76532 253.873 8.52893Z" fill="url(#paint28_linear_21_7427)"/>
</mask>
<g mask="url(#mask2_21_7427)">
<path opacity="0.75" d="M249.307 1.97108C250.73 1.86158 244.043 6.83236 244.832 9.19763C245.817 12.1542 252.496 10.4018 253.153 14.0154C253.81 17.629 255.891 15.6576 256.219 19.2712C256.548 22.8848 255.876 21.6814 257.19 23.6525C258.241 25.2293 260.475 26.7186 261.46 27.2661" stroke="#2F7928" stroke-miterlimit="10" stroke-linecap="round" stroke-linejoin="round"/>
<ellipse cx="257.095" cy="26.7173" rx="0.437952" ry="0.437983" fill="black" stroke="black" stroke-opacity="0.5" stroke-width="0.5"/>
<ellipse cx="251.839" cy="11.826" rx="0.437952" ry="0.437983" fill="black" stroke="black" stroke-opacity="0.5" stroke-width="0.5"/>
<ellipse cx="259.723" cy="20.5856" rx="0.437952" ry="0.437983" fill="#B2A76A" stroke="black" stroke-opacity="0.5" stroke-width="0.5"/>
<ellipse cx="252.628" cy="22.0763" rx="1.05115" ry="1.05123" fill="#D0A127" stroke="black" stroke-opacity="0.5" stroke-width="0.5"/>
<ellipse cx="254.732" cy="13.6662" rx="1.05115" ry="1.05123" fill="black" stroke="black" stroke-opacity="0.5" stroke-width="0.5"/>
<ellipse cx="254.467" cy="24.0894" rx="0.437952" ry="0.437983" fill="black" stroke="black" stroke-opacity="0.5" stroke-width="0.5"/>
<ellipse cx="0.437502" cy="0.437471" rx="0.437502" ry="0.437471" transform="matrix(0.0886721 0.997164 -0.997163 0.0886849 257.167 17.725)" fill="black" stroke="black" stroke-opacity="0.5" stroke-width="0.5"/>
<ellipse cx="0.437502" cy="0.437471" rx="0.437502" ry="0.437471" transform="matrix(0.0886721 0.997164 -0.997163 0.0886849 254.901 15.7678)" fill="black" stroke="black" stroke-opacity="0.5" stroke-width="0.5"/>
<ellipse cx="0.437502" cy="0.437471" rx="0.437502" ry="0.437471" transform="matrix(0.0886721 0.997164 -0.997163 0.0886849 249.645 12.238)" fill="black" stroke="black" stroke-opacity="0.5" stroke-width="0.5"/>
<ellipse cx="251.839" cy="15.3298" rx="0.437952" ry="0.437983" fill="black" stroke="black" stroke-opacity="0.5" stroke-width="0.5"/>
<ellipse cx="250.087" cy="8.32213" rx="0.437952" ry="0.437983" fill="black" stroke="black" stroke-opacity="0.5" stroke-width="0.5"/>
<ellipse cx="250.963" cy="17.9577" rx="0.437952" ry="0.437983" fill="black" stroke="black" stroke-opacity="0.5" stroke-width="0.5"/>
<ellipse cx="257.359" cy="9.98695" rx="1.57673" ry="1.57685" fill="#D0A127" stroke="black" stroke-opacity="0.5" stroke-width="0.5"/>
<ellipse cx="0.437502" cy="0.437471" rx="0.437502" ry="0.437471" transform="matrix(0.0886721 0.997164 -0.997163 0.0886849 253.149 8.7342)" fill="black" stroke="black" stroke-opacity="0.5" stroke-width="0.5"/>
<ellipse cx="257.095" cy="12.7019" rx="0.437952" ry="0.437983" fill="black" stroke="black" stroke-opacity="0.5" stroke-width="0.5"/>
<ellipse cx="256.219" cy="21.4615" rx="0.437952" ry="0.437983" fill="black" stroke="black" stroke-opacity="0.5" stroke-width="0.5"/>
<ellipse cx="258.847" cy="23.2135" rx="0.437952" ry="0.437983" fill="black" stroke="black" stroke-opacity="0.5" stroke-width="0.5"/>
<ellipse cx="0.437502" cy="0.437471" rx="0.437502" ry="0.437471" transform="matrix(0.0886721 0.997164 -0.997163 0.0886849 261.033 25.4034)" fill="black" stroke="black" stroke-opacity="0.5" stroke-width="0.5"/>
<ellipse cx="261.473" cy="20.5856" rx="0.437952" ry="0.437983" fill="black" stroke="black" stroke-opacity="0.5" stroke-width="0.5"/>
<ellipse cx="254.467" cy="18.8337" rx="0.437952" ry="0.437983" fill="black" stroke="black" stroke-opacity="0.5" stroke-width="0.5"/>
</g>
<g filter="url(#filter37_i_21_7427)">
<path d="M245.691 12.4836C245.035 11.498 244.049 11.1695 242.407 10.5125C239.998 10.841 235.048 11.958 237.151 12.4836C239.253 13.0092 242.312 15.4402 242.64 21.0248C242.969 21.2438 243.11 22.0103 244.378 22.0103C245.597 22.0103 246.254 21.3533 246.582 21.0248C246.582 16.0972 246.48 13.272 245.691 12.4836Z" fill="url(#paint29_linear_21_7427)"/>
</g>
<g filter="url(#filter38_i_21_7427)">
<path d="M236.165 8.54144C239.967 8.36594 243.079 10.6411 244.706 11.5286C243.721 11.4805 243.939 12.6944 244.217 14.1919C244.706 16.82 244.743 16.0669 244.217 18.3969C243.692 20.7268 243.184 21.2423 242.641 22.6018C241.984 24.2443 242.215 24.158 241.064 26.2811C239.187 29.7422 231.004 28.9348 227.625 28.9348C228 27.8698 229.126 26.2724 229.126 24.9412C229.126 23.8434 228.843 22.8999 228.45 21.0249C227.961 18.695 228.504 16.6928 228.939 15.2432C229.924 11.9581 231.567 8.75377 236.165 8.54144Z" fill="url(#paint30_linear_21_7427)"/>
</g>
<mask id="mask3_21_7427" style="mask-type:alpha" maskUnits="userSpaceOnUse" x="227" y="8" width="18" height="21">
<path d="M236.165 8.54144C239.967 8.36594 243.079 10.6411 244.706 11.5286C243.721 11.4805 242.848 11.5286 242.078 12.8426C240.964 14.7434 241.797 17.0961 241.421 18.4273C241.046 19.7585 240.182 20.3529 239.638 21.7124C238.981 23.3549 240.789 23.6168 239.638 25.7399C237.761 29.201 231.004 28.9348 227.625 28.9348C228 27.8698 229.126 26.2724 229.126 24.9412C229.126 23.8434 228.563 22.5905 228.939 20.7268C229.262 19.1236 231.132 17.9058 231.567 16.4562C232.552 13.1711 231.567 8.75377 236.165 8.54144Z" fill="url(#paint31_linear_21_7427)"/>
</mask>
<g mask="url(#mask3_21_7427)">
<path opacity="0.75" d="M241.421 9.85565C240.217 9.63664 237.545 9.65854 236.494 11.4982C235.18 13.7978 236.823 15.4402 236.166 16.7542C235.509 18.0683 234.195 19.3823 233.538 21.3533C232.881 23.3244 233.866 24.3099 233.209 25.2955C232.684 26.0839 230.143 27.595 228.939 28.252" stroke="#2F7928" stroke-miterlimit="10" stroke-linecap="round" stroke-linejoin="round"/>
<ellipse cx="235.196" cy="26.7173" rx="0.437952" ry="0.437983" fill="#B2A76A" stroke="black" stroke-opacity="0.5" stroke-width="0.5"/>
<ellipse cx="229.94" cy="26.7173" rx="0.437952" ry="0.437983" fill="black" stroke="black" stroke-opacity="0.5" stroke-width="0.5"/>
<ellipse cx="234.32" cy="12.7019" rx="0.437952" ry="0.437983" fill="black" stroke="black" stroke-opacity="0.5" stroke-width="0.5"/>
<ellipse cx="234.32" cy="15.3298" rx="0.437952" ry="0.437983" fill="#4B3F3F" stroke="black" stroke-opacity="0.5" stroke-width="0.5"/>
<ellipse cx="239.573" cy="18.8337" rx="0.437952" ry="0.437983" fill="black" stroke="black" stroke-opacity="0.5" stroke-width="0.5"/>
<ellipse cx="235.196" cy="21.4615" rx="0.437952" ry="0.437983" fill="black" stroke="black" stroke-opacity="0.5" stroke-width="0.5"/>
<ellipse cx="231.692" cy="18.8337" rx="0.437952" ry="0.437983" fill="black" stroke="black" stroke-opacity="0.5" stroke-width="0.5"/>
<ellipse cx="235.196" cy="10.074" rx="0.437952" ry="0.437983" fill="black" stroke="black" stroke-opacity="0.5" stroke-width="0.5"/>
<ellipse cx="241.325" cy="11.826" rx="0.437952" ry="0.437983" fill="#3C3A3A" stroke="black" stroke-opacity="0.5" stroke-width="0.5"/>
<ellipse cx="236.072" cy="24.0894" rx="0.437952" ry="0.437983" fill="black" stroke="black" stroke-opacity="0.5" stroke-width="0.5"/>
<ellipse cx="238.699" cy="23.2135" rx="0.437952" ry="0.437983" fill="black" stroke="black" stroke-opacity="0.5" stroke-width="0.5"/>
<ellipse cx="0.437502" cy="0.437471" rx="0.437502" ry="0.437471" transform="matrix(0.0886721 0.997164 -0.997163 0.0886849 232.126 23.6514)" fill="black" stroke="black" stroke-opacity="0.5" stroke-width="0.5"/>
<ellipse cx="240.449" cy="23.2135" rx="0.437952" ry="0.437983" fill="black" stroke="black" stroke-opacity="0.5" stroke-width="0.5"/>
<ellipse cx="230.816" cy="21.4615" rx="0.437952" ry="0.437983" fill="black" stroke="black" stroke-opacity="0.5" stroke-width="0.5"/>
<ellipse cx="240.449" cy="14.4539" rx="0.437952" ry="0.437983" fill="black" stroke="black" stroke-opacity="0.5" stroke-width="0.5"/>
<ellipse cx="243.077" cy="16.2058" rx="0.437952" ry="0.437983" fill="black" stroke="black" stroke-opacity="0.5" stroke-width="0.5"/>
<ellipse cx="0.836052" cy="0.835992" rx="0.836052" ry="0.835992" transform="matrix(0.0886721 0.997164 -0.997163 0.0886849 239.051 14.795)" fill="#D0A127" stroke="black" stroke-opacity="0.5" stroke-width="0.5"/>
<ellipse cx="238.699" cy="10.95" rx="0.437952" ry="0.437983" fill="black" stroke="black" stroke-opacity="0.5" stroke-width="0.5"/>
<ellipse cx="234.32" cy="17.9577" rx="0.437952" ry="0.437983" fill="black" stroke="black" stroke-opacity="0.5" stroke-width="0.5"/>
</g>
<defs>
<filter id="filter0_i_21_7427" x="0.0156422" y="16.6501" width="41.9841" height="24.2346" filterUnits="userSpaceOnUse" color-interpolation-filters="sRGB">
<feFlood flood-opacity="0" result="BackgroundImageFix"/>
<feBlend mode="normal" in="SourceGraphic" in2="BackgroundImageFix" result="shape"/>
<feColorMatrix in="SourceAlpha" type="matrix" values="0 0 0 0 0 0 0 0 0 0 0 0 0 0 0 0 0 0 127 0" result="hardAlpha"/>
<feOffset dy="-1"/>
<feComposite in2="hardAlpha" operator="arithmetic" k2="-1" k3="1"/>
<feColorMatrix type="matrix" values="0 0 0 0 1 0 0 0 0 0.7 0 0 0 0 0.5375 0 0 0 0.75 0"/>
<feBlend mode="normal" in2="shape" result="effect1_innerShadow_21_7427"/>
</filter>
<filter id="filter1_ii_21_7427" x="18.9212" y="9.41023" width="5.15568" height="19.1709" filterUnits="userSpaceOnUse" color-interpolation-filters="sRGB">
<feFlood flood-opacity="0" result="BackgroundImageFix"/>
<feBlend mode="normal" in="SourceGraphic" in2="BackgroundImageFix" result="shape"/>
<feColorMatrix in="SourceAlpha" type="matrix" values="0 0 0 0 0 0 0 0 0 0 0 0 0 0 0 0 0 0 127 0" result="hardAlpha"/>
<feOffset dy="0.5"/>
<feGaussianBlur stdDeviation="0.125"/>
<feComposite in2="hardAlpha" operator="arithmetic" k2="-1" k3="1"/>
<feColorMatrix type="matrix" values="0 0 0 0 0.718185 0 0 0 0 1 0 0 0 0 0.695833 0 0 0 0.75 0"/>
<feBlend mode="normal" in2="shape" result="effect1_innerShadow_21_7427"/>
<feColorMatrix in="SourceAlpha" type="matrix" values="0 0 0 0 0 0 0 0 0 0 0 0 0 0 0 0 0 0 127 0" result="hardAlpha"/>
<feOffset dx="2"/>
<feGaussianBlur stdDeviation="2.5"/>
<feComposite in2="hardAlpha" operator="arithmetic" k2="-1" k3="1"/>
<feColorMatrix type="matrix" values="0 0 0 0 0.00740157 0 0 0 0 0.0958333 0 0 0 0 0 0 0 0 0.5 0"/>
<feBlend mode="normal" in2="effect1_innerShadow_21_7427" result="effect2_innerShadow_21_7427"/>
</filter>
<filter id="filter2_i_21_7427" x="19.0522" y="8.35927" width="2.62788" height="1.31394" filterUnits="userSpaceOnUse" color-interpolation-filters="sRGB">
<feFlood flood-opacity="0" result="BackgroundImageFix"/>
<feBlend mode="normal" in="SourceGraphic" in2="BackgroundImageFix" result="shape"/>
<feColorMatrix in="SourceAlpha" type="matrix" values="0 0 0 0 0 0 0 0 0 0 0 0 0 0 0 0 0 0 127 0" result="hardAlpha"/>
<feOffset/>
<feGaussianBlur stdDeviation="0.5"/>
<feComposite in2="hardAlpha" operator="arithmetic" k2="-1" k3="1"/>
<feColorMatrix type="matrix" values="0 0 0 0 0.718185 0 0 0 0 1 0 0 0 0 0.695833 0 0 0 0.75 0"/>
<feBlend mode="normal" in2="shape" result="effect1_innerShadow_21_7427"/>
</filter>
<filter id="filter3_i_21_7427" x="18.9212" y="8.90968" width="10.5115" height="9.96113" filterUnits="userSpaceOnUse" color-interpolation-filters="sRGB">
<feFlood flood-opacity="0" result="BackgroundImageFix"/>
<feBlend mode="normal" in="SourceGraphic" in2="BackgroundImageFix" result="shape"/>
<feColorMatrix in="SourceAlpha" type="matrix" values="0 0 0 0 0 0 0 0 0 0 0 0 0 0 0 0 0 0 127 0" result="hardAlpha"/>
<feOffset dy="-0.5"/>
<feGaussianBlur stdDeviation="0.5"/>
<feComposite in2="hardAlpha" operator="arithmetic" k2="-1" k3="1"/>
<feColorMatrix type="matrix" values="0 0 0 0 0.0211268 0 0 0 0 0.2875 0 0 0 0 0 0 0 0 0.9 0"/>
<feBlend mode="normal" in2="shape" result="effect1_innerShadow_21_7427"/>
</filter>
<filter id="filter4_i_21_7427" x="19.9731" y="8.90968" width="19.9719" height="20.4727" filterUnits="userSpaceOnUse" color-interpolation-filters="sRGB">
<feFlood flood-opacity="0" result="BackgroundImageFix"/>
<feBlend mode="normal" in="SourceGraphic" in2="BackgroundImageFix" result="shape"/>
<feColorMatrix in="SourceAlpha" type="matrix" values="0 0 0 0 0 0 0 0 0 0 0 0 0 0 0 0 0 0 127 0" result="hardAlpha"/>
<feOffset dy="-0.5"/>
<feGaussianBlur stdDeviation="0.5"/>
<feComposite in2="hardAlpha" operator="arithmetic" k2="-1" k3="1"/>
<feColorMatrix type="matrix" values="0 0 0 0 0.0211268 0 0 0 0 0.2875 0 0 0 0 0 0 0 0 0.9 0"/>
<feBlend mode="normal" in2="shape" result="effect1_innerShadow_21_7427"/>
</filter>
<filter id="filter5_i_21_7427" x="12.3967" y="11.0121" width="9.93925" height="11.9975" filterUnits="userSpaceOnUse" color-interpolation-filters="sRGB">
<feFlood flood-opacity="0" result="BackgroundImageFix"/>
<feBlend mode="normal" in="SourceGraphic" in2="BackgroundImageFix" result="shape"/>
<feColorMatrix in="SourceAlpha" type="matrix" values="0 0 0 0 0 0 0 0 0 0 0 0 0 0 0 0 0 0 127 0" result="hardAlpha"/>
<feOffset dy="-0.5"/>
<feGaussianBlur stdDeviation="0.5"/>
<feComposite in2="hardAlpha" operator="arithmetic" k2="-1" k3="1"/>
<feColorMatrix type="matrix" values="0 0 0 0 0.0211268 0 0 0 0 0.2875 0 0 0 0 0 0 0 0 0.9 0"/>
<feBlend mode="normal" in2="shape" result="effect1_innerShadow_21_7427"/>
</filter>
<filter id="filter6_i_21_7427" x="3.37871" y="9.0314" width="17.0812" height="20.9835" filterUnits="userSpaceOnUse" color-interpolation-filters="sRGB">
<feFlood flood-opacity="0" result="BackgroundImageFix"/>
<feBlend mode="normal" in="SourceGraphic" in2="BackgroundImageFix" result="shape"/>
<feColorMatrix in="SourceAlpha" type="matrix" values="0 0 0 0 0 0 0 0 0 0 0 0 0 0 0 0 0 0 127 0" result="hardAlpha"/>
<feOffset dy="-0.5"/>
<feGaussianBlur stdDeviation="0.5"/>
<feComposite in2="hardAlpha" operator="arithmetic" k2="-1" k3="1"/>
<feColorMatrix type="matrix" values="0 0 0 0 0.0211268 0 0 0 0 0.2875 0 0 0 0 0 0 0 0 0.9 0"/>
<feBlend mode="normal" in2="shape" result="effect1_innerShadow_21_7427"/>
</filter>
<filter id="filter7_i_21_7427" x="110.136" y="15.65" width="41.9871" height="24.2361" filterUnits="userSpaceOnUse" color-interpolation-filters="sRGB">
<feFlood flood-opacity="0" result="BackgroundImageFix"/>
<feBlend mode="normal" in="SourceGraphic" in2="BackgroundImageFix" result="shape"/>
<feColorMatrix in="SourceAlpha" type="matrix" values="0 0 0 0 0 0 0 0 0 0 0 0 0 0 0 0 0 0 127 0" result="hardAlpha"/>
<feOffset dy="-1"/>
<feComposite in2="hardAlpha" operator="arithmetic" k2="-1" k3="1"/>
<feColorMatrix type="matrix" values="0 0 0 0 1 0 0 0 0 0.7 0 0 0 0 0.5375 0 0 0 0.75 0"/>
<feBlend mode="normal" in2="shape" result="effect1_innerShadow_21_7427"/>
</filter>
<filter id="filter8_f_21_7427" x="124.013" y="23.5278" width="3.75424" height="3.75412" filterUnits="userSpaceOnUse" color-interpolation-filters="sRGB">
<feFlood flood-opacity="0" result="BackgroundImageFix"/>
<feBlend mode="normal" in="SourceGraphic" in2="BackgroundImageFix" result="shape"/>
<feGaussianBlur stdDeviation="0.5" result="effect1_foregroundBlur_21_7427"/>
</filter>
<filter id="filter9_f_21_7427" x="133.084" y="29.2152" width="3.75467" height="3.75461" filterUnits="userSpaceOnUse" color-interpolation-filters="sRGB">
<feFlood flood-opacity="0" result="BackgroundImageFix"/>
<feBlend mode="normal" in="SourceGraphic" in2="BackgroundImageFix" result="shape"/>
<feGaussianBlur stdDeviation="0.5" result="effect1_foregroundBlur_21_7427"/>
</filter>
<filter id="filter10_f_21_7427" x="128.893" y="17.8961" width="2.75314" height="2.75302" filterUnits="userSpaceOnUse" color-interpolation-filters="sRGB">
<feFlood flood-opacity="0" result="BackgroundImageFix"/>
<feBlend mode="normal" in="SourceGraphic" in2="BackgroundImageFix" result="shape"/>
<feGaussianBlur stdDeviation="0.25" result="effect1_foregroundBlur_21_7427"/>
</filter>
<filter id="filter11_f_21_7427" x="135.315" y="24.3187" width="2.75357" height="2.75351" filterUnits="userSpaceOnUse" color-interpolation-filters="sRGB">
<feFlood flood-opacity="0" result="BackgroundImageFix"/>
<feBlend mode="normal" in="SourceGraphic" in2="BackgroundImageFix" result="shape"/>
<feGaussianBlur stdDeviation="0.25" result="effect1_foregroundBlur_21_7427"/>
</filter>
<filter id="filter12_f_21_7427" x="132.397" y="19.648" width="2.75314" height="2.75302" filterUnits="userSpaceOnUse" color-interpolation-filters="sRGB">
<feFlood flood-opacity="0" result="BackgroundImageFix"/>
<feBlend mode="normal" in="SourceGraphic" in2="BackgroundImageFix" result="shape"/>
<feGaussianBlur stdDeviation="0.25" result="effect1_foregroundBlur_21_7427"/>
</filter>
<filter id="filter13_f_21_7427" x="137.943" y="21.6903" width="2.75357" height="2.75351" filterUnits="userSpaceOnUse" color-interpolation-filters="sRGB">
<feFlood flood-opacity="0" result="BackgroundImageFix"/>
<feBlend mode="normal" in="SourceGraphic" in2="BackgroundImageFix" result="shape"/>
<feGaussianBlur stdDeviation="0.25" result="effect1_foregroundBlur_21_7427"/>
</filter>
<filter id="filter14_f_21_7427" x="132.397" y="14.3918" width="2.75314" height="2.75302" filterUnits="userSpaceOnUse" color-interpolation-filters="sRGB">
<feFlood flood-opacity="0" result="BackgroundImageFix"/>
<feBlend mode="normal" in="SourceGraphic" in2="BackgroundImageFix" result="shape"/>
<feGaussianBlur stdDeviation="0.25" result="effect1_foregroundBlur_21_7427"/>
</filter>
<filter id="filter15_f_21_7427" x="136.883" y="19.7531" width="1.63595" height="1.63607" filterUnits="userSpaceOnUse" color-interpolation-filters="sRGB">
<feFlood flood-opacity="0" result="BackgroundImageFix"/>
<feBlend mode="normal" in="SourceGraphic" in2="BackgroundImageFix" result="shape"/>
<feGaussianBlur stdDeviation="0.25" result="effect1_foregroundBlur_21_7427"/>
</filter>
<filter id="filter16_f_21_7427" x="135.025" y="14.3918" width="2.75314" height="2.75302" filterUnits="userSpaceOnUse" color-interpolation-filters="sRGB">
<feFlood flood-opacity="0" result="BackgroundImageFix"/>
<feBlend mode="normal" in="SourceGraphic" in2="BackgroundImageFix" result="shape"/>
<feGaussianBlur stdDeviation="0.25" result="effect1_foregroundBlur_21_7427"/>
</filter>
<filter id="filter17_f_21_7427" x="134.149" y="16.1437" width="2.75314" height="2.75302" filterUnits="userSpaceOnUse" color-interpolation-filters="sRGB">
<feFlood flood-opacity="0" result="BackgroundImageFix"/>
<feBlend mode="normal" in="SourceGraphic" in2="BackgroundImageFix" result="shape"/>
<feGaussianBlur stdDeviation="0.25" result="effect1_foregroundBlur_21_7427"/>
</filter>
<filter id="filter18_f_21_7427" x="135.901" y="21.4" width="2.75314" height="2.75302" filterUnits="userSpaceOnUse" color-interpolation-filters="sRGB">
<feFlood flood-opacity="0" result="BackgroundImageFix"/>
<feBlend mode="normal" in="SourceGraphic" in2="BackgroundImageFix" result="shape"/>
<feGaussianBlur stdDeviation="0.25" result="effect1_foregroundBlur_21_7427"/>
</filter>
<filter id="filter19_f_21_7427" x="138.662" y="17.1531" width="1.80362" height="1.80374" filterUnits="userSpaceOnUse" color-interpolation-filters="sRGB">
<feFlood flood-opacity="0" result="BackgroundImageFix"/>
<feBlend mode="normal" in="SourceGraphic" in2="BackgroundImageFix" result="shape"/>
<feGaussianBlur stdDeviation="0.25" result="effect1_foregroundBlur_21_7427"/>
</filter>
<filter id="filter20_f_21_7427" x="128.017" y="23.1524" width="2.75314" height="2.75302" filterUnits="userSpaceOnUse" color-interpolation-filters="sRGB">
<feFlood flood-opacity="0" result="BackgroundImageFix"/>
<feBlend mode="normal" in="SourceGraphic" in2="BackgroundImageFix" result="shape"/>
<feGaussianBlur stdDeviation="0.25" result="effect1_foregroundBlur_21_7427"/>
</filter>
<filter id="filter21_f_21_7427" x="136.191" y="26.9466" width="2.75357" height="2.75351" filterUnits="userSpaceOnUse" color-interpolation-filters="sRGB">
<feFlood flood-opacity="0" result="BackgroundImageFix"/>
<feBlend mode="normal" in="SourceGraphic" in2="BackgroundImageFix" result="shape"/>
<feGaussianBlur stdDeviation="0.25" result="effect1_foregroundBlur_21_7427"/>
</filter>
<filter id="filter22_f_21_7427" x="122.76" y="24.0283" width="2.75314" height="2.75302" filterUnits="userSpaceOnUse" color-interpolation-filters="sRGB">
<feFlood flood-opacity="0" result="BackgroundImageFix"/>
<feBlend mode="normal" in="SourceGraphic" in2="BackgroundImageFix" result="shape"/>
<feGaussianBlur stdDeviation="0.25" result="effect1_foregroundBlur_21_7427"/>
</filter>
<filter id="filter23_f_21_7427" x="132.688" y="31.3269" width="2.75357" height="2.75351" filterUnits="userSpaceOnUse" color-interpolation-filters="sRGB">
<feFlood flood-opacity="0" result="BackgroundImageFix"/>
<feBlend mode="normal" in="SourceGraphic" in2="BackgroundImageFix" result="shape"/>
<feGaussianBlur stdDeviation="0.25" result="effect1_foregroundBlur_21_7427"/>
</filter>
<filter id="filter24_f_21_7427" x="125.39" y="23.1524" width="2.75314" height="2.75302" filterUnits="userSpaceOnUse" color-interpolation-filters="sRGB">
<feFlood flood-opacity="0" result="BackgroundImageFix"/>
<feBlend mode="normal" in="SourceGraphic" in2="BackgroundImageFix" result="shape"/>
<feGaussianBlur stdDeviation="0.25" result="effect1_foregroundBlur_21_7427"/>
</filter>
<filter id="filter25_f_21_7427" x="134.003" y="28.5489" width="2.75357" height="2.75351" filterUnits="userSpaceOnUse" color-interpolation-filters="sRGB">
<feFlood flood-opacity="0" result="BackgroundImageFix"/>
<feBlend mode="normal" in="SourceGraphic" in2="BackgroundImageFix" result="shape"/>
<feGaussianBlur stdDeviation="0.25" result="effect1_foregroundBlur_21_7427"/>
</filter>
<filter id="filter26_f_21_7427" x="126.641" y="20.0234" width="5.50629" height="5.50653" filterUnits="userSpaceOnUse" color-interpolation-filters="sRGB">
<feFlood flood-opacity="0" result="BackgroundImageFix"/>
<feBlend mode="normal" in="SourceGraphic" in2="BackgroundImageFix" result="shape"/>
<feGaussianBlur stdDeviation="0.5" result="effect1_foregroundBlur_21_7427"/>
</filter>
<filter id="filter27_f_21_7427" x="133.353" y="26.7364" width="5.50708" height="5.50702" filterUnits="userSpaceOnUse" color-interpolation-filters="sRGB">
<feFlood flood-opacity="0" result="BackgroundImageFix"/>
<feBlend mode="normal" in="SourceGraphic" in2="BackgroundImageFix" result="shape"/>
<feGaussianBlur stdDeviation="0.5" result="effect1_foregroundBlur_21_7427"/>
</filter>
<filter id="filter28_f_21_7427" x="130.145" y="15.6431" width="5.50629" height="5.50653" filterUnits="userSpaceOnUse" color-interpolation-filters="sRGB">
<feFlood flood-opacity="0" result="BackgroundImageFix"/>
<feBlend mode="normal" in="SourceGraphic" in2="BackgroundImageFix" result="shape"/>
<feGaussianBlur stdDeviation="0.5" result="effect1_foregroundBlur_21_7427"/>
</filter>
<filter id="filter29_f_21_7427" x="135.545" y="21.6346" width="5.50708" height="5.50702" filterUnits="userSpaceOnUse" color-interpolation-filters="sRGB">
<feFlood flood-opacity="0" result="BackgroundImageFix"/>
<feBlend mode="normal" in="SourceGraphic" in2="BackgroundImageFix" result="shape"/>
<feGaussianBlur stdDeviation="0.5" result="effect1_foregroundBlur_21_7427"/>
</filter>
<filter id="filter30_f_21_7427" x="133.648" y="13.0153" width="3.75424" height="3.75412" filterUnits="userSpaceOnUse" color-interpolation-filters="sRGB">
<feFlood flood-opacity="0" result="BackgroundImageFix"/>
<feBlend mode="normal" in="SourceGraphic" in2="BackgroundImageFix" result="shape"/>
<feGaussianBlur stdDeviation="0.5" result="effect1_foregroundBlur_21_7427"/>
</filter>
<filter id="filter31_f_21_7427" x="137.3" y="18.2192" width="3.75467" height="3.75461" filterUnits="userSpaceOnUse" color-interpolation-filters="sRGB">
<feFlood flood-opacity="0" result="BackgroundImageFix"/>
<feBlend mode="normal" in="SourceGraphic" in2="BackgroundImageFix" result="shape"/>
<feGaussianBlur stdDeviation="0.5" result="effect1_foregroundBlur_21_7427"/>
</filter>
<filter id="filter32_i_21_7427" x="224.262" y="15.65" width="41.9841" height="24.2361" filterUnits="userSpaceOnUse" color-interpolation-filters="sRGB">
<feFlood flood-opacity="0" result="BackgroundImageFix"/>
<feBlend mode="normal" in="SourceGraphic" in2="BackgroundImageFix" result="shape"/>
<feColorMatrix in="SourceAlpha" type="matrix" values="0 0 0 0 0 0 0 0 0 0 0 0 0 0 0 0 0 0 127 0" result="hardAlpha"/>
<feOffset dy="-1"/>
<feComposite in2="hardAlpha" operator="arithmetic" k2="-1" k3="1"/>
<feColorMatrix type="matrix" values="0 0 0 0 1 0 0 0 0 0.7 0 0 0 0 0.5375 0 0 0 0.75 0"/>
<feBlend mode="normal" in2="shape" result="effect1_innerShadow_21_7427"/>
</filter>
<filter id="filter33_ii_21_7427" x="243.167" y="8.41011" width="5.15568" height="19.1724" filterUnits="userSpaceOnUse" color-interpolation-filters="sRGB">
<feFlood flood-opacity="0" result="BackgroundImageFix"/>
<feBlend mode="normal" in="SourceGraphic" in2="BackgroundImageFix" result="shape"/>
<feColorMatrix in="SourceAlpha" type="matrix" values="0 0 0 0 0 0 0 0 0 0 0 0 0 0 0 0 0 0 127 0" result="hardAlpha"/>
<feOffset dy="0.5"/>
<feGaussianBlur stdDeviation="0.125"/>
<feComposite in2="hardAlpha" operator="arithmetic" k2="-1" k3="1"/>
<feColorMatrix type="matrix" values="0 0 0 0 0.718185 0 0 0 0 1 0 0 0 0 0.695833 0 0 0 0.75 0"/>
<feBlend mode="normal" in2="shape" result="effect1_innerShadow_21_7427"/>
<feColorMatrix in="SourceAlpha" type="matrix" values="0 0 0 0 0 0 0 0 0 0 0 0 0 0 0 0 0 0 127 0" result="hardAlpha"/>
<feOffset dx="2"/>
<feGaussianBlur stdDeviation="2.5"/>
<feComposite in2="hardAlpha" operator="arithmetic" k2="-1" k3="1"/>
<feColorMatrix type="matrix" values="0 0 0 0 0.00740157 0 0 0 0 0.0958333 0 0 0 0 0 0 0 0 0.5 0"/>
<feBlend mode="normal" in2="effect1_innerShadow_21_7427" result="effect2_innerShadow_21_7427"/>
</filter>
<filter id="filter34_i_21_7427" x="243.298" y="7.35866" width="2.62788" height="1.31394" filterUnits="userSpaceOnUse" color-interpolation-filters="sRGB">
<feFlood flood-opacity="0" result="BackgroundImageFix"/>
<feBlend mode="normal" in="SourceGraphic" in2="BackgroundImageFix" result="shape"/>
<feColorMatrix in="SourceAlpha" type="matrix" values="0 0 0 0 0 0 0 0 0 0 0 0 0 0 0 0 0 0 127 0" result="hardAlpha"/>
<feOffset/>
<feGaussianBlur stdDeviation="0.5"/>
<feComposite in2="hardAlpha" operator="arithmetic" k2="-1" k3="1"/>
<feColorMatrix type="matrix" values="0 0 0 0 0.718185 0 0 0 0 1 0 0 0 0 0.695833 0 0 0 0.75 0"/>
<feBlend mode="normal" in2="shape" result="effect1_innerShadow_21_7427"/>
</filter>
<filter id="filter35_i_21_7427" x="243.167" y="7.90956" width="10.5115" height="9.96162" filterUnits="userSpaceOnUse" color-interpolation-filters="sRGB">
<feFlood flood-opacity="0" result="BackgroundImageFix"/>
<feBlend mode="normal" in="SourceGraphic" in2="BackgroundImageFix" result="shape"/>
<feColorMatrix in="SourceAlpha" type="matrix" values="0 0 0 0 0 0 0 0 0 0 0 0 0 0 0 0 0 0 127 0" result="hardAlpha"/>
<feOffset dy="-0.5"/>
<feGaussianBlur stdDeviation="0.5"/>
<feComposite in2="hardAlpha" operator="arithmetic" k2="-1" k3="1"/>
<feColorMatrix type="matrix" values="0 0 0 0 0.0211268 0 0 0 0 0.2875 0 0 0 0 0 0 0 0 0.9 0"/>
<feBlend mode="normal" in2="shape" result="effect1_innerShadow_21_7427"/>
</filter>
<filter id="filter36_i_21_7427" x="244.219" y="7.90956" width="19.0501" height="20.4741" filterUnits="userSpaceOnUse" color-interpolation-filters="sRGB">
<feFlood flood-opacity="0" result="BackgroundImageFix"/>
<feBlend mode="normal" in="SourceGraphic" in2="BackgroundImageFix" result="shape"/>
<feColorMatrix in="SourceAlpha" type="matrix" values="0 0 0 0 0 0 0 0 0 0 0 0 0 0 0 0 0 0 127 0" result="hardAlpha"/>
<feOffset dy="-0.5"/>
<feGaussianBlur stdDeviation="0.5"/>
<feComposite in2="hardAlpha" operator="arithmetic" k2="-1" k3="1"/>
<feColorMatrix type="matrix" values="0 0 0 0 0.0211268 0 0 0 0 0.2875 0 0 0 0 0 0 0 0 0.9 0"/>
<feBlend mode="normal" in2="shape" result="effect1_innerShadow_21_7427"/>
</filter>
<filter id="filter37_i_21_7427" x="236.643" y="10.012" width="9.93925" height="11.9985" filterUnits="userSpaceOnUse" color-interpolation-filters="sRGB">
<feFlood flood-opacity="0" result="BackgroundImageFix"/>
<feBlend mode="normal" in="SourceGraphic" in2="BackgroundImageFix" result="shape"/>
<feColorMatrix in="SourceAlpha" type="matrix" values="0 0 0 0 0 0 0 0 0 0 0 0 0 0 0 0 0 0 127 0" result="hardAlpha"/>
<feOffset dy="-0.5"/>
<feGaussianBlur stdDeviation="0.5"/>
<feComposite in2="hardAlpha" operator="arithmetic" k2="-1" k3="1"/>
<feColorMatrix type="matrix" values="0 0 0 0 0.0211268 0 0 0 0 0.2875 0 0 0 0 0 0 0 0 0.9 0"/>
<feBlend mode="normal" in2="shape" result="effect1_innerShadow_21_7427"/>
</filter>
<filter id="filter38_i_21_7427" x="227.625" y="8.03128" width="17.0812" height="20.9854" filterUnits="userSpaceOnUse" color-interpolation-filters="sRGB">
<feFlood flood-opacity="0" result="BackgroundImageFix"/>
<feBlend mode="normal" in="SourceGraphic" in2="BackgroundImageFix" result="shape"/>
<feColorMatrix in="SourceAlpha" type="matrix" values="0 0 0 0 0 0 0 0 0 0 0 0 0 0 0 0 0 0 127 0" result="hardAlpha"/>
<feOffset dy="-0.5"/>
<feGaussianBlur stdDeviation="0.5"/>
<feComposite in2="hardAlpha" operator="arithmetic" k2="-1" k3="1"/>
<feColorMatrix type="matrix" values="0 0 0 0 0.0211268 0 0 0 0 0.2875 0 0 0 0 0 0 0 0 0.9 0"/>
<feBlend mode="normal" in2="shape" result="effect1_innerShadow_21_7427"/>
</filter>
<linearGradient id="paint0_linear_21_7427" x1="0" y1="30.0037" x2="42.0461" y2="30.0037" gradientUnits="userSpaceOnUse">
<stop stop-color="#7B4F39"/>
<stop offset="0.0001" stop-color="#5F312D"/>
<stop offset="1" stop-color="#9B6B51"/>
</linearGradient>
<linearGradient id="paint1_linear_21_7427" x1="1.13602" y1="12.1522" x2="0.241809" y2="41.1804" gradientUnits="userSpaceOnUse">
<stop stop-color="#E6FFB1"/>
<stop offset="1" stop-color="#00750C"/>
</linearGradient>
<linearGradient id="paint2_linear_21_7427" x1="11.8628" y1="27.034" x2="30.293" y2="27.034" gradientUnits="userSpaceOnUse">
<stop offset="0.00558659" stop-color="#A65953"/>
<stop offset="1" stop-color="#D09270"/>
</linearGradient>
<linearGradient id="paint3_linear_21_7427" x1="27.3601" y1="30.2363" x2="-0.561162" y2="16.7684" gradientUnits="userSpaceOnUse">
<stop stop-color="#0F0F0F"/>
<stop offset="0.0001" stop-opacity="0.984375"/>
<stop offset="1" stop-opacity="0"/>
<stop offset="1" stop-opacity="0"/>
</linearGradient>
<linearGradient id="paint4_linear_21_7427" x1="23.8091" y1="3.41096" x2="21.4521" y2="26.9412" gradientUnits="userSpaceOnUse">
<stop stop-color="#85BB59"/>
<stop offset="1" stop-color="#016B00"/>
</linearGradient>
<linearGradient id="paint5_linear_21_7427" x1="23.1362" y1="7.05452" x2="23.1148" y2="9.6021" gradientUnits="userSpaceOnUse">
<stop stop-color="#016B00"/>
<stop offset="1" stop-color="#85BB59"/>
</linearGradient>
<linearGradient id="paint6_linear_21_7427" x1="3.68688" y1="32.1745" x2="13.5773" y2="24.6663" gradientUnits="userSpaceOnUse">
<stop stop-color="#C4C4C4"/>
<stop offset="0.0001" stop-opacity="0.984375"/>
<stop offset="1" stop-opacity="0"/>
<stop offset="1" stop-opacity="0"/>
</linearGradient>
<linearGradient id="paint7_linear_21_7427" x1="38.4689" y1="31.8673" x2="27.9392" y2="22.7109" gradientUnits="userSpaceOnUse">
<stop stop-color="#C4C4C4"/>
<stop offset="0.0001" stop-opacity="0.984375"/>
<stop offset="1" stop-opacity="0"/>
<stop offset="1" stop-opacity="0"/>
</linearGradient>
<linearGradient id="paint8_linear_21_7427" x1="29.1247" y1="22.4502" x2="29.9853" y2="12.1824" gradientUnits="userSpaceOnUse">
<stop stop-color="#25863A"/>
<stop offset="1" stop-color="#020300"/>
</linearGradient>
<linearGradient id="paint9_linear_21_7427" x1="27.829" y1="30.8123" x2="25.5135" y2="11.373" gradientUnits="userSpaceOnUse">
<stop stop-color="#98C55F"/>
<stop offset="0.224714" stop-color="#489744"/>
<stop offset="0.464952" stop-color="#AED166"/>
<stop offset="0.692728" stop-color="#7AB354"/>
<stop offset="1" stop-color="#AED166"/>
</linearGradient>
<linearGradient id="paint10_linear_21_7427" x1="28.0511" y1="30.807" x2="25.7986" y2="11.3576" gradientUnits="userSpaceOnUse">
<stop stop-color="#98C55F"/>
<stop offset="0.224714" stop-color="#489744"/>
<stop offset="0.464952" stop-color="#AED166"/>
<stop offset="0.692728" stop-color="#7AB354"/>
<stop offset="1" stop-color="#AED166"/>
</linearGradient>
<linearGradient id="paint11_linear_21_7427" x1="13.8902" y1="25.309" x2="14.5382" y2="14.0736" gradientUnits="userSpaceOnUse">
<stop stop-color="#25863A"/>
<stop offset="1" stop-color="#020300"/>
</linearGradient>
<linearGradient id="paint12_linear_21_7427" x1="13.9203" y1="31.2968" x2="17.2135" y2="12.3986" gradientUnits="userSpaceOnUse">
<stop stop-color="#98C55F"/>
<stop offset="0.177848" stop-color="#489744"/>
<stop offset="0.464332" stop-color="#AED166"/>
<stop offset="0.697907" stop-color="#7AB354"/>
<stop offset="0.857818" stop-color="#AED166"/>
</linearGradient>
<linearGradient id="paint13_linear_21_7427" x1="13.9203" y1="31.2968" x2="17.2135" y2="12.3986" gradientUnits="userSpaceOnUse">
<stop stop-color="#98C55F"/>
<stop offset="0.177848" stop-color="#489744"/>
<stop offset="0.464332" stop-color="#AED166"/>
<stop offset="0.697907" stop-color="#7AB354"/>
<stop offset="0.857818" stop-color="#AED166"/>
</linearGradient>
<linearGradient id="paint14_linear_21_7427" x1="110.121" y1="29.0044" x2="152.17" y2="29.0044" gradientUnits="userSpaceOnUse">
<stop stop-color="#7B4F39"/>
<stop offset="0.0001" stop-color="#5F312D"/>
<stop offset="1" stop-color="#9B6B51"/>
</linearGradient>
<linearGradient id="paint15_linear_21_7427" x1="111.257" y1="11.1518" x2="110.362" y2="40.1821" gradientUnits="userSpaceOnUse">
<stop stop-color="#E6FFB1"/>
<stop offset="1" stop-color="#00750C"/>
</linearGradient>
<linearGradient id="paint16_linear_21_7427" x1="134.102" y1="7.73894" x2="120.451" y2="21.7534" gradientUnits="userSpaceOnUse">
<stop stop-color="#98C55F"/>
<stop offset="0.288224" stop-color="#489744"/>
<stop offset="0.552845" stop-color="#AED166"/>
<stop offset="0.80367" stop-color="#7AB354"/>
<stop offset="1" stop-color="#AED166"/>
</linearGradient>
<linearGradient id="paint17_linear_21_7427" x1="135.697" y1="15.3632" x2="130.105" y2="30.3006" gradientUnits="userSpaceOnUse">
<stop stop-color="#98C55F"/>
<stop offset="0.288224" stop-color="#489744"/>
<stop offset="0.552845" stop-color="#AED166"/>
<stop offset="0.80367" stop-color="#7AB354"/>
<stop offset="1" stop-color="#AED166"/>
</linearGradient>
<linearGradient id="paint18_linear_21_7427" x1="224.246" y1="29.0044" x2="266.292" y2="29.0044" gradientUnits="userSpaceOnUse">
<stop stop-color="#7B4F39"/>
<stop offset="0.0001" stop-color="#5F312D"/>
<stop offset="1" stop-color="#9B6B51"/>
</linearGradient>
<linearGradient id="paint19_linear_21_7427" x1="225.382" y1="11.1518" x2="224.488" y2="40.1821" gradientUnits="userSpaceOnUse">
<stop stop-color="#E6FFB1"/>
<stop offset="1" stop-color="#00750C"/>
</linearGradient>
<linearGradient id="paint20_linear_21_7427" x1="236.109" y1="26.0347" x2="254.539" y2="26.0347" gradientUnits="userSpaceOnUse">
<stop offset="0.00558659" stop-color="#A65953"/>
<stop offset="1" stop-color="#D09270"/>
</linearGradient>
<linearGradient id="paint21_linear_21_7427" x1="251.606" y1="29.2373" x2="223.684" y2="15.77" gradientUnits="userSpaceOnUse">
<stop stop-color="#0F0F0F"/>
<stop offset="0.0001" stop-opacity="0.984375"/>
<stop offset="1" stop-opacity="0"/>
<stop offset="1" stop-opacity="0"/>
</linearGradient>
<linearGradient id="paint22_linear_21_7427" x1="248.055" y1="2.41041" x2="245.698" y2="25.9423" gradientUnits="userSpaceOnUse">
<stop stop-color="#85BB59"/>
<stop offset="1" stop-color="#016B00"/>
</linearGradient>
<linearGradient id="paint23_linear_21_7427" x1="247.629" y1="6.05271" x2="247.607" y2="8.60048" gradientUnits="userSpaceOnUse">
<stop stop-color="#016B00"/>
<stop offset="1" stop-color="#85BB59"/>
</linearGradient>
<linearGradient id="paint24_linear_21_7427" x1="227.933" y1="31.1754" x2="237.824" y2="23.6674" gradientUnits="userSpaceOnUse">
<stop stop-color="#C4C4C4"/>
<stop offset="0.0001" stop-opacity="0.984375"/>
<stop offset="1" stop-opacity="0"/>
<stop offset="1" stop-opacity="0"/>
</linearGradient>
<linearGradient id="paint25_linear_21_7427" x1="262.715" y1="30.8687" x2="252.185" y2="21.7125" gradientUnits="userSpaceOnUse">
<stop stop-color="#C4C4C4"/>
<stop offset="0.0001" stop-opacity="0.984375"/>
<stop offset="1" stop-opacity="0"/>
<stop offset="1" stop-opacity="0"/>
</linearGradient>
<linearGradient id="paint26_linear_21_7427" x1="253.371" y1="21.451" x2="254.232" y2="11.1825" gradientUnits="userSpaceOnUse">
<stop stop-color="#25863A"/>
<stop offset="1" stop-color="#020300"/>
</linearGradient>
<linearGradient id="paint27_linear_21_7427" x1="252.075" y1="29.8138" x2="249.759" y2="10.3731" gradientUnits="userSpaceOnUse">
<stop stop-color="#98C55F"/>
<stop offset="0.224714" stop-color="#489744"/>
<stop offset="0.464952" stop-color="#AED166"/>
<stop offset="0.692728" stop-color="#7AB354"/>
<stop offset="1" stop-color="#AED166"/>
</linearGradient>
<linearGradient id="paint28_linear_21_7427" x1="252.297" y1="29.8084" x2="250.044" y2="10.3577" gradientUnits="userSpaceOnUse">
<stop stop-color="#98C55F"/>
<stop offset="0.224714" stop-color="#489744"/>
<stop offset="0.464952" stop-color="#AED166"/>
<stop offset="0.692728" stop-color="#7AB354"/>
<stop offset="1" stop-color="#AED166"/>
</linearGradient>
<linearGradient id="paint29_linear_21_7427" x1="238.136" y1="24.3099" x2="238.784" y2="13.0737" gradientUnits="userSpaceOnUse">
<stop stop-color="#25863A"/>
<stop offset="1" stop-color="#020300"/>
</linearGradient>
<linearGradient id="paint30_linear_21_7427" x1="238.166" y1="30.2983" x2="241.46" y2="11.3987" gradientUnits="userSpaceOnUse">
<stop stop-color="#98C55F"/>
<stop offset="0.177848" stop-color="#489744"/>
<stop offset="0.464332" stop-color="#AED166"/>
<stop offset="0.697907" stop-color="#7AB354"/>
<stop offset="0.857818" stop-color="#AED166"/>
</linearGradient>
<linearGradient id="paint31_linear_21_7427" x1="238.166" y1="30.2983" x2="241.46" y2="11.3987" gradientUnits="userSpaceOnUse">
<stop stop-color="#98C55F"/>
<stop offset="0.177848" stop-color="#489744"/>
<stop offset="0.464332" stop-color="#AED166"/>
<stop offset="0.697907" stop-color="#7AB354"/>
<stop offset="0.857818" stop-color="#AED166"/>
</linearGradient>
</defs>
</svg>
