<svg width="48" height="48" viewBox="0 0 48 48" fill="none" xmlns="http://www.w3.org/2000/svg">
<path d="M46.7122 32.4396C47.4799 32.8783 48.138 29.1494 47.9735 34.0847C47.9735 34.7428 47.5896 35.4008 46.767 35.8944L27.0804 47.3006C25.4352 48.2328 22.7482 48.2328 21.1031 47.3006L1.30668 35.8944C0.484119 35.4008 0.100254 34.7976 0.0454165 34.1396C-0.173934 28.7655 0.429278 32.8783 1.25184 32.3848L20.9385 20.9786C22.5837 20.0463 25.2707 20.0463 26.9158 20.9786L46.7122 32.4396Z" fill="url(#paint0_linear_21_6465)"/>
<g filter="url(#filter0_ii_21_6465)">
<path fill-rule="evenodd" clip-rule="evenodd" d="M46.4 29.1625C48.5223 30.3878 48.5334 32.3746 46.425 33.5998L27.9036 44.3632C25.7951 45.5888 22.3651 45.5888 20.2428 44.3632L1.59915 33.5994C-0.523195 32.374 -0.53449 30.3872 1.57414 29.1619L20.0953 18.3987C22.204 17.1733 25.6338 17.1733 27.7561 18.3985L46.4 29.1625Z" fill="url(#paint1_linear_21_6465)"/>
</g>
<g filter="url(#filter1_d_21_6465)">
<path fill-rule="evenodd" clip-rule="evenodd" d="M11.3416 23.4547C11.3416 23.4547 11.6108 24.339 11.7499 24.6943C11.889 25.0497 12.1946 25.2398 12.1946 25.2398L12.5184 25.0827C12.5184 25.0827 12.3338 25.5951 12.954 25.8017C13.5743 26.0082 13.8981 25.8511 13.8981 25.8511C13.8981 25.8511 14.0008 26.9008 14.6302 26.9337C15.2596 26.9667 14.9449 26.9502 15.1022 26.9585C15.2596 26.9667 15.4442 26.4543 15.4442 26.4543C15.4442 26.4543 16.1854 27.3633 16.5183 27.0327C16.8512 26.7021 17.1476 27.0657 17.1476 27.0657C17.1476 27.0657 18.2399 27.297 18.2581 26.9498C18.2763 26.6027 18.1281 26.4209 18.1281 26.4209C18.1281 26.4209 19.0539 26.8175 19.535 26.6687C20.0161 26.5199 19.7197 26.1562 19.7197 26.1562L21.7742 26.0899C21.7742 26.0899 20.7092 25.3379 20.5791 24.809C20.4491 24.2801 20.0407 23.0404 19.5687 23.0157C19.0967 22.9909 18.7729 23.148 18.7729 23.148C18.7729 23.148 18.9666 22.462 18.3464 22.2554C17.7261 22.0489 17.2359 22.3713 17.2359 22.3713C17.2359 22.3713 17.587 21.6935 16.9576 21.6605C16.3282 21.6276 15.3933 21.4045 15.2178 21.7434C15.0422 22.0823 15.0877 21.2145 14.4493 21.3551C13.8108 21.4956 13.0059 21.8015 12.8395 21.9668C12.673 22.1322 12.1828 22.4545 12.0164 22.6199C11.85 22.7852 11.3416 23.4547 11.3416 23.4547Z" fill="url(#paint2_linear_21_6465)"/>
</g>
<path d="M19.3908 22.676L17.2484 24.3709L16.5648 24.335L19.3908 22.676ZM17.4097 24.5592L19.0218 26.4509L16.5648 24.335L17.4097 24.5592ZM17.8832 22.0543L15.3796 24.092L14.5358 23.8669L17.8832 22.0543ZM15.3702 24.2724L16.1102 26.4792L14.697 24.0562L15.3702 24.2724ZM15.5118 21.5692L13.6815 23.8221L13.0083 23.6059L15.5118 21.5692ZM13.672 24.0025L14.2518 26.02L12.8282 23.7774L13.672 24.0025Z" fill="#28725A"/>
<path fill-rule="evenodd" clip-rule="evenodd" d="M11.6499 23.5519L19.7165 24.7878C19.7165 24.7878 11.7942 23.966 11.8012 23.8309C11.8083 23.6957 11.6499 23.5519 11.6499 23.5519Z" fill="#2FB589"/>
<g filter="url(#filter2_d_21_6465)">
<path fill-rule="evenodd" clip-rule="evenodd" d="M24.3338 25.8907C24.3338 25.8907 24.603 26.775 24.7422 27.1303C24.8813 27.4857 25.1869 27.6757 25.1869 27.6757L25.5107 27.5187C25.5107 27.5187 25.3261 28.0311 25.9463 28.2377C26.5666 28.4442 26.8904 28.2871 26.8904 28.2871C26.8904 28.2871 26.9931 29.3367 27.6225 29.3697C28.2519 29.4027 27.9372 29.3862 28.0945 29.3945C28.2519 29.4027 28.4365 28.8903 28.4365 28.8903C28.4365 28.8903 29.1777 29.7993 29.5106 29.4687C29.8434 29.138 30.1399 29.5017 30.1399 29.5017C30.1399 29.5017 31.2322 29.7329 31.2504 29.3858C31.2686 29.0387 31.1204 28.8569 31.1204 28.8569C31.1204 28.8569 32.0462 29.2535 32.5273 29.1047C33.0084 28.9558 32.7119 28.5922 32.7119 28.5922L34.7665 28.5259C34.7665 28.5259 33.7015 27.7739 33.5714 27.245C33.4414 26.716 33.033 25.4764 32.561 25.4516C32.089 25.4269 31.7652 25.584 31.7652 25.584C31.7652 25.584 31.9589 24.898 31.3387 24.6914C30.7184 24.4849 30.2282 24.8073 30.2282 24.8073C30.2282 24.8073 30.5792 24.1295 29.9499 24.0965C29.3205 24.0635 28.3856 23.8405 28.2101 24.1794C28.0345 24.5183 28.08 23.6505 27.4415 23.791C26.8031 23.9316 25.9982 24.2375 25.8318 24.4028C25.6653 24.5681 25.1751 24.8905 25.0087 25.0558C24.8422 25.2212 24.3338 25.8907 24.3338 25.8907Z" fill="url(#paint3_linear_21_6465)"/>
</g>
<path d="M32.3831 25.112L30.2407 26.8068L29.5571 26.771L32.3831 25.112ZM30.402 26.9952L32.0141 28.8868L29.5571 26.771L30.402 26.9952ZM30.8755 24.4903L28.3719 26.528L27.5281 26.3029L30.8755 24.4903ZM28.3625 26.7084L29.1025 28.9152L27.6893 26.4922L28.3625 26.7084ZM28.5041 24.0051L26.6738 26.2581L26.0006 26.0419L28.5041 24.0051ZM26.6643 26.4385L27.2441 28.456L25.8205 26.2134L26.6643 26.4385Z" fill="#28725A"/>
<path fill-rule="evenodd" clip-rule="evenodd" d="M24.6422 25.9879L32.7088 27.2237C32.7088 27.2237 24.7865 26.402 24.7935 26.2668C24.8006 26.1317 24.6422 25.9879 24.6422 25.9879Z" fill="#2FB589"/>
<path opacity="0.286405" fill-rule="evenodd" clip-rule="evenodd" d="M20.7966 30.2709L20.7844 34.5776C20.869 35.8016 22.7479 36.1765 23.7953 36.0497C24.5752 35.9573 25.5152 35.6848 25.8578 34.9065C25.8944 34.8057 25.9156 34.6996 25.9164 34.5922C25.9164 34.5922 25.9233 32.1514 25.9287 30.2709H20.7966Z" fill="#0B0B0B"/>
<path fill-rule="evenodd" clip-rule="evenodd" d="M20.7966 29.4589L20.7844 33.7656C20.869 34.9896 22.7479 35.3645 23.7953 35.2377C24.5752 35.1453 25.5152 34.8728 25.8578 34.0945C25.8944 33.9937 25.9156 33.8876 25.9164 33.7802C25.9164 33.7802 25.9233 31.3394 25.9287 29.4589H20.7966Z" fill="#E2E4E3"/>
<path fill-rule="evenodd" clip-rule="evenodd" d="M28.334 28.743C25.6142 30.6104 21.007 30.5985 18.3086 28.6635C18.9234 29.1278 19.5536 29.6039 20.1669 30.0672C20.3403 30.1981 20.525 30.3377 20.6977 30.4682C21.9455 31.5126 24.1805 31.5696 25.566 30.7881C25.5862 30.8379 28.3023 28.7457 28.4044 28.6921C28.3814 28.7092 28.3575 28.726 28.334 28.743Z" fill="#770017"/>
<g filter="url(#filter3_i_21_6465)">
<path fill-rule="evenodd" clip-rule="evenodd" d="M29.7349 13.1841C29.402 15.6242 26.1786 16.532 24.0748 16.6645C21.5875 16.8759 17.1482 15.8691 17.0099 12.9802L16.9718 26.412C16.9082 28.4335 19.8696 29.8032 21.7928 30.0045C24.1424 30.3137 26.792 30.0122 28.6702 28.4559C29.1582 28.0258 29.5616 27.4623 29.6719 26.8114C29.6928 26.6914 29.7035 26.5702 29.7041 26.4486L29.7422 13.0168C29.742 13.0726 29.7394 13.1284 29.7349 13.1841Z" fill="url(#paint4_linear_21_6465)"/>
</g>
<g filter="url(#filter4_i_21_6465)">
<path fill-rule="evenodd" clip-rule="evenodd" d="M31.2767 13.6366C31.3716 12.4405 30.6061 11.3722 29.6855 10.6838C27.6402 9.34796 25.4424 8.24621 23.34 6.99986C22.5059 7.47986 21.6672 7.96661 20.8336 8.44687C19.8126 9.0364 18.7915 9.62586 17.7704 10.2154C17.0461 10.6359 16.3697 11.1788 15.917 11.892C14.4733 14.1851 16.489 16.2734 18.5745 17.1298C21.5076 18.3522 24.9567 18.361 27.9135 17.2095C29.4444 16.5775 31.1192 15.4241 31.2767 13.6366Z" fill="url(#paint5_radial_21_6465)"/>
<path fill-rule="evenodd" clip-rule="evenodd" d="M31.2767 13.6366C31.3716 12.4405 30.6061 11.3722 29.6855 10.6838C27.6402 9.34796 25.4424 8.24621 23.34 6.99986C22.5059 7.47986 21.6672 7.96661 20.8336 8.44687C19.8126 9.0364 18.7915 9.62586 17.7704 10.2154C17.0461 10.6359 16.3697 11.1788 15.917 11.892C14.4733 14.1851 16.489 16.2734 18.5745 17.1298C21.5076 18.3522 24.9567 18.361 27.9135 17.2095C29.4444 16.5775 31.1192 15.4241 31.2767 13.6366Z" fill="url(#paint6_linear_21_6465)"/>
<path fill-rule="evenodd" clip-rule="evenodd" d="M31.2767 13.6366C31.3716 12.4405 30.6061 11.3722 29.6855 10.6838C27.6402 9.34796 25.4424 8.24621 23.34 6.99986C22.5059 7.47986 21.6672 7.96661 20.8336 8.44687C19.8126 9.0364 18.7915 9.62586 17.7704 10.2154C17.0461 10.6359 16.3697 11.1788 15.917 11.892C14.4733 14.1851 16.489 16.2734 18.5745 17.1298C21.5076 18.3522 24.9567 18.361 27.9135 17.2095C29.4444 16.5775 31.1192 15.4241 31.2767 13.6366Z" fill="url(#paint7_linear_21_6465)"/>
</g>
<g filter="url(#filter5_i_21_6465)">
<path fill-rule="evenodd" clip-rule="evenodd" d="M23.34 6.99986C22.5059 7.47986 21.6672 7.96661 20.8336 8.44687C19.8126 9.0364 18.7915 9.62586 17.7704 10.2154C17.0461 10.6359 16.3697 11.1788 15.917 11.892C14.4733 14.1851 16.489 16.2734 18.5745 17.1298" fill="url(#paint8_linear_21_6465)"/>
</g>
<rect x="21.1125" y="19.9273" width="4.06009" height="7.30817" rx="2.03009" fill="url(#paint9_linear_21_6465)"/>
<path fill-rule="evenodd" clip-rule="evenodd" d="M33.1884 24.7993C33.1884 24.7993 31.9703 25.2865 31.4831 25.5301C30.9959 25.7737 30.7523 26.2609 30.7523 26.2609L30.9959 26.7481C30.9959 26.7481 30.2651 26.5045 30.0215 27.479C29.7779 28.4534 30.0215 28.9406 30.0215 28.9406C30.0215 28.9406 28.5599 29.1842 28.5599 30.1586C28.5599 31.133 28.5599 30.6458 28.5599 30.8894C28.5599 31.133 29.2907 31.3767 29.2907 31.3767C29.2907 31.3767 28.0726 32.5947 28.5599 33.0819C29.0471 33.5691 28.5599 34.0563 28.5599 34.0563C28.5599 34.0563 28.3163 35.7616 28.8035 35.7616C29.2907 35.7616 29.5343 35.5179 29.5343 35.5179C29.5343 35.5179 29.0471 36.9796 29.2907 37.7104C29.5343 38.4412 30.0215 37.954 30.0215 37.954L30.2651 41.1209C30.2651 41.1209 31.2395 39.4156 31.9703 39.172C32.7012 38.9284 34.4064 38.1976 34.4064 37.4668C34.4064 36.736 34.1628 36.2488 34.1628 36.2488C34.1628 36.2488 35.1372 36.4924 35.3808 35.5179C35.6244 34.5435 35.1372 33.8127 35.1372 33.8127C35.1372 33.8127 36.1116 34.2999 36.1116 33.3255C36.1116 32.3511 36.3552 30.8894 35.868 30.6458C35.3808 30.4022 36.5988 30.4022 36.3552 29.4278C36.1116 28.4534 35.6244 27.2354 35.3808 26.9918C35.1372 26.7481 34.65 26.0173 34.4064 25.7737C34.1628 25.5301 33.1884 24.7993 33.1884 24.7993Z" fill="url(#paint10_linear_21_6465)"/>
<path d="M34.4063 36.0051L31.9699 33.0823V32.1077L34.4063 36.0051ZM31.7267 33.3255L29.2902 35.762L31.9699 32.1077L31.7267 33.3255ZM35.1368 33.8128L32.214 30.4027L32.4571 29.185L35.1368 33.8128ZM31.9699 30.4027L29.0471 31.6205L32.214 29.4281L31.9699 30.4027ZM35.6241 30.4027L32.4571 27.9662L32.7013 26.9916L35.6241 30.4027ZM32.214 27.9662L29.5344 28.9408L32.4571 26.7485L32.214 27.9662Z" fill="#28725A"/>
<path fill-rule="evenodd" clip-rule="evenodd" d="M32.9448 24.7993L31.4831 36.736C31.4831 36.736 32.2139 25.0429 32.4575 25.0429C32.7012 25.0429 32.9448 24.7993 32.9448 24.7993Z" fill="#2FB589"/>
<path fill-rule="evenodd" clip-rule="evenodd" d="M29.2562 37.8035C29.2562 37.8035 28.6639 37.285 28.401 37.0909C28.138 36.8968 27.8112 36.8993 27.8112 36.8993L27.6171 37.1623C27.6171 37.1623 27.5482 36.7052 26.961 36.8404C26.3737 36.9756 26.1796 37.2385 26.1796 37.2385C26.1796 37.2385 25.6512 36.5235 25.1303 36.7889C24.6093 37.0543 24.8698 36.9216 24.7396 36.988C24.6093 37.0543 24.6782 37.5114 24.6782 37.5114C24.6782 37.5114 23.6952 37.192 23.5675 37.5852C23.4397 37.9784 23.0465 37.8506 23.0465 37.8506C23.0465 37.8506 22.0686 38.1849 22.2013 38.4454C22.334 38.7058 22.5306 38.7697 22.5306 38.7697C22.5306 38.7697 21.6165 38.9074 21.2921 39.2367C20.9678 39.566 21.361 39.6937 21.361 39.6937L19.7343 40.6866C19.7343 40.6866 20.9113 40.743 21.2406 41.0674C21.57 41.3917 22.4251 42.1043 22.8158 41.9052C23.2065 41.7061 23.4006 41.4432 23.4006 41.4432C23.4006 41.4432 23.5358 42.0305 24.1231 41.8953C24.7104 41.7601 24.9684 41.3006 24.9684 41.3006C24.9684 41.3006 24.9734 41.9542 25.4943 41.6888C26.0152 41.4233 26.863 41.1554 26.8605 40.8286C26.858 40.5018 27.1898 41.153 27.6444 40.7573C28.0989 40.3616 28.6174 39.7694 28.6813 39.5728C28.7451 39.3762 29.0031 38.9167 29.067 38.7201C29.1309 38.5235 29.2562 37.8035 29.2562 37.8035Z" fill="url(#paint11_linear_21_6465)"/>
<path d="M23.597 41.5073L24.496 39.4086L25.0172 39.143L23.597 41.5073ZM24.2999 39.3441L22.3341 38.7061L25.0172 39.143L24.2999 39.3441ZM24.9681 41.3008L25.9956 38.8089L26.7125 38.6069L24.9681 41.3008ZM25.9291 38.6784L24.4811 37.4477L26.5168 38.5433L25.9291 38.6784ZM26.9244 40.6318L27.3642 38.2748L27.951 38.1402L26.9244 40.6318ZM27.2981 38.1452L26.0468 36.9777L28.015 37.9432L27.2981 38.1452Z" fill="#28725A"/>
<path fill-rule="evenodd" clip-rule="evenodd" d="M29.1898 37.6737L22.4103 40.1438C22.4103 40.1438 28.8605 37.3494 28.9269 37.4796C28.9932 37.6098 29.1898 37.6737 29.1898 37.6737Z" fill="#2FB589"/>
<path fill-rule="evenodd" clip-rule="evenodd" d="M8.6001 30.2872C8.6001 30.2872 8.59555 31.5991 8.63891 32.1421C8.68226 32.6851 9.04274 33.0935 9.04274 33.0935L9.58573 33.0501C9.58573 33.0501 9.0861 33.6364 9.89831 34.2273C10.7105 34.8182 11.2535 34.7749 11.2535 34.7749C11.2535 34.7749 10.9318 36.2213 11.8353 36.5864C12.7388 36.9514 12.287 36.7689 12.5129 36.8601C12.7388 36.9514 13.2384 36.365 13.2384 36.365C13.2384 36.365 13.9115 37.9507 14.5457 37.6814C15.18 37.4122 15.4492 38.0465 15.4492 38.0465C15.4492 38.0465 16.939 38.9111 17.1215 38.4594C17.304 38.0077 17.1694 37.6905 17.1694 37.6905C17.1694 37.6905 18.3421 38.6898 19.111 38.7377C19.8798 38.7856 19.6106 38.1514 19.6106 38.1514L22.6381 39.1118C22.6381 39.1118 21.4221 37.5696 21.47 36.8007C21.5179 36.0318 21.4791 34.177 20.8015 33.9032C20.1239 33.6295 19.5809 33.6728 19.5809 33.6728C19.5809 33.6728 20.1718 32.8606 19.3596 32.2697C18.5474 31.6788 17.6872 31.8568 17.6872 31.8568C17.6872 31.8568 18.504 31.1358 17.6005 30.7708C16.6971 30.4058 15.4331 29.6324 15.0247 29.9929C14.6164 30.3533 15.0726 29.224 14.0779 29.0848C13.0832 28.9457 11.7713 28.9411 11.4542 29.0757C11.1371 29.2104 10.277 29.3883 9.95985 29.5229C9.64273 29.6575 8.6001 30.2872 8.6001 30.2872Z" fill="url(#paint12_linear_21_6465)"/>
<path d="M19.4459 33.3558L15.8236 34.519L14.92 34.1539L19.4459 33.3558ZM15.9576 34.8365L17.3043 38.0074L14.92 34.1539L15.9576 34.8365ZM17.6868 31.8572L13.4302 33.2898L12.3922 32.6081L17.6868 31.8572ZM13.3391 33.5152L13.3729 36.6823L12.5265 32.9247L13.3391 33.5152ZM14.7076 30.128L11.2622 32.1516L10.45 31.5602L14.7076 30.128ZM11.1711 32.3771L11.0709 35.2267L10.1331 31.6954L11.1711 32.3771Z" fill="#28725A"/>
<path fill-rule="evenodd" clip-rule="evenodd" d="M8.50885 30.5133L19.0288 36.34C19.0288 36.34 8.46095 31.2821 8.5522 31.0563C8.64346 30.8304 8.50885 30.5133 8.50885 30.5133Z" fill="#2FB589"/>
<defs>
<filter id="filter0_ii_21_6465" x="0" y="17.4796" width="47.999" height="27.8027" filterUnits="userSpaceOnUse" color-interpolation-filters="sRGB">
<feFlood flood-opacity="0" result="BackgroundImageFix"/>
<feBlend mode="normal" in="SourceGraphic" in2="BackgroundImageFix" result="shape"/>
<feColorMatrix in="SourceAlpha" type="matrix" values="0 0 0 0 0 0 0 0 0 0 0 0 0 0 0 0 0 0 127 0" result="hardAlpha"/>
<feOffset dy="-1"/>
<feComposite in2="hardAlpha" operator="arithmetic" k2="-1" k3="1"/>
<feColorMatrix type="matrix" values="0 0 0 0 1 0 0 0 0 1 0 0 0 0 1 0 0 0 0.3 0"/>
<feBlend mode="normal" in2="shape" result="effect1_innerShadow_21_6465"/>
<feColorMatrix in="SourceAlpha" type="matrix" values="0 0 0 0 0 0 0 0 0 0 0 0 0 0 0 0 0 0 127 0" result="hardAlpha"/>
<feOffset/>
<feGaussianBlur stdDeviation="4.5"/>
<feComposite in2="hardAlpha" operator="arithmetic" k2="-1" k3="1"/>
<feColorMatrix type="matrix" values="0 0 0 0 1 0 0 0 0 1 0 0 0 0 1 0 0 0 0.3 0"/>
<feBlend mode="normal" in2="effect1_innerShadow_21_6465" result="effect2_innerShadow_21_6465"/>
</filter>
<filter id="filter1_d_21_6465" x="9.34159" y="21.3394" width="12.4326" height="5.80164" filterUnits="userSpaceOnUse" color-interpolation-filters="sRGB">
<feFlood flood-opacity="0" result="BackgroundImageFix"/>
<feColorMatrix in="SourceAlpha" type="matrix" values="0 0 0 0 0 0 0 0 0 0 0 0 0 0 0 0 0 0 127 0" result="hardAlpha"/>
<feOffset dx="-2"/>
<feColorMatrix type="matrix" values="0 0 0 0 0.238233 0 0 0 0 0.308979 0 0 0 0 0.274604 0 0 0 0.7 0"/>
<feBlend mode="normal" in2="BackgroundImageFix" result="effect1_dropShadow_21_6465"/>
<feBlend mode="normal" in="SourceGraphic" in2="effect1_dropShadow_21_6465" result="shape"/>
</filter>
<filter id="filter2_d_21_6465" x="22.3339" y="23.7754" width="12.4326" height="5.80164" filterUnits="userSpaceOnUse" color-interpolation-filters="sRGB">
<feFlood flood-opacity="0" result="BackgroundImageFix"/>
<feColorMatrix in="SourceAlpha" type="matrix" values="0 0 0 0 0 0 0 0 0 0 0 0 0 0 0 0 0 0 127 0" result="hardAlpha"/>
<feOffset dx="-2"/>
<feColorMatrix type="matrix" values="0 0 0 0 0.238233 0 0 0 0 0.308979 0 0 0 0 0.274604 0 0 0 0.7 0"/>
<feBlend mode="normal" in2="BackgroundImageFix" result="effect1_dropShadow_21_6465"/>
<feBlend mode="normal" in="SourceGraphic" in2="effect1_dropShadow_21_6465" result="shape"/>
</filter>
<filter id="filter3_i_21_6465" x="16.9708" y="12.9802" width="12.7713" height="17.133" filterUnits="userSpaceOnUse" color-interpolation-filters="sRGB">
<feFlood flood-opacity="0" result="BackgroundImageFix"/>
<feBlend mode="normal" in="SourceGraphic" in2="BackgroundImageFix" result="shape"/>
<feColorMatrix in="SourceAlpha" type="matrix" values="0 0 0 0 0 0 0 0 0 0 0 0 0 0 0 0 0 0 127 0" result="hardAlpha"/>
<feOffset dy="3"/>
<feComposite in2="hardAlpha" operator="arithmetic" k2="-1" k3="1"/>
<feColorMatrix type="matrix" values="0 0 0 0 0 0 0 0 0 0 0 0 0 0 0 0 0 0 0.18 0"/>
<feBlend mode="normal" in2="shape" result="effect1_innerShadow_21_6465"/>
</filter>
<filter id="filter4_i_21_6465" x="15.4284" y="6.99986" width="15.8563" height="11.0603" filterUnits="userSpaceOnUse" color-interpolation-filters="sRGB">
<feFlood flood-opacity="0" result="BackgroundImageFix"/>
<feBlend mode="normal" in="SourceGraphic" in2="BackgroundImageFix" result="shape"/>
<feColorMatrix in="SourceAlpha" type="matrix" values="0 0 0 0 0 0 0 0 0 0 0 0 0 0 0 0 0 0 127 0" result="hardAlpha"/>
<feOffset dy="-1"/>
<feComposite in2="hardAlpha" operator="arithmetic" k2="-1" k3="1"/>
<feColorMatrix type="matrix" values="0 0 0 0 0.388264 0 0 0 0 0.0375784 0 0 0 0 0.0375784 0 0 0 0.1 0"/>
<feBlend mode="normal" in2="shape" result="effect1_innerShadow_21_6465"/>
</filter>
<filter id="filter5_i_21_6465" x="15.4284" y="6.99986" width="7.91163" height="10.1297" filterUnits="userSpaceOnUse" color-interpolation-filters="sRGB">
<feFlood flood-opacity="0" result="BackgroundImageFix"/>
<feBlend mode="normal" in="SourceGraphic" in2="BackgroundImageFix" result="shape"/>
<feColorMatrix in="SourceAlpha" type="matrix" values="0 0 0 0 0 0 0 0 0 0 0 0 0 0 0 0 0 0 127 0" result="hardAlpha"/>
<feOffset dy="-1"/>
<feComposite in2="hardAlpha" operator="arithmetic" k2="-1" k3="1"/>
<feColorMatrix type="matrix" values="0 0 0 0 0.388264 0 0 0 0 0.0375784 0 0 0 0 0.0375784 0 0 0 0.1 0"/>
<feBlend mode="normal" in2="shape" result="effect1_innerShadow_21_6465"/>
</filter>
<linearGradient id="paint0_linear_21_6465" x1="51.3593" y1="22.5642" x2="0" y2="22.5642" gradientUnits="userSpaceOnUse">
<stop stop-color="#4E75A0"/>
<stop offset="1" stop-color="#1F2966"/>
</linearGradient>
<linearGradient id="paint1_linear_21_6465" x1="27.1713" y1="17.0202" x2="14.5397" y2="39.1234" gradientUnits="userSpaceOnUse">
<stop stop-color="#5D5C75"/>
<stop offset="1" stop-color="#244B5B"/>
</linearGradient>
<linearGradient id="paint2_linear_21_6465" x1="9.38852" y1="25.768" x2="16.8104" y2="31.7719" gradientUnits="userSpaceOnUse">
<stop stop-color="#2A6C57"/>
<stop offset="1" stop-color="#8EBE92"/>
</linearGradient>
<linearGradient id="paint3_linear_21_6465" x1="22.3808" y1="28.2039" x2="29.8027" y2="34.2079" gradientUnits="userSpaceOnUse">
<stop stop-color="#2A6C57"/>
<stop offset="1" stop-color="#8EBE92"/>
</linearGradient>
<linearGradient id="paint4_linear_21_6465" x1="29.7422" y1="13.8207" x2="16.9708" y2="13.8207" gradientUnits="userSpaceOnUse">
<stop stop-color="#B41333"/>
<stop offset="0.521328" stop-color="#F44C72"/>
<stop offset="0.798456" stop-color="#D32149"/>
<stop offset="1" stop-color="#9A0227"/>
</linearGradient>
<radialGradient id="paint5_radial_21_6465" cx="0" cy="0" r="1" gradientUnits="userSpaceOnUse" gradientTransform="translate(23.8881 7.56451) rotate(90) scale(10.4957 15.0468)">
<stop stop-color="#FF3F5F"/>
<stop offset="1" stop-color="#D32149"/>
</radialGradient>
<linearGradient id="paint6_linear_21_6465" x1="15.4284" y1="12.53" x2="31.2847" y2="12.53" gradientUnits="userSpaceOnUse">
<stop stop-color="#FF3F5F"/>
<stop offset="0.757414" stop-color="#D32149" stop-opacity="0.01"/>
</linearGradient>
<linearGradient id="paint7_linear_21_6465" x1="26.6541" y1="7.17325" x2="23.4908" y2="10.847" gradientUnits="userSpaceOnUse">
<stop stop-color="#E6AB97"/>
<stop offset="1" stop-color="#561212" stop-opacity="0.01"/>
</linearGradient>
<linearGradient id="paint8_linear_21_6465" x1="15.4284" y1="12.0648" x2="23.34" y2="12.0648" gradientUnits="userSpaceOnUse">
<stop offset="0.124321" stop-color="#FF798F"/>
<stop offset="0.757414" stop-color="#D32149" stop-opacity="0.01"/>
</linearGradient>
<linearGradient id="paint9_linear_21_6465" x1="21.6814" y1="18.6375" x2="21.6814" y2="27.2355" gradientUnits="userSpaceOnUse">
<stop stop-color="#7D1D3E"/>
<stop offset="1" stop-color="#7E0F29"/>
</linearGradient>
<linearGradient id="paint10_linear_21_6465" x1="29.8071" y1="21.9709" x2="20.9092" y2="33.0851" gradientUnits="userSpaceOnUse">
<stop stop-color="#2A6C57"/>
<stop offset="1" stop-color="#8EBE92"/>
</linearGradient>
<linearGradient id="paint11_linear_21_6465" x1="29.8472" y1="35.2254" x2="21.4818" y2="33.496" gradientUnits="userSpaceOnUse">
<stop stop-color="#2A6C57"/>
<stop offset="1" stop-color="#8EBE92"/>
</linearGradient>
<linearGradient id="paint12_linear_21_6465" x1="4.71105" y1="32.3628" x2="11.6827" y2="44.7762" gradientUnits="userSpaceOnUse">
<stop stop-color="#2A6C57"/>
<stop offset="1" stop-color="#8EBE92"/>
</linearGradient>
</defs>
</svg>
