<svg width="48" height="48" viewBox="0 0 48 48" fill="none" xmlns="http://www.w3.org/2000/svg">
<path opacity="0.354781" d="M46.7132 31.9608C47.4809 32.3995 48.139 28.6705 47.9744 33.6059C47.9744 34.264 47.5906 34.9221 46.768 35.4156L27.0809 46.8221C25.4357 47.7543 22.7486 47.7543 21.1035 46.8221L1.30671 35.4156C0.484129 34.9221 0.100256 34.3188 0.0454174 33.6608C-0.173937 28.2866 0.429287 32.3995 1.25187 31.9059L20.939 20.4995C22.5841 19.5672 25.2712 19.5672 26.9164 20.4995L46.7132 31.9608Z" fill="url(#paint0_linear_21_7065)" fill-opacity="0.7"/>
<g opacity="0.615047" filter="url(#filter0_i_21_7065)">
<path fill-rule="evenodd" clip-rule="evenodd" d="M46.4009 28.6831C48.5233 29.9085 48.5344 31.8953 46.4259 33.1205L27.9041 43.8841C25.7957 45.1097 22.3656 45.1097 20.2432 43.8841L1.59918 33.1201C-0.523205 31.8947 -0.534501 29.9079 1.57417 28.6825L20.0957 17.9191C22.2044 16.6937 25.6343 16.6937 27.7567 17.9189L46.4009 28.6831Z" fill="url(#paint1_linear_21_7065)" fill-opacity="0.3"/>
<path fill-rule="evenodd" clip-rule="evenodd" d="M46.4009 28.6831C48.5233 29.9085 48.5344 31.8953 46.4259 33.1205L27.9041 43.8841C25.7957 45.1097 22.3656 45.1097 20.2432 43.8841L1.59918 33.1201C-0.523205 31.8947 -0.534501 29.9079 1.57417 28.6825L20.0957 17.9191C22.2044 16.6937 25.6343 16.6937 27.7567 17.9189L46.4009 28.6831Z" fill="url(#paint2_linear_21_7065)" fill-opacity="0.3"/>
</g>
<path fill-rule="evenodd" clip-rule="evenodd" d="M32.193 12.5726C32.7111 12.4249 33.2933 12.4439 33.7643 12.7223L33.7636 12.7219C33.7639 12.7221 33.7641 12.7222 33.7643 12.7223L30.2967 10.7072C30.2272 10.6686 30.1565 10.6312 30.0822 10.6019C29.5589 10.3826 28.9605 10.4499 28.4414 10.651L31.909 12.6661C32.0032 12.6298 32.0969 12.5999 32.193 12.5726Z" fill="url(#paint3_linear_21_7065)"/>
<path fill-rule="evenodd" clip-rule="evenodd" d="M27.4228 11.3945C28.2795 10.522 29.6743 9.5794 30.9059 10.224C30.7528 10.1538 27.149 7.98759 27.0828 8.05943C25.7817 7.74435 24.5084 8.74104 23.6946 9.66186L27.1622 11.677C27.2479 11.5813 27.3323 11.4849 27.4228 11.3945Z" fill="url(#paint4_linear_21_7065)"/>
<path fill-rule="evenodd" clip-rule="evenodd" d="M14.4767 25.8886C14.6256 23.429 15.8909 21.0638 17.665 19.3838H17.6649H17.665L14.1974 17.3687C12.1148 19.2576 10.1816 23.2143 11.3562 25.9567C11.5722 26.4177 11.8821 26.7894 12.3112 27.0408L15.7788 29.0559C14.9107 28.5989 14.3827 27.2862 14.4767 25.8886Z" fill="url(#paint5_linear_21_7065)"/>
<path opacity="0.3" d="M33.0332 12.4897C34.1779 12.6012 34.9087 13.6973 34.9131 15.2349C34.9199 17.6207 33.2224 20.5154 30.6875 21.979L18.9717 28.7427C16.7735 30.0117 14.9411 29.2511 14.5488 27.0767C14.9405 26.9687 15.3513 26.7967 15.7744 26.5552L28.4697 19.3071C31.0717 17.8216 32.858 14.9604 33.0332 12.4897Z" fill="#172534"/>
<path opacity="0.8" fill-rule="evenodd" clip-rule="evenodd" d="M27.1621 11.6768C28.7438 9.73622 31.8745 8.86765 31.909 12.6659C33.6785 11.9862 34.9072 13.24 34.9128 15.2354C34.9196 17.6212 33.2219 20.5155 30.687 21.9791L18.9715 28.743C16.493 30.1739 14.478 29.0248 14.4699 26.1777C14.4632 23.8409 15.8122 21.0874 17.6649 19.3835C17.8605 16.4599 19.8876 12.7213 22.6663 11.117C24.7973 9.88668 26.4096 10.3903 27.1621 11.6768Z" fill="url(#paint6_linear_21_7065)"/>
<path fill-rule="evenodd" clip-rule="evenodd" d="M17.7172 18.8728C18.1341 16.0521 19.7786 13.1618 22.0996 11.4818C23.2651 10.6585 24.8945 9.98104 26.2473 10.7476C26.1899 10.7236 22.3692 8.46717 22.4611 8.57866C21.9213 8.36159 21.3191 8.35667 20.7547 8.47622C17.1965 9.33967 14.4528 13.8791 14.1974 17.3685V17.3686L17.665 19.3837C17.6762 19.2139 17.6951 19.0424 17.7172 18.8728Z" fill="url(#paint7_linear_21_7065)"/>
<defs>
<filter id="filter0_i_21_7065" x="0" y="17" width="48" height="27.8032" filterUnits="userSpaceOnUse" color-interpolation-filters="sRGB">
<feFlood flood-opacity="0" result="BackgroundImageFix"/>
<feBlend mode="normal" in="SourceGraphic" in2="BackgroundImageFix" result="shape"/>
<feColorMatrix in="SourceAlpha" type="matrix" values="0 0 0 0 0 0 0 0 0 0 0 0 0 0 0 0 0 0 127 0" result="hardAlpha"/>
<feOffset dy="-1"/>
<feComposite in2="hardAlpha" operator="arithmetic" k2="-1" k3="1"/>
<feColorMatrix type="matrix" values="0 0 0 0 1 0 0 0 0 1 0 0 0 0 1 0 0 0 0.6 0"/>
<feBlend mode="normal" in2="shape" result="effect1_innerShadow_21_7065"/>
</filter>
<linearGradient id="paint0_linear_21_7065" x1="24.8801" y1="7.62833" x2="4.7241" y2="45.9132" gradientUnits="userSpaceOnUse">
<stop stop-color="white"/>
<stop offset="1" stop-color="#00D0F2"/>
</linearGradient>
<linearGradient id="paint1_linear_21_7065" x1="24.8801" y1="4.79188" x2="4.63041" y2="43.141" gradientUnits="userSpaceOnUse">
<stop stop-color="white"/>
<stop offset="1" stop-color="#2EE2FF"/>
</linearGradient>
<linearGradient id="paint2_linear_21_7065" x1="21.7589" y1="53.9002" x2="46.8255" y2="16.2187" gradientUnits="userSpaceOnUse">
<stop stop-color="#EFFFFA" stop-opacity="0.01"/>
<stop offset="0.279879" stop-color="#E3FBF8" stop-opacity="0.744453"/>
<stop offset="0.281674" stop-color="#E1FAF7" stop-opacity="0.01"/>
<stop offset="1" stop-color="#BEEFF1" stop-opacity="0.01"/>
</linearGradient>
<linearGradient id="paint3_linear_21_7065" x1="34.137" y1="10.6518" x2="28.4414" y2="10.6518" gradientUnits="userSpaceOnUse">
<stop stop-color="#4E75A0"/>
<stop offset="1" stop-color="#1F2966"/>
</linearGradient>
<linearGradient id="paint4_linear_21_7065" x1="31.4107" y1="8.30307" x2="23.6946" y2="8.30307" gradientUnits="userSpaceOnUse">
<stop stop-color="#4E75A0"/>
<stop offset="1" stop-color="#1F2966"/>
</linearGradient>
<linearGradient id="paint5_linear_21_7065" x1="18.1316" y1="18.332" x2="11" y2="18.332" gradientUnits="userSpaceOnUse">
<stop stop-color="#4E75A0"/>
<stop offset="1" stop-color="#1F2966"/>
</linearGradient>
<linearGradient id="paint6_linear_21_7065" x1="25.0662" y1="1.5273" x2="8.19515" y2="21.0903" gradientUnits="userSpaceOnUse">
<stop stop-color="#75B4F3"/>
<stop offset="1" stop-color="#ACEDFF"/>
</linearGradient>
<linearGradient id="paint7_linear_21_7065" x1="27.0909" y1="9.30345" x2="14.1974" y2="9.30345" gradientUnits="userSpaceOnUse">
<stop stop-color="#4E75A0"/>
<stop offset="1" stop-color="#1F2966"/>
</linearGradient>
</defs>
</svg>
