<svg width="49" height="49" viewBox="0 0 49 49" fill="none" xmlns="http://www.w3.org/2000/svg">
<path d="M47.5613 33.1593C48.343 33.6059 49.013 29.8098 48.8455 34.8341C48.8455 35.504 48.4547 36.1739 47.6171 36.6764L27.5726 48.2881C25.8976 49.2372 23.1617 49.2372 21.4866 48.2881L1.33043 36.6764C0.492919 36.1739 0.102076 35.5599 0.046242 34.8899C-0.177096 29.419 0.437081 33.606 1.2746 33.1035L21.3192 21.4918C22.9942 20.5427 25.7301 20.5427 27.4051 21.4918L47.5613 33.1593Z" fill="url(#paint0_linear_21_5829)"/>
<g filter="url(#filter0_i_21_5829)">
<path d="M47.5609 30.6497C49.2359 31.5987 49.2359 33.2177 47.5609 34.1667L27.5163 45.7785C25.8413 46.7275 23.1054 46.7275 21.4304 45.7785L1.27417 34.1667C-0.400861 33.2177 -0.400861 31.5987 1.27417 30.6497L21.3187 19.0379C22.9938 18.0889 25.7296 18.0889 27.4047 19.0379L47.5609 30.6497Z" fill="url(#paint1_linear_21_5829)"/>
</g>
<ellipse opacity="0.3" cx="4.95384" cy="2.11898" rx="4.95384" ry="2.11898" transform="matrix(-1.01812 0 0 1.01812 23.7397 26.229)" fill="url(#paint2_linear_21_5829)"/>
<path d="M19.6442 17.5994C19.6442 17.5994 17.8555 21.623 17.7317 23.2286C17.6384 24.4383 17.9924 26.7527 18.1727 27.8206C18.2281 28.1493 18.5137 28.3862 18.847 28.3862C19.2679 28.3862 19.5925 28.0136 19.5397 27.5959C19.3826 26.3536 19.1038 23.9137 19.1038 22.2452C19.1038 19.9223 19.6442 17.5994 19.6442 17.5994Z" fill="url(#paint3_linear_21_5829)"/>
<path fill-rule="evenodd" clip-rule="evenodd" d="M22.5359 19.2004C22.4965 19.1876 20.7982 19.4483 20.3039 19.7617C19.8096 20.0751 18.5993 22.4581 18.6387 22.4709C18.6781 22.4837 19.0335 22.4637 19.1522 22.3669C19.2709 22.27 19.9052 21.2573 20.0139 21.191C20.1227 21.1248 20.4798 20.4283 20.628 20.3749C20.7762 20.3214 21.3007 19.7809 21.3995 19.7453C21.4983 19.7096 21.9531 19.3834 22.032 19.4091C22.1109 19.4347 22.5754 19.2132 22.5359 19.2004Z" fill="url(#paint4_linear_21_5829)"/>
<path d="M18.6422 22.4508C18.6422 22.4508 19.9003 21.4077 20.1956 20.8844C20.491 20.3611 21.1415 19.8436 21.6157 19.5532C22.0898 19.2628 22.539 19.2014 22.539 19.2014C22.539 19.2014 21.0722 21.72 20.3392 22.2225C19.6062 22.7251 18.6422 22.4508 18.6422 22.4508Z" fill="url(#paint5_linear_21_5829)"/>
<path d="M19.05 20.4548C19.05 20.4548 17.8816 15.9647 15.8584 15.7828C13.8352 15.6009 13.0032 17.0139 13.048 18.2708C13.0928 19.5277 13.6551 17.6206 13.6551 17.6206C13.6551 17.6206 14.8692 16.3203 15.9032 17.0397C16.9372 17.7591 18.3982 19.8481 18.3982 19.8481L18.9722 20.8621L19.05 20.4548Z" fill="url(#paint6_linear_21_5829)"/>
<path d="M18.0409 23.2293C18.0409 23.2293 16.1476 17.8358 14.5698 18.3752C12.992 18.9145 11.9586 21.0719 12.2741 22.6899C12.5897 24.308 13.3076 21.6113 13.3076 21.6113C13.3076 21.6113 14.5698 19.9932 15.5164 20.5326C16.4631 21.0719 17.4098 22.6899 17.4098 22.6899L18.1634 23.7889L18.0409 23.2293Z" fill="url(#paint7_linear_21_5829)"/>
<ellipse opacity="0.3" cx="4.95384" cy="2.11898" rx="4.95384" ry="2.11898" transform="matrix(-1.01812 0 0 1.01812 39.0116 28.2653)" fill="url(#paint8_linear_21_5829)"/>
<path fill-rule="evenodd" clip-rule="evenodd" d="M35.7035 19.3447C35.6713 19.3512 34.7166 20.0657 34.5087 20.3894C34.3818 20.5869 33.962 21.2056 33.9676 21.6984C33.9713 22.0136 34.4399 22.5897 34.4525 22.5872C34.4847 22.5807 34.6602 22.1721 34.7012 22.0833C34.7422 21.9945 34.7572 21.2668 34.8041 21.1969C34.8509 21.1271 34.8073 20.6527 34.8864 20.5764C34.9654 20.5001 35.1003 20.0502 35.153 19.9993C35.2057 19.9484 35.3815 19.6311 35.4458 19.6181C35.5102 19.6051 35.7357 19.3382 35.7035 19.3447Z" fill="url(#paint9_linear_21_5829)"/>
<path d="M34.4525 22.5875C34.4525 22.5875 34.5228 21.1913 34.5084 20.826C34.4941 20.4607 35.0176 20.1352 35.2212 19.8299C35.4249 19.5245 35.706 19.3445 35.706 19.3445C35.706 19.3445 35.3755 21.2962 35.0827 21.7957C34.7899 22.2952 34.4525 22.5875 34.4525 22.5875Z" fill="url(#paint10_linear_21_5829)"/>
<path d="M34.9161 21.6982C34.9161 21.6982 33.1273 24.9525 33.0035 26.2511C32.913 27.2008 33.2438 28.9923 33.4282 29.8866C33.4931 30.2017 33.7717 30.4226 34.0935 30.4226C34.5228 30.4226 34.8499 30.0359 34.785 29.6115C34.625 28.5663 34.3757 26.732 34.3757 25.4558C34.3757 23.577 34.9161 21.6982 34.9161 21.6982Z" fill="url(#paint11_linear_21_5829)"/>
<path fill-rule="evenodd" clip-rule="evenodd" d="M37.8078 22.9926C37.7683 22.9822 36.0701 23.1931 35.5758 23.4466C35.0814 23.7001 33.8711 25.6274 33.9105 25.6378C33.95 25.6482 34.3053 25.632 34.424 25.5537C34.5427 25.4753 35.177 24.6562 35.2858 24.6026C35.3945 24.5491 35.7517 23.9857 35.8998 23.9425C36.048 23.8993 36.5725 23.4621 36.6713 23.4333C36.7701 23.4045 37.225 23.1407 37.3039 23.1614C37.3828 23.1821 37.8472 23.003 37.8078 22.9926Z" fill="url(#paint12_linear_21_5829)"/>
<path d="M33.914 25.6216C33.914 25.6216 35.1721 24.7779 35.4674 24.3547C35.7628 23.9314 36.4133 23.5128 36.8875 23.278C37.3617 23.0431 37.8108 22.9934 37.8108 22.9934C37.8108 22.9934 36.3441 25.0304 35.611 25.4369C34.878 25.8434 33.914 25.6216 33.914 25.6216Z" fill="url(#paint13_linear_21_5829)"/>
<path fill-rule="evenodd" clip-rule="evenodd" d="M31.328 23.0822C31.3669 23.0822 32.8033 23.8343 33.1527 24.2731C33.5021 24.7118 33.8903 27.2816 33.8515 27.2816C33.8126 27.2816 33.5021 27.1562 33.4244 27.0309C33.3468 26.9055 33.075 25.7773 32.9974 25.6833C32.9197 25.5893 32.8033 24.8372 32.6868 24.7431C32.5703 24.6491 32.2598 23.991 32.1821 23.9283C32.1045 23.8657 31.7939 23.4269 31.7163 23.4269C31.6386 23.4269 31.2892 23.0822 31.328 23.0822Z" fill="url(#paint14_linear_21_5829)"/>
<path d="M33.9679 27.424C33.9679 27.424 33.1139 26.028 32.9974 25.4326C32.8809 24.8372 32.4327 24.1363 32.0798 23.709C31.7268 23.2816 31.328 23.0822 31.328 23.0822C31.328 23.0822 31.472 24.909 31.7431 25.5342C32.0179 26.1677 32.7845 26.6039 32.9621 26.8428C33.4915 27.5551 33.9679 27.424 33.9679 27.424Z" fill="url(#paint15_linear_21_5829)"/>
<ellipse opacity="0.709912" cx="24.4344" cy="36.6611" rx="7.12039" ry="3.04571" fill="url(#paint16_linear_21_5829)"/>
<path fill-rule="evenodd" clip-rule="evenodd" d="M21.9842 17.3249C22.0296 17.3362 23.3774 18.5832 23.671 19.1484C23.8501 19.4931 24.4428 20.573 24.4348 21.4333C24.4297 21.9833 23.7681 22.989 23.7503 22.9846C23.7049 22.9733 23.4572 22.26 23.3993 22.105C23.3413 21.95 23.3201 20.6798 23.254 20.5579C23.1878 20.436 23.2494 19.608 23.1378 19.4748C23.0262 19.3415 22.8358 18.5562 22.7614 18.4674C22.687 18.3785 22.4389 17.8247 22.348 17.8021C22.2571 17.7794 21.9387 17.3135 21.9842 17.3249Z" fill="url(#paint17_linear_21_5829)"/>
<path d="M23.7503 22.9845C23.7503 22.9845 23.6511 20.5475 23.6713 19.9098C23.6916 19.2722 22.9526 18.704 22.665 18.1711C22.3774 17.6381 21.9807 17.3239 21.9807 17.3239C21.9807 17.3239 22.4473 20.7306 22.8606 21.6025C23.2739 22.4743 23.7503 22.9845 23.7503 22.9845Z" fill="url(#paint18_linear_21_5829)"/>
<path d="M23.0959 21.4322C23.0959 21.4322 25.6212 27.1127 25.796 29.3794C25.9277 31.0872 25.4279 34.3546 25.1734 35.8623C25.0951 36.3263 24.692 36.6608 24.2215 36.6608C23.6272 36.6608 23.1689 36.1347 23.2435 35.5451C23.4652 33.7912 23.8588 30.3466 23.8588 27.9911C23.8588 24.7117 23.0959 21.4322 23.0959 21.4322Z" fill="url(#paint19_linear_21_5829)"/>
<path fill-rule="evenodd" clip-rule="evenodd" d="M19.0135 23.6923C19.0692 23.6742 21.4667 24.0424 22.1646 24.4848C22.8624 24.9272 24.5712 28.2914 24.5155 28.3095C24.4598 28.3276 23.9581 28.2994 23.7906 28.1627C23.623 28.0259 22.7275 26.5962 22.574 26.5027C22.4205 26.4091 21.9163 25.4258 21.7071 25.3504C21.4979 25.275 20.7574 24.5118 20.6179 24.4616C20.4784 24.4113 19.8363 23.9508 19.7249 23.9869C19.6135 24.0231 18.9578 23.7104 19.0135 23.6923Z" fill="url(#paint20_linear_21_5829)"/>
<path d="M24.5106 28.2812C24.5106 28.2812 22.7345 26.8086 22.3175 26.0698C21.9005 25.331 20.9821 24.6004 20.3127 24.1904C19.6433 23.7805 19.0092 23.6937 19.0092 23.6937C19.0092 23.6937 21.0799 27.2494 22.1148 27.9589C23.1496 28.6684 24.5106 28.2812 24.5106 28.2812Z" fill="url(#paint21_linear_21_5829)"/>
<path fill-rule="evenodd" clip-rule="evenodd" d="M28.1614 23.8488C28.1066 23.8488 26.0787 25.1616 25.5854 25.9274C25.0921 26.6933 24.5441 31.1788 24.5989 31.1788C24.6537 31.1788 25.0921 30.96 25.2018 30.7412C25.3114 30.5224 25.695 28.5531 25.8046 28.389C25.9143 28.2249 26.0787 26.9121 26.2431 26.748C26.4075 26.5839 26.846 25.4351 26.9556 25.3257C27.0652 25.2163 27.5037 24.4505 27.6133 24.4505C27.7229 24.4505 28.2162 23.8488 28.1614 23.8488Z" fill="url(#paint22_linear_21_5829)"/>
<path d="M24.4344 31.4275C24.4344 31.4275 25.6402 28.9908 25.8046 27.9514C25.9691 26.9121 26.6018 25.6887 27.1001 24.9428C27.5983 24.1969 28.1614 23.8488 28.1614 23.8488C28.1614 23.8488 27.9582 27.0375 27.5753 28.1288C27.1874 29.2345 26.1052 29.9959 25.8545 30.413C25.1071 31.6562 24.4344 31.4275 24.4344 31.4275Z" fill="url(#paint23_linear_21_5829)"/>
<path d="M23.6715 22.1939C23.6715 22.1939 19.0941 14.5796 15.2797 15.341C11.4652 16.1024 10.7023 19.1482 11.4652 21.4324C12.2281 23.7167 12.2281 19.9096 12.2281 19.9096C12.2281 19.9096 13.7539 16.8639 16.0426 17.6253C18.3313 18.3867 22.1457 21.4324 22.1457 21.4324L23.7491 22.9839L23.6715 22.1939Z" fill="url(#paint24_linear_21_5829)"/>
<path d="M23.9221 22.1939C23.9221 22.1939 26.595 14.5796 28.8225 15.341C31.0499 16.1024 32.5089 19.1482 32.0634 21.4324C31.6179 23.7167 30.6044 19.9096 30.6044 19.9096C30.6044 19.9096 28.8225 17.6253 27.486 18.3867C26.1496 19.1482 24.8131 21.4324 24.8131 21.4324L23.7491 22.9839L23.9221 22.1939Z" fill="url(#paint25_linear_21_5829)"/>
<defs>
<filter id="filter0_i_21_5829" x="0.0178966" y="18.3262" width="48.7993" height="28.1643" filterUnits="userSpaceOnUse" color-interpolation-filters="sRGB">
<feFlood flood-opacity="0" result="BackgroundImageFix"/>
<feBlend mode="normal" in="SourceGraphic" in2="BackgroundImageFix" result="shape"/>
<feColorMatrix in="SourceAlpha" type="matrix" values="0 0 0 0 0 0 0 0 0 0 0 0 0 0 0 0 0 0 127 0" result="hardAlpha"/>
<feOffset dy="-1"/>
<feComposite in2="hardAlpha" operator="arithmetic" k2="-1" k3="1"/>
<feColorMatrix type="matrix" values="0 0 0 0 1 0 0 0 0 0.7 0 0 0 0 0.5375 0 0 0 0.75 0"/>
<feBlend mode="normal" in2="shape" result="effect1_innerShadow_21_5829"/>
</filter>
<linearGradient id="paint0_linear_21_5829" x1="0" y1="33.8448" x2="48.8714" y2="33.8448" gradientUnits="userSpaceOnUse">
<stop stop-color="#7B4F39"/>
<stop offset="0.0001" stop-color="#5F312D"/>
<stop offset="1" stop-color="#9B6B51"/>
</linearGradient>
<linearGradient id="paint1_linear_21_5829" x1="18.8352" y1="18.8352" x2="8.74054" y2="49.0678" gradientUnits="userSpaceOnUse">
<stop stop-color="#FFF6A1"/>
<stop offset="1" stop-color="#00B37C"/>
</linearGradient>
<linearGradient id="paint2_linear_21_5829" x1="0" y1="0" x2="0" y2="4.23796" gradientUnits="userSpaceOnUse">
<stop stop-color="#6B6C83"/>
<stop offset="1" stop-color="#282C40"/>
</linearGradient>
<linearGradient id="paint3_linear_21_5829" x1="18.0899" y1="19.443" x2="19.1595" y2="19.443" gradientUnits="userSpaceOnUse">
<stop stop-color="#CBA252"/>
<stop offset="0.503621" stop-color="#F0F358"/>
<stop offset="1" stop-color="#A28C3D"/>
</linearGradient>
<linearGradient id="paint4_linear_21_5829" x1="21.5623" y1="18.1395" x2="20.0355" y2="18.5774" gradientUnits="userSpaceOnUse">
<stop stop-color="#CCB800"/>
<stop offset="0.506126" stop-color="#9EC019"/>
<stop offset="1" stop-color="#694E0B"/>
</linearGradient>
<linearGradient id="paint5_linear_21_5829" x1="21.8097" y1="19.7362" x2="20.3872" y2="19.274" gradientUnits="userSpaceOnUse">
<stop stop-color="#DDD26F"/>
<stop offset="0.503621" stop-color="#E9F095"/>
<stop offset="1" stop-color="#A2983D"/>
</linearGradient>
<linearGradient id="paint6_linear_21_5829" x1="18.6874" y1="17.2968" x2="15.2072" y2="16.2708" gradientUnits="userSpaceOnUse">
<stop stop-color="#CBA252"/>
<stop offset="0.503621" stop-color="#F0F358"/>
<stop offset="1" stop-color="#A28C3D"/>
</linearGradient>
<linearGradient id="paint7_linear_21_5829" x1="17.0009" y1="19.2598" x2="13.7091" y2="19.2598" gradientUnits="userSpaceOnUse">
<stop stop-color="#CBA252"/>
<stop offset="0.503621" stop-color="#F0F358"/>
<stop offset="1" stop-color="#A28C3D"/>
</linearGradient>
<linearGradient id="paint8_linear_21_5829" x1="0" y1="0" x2="0" y2="4.23796" gradientUnits="userSpaceOnUse">
<stop stop-color="#6B6C83"/>
<stop offset="1" stop-color="#282C40"/>
</linearGradient>
<linearGradient id="paint9_linear_21_5829" x1="34.4762" y1="19.1015" x2="33.795" y2="20.1011" gradientUnits="userSpaceOnUse">
<stop stop-color="#CC9F00"/>
<stop offset="0.506126" stop-color="#C09119"/>
<stop offset="1" stop-color="#67690B"/>
</linearGradient>
<linearGradient id="paint10_linear_21_5829" x1="35.4396" y1="19.9093" x2="34.3004" y2="20.2605" gradientUnits="userSpaceOnUse">
<stop stop-color="#79CB52"/>
<stop offset="0.503621" stop-color="#93F358"/>
<stop offset="1" stop-color="#51A23D"/>
</linearGradient>
<linearGradient id="paint11_linear_21_5829" x1="33.3618" y1="23.1893" x2="34.4314" y2="23.1893" gradientUnits="userSpaceOnUse">
<stop stop-color="#79CB52"/>
<stop offset="0.503621" stop-color="#93F358"/>
<stop offset="1" stop-color="#51A23D"/>
</linearGradient>
<linearGradient id="paint12_linear_21_5829" x1="36.8342" y1="22.1346" x2="35.3663" y2="22.6551" gradientUnits="userSpaceOnUse">
<stop stop-color="#CCB800"/>
<stop offset="0.506126" stop-color="#9EC019"/>
<stop offset="1" stop-color="#694E0B"/>
</linearGradient>
<linearGradient id="paint13_linear_21_5829" x1="37.0816" y1="23.426" x2="35.7274" y2="22.882" gradientUnits="userSpaceOnUse">
<stop stop-color="#79CB52"/>
<stop offset="0.503621" stop-color="#93F358"/>
<stop offset="1" stop-color="#51A23D"/>
</linearGradient>
<linearGradient id="paint14_linear_21_5829" x1="32.5016" y1="22.393" x2="33.7638" y2="23.2119" gradientUnits="userSpaceOnUse">
<stop stop-color="#00CC60"/>
<stop offset="0.506126" stop-color="#19C05D"/>
<stop offset="1" stop-color="#0B692C"/>
</linearGradient>
<linearGradient id="paint15_linear_21_5829" x1="31.8442" y1="23.8278" x2="33.3056" y2="23.8278" gradientUnits="userSpaceOnUse">
<stop stop-color="#349B4A"/>
<stop offset="0.503621" stop-color="#66D16A"/>
<stop offset="1" stop-color="#3DA24F"/>
</linearGradient>
<linearGradient id="paint16_linear_21_5829" x1="17.6278" y1="34.2245" x2="17.6278" y2="40.3159" gradientUnits="userSpaceOnUse">
<stop stop-color="#6B6C83"/>
<stop offset="1" stop-color="#282C40"/>
</linearGradient>
<linearGradient id="paint17_linear_21_5829" x1="23.7168" y1="16.9003" x2="24.9758" y2="18.3945" gradientUnits="userSpaceOnUse">
<stop stop-color="#00CC60"/>
<stop offset="0.506126" stop-color="#19C05D"/>
<stop offset="1" stop-color="#0B692C"/>
</linearGradient>
<linearGradient id="paint18_linear_21_5829" x1="22.3568" y1="18.3098" x2="24.0148" y2="18.7232" gradientUnits="userSpaceOnUse">
<stop stop-color="#349B4A"/>
<stop offset="0.503621" stop-color="#66D16A"/>
<stop offset="1" stop-color="#3DA24F"/>
</linearGradient>
<linearGradient id="paint19_linear_21_5829" x1="25.2902" y1="24.035" x2="23.7802" y2="24.035" gradientUnits="userSpaceOnUse">
<stop stop-color="#349B4A"/>
<stop offset="0.503621" stop-color="#66D16A"/>
<stop offset="1" stop-color="#3DA24F"/>
</linearGradient>
<linearGradient id="paint20_linear_21_5829" x1="20.388" y1="22.1946" x2="22.5435" y2="22.8128" gradientUnits="userSpaceOnUse">
<stop stop-color="#00CC60"/>
<stop offset="0.506126" stop-color="#19C05D"/>
<stop offset="1" stop-color="#0B692C"/>
</linearGradient>
<linearGradient id="paint21_linear_21_5829" x1="20.0387" y1="24.4488" x2="22.0471" y2="23.7962" gradientUnits="userSpaceOnUse">
<stop stop-color="#349B4A"/>
<stop offset="0.503621" stop-color="#66D16A"/>
<stop offset="1" stop-color="#3DA24F"/>
</linearGradient>
<linearGradient id="paint22_linear_21_5829" x1="26.5046" y1="22.6458" x2="24.5192" y2="23.6876" gradientUnits="userSpaceOnUse">
<stop stop-color="#00CC60"/>
<stop offset="0.506126" stop-color="#19C05D"/>
<stop offset="1" stop-color="#0B692C"/>
</linearGradient>
<linearGradient id="paint23_linear_21_5829" x1="27.4327" y1="25.1502" x2="25.3695" y2="25.1502" gradientUnits="userSpaceOnUse">
<stop stop-color="#349B4A"/>
<stop offset="0.503621" stop-color="#66D16A"/>
<stop offset="1" stop-color="#3DA24F"/>
</linearGradient>
<linearGradient id="paint24_linear_21_5829" x1="21.2955" y1="16.5899" x2="14.3478" y2="16.5899" gradientUnits="userSpaceOnUse">
<stop stop-color="#349B4A"/>
<stop offset="0.503621" stop-color="#66D16A"/>
<stop offset="1" stop-color="#3DA24F"/>
</linearGradient>
<linearGradient id="paint25_linear_21_5829" x1="25.3903" y1="16.5899" x2="30.0375" y2="16.5899" gradientUnits="userSpaceOnUse">
<stop stop-color="#349B4A"/>
<stop offset="0.503621" stop-color="#66D16A"/>
<stop offset="1" stop-color="#3DA24F"/>
</linearGradient>
</defs>
</svg>
