<svg width="48" height="49" viewBox="0 0 48 49" fill="none" xmlns="http://www.w3.org/2000/svg">
<path opacity="0.7" fill-rule="evenodd" clip-rule="evenodd" d="M46.4009 27.2275C48.5233 28.4529 48.5344 30.4398 46.4259 31.6649L27.9041 42.4286C25.7957 43.6541 22.3656 43.6541 20.2432 42.4286L1.59918 31.6645C-0.523205 30.4391 -0.534501 28.4523 1.57417 27.2269L20.0957 16.4635C22.2044 15.2381 25.6343 15.2381 27.7567 16.4633L46.4009 27.2275Z" fill="black" fill-opacity="0.01"/>
<g filter="url(#filter0_ii_21_6126)">
<path fill-rule="evenodd" clip-rule="evenodd" d="M46.4009 28.9912C48.5233 30.2166 48.5344 32.2034 46.4259 33.4286L27.9041 44.1922C25.7957 45.4178 22.3656 45.4178 20.2432 44.1922L1.59918 33.4282C-0.523205 32.2028 -0.534501 30.216 1.57417 28.9906L20.0957 18.2272C22.2044 17.0018 25.6343 17.0018 27.7567 18.227L46.4009 28.9912Z" fill="url(#paint0_linear_21_6126)"/>
</g>
<g opacity="0.330642" filter="url(#filter1_f_21_6126)">
<ellipse cx="29.2333" cy="35.5789" rx="6.49628" ry="2.84212" fill="#2A3B4E"/>
</g>
<g opacity="0.370642" filter="url(#filter2_f_21_6126)">
<ellipse cx="18.2708" cy="37.6094" rx="3.65416" ry="1.62407" fill="#2A3B4E"/>
</g>
<ellipse cx="3.65416" cy="8.12035" rx="3.65416" ry="8.12035" transform="matrix(-0.906308 0.422618 0.422618 0.906308 14.0906 18.1489)" fill="url(#paint1_linear_21_6126)"/>
<g filter="url(#filter3_i_21_6126)">
<path d="M17.6406 20.6394C16.9908 20.8135 16.7458 22.0088 17.094 23.3084C17.2429 23.8638 17.4779 24.3473 17.7467 24.7066C17.1655 24.9386 16.8744 25.7369 17.0937 26.5558C17.3217 27.4067 18.0153 27.9609 18.6556 27.8156C18.6663 27.9353 18.6851 28.0576 18.7179 28.1801C18.95 29.0464 19.6656 29.6074 20.3154 29.4333C20.965 29.259 21.3035 28.4157 21.0714 27.5494C20.9423 27.068 20.6642 26.6809 20.331 26.4618C20.3302 26.2882 20.3079 26.1076 20.2593 25.926C20.1203 25.4073 19.8079 24.9983 19.4404 24.7906C19.6491 24.2845 19.6685 23.5026 19.4475 22.6777C19.0994 21.3784 18.2904 20.4657 17.6406 20.6394Z" fill="url(#paint2_linear_21_6126)"/>
</g>
<g filter="url(#filter4_i_21_6126)">
<path d="M17.6406 23.0755C16.9909 23.2496 16.7457 24.4441 17.0938 25.7435C17.2427 26.2991 17.4778 26.7832 17.7467 27.1426C17.1655 27.3746 16.8753 28.1727 17.0946 28.9916C17.3226 29.8425 18.0153 30.3969 18.6556 30.2516C18.6663 30.3713 18.6851 30.4936 18.7179 30.6161C18.95 31.4825 19.6656 32.0435 20.3154 31.8693C20.965 31.6951 21.3035 30.8518 21.0714 29.9855C20.9423 29.504 20.6642 29.117 20.331 28.8978C20.3302 28.724 20.3077 28.5429 20.259 28.3611C20.12 27.8426 19.8078 27.4342 19.4404 27.2267C19.6492 26.7205 19.6683 25.9379 19.4473 25.1128C19.099 23.8137 18.2903 22.9018 17.6406 23.0755Z" fill="url(#paint3_linear_21_6126)"/>
</g>
<g filter="url(#filter5_i_21_6126)">
<path d="M12.5607 25.2326C11.9807 25.5546 12.0314 26.7704 12.6437 28.0372C12.5632 28.0522 12.4865 28.0796 12.4146 28.1195C11.8262 28.4456 11.7902 29.505 12.3338 30.4856C12.8774 31.466 13.7949 31.997 14.3832 31.6709C14.4718 31.6217 14.5457 31.5539 14.6091 31.4742C14.974 31.8441 15.4565 31.9837 15.8204 31.782C16.2031 31.5697 16.3368 31.0455 16.1817 30.5121C16.3143 30.5279 16.4374 30.511 16.5445 30.4517C17.0251 30.185 16.9983 29.2178 16.4845 28.2909C16.0842 27.5687 15.5062 27.085 15.0431 27.032C14.2829 25.6929 13.1796 24.8895 12.5607 25.2326Z" fill="url(#paint4_linear_21_6126)"/>
</g>
<g filter="url(#filter6_i_21_6126)">
<path d="M13.2276 27.7087C12.6859 27.9618 12.5493 28.8166 12.9229 29.6179C13.0025 29.7884 13.1005 29.9416 13.2079 30.0766C13.1882 30.0844 13.1677 30.092 13.1483 30.1011C12.6064 30.3541 12.3691 30.9929 12.6182 31.5271C12.8675 32.0611 13.5089 32.2892 14.0509 32.0368C14.0854 32.0207 14.1186 32.0018 14.1506 31.9827C14.1533 32.1564 14.1929 32.3412 14.2762 32.52C14.5253 33.0543 15.0575 33.3342 15.4641 33.1449C15.6787 33.0448 15.8145 32.8336 15.8592 32.5781C15.5469 32.1791 15.2338 31.7065 14.9251 31.1572C14.8396 31.1462 14.7545 31.1496 14.6726 31.1704C14.6891 31.0188 14.675 30.8626 14.6227 30.712L14.5813 30.6117L14.6315 30.7079C14.6834 30.7999 14.747 30.88 14.8136 30.9527C14.6616 30.6722 14.5091 30.3736 14.3597 30.0556C14.0089 29.3088 13.7504 28.4871 13.5611 27.6383C13.4453 27.6374 13.3326 27.6597 13.2276 27.7087Z" fill="url(#paint5_linear_21_6126)"/>
</g>
<path opacity="0.670013" fill-rule="evenodd" clip-rule="evenodd" d="M14.6364 23.904L14.6839 24.4278L15.9771 23.9274L16.7308 25.5324L15.5327 25.9964L15.5803 26.52L16.9463 25.9912L17.6715 27.5356L16.4732 27.9993L16.521 28.5231L17.887 27.9944L18.8036 29.9462L19.0431 29.589L18.1177 27.6183L18.5871 25.4379L18.3031 25.2754L17.8989 27.1526L17.1771 25.6154L17.6464 23.4348L17.3625 23.2722L16.9584 25.1497L16.2538 23.6492L16.7501 21.3429L16.4661 21.1803L15.9929 23.3792L14.6364 23.904Z" fill="#00771A"/>
<g filter="url(#filter7_i_21_6126)">
<ellipse cx="29.9917" cy="22.3799" rx="5.42748" ry="12.3799" fill="url(#paint6_linear_21_6126)"/>
</g>
<g filter="url(#filter8_i_21_6126)">
<path d="M20.4165 17.8487C20.858 17.7713 21.342 18.4241 21.4977 19.3071C21.55 19.6039 21.5578 19.8888 21.5294 20.1394C21.5646 20.1253 21.6008 20.1139 21.6388 20.1072C22.0804 20.0294 22.5336 20.5029 22.6504 21.1654C22.7671 21.8279 22.5033 22.4279 22.0617 22.5058C22.0458 22.5086 22.0298 22.5089 22.0139 22.5103C22.0663 22.6312 22.1073 22.7641 22.1323 22.9059C22.249 23.5681 21.9859 24.1679 21.5445 24.2461C21.1029 24.3239 20.6497 23.8503 20.5329 23.1879C20.4787 22.8803 20.5072 22.5863 20.5967 22.3516C20.4325 22.1617 20.3051 21.8958 20.2509 21.5885C20.1916 21.2525 20.23 20.9322 20.3401 20.6883C20.1409 20.4241 19.9772 20.0363 19.8983 19.5891C19.7426 18.7058 19.9748 17.9265 20.4165 17.8487Z" fill="url(#paint7_linear_21_6126)"/>
</g>
<g filter="url(#filter9_ii_21_6126)">
<path fill-rule="evenodd" clip-rule="evenodd" d="M32.4314 26.1447C32.4299 26.6846 32.414 27.199 32.3846 27.6879C32.4314 27.5413 32.4624 27.3837 32.475 27.2187L32.4818 27.0527L32.4896 27.2187C32.5141 27.4599 32.593 27.6845 32.7113 27.8828C32.5879 27.9067 32.4705 27.9551 32.362 28.0244C32.2904 28.983 32.1651 29.8387 31.9928 30.5913C32.2153 30.9122 32.5336 31.1131 32.8871 31.1133C33.5597 31.1133 34.1057 30.3861 34.1059 29.4892C34.1059 29.1895 34.0431 28.909 33.9369 28.668C33.9923 28.6737 34.0489 28.6767 34.1059 28.6767C35.0026 28.6765 35.7299 27.9495 35.7299 27.0527C35.7298 26.156 35.0026 25.4289 34.1059 25.4287C34.0822 25.4287 34.0586 25.4303 34.0351 25.4319L34.0092 25.4336C34.0698 25.1782 34.1058 24.9038 34.1059 24.6172C34.1059 23.272 33.3786 22.181 32.4818 22.1807C32.3089 22.1807 32.1422 22.2212 31.9859 22.2964C32.2668 23.5889 32.4349 24.8891 32.4314 26.1447Z" fill="url(#paint8_linear_21_6126)"/>
</g>
<g opacity="0.5" filter="url(#filter10_i_21_6126)">
<ellipse cx="30.4513" cy="15.6844" rx="1.21805" ry="1.62407" transform="rotate(-29 30.4513 15.6844)" fill="url(#paint9_linear_21_6126)"/>
</g>
<g opacity="0.3" filter="url(#filter11_i_21_6126)">
<ellipse cx="27.2032" cy="31.9251" rx="1.21805" ry="1.62407" transform="rotate(-29 27.2032 31.9251)" fill="url(#paint10_linear_21_6126)"/>
</g>
<g opacity="0.3" filter="url(#filter12_i_21_6126)">
<ellipse cx="23.143" cy="25.4286" rx="1.21805" ry="1.62407" transform="rotate(-29 23.143 25.4286)" fill="url(#paint11_linear_21_6126)"/>
</g>
<g opacity="0.5" filter="url(#filter13_i_21_6126)">
<ellipse cx="23.9551" cy="16.4964" rx="1.21805" ry="1.62407" transform="rotate(-29 23.9551 16.4964)" fill="url(#paint12_linear_21_6126)"/>
</g>
<g opacity="0.4" filter="url(#filter14_i_21_6126)">
<path d="M32.4469 22.219C33.1059 22.2654 33.5726 23.3796 33.5572 24.7783C33.6459 24.7586 33.7368 24.7517 33.8288 24.7581C34.5821 24.8109 35.1292 25.7596 35.0511 26.8778C34.9729 27.9962 34.299 28.8603 33.5456 28.8078C33.4361 28.8001 33.3316 28.7714 33.232 28.7281C33.0599 29.2247 32.6792 29.5617 32.2605 29.5324C31.8239 29.5017 31.4812 29.0831 31.3964 28.5341C31.2828 28.6045 31.1642 28.6412 31.042 28.6327C30.4938 28.5942 30.1093 27.7062 30.1831 26.649C30.2407 25.8253 30.5602 25.1427 30.9575 24.899C31.0806 23.364 31.7409 22.1696 32.4469 22.219Z" fill="url(#paint13_linear_21_6126)"/>
</g>
<path opacity="0.670013" fill-rule="evenodd" clip-rule="evenodd" d="M28.9822 18.9137L29.2596 19.649L27.1071 19.7872L27.0996 22.4223L29.0942 22.2947L29.3713 23.0298L27.0975 23.1755L27.0903 25.711L29.085 25.5829L29.3619 26.3184L27.0882 26.4642L27.0791 29.6686L26.5064 29.3379L26.5156 26.1025L24.42 23.4608L24.7136 23.0635L26.5178 25.3379L26.5249 22.8143L24.4294 20.1721L24.7229 19.7748L26.5271 22.0497L26.5341 19.5863L24.3177 16.7918L24.6112 16.3945L26.7244 19.0588L28.9822 18.9137Z" fill="#773D00"/>
<path d="M46.7132 32.4437C47.4809 32.8824 48.139 29.1534 47.9744 34.0888C47.9744 34.7469 47.5906 35.405 46.768 35.8985L27.0809 47.305C25.4357 48.2372 22.7486 48.2372 21.1035 47.305L1.30671 35.8985C0.484129 35.405 0.100256 34.8018 0.0454174 34.1437C-0.173937 28.7695 0.429287 32.8824 1.25187 32.3888L20.939 20.9824C22.5841 20.0501 25.2712 20.0501 26.9164 20.9824L46.7132 32.4437Z" fill="url(#paint14_linear_21_6126)"/>
<g filter="url(#filter15_ii_21_6126)">
<path fill-rule="evenodd" clip-rule="evenodd" d="M46.4009 29.1631C48.5233 30.3885 48.5344 32.3753 46.4259 33.6005L27.9041 44.3641C25.7957 45.5897 22.3656 45.5897 20.2432 44.3641L1.59918 33.6001C-0.523205 32.3747 -0.534501 30.3879 1.57417 29.1625L20.0957 18.399C22.2044 17.1737 25.6343 17.1737 27.7567 18.3988L46.4009 29.1631Z" fill="url(#paint15_linear_21_6126)"/>
</g>
<g opacity="0.330642" filter="url(#filter16_f_21_6126)">
<ellipse cx="29.2333" cy="35.5789" rx="6.49628" ry="2.84212" fill="#2A3B4E"/>
</g>
<g opacity="0.370642" filter="url(#filter17_f_21_6126)">
<ellipse cx="18.2708" cy="37.6094" rx="3.65416" ry="1.62407" fill="#2A3B4E"/>
</g>
<ellipse cx="3.65416" cy="8.12035" rx="3.65416" ry="8.12035" transform="matrix(-0.906308 0.422618 0.422618 0.906308 14.0906 18.1489)" fill="url(#paint16_linear_21_6126)"/>
<g filter="url(#filter18_i_21_6126)">
<path d="M17.6406 20.6394C16.9908 20.8135 16.7458 22.0088 17.094 23.3084C17.2429 23.8638 17.4779 24.3473 17.7467 24.7066C17.1655 24.9386 16.8744 25.7369 17.0937 26.5558C17.3217 27.4067 18.0153 27.9609 18.6556 27.8156C18.6663 27.9353 18.6851 28.0576 18.7179 28.1801C18.95 29.0464 19.6656 29.6074 20.3154 29.4333C20.965 29.259 21.3035 28.4157 21.0714 27.5494C20.9423 27.068 20.6642 26.6809 20.331 26.4618C20.3302 26.2882 20.3079 26.1076 20.2593 25.926C20.1203 25.4073 19.8079 24.9983 19.4404 24.7906C19.6491 24.2845 19.6685 23.5026 19.4475 22.6777C19.0994 21.3784 18.2904 20.4657 17.6406 20.6394Z" fill="url(#paint17_linear_21_6126)"/>
</g>
<g filter="url(#filter19_i_21_6126)">
<path d="M17.6406 23.0755C16.9909 23.2496 16.7457 24.4441 17.0938 25.7435C17.2427 26.2991 17.4778 26.7832 17.7467 27.1426C17.1655 27.3746 16.8753 28.1727 17.0946 28.9916C17.3226 29.8425 18.0153 30.3969 18.6556 30.2516C18.6663 30.3713 18.6851 30.4936 18.7179 30.6161C18.95 31.4825 19.6656 32.0435 20.3154 31.8693C20.965 31.6951 21.3035 30.8518 21.0714 29.9855C20.9423 29.504 20.6642 29.117 20.331 28.8978C20.3302 28.724 20.3077 28.5429 20.259 28.3611C20.12 27.8426 19.8078 27.4342 19.4404 27.2267C19.6492 26.7205 19.6683 25.9379 19.4473 25.1128C19.099 23.8137 18.2903 22.9018 17.6406 23.0755Z" fill="url(#paint18_linear_21_6126)"/>
</g>
<g filter="url(#filter20_i_21_6126)">
<path d="M12.5607 25.2326C11.9807 25.5546 12.0314 26.7704 12.6437 28.0372C12.5632 28.0522 12.4865 28.0796 12.4146 28.1195C11.8262 28.4456 11.7902 29.505 12.3338 30.4856C12.8774 31.466 13.7949 31.997 14.3832 31.6709C14.4718 31.6217 14.5457 31.5539 14.6091 31.4742C14.974 31.8441 15.4565 31.9837 15.8204 31.782C16.2031 31.5697 16.3368 31.0455 16.1817 30.5121C16.3143 30.5279 16.4374 30.511 16.5445 30.4517C17.0251 30.185 16.9983 29.2178 16.4845 28.2909C16.0842 27.5687 15.5062 27.085 15.0431 27.032C14.2829 25.6929 13.1796 24.8895 12.5607 25.2326Z" fill="url(#paint19_linear_21_6126)"/>
</g>
<g filter="url(#filter21_i_21_6126)">
<path d="M13.2276 27.7087C12.6859 27.9618 12.5493 28.8166 12.9229 29.6179C13.0025 29.7884 13.1005 29.9416 13.2079 30.0766C13.1882 30.0844 13.1677 30.092 13.1483 30.1011C12.6064 30.3541 12.3691 30.9929 12.6182 31.5271C12.8675 32.0611 13.5089 32.2892 14.0509 32.0368C14.0854 32.0207 14.1186 32.0018 14.1506 31.9827C14.1533 32.1564 14.1929 32.3412 14.2762 32.52C14.5253 33.0543 15.0575 33.3342 15.4641 33.1449C15.6787 33.0448 15.8145 32.8336 15.8592 32.5781C15.5469 32.1791 15.2338 31.7065 14.9251 31.1572C14.8396 31.1462 14.7545 31.1496 14.6726 31.1704C14.6891 31.0188 14.675 30.8626 14.6227 30.712L14.5813 30.6117L14.6315 30.7079C14.6834 30.7999 14.747 30.88 14.8136 30.9527C14.6616 30.6722 14.5091 30.3736 14.3597 30.0556C14.0089 29.3088 13.7504 28.4871 13.5611 27.6383C13.4453 27.6374 13.3326 27.6597 13.2276 27.7087Z" fill="url(#paint20_linear_21_6126)"/>
</g>
<path opacity="0.670013" fill-rule="evenodd" clip-rule="evenodd" d="M14.6364 23.904L14.6839 24.4278L15.9771 23.9274L16.7308 25.5324L15.5327 25.9964L15.5803 26.52L16.9463 25.9912L17.6715 27.5356L16.4732 27.9993L16.521 28.5231L17.887 27.9944L18.8036 29.9462L19.0431 29.589L18.1177 27.6183L18.5871 25.4379L18.3031 25.2754L17.8989 27.1526L17.1771 25.6154L17.6464 23.4348L17.3625 23.2722L16.9584 25.1497L16.2538 23.6492L16.7501 21.3429L16.4661 21.1803L15.9929 23.3792L14.6364 23.904Z" fill="#00771A"/>
<g filter="url(#filter22_i_21_6126)">
<ellipse cx="29.9917" cy="22.3799" rx="5.42748" ry="12.3799" fill="url(#paint21_linear_21_6126)"/>
</g>
<g filter="url(#filter23_i_21_6126)">
<path d="M20.4165 17.8487C20.858 17.7713 21.342 18.4241 21.4977 19.3071C21.55 19.6039 21.5578 19.8888 21.5294 20.1394C21.5646 20.1253 21.6008 20.1139 21.6388 20.1072C22.0804 20.0294 22.5336 20.5029 22.6504 21.1654C22.7671 21.8279 22.5033 22.4279 22.0617 22.5058C22.0458 22.5086 22.0298 22.5089 22.0139 22.5103C22.0663 22.6312 22.1073 22.7641 22.1323 22.9059C22.249 23.5681 21.9859 24.1679 21.5445 24.2461C21.1029 24.3239 20.6497 23.8503 20.5329 23.1879C20.4787 22.8803 20.5072 22.5863 20.5967 22.3516C20.4325 22.1617 20.3051 21.8958 20.2509 21.5885C20.1916 21.2525 20.23 20.9322 20.3401 20.6883C20.1409 20.4241 19.9772 20.0363 19.8983 19.5891C19.7426 18.7058 19.9748 17.9265 20.4165 17.8487Z" fill="url(#paint22_linear_21_6126)"/>
</g>
<g filter="url(#filter24_ii_21_6126)">
<path fill-rule="evenodd" clip-rule="evenodd" d="M32.4314 26.1447C32.4299 26.6846 32.414 27.199 32.3846 27.6879C32.4314 27.5413 32.4624 27.3837 32.475 27.2187L32.4818 27.0527L32.4896 27.2187C32.5141 27.4599 32.593 27.6845 32.7113 27.8828C32.5879 27.9067 32.4705 27.9551 32.362 28.0244C32.2904 28.983 32.1651 29.8387 31.9928 30.5913C32.2153 30.9122 32.5336 31.1131 32.8871 31.1133C33.5597 31.1133 34.1057 30.3861 34.1059 29.4892C34.1059 29.1895 34.0431 28.909 33.9369 28.668C33.9923 28.6737 34.0489 28.6767 34.1059 28.6767C35.0026 28.6765 35.7299 27.9495 35.7299 27.0527C35.7298 26.156 35.0026 25.4289 34.1059 25.4287C34.0822 25.4287 34.0586 25.4303 34.0351 25.4319L34.0092 25.4336C34.0698 25.1782 34.1058 24.9038 34.1059 24.6172C34.1059 23.272 33.3786 22.181 32.4818 22.1807C32.3089 22.1807 32.1422 22.2212 31.9859 22.2964C32.2668 23.5889 32.4349 24.8891 32.4314 26.1447Z" fill="url(#paint23_linear_21_6126)"/>
</g>
<g opacity="0.5" filter="url(#filter25_i_21_6126)">
<ellipse cx="30.4513" cy="15.6844" rx="1.21805" ry="1.62407" transform="rotate(-29 30.4513 15.6844)" fill="url(#paint24_linear_21_6126)"/>
</g>
<g opacity="0.3" filter="url(#filter26_i_21_6126)">
<ellipse cx="27.2032" cy="31.9251" rx="1.21805" ry="1.62407" transform="rotate(-29 27.2032 31.9251)" fill="url(#paint25_linear_21_6126)"/>
</g>
<g opacity="0.3" filter="url(#filter27_i_21_6126)">
<ellipse cx="23.143" cy="25.4286" rx="1.21805" ry="1.62407" transform="rotate(-29 23.143 25.4286)" fill="url(#paint26_linear_21_6126)"/>
</g>
<g opacity="0.5" filter="url(#filter28_i_21_6126)">
<ellipse cx="23.9551" cy="16.4964" rx="1.21805" ry="1.62407" transform="rotate(-29 23.9551 16.4964)" fill="url(#paint27_linear_21_6126)"/>
</g>
<g opacity="0.4" filter="url(#filter29_i_21_6126)">
<path d="M32.4469 22.219C33.1059 22.2654 33.5726 23.3796 33.5572 24.7783C33.6459 24.7586 33.7368 24.7517 33.8288 24.7581C34.5821 24.8109 35.1292 25.7596 35.0511 26.8778C34.9729 27.9962 34.299 28.8603 33.5456 28.8078C33.4361 28.8001 33.3316 28.7714 33.232 28.7281C33.0599 29.2247 32.6792 29.5617 32.2605 29.5324C31.8239 29.5017 31.4812 29.0831 31.3964 28.5341C31.2828 28.6045 31.1642 28.6412 31.042 28.6327C30.4938 28.5942 30.1093 27.7062 30.1831 26.649C30.2407 25.8253 30.5602 25.1427 30.9575 24.899C31.0806 23.364 31.7409 22.1696 32.4469 22.219Z" fill="url(#paint28_linear_21_6126)"/>
</g>
<path opacity="0.670013" fill-rule="evenodd" clip-rule="evenodd" d="M28.9822 18.9137L29.2596 19.649L27.1071 19.7872L27.0996 22.4223L29.0942 22.2947L29.3713 23.0298L27.0975 23.1755L27.0903 25.711L29.085 25.5829L29.3619 26.3184L27.0882 26.4642L27.0791 29.6686L26.5064 29.3379L26.5156 26.1025L24.42 23.4608L24.7136 23.0635L26.5178 25.3379L26.5249 22.8143L24.4294 20.1721L24.7229 19.7748L26.5271 22.0497L26.5341 19.5863L24.3177 16.7918L24.6112 16.3945L26.7244 19.0588L28.9822 18.9137Z" fill="#773D00"/>
<defs>
<filter id="filter0_ii_21_6126" x="0" y="17.3081" width="48" height="27.8032" filterUnits="userSpaceOnUse" color-interpolation-filters="sRGB">
<feFlood flood-opacity="0" result="BackgroundImageFix"/>
<feBlend mode="normal" in="SourceGraphic" in2="BackgroundImageFix" result="shape"/>
<feColorMatrix in="SourceAlpha" type="matrix" values="0 0 0 0 0 0 0 0 0 0 0 0 0 0 0 0 0 0 127 0" result="hardAlpha"/>
<feOffset dy="-2"/>
<feComposite in2="hardAlpha" operator="arithmetic" k2="-1" k3="1"/>
<feColorMatrix type="matrix" values="0 0 0 0 1 0 0 0 0 1 0 0 0 0 1 0 0 0 0.3 0"/>
<feBlend mode="normal" in2="shape" result="effect1_innerShadow_21_6126"/>
<feColorMatrix in="SourceAlpha" type="matrix" values="0 0 0 0 0 0 0 0 0 0 0 0 0 0 0 0 0 0 127 0" result="hardAlpha"/>
<feOffset/>
<feGaussianBlur stdDeviation="4.5"/>
<feComposite in2="hardAlpha" operator="arithmetic" k2="-1" k3="1"/>
<feColorMatrix type="matrix" values="0 0 0 0 1 0 0 0 0 1 0 0 0 0 1 0 0 0 0.3 0"/>
<feBlend mode="normal" in2="effect1_innerShadow_21_6126" result="effect2_innerShadow_21_6126"/>
</filter>
<filter id="filter1_f_21_6126" x="17.3004" y="27.3003" width="23.8657" height="16.5572" filterUnits="userSpaceOnUse" color-interpolation-filters="sRGB">
<feFlood flood-opacity="0" result="BackgroundImageFix"/>
<feBlend mode="normal" in="SourceGraphic" in2="BackgroundImageFix" result="shape"/>
<feGaussianBlur stdDeviation="2.71828" result="effect1_foregroundBlur_21_6126"/>
</filter>
<filter id="filter2_f_21_6126" x="9.18007" y="30.5488" width="18.1814" height="14.1212" filterUnits="userSpaceOnUse" color-interpolation-filters="sRGB">
<feFlood flood-opacity="0" result="BackgroundImageFix"/>
<feBlend mode="normal" in="SourceGraphic" in2="BackgroundImageFix" result="shape"/>
<feGaussianBlur stdDeviation="2.71828" result="effect1_foregroundBlur_21_6126"/>
</filter>
<filter id="filter3_i_21_6126" x="16.9356" y="20.6182" width="4.20892" height="8.84668" filterUnits="userSpaceOnUse" color-interpolation-filters="sRGB">
<feFlood flood-opacity="0" result="BackgroundImageFix"/>
<feBlend mode="normal" in="SourceGraphic" in2="BackgroundImageFix" result="shape"/>
<feColorMatrix in="SourceAlpha" type="matrix" values="0 0 0 0 0 0 0 0 0 0 0 0 0 0 0 0 0 0 127 0" result="hardAlpha"/>
<feOffset dx="-1"/>
<feComposite in2="hardAlpha" operator="arithmetic" k2="-1" k3="1"/>
<feColorMatrix type="matrix" values="0 0 0 0 0.101781 0 0 0 0 0.214483 0 0 0 0 0.211509 0 0 0 0.4 0"/>
<feBlend mode="normal" in2="shape" result="effect1_innerShadow_21_6126"/>
</filter>
<filter id="filter4_i_21_6126" x="16.9355" y="23.0542" width="4.20905" height="8.84668" filterUnits="userSpaceOnUse" color-interpolation-filters="sRGB">
<feFlood flood-opacity="0" result="BackgroundImageFix"/>
<feBlend mode="normal" in="SourceGraphic" in2="BackgroundImageFix" result="shape"/>
<feColorMatrix in="SourceAlpha" type="matrix" values="0 0 0 0 0 0 0 0 0 0 0 0 0 0 0 0 0 0 127 0" result="hardAlpha"/>
<feOffset dx="-1"/>
<feComposite in2="hardAlpha" operator="arithmetic" k2="-1" k3="1"/>
<feColorMatrix type="matrix" values="0 0 0 0 0.101781 0 0 0 0 0.214483 0 0 0 0 0.211509 0 0 0 0.4 0"/>
<feBlend mode="normal" in2="shape" result="effect1_innerShadow_21_6126"/>
</filter>
<filter id="filter5_i_21_6126" x="11.9486" y="25.1533" width="4.93951" height="6.72119" filterUnits="userSpaceOnUse" color-interpolation-filters="sRGB">
<feFlood flood-opacity="0" result="BackgroundImageFix"/>
<feBlend mode="normal" in="SourceGraphic" in2="BackgroundImageFix" result="shape"/>
<feColorMatrix in="SourceAlpha" type="matrix" values="0 0 0 0 0 0 0 0 0 0 0 0 0 0 0 0 0 0 127 0" result="hardAlpha"/>
<feOffset dx="-1"/>
<feComposite in2="hardAlpha" operator="arithmetic" k2="-1" k3="1"/>
<feColorMatrix type="matrix" values="0 0 0 0 0.101781 0 0 0 0 0.214483 0 0 0 0 0.211509 0 0 0 0.4 0"/>
<feBlend mode="normal" in2="shape" result="effect1_innerShadow_21_6126"/>
</filter>
<filter id="filter6_i_21_6126" x="12.5193" y="27.6382" width="3.34" height="5.56592" filterUnits="userSpaceOnUse" color-interpolation-filters="sRGB">
<feFlood flood-opacity="0" result="BackgroundImageFix"/>
<feBlend mode="normal" in="SourceGraphic" in2="BackgroundImageFix" result="shape"/>
<feColorMatrix in="SourceAlpha" type="matrix" values="0 0 0 0 0 0 0 0 0 0 0 0 0 0 0 0 0 0 127 0" result="hardAlpha"/>
<feOffset dx="-1" dy="-1"/>
<feComposite in2="hardAlpha" operator="arithmetic" k2="-1" k3="1"/>
<feColorMatrix type="matrix" values="0 0 0 0 1 0 0 0 0 1 0 0 0 0 1 0 0 0 0.3 0"/>
<feBlend mode="normal" in2="shape" result="effect1_innerShadow_21_6126"/>
</filter>
<filter id="filter7_i_21_6126" x="24.5642" y="10" width="10.8549" height="24.7598" filterUnits="userSpaceOnUse" color-interpolation-filters="sRGB">
<feFlood flood-opacity="0" result="BackgroundImageFix"/>
<feBlend mode="normal" in="SourceGraphic" in2="BackgroundImageFix" result="shape"/>
<feColorMatrix in="SourceAlpha" type="matrix" values="0 0 0 0 0 0 0 0 0 0 0 0 0 0 0 0 0 0 127 0" result="hardAlpha"/>
<feOffset dx="-1"/>
<feComposite in2="hardAlpha" operator="arithmetic" k2="-1" k3="1"/>
<feColorMatrix type="matrix" values="0 0 0 0 0.101781 0 0 0 0 0.214483 0 0 0 0 0.211509 0 0 0 0.4 0"/>
<feBlend mode="normal" in2="shape" result="effect1_innerShadow_21_6126"/>
</filter>
<filter id="filter8_i_21_6126" x="19.8499" y="17.8423" width="2.82812" height="6.41211" filterUnits="userSpaceOnUse" color-interpolation-filters="sRGB">
<feFlood flood-opacity="0" result="BackgroundImageFix"/>
<feBlend mode="normal" in="SourceGraphic" in2="BackgroundImageFix" result="shape"/>
<feColorMatrix in="SourceAlpha" type="matrix" values="0 0 0 0 0 0 0 0 0 0 0 0 0 0 0 0 0 0 127 0" result="hardAlpha"/>
<feOffset dx="-1"/>
<feComposite in2="hardAlpha" operator="arithmetic" k2="-1" k3="1"/>
<feColorMatrix type="matrix" values="0 0 0 0 0.101781 0 0 0 0 0.214483 0 0 0 0 0.211509 0 0 0 0.4 0"/>
<feBlend mode="normal" in2="shape" result="effect1_innerShadow_21_6126"/>
</filter>
<filter id="filter9_ii_21_6126" x="31.9859" y="22.1807" width="3.74402" height="8.93262" filterUnits="userSpaceOnUse" color-interpolation-filters="sRGB">
<feFlood flood-opacity="0" result="BackgroundImageFix"/>
<feBlend mode="normal" in="SourceGraphic" in2="BackgroundImageFix" result="shape"/>
<feColorMatrix in="SourceAlpha" type="matrix" values="0 0 0 0 0 0 0 0 0 0 0 0 0 0 0 0 0 0 127 0" result="hardAlpha"/>
<feOffset dy="-1"/>
<feComposite in2="hardAlpha" operator="arithmetic" k2="-1" k3="1"/>
<feColorMatrix type="matrix" values="0 0 0 0 1 0 0 0 0 1 0 0 0 0 1 0 0 0 0.3 0"/>
<feBlend mode="normal" in2="shape" result="effect1_innerShadow_21_6126"/>
<feColorMatrix in="SourceAlpha" type="matrix" values="0 0 0 0 0 0 0 0 0 0 0 0 0 0 0 0 0 0 127 0" result="hardAlpha"/>
<feOffset/>
<feGaussianBlur stdDeviation="2.5"/>
<feComposite in2="hardAlpha" operator="arithmetic" k2="-1" k3="1"/>
<feColorMatrix type="matrix" values="0 0 0 0 1 0 0 0 0 1 0 0 0 0 1 0 0 0 0.3 0"/>
<feBlend mode="normal" in2="effect1_innerShadow_21_6126" result="effect2_innerShadow_21_6126"/>
</filter>
<filter id="filter10_i_21_6126" x="29.1265" y="14.1455" width="2.6496" height="3.07764" filterUnits="userSpaceOnUse" color-interpolation-filters="sRGB">
<feFlood flood-opacity="0" result="BackgroundImageFix"/>
<feBlend mode="normal" in="SourceGraphic" in2="BackgroundImageFix" result="shape"/>
<feColorMatrix in="SourceAlpha" type="matrix" values="0 0 0 0 0 0 0 0 0 0 0 0 0 0 0 0 0 0 127 0" result="hardAlpha"/>
<feOffset dx="-1"/>
<feComposite in2="hardAlpha" operator="arithmetic" k2="-1" k3="1"/>
<feColorMatrix type="matrix" values="0 0 0 0 0.101781 0 0 0 0 0.214483 0 0 0 0 0.211509 0 0 0 0.4 0"/>
<feBlend mode="normal" in2="shape" result="effect1_innerShadow_21_6126"/>
</filter>
<filter id="filter11_i_21_6126" x="25.8784" y="30.3862" width="2.6496" height="3.07764" filterUnits="userSpaceOnUse" color-interpolation-filters="sRGB">
<feFlood flood-opacity="0" result="BackgroundImageFix"/>
<feBlend mode="normal" in="SourceGraphic" in2="BackgroundImageFix" result="shape"/>
<feColorMatrix in="SourceAlpha" type="matrix" values="0 0 0 0 0 0 0 0 0 0 0 0 0 0 0 0 0 0 127 0" result="hardAlpha"/>
<feOffset dx="-1"/>
<feComposite in2="hardAlpha" operator="arithmetic" k2="-1" k3="1"/>
<feColorMatrix type="matrix" values="0 0 0 0 0.101781 0 0 0 0 0.214483 0 0 0 0 0.211509 0 0 0 0.4 0"/>
<feBlend mode="normal" in2="shape" result="effect1_innerShadow_21_6126"/>
</filter>
<filter id="filter12_i_21_6126" x="21.8182" y="23.8896" width="2.6496" height="3.07764" filterUnits="userSpaceOnUse" color-interpolation-filters="sRGB">
<feFlood flood-opacity="0" result="BackgroundImageFix"/>
<feBlend mode="normal" in="SourceGraphic" in2="BackgroundImageFix" result="shape"/>
<feColorMatrix in="SourceAlpha" type="matrix" values="0 0 0 0 0 0 0 0 0 0 0 0 0 0 0 0 0 0 127 0" result="hardAlpha"/>
<feOffset dx="-1"/>
<feComposite in2="hardAlpha" operator="arithmetic" k2="-1" k3="1"/>
<feColorMatrix type="matrix" values="0 0 0 0 0.101781 0 0 0 0 0.214483 0 0 0 0 0.211509 0 0 0 0.4 0"/>
<feBlend mode="normal" in2="shape" result="effect1_innerShadow_21_6126"/>
</filter>
<filter id="filter13_i_21_6126" x="22.6302" y="14.9575" width="2.6496" height="3.07764" filterUnits="userSpaceOnUse" color-interpolation-filters="sRGB">
<feFlood flood-opacity="0" result="BackgroundImageFix"/>
<feBlend mode="normal" in="SourceGraphic" in2="BackgroundImageFix" result="shape"/>
<feColorMatrix in="SourceAlpha" type="matrix" values="0 0 0 0 0 0 0 0 0 0 0 0 0 0 0 0 0 0 127 0" result="hardAlpha"/>
<feOffset dx="-1"/>
<feComposite in2="hardAlpha" operator="arithmetic" k2="-1" k3="1"/>
<feColorMatrix type="matrix" values="0 0 0 0 0.101781 0 0 0 0 0.214483 0 0 0 0 0.211509 0 0 0 0.4 0"/>
<feBlend mode="normal" in2="shape" result="effect1_innerShadow_21_6126"/>
</filter>
<filter id="filter14_i_21_6126" x="30.174" y="22.2173" width="4.88446" height="7.31689" filterUnits="userSpaceOnUse" color-interpolation-filters="sRGB">
<feFlood flood-opacity="0" result="BackgroundImageFix"/>
<feBlend mode="normal" in="SourceGraphic" in2="BackgroundImageFix" result="shape"/>
<feColorMatrix in="SourceAlpha" type="matrix" values="0 0 0 0 0 0 0 0 0 0 0 0 0 0 0 0 0 0 127 0" result="hardAlpha"/>
<feOffset dx="-1"/>
<feComposite in2="hardAlpha" operator="arithmetic" k2="-1" k3="1"/>
<feColorMatrix type="matrix" values="0 0 0 0 0.101781 0 0 0 0 0.214483 0 0 0 0 0.211509 0 0 0 0.4 0"/>
<feBlend mode="normal" in2="shape" result="effect1_innerShadow_21_6126"/>
</filter>
<filter id="filter15_ii_21_6126" x="0" y="17.48" width="48" height="27.8032" filterUnits="userSpaceOnUse" color-interpolation-filters="sRGB">
<feFlood flood-opacity="0" result="BackgroundImageFix"/>
<feBlend mode="normal" in="SourceGraphic" in2="BackgroundImageFix" result="shape"/>
<feColorMatrix in="SourceAlpha" type="matrix" values="0 0 0 0 0 0 0 0 0 0 0 0 0 0 0 0 0 0 127 0" result="hardAlpha"/>
<feOffset dy="-1"/>
<feComposite in2="hardAlpha" operator="arithmetic" k2="-1" k3="1"/>
<feColorMatrix type="matrix" values="0 0 0 0 1 0 0 0 0 1 0 0 0 0 1 0 0 0 0.3 0"/>
<feBlend mode="normal" in2="shape" result="effect1_innerShadow_21_6126"/>
<feColorMatrix in="SourceAlpha" type="matrix" values="0 0 0 0 0 0 0 0 0 0 0 0 0 0 0 0 0 0 127 0" result="hardAlpha"/>
<feOffset/>
<feGaussianBlur stdDeviation="4.5"/>
<feComposite in2="hardAlpha" operator="arithmetic" k2="-1" k3="1"/>
<feColorMatrix type="matrix" values="0 0 0 0 1 0 0 0 0 1 0 0 0 0 1 0 0 0 0.3 0"/>
<feBlend mode="normal" in2="effect1_innerShadow_21_6126" result="effect2_innerShadow_21_6126"/>
</filter>
<filter id="filter16_f_21_6126" x="17.3004" y="27.3003" width="23.8657" height="16.5572" filterUnits="userSpaceOnUse" color-interpolation-filters="sRGB">
<feFlood flood-opacity="0" result="BackgroundImageFix"/>
<feBlend mode="normal" in="SourceGraphic" in2="BackgroundImageFix" result="shape"/>
<feGaussianBlur stdDeviation="2.71828" result="effect1_foregroundBlur_21_6126"/>
</filter>
<filter id="filter17_f_21_6126" x="9.18007" y="30.5488" width="18.1814" height="14.1212" filterUnits="userSpaceOnUse" color-interpolation-filters="sRGB">
<feFlood flood-opacity="0" result="BackgroundImageFix"/>
<feBlend mode="normal" in="SourceGraphic" in2="BackgroundImageFix" result="shape"/>
<feGaussianBlur stdDeviation="2.71828" result="effect1_foregroundBlur_21_6126"/>
</filter>
<filter id="filter18_i_21_6126" x="16.9356" y="20.6182" width="4.20892" height="8.84668" filterUnits="userSpaceOnUse" color-interpolation-filters="sRGB">
<feFlood flood-opacity="0" result="BackgroundImageFix"/>
<feBlend mode="normal" in="SourceGraphic" in2="BackgroundImageFix" result="shape"/>
<feColorMatrix in="SourceAlpha" type="matrix" values="0 0 0 0 0 0 0 0 0 0 0 0 0 0 0 0 0 0 127 0" result="hardAlpha"/>
<feOffset dx="-1"/>
<feComposite in2="hardAlpha" operator="arithmetic" k2="-1" k3="1"/>
<feColorMatrix type="matrix" values="0 0 0 0 0.101781 0 0 0 0 0.214483 0 0 0 0 0.211509 0 0 0 0.4 0"/>
<feBlend mode="normal" in2="shape" result="effect1_innerShadow_21_6126"/>
</filter>
<filter id="filter19_i_21_6126" x="16.9355" y="23.0542" width="4.20905" height="8.84668" filterUnits="userSpaceOnUse" color-interpolation-filters="sRGB">
<feFlood flood-opacity="0" result="BackgroundImageFix"/>
<feBlend mode="normal" in="SourceGraphic" in2="BackgroundImageFix" result="shape"/>
<feColorMatrix in="SourceAlpha" type="matrix" values="0 0 0 0 0 0 0 0 0 0 0 0 0 0 0 0 0 0 127 0" result="hardAlpha"/>
<feOffset dx="-1"/>
<feComposite in2="hardAlpha" operator="arithmetic" k2="-1" k3="1"/>
<feColorMatrix type="matrix" values="0 0 0 0 0.101781 0 0 0 0 0.214483 0 0 0 0 0.211509 0 0 0 0.4 0"/>
<feBlend mode="normal" in2="shape" result="effect1_innerShadow_21_6126"/>
</filter>
<filter id="filter20_i_21_6126" x="11.9486" y="25.1533" width="4.93951" height="6.72119" filterUnits="userSpaceOnUse" color-interpolation-filters="sRGB">
<feFlood flood-opacity="0" result="BackgroundImageFix"/>
<feBlend mode="normal" in="SourceGraphic" in2="BackgroundImageFix" result="shape"/>
<feColorMatrix in="SourceAlpha" type="matrix" values="0 0 0 0 0 0 0 0 0 0 0 0 0 0 0 0 0 0 127 0" result="hardAlpha"/>
<feOffset dx="-1"/>
<feComposite in2="hardAlpha" operator="arithmetic" k2="-1" k3="1"/>
<feColorMatrix type="matrix" values="0 0 0 0 0.101781 0 0 0 0 0.214483 0 0 0 0 0.211509 0 0 0 0.4 0"/>
<feBlend mode="normal" in2="shape" result="effect1_innerShadow_21_6126"/>
</filter>
<filter id="filter21_i_21_6126" x="12.5193" y="27.6382" width="3.34" height="5.56592" filterUnits="userSpaceOnUse" color-interpolation-filters="sRGB">
<feFlood flood-opacity="0" result="BackgroundImageFix"/>
<feBlend mode="normal" in="SourceGraphic" in2="BackgroundImageFix" result="shape"/>
<feColorMatrix in="SourceAlpha" type="matrix" values="0 0 0 0 0 0 0 0 0 0 0 0 0 0 0 0 0 0 127 0" result="hardAlpha"/>
<feOffset dx="-1" dy="-1"/>
<feComposite in2="hardAlpha" operator="arithmetic" k2="-1" k3="1"/>
<feColorMatrix type="matrix" values="0 0 0 0 1 0 0 0 0 1 0 0 0 0 1 0 0 0 0.3 0"/>
<feBlend mode="normal" in2="shape" result="effect1_innerShadow_21_6126"/>
</filter>
<filter id="filter22_i_21_6126" x="24.5642" y="10" width="10.8549" height="24.7598" filterUnits="userSpaceOnUse" color-interpolation-filters="sRGB">
<feFlood flood-opacity="0" result="BackgroundImageFix"/>
<feBlend mode="normal" in="SourceGraphic" in2="BackgroundImageFix" result="shape"/>
<feColorMatrix in="SourceAlpha" type="matrix" values="0 0 0 0 0 0 0 0 0 0 0 0 0 0 0 0 0 0 127 0" result="hardAlpha"/>
<feOffset dx="-1"/>
<feComposite in2="hardAlpha" operator="arithmetic" k2="-1" k3="1"/>
<feColorMatrix type="matrix" values="0 0 0 0 0.101781 0 0 0 0 0.214483 0 0 0 0 0.211509 0 0 0 0.4 0"/>
<feBlend mode="normal" in2="shape" result="effect1_innerShadow_21_6126"/>
</filter>
<filter id="filter23_i_21_6126" x="19.8499" y="17.8423" width="2.82812" height="6.41211" filterUnits="userSpaceOnUse" color-interpolation-filters="sRGB">
<feFlood flood-opacity="0" result="BackgroundImageFix"/>
<feBlend mode="normal" in="SourceGraphic" in2="BackgroundImageFix" result="shape"/>
<feColorMatrix in="SourceAlpha" type="matrix" values="0 0 0 0 0 0 0 0 0 0 0 0 0 0 0 0 0 0 127 0" result="hardAlpha"/>
<feOffset dx="-1"/>
<feComposite in2="hardAlpha" operator="arithmetic" k2="-1" k3="1"/>
<feColorMatrix type="matrix" values="0 0 0 0 0.101781 0 0 0 0 0.214483 0 0 0 0 0.211509 0 0 0 0.4 0"/>
<feBlend mode="normal" in2="shape" result="effect1_innerShadow_21_6126"/>
</filter>
<filter id="filter24_ii_21_6126" x="31.9859" y="22.1807" width="3.74402" height="8.93262" filterUnits="userSpaceOnUse" color-interpolation-filters="sRGB">
<feFlood flood-opacity="0" result="BackgroundImageFix"/>
<feBlend mode="normal" in="SourceGraphic" in2="BackgroundImageFix" result="shape"/>
<feColorMatrix in="SourceAlpha" type="matrix" values="0 0 0 0 0 0 0 0 0 0 0 0 0 0 0 0 0 0 127 0" result="hardAlpha"/>
<feOffset dy="-1"/>
<feComposite in2="hardAlpha" operator="arithmetic" k2="-1" k3="1"/>
<feColorMatrix type="matrix" values="0 0 0 0 1 0 0 0 0 1 0 0 0 0 1 0 0 0 0.3 0"/>
<feBlend mode="normal" in2="shape" result="effect1_innerShadow_21_6126"/>
<feColorMatrix in="SourceAlpha" type="matrix" values="0 0 0 0 0 0 0 0 0 0 0 0 0 0 0 0 0 0 127 0" result="hardAlpha"/>
<feOffset/>
<feGaussianBlur stdDeviation="2.5"/>
<feComposite in2="hardAlpha" operator="arithmetic" k2="-1" k3="1"/>
<feColorMatrix type="matrix" values="0 0 0 0 1 0 0 0 0 1 0 0 0 0 1 0 0 0 0.3 0"/>
<feBlend mode="normal" in2="effect1_innerShadow_21_6126" result="effect2_innerShadow_21_6126"/>
</filter>
<filter id="filter25_i_21_6126" x="29.1265" y="14.1455" width="2.6496" height="3.07764" filterUnits="userSpaceOnUse" color-interpolation-filters="sRGB">
<feFlood flood-opacity="0" result="BackgroundImageFix"/>
<feBlend mode="normal" in="SourceGraphic" in2="BackgroundImageFix" result="shape"/>
<feColorMatrix in="SourceAlpha" type="matrix" values="0 0 0 0 0 0 0 0 0 0 0 0 0 0 0 0 0 0 127 0" result="hardAlpha"/>
<feOffset dx="-1"/>
<feComposite in2="hardAlpha" operator="arithmetic" k2="-1" k3="1"/>
<feColorMatrix type="matrix" values="0 0 0 0 0.101781 0 0 0 0 0.214483 0 0 0 0 0.211509 0 0 0 0.4 0"/>
<feBlend mode="normal" in2="shape" result="effect1_innerShadow_21_6126"/>
</filter>
<filter id="filter26_i_21_6126" x="25.8784" y="30.3862" width="2.6496" height="3.07764" filterUnits="userSpaceOnUse" color-interpolation-filters="sRGB">
<feFlood flood-opacity="0" result="BackgroundImageFix"/>
<feBlend mode="normal" in="SourceGraphic" in2="BackgroundImageFix" result="shape"/>
<feColorMatrix in="SourceAlpha" type="matrix" values="0 0 0 0 0 0 0 0 0 0 0 0 0 0 0 0 0 0 127 0" result="hardAlpha"/>
<feOffset dx="-1"/>
<feComposite in2="hardAlpha" operator="arithmetic" k2="-1" k3="1"/>
<feColorMatrix type="matrix" values="0 0 0 0 0.101781 0 0 0 0 0.214483 0 0 0 0 0.211509 0 0 0 0.4 0"/>
<feBlend mode="normal" in2="shape" result="effect1_innerShadow_21_6126"/>
</filter>
<filter id="filter27_i_21_6126" x="21.8182" y="23.8896" width="2.6496" height="3.07764" filterUnits="userSpaceOnUse" color-interpolation-filters="sRGB">
<feFlood flood-opacity="0" result="BackgroundImageFix"/>
<feBlend mode="normal" in="SourceGraphic" in2="BackgroundImageFix" result="shape"/>
<feColorMatrix in="SourceAlpha" type="matrix" values="0 0 0 0 0 0 0 0 0 0 0 0 0 0 0 0 0 0 127 0" result="hardAlpha"/>
<feOffset dx="-1"/>
<feComposite in2="hardAlpha" operator="arithmetic" k2="-1" k3="1"/>
<feColorMatrix type="matrix" values="0 0 0 0 0.101781 0 0 0 0 0.214483 0 0 0 0 0.211509 0 0 0 0.4 0"/>
<feBlend mode="normal" in2="shape" result="effect1_innerShadow_21_6126"/>
</filter>
<filter id="filter28_i_21_6126" x="22.6302" y="14.9575" width="2.6496" height="3.07764" filterUnits="userSpaceOnUse" color-interpolation-filters="sRGB">
<feFlood flood-opacity="0" result="BackgroundImageFix"/>
<feBlend mode="normal" in="SourceGraphic" in2="BackgroundImageFix" result="shape"/>
<feColorMatrix in="SourceAlpha" type="matrix" values="0 0 0 0 0 0 0 0 0 0 0 0 0 0 0 0 0 0 127 0" result="hardAlpha"/>
<feOffset dx="-1"/>
<feComposite in2="hardAlpha" operator="arithmetic" k2="-1" k3="1"/>
<feColorMatrix type="matrix" values="0 0 0 0 0.101781 0 0 0 0 0.214483 0 0 0 0 0.211509 0 0 0 0.4 0"/>
<feBlend mode="normal" in2="shape" result="effect1_innerShadow_21_6126"/>
</filter>
<filter id="filter29_i_21_6126" x="30.174" y="22.2173" width="4.88446" height="7.31689" filterUnits="userSpaceOnUse" color-interpolation-filters="sRGB">
<feFlood flood-opacity="0" result="BackgroundImageFix"/>
<feBlend mode="normal" in="SourceGraphic" in2="BackgroundImageFix" result="shape"/>
<feColorMatrix in="SourceAlpha" type="matrix" values="0 0 0 0 0 0 0 0 0 0 0 0 0 0 0 0 0 0 127 0" result="hardAlpha"/>
<feOffset dx="-1"/>
<feComposite in2="hardAlpha" operator="arithmetic" k2="-1" k3="1"/>
<feColorMatrix type="matrix" values="0 0 0 0 0.101781 0 0 0 0 0.214483 0 0 0 0 0.211509 0 0 0 0.4 0"/>
<feBlend mode="normal" in2="shape" result="effect1_innerShadow_21_6126"/>
</filter>
<linearGradient id="paint0_linear_21_6126" x1="27.1719" y1="16.8487" x2="14.5399" y2="38.9524" gradientUnits="userSpaceOnUse">
<stop stop-color="#5D5C75"/>
<stop offset="1" stop-color="#244B5B"/>
</linearGradient>
<linearGradient id="paint1_linear_21_6126" x1="7.83278" y1="5.45709" x2="4.08808" y2="5.62465" gradientUnits="userSpaceOnUse">
<stop stop-color="#73C63E"/>
<stop offset="1" stop-color="#008C5A"/>
</linearGradient>
<linearGradient id="paint2_linear_21_6126" x1="19.114" y1="20.2446" x2="21.4917" y2="29.1181" gradientUnits="userSpaceOnUse">
<stop stop-color="#73C63E"/>
<stop offset="1" stop-color="#008C5A"/>
</linearGradient>
<linearGradient id="paint3_linear_21_6126" x1="19.114" y1="22.6807" x2="21.4917" y2="31.5542" gradientUnits="userSpaceOnUse">
<stop stop-color="#73C63E"/>
<stop offset="1" stop-color="#008C5A"/>
</linearGradient>
<linearGradient id="paint4_linear_21_6126" x1="14.2655" y1="24.2876" x2="17.8088" y2="30.6798" gradientUnits="userSpaceOnUse">
<stop stop-color="#575817"/>
<stop offset="1" stop-color="#159869"/>
</linearGradient>
<linearGradient id="paint5_linear_21_6126" x1="13.5285" y1="27.5684" x2="16.0102" y2="32.8903" gradientUnits="userSpaceOnUse">
<stop stop-color="#E4FFB3"/>
<stop offset="1" stop-color="#00C733"/>
</linearGradient>
<linearGradient id="paint6_linear_21_6126" x1="24.5642" y1="10" x2="24.5642" y2="34.7599" gradientUnits="userSpaceOnUse">
<stop stop-color="#C6B63E"/>
<stop offset="1" stop-color="#568C00"/>
</linearGradient>
<linearGradient id="paint7_linear_21_6126" x1="19.6163" y1="17.9897" x2="20.7444" y2="24.3871" gradientUnits="userSpaceOnUse">
<stop stop-color="#575817"/>
<stop offset="1" stop-color="#639815"/>
</linearGradient>
<linearGradient id="paint8_linear_21_6126" x1="32.5446" y1="23.446" x2="32.5446" y2="30.9726" gradientUnits="userSpaceOnUse">
<stop stop-color="#F8DA90"/>
<stop offset="1" stop-color="#659614"/>
</linearGradient>
<linearGradient id="paint9_linear_21_6126" x1="29.2333" y1="14.0603" x2="29.2333" y2="17.3085" gradientUnits="userSpaceOnUse">
<stop stop-color="#575817"/>
<stop offset="1" stop-color="#639815"/>
</linearGradient>
<linearGradient id="paint10_linear_21_6126" x1="25.9851" y1="30.3011" x2="25.9851" y2="33.5492" gradientUnits="userSpaceOnUse">
<stop stop-color="#575817"/>
<stop offset="1" stop-color="#639815"/>
</linearGradient>
<linearGradient id="paint11_linear_21_6126" x1="21.925" y1="23.8045" x2="21.925" y2="27.0526" gradientUnits="userSpaceOnUse">
<stop stop-color="#575817"/>
<stop offset="1" stop-color="#639815"/>
</linearGradient>
<linearGradient id="paint12_linear_21_6126" x1="22.737" y1="14.8724" x2="22.737" y2="18.1205" gradientUnits="userSpaceOnUse">
<stop stop-color="#575817"/>
<stop offset="1" stop-color="#639815"/>
</linearGradient>
<linearGradient id="paint13_linear_21_6126" x1="30.5024" y1="22.083" x2="29.9926" y2="29.3738" gradientUnits="userSpaceOnUse">
<stop stop-color="#575817"/>
<stop offset="1" stop-color="#639815"/>
</linearGradient>
<linearGradient id="paint14_linear_21_6126" x1="51.3603" y1="22.5681" x2="0" y2="22.5681" gradientUnits="userSpaceOnUse">
<stop stop-color="#4E75A0"/>
<stop offset="1" stop-color="#1F2966"/>
</linearGradient>
<linearGradient id="paint15_linear_21_6126" x1="27.1719" y1="17.0206" x2="14.5399" y2="39.1242" gradientUnits="userSpaceOnUse">
<stop stop-color="#5D5C75"/>
<stop offset="1" stop-color="#244B5B"/>
</linearGradient>
<linearGradient id="paint16_linear_21_6126" x1="7.83278" y1="5.45709" x2="4.08808" y2="5.62465" gradientUnits="userSpaceOnUse">
<stop stop-color="#73C63E"/>
<stop offset="1" stop-color="#008C5A"/>
</linearGradient>
<linearGradient id="paint17_linear_21_6126" x1="19.114" y1="20.2446" x2="21.4917" y2="29.1181" gradientUnits="userSpaceOnUse">
<stop stop-color="#73C63E"/>
<stop offset="1" stop-color="#008C5A"/>
</linearGradient>
<linearGradient id="paint18_linear_21_6126" x1="19.114" y1="22.6807" x2="21.4917" y2="31.5542" gradientUnits="userSpaceOnUse">
<stop stop-color="#73C63E"/>
<stop offset="1" stop-color="#008C5A"/>
</linearGradient>
<linearGradient id="paint19_linear_21_6126" x1="14.2655" y1="24.2876" x2="17.8088" y2="30.6798" gradientUnits="userSpaceOnUse">
<stop stop-color="#575817"/>
<stop offset="1" stop-color="#159869"/>
</linearGradient>
<linearGradient id="paint20_linear_21_6126" x1="13.5285" y1="27.5684" x2="16.0102" y2="32.8903" gradientUnits="userSpaceOnUse">
<stop stop-color="#E4FFB3"/>
<stop offset="1" stop-color="#00C733"/>
</linearGradient>
<linearGradient id="paint21_linear_21_6126" x1="24.5642" y1="10" x2="24.5642" y2="34.7599" gradientUnits="userSpaceOnUse">
<stop stop-color="#C6B63E"/>
<stop offset="1" stop-color="#568C00"/>
</linearGradient>
<linearGradient id="paint22_linear_21_6126" x1="19.6163" y1="17.9897" x2="20.7444" y2="24.3871" gradientUnits="userSpaceOnUse">
<stop stop-color="#575817"/>
<stop offset="1" stop-color="#639815"/>
</linearGradient>
<linearGradient id="paint23_linear_21_6126" x1="32.5446" y1="23.446" x2="32.5446" y2="30.9726" gradientUnits="userSpaceOnUse">
<stop stop-color="#F8DA90"/>
<stop offset="1" stop-color="#659614"/>
</linearGradient>
<linearGradient id="paint24_linear_21_6126" x1="29.2333" y1="14.0603" x2="29.2333" y2="17.3085" gradientUnits="userSpaceOnUse">
<stop stop-color="#575817"/>
<stop offset="1" stop-color="#639815"/>
</linearGradient>
<linearGradient id="paint25_linear_21_6126" x1="25.9851" y1="30.3011" x2="25.9851" y2="33.5492" gradientUnits="userSpaceOnUse">
<stop stop-color="#575817"/>
<stop offset="1" stop-color="#639815"/>
</linearGradient>
<linearGradient id="paint26_linear_21_6126" x1="21.925" y1="23.8045" x2="21.925" y2="27.0526" gradientUnits="userSpaceOnUse">
<stop stop-color="#575817"/>
<stop offset="1" stop-color="#639815"/>
</linearGradient>
<linearGradient id="paint27_linear_21_6126" x1="22.737" y1="14.8724" x2="22.737" y2="18.1205" gradientUnits="userSpaceOnUse">
<stop stop-color="#575817"/>
<stop offset="1" stop-color="#639815"/>
</linearGradient>
<linearGradient id="paint28_linear_21_6126" x1="30.5024" y1="22.083" x2="29.9926" y2="29.3738" gradientUnits="userSpaceOnUse">
<stop stop-color="#575817"/>
<stop offset="1" stop-color="#639815"/>
</linearGradient>
</defs>
</svg>
