<svg xmlns="http://www.w3.org/2000/svg" width="48" height="49" viewBox="0 0 48 49" fill="none">
  <path d="M46.7149 32.5692C47.4826 33.0079 48.1407 29.2793 47.9762 34.2142C47.9762 34.8721 47.5923 35.5301 46.7697 36.0236L27.0819 47.4287C25.4367 48.3609 22.7495 48.3609 21.1042 47.4287L1.30676 36.0236C0.484146 35.5301 0.10026 34.927 0.045419 34.269C-0.173944 28.8954 0.429302 33.0079 1.25191 32.5144L20.9397 21.1093C22.5849 20.1771 25.2721 20.1771 26.9174 21.1093L46.7149 32.5692Z" fill="url(#paint0_linear_21_5815)"/>
  <path d="M46.7144 30.1042C48.3597 31.0364 48.3597 32.6265 46.7144 33.5586L27.0266 44.9637C25.3814 45.8959 22.6942 45.8959 21.049 44.9637L1.25149 33.5586C-0.393727 32.6265 -0.393727 31.0364 1.25149 30.1042L20.9393 18.6991C22.5845 17.767 25.2717 17.767 26.9169 18.6991L46.7144 30.1042Z" fill="url(#paint1_linear_21_5815)"/>
  <ellipse opacity="0.709912" cx="23.7138" cy="33.0086" rx="6.99366" ry="2.9915" fill="url(#paint2_linear_21_5815)"/>
  <path fill-rule="evenodd" clip-rule="evenodd" d="M21.3072 14.0165C21.3519 14.0277 22.6756 15.2525 22.964 15.8076C23.1399 16.1461 23.7221 17.2069 23.7143 18.0518C23.7092 18.5921 23.0593 19.5799 23.0419 19.5755C22.9973 19.5644 22.754 18.8638 22.6971 18.7116C22.6402 18.5594 22.6194 17.3117 22.5544 17.192C22.4894 17.0723 22.5499 16.259 22.4403 16.1282C22.3307 15.9973 22.1437 15.2259 22.0706 15.1387C21.9975 15.0514 21.7538 14.5075 21.6645 14.4852C21.5752 14.463 21.2626 14.0054 21.3072 14.0165Z" fill="url(#paint3_linear_21_5815)"/>
  <path d="M23.0419 19.5755C23.0419 19.5755 22.9445 17.1818 22.9643 16.5555C22.9842 15.9292 22.2584 15.3712 21.9759 14.8477C21.6935 14.3242 21.3038 14.0156 21.3038 14.0156C21.3038 14.0156 21.7621 17.3617 22.1681 18.218C22.574 19.0743 23.0419 19.5755 23.0419 19.5755Z" fill="url(#paint4_linear_21_5815)"/>
  <path d="M22.3992 18.0508C22.3992 18.0508 24.8795 23.6301 25.0512 25.8565C25.1805 27.5339 24.6897 30.7432 24.4397 32.224C24.3628 32.6797 23.9669 33.0083 23.5047 33.0083C22.9209 33.0083 22.4708 32.4916 22.5441 31.9124C22.7619 30.1898 23.1485 26.8066 23.1485 24.4929C23.1485 21.2719 22.3992 18.0508 22.3992 18.0508Z" fill="url(#paint5_linear_21_5815)"/>
  <path fill-rule="evenodd" clip-rule="evenodd" d="M18.3894 20.2706C18.4441 20.2529 20.799 20.6145 21.4844 21.049C22.1698 21.4836 23.8482 24.7879 23.7935 24.8057C23.7388 24.8234 23.246 24.7958 23.0815 24.6614C22.9169 24.5271 22.0373 23.1228 21.8865 23.031C21.7357 22.9391 21.2405 21.9733 21.035 21.8992C20.8295 21.8252 20.1022 21.0756 19.9653 21.0262C19.8283 20.9768 19.1975 20.5245 19.0881 20.56C18.9788 20.5956 18.3347 20.2884 18.3894 20.2706Z" fill="url(#paint6_linear_21_5815)"/>
  <path d="M23.7886 24.7779C23.7886 24.7779 22.0442 23.3315 21.6346 22.6058C21.225 21.8802 20.323 21.1626 19.6655 20.7599C19.008 20.3573 18.3852 20.272 18.3852 20.272C18.3852 20.272 20.4191 23.7644 21.4355 24.4613C22.4519 25.1582 23.7886 24.7779 23.7886 24.7779Z" fill="url(#paint7_linear_21_5815)"/>
  <path fill-rule="evenodd" clip-rule="evenodd" d="M27.3745 20.4238C27.3206 20.4238 25.3288 21.7133 24.8444 22.4655C24.3599 23.2177 23.8215 27.6234 23.8754 27.6234C23.9292 27.6234 24.3599 27.4085 24.4675 27.1936C24.5752 26.9787 24.952 25.0445 25.0597 24.8833C25.1674 24.7221 25.3288 23.4326 25.4903 23.2714C25.6518 23.1103 26.0825 21.982 26.1902 21.8745C26.2978 21.767 26.7285 21.0148 26.8362 21.0148C26.9438 21.0148 27.4283 20.4238 27.3745 20.4238Z" fill="url(#paint8_linear_21_5815)"/>
  <path d="M23.7139 27.8677C23.7139 27.8677 24.8982 25.4743 25.0597 24.4535C25.2212 23.4326 25.8427 22.2311 26.3321 21.4984C26.8215 20.7657 27.3745 20.4238 27.3745 20.4238C27.3745 20.4238 27.1749 23.5558 26.7989 24.6277C26.4179 25.7137 25.3549 26.4615 25.1086 26.8712C24.3745 28.0923 23.7139 27.8677 23.7139 27.8677Z" fill="url(#paint9_linear_21_5815)"/>
  <path d="M22.9645 18.7989C22.9645 18.7989 18.4686 11.3201 14.722 12.068C10.9754 12.8159 10.2261 15.8074 10.9754 18.051C11.7247 20.2946 11.7247 16.5552 11.7247 16.5552C11.7247 16.5552 13.2234 13.5637 15.4713 14.3116C17.7193 15.0595 21.4659 18.051 21.4659 18.051L23.0408 19.5749L22.9645 18.7989Z" fill="url(#paint10_linear_21_5815)"/>
  <path d="M23.2106 18.7989C23.2106 18.7989 25.836 11.3201 28.0238 12.068C30.2116 12.8159 31.6446 15.8074 31.2071 18.051C30.7695 20.2946 29.774 16.5552 29.774 16.5552C29.774 16.5552 28.0238 14.3116 26.7111 15.0595C25.3985 15.8074 24.0858 18.051 24.0858 18.051L23.0408 19.5749L23.2106 18.7989Z" fill="url(#paint11_linear_21_5815)"/>
  <defs>
    <linearGradient id="paint0_linear_21_5815" x1="0" y1="33.2424" x2="48.0016" y2="33.2424" gradientUnits="userSpaceOnUse">
      <stop stop-color="#7B4F39"/>
      <stop offset="0.0001" stop-color="#5F312D"/>
      <stop offset="1" stop-color="#9B6B51"/>
    </linearGradient>
    <linearGradient id="paint1_linear_21_5815" x1="0.0175782" y1="18.3691" x2="0.443829" y2="46.0451" gradientUnits="userSpaceOnUse">
      <stop stop-color="#AFFFA1"/>
      <stop offset="1" stop-color="#00B37C"/>
    </linearGradient>
    <linearGradient id="paint2_linear_21_5815" x1="16.7202" y1="30.0171" x2="16.7202" y2="36.0001" gradientUnits="userSpaceOnUse">
      <stop stop-color="#6B6C83"/>
      <stop offset="1" stop-color="#282C40"/>
    </linearGradient>
    <linearGradient id="paint3_linear_21_5815" x1="23.009" y1="13.5995" x2="24.2456" y2="15.0671" gradientUnits="userSpaceOnUse">
      <stop stop-color="#00CC60"/>
      <stop offset="0.506126" stop-color="#19C05D"/>
      <stop offset="1" stop-color="#0B692C"/>
    </linearGradient>
    <linearGradient id="paint4_linear_21_5815" x1="21.6732" y1="14.9839" x2="23.3016" y2="15.39" gradientUnits="userSpaceOnUse">
      <stop stop-color="#349B4A"/>
      <stop offset="0.503621" stop-color="#66D16A"/>
      <stop offset="1" stop-color="#3DA24F"/>
    </linearGradient>
    <linearGradient id="paint5_linear_21_5815" x1="24.5544" y1="20.6073" x2="23.0713" y2="20.6073" gradientUnits="userSpaceOnUse">
      <stop stop-color="#349B4A"/>
      <stop offset="0.503621" stop-color="#66D16A"/>
      <stop offset="1" stop-color="#3DA24F"/>
    </linearGradient>
    <linearGradient id="paint6_linear_21_5815" x1="19.7394" y1="18.7996" x2="21.8566" y2="19.4068" gradientUnits="userSpaceOnUse">
      <stop stop-color="#00CC60"/>
      <stop offset="0.506126" stop-color="#19C05D"/>
      <stop offset="1" stop-color="#0B692C"/>
    </linearGradient>
    <linearGradient id="paint7_linear_21_5815" x1="19.3964" y1="21.0137" x2="21.369" y2="20.3727" gradientUnits="userSpaceOnUse">
      <stop stop-color="#349B4A"/>
      <stop offset="0.503621" stop-color="#66D16A"/>
      <stop offset="1" stop-color="#3DA24F"/>
    </linearGradient>
    <linearGradient id="paint8_linear_21_5815" x1="25.7471" y1="19.2423" x2="23.7971" y2="20.2655" gradientUnits="userSpaceOnUse">
      <stop stop-color="#00CC60"/>
      <stop offset="0.506126" stop-color="#19C05D"/>
      <stop offset="1" stop-color="#0B692C"/>
    </linearGradient>
    <linearGradient id="paint9_linear_21_5815" x1="26.6588" y1="21.7021" x2="24.6322" y2="21.7021" gradientUnits="userSpaceOnUse">
      <stop stop-color="#349B4A"/>
      <stop offset="0.503621" stop-color="#66D16A"/>
      <stop offset="1" stop-color="#3DA24F"/>
    </linearGradient>
    <linearGradient id="paint10_linear_21_5815" x1="20.6308" y1="13.2947" x2="13.8068" y2="13.2947" gradientUnits="userSpaceOnUse">
      <stop stop-color="#349B4A"/>
      <stop offset="0.503621" stop-color="#66D16A"/>
      <stop offset="1" stop-color="#3DA24F"/>
    </linearGradient>
    <linearGradient id="paint11_linear_21_5815" x1="24.6527" y1="13.2947" x2="29.2172" y2="13.2947" gradientUnits="userSpaceOnUse">
      <stop stop-color="#349B4A"/>
      <stop offset="0.503621" stop-color="#66D16A"/>
      <stop offset="1" stop-color="#3DA24F"/>
    </linearGradient>
  </defs>
</svg>
