<svg width="49" height="49" viewBox="0 0 49 49" fill="none" xmlns="http://www.w3.org/2000/svg">
<path d="M47.5613 33.1593C48.343 33.6059 49.013 29.8098 48.8455 34.8341C48.8455 35.504 48.4547 36.1739 47.6171 36.6764L27.5726 48.2881C25.8976 49.2372 23.1617 49.2372 21.4866 48.2881L1.33043 36.6764C0.492919 36.1739 0.102076 35.5599 0.046242 34.8899C-0.177096 29.419 0.437081 33.606 1.2746 33.1035L21.3192 21.4918C22.9942 20.5427 25.7301 20.5427 27.4051 21.4918L47.5613 33.1593Z" fill="url(#paint0_linear_21_5815)"/>
<path d="M47.5609 30.6497C49.2359 31.5987 49.2359 33.2177 47.5609 34.1667L27.5163 45.7785C25.8413 46.7275 23.1054 46.7275 21.4304 45.7785L1.27417 34.1667C-0.400861 33.2177 -0.400861 31.5987 1.27417 30.6497L21.3187 19.0379C22.9938 18.0889 25.7296 18.0889 27.4047 19.0379L47.5609 30.6497Z" fill="url(#paint1_linear_21_5815)"/>
<ellipse opacity="0.709912" cx="24.1435" cy="33.6067" rx="7.12039" ry="3.04571" fill="url(#paint2_linear_21_5815)"/>
<path fill-rule="evenodd" clip-rule="evenodd" d="M21.6933 14.2705C21.7387 14.2818 23.0865 15.5289 23.3801 16.094C23.5592 16.4387 24.152 17.5187 24.144 18.3789C24.1388 18.929 23.4772 19.9347 23.4594 19.9302C23.414 19.9189 23.1663 19.2056 23.1084 19.0506C23.0505 18.8957 23.0292 17.6254 22.9631 17.5035C22.8969 17.3816 22.9585 16.5537 22.8469 16.4204C22.7353 16.2872 22.5449 15.5018 22.4705 15.413C22.3961 15.3242 22.148 14.7704 22.0571 14.7477C21.9662 14.725 21.6478 14.2592 21.6933 14.2705Z" fill="url(#paint3_linear_21_5815)"/>
<path d="M23.4594 19.9302C23.4594 19.9302 23.3602 17.4931 23.3805 16.8555C23.4007 16.2178 22.6617 15.6497 22.3741 15.1167C22.0866 14.5838 21.6898 14.2696 21.6898 14.2696C21.6898 14.2696 22.1564 17.6763 22.5697 18.5481C22.9831 19.4199 23.4594 19.9302 23.4594 19.9302Z" fill="url(#paint4_linear_21_5815)"/>
<path d="M22.805 18.3779C22.805 18.3779 25.3303 24.0583 25.5051 26.325C25.6368 28.0328 25.1371 31.3002 24.8826 32.8079C24.8042 33.2719 24.4012 33.6064 23.9306 33.6064C23.3363 33.6064 22.878 33.0803 22.9526 32.4907C23.1743 30.7368 23.5679 27.2923 23.5679 24.9367C23.5679 21.6573 22.805 18.3779 22.805 18.3779Z" fill="url(#paint5_linear_21_5815)"/>
<path fill-rule="evenodd" clip-rule="evenodd" d="M18.7226 20.6379C18.7783 20.6199 21.1759 20.988 21.8737 21.4304C22.5715 21.8728 24.2803 25.237 24.2246 25.2551C24.1689 25.2732 23.6672 25.245 23.4997 25.1083C23.3321 24.9716 22.4366 23.5418 22.2831 23.4483C22.1296 23.3548 21.6254 22.3715 21.4162 22.296C21.207 22.2206 20.4665 21.4575 20.327 21.4072C20.1876 21.3569 19.5454 20.8964 19.434 20.9326C19.3226 20.9688 18.6669 20.656 18.7226 20.6379Z" fill="url(#paint6_linear_21_5815)"/>
<path d="M24.2197 25.2268C24.2197 25.2268 22.4436 23.7542 22.0266 23.0154C21.6096 22.2767 20.6912 21.546 20.0218 21.1361C19.3524 20.7261 18.7183 20.6393 18.7183 20.6393C18.7183 20.6393 20.789 24.195 21.8239 24.9045C22.8587 25.6141 24.2197 25.2268 24.2197 25.2268Z" fill="url(#paint7_linear_21_5815)"/>
<path fill-rule="evenodd" clip-rule="evenodd" d="M27.8705 20.7939C27.8157 20.7939 25.7878 22.1068 25.2945 22.8726C24.8013 23.6384 24.2532 28.124 24.308 28.124C24.3628 28.124 24.8013 27.9052 24.9109 27.6864C25.0205 27.4676 25.4041 25.4983 25.5138 25.3342C25.6234 25.1701 25.7878 23.8572 25.9522 23.6931C26.1167 23.529 26.5551 22.3803 26.6647 22.2709C26.7743 22.1615 27.2128 21.3956 27.3224 21.3956C27.432 21.3956 27.9253 20.7939 27.8705 20.7939Z" fill="url(#paint8_linear_21_5815)"/>
<path d="M24.1436 28.3726C24.1436 28.3726 25.3493 25.9359 25.5138 24.8966C25.6782 23.8572 26.311 22.6339 26.8092 21.8879C27.3075 21.142 27.8705 20.7939 27.8705 20.7939C27.8705 20.7939 27.6673 23.9827 27.2845 25.0739C26.8966 26.1796 25.8143 26.941 25.5636 27.3581C24.8162 28.6014 24.1436 28.3726 24.1436 28.3726Z" fill="url(#paint9_linear_21_5815)"/>
<path d="M23.3807 19.1395C23.3807 19.1395 18.8033 11.5252 14.9888 12.2867C11.1743 13.0481 10.4114 16.0938 11.1743 18.3781C11.9372 20.6624 11.9372 16.8552 11.9372 16.8552C11.9372 16.8552 13.463 13.8095 15.7517 14.5709C18.0404 15.3324 21.8549 18.3781 21.8549 18.3781L23.4583 19.9296L23.3807 19.1395Z" fill="url(#paint10_linear_21_5815)"/>
<path d="M23.6312 19.1395C23.6312 19.1395 26.3041 11.5252 28.5316 12.2867C30.759 13.0481 32.218 16.0938 31.7725 18.3781C31.327 20.6624 30.3135 16.8552 30.3135 16.8552C30.3135 16.8552 28.5316 14.5709 27.1951 15.3324C25.8587 16.0938 24.5222 18.3781 24.5222 18.3781L23.4582 19.9296L23.6312 19.1395Z" fill="url(#paint11_linear_21_5815)"/>
<defs>
<linearGradient id="paint0_linear_21_5815" x1="0" y1="33.8448" x2="48.8714" y2="33.8448" gradientUnits="userSpaceOnUse">
<stop stop-color="#7B4F39"/>
<stop offset="0.0001" stop-color="#5F312D"/>
<stop offset="1" stop-color="#9B6B51"/>
</linearGradient>
<linearGradient id="paint1_linear_21_5815" x1="0.0178967" y1="18.7019" x2="0.451871" y2="46.8794" gradientUnits="userSpaceOnUse">
<stop stop-color="#AFFFA1"/>
<stop offset="1" stop-color="#00B37C"/>
</linearGradient>
<linearGradient id="paint2_linear_21_5815" x1="17.3316" y1="31.1148" x2="17.3316" y2="37.2062" gradientUnits="userSpaceOnUse">
<stop stop-color="#6B6C83"/>
<stop offset="1" stop-color="#282C40"/>
</linearGradient>
<linearGradient id="paint3_linear_21_5815" x1="23.4259" y1="13.8459" x2="24.685" y2="15.3401" gradientUnits="userSpaceOnUse">
<stop stop-color="#00CC60"/>
<stop offset="0.506126" stop-color="#19C05D"/>
<stop offset="1" stop-color="#0B692C"/>
</linearGradient>
<linearGradient id="paint4_linear_21_5815" x1="22.0659" y1="15.2554" x2="23.7239" y2="15.6688" gradientUnits="userSpaceOnUse">
<stop stop-color="#349B4A"/>
<stop offset="0.503621" stop-color="#66D16A"/>
<stop offset="1" stop-color="#3DA24F"/>
</linearGradient>
<linearGradient id="paint5_linear_21_5815" x1="24.9993" y1="20.9807" x2="23.4893" y2="20.9807" gradientUnits="userSpaceOnUse">
<stop stop-color="#349B4A"/>
<stop offset="0.503621" stop-color="#66D16A"/>
<stop offset="1" stop-color="#3DA24F"/>
</linearGradient>
<linearGradient id="paint6_linear_21_5815" x1="20.0971" y1="19.1402" x2="22.2527" y2="19.7585" gradientUnits="userSpaceOnUse">
<stop stop-color="#00CC60"/>
<stop offset="0.506126" stop-color="#19C05D"/>
<stop offset="1" stop-color="#0B692C"/>
</linearGradient>
<linearGradient id="paint7_linear_21_5815" x1="19.7478" y1="21.3944" x2="21.7562" y2="20.7419" gradientUnits="userSpaceOnUse">
<stop stop-color="#349B4A"/>
<stop offset="0.503621" stop-color="#66D16A"/>
<stop offset="1" stop-color="#3DA24F"/>
</linearGradient>
<linearGradient id="paint8_linear_21_5815" x1="26.2137" y1="19.591" x2="24.2283" y2="20.6328" gradientUnits="userSpaceOnUse">
<stop stop-color="#00CC60"/>
<stop offset="0.506126" stop-color="#19C05D"/>
<stop offset="1" stop-color="#0B692C"/>
</linearGradient>
<linearGradient id="paint9_linear_21_5815" x1="27.1418" y1="22.0953" x2="25.0786" y2="22.0953" gradientUnits="userSpaceOnUse">
<stop stop-color="#349B4A"/>
<stop offset="0.503621" stop-color="#66D16A"/>
<stop offset="1" stop-color="#3DA24F"/>
</linearGradient>
<linearGradient id="paint10_linear_21_5815" x1="21.0046" y1="13.5356" x2="14.057" y2="13.5356" gradientUnits="userSpaceOnUse">
<stop stop-color="#349B4A"/>
<stop offset="0.503621" stop-color="#66D16A"/>
<stop offset="1" stop-color="#3DA24F"/>
</linearGradient>
<linearGradient id="paint11_linear_21_5815" x1="25.0994" y1="13.5356" x2="29.7466" y2="13.5356" gradientUnits="userSpaceOnUse">
<stop stop-color="#349B4A"/>
<stop offset="0.503621" stop-color="#66D16A"/>
<stop offset="1" stop-color="#3DA24F"/>
</linearGradient>
</defs>
</svg>
