<svg width="49" height="49" viewBox="0 0 49 49" fill="none" xmlns="http://www.w3.org/2000/svg">
<path d="M47.5613 33.1593C48.343 33.6059 49.013 29.8098 48.8455 34.8341C48.8455 35.504 48.4547 36.1739 47.6171 36.6764L27.5726 48.2881C25.8976 49.2372 23.1617 49.2372 21.4866 48.2881L1.33043 36.6764C0.492919 36.1739 0.102076 35.5599 0.046242 34.8899C-0.177096 29.419 0.437081 33.606 1.2746 33.1035L21.3192 21.4918C22.9942 20.5427 25.7301 20.5427 27.4051 21.4918L47.5613 33.1593Z" fill="url(#paint0_linear_21_5872)"/>
<g filter="url(#filter0_i_21_5872)">
<path d="M47.5609 30.6497C49.2359 31.5987 49.2359 33.2177 47.5609 34.1667L27.5163 45.7785C25.8413 46.7275 23.1054 46.7275 21.4304 45.7785L1.27417 34.1667C-0.400861 33.2177 -0.400861 31.5987 1.27417 30.6497L21.3187 19.0379C22.9938 18.0889 25.7296 18.0889 27.4047 19.0379L47.5609 30.6497Z" fill="url(#paint1_linear_21_5872)"/>
</g>
<path d="M0 29.9713V29.1576C0 29.3953 0.073192 29.6527 0.109788 29.7517L0.051665 30.3459L0 29.9713Z" fill="#AB6F1D"/>
<path d="M10.7528 19.2699V18.44C11.148 18.5175 11.5891 18.6316 11.7602 18.679V19.4442L10.7528 19.2699Z" fill="#7E2424"/>
<g filter="url(#filter1_ii_21_5872)">
<path fill-rule="evenodd" clip-rule="evenodd" d="M47.2419 30.1751C49.4024 31.4225 49.4137 33.4451 47.2673 34.6923L28.4124 45.6495C26.266 46.8972 22.7743 46.8972 20.6137 45.6495L1.63441 34.6919C-0.526152 33.4445 -0.537651 31.4219 1.60894 30.1745L20.4636 19.2175C22.6102 17.9701 26.1018 17.9701 28.2623 19.2173L47.2419 30.1751Z" fill="url(#paint2_linear_21_5872)"/>
</g>
<path opacity="0.67" d="M48.374 31.1198C48.5573 31.3534 48.6902 31.5964 48.7717 31.8446L23.3664 46.5129C22.9432 46.4608 22.5285 46.3804 22.1315 46.2703L48.374 31.1198ZM46.1448 29.5419L19.4291 44.9658L18.6039 44.4896L45.3196 29.0656L46.1448 29.5419ZM42.8399 27.6339L16.1242 43.0578L15.296 42.5796L42.0117 27.1557L42.8399 27.6339ZM39.532 25.7239L12.8163 41.1479L11.9901 40.6706L38.7048 25.2467L39.532 25.7239ZM36.2251 23.815L9.50942 39.2389L8.68319 38.7616L35.3989 23.3377L36.2251 23.815ZM32.9182 21.905L6.20252 37.3299L5.37729 36.8527L32.093 21.4287L32.9182 21.905ZM29.6123 19.997L2.89761 35.4209L2.06939 34.9437L28.7851 19.5198L29.6123 19.997ZM24.3159 18.2829C24.8084 18.2807 25.301 18.3185 25.7804 18.3923L0.1634 33.1819C0.0439705 32.8975 -0.00658565 32.6056 0.0102844 32.3149L24.3159 18.2829Z" fill="#689564"/>
<g filter="url(#filter2_d_21_5872)">
<mask id="path-7-inside-1_21_5872" fill="white">
<path d="M10.5963 21.6435C14.6601 22.5413 22.1467 25.502 21.4993 30.6813C20.6727 37.2943 18.6062 39.3609 20.2595 41.8408C20.3862 42.0309 20.5826 42.2396 20.8372 42.4642C20.7613 42.425 20.6864 42.3851 20.6134 42.3429L1.63406 31.3852C-0.526336 30.1378 -0.537336 28.1147 1.60921 26.8673L10.5963 21.6435Z"/>
</mask>
<path d="M10.5963 21.6435C14.6601 22.5413 22.1467 25.502 21.4993 30.6813C20.6727 37.2943 18.6062 39.3609 20.2595 41.8408C20.3862 42.0309 20.5826 42.2396 20.8372 42.4642C20.7613 42.425 20.6864 42.3851 20.6134 42.3429L1.63406 31.3852C-0.526336 30.1378 -0.537336 28.1147 1.60921 26.8673L10.5963 21.6435Z" fill="url(#paint3_linear_21_5872)"/>
<path d="M10.5963 21.6435L10.7061 21.1464L10.5122 21.1036L10.3405 21.2034L10.5963 21.6435ZM21.4993 30.6813L22.0045 30.7444V30.7444L21.4993 30.6813ZM20.2595 41.8408L19.8359 42.1232L19.836 42.1233L20.2595 41.8408ZM20.8372 42.4642L20.6031 42.9163L21.1739 42.0825L20.8372 42.4642ZM20.6134 42.3429L20.868 41.9021L20.868 41.9021L20.6134 42.3429ZM1.63406 31.3852L1.37951 31.8261L1.37953 31.8261L1.63406 31.3852ZM1.60921 26.8673L1.86498 27.3075L1.86503 27.3074L1.60921 26.8673ZM10.5963 21.6435L10.4865 22.1406C12.4814 22.5813 15.3056 23.5277 17.5363 24.9832C19.7843 26.4499 21.2807 28.3261 20.9942 30.6182L21.4993 30.6813L22.0045 30.7444C22.3654 27.8573 20.4422 25.6635 18.0927 24.1305C15.726 22.5864 12.775 21.6035 10.7061 21.1464L10.5963 21.6435ZM21.4993 30.6813L20.9942 30.6182C20.5859 33.8842 19.8771 36.0012 19.4556 37.6875C19.0346 39.3715 18.8838 40.695 19.8359 42.1232L20.2595 41.8408L20.6831 41.5585C19.9819 40.5068 20.0377 39.5571 20.4433 37.9345C20.8483 36.3142 21.5861 34.0915 22.0045 30.7444L21.4993 30.6813ZM20.2595 41.8408L19.836 42.1233C19.9976 42.3657 20.2306 42.608 20.5004 42.846L20.8372 42.4642L21.1739 42.0825C20.9345 41.8713 20.7748 41.6961 20.683 41.5584L20.2595 41.8408ZM20.8372 42.4642L21.0712 42.0122C20.9984 41.9745 20.9313 41.9386 20.868 41.9021L20.6134 42.3429L20.3589 42.7838C20.4415 42.8315 20.5242 42.8755 20.6031 42.9163L20.8372 42.4642ZM20.6134 42.3429L20.868 41.9021L1.88859 30.9444L1.63406 31.3852L1.37953 31.8261L20.3589 42.7838L20.6134 42.3429ZM1.63406 31.3852L1.88861 30.9444C0.900872 30.3741 0.518726 29.6967 0.515584 29.1235C0.512449 28.5516 0.885588 27.8766 1.86498 27.3075L1.60921 26.8673L1.35343 26.4272C0.186282 27.1054 -0.50835 28.0657 -0.502521 29.1291C-0.496699 30.1911 0.206855 31.149 1.37951 31.8261L1.63406 31.3852ZM1.60921 26.8673L1.86503 27.3074L10.8521 22.0836L10.5963 21.6435L10.3405 21.2034L1.35339 26.4272L1.60921 26.8673Z" fill="#FCB74C" mask="url(#path-7-inside-1_21_5872)"/>
</g>
<g filter="url(#filter3_d_21_5872)">
<path d="M20.7958 12.6042C22.9424 11.3568 26.4342 11.357 28.5947 12.6042L37.199 17.5715L37.1245 17.5974C33.1291 19.5262 26.6262 26.0288 32.5777 36.6096C32.6058 36.6595 32.6367 36.7078 32.6652 36.7567L28.7449 39.0365C26.5985 40.284 23.1064 40.2841 20.9459 39.0365L20.8306 38.9699C20.7356 38.8673 20.6545 38.7704 20.5919 38.6766C18.9387 36.1967 21.0051 34.13 21.8318 27.5171C22.4887 22.262 14.7718 19.2902 10.7528 18.4405L20.7958 12.6042Z" fill="url(#paint4_linear_21_5872)"/>
</g>
<path d="M30.5514 31.5811C30.734 32.3582 30.9883 33.1648 31.322 34.0011L22.9583 38.8302C23.3552 38.9404 23.77 39.0208 24.1931 39.0728L31.6471 34.7677C31.9158 35.3671 32.2243 35.9818 32.5777 36.6101C32.6058 36.6599 32.6368 36.7084 32.6652 36.7572L28.7449 39.037C26.5985 40.2844 23.1063 40.2845 20.9459 39.037L20.8306 38.9704C20.7357 38.8679 20.6545 38.7708 20.5919 38.6771C20.3065 38.249 20.1333 37.8325 20.0441 37.4035L20.2559 37.5258L30.5514 31.5811ZM30.1875 27.9749C30.1525 28.8434 30.2093 29.7616 30.3774 30.729L19.9705 36.7373C19.9521 35.8383 20.2237 34.8346 20.581 33.5209L30.1875 27.9749ZM31.2693 23.5306C30.7851 24.5597 30.4304 25.7072 30.271 26.9707L20.8813 32.3914C21.1237 31.4584 21.3779 30.3834 21.5942 29.1163L31.2693 23.5306ZM37.199 17.572L37.1245 17.5979C35.5148 18.375 33.498 19.8942 32.0528 22.1237L21.7582 28.0674C21.7834 27.8876 21.8084 27.7045 21.8318 27.5176C21.9308 26.7255 21.8383 25.9853 21.5981 25.2964L36.0884 16.9307L37.199 17.572ZM35.2622 16.4535L21.2631 24.5348C20.8819 23.821 20.3399 23.1694 19.6921 22.5781L32.7806 15.0207L35.2622 16.4535ZM31.9553 14.5445L19.018 22.0134C18.2967 21.4548 17.4866 20.9567 16.6418 20.522L29.4746 13.1128L31.9553 14.5445ZM25.3256 11.692C26.5187 11.7717 27.6769 12.0749 28.5947 12.6047L28.6484 12.6355L15.742 20.0865C14.7285 19.6256 13.6965 19.2504 12.7393 18.958L25.3256 11.692ZM11.6267 18.6448C11.3207 18.5667 11.028 18.4992 10.7528 18.441L20.7958 12.6047C21.5919 12.1421 22.5729 11.8502 23.6026 11.7307L11.6267 18.6448Z" fill="url(#paint5_linear_21_5872)"/>
<g filter="url(#filter4_d_21_5872)">
<mask id="path-11-inside-2_21_5872" fill="white">
<path d="M47.2414 15.1525C49.4019 16.3998 49.4134 18.4222 47.2673 19.6694L32.3325 28.3483C32.304 28.2993 32.2732 28.2512 32.245 28.2011C26.2932 17.6201 32.7964 11.1168 36.7918 9.18793L36.8664 9.16308L47.2414 15.1525Z"/>
</mask>
<path d="M47.2414 15.1525C49.4019 16.3998 49.4134 18.4222 47.2673 19.6694L32.3325 28.3483C32.304 28.2993 32.2732 28.2512 32.245 28.2011C26.2932 17.6201 32.7964 11.1168 36.7918 9.18793L36.8664 9.16308L47.2414 15.1525Z" fill="#3BE055"/>
<path d="M47.2414 15.1525L47.496 14.7116L47.4959 14.7116L47.2414 15.1525ZM47.2673 19.6694L47.5231 20.1095L47.5231 20.1095L47.2673 19.6694ZM32.3325 28.3483L31.8929 28.6049L32.149 29.0437L32.5883 28.7884L32.3325 28.3483ZM32.245 28.2011L31.8014 28.4507L31.8014 28.4507L32.245 28.2011ZM36.7918 9.18793L36.6308 8.705L36.5999 8.71532L36.5705 8.7295L36.7918 9.18793ZM36.8664 9.16308L37.1209 8.72221L36.9226 8.60774L36.7054 8.68014L36.8664 9.16308ZM47.2414 15.1525L46.9869 15.5933C47.9748 16.1637 48.357 16.8409 48.3603 17.4139C48.3635 17.9855 47.9907 18.6602 47.0115 19.2293L47.2673 19.6694L47.5231 20.1095C48.69 19.4314 49.3844 18.4713 49.3784 17.4081C49.3723 16.3463 48.6686 15.3886 47.496 14.7116L47.2414 15.1525ZM47.2673 19.6694L47.0115 19.2293L32.0768 27.9081L32.3325 28.3483L32.5883 28.7884L47.5231 20.1095L47.2673 19.6694ZM32.3325 28.3483L32.7722 28.0916C32.7243 28.0096 32.7196 28.0065 32.6887 27.9515L32.245 28.2011L31.8014 28.4507C31.8268 28.4959 31.8836 28.589 31.8929 28.6049L32.3325 28.3483ZM32.245 28.2011L32.6887 27.9516C29.7811 22.7825 29.9448 18.6786 31.2553 15.6523C32.5782 12.5974 35.101 10.5695 37.0131 9.64637L36.7918 9.18793L36.5705 8.7295C34.4872 9.73524 31.7606 11.9234 30.3211 15.2477C28.8691 18.6005 28.7572 23.0388 31.8014 28.4507L32.245 28.2011ZM36.7918 9.18793L36.9528 9.67087L37.0273 9.64602L36.8664 9.16308L36.7054 8.68014L36.6308 8.705L36.7918 9.18793ZM36.8664 9.16308L36.6118 9.60395L46.9869 15.5934L47.2414 15.1525L47.4959 14.7116L37.1209 8.72221L36.8664 9.16308Z" fill="#70FF6D" mask="url(#path-11-inside-2_21_5872)"/>
</g>
<path d="M48.8686 17.552V17.4552C48.8702 17.4868 48.8701 17.5193 48.8686 17.552V18.2366L48.6232 18.8372L48.733 18.1365C48.7773 18.0309 48.858 17.7836 48.8686 17.552Z" fill="#439E4C"/>
<path d="M32.0355 37.1236C32.1905 37.0358 32.5199 36.8437 32.6652 36.7587V37.5886C32.3907 37.4702 31.8805 37.2114 32.0355 37.1236Z" fill="#7E2424"/>
<path d="M20.8274 43.2843V42.4641C20.6156 42.3531 19.7511 41.8495 19.3453 41.6117V42.4351L20.8274 43.2843Z" fill="#AB6F1D"/>
<defs>
<filter id="filter0_i_21_5872" x="0.0178966" y="18.3262" width="48.7993" height="28.1643" filterUnits="userSpaceOnUse" color-interpolation-filters="sRGB">
<feFlood flood-opacity="0" result="BackgroundImageFix"/>
<feBlend mode="normal" in="SourceGraphic" in2="BackgroundImageFix" result="shape"/>
<feColorMatrix in="SourceAlpha" type="matrix" values="0 0 0 0 0 0 0 0 0 0 0 0 0 0 0 0 0 0 127 0" result="hardAlpha"/>
<feOffset dy="-1"/>
<feComposite in2="hardAlpha" operator="arithmetic" k2="-1" k3="1"/>
<feColorMatrix type="matrix" values="0 0 0 0 1 0 0 0 0 0.7 0 0 0 0 0.5375 0 0 0 0.75 0"/>
<feBlend mode="normal" in2="shape" result="effect1_innerShadow_21_5872"/>
</filter>
<filter id="filter1_ii_21_5872" x="0.00646267" y="18.2819" width="48.8633" height="28.3035" filterUnits="userSpaceOnUse" color-interpolation-filters="sRGB">
<feFlood flood-opacity="0" result="BackgroundImageFix"/>
<feBlend mode="normal" in="SourceGraphic" in2="BackgroundImageFix" result="shape"/>
<feColorMatrix in="SourceAlpha" type="matrix" values="0 0 0 0 0 0 0 0 0 0 0 0 0 0 0 0 0 0 127 0" result="hardAlpha"/>
<feOffset dy="-1"/>
<feComposite in2="hardAlpha" operator="arithmetic" k2="-1" k3="1"/>
<feColorMatrix type="matrix" values="0 0 0 0 1 0 0 0 0 1 0 0 0 0 1 0 0 0 0.3 0"/>
<feBlend mode="normal" in2="shape" result="effect1_innerShadow_21_5872"/>
<feColorMatrix in="SourceAlpha" type="matrix" values="0 0 0 0 0 0 0 0 0 0 0 0 0 0 0 0 0 0 127 0" result="hardAlpha"/>
<feOffset/>
<feGaussianBlur stdDeviation="2.5"/>
<feComposite in2="hardAlpha" operator="arithmetic" k2="-1" k3="1"/>
<feColorMatrix type="matrix" values="0 0 0 0 1 0 0 0 0 1 0 0 0 0 1 0 0 0 0.3 0"/>
<feBlend mode="normal" in2="effect1_innerShadow_21_5872" result="effect2_innerShadow_21_5872"/>
</filter>
<filter id="filter2_d_21_5872" x="0.00649375" y="21.6435" width="21.5322" height="21.8389" filterUnits="userSpaceOnUse" color-interpolation-filters="sRGB">
<feFlood flood-opacity="0" result="BackgroundImageFix"/>
<feColorMatrix in="SourceAlpha" type="matrix" values="0 0 0 0 0 0 0 0 0 0 0 0 0 0 0 0 0 0 127 0" result="hardAlpha"/>
<feOffset dy="1"/>
<feComposite in2="hardAlpha" operator="out"/>
<feColorMatrix type="matrix" values="0 0 0 0 0.670833 0 0 0 0 0.433377 0 0 0 0 0.114601 0 0 0 1 0"/>
<feBlend mode="normal" in2="BackgroundImageFix" result="effect1_dropShadow_21_5872"/>
<feBlend mode="normal" in="SourceGraphic" in2="effect1_dropShadow_21_5872" result="shape"/>
</filter>
<filter id="filter3_d_21_5872" x="10.7528" y="11.6686" width="26.4463" height="29.3217" filterUnits="userSpaceOnUse" color-interpolation-filters="sRGB">
<feFlood flood-opacity="0" result="BackgroundImageFix"/>
<feColorMatrix in="SourceAlpha" type="matrix" values="0 0 0 0 0 0 0 0 0 0 0 0 0 0 0 0 0 0 127 0" result="hardAlpha"/>
<feOffset dy="1"/>
<feComposite in2="hardAlpha" operator="out"/>
<feColorMatrix type="matrix" values="0 0 0 0 0.495833 0 0 0 0 0.142552 0 0 0 0 0.142552 0 0 0 1 0"/>
<feBlend mode="normal" in2="BackgroundImageFix" result="effect1_dropShadow_21_5872"/>
<feBlend mode="normal" in="SourceGraphic" in2="effect1_dropShadow_21_5872" result="shape"/>
</filter>
<filter id="filter4_d_21_5872" x="29.8444" y="9.16308" width="19.0249" height="20.2033" filterUnits="userSpaceOnUse" color-interpolation-filters="sRGB">
<feFlood flood-opacity="0" result="BackgroundImageFix"/>
<feColorMatrix in="SourceAlpha" type="matrix" values="0 0 0 0 0 0 0 0 0 0 0 0 0 0 0 0 0 0 127 0" result="hardAlpha"/>
<feOffset dy="1"/>
<feComposite in2="hardAlpha" operator="out"/>
<feColorMatrix type="matrix" values="0 0 0 0 0.100833 0 0 0 0 0.55 0 0 0 0 0.14575 0 0 0 0.8 0"/>
<feBlend mode="normal" in2="BackgroundImageFix" result="effect1_dropShadow_21_5872"/>
<feBlend mode="normal" in="SourceGraphic" in2="effect1_dropShadow_21_5872" result="shape"/>
</filter>
<linearGradient id="paint0_linear_21_5872" x1="0" y1="33.8448" x2="48.8714" y2="33.8448" gradientUnits="userSpaceOnUse">
<stop stop-color="#7B4F39"/>
<stop offset="0.0001" stop-color="#5F312D"/>
<stop offset="1" stop-color="#9B6B51"/>
</linearGradient>
<linearGradient id="paint1_linear_21_5872" x1="0.0178967" y1="18.7019" x2="0.451871" y2="46.8794" gradientUnits="userSpaceOnUse">
<stop stop-color="#AFFFA1"/>
<stop offset="1" stop-color="#00B37C"/>
</linearGradient>
<linearGradient id="paint2_linear_21_5872" x1="26.5128" y1="14.8134" x2="13.8208" y2="39.8242" gradientUnits="userSpaceOnUse">
<stop stop-color="#2A6425"/>
<stop offset="1" stop-color="#325F23"/>
</linearGradient>
<linearGradient id="paint3_linear_21_5872" x1="51.9486" y1="17.4067" x2="0.00646267" y2="17.4067" gradientUnits="userSpaceOnUse">
<stop stop-color="#F8D65F"/>
<stop offset="1" stop-color="#DC8C2E"/>
</linearGradient>
<linearGradient id="paint4_linear_21_5872" x1="52.2796" y1="14.1007" x2="0.339342" y2="14.1007" gradientUnits="userSpaceOnUse">
<stop stop-color="#D73F3F"/>
<stop offset="1" stop-color="#CF2B2B"/>
</linearGradient>
<linearGradient id="paint5_linear_21_5872" x1="52.2796" y1="14.102" x2="0.339341" y2="14.102" gradientUnits="userSpaceOnUse">
<stop stop-color="#8D2828"/>
<stop offset="1" stop-color="#CF2B2B"/>
</linearGradient>
</defs>
</svg>
