<svg width="48" height="48" viewBox="0 0 48 48" fill="none" xmlns="http://www.w3.org/2000/svg">
<path d="M46.7122 32.4396C47.4799 32.8783 48.138 29.1494 47.9735 34.0847C47.9735 34.7428 47.5896 35.4008 46.767 35.8944L27.0804 47.3006C25.4352 48.2328 22.7482 48.2328 21.1031 47.3006L1.30668 35.8944C0.484119 35.4008 0.100254 34.7976 0.0454165 34.1396C-0.173934 28.7655 0.429278 32.8783 1.25184 32.3848L20.9385 20.9786C22.5837 20.0463 25.2707 20.0463 26.9158 20.9786L46.7122 32.4396Z" fill="url(#paint0_linear_21_6523)"/>
<g filter="url(#filter0_i_21_6523)">
<path fill-rule="evenodd" clip-rule="evenodd" d="M46.4 29.1625C48.5223 30.3878 48.5334 32.3746 46.425 33.5998L27.9036 44.3632C25.7951 45.5888 22.3651 45.5888 20.2428 44.3632L1.59915 33.5994C-0.523195 32.374 -0.53449 30.3872 1.57414 29.1619L20.0953 18.3987C22.204 17.1733 25.6338 17.1733 27.7561 18.3985L46.4 29.1625Z" fill="url(#paint1_linear_21_6523)"/>
</g>
<g filter="url(#filter1_ii_21_6523)">
<path fill-rule="evenodd" clip-rule="evenodd" d="M46.4 29.1625C47.1874 29.6171 45.0366 31.4091 33.2928 31.2839C21.549 31.1588 25.1726 27.2238 20.3005 25.5998C15.2468 23.9152 4.0601 28.0359 4.0601 28.0359C1.93776 26.8105 20.0953 18.3987 20.0953 18.3987C22.204 17.1733 25.6338 17.1733 27.7561 18.3985L46.4 29.1625Z" fill="url(#paint2_linear_21_6523)"/>
</g>
<ellipse cx="24.0264" cy="38.825" rx="5.68413" ry="2.43606" fill="url(#paint3_linear_21_6523)"/>
<g filter="url(#filter2_i_21_6523)">
<path d="M19.475 28.4207C22.3967 29.9829 24.3186 32.9186 24.5913 36.2076L24.6106 36.4903L24.7627 39.3168C24.7868 39.7646 24.4433 40.1472 23.9955 40.1712C23.5796 40.1936 23.2201 39.899 23.1515 39.4983L23.141 39.404L22.9889 36.5775C22.8412 33.8305 21.3135 31.3516 18.9414 29.9819L18.7093 29.8529L15.3387 28.0507C12.7945 26.6904 10.9884 24.2753 10.3973 21.4615L10.3423 21.1788L9.40207 15.9393C9.32286 15.4979 9.61649 15.0758 10.0579 14.9966C10.4678 14.923 10.861 15.171 10.9785 15.5602L11.0006 15.6524L11.9408 20.8919C12.3639 23.2499 13.8055 25.296 15.8723 26.4895L16.1045 26.6186L19.475 28.4207Z" fill="#E3B17A"/>
</g>
<path d="M22.7154 31.5079C22.5464 31.4023 22.4819 31.1926 22.5532 31.0138L22.5863 30.9484L25.4537 26.3605C26.2344 25.1115 27.5778 24.3314 29.0408 24.2659L29.241 24.2614H30.6688C32.4686 24.2614 34.0856 25.3407 34.7818 26.987L34.8528 27.1656L35.0977 27.8217C35.1762 28.0317 35.0694 28.2656 34.8594 28.344C34.6726 28.4137 34.4671 28.3372 34.3687 28.1717L34.337 28.1057L34.0921 27.4496C33.5792 26.0757 32.2977 25.147 30.844 25.0776L30.6688 25.0735H29.241C28.0441 25.0735 26.9274 25.6592 26.2462 26.6338L26.1423 26.7909L23.2749 31.3788C23.1561 31.5689 22.9056 31.6267 22.7154 31.5079Z" fill="#E3B17A"/>
<path d="M14.4076 34.5751L15.9009 35.6208C17.7834 36.939 20.3313 36.9 22.3659 35.5441L22.5819 35.3937L23.3587 34.8295C23.6075 34.6489 23.6814 34.3057 23.5239 34.0629C23.3839 33.8472 23.1082 33.7834 22.874 33.8988L22.7884 33.9505L22.0116 34.5147C20.3848 35.6962 18.3075 35.8101 16.7319 34.8241L16.5453 34.7005L15.052 33.6548C14.3544 33.8517 14.4076 34.5751 14.4076 34.5751Z" fill="#E3B17A"/>
<ellipse cx="10.5563" cy="11.466" rx="2.43606" ry="4.4661" fill="url(#paint4_linear_21_6523)"/>
<path d="M10.5563 15.12V10.2478" stroke="#4A753F" stroke-width="0.5" stroke-linecap="round"/>
<path d="M9.3382 11.4658L10.5562 12.6839" stroke="#4A753F" stroke-width="0.5" stroke-linecap="round"/>
<path d="M11.7743 11.4658L10.5563 12.6839" stroke="#4A753F" stroke-width="0.5" stroke-linecap="round"/>
<path d="M9.74422 13.4958L10.5562 14.3078" stroke="#4A753F" stroke-width="0.5" stroke-linecap="round"/>
<path d="M11.3683 13.4958L10.5562 14.3078" stroke="#4A753F" stroke-width="0.5" stroke-linecap="round"/>
<ellipse cx="14.1963" cy="17.848" rx="1.94885" ry="3.57288" transform="rotate(38 14.1963 17.848)" fill="url(#paint5_linear_21_6523)"/>
<path d="M12.3966 20.1514L14.7962 17.08" stroke="#4A753F" stroke-width="0.5" stroke-linecap="round"/>
<path d="M13.4285 17.2481L13.5964 18.6158" stroke="#4A753F" stroke-width="0.5" stroke-linecap="round"/>
<path d="M14.9642 18.4482L13.5964 18.6161" stroke="#4A753F" stroke-width="0.5" stroke-linecap="round"/>
<path d="M12.6846 18.7276L12.7965 19.6395" stroke="#4A753F" stroke-width="0.5" stroke-linecap="round"/>
<path d="M13.7084 19.5279L12.7965 19.6399" stroke="#4A753F" stroke-width="0.5" stroke-linecap="round"/>
<ellipse cx="1.94888" cy="3.57296" rx="1.94888" ry="3.57296" transform="matrix(-0.453981 0.890988 0.890988 0.453981 6.9626 20.4019)" fill="url(#paint6_linear_21_6523)"/>
<path d="M11.8659 25.0877L8.39308 23.3182" stroke="#4A753F" stroke-width="0.5" stroke-linecap="round"/>
<path d="M9.70367 22.8925L10.1295 24.2031" stroke="#4A753F" stroke-width="0.5" stroke-linecap="round"/>
<path d="M8.81893 24.6285L10.1295 24.2027" stroke="#4A753F" stroke-width="0.5" stroke-linecap="round"/>
<path d="M11.0033 23.9189L11.2871 24.7927" stroke="#4A753F" stroke-width="0.5" stroke-linecap="round"/>
<path d="M10.4134 25.0766L11.2871 24.7927" stroke="#4A753F" stroke-width="0.5" stroke-linecap="round"/>
<ellipse cx="18.1824" cy="25.1966" rx="1.94885" ry="3.57288" transform="rotate(-5 18.1824 25.1966)" fill="url(#paint7_linear_21_6523)"/>
<path d="M18.4372 28.1089L18.0975 24.2261" stroke="#4A753F" stroke-width="0.2" stroke-linecap="round"/>
<path d="M17.2117 25.2816L18.2674 26.1674" stroke="#4A753F" stroke-width="0.2" stroke-linecap="round"/>
<path d="M19.1532 25.1116L18.2674 26.1673" stroke="#4A753F" stroke-width="0.2" stroke-linecap="round"/>
<path d="M17.6769 26.871L18.3806 27.4616" stroke="#4A753F" stroke-width="0.2" stroke-linecap="round"/>
<path d="M18.9711 26.7578L18.3806 27.4615" stroke="#4A753F" stroke-width="0.2" stroke-linecap="round"/>
<ellipse cx="36.813" cy="24.5777" rx="1.55908" ry="2.85831" transform="rotate(53 36.813 24.5777)" fill="url(#paint8_linear_21_6523)"/>
<path d="M34.9453 25.985L37.4356 24.1084" stroke="#4A753F" stroke-width="0.2" stroke-linecap="round"/>
<path d="M36.3439 23.9552L36.1905 25.0469" stroke="#4A753F" stroke-width="0.2" stroke-linecap="round"/>
<path d="M37.2822 25.2003L36.1905 25.0469" stroke="#4A753F" stroke-width="0.2" stroke-linecap="round"/>
<path d="M35.4627 24.9443L35.3604 25.6721" stroke="#4A753F" stroke-width="0.2" stroke-linecap="round"/>
<path d="M36.0882 25.7749L35.3604 25.6726" stroke="#4A753F" stroke-width="0.2" stroke-linecap="round"/>
<ellipse cx="36.9334" cy="28.1575" rx="1.55908" ry="2.85831" transform="rotate(106 36.9334 28.1575)" fill="url(#paint9_linear_21_6523)"/>
<path d="M34.6854 27.5128L37.6828 28.3723" stroke="#4A753F" stroke-width="0.2" stroke-linecap="round"/>
<path d="M37.1483 27.4081L36.1841 27.9425" stroke="#4A753F" stroke-width="0.2" stroke-linecap="round"/>
<path d="M36.7186 28.907L36.1841 27.9428" stroke="#4A753F" stroke-width="0.2" stroke-linecap="round"/>
<path d="M35.8278 27.2997L35.185 27.6561" stroke="#4A753F" stroke-width="0.2" stroke-linecap="round"/>
<path d="M35.5413 28.2987L35.185 27.6559" stroke="#4A753F" stroke-width="0.2" stroke-linecap="round"/>
<ellipse cx="1.55911" cy="2.85836" rx="1.55911" ry="2.85836" transform="matrix(0.275632 0.961242 0.961242 -0.275632 9.42242 33.9427)" fill="url(#paint10_linear_21_6523)"/>
<path d="M14.8478 34.0087L11.8504 34.8682" stroke="#4A753F" stroke-width="0.2" stroke-linecap="round"/>
<path d="M12.3849 33.904L13.3491 34.4385" stroke="#4A753F" stroke-width="0.2" stroke-linecap="round"/>
<path d="M12.8146 35.403L13.3491 34.4388" stroke="#4A753F" stroke-width="0.2" stroke-linecap="round"/>
<path d="M13.7054 33.7957L14.3482 34.152" stroke="#4A753F" stroke-width="0.2" stroke-linecap="round"/>
<path d="M13.9919 34.7947L14.3482 34.1519" stroke="#4A753F" stroke-width="0.2" stroke-linecap="round"/>
<ellipse cx="1.55911" cy="2.85836" rx="1.55911" ry="2.85836" transform="matrix(-0.848031 -0.529908 -0.529908 0.848031 19.6896 30.0028)" fill="url(#paint11_linear_21_6523)"/>
<path d="M15.6135 33.5836L17.2659 30.9393" stroke="#4A753F" stroke-width="0.2" stroke-linecap="round"/>
<path d="M17.5139 32.0137L16.4397 32.2616" stroke="#4A753F" stroke-width="0.2" stroke-linecap="round"/>
<path d="M16.1917 31.1875L16.4397 32.2617" stroke="#4A753F" stroke-width="0.2" stroke-linecap="round"/>
<path d="M16.605 32.9778L15.8889 33.1432" stroke="#4A753F" stroke-width="0.2" stroke-linecap="round"/>
<path d="M15.7236 32.4271L15.8889 33.1432" stroke="#4A753F" stroke-width="0.2" stroke-linecap="round"/>
<path fill-rule="evenodd" clip-rule="evenodd" d="M30.9393 24.6274L32.6984 23.3333C32.6984 23.3333 31.4926 21.2448 31.0749 21.486C30.6572 21.7271 30.0866 21.2212 29.6689 21.4623C29.2512 21.7035 28.2393 22.8447 28.2393 22.8447L29.7099 23.9449L30.9393 24.6274Z" fill="url(#paint12_linear_21_6523)"/>
<path fill-rule="evenodd" clip-rule="evenodd" d="M30.7948 24.5886C30.7948 24.5886 32.3966 19.6789 32.8235 17.3645C33.2504 15.0501 33.0403 14.1762 32.5414 14.4642C32.0424 14.7523 31.0235 16.176 30.735 18.5703C30.4465 20.9645 30.7948 24.5886 30.7948 24.5886Z" fill="url(#paint13_linear_21_6523)"/>
<path fill-rule="evenodd" clip-rule="evenodd" d="M30.7948 24.5884C30.7948 24.5884 35.0145 22.8762 36.7097 21.8798C38.4049 20.8834 38.8207 20.216 38.3405 19.9904C37.8603 19.7648 36.3607 19.7847 34.6995 20.9356C33.0383 22.0866 30.7948 24.5884 30.7948 24.5884Z" fill="url(#paint14_linear_21_6523)"/>
<path fill-rule="evenodd" clip-rule="evenodd" d="M30.743 24.5744C30.743 24.5744 27.9447 20.9818 26.9748 19.2713C26.0049 17.5607 25.9785 16.7748 26.5072 16.8196C27.0358 16.8644 28.3246 17.6313 29.1878 19.4587C30.0509 21.286 30.743 24.5744 30.743 24.5744Z" fill="url(#paint15_linear_21_6523)"/>
<path fill-rule="evenodd" clip-rule="evenodd" d="M30.767 24.5943C30.767 24.5943 26.5181 22.956 24.8057 21.9893C23.0934 21.0226 22.666 20.3626 23.1422 20.1287C23.6184 19.8948 25.1181 19.8885 26.7991 21.0102C28.4801 22.132 30.767 24.5943 30.767 24.5943Z" fill="url(#paint16_linear_21_6523)"/>
<path fill-rule="evenodd" clip-rule="evenodd" d="M30.7277 24.6196C30.7277 24.6196 27.2401 24.2985 25.7678 23.9554C24.2954 23.6122 23.8366 23.2346 24.1365 22.9794C24.4364 22.7243 25.54 22.43 27.0231 22.8873C28.5061 23.3447 30.7277 24.6196 30.7277 24.6196Z" fill="url(#paint17_linear_21_6523)"/>
<path fill-rule="evenodd" clip-rule="evenodd" d="M30.1701 24.3313C30.1701 24.3313 33.622 24.9238 35.133 24.9734C36.6439 25.0231 37.1848 24.777 36.9612 24.453C36.7375 24.1289 35.7477 23.559 34.1968 23.6169C32.6459 23.6748 30.1701 24.3313 30.1701 24.3313Z" fill="url(#paint18_linear_21_6523)"/>
<path fill-rule="evenodd" clip-rule="evenodd" d="M15.3453 34.6367L16.6018 33.7124C16.6018 33.7124 15.7405 32.2206 15.4421 32.3929C15.1438 32.5652 14.7362 32.2037 14.4379 32.376C14.1395 32.5483 13.4167 33.3634 13.4167 33.3634L14.4671 34.1492L15.3453 34.6367Z" fill="url(#paint19_linear_21_6523)"/>
<path fill-rule="evenodd" clip-rule="evenodd" d="M15.242 34.6089C15.242 34.6089 16.3862 31.102 16.6911 29.4488C16.9961 27.7957 16.846 27.1715 16.4896 27.3772C16.1332 27.583 15.4054 28.5999 15.1993 30.3101C14.9933 32.0203 15.242 34.6089 15.242 34.6089Z" fill="url(#paint20_linear_21_6523)"/>
<path fill-rule="evenodd" clip-rule="evenodd" d="M15.242 34.6091C15.242 34.6091 18.2561 33.3862 19.467 32.6745C20.6778 31.9627 20.9749 31.486 20.6318 31.3249C20.2888 31.1638 19.2177 31.178 18.0311 32.0001C16.8446 32.8222 15.242 34.6091 15.242 34.6091Z" fill="url(#paint21_linear_21_6523)"/>
<path fill-rule="evenodd" clip-rule="evenodd" d="M15.205 34.5991C15.205 34.5991 13.2063 32.033 12.5135 30.8112C11.8207 29.5893 11.8018 29.028 12.1795 29.06C12.5571 29.0919 13.4776 29.6398 14.0942 30.945C14.7107 32.2503 15.205 34.5991 15.205 34.5991Z" fill="url(#paint22_linear_21_6523)"/>
<path fill-rule="evenodd" clip-rule="evenodd" d="M15.2222 34.6134C15.2222 34.6134 12.1873 33.4432 10.9641 32.7527C9.74104 32.0622 9.43574 31.5908 9.7759 31.4237C10.1161 31.2566 11.1873 31.2521 12.388 32.0534C13.5887 32.8546 15.2222 34.6134 15.2222 34.6134Z" fill="url(#paint23_linear_21_6523)"/>
<path fill-rule="evenodd" clip-rule="evenodd" d="M15.1941 34.6315C15.1941 34.6315 12.703 34.4021 11.6513 34.157C10.5996 33.9119 10.2719 33.6422 10.4862 33.4599C10.7004 33.2777 11.4887 33.0675 12.548 33.3941C13.6073 33.7208 15.1941 34.6315 15.1941 34.6315Z" fill="url(#paint24_linear_21_6523)"/>
<path fill-rule="evenodd" clip-rule="evenodd" d="M14.7959 34.4253C14.7959 34.4253 17.2615 34.8485 18.3408 34.8839C19.42 34.9194 19.8064 34.7436 19.6466 34.5122C19.4869 34.2807 18.7799 33.8736 17.6721 33.915C16.5643 33.9563 14.7959 34.4253 14.7959 34.4253Z" fill="url(#paint25_linear_21_6523)"/>
<path fill-rule="evenodd" clip-rule="evenodd" d="M10.4732 23.2688L11.7296 22.3445C11.7296 22.3445 10.8684 20.8527 10.57 21.025C10.2716 21.1972 9.86408 20.8358 9.56573 21.0081C9.26737 21.1803 8.54456 21.9954 8.54456 21.9954L9.59499 22.7813L10.4732 23.2688Z" fill="url(#paint26_linear_21_6523)"/>
<path fill-rule="evenodd" clip-rule="evenodd" d="M10.3699 23.2415C10.3699 23.2415 11.514 19.7345 11.819 18.0814C12.1239 16.4282 11.9739 15.804 11.6175 16.0098C11.2611 16.2155 10.5333 17.2325 10.3272 18.9426C10.1212 20.6528 10.3699 23.2415 10.3699 23.2415Z" fill="url(#paint27_linear_21_6523)"/>
<path fill-rule="evenodd" clip-rule="evenodd" d="M10.37 23.2412C10.37 23.2412 13.384 22.0183 14.5949 21.3065C15.8057 20.5948 16.1028 20.1181 15.7597 19.957C15.4167 19.7959 14.3456 19.81 13.159 20.6321C11.9725 21.4542 10.37 23.2412 10.37 23.2412Z" fill="url(#paint28_linear_21_6523)"/>
<path fill-rule="evenodd" clip-rule="evenodd" d="M10.3329 23.2312C10.3329 23.2312 8.33415 20.665 7.64137 19.4432C6.94859 18.2214 6.92971 17.66 7.30734 17.692C7.68496 17.724 8.6055 18.2719 9.22204 19.5771C9.83859 20.8823 10.3329 23.2312 10.3329 23.2312Z" fill="url(#paint29_linear_21_6523)"/>
<path fill-rule="evenodd" clip-rule="evenodd" d="M10.3501 23.2454C10.3501 23.2454 7.31513 22.0753 6.09202 21.3848C4.86892 20.6943 4.56361 20.2228 4.90378 20.0558C5.24393 19.8887 6.31515 19.8842 7.51588 20.6854C8.7166 21.4867 10.3501 23.2454 10.3501 23.2454Z" fill="url(#paint30_linear_21_6523)"/>
<path fill-rule="evenodd" clip-rule="evenodd" d="M10.322 23.2636C10.322 23.2636 7.83086 23.0342 6.77918 22.7891C5.72751 22.544 5.39981 22.2742 5.61403 22.092C5.82824 21.9097 6.61653 21.6995 7.67585 22.0262C8.73518 22.3529 10.322 23.2636 10.322 23.2636Z" fill="url(#paint31_linear_21_6523)"/>
<path fill-rule="evenodd" clip-rule="evenodd" d="M9.92373 23.0574C9.92373 23.0574 12.3894 23.4805 13.4687 23.516C14.5479 23.5515 14.9343 23.3757 14.7745 23.1442C14.6148 22.9127 13.9078 22.5057 12.8 22.547C11.6922 22.5884 9.92373 23.0574 9.92373 23.0574Z" fill="url(#paint32_linear_21_6523)"/>
<path fill-rule="evenodd" clip-rule="evenodd" d="M23.3652 33.305L24.3759 33.6268C24.3759 33.6268 24.8523 32.5567 24.6383 32.4615C24.4243 32.3662 24.4602 31.9975 24.2462 31.9022C24.0322 31.8069 23.2949 31.7351 23.2949 31.7351L23.2824 32.6271L23.3652 33.305Z" fill="url(#paint33_linear_21_6523)"/>
<path fill-rule="evenodd" clip-rule="evenodd" d="M23.3392 33.237C23.3392 33.237 25.7258 32.4647 26.7571 31.9717C27.7884 31.4787 28.0718 31.1467 27.8162 31.0328C27.5606 30.919 26.7102 30.9251 25.687 31.4953C24.6638 32.0655 23.3392 33.237 23.3392 33.237Z" fill="url(#paint34_linear_21_6523)"/>
<path fill-rule="evenodd" clip-rule="evenodd" d="M23.3392 33.2373C23.3392 33.2373 25.2167 34.4066 26.0922 34.7883C26.9677 35.17 27.3487 35.1428 27.3002 34.8897C27.2517 34.6366 26.8158 34.053 25.8893 33.7288C24.9628 33.4047 23.3392 33.2373 23.3392 33.2373Z" fill="url(#paint35_linear_21_6523)"/>
<path fill-rule="evenodd" clip-rule="evenodd" d="M23.3298 33.213C23.3298 33.213 23.9427 31.0877 24.3379 30.2182C24.7332 29.3488 25.0345 29.114 25.1678 29.3345C25.3011 29.5551 25.3677 30.2805 24.8961 31.1413C24.4244 32.0022 23.3298 33.213 23.3298 33.213Z" fill="url(#paint36_linear_21_6523)"/>
<path fill-rule="evenodd" clip-rule="evenodd" d="M23.3289 33.2281C23.3289 33.2281 22.7596 31.0908 22.6506 30.1419C22.5416 29.193 22.6789 28.8366 22.9068 28.957C23.1347 29.0774 23.5653 29.6649 23.6045 30.6457C23.6436 31.6265 23.3289 33.2281 23.3289 33.2281Z" fill="url(#paint37_linear_21_6523)"/>
<path fill-rule="evenodd" clip-rule="evenodd" d="M23.3077 33.2199C23.3077 33.2199 22.4382 31.7577 22.1527 31.0812C21.8672 30.4047 21.8846 30.1166 22.0705 30.1616C22.2564 30.2066 22.6871 30.5563 22.9308 31.2696C23.1745 31.9829 23.3077 33.2199 23.3077 33.2199Z" fill="url(#paint38_linear_21_6523)"/>
<path fill-rule="evenodd" clip-rule="evenodd" d="M23.2618 32.9184C23.2618 32.9184 24.0145 34.444 24.4264 35.0519C24.8383 35.6598 25.0894 35.8021 25.1529 35.6217C25.2164 35.4413 25.1577 34.8897 24.6922 34.2968C24.2267 33.7039 23.2618 32.9184 23.2618 32.9184Z" fill="url(#paint39_linear_21_6523)"/>
<path fill-rule="evenodd" clip-rule="evenodd" d="M10.4617 15.9501L9.7611 15.1537C9.7611 15.1537 8.8016 15.8256 8.93597 16.0175C9.07034 16.2094 8.84968 16.5069 8.98405 16.6988C9.11842 16.8907 9.71343 17.332 9.71343 17.332L10.1835 16.5739L10.4617 15.9501Z" fill="url(#paint40_linear_21_6523)"/>
<path fill-rule="evenodd" clip-rule="evenodd" d="M10.4491 16.022C10.4491 16.022 8.00563 15.4548 6.86769 15.3462C5.72976 15.2376 5.31581 15.3762 5.47632 15.6055C5.63682 15.8347 6.36883 16.2675 7.53955 16.3057C8.71026 16.3439 10.4491 16.022 10.4491 16.022Z" fill="url(#paint41_linear_21_6523)"/>
<path fill-rule="evenodd" clip-rule="evenodd" d="M10.4491 16.022C10.4491 16.022 9.44203 14.0528 8.88813 13.2747C8.33423 12.4966 7.9937 12.3236 7.90489 12.5656C7.81608 12.8075 7.88916 13.5322 8.51638 14.2873C9.1436 15.0424 10.4491 16.022 10.4491 16.022Z" fill="url(#paint42_linear_21_6523)"/>
<path fill-rule="evenodd" clip-rule="evenodd" d="M10.4446 16.0477C10.4446 16.0477 8.82468 17.5537 8.03806 18.0954C7.25145 18.6372 6.8723 18.6832 6.87159 18.4255C6.87087 18.1678 7.18743 17.5118 8.03507 17.0167C8.88271 16.5217 10.4446 16.0477 10.4446 16.0477Z" fill="url(#paint43_linear_21_6523)"/>
<path fill-rule="evenodd" clip-rule="evenodd" d="M10.4531 16.0351C10.4531 16.0351 9.84031 18.1603 9.44505 19.0298C9.04979 19.8993 8.74852 20.134 8.61518 19.9135C8.48184 19.693 8.41529 18.9676 8.88691 18.1067C9.35853 17.2458 10.4531 16.0351 10.4531 16.0351Z" fill="url(#paint44_linear_21_6523)"/>
<path fill-rule="evenodd" clip-rule="evenodd" d="M10.4671 16.053C10.4671 16.053 10.4593 17.7541 10.3556 18.4811C10.2519 19.208 10.0886 19.446 9.95246 19.3117C9.8163 19.1774 9.6272 18.6558 9.7857 17.9189C9.9442 17.1819 10.4671 16.053 10.4671 16.053Z" fill="url(#paint45_linear_21_6523)"/>
<path fill-rule="evenodd" clip-rule="evenodd" d="M10.3511 16.335C10.3511 16.335 10.4917 14.6397 10.4517 13.9065C10.4118 13.1732 10.2698 12.9219 10.1225 13.0439C9.97515 13.1658 9.74131 13.6689 9.83498 14.4168C9.92864 15.1648 10.3511 16.335 10.3511 16.335Z" fill="url(#paint46_linear_21_6523)"/>
<defs>
<filter id="filter0_i_21_6523" x="0" y="17.4796" width="47.999" height="27.8027" filterUnits="userSpaceOnUse" color-interpolation-filters="sRGB">
<feFlood flood-opacity="0" result="BackgroundImageFix"/>
<feBlend mode="normal" in="SourceGraphic" in2="BackgroundImageFix" result="shape"/>
<feColorMatrix in="SourceAlpha" type="matrix" values="0 0 0 0 0 0 0 0 0 0 0 0 0 0 0 0 0 0 127 0" result="hardAlpha"/>
<feOffset dy="-1"/>
<feComposite in2="hardAlpha" operator="arithmetic" k2="-1" k3="1"/>
<feColorMatrix type="matrix" values="0 0 0 0 0.310375 0 0 0 0 0.330477 0 0 0 0 0.375839 0 0 0 0.3 0"/>
<feBlend mode="normal" in2="shape" result="effect1_innerShadow_21_6523"/>
</filter>
<filter id="filter1_ii_21_6523" x="3.88756" y="17.4796" width="42.6575" height="13.8108" filterUnits="userSpaceOnUse" color-interpolation-filters="sRGB">
<feFlood flood-opacity="0" result="BackgroundImageFix"/>
<feBlend mode="normal" in="SourceGraphic" in2="BackgroundImageFix" result="shape"/>
<feColorMatrix in="SourceAlpha" type="matrix" values="0 0 0 0 0 0 0 0 0 0 0 0 0 0 0 0 0 0 127 0" result="hardAlpha"/>
<feOffset dy="-2"/>
<feComposite in2="hardAlpha" operator="arithmetic" k2="-1" k3="1"/>
<feColorMatrix type="matrix" values="0 0 0 0 1 0 0 0 0 1 0 0 0 0 1 0 0 0 0.3 0"/>
<feBlend mode="normal" in2="shape" result="effect1_innerShadow_21_6523"/>
<feColorMatrix in="SourceAlpha" type="matrix" values="0 0 0 0 0 0 0 0 0 0 0 0 0 0 0 0 0 0 127 0" result="hardAlpha"/>
<feOffset/>
<feGaussianBlur stdDeviation="4.5"/>
<feComposite in2="hardAlpha" operator="arithmetic" k2="-1" k3="1"/>
<feColorMatrix type="matrix" values="0 0 0 0 1 0 0 0 0 1 0 0 0 0 1 0 0 0 0.3 0"/>
<feBlend mode="normal" in2="effect1_innerShadow_21_6523" result="effect2_innerShadow_21_6523"/>
</filter>
<filter id="filter2_i_21_6523" x="9.38918" y="14.9836" width="15.3747" height="25.3889" filterUnits="userSpaceOnUse" color-interpolation-filters="sRGB">
<feFlood flood-opacity="0" result="BackgroundImageFix"/>
<feBlend mode="normal" in="SourceGraphic" in2="BackgroundImageFix" result="shape"/>
<feColorMatrix in="SourceAlpha" type="matrix" values="0 0 0 0 0 0 0 0 0 0 0 0 0 0 0 0 0 0 127 0" result="hardAlpha"/>
<feOffset dy="0.5"/>
<feGaussianBlur stdDeviation="0.1"/>
<feComposite in2="hardAlpha" operator="arithmetic" k2="-1" k3="1"/>
<feColorMatrix type="matrix" values="0 0 0 0 0.610369 0 0 0 0 0 0 0 0 0 0 0 0 0 0.5 0"/>
<feBlend mode="normal" in2="shape" result="effect1_innerShadow_21_6523"/>
</filter>
<linearGradient id="paint0_linear_21_6523" x1="49.6633" y1="23.054" x2="0" y2="23.054" gradientUnits="userSpaceOnUse">
<stop stop-color="#279334"/>
<stop offset="1" stop-color="#46585A"/>
</linearGradient>
<linearGradient id="paint1_linear_21_6523" x1="-2.3892" y1="25.6872" x2="7.50666" y2="49.2015" gradientUnits="userSpaceOnUse">
<stop stop-color="#00CC60"/>
<stop offset="1" stop-color="#88D37A"/>
</linearGradient>
<linearGradient id="paint2_linear_21_6523" x1="28.0136" y1="17.2514" x2="23.7959" y2="30.471" gradientUnits="userSpaceOnUse">
<stop stop-color="#5FC7D8"/>
<stop offset="1" stop-color="#74EEC2"/>
</linearGradient>
<linearGradient id="paint3_linear_21_6523" x1="18.3419" y1="36.3882" x2="18.3419" y2="41.2603" gradientUnits="userSpaceOnUse">
<stop stop-color="#6B6C83"/>
<stop offset="1" stop-color="#282C40"/>
</linearGradient>
<linearGradient id="paint4_linear_21_6523" x1="8.12003" y1="6.99972" x2="8.12003" y2="15.9319" gradientUnits="userSpaceOnUse">
<stop stop-color="#E4FFB3"/>
<stop offset="1" stop-color="#00C733"/>
</linearGradient>
<linearGradient id="paint5_linear_21_6523" x1="12.2472" y1="14.2749" x2="12.2472" y2="21.4206" gradientUnits="userSpaceOnUse">
<stop stop-color="#E4FFB3"/>
<stop offset="1" stop-color="#00C733"/>
</linearGradient>
<linearGradient id="paint6_linear_21_6523" x1="0" y1="0" x2="0" y2="7.14591" gradientUnits="userSpaceOnUse">
<stop stop-color="#E4FFB3"/>
<stop offset="1" stop-color="#00C733"/>
</linearGradient>
<linearGradient id="paint7_linear_21_6523" x1="16.2333" y1="21.6233" x2="16.2333" y2="28.7691" gradientUnits="userSpaceOnUse">
<stop stop-color="#E4FFB3"/>
<stop offset="1" stop-color="#00C733"/>
</linearGradient>
<linearGradient id="paint8_linear_21_6523" x1="35.2532" y1="21.7189" x2="35.2532" y2="27.4355" gradientUnits="userSpaceOnUse">
<stop stop-color="#E4FFB3"/>
<stop offset="1" stop-color="#00C733"/>
</linearGradient>
<linearGradient id="paint9_linear_21_6523" x1="35.3736" y1="25.2987" x2="35.3736" y2="31.0153" gradientUnits="userSpaceOnUse">
<stop stop-color="#E4FFB3"/>
<stop offset="1" stop-color="#00C733"/>
</linearGradient>
<linearGradient id="paint10_linear_21_6523" x1="0" y1="0" x2="0" y2="5.71673" gradientUnits="userSpaceOnUse">
<stop stop-color="#E4FFB3"/>
<stop offset="1" stop-color="#00C733"/>
</linearGradient>
<linearGradient id="paint11_linear_21_6523" x1="0" y1="0" x2="0" y2="5.71673" gradientUnits="userSpaceOnUse">
<stop stop-color="#E4FFB3"/>
<stop offset="1" stop-color="#00C733"/>
</linearGradient>
<linearGradient id="paint12_linear_21_6523" x1="32.257" y1="24.9804" x2="33.0662" y2="21.9607" gradientUnits="userSpaceOnUse">
<stop stop-color="#C8AE19"/>
<stop offset="1" stop-color="#FFA084"/>
</linearGradient>
<linearGradient id="paint13_linear_21_6523" x1="30.9542" y1="24.6313" x2="33.6288" y2="14.6497" gradientUnits="userSpaceOnUse">
<stop stop-color="#EEEEEE"/>
<stop offset="1" stop-color="#D8D8D8"/>
</linearGradient>
<linearGradient id="paint14_linear_21_6523" x1="30.849" y1="24.7046" x2="38.8854" y2="20.9571" gradientUnits="userSpaceOnUse">
<stop stop-color="#D8D8D8"/>
<stop offset="1" stop-color="#EEEEEE"/>
</linearGradient>
<linearGradient id="paint15_linear_21_6523" x1="30.6379" y1="24.6479" x2="25.5519" y2="17.3843" gradientUnits="userSpaceOnUse">
<stop stop-color="#D8D8D8"/>
<stop offset="1" stop-color="#EEEEEE"/>
</linearGradient>
<linearGradient id="paint16_linear_21_6523" x1="30.7148" y1="24.7114" x2="22.6142" y2="21.1048" gradientUnits="userSpaceOnUse">
<stop stop-color="#D8D8D8"/>
<stop offset="1" stop-color="#EEEEEE"/>
</linearGradient>
<linearGradient id="paint17_linear_21_6523" x1="30.7148" y1="24.7114" x2="23.9603" y2="23.7621" gradientUnits="userSpaceOnUse">
<stop stop-color="#73C63E"/>
<stop offset="1" stop-color="#008C5A"/>
</linearGradient>
<linearGradient id="paint18_linear_21_6523" x1="30.1588" y1="24.4233" x2="36.9289" y2="25.2546" gradientUnits="userSpaceOnUse">
<stop stop-color="#73C63E"/>
<stop offset="1" stop-color="#008C5A"/>
</linearGradient>
<linearGradient id="paint19_linear_21_6523" x1="16.2865" y1="34.8889" x2="16.8645" y2="32.732" gradientUnits="userSpaceOnUse">
<stop stop-color="#C8AE19"/>
<stop offset="1" stop-color="#FFA084"/>
</linearGradient>
<linearGradient id="paint20_linear_21_6523" x1="15.3559" y1="34.6394" x2="17.2663" y2="27.5097" gradientUnits="userSpaceOnUse">
<stop stop-color="#EEEEEE"/>
<stop offset="1" stop-color="#D8D8D8"/>
</linearGradient>
<linearGradient id="paint21_linear_21_6523" x1="15.2808" y1="34.6922" x2="21.0211" y2="32.0154" gradientUnits="userSpaceOnUse">
<stop stop-color="#D8D8D8"/>
<stop offset="1" stop-color="#EEEEEE"/>
</linearGradient>
<linearGradient id="paint22_linear_21_6523" x1="15.13" y1="34.6516" x2="11.4971" y2="29.4633" gradientUnits="userSpaceOnUse">
<stop stop-color="#D8D8D8"/>
<stop offset="1" stop-color="#EEEEEE"/>
</linearGradient>
<linearGradient id="paint23_linear_21_6523" x1="15.1849" y1="34.697" x2="9.39877" y2="32.1209" gradientUnits="userSpaceOnUse">
<stop stop-color="#D8D8D8"/>
<stop offset="1" stop-color="#EEEEEE"/>
</linearGradient>
<linearGradient id="paint24_linear_21_6523" x1="15.1849" y1="34.697" x2="10.3602" y2="34.019" gradientUnits="userSpaceOnUse">
<stop stop-color="#73C63E"/>
<stop offset="1" stop-color="#008C5A"/>
</linearGradient>
<linearGradient id="paint25_linear_21_6523" x1="14.7878" y1="34.491" x2="19.6236" y2="35.0848" gradientUnits="userSpaceOnUse">
<stop stop-color="#73C63E"/>
<stop offset="1" stop-color="#008C5A"/>
</linearGradient>
<linearGradient id="paint26_linear_21_6523" x1="11.4144" y1="23.521" x2="11.9923" y2="21.364" gradientUnits="userSpaceOnUse">
<stop stop-color="#C8AE19"/>
<stop offset="1" stop-color="#FFA084"/>
</linearGradient>
<linearGradient id="paint27_linear_21_6523" x1="10.4838" y1="23.272" x2="12.3942" y2="16.1423" gradientUnits="userSpaceOnUse">
<stop stop-color="#EEEEEE"/>
<stop offset="1" stop-color="#D8D8D8"/>
</linearGradient>
<linearGradient id="paint28_linear_21_6523" x1="10.4087" y1="23.3242" x2="16.149" y2="20.6475" gradientUnits="userSpaceOnUse">
<stop stop-color="#D8D8D8"/>
<stop offset="1" stop-color="#EEEEEE"/>
</linearGradient>
<linearGradient id="paint29_linear_21_6523" x1="10.2579" y1="23.2837" x2="6.62499" y2="18.0954" gradientUnits="userSpaceOnUse">
<stop stop-color="#D8D8D8"/>
<stop offset="1" stop-color="#EEEEEE"/>
</linearGradient>
<linearGradient id="paint30_linear_21_6523" x1="10.3128" y1="23.3291" x2="4.52664" y2="20.7529" gradientUnits="userSpaceOnUse">
<stop stop-color="#D8D8D8"/>
<stop offset="1" stop-color="#EEEEEE"/>
</linearGradient>
<linearGradient id="paint31_linear_21_6523" x1="10.3128" y1="23.3291" x2="5.48811" y2="22.651" gradientUnits="userSpaceOnUse">
<stop stop-color="#73C63E"/>
<stop offset="1" stop-color="#008C5A"/>
</linearGradient>
<linearGradient id="paint32_linear_21_6523" x1="9.91566" y1="23.1231" x2="14.7515" y2="23.7168" gradientUnits="userSpaceOnUse">
<stop stop-color="#73C63E"/>
<stop offset="1" stop-color="#008C5A"/>
</linearGradient>
<linearGradient id="paint33_linear_21_6523" x1="23.6027" y1="33.9236" x2="25.0203" y2="33.3795" gradientUnits="userSpaceOnUse">
<stop stop-color="#C8AE19"/>
<stop offset="1" stop-color="#FFA084"/>
</linearGradient>
<linearGradient id="paint34_linear_21_6523" x1="23.3679" y1="33.3118" x2="28.0538" y2="31.5131" gradientUnits="userSpaceOnUse">
<stop stop-color="#EEEEEE"/>
<stop offset="1" stop-color="#D8D8D8"/>
</linearGradient>
<linearGradient id="paint35_linear_21_6523" x1="23.309" y1="33.2918" x2="27.0759" y2="35.3799" gradientUnits="userSpaceOnUse">
<stop stop-color="#D8D8D8"/>
<stop offset="1" stop-color="#EEEEEE"/>
</linearGradient>
<linearGradient id="paint36_linear_21_6523" x1="23.2709" y1="33.1927" x2="24.6732" y2="29.1204" gradientUnits="userSpaceOnUse">
<stop stop-color="#D8D8D8"/>
<stop offset="1" stop-color="#EEEEEE"/>
</linearGradient>
<linearGradient id="paint37_linear_21_6523" x1="23.268" y1="33.241" x2="22.3725" y2="29.0282" gradientUnits="userSpaceOnUse">
<stop stop-color="#D8D8D8"/>
<stop offset="1" stop-color="#EEEEEE"/>
</linearGradient>
<linearGradient id="paint38_linear_21_6523" x1="23.268" y1="33.241" x2="21.7126" y2="30.3158" gradientUnits="userSpaceOnUse">
<stop stop-color="#73C63E"/>
<stop offset="1" stop-color="#008C5A"/>
</linearGradient>
<linearGradient id="paint39_linear_21_6523" x1="23.2225" y1="32.9402" x2="24.8287" y2="35.8379" gradientUnits="userSpaceOnUse">
<stop stop-color="#73C63E"/>
<stop offset="1" stop-color="#008C5A"/>
</linearGradient>
<linearGradient id="paint40_linear_21_6523" x1="10.5768" y1="15.2975" x2="9.08137" y2="15.0339" gradientUnits="userSpaceOnUse">
<stop stop-color="#C8AE19"/>
<stop offset="1" stop-color="#FFA084"/>
</linearGradient>
<linearGradient id="paint41_linear_21_6523" x1="10.463" y1="15.943" x2="5.52004" y2="15.0715" gradientUnits="userSpaceOnUse">
<stop stop-color="#EEEEEE"/>
<stop offset="1" stop-color="#D8D8D8"/>
</linearGradient>
<linearGradient id="paint42_linear_21_6523" x1="10.5031" y1="15.9909" x2="8.34958" y2="12.261" gradientUnits="userSpaceOnUse">
<stop stop-color="#D8D8D8"/>
<stop offset="1" stop-color="#EEEEEE"/>
</linearGradient>
<linearGradient id="paint43_linear_21_6523" x1="10.4846" y1="16.0954" x2="7.18528" y2="18.8638" gradientUnits="userSpaceOnUse">
<stop stop-color="#D8D8D8"/>
<stop offset="1" stop-color="#EEEEEE"/>
</linearGradient>
<linearGradient id="paint44_linear_21_6523" x1="10.512" y1="16.0553" x2="9.10982" y2="20.1276" gradientUnits="userSpaceOnUse">
<stop stop-color="#D8D8D8"/>
<stop offset="1" stop-color="#EEEEEE"/>
</linearGradient>
<linearGradient id="paint45_linear_21_6523" x1="10.512" y1="16.0553" x2="10.3386" y2="19.3638" gradientUnits="userSpaceOnUse">
<stop stop-color="#73C63E"/>
<stop offset="1" stop-color="#008C5A"/>
</linearGradient>
<linearGradient id="paint46_linear_21_6523" x1="10.3961" y1="16.3366" x2="10.5117" y2="13.0256" gradientUnits="userSpaceOnUse">
<stop stop-color="#73C63E"/>
<stop offset="1" stop-color="#008C5A"/>
</linearGradient>
</defs>
</svg>
