<svg width="48" height="48" viewBox="0 0 48 48" fill="none" xmlns="http://www.w3.org/2000/svg">
<path d="M46.7132 31.6751C47.4809 32.1138 48.139 28.3848 47.9744 33.3203C47.9744 33.9784 47.5906 34.6364 46.768 35.13L27.0809 46.5364C25.4357 47.4687 22.7486 47.4687 21.1035 46.5364L1.30671 35.13C0.484129 34.6364 0.100256 34.0332 0.0454174 33.3751C-0.173937 28.0009 0.429287 32.1138 1.25187 31.6203L20.939 20.2138C22.5841 19.2816 25.2712 19.2816 26.9164 20.2138L46.7132 31.6751Z" fill="url(#paint0_linear_21_7145)"/>
<g filter="url(#filter0_i_21_7145)">
<path fill-rule="evenodd" clip-rule="evenodd" d="M46.4009 28.3974C48.5233 29.6228 48.5344 31.6097 46.4259 32.8349L27.9041 43.5985C25.7957 44.8241 22.3656 44.8241 20.2432 43.5985L1.59918 32.8345C-0.523205 31.6091 -0.534501 29.6222 1.57417 28.3968L20.0957 17.6334C22.2044 16.408 25.6343 16.408 27.7567 17.6332L46.4009 28.3974Z" fill="#4C86C2"/>
</g>
<path fill-rule="evenodd" clip-rule="evenodd" d="M45.1784 27.9701C45.501 28.1564 45.7388 28.3737 45.8921 28.6059C46.3193 29.2537 46.0868 30.0164 45.193 30.536L25.776 41.8197C24.5616 42.5254 22.5689 42.5254 21.3466 41.8197L2.92099 31.1818C1.69871 30.476 1.69219 29.3217 2.90643 28.6159L21.9994 17.5205C21.9415 17.6596 21.9131 17.8036 21.9141 17.9484L4.63483 27.99C3.26 28.789 3.26729 30.0975 4.65112 30.8964L21.0065 40.3391C22.3915 41.1388 24.6501 41.1386 26.0251 40.3397L43.9406 29.9285C44.9755 29.3269 45.2271 28.4371 44.6978 27.6926L45.1784 27.9701Z" fill="#59ABD4"/>
<path fill-rule="evenodd" clip-rule="evenodd" d="M37.6472 22.2797C38.0753 22.5269 38.4205 22.8048 38.6824 23.1014C39.7646 24.3262 39.4298 25.8704 37.6733 26.8913L27.2689 32.9376C25.0867 34.2056 21.505 34.2051 19.3086 32.937L13.3083 29.4727C11.1121 28.2046 11.0991 26.1299 13.2811 24.8618L21.1631 20.2812C21.1245 20.3968 21.1008 20.5141 21.0922 20.6316C21.073 20.6655 21.0548 20.6996 21.0381 20.7339L15.0118 24.2359C12.6682 25.5979 12.6795 27.8267 15.0384 29.1887L18.9686 31.4577C21.3263 32.8189 25.1752 32.8189 27.519 31.4569L36.4209 26.2838C38.1476 25.2804 38.5947 23.8051 37.766 22.5537C37.7331 22.4617 37.6934 22.3703 37.6472 22.2797Z" fill="#C9D5DB"/>
<path fill-rule="evenodd" clip-rule="evenodd" d="M27.9186 14.2661C28.5574 14.6348 28.877 15.1179 28.8799 15.6012C28.8826 16.0844 28.5669 16.5669 27.9336 16.9349C27.2991 17.3038 26.4671 17.4881 25.6329 17.4881C24.7987 17.4881 23.9647 17.3038 23.3262 16.9351C22.8108 16.6374 22.5015 16.2647 22.4011 15.878C22.3772 15.7862 22.3651 15.6938 22.3649 15.6012C22.362 15.1181 22.6765 14.6348 23.311 14.2661C23.9444 13.8981 24.7774 13.7144 25.6117 13.7144C26.4284 13.7138 27.2485 13.8909 27.8811 14.2448C27.8937 14.2517 27.9062 14.2588 27.9186 14.2661Z" fill="url(#paint1_linear_21_7145)"/>
<path fill-rule="evenodd" clip-rule="evenodd" d="M28.6276 14.5546C29.3948 14.9975 29.5824 15.6058 29.4854 16.1596C29.4099 16.5864 28.8841 17.2052 28.3201 17.5329C27.7572 17.86 26.6894 18.1674 25.9541 18.2117C24.9984 18.2698 23.9476 18.163 23.1805 17.7201C22.5916 17.3802 22.3443 16.9428 22.3054 16.5076C22.2937 16.376 22.301 16.2443 22.3238 16.1157C22.3365 16.0416 22.3631 15.9616 22.4011 15.8783C22.5015 16.265 22.8108 16.6377 23.3261 16.9354C23.9647 17.3041 24.7989 17.4884 25.6331 17.4884C26.4673 17.4884 27.299 17.3041 27.9335 16.9352C28.5671 16.5672 28.8825 16.0847 28.8798 15.6015C28.8772 15.1182 28.5573 14.6351 27.9186 14.2664C27.9061 14.2591 27.8937 14.252 27.881 14.2451C28.1158 14.3124 28.3387 14.399 28.5435 14.508C28.5719 14.5232 28.5999 14.5387 28.6276 14.5546Z" fill="#FF5300"/>
<path fill-rule="evenodd" clip-rule="evenodd" d="M29.3366 14.8426C30.231 15.3591 30.4828 16.1115 30.0886 16.7174C30.092 17.0927 29.2011 17.8443 28.7088 18.1304C28.2151 18.4171 26.9217 18.9349 26.2728 18.9349C25.2278 19.1652 23.9281 19.0219 23.0337 18.5054C22.4588 18.1735 22.1493 17.7448 22.1054 17.3198C22.097 17.2383 22.0983 17.157 22.1096 17.0766C22.1298 16.9315 22.1817 16.7893 22.2652 16.654C22.2702 16.6459 22.2752 16.6379 22.2804 16.6298C22.2804 16.5925 22.2892 16.5515 22.3055 16.5076C22.3444 16.9426 22.5916 17.3799 23.1805 17.7199C23.9477 18.1628 24.9984 18.2695 25.9541 18.2116C26.6895 18.1672 27.7571 17.8598 28.3199 17.5327C28.8841 17.205 29.4098 16.5862 29.4855 16.1594C29.5825 15.6055 29.3948 14.9973 28.6277 14.5544C28.5999 14.5385 28.5719 14.523 28.5436 14.5078C28.7875 14.5804 29.0194 14.6728 29.2316 14.7847C29.2672 14.8035 29.3023 14.8227 29.3366 14.8426Z" fill="#FF6A21"/>
<path fill-rule="evenodd" clip-rule="evenodd" d="M29.3366 14.8426C30.231 15.3591 30.4828 16.1115 30.0886 16.7174C30.092 17.0927 29.2011 17.8443 28.7088 18.1304C28.2151 18.4171 26.9217 18.9349 26.2728 18.9349C25.2278 19.1652 23.9281 19.0219 23.0337 18.5054C22.4588 18.1735 22.1493 17.7448 22.1054 17.3198C22.097 17.2383 22.0983 17.157 22.1096 17.0766C22.1298 16.9315 22.1817 16.7893 22.2652 16.654C22.2702 16.6459 22.2752 16.6379 22.2804 16.6298C22.2804 16.5925 22.2892 16.5515 22.3055 16.5076C22.3444 16.9426 22.5916 17.3799 23.1805 17.7199C23.9477 18.1628 24.9984 18.2695 25.9541 18.2116C26.6895 18.1672 27.7571 17.8598 28.3199 17.5327C28.8841 17.205 29.4098 16.5862 29.4855 16.1594C29.5825 15.6055 29.3948 14.9973 28.6277 14.5544C28.5999 14.5385 28.5719 14.523 28.5436 14.5078C28.7875 14.5804 29.0194 14.6728 29.2316 14.7847C29.2672 14.8035 29.3023 14.8227 29.3366 14.8426Z" fill="#FF5300" fill-opacity="0.6"/>
<path fill-rule="evenodd" clip-rule="evenodd" d="M30.0468 15.13C31.0696 15.7206 31.287 16.6077 30.6942 17.2754C30.6961 17.5976 29.5181 18.482 29.0952 18.7279C28.6734 18.973 27.1491 19.6588 26.5941 19.6581C25.4435 20.0036 23.9111 19.8808 22.8881 19.2901C22.262 18.9287 21.9376 18.4565 21.9154 17.9918C21.9146 17.9772 21.9142 17.9626 21.9142 17.9483C21.9132 17.8034 21.9416 17.6595 21.9993 17.5203C22.0277 17.4521 22.0631 17.385 22.1055 17.3197C22.1494 17.7446 22.4588 18.1734 23.0338 18.5054C23.9282 19.0216 25.2279 19.1652 26.2729 18.9348C26.9218 18.9348 28.2151 18.417 28.7088 18.1301C29.2011 17.844 30.0921 17.0924 30.0886 16.7174C30.4828 16.1112 30.231 15.3588 29.3366 14.8425C29.3023 14.8226 29.2673 14.8033 29.2316 14.7847C29.4765 14.8583 29.7096 14.9508 29.9234 15.0624C29.9652 15.0842 30.0066 15.1066 30.0468 15.13Z" fill="#E17200"/>
<path fill-rule="evenodd" clip-rule="evenodd" d="M30.0468 15.13C31.0696 15.7206 31.287 16.6077 30.6942 17.2754C30.6961 17.5976 29.5181 18.482 29.0952 18.7279C28.6734 18.973 27.1491 19.6588 26.5941 19.6581C25.4435 20.0036 23.9111 19.8808 22.8881 19.2901C22.262 18.9287 21.9376 18.4565 21.9154 17.9918C21.9146 17.9772 21.9142 17.9626 21.9142 17.9483C21.9132 17.8034 21.9416 17.6595 21.9993 17.5203C22.0277 17.4521 22.0631 17.385 22.1055 17.3197C22.1494 17.7446 22.4588 18.1734 23.0338 18.5054C23.9282 19.0216 25.2279 19.1652 26.2729 18.9348C26.9218 18.9348 28.2151 18.417 28.7088 18.1301C29.2011 17.844 30.0921 17.0924 30.0886 16.7174C30.4828 16.1112 30.231 15.3588 29.3366 14.8425C29.3023 14.8226 29.2673 14.8033 29.2316 14.7847C29.4765 14.8583 29.7096 14.9508 29.9234 15.0624C29.9652 15.0842 30.0066 15.1066 30.0468 15.13Z" fill="#FF5300" fill-opacity="0.5"/>
<path fill-rule="evenodd" clip-rule="evenodd" d="M30.7558 15.4184C31.9072 16.0832 32.0896 17.1054 31.2999 17.8336C31.3014 18.1021 29.8352 19.1201 29.4826 19.325C29.1301 19.5298 27.3774 20.3824 26.914 20.3824C25.658 20.8431 23.8939 20.74 22.7426 20.0752C22.0622 19.6824 21.7196 19.1655 21.7156 18.6581C21.7148 18.5822 21.7219 18.5067 21.7365 18.4315C21.7656 18.2811 21.8252 18.1333 21.9153 17.9919C21.9375 18.4566 22.2619 18.9288 22.888 19.2903C23.911 19.8809 25.4436 20.0038 26.594 19.6584C27.149 19.659 28.6733 18.9731 29.0951 18.728C29.5182 18.4821 30.696 17.5977 30.6943 17.2756C31.2869 16.6081 31.0697 15.7208 30.0468 15.1301C30.0065 15.107 29.9653 15.0843 29.9233 15.0625C30.1625 15.1359 30.3904 15.2265 30.6008 15.3342C30.6537 15.3613 30.7052 15.3892 30.7558 15.4184Z" fill="#E17200"/>
<path fill-rule="evenodd" clip-rule="evenodd" d="M31.4648 15.705C32.7459 16.4445 32.8938 17.6017 31.903 18.3916C31.9042 18.6062 30.1509 19.7584 29.869 19.9224C29.5882 20.0855 27.6047 21.1048 27.2339 21.1048C25.8736 21.6815 23.8756 21.5995 22.5945 20.8597C21.8584 20.4349 21.4968 19.8713 21.5106 19.319C21.5142 19.1743 21.5435 19.0303 21.5987 18.8899C21.6296 18.8113 21.6685 18.7339 21.7154 18.658C21.7197 19.1654 22.0623 19.6821 22.7424 20.075C23.894 20.7398 25.6581 20.8429 26.9139 20.3822C27.3774 20.3822 29.13 19.5296 29.4826 19.3247C29.8352 19.1198 31.3015 18.1018 31.2999 17.8334C32.0897 17.1051 31.9073 16.0829 30.7559 15.4181C30.7053 15.389 30.6537 15.361 30.6008 15.334C30.8433 15.4093 31.0746 15.5011 31.289 15.6098C31.349 15.6402 31.4076 15.672 31.4648 15.705Z" fill="#DC7A00"/>
<path fill-rule="evenodd" clip-rule="evenodd" d="M32.1737 15.9931C33.5833 16.807 33.6967 18.0975 32.5087 18.9496C32.5095 19.1106 30.4691 20.397 30.2575 20.5199C30.0462 20.6429 27.8319 21.829 27.5539 21.829C26.0882 22.5191 23.8585 22.4583 22.4488 21.6446C21.654 21.1858 21.2719 20.5743 21.3028 19.9756C21.3056 19.9199 21.3121 19.8643 21.3221 19.8089C21.3522 19.6431 21.4143 19.4797 21.5088 19.3221C21.4967 19.8712 21.8583 20.4348 22.5944 20.8599C23.8755 21.5994 25.8736 21.6814 27.234 21.1048C27.6047 21.1048 29.5881 20.0854 29.8689 19.9223C30.1508 19.7583 31.9043 18.6062 31.903 18.3915C32.8937 17.6018 32.7458 16.4445 31.4647 15.7049C31.4076 15.672 31.3489 15.6401 31.2889 15.6099C31.5256 15.6846 31.7516 15.7747 31.9627 15.8799C32.0348 15.9159 32.1053 15.9537 32.1737 15.9931Z" fill="#DC8700"/>
<path fill-rule="evenodd" clip-rule="evenodd" d="M32.8839 16.2806C34.422 17.1687 34.4994 18.5949 33.1131 19.5084C33.115 19.615 30.7862 21.035 30.6451 21.1168C30.5041 21.1989 28.0605 22.5524 27.875 22.5524C26.3026 23.3585 23.8413 23.3174 22.3034 22.4294C21.4489 21.9361 21.0447 21.2769 21.0923 20.6316C21.1009 20.5139 21.1244 20.3968 21.1632 20.2811C21.1977 20.1778 21.2442 20.0758 21.3029 19.9756C21.2718 20.5743 21.6541 21.1858 22.4489 21.6446C23.8584 22.4583 26.0881 22.5191 27.554 21.829C27.8319 21.829 30.0461 20.6429 30.2576 20.5199C30.469 20.397 32.5096 19.1106 32.5086 18.9496C33.6966 18.0975 33.5832 16.807 32.1737 15.9931C32.1054 15.9537 32.0347 15.9159 31.9627 15.8799C32.203 15.9567 32.433 16.0483 32.6484 16.1547C32.7288 16.1946 32.8076 16.2367 32.8839 16.2806Z" fill="#DC9600"/>
<path fill-rule="evenodd" clip-rule="evenodd" d="M33.5929 16.5689C35.2594 17.5311 35.3035 19.0915 33.7186 20.0664C33.719 20.12 31.1019 21.6735 31.0314 21.7145C30.9609 21.7555 28.2877 23.2763 28.195 23.2763C26.5183 24.197 23.8231 24.1772 22.1566 23.215C21.2419 22.6868 20.8164 21.9785 20.8804 21.2856C20.8952 21.1244 20.9366 20.9638 21.0046 20.8067C21.0548 20.6995 21.0728 20.6654 21.0922 20.6315C21.0447 21.2768 21.4488 21.936 22.3034 22.4295C23.8413 23.3173 26.3025 23.3584 27.8751 22.5523C28.0604 22.5523 30.504 21.1988 30.6451 21.1167C30.7861 21.0349 33.1149 19.615 33.113 19.5083C34.4993 18.5949 34.4219 17.1686 32.8838 16.2807C32.8075 16.2366 32.729 16.1946 32.6483 16.1548C32.8854 16.2318 33.1126 16.3227 33.3265 16.4273C33.4177 16.4719 33.5066 16.5191 33.5929 16.5689Z" fill="#DCA400"/>
<path fill-rule="evenodd" clip-rule="evenodd" d="M34.3019 16.8571C34.9867 17.2524 35.4115 17.744 35.5758 18.2584C35.8418 19.091 35.4247 19.9835 34.323 20.6238L28.515 23.9991C26.7317 25.0353 23.8046 25.0353 22.0109 23.9997C20.7447 23.2688 20.3672 22.2098 20.8804 21.2855C20.8164 21.9785 21.2418 22.6868 22.1565 23.215C23.823 24.1772 26.5184 24.1969 28.1949 23.2765C28.2877 23.2765 30.9609 21.7554 31.0316 21.7144C31.1019 21.6734 33.719 20.12 33.7188 20.0663C35.3036 19.0914 35.2594 17.5311 33.5929 16.5689C33.5068 16.519 33.4179 16.4719 33.3265 16.4272C33.6756 16.542 34.0045 16.6854 34.3019 16.8571Z" fill="#DCB200"/>
<path fill-rule="evenodd" clip-rule="evenodd" d="M35.8497 18.7939C35.9726 18.9691 36.0644 19.1498 36.1249 19.3334C36.4208 20.2295 35.9766 21.1925 34.7899 21.882L28.2937 25.6572C26.3865 26.7656 23.2545 26.7658 21.3349 25.6574L20.4612 25.153C18.5415 24.0445 18.5312 22.2304 20.4386 21.122L21.0127 20.7883C19.3727 21.8866 19.452 23.5464 21.236 24.5765L21.6727 24.8287C23.5301 25.9009 26.5596 25.9009 28.4049 24.8287L34.5571 21.2533C35.7027 20.5875 36.1328 19.659 35.8497 18.7939Z" fill="#DCBB31"/>
<path fill-rule="evenodd" clip-rule="evenodd" d="M35.5758 18.2583C35.6988 18.4319 35.79 18.6113 35.8498 18.7937C36.1329 19.6588 35.7028 20.5873 34.5572 21.2531L28.405 24.8285C26.5597 25.9007 23.5302 25.9007 21.6728 24.8285L21.2361 24.5763C19.4519 23.5462 19.3726 21.8864 21.0046 20.8067C20.9367 20.9639 20.8953 21.1243 20.8804 21.2855C20.3672 22.2097 20.7447 23.2689 22.0109 23.9998C23.8046 25.0355 26.7317 25.0355 28.515 23.9991L34.323 20.6237C35.4247 19.9834 35.8418 19.0912 35.5758 18.2583Z" fill="#DCB618"/>
<path fill-rule="evenodd" clip-rule="evenodd" d="M36.1249 19.3335C36.2456 19.5079 36.3369 19.6878 36.3982 19.8703C36.7098 20.7982 36.252 21.7965 35.0228 22.5109L28.1826 26.4859C26.2133 27.6304 22.979 27.6304 20.9968 26.4859L19.6864 25.7295C17.7041 24.585 17.6937 22.7115 19.663 21.5671L21.0162 20.7808L20.4384 21.1221C18.5312 22.2305 18.5415 24.0446 20.4612 25.153L21.3349 25.6574C23.2545 26.7657 26.3865 26.7657 28.2937 25.6572L34.7899 21.8821C35.9766 21.1924 36.4208 20.2296 36.1249 19.3335Z" fill="#DCBF49"/>
<path fill-rule="evenodd" clip-rule="evenodd" d="M36.3983 19.8701C36.5179 20.0441 36.6087 20.2231 36.6708 20.405C36.9991 21.3651 36.5282 22.4 35.2557 23.1395L28.0727 27.3138C26.0401 28.4949 22.7033 28.4949 20.6589 27.3146L18.9115 26.3058C16.8657 25.1245 16.8561 23.1924 18.8885 22.0113L21.0197 20.7727L19.6629 21.5669C17.6936 22.7114 17.7041 24.5849 19.6863 25.7293L20.9967 26.4857C22.979 27.6302 26.2134 27.6302 28.1825 26.4857L35.0229 22.5107C36.2521 21.7963 36.7099 20.798 36.3983 19.8701Z" fill="#DCC461"/>
<path fill-rule="evenodd" clip-rule="evenodd" d="M36.6708 20.4053C36.7905 20.5806 36.8821 20.761 36.9456 20.9442C37.2882 21.9351 36.8034 23.0043 35.4885 23.7684L27.9615 28.1428C25.867 29.3599 22.429 29.3604 20.3208 28.1435L18.1367 26.8825C16.0284 25.6652 16.0185 23.6739 18.1131 22.4568L21.0233 20.7654L18.8885 22.0116C16.8561 23.1927 16.8657 25.1248 18.9116 26.3061L20.6588 27.3149C22.7032 28.4952 26.0401 28.4952 28.0726 27.3141L35.2557 23.1398C36.5282 22.4002 36.999 21.3654 36.6708 20.4053Z" fill="#DCC97A"/>
<path fill-rule="evenodd" clip-rule="evenodd" d="M36.9455 20.944C37.0637 21.1188 37.1548 21.2985 37.2186 21.4808C37.5769 22.5036 37.0787 23.6082 35.7213 24.397L27.8502 28.971C25.6937 30.2244 22.1532 30.2249 19.9826 28.9718L17.3618 27.4588C15.1912 26.2055 15.1809 24.1547 17.3374 22.9016L21.0269 20.7573L18.113 22.4566C16.0186 23.6737 16.0285 25.665 18.1368 26.8823L20.3207 28.1433C22.4289 29.3603 25.867 29.3597 27.9614 28.1426L35.4885 23.7682C36.8033 23.0041 37.2883 21.935 36.9455 20.944Z" fill="#DCCE93"/>
<path fill-rule="evenodd" clip-rule="evenodd" d="M37.2186 21.4806C37.3349 21.6541 37.4256 21.8321 37.4902 22.0126C37.8673 23.0686 37.356 24.2109 35.954 25.0256L27.7389 29.7997C25.5205 31.0889 21.8776 31.0897 19.6446 29.8005L16.587 28.0351C14.354 26.7459 14.3433 24.6358 16.5617 23.3464L21.0306 20.7495L17.3373 22.9014C15.1809 24.1548 15.1913 26.2053 17.3618 27.4586L19.9827 28.9716C22.1532 30.2248 25.6937 30.2242 27.8501 28.9709L35.7213 24.3968C37.0787 23.608 37.577 22.5034 37.2186 21.4806Z" fill="#DCD2AB"/>
<path fill-rule="evenodd" clip-rule="evenodd" d="M37.4901 22.0127C37.5489 22.1004 37.6014 22.1897 37.6472 22.2796C37.6934 22.3703 37.7331 22.4617 37.7661 22.5537C38.1559 23.6405 37.6306 24.8165 36.1881 25.655L27.6291 30.6288C25.3485 31.9542 21.602 31.9542 19.3067 30.629L15.8133 28.6122C13.5167 27.2862 13.5057 25.1168 15.7863 23.7915L21.0343 20.7417L16.5618 23.3465C14.3434 24.6358 14.3539 26.7458 16.5869 28.035L19.6446 29.8003C21.8775 31.0897 25.5206 31.0889 27.7391 29.7996L35.9541 25.0256C37.356 24.2108 37.8672 23.0686 37.4901 22.0127Z" fill="#DCD7C4"/>
<path fill-rule="evenodd" clip-rule="evenodd" d="M37.7661 22.5537C38.5947 23.8051 38.1476 25.2804 36.421 26.2838L27.5191 31.4569C25.1753 32.8189 21.3264 32.8189 18.9687 31.4577L15.0385 29.1887C12.6796 27.8267 12.6683 25.5979 15.0119 24.2359L21.0382 20.7339L15.7863 23.7915C13.5058 25.1169 13.5167 27.2863 15.8133 28.6122L19.3067 30.6292C21.602 31.9544 25.3485 31.9544 27.6291 30.629L36.1881 25.655C37.6306 24.8168 38.1559 23.6405 37.7661 22.5537Z" fill="#DCDCDC"/>
<path fill-rule="evenodd" clip-rule="evenodd" d="M38.9026 23.2285C39.315 23.4667 39.6445 23.7356 39.8903 24.0227C40.857 25.1512 40.5373 26.5623 38.9266 27.4983L27.0198 34.4176C24.9995 35.5918 21.6822 35.5918 19.6487 34.4176L11.5768 29.7575C9.54333 28.5833 9.53126 26.6612 11.5517 25.4872L21.3223 19.8091C21.3122 19.8645 21.3056 19.92 21.303 19.9758C21.2443 20.076 21.1977 20.178 21.1632 20.2815L13.2811 24.8619C11.0991 26.13 11.1121 28.2047 13.3083 29.4727L19.3086 32.9372C21.5049 34.2051 25.0869 34.2059 27.2689 32.9378L37.6733 26.8913C39.4298 25.8705 39.7648 24.3264 38.6826 23.1015L38.9026 23.2285Z" fill="#B6CEDA"/>
<path fill-rule="evenodd" clip-rule="evenodd" d="M40.1581 24.1773C40.5542 24.4059 40.8667 24.6654 41.0961 24.9427C41.9497 25.9753 41.6463 27.2544 40.1801 28.1065L26.772 35.8984C24.9121 36.9792 21.8595 36.9785 19.9887 35.8984L9.84535 30.0422C7.97341 28.9614 7.96344 27.1939 9.82331 26.113L21.5088 19.3223C21.4143 19.48 21.3522 19.6435 21.3221 19.809L11.5517 25.4871C9.53125 26.6611 9.54332 28.5833 11.5768 29.7575L19.6485 34.4178C21.6822 35.592 24.9995 35.592 27.0198 34.4178L38.9266 27.4982C40.5373 26.5622 40.857 25.1514 39.8903 24.0226L40.1581 24.1773Z" fill="#A4C7D8"/>
<path fill-rule="evenodd" clip-rule="evenodd" d="M41.4123 25.1249C41.7902 25.3431 42.0852 25.5921 42.2969 25.8581C43.0426 26.795 42.7565 27.9441 41.4338 28.7127L26.5232 37.378C24.8249 38.3647 22.0369 38.3647 20.3277 37.378L8.11403 30.3264C6.40479 29.3396 6.39559 27.7247 8.09391 26.7379L21.5988 18.8896C21.5436 19.0301 21.5143 19.174 21.5106 19.3187L9.82346 26.1126C7.9634 27.1934 7.97337 28.9609 9.8455 30.0418L19.9886 35.8979C21.8596 36.978 24.9123 36.9788 26.7721 35.8979L40.1802 28.106C41.6463 27.254 41.9497 25.9748 41.0961 24.9422L41.4123 25.1249Z" fill="#91C0D7"/>
<path fill-rule="evenodd" clip-rule="evenodd" d="M42.6689 26.0733C43.03 26.2818 43.3073 26.5212 43.5002 26.7772C44.1346 27.6177 43.8638 28.6363 42.686 29.3206L26.2729 38.8592C24.7364 39.752 22.2142 39.752 20.6676 38.8592L6.38258 30.6117C4.83604 29.7185 4.8278 28.2576 6.36437 27.3648L21.7364 18.4316C21.722 18.5066 21.715 18.5823 21.7155 18.6582C21.6686 18.734 21.6297 18.8115 21.5988 18.89L8.09373 26.7383C6.39561 27.7252 6.40481 29.34 8.11405 30.3268L20.3277 37.3784C22.0369 38.3653 24.8249 38.3653 26.5232 37.3784L41.4338 28.7131C42.7565 27.9447 43.0426 26.7956 42.2969 25.8585L42.6689 26.0733Z" fill="#7EB9D7"/>
<path fill-rule="evenodd" clip-rule="evenodd" d="M43.923 27.0213C44.2657 27.219 44.5238 27.4479 44.6976 27.6924C45.2271 28.4369 44.9755 29.3267 43.9407 29.9283L26.025 40.3395C24.6501 41.1384 22.3915 41.1386 21.0065 40.3389L4.65113 30.8962C3.2673 30.0973 3.25982 28.789 4.63484 27.99L21.9141 17.9482C21.8252 18.1332 21.7656 18.2809 21.7364 18.4314L6.3644 27.3647C4.82783 28.2575 4.83607 29.7184 6.3826 30.6115L20.6677 38.8591C22.2142 39.7519 24.7362 39.7519 26.2728 38.8591L42.6858 29.3206C43.8636 28.6362 44.1346 27.6176 43.5003 26.7771L43.923 27.0213Z" fill="#6BB2D6"/>
<defs>
<filter id="filter0_i_21_7145" x="0" y="16.7144" width="48" height="27.8032" filterUnits="userSpaceOnUse" color-interpolation-filters="sRGB">
<feFlood flood-opacity="0" result="BackgroundImageFix"/>
<feBlend mode="normal" in="SourceGraphic" in2="BackgroundImageFix" result="shape"/>
<feColorMatrix in="SourceAlpha" type="matrix" values="0 0 0 0 0 0 0 0 0 0 0 0 0 0 0 0 0 0 127 0" result="hardAlpha"/>
<feOffset dy="-1"/>
<feComposite in2="hardAlpha" operator="arithmetic" k2="-1" k3="1"/>
<feColorMatrix type="matrix" values="0 0 0 0 0.113076 0 0 0 0 0.337573 0 0 0 0 0.305984 0 0 0 0.5 0"/>
<feBlend mode="normal" in2="shape" result="effect1_innerShadow_21_7145"/>
</filter>
<linearGradient id="paint0_linear_21_7145" x1="26.0619" y1="7.00142" x2="5.06518" y2="45.7956" gradientUnits="userSpaceOnUse">
<stop stop-color="#254F76"/>
<stop offset="1" stop-color="#E85757"/>
</linearGradient>
<linearGradient id="paint1_linear_21_7145" x1="28.3456" y1="12.2975" x2="20.8133" y2="14.0775" gradientUnits="userSpaceOnUse">
<stop stop-color="#FF8B00"/>
<stop offset="1" stop-color="#FF2900"/>
</linearGradient>
</defs>
</svg>
