<svg width="48" height="48" viewBox="0 0 48 48" fill="none" xmlns="http://www.w3.org/2000/svg">
<path d="M46.7132 31.6751C47.4809 32.1138 48.139 28.3848 47.9744 33.3203C47.9744 33.9784 47.5906 34.6364 46.768 35.13L27.0809 46.5364C25.4357 47.4687 22.7486 47.4687 21.1035 46.5364L1.30671 35.13C0.484129 34.6364 0.100256 34.0332 0.0454174 33.3751C-0.173937 28.0009 0.429287 32.1138 1.25187 31.6203L20.939 20.2138C22.5841 19.2816 25.2712 19.2816 26.9164 20.2138L46.7132 31.6751Z" fill="url(#paint0_linear_21_7271)"/>
<g filter="url(#filter0_i_21_7271)">
<path fill-rule="evenodd" clip-rule="evenodd" d="M46.4009 28.3974C48.5233 29.6228 48.5344 31.6097 46.4259 32.8349L27.9041 43.5985C25.7957 44.8241 22.3656 44.8241 20.2432 43.5985L1.59918 32.8345C-0.523205 31.6091 -0.534501 29.6222 1.57417 28.3968L20.0957 17.6334C22.2044 16.408 25.6343 16.408 27.7567 17.6332L46.4009 28.3974Z" fill="url(#paint1_linear_21_7271)"/>
</g>
<path fill-rule="evenodd" clip-rule="evenodd" d="M20.2331 16.9983C21.0768 16.169 22.4503 15.2732 23.6632 15.8858C23.5124 15.8191 19.9634 13.7602 19.8982 13.8285C18.617 13.529 17.3631 14.4763 16.5616 15.3515L19.9764 17.2668C20.0608 17.1759 20.144 17.0843 20.2331 16.9983Z" fill="url(#paint2_linear_21_7271)"/>
<path fill-rule="evenodd" clip-rule="evenodd" d="M7.48404 30.7748C7.63075 28.4369 8.87671 26.1889 10.6238 24.5921H10.6238H10.6238L7.20903 22.6768C5.1581 24.4722 3.25437 28.2329 4.41109 30.8395C4.62379 31.2777 4.92893 31.6309 5.35152 31.8699L8.76634 33.7852C7.91147 33.3508 7.3915 32.1032 7.48404 30.7748Z" fill="url(#paint3_linear_21_7271)"/>
<g filter="url(#filter1_i_21_7271)">
<path fill-rule="evenodd" clip-rule="evenodd" d="M19.9765 17.267C21.5341 15.4226 24.6172 14.597 24.6511 18.2071C26.3937 17.5612 27.6037 18.7529 27.6093 20.6494C27.6159 22.9171 25.9441 25.668 23.4477 27.0591L11.9105 33.4881C9.46972 34.8481 7.48537 33.7559 7.47742 31.0499C7.47083 28.8287 8.79926 26.2116 10.6238 24.5921C10.8165 21.8133 12.8126 18.2598 15.5491 16.735C17.6477 15.5656 19.2354 16.0443 19.9765 17.267Z" fill="#6663FD"/>
</g>
<path fill-rule="evenodd" clip-rule="evenodd" d="M10.6753 24.1065C11.0858 21.4255 12.7053 18.6783 14.991 17.0815C16.1387 16.299 17.7433 15.6551 19.0755 16.3836C19.019 16.3608 15.2565 14.2162 15.3469 14.3221C14.8154 14.1158 14.2224 14.1112 13.6665 14.2248C10.1625 15.0455 7.46054 19.3601 7.20898 22.6766V22.6767L10.6238 24.5921C10.6349 24.4307 10.6535 24.2677 10.6753 24.1065Z" fill="url(#paint4_linear_21_7271)"/>
<g filter="url(#filter2_d_21_7271)">
<ellipse cx="17.7597" cy="33.7862" rx="1.51892" ry="2.43611" fill="url(#paint5_radial_21_7271)"/>
</g>
<g filter="url(#filter3_d_21_7271)">
<ellipse cx="13.3179" cy="32.5682" rx="1.94928" ry="2.84212" fill="url(#paint6_radial_21_7271)"/>
</g>
<g filter="url(#filter4_d_21_7271)">
<ellipse cx="16.6819" cy="28.1016" rx="1.25311" ry="2.43611" fill="url(#paint7_radial_21_7271)"/>
</g>
<path fill-rule="evenodd" clip-rule="evenodd" d="M43.3568 27.1808L44.6216 27.0781L44.7025 28.0748L43.4377 28.1775C39.6412 28.4858 36.1845 30.4846 34.0235 33.6211C33.2652 34.7216 31.8505 35.083 30.637 34.6852C29.9616 34.4637 29.1813 34.2544 28.4452 34.1629C27.5272 34.0489 26.1187 34.0475 24.915 34.0773C24.3184 34.092 23.7809 34.1142 23.3926 34.1327C23.1985 34.1419 23.0419 34.1502 22.934 34.1562L22.8101 34.1633L22.7783 34.1652L22.7685 34.1658L22.7063 33.1677L22.7181 33.167L22.7514 33.165L22.8786 33.1577C22.9889 33.1516 23.1481 33.1432 23.3451 33.1338C23.7389 33.1151 24.2842 33.0926 24.8903 33.0776C26.0919 33.0478 27.5683 33.0464 28.5684 33.1706C29.3936 33.273 30.2417 33.5032 30.9485 33.7349C31.7984 34.0136 32.7262 33.7414 33.2 33.0538C35.5315 29.6698 39.2609 27.5134 43.3568 27.1808Z" fill="white"/>
<path fill-rule="evenodd" clip-rule="evenodd" d="M38.7206 25.8024L42.1759 25.4551L42.2759 26.4501L38.8206 26.7974C37.1921 26.9611 35.7318 27.8713 34.8677 29.2613C33.7826 31.0066 31.6421 31.6541 29.7264 31.105C29.3095 30.9855 28.9511 30.9008 28.7016 30.8698C28.1791 30.8049 27.3397 30.8744 26.5878 30.9721C26.221 31.0198 25.8899 31.0721 25.6504 31.1124C25.5308 31.1326 25.4344 31.1497 25.3683 31.1618L25.2926 31.1757L25.2735 31.1793L25.2689 31.1802L25.2679 31.1804L25.1732 30.6894C25.0786 30.1985 25.0786 30.1985 25.0787 30.1985L25.0867 30.1969L25.1083 30.1928L25.1893 30.1779C25.2592 30.1652 25.3599 30.1473 25.4842 30.1263C25.7325 30.0845 26.0765 30.0302 26.4589 29.9805C27.2055 29.8835 28.1611 29.795 28.8248 29.8775C29.1545 29.9184 29.5739 30.021 30.0019 30.1437C31.5494 30.5872 33.2014 30.0474 34.0184 28.7333C35.0464 27.0799 36.7834 25.9972 38.7206 25.8024Z" fill="white"/>
<path fill-rule="evenodd" clip-rule="evenodd" d="M34.387 26.139L38.7481 23.8843L39.2074 24.7726L34.8463 27.0273C33.5189 27.7136 31.988 27.8936 30.5388 27.5352H27.6093V26.5352H30.601L30.7261 26.5511C31.9556 26.8689 33.259 26.7222 34.387 26.139Z" fill="white"/>
<path fill-rule="evenodd" clip-rule="evenodd" d="M28.8825 5.71689C30.8574 5.65143 33.2936 7.2755 33.2936 7.2755C33.2936 7.2755 32.2893 7.17301 31.9507 7.32879C31.9507 7.32879 25.1287 11.2584 25.0546 11.3087C24.5971 11.6244 24.2115 12.0349 23.8906 12.4876C23.4353 13.1353 23.0992 13.8774 22.9656 14.6602C22.9421 14.804 22.9252 14.9489 22.9184 15.0943L22.9348 22.6442C22.937 23.3931 23.2013 23.9201 23.6277 24.1679L21.8268 23.4988C21.5749 23.3524 19.489 22.7042 19.515 21.3319C19.515 21.3319 19.4927 13.6093 19.499 13.5215C19.532 13.0941 19.637 12.6748 19.7889 12.2743C20.0703 11.5379 21.3158 10.0432 21.8749 9.48668C22.1141 9.25157 22.3785 9.0405 22.6686 8.87185C22.6686 8.87185 28.8822 5.69935 28.8825 5.71689Z" fill="url(#paint8_linear_21_7271)"/>
<path fill-rule="evenodd" clip-rule="evenodd" d="M31.702 7.45758C33.0136 6.70031 34.0804 7.30827 34.0846 8.81596L34.1056 16.1939C34.1099 17.7016 33.05 19.5375 31.7384 20.2949L25.3179 24.0021C24.006 24.7597 22.9391 24.1516 22.9349 22.644L22.914 15.266C22.9097 13.7583 23.9696 11.9224 25.2815 11.1648L31.702 7.45758Z" fill="white"/>
<path d="M25.5677 16.9058C25.8841 16.1786 27.5596 14.6567 27.9535 15.9556L26.9974 16.6704C26.9028 16.0753 26.388 16.571 26.2894 16.9399C26.2265 17.1132 26.1805 17.4305 26.1517 17.8921C26.4307 17.339 27.1234 16.6173 27.7094 16.9438C28.3678 17.47 27.9214 18.803 27.4252 19.3765C26.9603 19.8902 25.8322 20.7744 25.3685 19.896C25.0114 19.1664 25.1825 17.5715 25.5677 16.9058ZM26.9857 17.8765C26.5243 17.67 26.1634 18.423 26.1879 18.8579C26.1583 19.5717 26.7825 19.399 26.9935 18.9194C27.1298 18.6842 27.1965 18.0516 26.9857 17.8765ZM30.89 15.7358L31.3246 15.4751L31.3275 16.3657L30.8929 16.6265L30.8949 17.3989L30.056 17.9019L30.0541 17.1294L28.3031 18.1802L28.3002 17.2358L30.0453 13.6987L30.8832 13.1958L30.89 15.7358ZM29.1263 16.7935L30.0511 16.2388L30.0472 14.938L29.1263 16.7935ZM31.5765 13.3149C31.7385 12.7605 32.4725 11.9478 33.0414 12.1929C33.7613 12.91 32.8047 14.5854 31.8754 14.5591C31.3585 14.445 31.4437 13.7386 31.5765 13.3149ZM32.6117 12.7739C31.8752 12.4969 31.8785 14.7917 32.6146 13.6479C32.7091 13.4864 32.7522 12.9001 32.6117 12.7739Z" fill="#3F4564"/>
<defs>
<filter id="filter0_i_21_7271" x="0" y="16.7144" width="48" height="27.8032" filterUnits="userSpaceOnUse" color-interpolation-filters="sRGB">
<feFlood flood-opacity="0" result="BackgroundImageFix"/>
<feBlend mode="normal" in="SourceGraphic" in2="BackgroundImageFix" result="shape"/>
<feColorMatrix in="SourceAlpha" type="matrix" values="0 0 0 0 0 0 0 0 0 0 0 0 0 0 0 0 0 0 127 0" result="hardAlpha"/>
<feOffset dy="-1"/>
<feComposite in2="hardAlpha" operator="arithmetic" k2="-1" k3="1"/>
<feColorMatrix type="matrix" values="0 0 0 0 1 0 0 0 0 1 0 0 0 0 1 0 0 0 0.3 0"/>
<feBlend mode="normal" in2="shape" result="effect1_innerShadow_21_7271"/>
</filter>
<filter id="filter1_i_21_7271" x="7.4774" y="15.6914" width="20.1319" height="18.3818" filterUnits="userSpaceOnUse" color-interpolation-filters="sRGB">
<feFlood flood-opacity="0" result="BackgroundImageFix"/>
<feBlend mode="normal" in="SourceGraphic" in2="BackgroundImageFix" result="shape"/>
<feColorMatrix in="SourceAlpha" type="matrix" values="0 0 0 0 0 0 0 0 0 0 0 0 0 0 0 0 0 0 127 0" result="hardAlpha"/>
<feOffset/>
<feGaussianBlur stdDeviation="4"/>
<feComposite in2="hardAlpha" operator="arithmetic" k2="-1" k3="1"/>
<feColorMatrix type="matrix" values="0 0 0 0 0.382116 0 0 0 0 0.854975 0 0 0 0 1 0 0 0 0.9 0"/>
<feBlend mode="normal" in2="shape" result="effect1_innerShadow_21_7271"/>
</filter>
<filter id="filter2_d_21_7271" x="14.2408" y="31.3501" width="5.03784" height="4.87207" filterUnits="userSpaceOnUse" color-interpolation-filters="sRGB">
<feFlood flood-opacity="0" result="BackgroundImageFix"/>
<feColorMatrix in="SourceAlpha" type="matrix" values="0 0 0 0 0 0 0 0 0 0 0 0 0 0 0 0 0 0 127 0" result="hardAlpha"/>
<feOffset dx="-2"/>
<feColorMatrix type="matrix" values="0 0 0 0 0 0 0 0 0 0.0181791 0 0 0 0 0.0884718 0 0 0 0.7 0"/>
<feBlend mode="normal" in2="BackgroundImageFix" result="effect1_dropShadow_21_7271"/>
<feBlend mode="normal" in="SourceGraphic" in2="effect1_dropShadow_21_7271" result="shape"/>
</filter>
<filter id="filter3_d_21_7271" x="9.36859" y="29.7261" width="5.89856" height="5.68408" filterUnits="userSpaceOnUse" color-interpolation-filters="sRGB">
<feFlood flood-opacity="0" result="BackgroundImageFix"/>
<feColorMatrix in="SourceAlpha" type="matrix" values="0 0 0 0 0 0 0 0 0 0 0 0 0 0 0 0 0 0 127 0" result="hardAlpha"/>
<feOffset dx="-2"/>
<feColorMatrix type="matrix" values="0 0 0 0 0 0 0 0 0 0.0181791 0 0 0 0 0.0884718 0 0 0 0.7 0"/>
<feBlend mode="normal" in2="BackgroundImageFix" result="effect1_dropShadow_21_7271"/>
<feBlend mode="normal" in="SourceGraphic" in2="effect1_dropShadow_21_7271" result="shape"/>
</filter>
<filter id="filter4_d_21_7271" x="13.4288" y="25.6655" width="4.50623" height="4.87207" filterUnits="userSpaceOnUse" color-interpolation-filters="sRGB">
<feFlood flood-opacity="0" result="BackgroundImageFix"/>
<feColorMatrix in="SourceAlpha" type="matrix" values="0 0 0 0 0 0 0 0 0 0 0 0 0 0 0 0 0 0 127 0" result="hardAlpha"/>
<feOffset dx="-2"/>
<feColorMatrix type="matrix" values="0 0 0 0 0 0 0 0 0 0.0181791 0 0 0 0 0.0884718 0 0 0 0.7 0"/>
<feBlend mode="normal" in2="BackgroundImageFix" result="effect1_dropShadow_21_7271"/>
<feBlend mode="normal" in="SourceGraphic" in2="effect1_dropShadow_21_7271" result="shape"/>
</filter>
<linearGradient id="paint0_linear_21_7271" x1="26.0619" y1="7.00142" x2="5.06518" y2="45.7956" gradientUnits="userSpaceOnUse">
<stop stop-color="#472576"/>
<stop offset="1" stop-color="#576DE8"/>
</linearGradient>
<linearGradient id="paint1_linear_21_7271" x1="39.7102" y1="10.986" x2="16.3893" y2="39.8191" gradientUnits="userSpaceOnUse">
<stop stop-color="#524C5B"/>
<stop offset="1" stop-color="#5469E3"/>
</linearGradient>
<linearGradient id="paint2_linear_21_7271" x1="19.9763" y1="13.1076" x2="18.1381" y2="17.221" gradientUnits="userSpaceOnUse">
<stop stop-color="#59CFF2"/>
<stop offset="0.434727" stop-color="white"/>
<stop offset="1" stop-color="#47B8DC"/>
</linearGradient>
<linearGradient id="paint3_linear_21_7271" x1="7.21624" y1="20.5652" x2="0.045821" y2="25.231" gradientUnits="userSpaceOnUse">
<stop stop-color="#59CFF2"/>
<stop offset="0.434727" stop-color="white"/>
<stop offset="1" stop-color="#47B8DC"/>
</linearGradient>
<linearGradient id="paint4_linear_21_7271" x1="12.9148" y1="12.1656" x2="5.72462" y2="21.1644" gradientUnits="userSpaceOnUse">
<stop stop-color="#59CFF2"/>
<stop offset="0.434727" stop-color="white"/>
<stop offset="1" stop-color="#47B8DC"/>
</linearGradient>
<radialGradient id="paint5_radial_21_7271" cx="0" cy="0" r="1" gradientUnits="userSpaceOnUse" gradientTransform="translate(17.7597 32.5422) rotate(90) scale(3.07051 1.91448)">
<stop stop-color="#8CE5FF"/>
<stop offset="1" stop-color="#5BC7FF"/>
</radialGradient>
<radialGradient id="paint6_radial_21_7271" cx="0" cy="0" r="1" gradientUnits="userSpaceOnUse" gradientTransform="translate(13.3179 31.1168) rotate(90) scale(3.58226 2.45691)">
<stop stop-color="#8CE5FF"/>
<stop offset="1" stop-color="#5BC7FF"/>
</radialGradient>
<radialGradient id="paint7_radial_21_7271" cx="0" cy="0" r="1" gradientUnits="userSpaceOnUse" gradientTransform="translate(16.6819 26.8576) rotate(90) scale(3.07051 1.57944)">
<stop stop-color="#8CE5FF"/>
<stop offset="1" stop-color="#5BC7FF"/>
</radialGradient>
<linearGradient id="paint8_linear_21_7271" x1="28.0965" y1="5.24162" x2="18.185" y2="11.9079" gradientUnits="userSpaceOnUse">
<stop stop-color="#8BB7FF" stop-opacity="0.8"/>
<stop offset="1" stop-color="#4E5D8C"/>
</linearGradient>
</defs>
</svg>
