<svg width="49" height="48" viewBox="0 0 49 48" fill="none" xmlns="http://www.w3.org/2000/svg">
<path d="M46.7132 32.389C47.4809 32.8277 48.139 29.0987 47.9744 34.0342C47.9744 34.6922 47.5906 35.3503 46.768 35.8438L27.0809 47.2503C25.4357 48.1825 22.7486 48.1825 21.1035 47.2503L1.30671 35.8438C0.484129 35.3503 0.100256 34.7471 0.0454174 34.089C-0.173937 28.7148 0.429287 32.8277 1.25187 32.3342L20.939 20.9277C22.5841 19.9955 25.2712 19.9955 26.9164 20.9277L46.7132 32.389Z" fill="url(#paint0_linear_21_7177)"/>
<g filter="url(#filter0_i_21_7177)">
<path fill-rule="evenodd" clip-rule="evenodd" d="M46.4009 29.1118C48.5233 30.3372 48.5344 32.324 46.4259 33.5492L27.9041 44.3128C25.7957 45.5384 22.3656 45.5384 20.2432 44.3128L1.59918 33.5488C-0.523205 32.3234 -0.534501 30.3366 1.57417 29.1112L20.0957 18.3478C22.2044 17.1224 25.6343 17.1224 27.7567 18.3476L46.4009 29.1118Z" fill="url(#paint1_linear_21_7177)"/>
</g>
<path fill-rule="evenodd" clip-rule="evenodd" d="M27.9175 19.1928L27.8781 31.4695L29.4663 27.9939L29.5056 15.7301V15.7173L27.9175 19.1928Z" fill="url(#paint2_linear_21_7177)"/>
<path fill-rule="evenodd" clip-rule="evenodd" d="M25.0987 13.1733L19.1038 14.1046L17.5156 17.5801L21.9225 20.1244L27.9175 19.1932L29.5056 15.7177L25.0987 13.1733Z" fill="url(#paint3_linear_21_7177)"/>
<path fill-rule="evenodd" clip-rule="evenodd" d="M27.9175 19.1929L27.8781 31.4695L21.8831 32.4008L21.9225 20.1242L27.9175 19.1929Z" fill="url(#paint4_linear_21_7177)"/>
<path fill-rule="evenodd" clip-rule="evenodd" d="M21.9225 20.1244L21.8831 32.4011L17.4762 29.8568L17.5156 17.5801L21.9225 20.1244Z" fill="url(#paint5_linear_21_7177)"/>
<path fill-rule="evenodd" clip-rule="evenodd" d="M27.9175 29.7494L27.8781 31.4697L29.4663 27.9941L29.5056 26.2868V26.2739L27.9175 29.7494Z" fill="#E02D52"/>
<path fill-rule="evenodd" clip-rule="evenodd" d="M27.9175 29.7495L27.8781 31.4697L21.8831 32.401L21.9225 30.6808L27.9175 29.7495Z" fill="#B90D30"/>
<path fill-rule="evenodd" clip-rule="evenodd" d="M21.9225 30.6806L21.8831 32.4008L17.4762 29.8565L17.5156 28.1362L21.9225 30.6806Z" fill="#88001C"/>
<path fill-rule="evenodd" clip-rule="evenodd" d="M27.9175 25.6894L27.8781 27.4096L29.4663 23.934L29.5056 22.2267V22.2139L27.9175 25.6894Z" fill="#E02D52"/>
<path fill-rule="evenodd" clip-rule="evenodd" d="M27.9175 25.6895L27.8781 27.4097L21.8831 28.341L21.9225 26.6207L27.9175 25.6895Z" fill="#B90D30"/>
<path fill-rule="evenodd" clip-rule="evenodd" d="M21.9225 26.6205L21.8831 28.3407L17.4762 25.7964L17.5156 24.0762L21.9225 26.6205Z" fill="#88001C"/>
<path fill-rule="evenodd" clip-rule="evenodd" d="M27.9175 21.6293L27.8781 23.3495L29.4663 19.874L29.5056 18.1666V18.1538L27.9175 21.6293Z" fill="#E02D52"/>
<path fill-rule="evenodd" clip-rule="evenodd" d="M27.9175 21.6289L27.8781 23.3491L21.8831 24.2804L21.9225 22.5602L27.9175 21.6289Z" fill="#B90D30"/>
<path fill-rule="evenodd" clip-rule="evenodd" d="M21.9225 22.5605L21.8831 24.2807L17.4762 21.7364L17.5156 20.0161L21.9225 22.5605Z" fill="#88001C"/>
<path fill-rule="evenodd" clip-rule="evenodd" d="M15 32.7548L17.4481 34.1683L17.4616 29.4354L15.0134 28.022L15 32.7548Z" fill="url(#paint6_linear_21_7177)"/>
<path fill-rule="evenodd" clip-rule="evenodd" d="M17.4616 29.4353L17.4482 34.1682L21.1682 32.0063L21.1817 27.2734L17.4616 29.4353Z" fill="#BEC0CF"/>
<path fill-rule="evenodd" clip-rule="evenodd" d="M15.0134 28.0217L17.4616 29.4352L21.1817 27.2733L18.7335 25.8599L15.0134 28.0217Z" fill="#777B95"/>
<ellipse cx="23.5264" cy="11.143" rx="8.12035" ry="7.71434" fill="url(#paint7_radial_21_7177)"/>
<path fill-rule="evenodd" clip-rule="evenodd" d="M19.8717 32.9741C20.1476 32.9741 20.3712 33.198 20.3712 33.4741V35.9102C20.3712 36.1864 20.1476 36.4102 19.8717 36.4102C19.5959 36.4102 19.3722 36.1864 19.3722 35.9102V33.4741C19.3722 33.198 19.5959 32.9741 19.8717 32.9741Z" fill="#292D40"/>
<path fill-rule="evenodd" clip-rule="evenodd" d="M22.3078 34.5981C22.5837 34.5981 22.8073 34.822 22.8073 35.0981V37.5342C22.8073 37.8104 22.5837 38.0342 22.3078 38.0342C22.032 38.0342 21.8083 37.8104 21.8083 37.5342V35.0981C21.8083 34.822 22.032 34.5981 22.3078 34.5981Z" fill="#292D40"/>
<path fill-rule="evenodd" clip-rule="evenodd" d="M24.7439 33.7861C25.0198 33.7861 25.2434 34.01 25.2434 34.2861V36.7222C25.2434 36.9984 25.0198 37.2222 24.7439 37.2222C24.468 37.2222 24.2444 36.9984 24.2444 36.7222V34.2861C24.2444 34.01 24.468 33.7861 24.7439 33.7861Z" fill="#292D40"/>
<path fill-rule="evenodd" clip-rule="evenodd" d="M27.18 32.1621C27.4559 32.1621 27.6795 32.386 27.6795 32.6621V35.0982C27.6795 35.3744 27.4559 35.5982 27.18 35.5982C26.9042 35.5982 26.6805 35.3744 26.6805 35.0982V32.6621C26.6805 32.386 26.9042 32.1621 27.18 32.1621Z" fill="#292D40"/>
<path fill-rule="evenodd" clip-rule="evenodd" d="M29.6161 30.5381C29.892 30.5381 30.1156 30.7619 30.1156 31.0381V33.4742C30.1156 33.7503 29.892 33.9742 29.6161 33.9742C29.3403 33.9742 29.1166 33.7503 29.1166 33.4742V31.0381C29.1166 30.7619 29.3403 30.5381 29.6161 30.5381Z" fill="#292D40"/>
<path fill-rule="evenodd" clip-rule="evenodd" d="M29.7381 31.2564L22.2965 35.3906L19.7336 33.682L20.0109 33.266L22.3202 34.8055L29.4952 30.8193L29.7381 31.2564Z" fill="white"/>
<path fill-rule="evenodd" clip-rule="evenodd" d="M29.7381 33.6924L22.2965 37.8267L19.7336 36.118L20.0109 35.702L22.3202 37.2415L29.4952 33.2554L29.7381 33.6924Z" fill="white"/>
<g opacity="0.7" filter="url(#filter1_i_21_7177)">
<path d="M45.9199 28.8945C48.0418 30.1199 48.0526 32.1069 45.9443 33.332L36.6484 38.7334C33.7891 36.8065 32 34.0629 32 31.0156C32 28.0375 33.7085 25.3489 36.4551 23.4297L45.9199 28.8945Z" fill="url(#paint8_linear_21_7177)"/>
</g>
<path opacity="0.7" d="M45.9199 28.8945C48.0418 30.1199 48.0526 32.1069 45.9443 33.332L36.6484 38.7334C33.7891 36.8065 32 34.0629 32 31.0156C32 28.0375 33.7085 25.3489 36.4551 23.4297L45.9199 28.8945Z" fill="url(#paint9_linear_21_7177)"/>
<defs>
<filter id="filter0_i_21_7177" x="0" y="17.4287" width="48" height="27.8032" filterUnits="userSpaceOnUse" color-interpolation-filters="sRGB">
<feFlood flood-opacity="0" result="BackgroundImageFix"/>
<feBlend mode="normal" in="SourceGraphic" in2="BackgroundImageFix" result="shape"/>
<feColorMatrix in="SourceAlpha" type="matrix" values="0 0 0 0 0 0 0 0 0 0 0 0 0 0 0 0 0 0 127 0" result="hardAlpha"/>
<feOffset dy="-1"/>
<feComposite in2="hardAlpha" operator="arithmetic" k2="-1" k3="1"/>
<feColorMatrix type="matrix" values="0 0 0 0 1 0 0 0 0 1 0 0 0 0 1 0 0 0 0.3 0"/>
<feBlend mode="normal" in2="shape" result="effect1_innerShadow_21_7177"/>
</filter>
<filter id="filter1_i_21_7177" x="32" y="23.4297" width="15.5185" height="15.3037" filterUnits="userSpaceOnUse" color-interpolation-filters="sRGB">
<feFlood flood-opacity="0" result="BackgroundImageFix"/>
<feBlend mode="normal" in="SourceGraphic" in2="BackgroundImageFix" result="shape"/>
<feColorMatrix in="SourceAlpha" type="matrix" values="0 0 0 0 0 0 0 0 0 0 0 0 0 0 0 0 0 0 127 0" result="hardAlpha"/>
<feOffset dy="3"/>
<feComposite in2="hardAlpha" operator="arithmetic" k2="-1" k3="1"/>
<feColorMatrix type="matrix" values="0 0 0 0 0.231857 0 0 0 0 0.61547 0 0 0 0 0.586211 0 0 0 1 0"/>
<feBlend mode="normal" in2="shape" result="effect1_innerShadow_21_7177"/>
</filter>
<linearGradient id="paint0_linear_21_7177" x1="51.3603" y1="22.5134" x2="0" y2="22.5134" gradientUnits="userSpaceOnUse">
<stop stop-color="#3D686D"/>
<stop offset="1" stop-color="#363846"/>
</linearGradient>
<linearGradient id="paint1_linear_21_7177" x1="35.3067" y1="12.7151" x2="-0.946473" y2="27.3971" gradientUnits="userSpaceOnUse">
<stop stop-color="#79828E"/>
<stop offset="1" stop-color="#7F8C84"/>
</linearGradient>
<linearGradient id="paint2_linear_21_7177" x1="29.5056" y1="15.7173" x2="27.8781" y2="15.7173" gradientUnits="userSpaceOnUse">
<stop stop-color="white"/>
<stop offset="1" stop-color="#D7DAEB"/>
</linearGradient>
<linearGradient id="paint3_linear_21_7177" x1="30.345" y1="13.7463" x2="17.5156" y2="13.7463" gradientUnits="userSpaceOnUse">
<stop stop-color="#4E75A0"/>
<stop offset="1" stop-color="#1F2966"/>
</linearGradient>
<linearGradient id="paint4_linear_21_7177" x1="28.1948" y1="19.1929" x2="22.1201" y2="18.9378" gradientUnits="userSpaceOnUse">
<stop stop-color="white"/>
<stop offset="1" stop-color="#D7DAEB"/>
</linearGradient>
<linearGradient id="paint5_linear_21_7177" x1="22.1268" y1="17.5801" x2="17.6464" y2="17.4566" gradientUnits="userSpaceOnUse">
<stop stop-color="white"/>
<stop offset="1" stop-color="#D7DAEB"/>
</linearGradient>
<linearGradient id="paint6_linear_21_7177" x1="17.5747" y1="28.022" x2="15.0957" y2="27.9307" gradientUnits="userSpaceOnUse">
<stop stop-color="white"/>
<stop offset="1" stop-color="#D7DAEB"/>
</linearGradient>
<radialGradient id="paint7_radial_21_7177" cx="0" cy="0" r="1" gradientTransform="matrix(6.58625 7.26402 -7.64633 6.25694 19.3313 8.7279)" gradientUnits="userSpaceOnUse">
<stop stop-color="white"/>
<stop offset="1" stop-color="#A5ABCC"/>
</radialGradient>
<linearGradient id="paint8_linear_21_7177" x1="40.0438" y1="16.71" x2="26.623" y2="31.6387" gradientUnits="userSpaceOnUse">
<stop stop-color="white"/>
<stop offset="1" stop-color="#2EE2FF"/>
</linearGradient>
<linearGradient id="paint9_linear_21_7177" x1="38.4432" y1="36.7292" x2="39.227" y2="24.9922" gradientUnits="userSpaceOnUse">
<stop stop-color="#EFFFFA" stop-opacity="0.01"/>
<stop offset="0.279879" stop-color="#E3FBF8" stop-opacity="0.744453"/>
<stop offset="0.281674" stop-color="#E1FAF7" stop-opacity="0.01"/>
<stop offset="1" stop-color="#BEEFF1" stop-opacity="0.01"/>
</linearGradient>
</defs>
</svg>
