<svg width="48" height="48" viewBox="0 0 48 48" fill="none" xmlns="http://www.w3.org/2000/svg">
<path d="M46.7132 31.9608C47.4809 32.3995 48.139 28.6705 47.9744 33.6059C47.9744 34.264 47.5906 34.9221 46.768 35.4156L27.0809 46.8221C25.4357 47.7543 22.7486 47.7543 21.1035 46.8221L1.30671 35.4156C0.484129 34.9221 0.100256 34.3188 0.0454174 33.6608C-0.173937 28.2866 0.429287 32.3995 1.25187 31.9059L20.939 20.4995C22.5841 19.5672 25.2712 19.5672 26.9164 20.4995L46.7132 31.9608Z" fill="url(#paint0_linear_21_7026)"/>
<g filter="url(#filter0_i_21_7026)">
<path fill-rule="evenodd" clip-rule="evenodd" d="M46.4009 28.6831C48.5233 29.9085 48.5344 31.8953 46.4259 33.1205L27.9041 43.8841C25.7957 45.1097 22.3656 45.1097 20.2432 43.8841L1.59918 33.1201C-0.523205 31.8947 -0.534501 29.9079 1.57417 28.6825L20.0957 17.9191C22.2044 16.6937 25.6343 16.6937 27.7567 17.9189L46.4009 28.6831Z" fill="url(#paint1_linear_21_7026)"/>
</g>
<g opacity="0.7" filter="url(#filter1_i_21_7026)">
<path d="M46.4012 28.5195C48.5235 29.7449 48.5341 31.7319 46.4257 32.957L34.0927 40.123C31.1105 38.1904 29.2333 35.3872 29.2333 32.2656C29.2333 28.2698 32.3074 24.7925 36.8407 23L46.4012 28.5195Z" fill="url(#paint2_linear_21_7026)"/>
</g>
<path opacity="0.7" d="M46.4012 28.5195C48.5236 29.7449 48.5341 31.7319 46.4257 32.957L34.0927 40.124C31.1103 38.1914 29.2333 35.3873 29.2333 32.2656C29.2333 28.2698 32.3074 24.7925 36.8407 23L46.4012 28.5195Z" fill="url(#paint3_linear_21_7026)"/>
<path opacity="0.282975" fill-rule="evenodd" clip-rule="evenodd" d="M27.1915 33.9998C29.4321 35.2934 29.443 37.3903 27.2178 38.6834C24.9919 39.9771 21.3717 39.9776 19.1312 38.6839L7.37231 31.8949C5.13184 30.6015 5.12002 28.504 7.34597 27.2105C9.57114 25.9174 13.192 25.9174 15.4326 27.2109L27.1915 33.9998Z" fill="black"/>
<path fill-rule="evenodd" clip-rule="evenodd" d="M27.1915 30.7518C29.4321 32.0454 29.443 34.1423 27.2178 35.4354C24.9919 36.7291 21.3718 36.7296 19.1312 35.4359L7.37234 28.6469C5.13187 27.3534 5.12005 25.256 7.346 23.9624C9.57117 22.6694 13.1921 22.6694 15.4327 23.9628L27.1915 30.7518Z" fill="white"/>
<path d="M26.4138 32.0078L23.8454 33.501L24.3727 33.8057L23.4733 34.3291L22.945 34.0234L22.1638 34.4775L21.1452 33.8896L21.9265 33.4355L19.7975 32.207L20.7516 31.6523L25.3942 31.4199L26.4138 32.0078ZM21.7018 32.2627L22.8259 32.9121L24.1413 32.1484L21.7018 32.2627ZM22.6442 29.9141L21.7175 30.4521L19.8386 29.3672L19.111 29.6738C19.3008 29.7135 19.4751 29.7614 19.6335 29.8174C19.7909 29.8728 19.932 29.9372 20.0563 30.0088C20.4766 30.2516 20.6931 30.5222 20.7018 30.8203C20.7114 31.1179 20.5238 31.3796 20.1403 31.6025C19.8698 31.7597 19.5422 31.8708 19.1589 31.9375C18.7754 32.0041 18.3943 32.0042 18.0153 31.9375C17.6364 31.8708 17.2545 31.7263 16.8679 31.5029C16.5911 31.3431 16.379 31.19 16.2331 31.0449C16.0885 30.9005 15.9966 30.7591 15.9616 30.6182C15.9265 30.4783 15.9322 30.3449 15.9772 30.2188C16.0223 30.0926 16.1138 29.9565 16.2526 29.8096L17.5622 30.418C17.4023 30.5436 17.3261 30.6652 17.3337 30.7832C17.3406 30.9008 17.4178 31.0011 17.5632 31.085C17.7262 31.1791 17.9219 31.2205 18.1511 31.2109C18.3795 31.2007 18.6146 31.1257 18.8581 30.9844C19.1066 30.8399 19.2358 30.702 19.2448 30.5732C19.2536 30.4435 19.1688 30.3285 18.9909 30.2256C18.8782 30.1607 18.7407 30.1135 18.5807 30.085C18.4631 30.0627 18.3042 30.0548 18.1071 30.0615L17.2536 29.4033L19.8698 28.3125L22.6442 29.9141ZM18.9089 27.7578L18.1257 28.2129C17.5625 28.1962 17.0265 28.2206 16.5182 28.2861C15.901 28.3651 15.2909 28.4986 14.6901 28.6865C14.2201 28.8309 13.7204 29.0347 13.1921 29.2979L12.027 28.625C12.8008 28.2815 13.5176 28.0331 14.1765 27.8789C14.8354 27.7238 15.6409 27.6171 16.5934 27.5576L14.5163 26.3574L15.4968 25.7881L18.9089 27.7578ZM10.5739 24.1182C11.0168 23.968 11.4613 23.9144 11.9079 23.957C12.3551 23.9993 12.8179 24.159 13.2956 24.4346C13.8443 24.7515 14.1403 25.0394 14.1823 25.2988C14.2241 25.5584 14.0908 25.7779 13.7829 25.957C13.6025 26.0618 13.3881 26.1279 13.1423 26.1553C12.8974 26.1833 12.6186 26.171 12.3073 26.1191C12.43 26.2366 12.5078 26.3352 12.5407 26.416C12.5951 26.5458 12.5907 26.6742 12.529 26.7998C12.4665 26.926 12.3386 27.0451 12.1442 27.1582C11.9017 27.2989 11.6037 27.3981 11.2526 27.4541C10.9008 27.5096 10.5446 27.5027 10.1823 27.4336C9.8211 27.3648 9.44439 27.2173 9.05243 26.9912C8.66998 26.7704 8.4128 26.5702 8.28094 26.3906C8.14897 26.2109 8.09878 26.0292 8.1286 25.8477C8.15753 25.6654 8.26458 25.4765 8.44794 25.2812L9.7702 25.8662C9.58238 26.0284 9.49103 26.1637 9.49677 26.2715C9.50353 26.3799 9.58219 26.4765 9.73114 26.5625C9.88791 26.653 10.0751 26.6959 10.2936 26.6904C10.5115 26.6844 10.7159 26.6249 10.9059 26.5146C11.0993 26.4022 11.1994 26.2855 11.2048 26.166C11.2109 26.0461 11.1281 25.9376 10.9557 25.8379C10.864 25.785 10.7152 25.7254 10.5095 25.6592L11.3991 25.2109C11.4546 25.2541 11.4997 25.2862 11.5368 25.3076C11.6892 25.3957 11.8665 25.4413 12.0651 25.4443C12.2643 25.4468 12.4302 25.4094 12.5632 25.332C12.6909 25.2578 12.755 25.1769 12.7536 25.0889C12.753 25.0005 12.6862 24.918 12.5524 24.8408C12.415 24.7613 12.2611 24.7207 12.0925 24.7188C11.9247 24.7171 11.7197 24.7673 11.4831 24.8701L10.5739 24.1182Z" fill="#2C396F"/>
<path opacity="0.182975" fill-rule="evenodd" clip-rule="evenodd" d="M35.5649 23.8943C38.1702 25.3984 38.1829 27.8367 35.5955 29.3403C33.0072 30.8446 28.7977 30.8452 26.1924 29.3409L12.5193 21.4467C9.91415 19.9427 9.9004 17.5038 12.4887 15.9997C15.0761 14.4961 19.2865 14.4961 21.8918 16.0001L35.5649 23.8943Z" fill="black"/>
<path fill-rule="evenodd" clip-rule="evenodd" d="M35.5649 19.0222C38.1702 20.5264 38.1829 22.9647 35.5955 24.4682C33.0072 25.9725 28.7977 25.9731 26.1924 24.4688L12.5193 16.5747C9.91415 15.0707 9.9004 12.6318 12.4887 11.1276C15.0761 9.62405 19.2865 9.62405 21.8918 11.1281L35.5649 19.0222Z" fill="white"/>
<path d="M31.7134 19.8384C32.4254 19.8163 33.1281 20.0058 33.8209 20.4058C34.1536 20.5977 34.3861 20.78 34.5181 20.9507C34.6504 21.1212 34.7193 21.2842 34.7232 21.438C34.7272 21.5917 34.6968 21.7328 34.6295 21.8608C34.5631 21.9893 34.4569 22.1235 34.313 22.2622C34.0387 22.5285 33.7028 22.7778 33.3043 23.0093C32.4122 23.5277 31.6072 23.819 30.8892 23.8843C30.1725 23.9488 29.4431 23.7675 28.6998 23.3384C28.284 23.0983 28.0125 22.8656 27.8882 22.6411C27.7641 22.4168 27.7472 22.1827 27.8365 21.9399C27.8987 21.7657 28.0536 21.568 28.3013 21.3472C28.5491 21.1263 28.8636 20.9061 29.2437 20.6851C30.178 20.1421 31.0014 19.8592 31.7134 19.8384ZM32.8658 20.9067C32.6376 20.775 32.3592 20.7469 32.0279 20.8218C31.6985 20.8966 31.2232 21.1142 30.6041 21.4741C29.9783 21.8377 29.6068 22.1182 29.4888 22.3149C29.3701 22.5126 29.4169 22.6733 29.6285 22.7954C29.7683 22.8761 29.9377 22.9172 30.1382 22.9194C30.3376 22.9225 30.5661 22.8767 30.8248 22.7827C31.0836 22.6887 31.4348 22.5118 31.8795 22.2534C32.532 21.8742 32.9148 21.5865 33.0289 21.3921C33.1425 21.1976 33.0875 21.0348 32.8658 20.9067ZM27.1021 17.1753C27.815 17.1537 28.5168 17.3432 29.2105 17.7437C29.5431 17.9357 29.7746 18.1173 29.9078 18.2886C30.0399 18.459 30.1089 18.6212 30.1129 18.7749C30.1169 18.9287 30.0867 19.0709 30.0201 19.1997C29.9537 19.3282 29.8466 19.462 29.7017 19.6001C29.4273 19.8666 29.0915 20.1154 28.6929 20.3472C27.8008 20.8656 26.9959 21.1567 26.2779 21.2222C25.5612 21.2865 24.8318 21.1049 24.0894 20.6763C23.6728 20.4356 23.4021 20.2041 23.2769 19.979C23.1527 19.7546 23.1365 19.5203 23.2271 19.2778C23.2892 19.1037 23.4431 18.9059 23.691 18.6851C23.9388 18.4642 24.2523 18.2429 24.6324 18.022C25.5667 17.479 26.3901 17.1962 27.1021 17.1753ZM28.2545 18.2446C28.0274 18.1136 27.7479 18.0841 27.4175 18.1597C27.0872 18.2339 26.6118 18.4511 25.9927 18.811C25.3666 19.1748 24.9954 19.456 24.8775 19.6528C24.7598 19.851 24.8068 20.0112 25.0181 20.1333C25.157 20.2135 25.3273 20.2555 25.5269 20.2573C25.7263 20.2604 25.9556 20.2148 26.2144 20.1206C26.4723 20.0261 26.825 19.8498 27.2701 19.5913C27.9229 19.2119 28.306 18.924 28.4185 18.729C28.5318 18.5347 28.4771 18.3733 28.2545 18.2446ZM26.4976 16.2739L25.5748 16.811C24.9135 16.7907 24.2828 16.8189 23.6851 16.896C22.9581 16.9895 22.2414 17.1468 21.5347 17.3677C20.9806 17.5384 20.3924 17.7779 19.7711 18.0874L18.4 17.2954C19.3123 16.8914 20.1542 16.5979 20.9293 16.4165C21.7035 16.2346 22.6531 16.1086 23.774 16.0386L21.3297 14.6274L22.4839 13.9565L26.4976 16.2739ZM16.692 11.9927C17.2118 11.8167 17.7343 11.7528 18.2603 11.8022C18.7868 11.8519 19.3322 12.0403 19.8941 12.3647C20.5401 12.7378 20.8869 13.077 20.9361 13.3823C20.9841 13.6881 20.8287 13.9451 20.4664 14.1558C20.2542 14.279 20.0024 14.3572 19.7144 14.3901C19.4252 14.4225 19.0972 14.4071 18.731 14.3462C18.8754 14.4842 18.9667 14.6007 19.0054 14.6958C19.0694 14.8483 19.0643 14.9995 18.9908 15.1479C18.9182 15.2957 18.7682 15.4359 18.5396 15.5688C18.2532 15.7352 17.9036 15.8506 17.4908 15.9165C17.0766 15.9818 16.6572 15.9739 16.232 15.8931C15.8058 15.8117 15.3622 15.6379 14.9009 15.3716C14.4511 15.1117 14.1489 14.8768 13.9937 14.6655C13.8387 14.4544 13.7791 14.2419 13.815 14.0278C13.8489 13.8133 13.9743 13.5908 14.19 13.3608L15.7457 14.0493C15.5248 14.2402 15.4175 14.3991 15.4244 14.5259C15.4323 14.6534 15.5234 14.7678 15.6998 14.8696C15.8832 14.9754 16.1047 15.0259 16.3619 15.0181C16.618 15.0109 16.8581 14.9417 17.0816 14.812C17.3091 14.6797 17.4265 14.543 17.4341 14.4019C17.4403 14.2613 17.3432 14.1328 17.1412 14.0161C17.0322 13.9535 16.8576 13.883 16.6158 13.8052L17.6617 13.2788C17.7271 13.3297 17.7813 13.3669 17.8248 13.3921C18.004 13.4956 18.2113 13.5492 18.4459 13.5522C18.6802 13.5551 18.8753 13.5115 19.0318 13.4204C19.1807 13.3337 19.2559 13.239 19.2554 13.1353C19.2549 13.031 19.1758 12.9331 19.0181 12.8423C18.8565 12.7488 18.6764 12.7012 18.4781 12.6987C18.2796 12.6974 18.0398 12.756 17.7603 12.8774L16.692 11.9927Z" fill="#2C396F"/>
<defs>
<filter id="filter0_i_21_7026" x="0" y="17" width="48" height="27.8032" filterUnits="userSpaceOnUse" color-interpolation-filters="sRGB">
<feFlood flood-opacity="0" result="BackgroundImageFix"/>
<feBlend mode="normal" in="SourceGraphic" in2="BackgroundImageFix" result="shape"/>
<feColorMatrix in="SourceAlpha" type="matrix" values="0 0 0 0 0 0 0 0 0 0 0 0 0 0 0 0 0 0 127 0" result="hardAlpha"/>
<feOffset dy="-1"/>
<feComposite in2="hardAlpha" operator="arithmetic" k2="-1" k3="1"/>
<feColorMatrix type="matrix" values="0 0 0 0 0.310375 0 0 0 0 0.330477 0 0 0 0 0.375839 0 0 0 0.3 0"/>
<feBlend mode="normal" in2="shape" result="effect1_innerShadow_21_7026"/>
</filter>
<filter id="filter1_i_21_7026" x="29.2333" y="23" width="18.7667" height="17.123" filterUnits="userSpaceOnUse" color-interpolation-filters="sRGB">
<feFlood flood-opacity="0" result="BackgroundImageFix"/>
<feBlend mode="normal" in="SourceGraphic" in2="BackgroundImageFix" result="shape"/>
<feColorMatrix in="SourceAlpha" type="matrix" values="0 0 0 0 0 0 0 0 0 0 0 0 0 0 0 0 0 0 127 0" result="hardAlpha"/>
<feOffset dy="3"/>
<feComposite in2="hardAlpha" operator="arithmetic" k2="-1" k3="1"/>
<feColorMatrix type="matrix" values="0 0 0 0 0.231857 0 0 0 0 0.61547 0 0 0 0 0.586211 0 0 0 1 0"/>
<feBlend mode="normal" in2="shape" result="effect1_innerShadow_21_7026"/>
</filter>
<linearGradient id="paint0_linear_21_7026" x1="51.0239" y1="22.1823" x2="0" y2="22.1823" gradientUnits="userSpaceOnUse">
<stop stop-color="#BD8767"/>
<stop offset="1" stop-color="#79413C"/>
</linearGradient>
<linearGradient id="paint1_linear_21_7026" x1="-2.38925" y1="25.2077" x2="7.50681" y2="48.7225" gradientUnits="userSpaceOnUse">
<stop stop-color="#00CC60"/>
<stop offset="1" stop-color="#88D37A"/>
</linearGradient>
<linearGradient id="paint2_linear_21_7026" x1="38.9607" y1="15.4815" x2="24.1119" y2="33.3337" gradientUnits="userSpaceOnUse">
<stop stop-color="white"/>
<stop offset="1" stop-color="#2EE2FF"/>
</linearGradient>
<linearGradient id="paint3_linear_21_7026" x1="37.0252" y1="37.8814" x2="37.8372" y2="24.74" gradientUnits="userSpaceOnUse">
<stop stop-color="#EFFFFA" stop-opacity="0.01"/>
<stop offset="0.279879" stop-color="#E3FBF8" stop-opacity="0.744453"/>
<stop offset="0.281674" stop-color="#E1FAF7" stop-opacity="0.01"/>
<stop offset="1" stop-color="#BEEFF1" stop-opacity="0.01"/>
</linearGradient>
</defs>
</svg>
