<svg width="48" height="48" viewBox="0 0 48 48" fill="none" xmlns="http://www.w3.org/2000/svg">
<path d="M46.7123 32.4396C47.48 32.8783 48.138 29.1494 47.9735 34.0847C47.9735 34.7428 47.5897 35.4008 46.7671 35.8944L27.0804 47.3006C25.4353 48.2328 22.7482 48.2328 21.1031 47.3006L1.30674 35.8944C0.48418 35.4008 0.100315 34.7976 0.0454775 34.1396C-0.173873 28.7655 0.429339 32.8783 1.2519 32.3848L20.9386 20.9786C22.5837 20.0463 25.2708 20.0463 26.9159 20.9786L46.7123 32.4396Z" fill="url(#paint0_linear_21_6413)"/>
<g filter="url(#filter0_ii_21_6413)">
<path fill-rule="evenodd" clip-rule="evenodd" d="M46.4023 29.1455C48.5216 30.3691 48.5327 32.353 46.4273 33.5764L27.9328 44.3242C25.8274 45.548 22.4024 45.548 20.2832 44.3242L1.66659 33.576C-0.452673 32.3524 -0.463953 30.3685 1.64162 29.1449L20.1359 18.3973C22.2415 17.1738 25.6663 17.1738 27.7856 18.3971L46.4023 29.1455Z" fill="url(#paint1_radial_21_6413)"/>
</g>
<g filter="url(#filter1_i_21_6413)">
<path d="M47.8186 30.7406C48.1693 31.7344 47.6834 32.8061 46.3577 33.5765L27.863 44.3243C26.5076 45.1121 24.6059 45.3897 22.8572 45.1631L47.8186 30.7406ZM46.6331 29.3344C46.8901 29.5087 47.1087 29.6955 47.2893 29.891L21.407 44.8448C21.0739 44.7373 20.756 44.6084 20.4598 44.4571L46.6331 29.3344ZM45.6478 28.7504L19.453 43.8848L16.6142 42.2462L42.8089 27.1118L45.6478 28.7504ZM41.809 26.5336L15.6142 41.6681L14.8046 41.2013L40.9994 26.0659L41.809 26.5336ZM40.0004 25.4897L13.8056 40.6242L10.7803 38.8771L36.9751 23.7427L40.0004 25.4897ZM35.9751 23.1655L9.78032 38.3L8.97076 37.8332L35.1655 22.6978L35.9751 23.1655ZM34.1665 22.1216L7.97176 37.2561L4.91616 35.4915L31.1109 20.357L34.1665 22.1216ZM30.11 19.7799L3.9152 34.9143L3.10565 34.4475L29.3004 19.3121L30.11 19.7799ZM20.0662 18.3971C22.1717 17.1737 25.5963 17.174 27.7155 18.3971L28.3014 18.735L2.10665 33.8704L1.59689 33.5765C-0.522288 32.3529 -0.533814 30.3685 1.5715 29.1449L20.0662 18.3971Z" fill="url(#paint2_linear_21_6413)"/>
</g>
<ellipse cx="25.2058" cy="33.7032" rx="2.43252" ry="0.81084" fill="url(#paint3_linear_21_6413)"/>
<path d="M25.2058 32.8925V13.4323" stroke="#E2E4E3" stroke-width="2" stroke-linecap="round"/>
<ellipse cx="18.638" cy="25.3924" rx="0.567588" ry="0.851382" fill="white"/>
<ellipse cx="29.4222" cy="24.8245" rx="0.567588" ry="0.851382" fill="white"/>
<ellipse cx="21.4759" cy="22.5546" rx="0.567588" ry="0.851382" fill="white"/>
<ellipse cx="16.9352" cy="19.1489" rx="0.567588" ry="0.851382" fill="white"/>
<ellipse cx="32.8277" cy="19.1489" rx="0.567588" ry="0.851382" fill="white"/>
<ellipse cx="36.8008" cy="20.2841" rx="0.567588" ry="0.851382" fill="white"/>
<ellipse cx="27.7194" cy="19.7162" rx="0.567588" ry="0.851382" fill="white"/>
<ellipse cx="23.1787" cy="19.7162" rx="0.567588" ry="0.851382" fill="white"/>
<ellipse cx="19.4893" cy="20.5677" rx="0.283794" ry="0.567588" fill="white"/>
<ellipse cx="30.8411" cy="20.5677" rx="0.283794" ry="0.567588" fill="white"/>
<ellipse cx="27.4356" cy="24.5407" rx="0.283794" ry="0.567588" fill="white"/>
<ellipse cx="14.9487" cy="21.1355" rx="0.283794" ry="0.567588" fill="white"/>
<ellipse cx="0.624359" cy="0.936539" rx="0.624359" ry="0.936539" transform="matrix(-0.99998 0 0 0.99998 32.0006 33.2737)" fill="white"/>
<ellipse cx="0.624359" cy="0.936539" rx="0.624359" ry="0.936539" transform="matrix(-0.99998 0 0 0.99998 20.138 32.6492)" fill="white"/>
<ellipse cx="0.624359" cy="0.936539" rx="0.624359" ry="0.936539" transform="matrix(-0.99998 0 0 0.99998 28.8789 30.1517)" fill="white"/>
<ellipse cx="0.624359" cy="0.936539" rx="0.624359" ry="0.936539" transform="matrix(-0.99998 0 0 0.99998 33.8736 26.4057)" fill="white"/>
<ellipse cx="0.624359" cy="0.936539" rx="0.624359" ry="0.936539" transform="matrix(-0.99998 0 0 0.99998 16.3919 26.4057)" fill="white"/>
<ellipse cx="0.624359" cy="0.936539" rx="0.624359" ry="0.936539" transform="matrix(-0.99998 0 0 0.99998 12.0215 27.6542)" fill="white"/>
<ellipse cx="0.624359" cy="0.936539" rx="0.624359" ry="0.936539" transform="matrix(-0.99998 0 0 0.99998 22.0111 27.0302)" fill="white"/>
<ellipse cx="0.624359" cy="0.936539" rx="0.624359" ry="0.936539" transform="matrix(-0.99998 0 0 0.99998 27.0059 27.0302)" fill="white"/>
<ellipse cx="0.31218" cy="0.624359" rx="0.31218" ry="0.624359" transform="matrix(-0.99998 0 0 0.99998 30.7519 28.2787)" fill="white"/>
<ellipse cx="0.31218" cy="0.624359" rx="0.31218" ry="0.624359" transform="matrix(-0.99998 0 0 0.99998 18.265 28.2787)" fill="white"/>
<ellipse cx="0.31218" cy="0.624359" rx="0.31218" ry="0.624359" transform="matrix(-0.99998 0 0 0.99998 22.0111 32.6492)" fill="white"/>
<ellipse cx="0.31218" cy="0.624359" rx="0.31218" ry="0.624359" transform="matrix(-0.99998 0 0 0.99998 35.7467 28.9032)" fill="white"/>
<g opacity="0.4" filter="url(#filter2_i_21_6413)">
<ellipse cx="25.6112" cy="20.3244" rx="21.4873" ry="9.32466" fill="black" fill-opacity="0.01"/>
</g>
<g filter="url(#filter3_i_21_6413)">
<ellipse cx="25.2382" cy="19.173" rx="18.6818" ry="8.17327" fill="black" fill-opacity="0.01"/>
</g>
<g filter="url(#filter4_i_21_6413)">
<ellipse cx="25.2707" cy="17.7135" rx="15.4708" ry="6.71375" fill="black" fill-opacity="0.01"/>
</g>
<g filter="url(#filter5_i_21_6413)">
<ellipse cx="24.2652" cy="16.5459" rx="12.8437" ry="5.54614" fill="black" fill-opacity="0.01"/>
</g>
<g filter="url(#filter6_i_21_6413)">
<ellipse cx="24.6544" cy="15.6702" rx="10.8004" ry="4.67044" fill="black" fill-opacity="0.01"/>
</g>
<g filter="url(#filter7_i_21_6413)">
<ellipse cx="25.3355" cy="14.7945" rx="9.04897" ry="3.79473" fill="black" fill-opacity="0.01"/>
</g>
<g filter="url(#filter8_i_21_6413)">
<ellipse cx="25.2058" cy="13.9188" rx="7.29756" ry="2.91902" fill="black" fill-opacity="0.01"/>
</g>
<g filter="url(#filter9_i_21_6413)">
<ellipse cx="25.595" cy="13.0431" rx="5.25424" ry="2.04332" fill="black" fill-opacity="0.01"/>
</g>
<ellipse cx="25.4653" cy="12.4593" rx="3.50283" ry="1.45951" fill="url(#paint4_linear_21_6413)"/>
<path d="M20.9996 42.4993L30.0044 37.1406C30.7068 36.7225 30.6382 35.6841 29.8869 35.3621L26.0166 33.7034" stroke="#486271" stroke-linecap="round"/>
<defs>
<filter id="filter0_ii_21_6413" x="0.0697618" y="17.4796" width="47.9293" height="27.7626" filterUnits="userSpaceOnUse" color-interpolation-filters="sRGB">
<feFlood flood-opacity="0" result="BackgroundImageFix"/>
<feBlend mode="normal" in="SourceGraphic" in2="BackgroundImageFix" result="shape"/>
<feColorMatrix in="SourceAlpha" type="matrix" values="0 0 0 0 0 0 0 0 0 0 0 0 0 0 0 0 0 0 127 0" result="hardAlpha"/>
<feOffset dy="-1"/>
<feComposite in2="hardAlpha" operator="arithmetic" k2="-1" k3="1"/>
<feColorMatrix type="matrix" values="0 0 0 0 1 0 0 0 0 1 0 0 0 0 1 0 0 0 0.3 0"/>
<feBlend mode="normal" in2="shape" result="effect1_innerShadow_21_6413"/>
<feColorMatrix in="SourceAlpha" type="matrix" values="0 0 0 0 0 0 0 0 0 0 0 0 0 0 0 0 0 0 127 0" result="hardAlpha"/>
<feOffset/>
<feGaussianBlur stdDeviation="2.5"/>
<feComposite in2="hardAlpha" operator="arithmetic" k2="-1" k3="1"/>
<feColorMatrix type="matrix" values="0 0 0 0 1 0 0 0 0 1 0 0 0 0 1 0 0 0 0.3 0"/>
<feBlend mode="normal" in2="effect1_innerShadow_21_6413" result="effect2_innerShadow_21_6413"/>
</filter>
<filter id="filter1_i_21_6413" x="0" y="17.4796" width="47.9288" height="27.7597" filterUnits="userSpaceOnUse" color-interpolation-filters="sRGB">
<feFlood flood-opacity="0" result="BackgroundImageFix"/>
<feBlend mode="normal" in="SourceGraphic" in2="BackgroundImageFix" result="shape"/>
<feColorMatrix in="SourceAlpha" type="matrix" values="0 0 0 0 0 0 0 0 0 0 0 0 0 0 0 0 0 0 127 0" result="hardAlpha"/>
<feOffset dy="-1"/>
<feComposite in2="hardAlpha" operator="arithmetic" k2="-1" k3="1"/>
<feColorMatrix type="matrix" values="0 0 0 0 0.113076 0 0 0 0 0.337573 0 0 0 0 0.305984 0 0 0 0.5 0"/>
<feBlend mode="normal" in2="shape" result="effect1_innerShadow_21_6413"/>
</filter>
<filter id="filter2_i_21_6413" x="4.12394" y="10.9998" width="42.9745" height="18.6495" filterUnits="userSpaceOnUse" color-interpolation-filters="sRGB">
<feFlood flood-opacity="0" result="BackgroundImageFix"/>
<feBlend mode="normal" in="SourceGraphic" in2="BackgroundImageFix" result="shape"/>
<feColorMatrix in="SourceAlpha" type="matrix" values="0 0 0 0 0 0 0 0 0 0 0 0 0 0 0 0 0 0 127 0" result="hardAlpha"/>
<feOffset/>
<feGaussianBlur stdDeviation="5"/>
<feComposite in2="hardAlpha" operator="arithmetic" k2="-1" k3="1"/>
<feColorMatrix type="matrix" values="0 0 0 0 0.382116 0 0 0 0 0.854975 0 0 0 0 1 0 0 0 0.9 0"/>
<feBlend mode="normal" in2="shape" result="effect1_innerShadow_21_6413"/>
</filter>
<filter id="filter3_i_21_6413" x="6.55645" y="10.9998" width="37.3635" height="16.3463" filterUnits="userSpaceOnUse" color-interpolation-filters="sRGB">
<feFlood flood-opacity="0" result="BackgroundImageFix"/>
<feBlend mode="normal" in="SourceGraphic" in2="BackgroundImageFix" result="shape"/>
<feColorMatrix in="SourceAlpha" type="matrix" values="0 0 0 0 0 0 0 0 0 0 0 0 0 0 0 0 0 0 127 0" result="hardAlpha"/>
<feOffset/>
<feGaussianBlur stdDeviation="4.5"/>
<feComposite in2="hardAlpha" operator="arithmetic" k2="-1" k3="1"/>
<feColorMatrix type="matrix" values="0 0 0 0 0.382116 0 0 0 0 0.854975 0 0 0 0 1 0 0 0 0.9 0"/>
<feBlend mode="normal" in2="shape" result="effect1_innerShadow_21_6413"/>
</filter>
<filter id="filter4_i_21_6413" x="9.79985" y="10.9998" width="30.9416" height="13.4275" filterUnits="userSpaceOnUse" color-interpolation-filters="sRGB">
<feFlood flood-opacity="0" result="BackgroundImageFix"/>
<feBlend mode="normal" in="SourceGraphic" in2="BackgroundImageFix" result="shape"/>
<feColorMatrix in="SourceAlpha" type="matrix" values="0 0 0 0 0 0 0 0 0 0 0 0 0 0 0 0 0 0 127 0" result="hardAlpha"/>
<feOffset/>
<feGaussianBlur stdDeviation="4"/>
<feComposite in2="hardAlpha" operator="arithmetic" k2="-1" k3="1"/>
<feColorMatrix type="matrix" values="0 0 0 0 0.382116 0 0 0 0 0.854975 0 0 0 0 1 0 0 0 0.9 0"/>
<feBlend mode="normal" in2="shape" result="effect1_innerShadow_21_6413"/>
</filter>
<filter id="filter5_i_21_6413" x="11.4215" y="10.9998" width="25.6874" height="11.0921" filterUnits="userSpaceOnUse" color-interpolation-filters="sRGB">
<feFlood flood-opacity="0" result="BackgroundImageFix"/>
<feBlend mode="normal" in="SourceGraphic" in2="BackgroundImageFix" result="shape"/>
<feColorMatrix in="SourceAlpha" type="matrix" values="0 0 0 0 0 0 0 0 0 0 0 0 0 0 0 0 0 0 127 0" result="hardAlpha"/>
<feOffset/>
<feGaussianBlur stdDeviation="4"/>
<feComposite in2="hardAlpha" operator="arithmetic" k2="-1" k3="1"/>
<feColorMatrix type="matrix" values="0 0 0 0 0.382116 0 0 0 0 0.854975 0 0 0 0 1 0 0 0 0.9 0"/>
<feBlend mode="normal" in2="shape" result="effect1_innerShadow_21_6413"/>
</filter>
<filter id="filter6_i_21_6413" x="13.854" y="10.9998" width="21.6008" height="9.34112" filterUnits="userSpaceOnUse" color-interpolation-filters="sRGB">
<feFlood flood-opacity="0" result="BackgroundImageFix"/>
<feBlend mode="normal" in="SourceGraphic" in2="BackgroundImageFix" result="shape"/>
<feColorMatrix in="SourceAlpha" type="matrix" values="0 0 0 0 0 0 0 0 0 0 0 0 0 0 0 0 0 0 127 0" result="hardAlpha"/>
<feOffset/>
<feGaussianBlur stdDeviation="2.5"/>
<feComposite in2="hardAlpha" operator="arithmetic" k2="-1" k3="1"/>
<feColorMatrix type="matrix" values="0 0 0 0 0.382116 0 0 0 0 0.854975 0 0 0 0 1 0 0 0 0.9 0"/>
<feBlend mode="normal" in2="shape" result="effect1_innerShadow_21_6413"/>
</filter>
<filter id="filter7_i_21_6413" x="16.2865" y="10.9998" width="18.098" height="7.58969" filterUnits="userSpaceOnUse" color-interpolation-filters="sRGB">
<feFlood flood-opacity="0" result="BackgroundImageFix"/>
<feBlend mode="normal" in="SourceGraphic" in2="BackgroundImageFix" result="shape"/>
<feColorMatrix in="SourceAlpha" type="matrix" values="0 0 0 0 0 0 0 0 0 0 0 0 0 0 0 0 0 0 127 0" result="hardAlpha"/>
<feOffset/>
<feGaussianBlur stdDeviation="2"/>
<feComposite in2="hardAlpha" operator="arithmetic" k2="-1" k3="1"/>
<feColorMatrix type="matrix" values="0 0 0 0 0.382116 0 0 0 0 0.854975 0 0 0 0 1 0 0 0 0.9 0"/>
<feBlend mode="normal" in2="shape" result="effect1_innerShadow_21_6413"/>
</filter>
<filter id="filter8_i_21_6413" x="17.9082" y="10.9998" width="14.5951" height="5.83826" filterUnits="userSpaceOnUse" color-interpolation-filters="sRGB">
<feFlood flood-opacity="0" result="BackgroundImageFix"/>
<feBlend mode="normal" in="SourceGraphic" in2="BackgroundImageFix" result="shape"/>
<feColorMatrix in="SourceAlpha" type="matrix" values="0 0 0 0 0 0 0 0 0 0 0 0 0 0 0 0 0 0 127 0" result="hardAlpha"/>
<feOffset/>
<feGaussianBlur stdDeviation="1.5"/>
<feComposite in2="hardAlpha" operator="arithmetic" k2="-1" k3="1"/>
<feColorMatrix type="matrix" values="0 0 0 0 0.382116 0 0 0 0 0.854975 0 0 0 0 1 0 0 0 0.9 0"/>
<feBlend mode="normal" in2="shape" result="effect1_innerShadow_21_6413"/>
</filter>
<filter id="filter9_i_21_6413" x="20.3407" y="10.9998" width="10.5085" height="4.08683" filterUnits="userSpaceOnUse" color-interpolation-filters="sRGB">
<feFlood flood-opacity="0" result="BackgroundImageFix"/>
<feBlend mode="normal" in="SourceGraphic" in2="BackgroundImageFix" result="shape"/>
<feColorMatrix in="SourceAlpha" type="matrix" values="0 0 0 0 0 0 0 0 0 0 0 0 0 0 0 0 0 0 127 0" result="hardAlpha"/>
<feOffset/>
<feGaussianBlur stdDeviation="1.5"/>
<feComposite in2="hardAlpha" operator="arithmetic" k2="-1" k3="1"/>
<feColorMatrix type="matrix" values="0 0 0 0 0.382116 0 0 0 0 0.854975 0 0 0 0 1 0 0 0 0.9 0"/>
<feBlend mode="normal" in2="shape" result="effect1_innerShadow_21_6413"/>
</filter>
<linearGradient id="paint0_linear_21_6413" x1="51.0229" y1="22.6614" x2="6.10339e-05" y2="22.6614" gradientUnits="userSpaceOnUse">
<stop stop-color="#726145"/>
<stop offset="1" stop-color="#4E0D08"/>
</linearGradient>
<radialGradient id="paint1_radial_21_6413" cx="0" cy="0" r="1" gradientTransform="matrix(5.68118 -21.3338 36.8309 3.29074 25.3546 42.5588)" gradientUnits="userSpaceOnUse">
<stop stop-color="#FFD29A"/>
<stop offset="1" stop-color="#BB632B"/>
</radialGradient>
<linearGradient id="paint2_linear_21_6413" x1="12.7847" y1="18.9328" x2="4.81305" y2="44.4094" gradientUnits="userSpaceOnUse">
<stop stop-color="#00C733"/>
<stop offset="1" stop-color="#E4FFB3"/>
</linearGradient>
<linearGradient id="paint3_linear_21_6413" x1="22.7728" y1="32.8917" x2="22.7728" y2="34.5134" gradientUnits="userSpaceOnUse">
<stop stop-color="#587485"/>
<stop offset="1" stop-color="#2C404D"/>
</linearGradient>
<linearGradient id="paint4_linear_21_6413" x1="21.962" y1="10.9996" x2="21.962" y2="13.9186" gradientUnits="userSpaceOnUse">
<stop stop-color="#587485"/>
<stop offset="1" stop-color="#2C404D"/>
</linearGradient>
</defs>
</svg>
