<svg width="47" height="44" viewBox="0 0 47 44" fill="none" xmlns="http://www.w3.org/2000/svg">
<path d="M40.9596 29.4521C41.6323 29.8365 42.2088 26.5696 42.0647 30.8934C42.0647 31.4699 41.7284 32.0464 41.0077 32.4788L23.7586 42.4715C22.3171 43.2882 19.9628 43.2882 18.5214 42.4715L1.17618 32.4788C0.455467 32.0464 0.119132 31.5179 0.0710845 30.9414C-0.121106 26.2333 0.407416 29.8365 1.12813 29.4041L18.3772 19.4114C19.8187 18.5946 22.173 18.5946 23.6144 19.4114L40.9596 29.4521Z" fill="url(#paint0_linear_21_7366)"/>
<g filter="url(#filter0_i_21_7366)">
<path d="M40.9593 27.2924C42.4007 28.1091 42.4007 29.5023 40.9593 30.319L23.7102 40.3118C22.2687 41.1285 19.9144 41.1285 18.473 40.3118L1.12776 30.319C-0.313665 29.5023 -0.313665 28.1091 1.12776 27.2924L18.3769 17.2997C19.8183 16.483 22.1726 16.483 23.6141 17.2997L40.9593 27.2924Z" fill="url(#paint1_linear_21_7366)"/>
</g>
<path d="M24.9884 36.7314C25.7339 36.1972 25.5682 34.8618 24.8228 34.4612C23.5804 33.7935 22.4838 33.6652 22.0429 33.6652C21.3572 33.6652 19.1908 34.0606 18.1141 34.8618C17.6171 35.2624 17.4515 35.9302 17.6999 36.5979C18.0312 37.2656 18.8661 37.8132 20.2741 38.2138C21.9306 38.4809 23.7461 37.6662 24.9884 36.7314Z" fill="url(#paint2_linear_21_7366)"/>
<g opacity="0.6">
<path d="M21.0431 32.7711C21.5012 33.1881 21.3998 33.7068 21.4675 34.0872L20.8111 35.2407C20.6706 35.1588 20.4344 34.509 20.1987 33.9437C19.8707 33.1571 19.9033 32.4567 20.0195 31.94C20.4395 32.2186 20.7974 32.5475 21.0431 32.7711Z" fill="url(#paint3_linear_21_7366)"/>
<path d="M18.0562 33.9983C18.7221 34.4589 20.2914 34.9573 20.809 35.0825L21.3234 34.7639L21.7622 34.3914C21.5607 34.208 20.5899 33.8442 19.7238 33.4902C18.5185 32.9975 17.6778 32.9624 17.1235 33.0509C17.2381 33.2537 17.5972 33.6809 18.0562 33.9983Z" fill="url(#paint4_linear_21_7366)"/>
<path d="M21.7101 33.7155C21.5843 33.4662 21.272 32.9798 21.1002 32.8234C21.1972 33.0801 21.3416 33.5148 21.3143 34.0292C21.287 34.5435 21.205 34.9969 21.2696 35.1681C21.2416 35.1988 21.4199 35.233 21.6883 34.9381C21.9567 34.6433 21.8725 34.425 21.8804 34.376C21.876 34.2597 21.8358 33.9648 21.7101 33.7155Z" fill="url(#paint5_linear_21_7366)"/>
<path d="M20.3308 35.2791C19.7645 35.0795 19.1951 34.7191 18.0562 33.9983C18.3802 34.1353 19.2674 34.311 20.076 34.5731C20.7128 34.7795 21.5525 34.7587 21.7685 34.85L21.5326 35.1092C21.281 35.3856 21.1111 35.4627 21.0576 35.4666C20.9234 35.4498 20.6777 35.4013 20.3308 35.2791Z" fill="url(#paint6_linear_21_7366)"/>
</g>
<path d="M19.5933 30.8774C19.7199 31.9728 20.5289 34.0149 20.8299 34.6525L21.5142 34.879L22.1856 34.9797C22.1856 33.2001 20.9733 30.2651 19.6789 29.0654C19.5933 29.3674 19.506 30.1224 19.5933 30.8774Z" fill="url(#paint7_linear_21_7366)"/>
<path d="M20.3717 34.4919C20.0456 33.6741 19.7443 32.3072 19.5566 30.3796C19.7443 31.431 20.1199 31.9567 20.8709 33.3587C21.336 34.2269 21.7484 34.9811 21.8571 35.3082C21.9115 35.3082 22.1975 35.6368 21.6758 35.6368C21.1542 35.6368 20.9151 35.5277 20.8608 35.4732C20.7521 35.3096 20.5714 34.9928 20.3717 34.4919Z" fill="url(#paint8_linear_21_7366)"/>
<path d="M21.7832 35.6367C22.044 35.6367 22.4871 35.349 22.5142 35.3081C22.9538 34.3158 23.1819 32.7111 22.8428 31.6938C22.4353 32.1821 22.2326 32.6138 21.8571 33.6653C21.6245 34.3165 21.593 35.3914 21.5387 35.6367H21.7832Z" fill="url(#paint9_linear_21_7366)"/>
<path d="M40.9283 28.4211C41.601 28.8055 42.1776 25.538 42.0334 29.8626C42.0334 30.4392 41.6971 31.0158 40.9764 31.4483L23.7273 41.4429C22.2858 42.2598 19.9315 42.2598 18.4901 41.4429L1.14489 31.4483C0.424175 31.0158 0.0878406 30.4873 0.039793 29.9106C-0.152397 25.2016 0.376125 28.8055 1.09684 28.373L18.3459 18.3784C19.7874 17.5615 22.1417 17.5615 23.5831 18.3784L40.9283 28.4211Z" fill="url(#paint10_linear_21_7366)"/>
<g filter="url(#filter1_i_21_7366)">
<path d="M40.928 26.2608C42.3694 27.0777 42.3694 28.4712 40.928 29.2881L23.6789 39.2827C22.2374 40.0996 19.8831 40.0996 18.4417 39.2827L1.09647 29.2881C-0.344956 28.4712 -0.344956 27.0777 1.09647 26.2608L18.3456 16.2662C19.787 15.4493 22.1413 15.4493 23.5828 16.2662L40.928 26.2608Z" fill="#A5B18C"/>
</g>
<path opacity="0.5" d="M16.2871 21.0279C17.6013 21.3564 20.5748 22.0056 27.4581 26.6138C27.4581 26.6138 26.9387 27.9281 24.1643 27.9281C20.5584 27.9281 15.3014 24.3137 12.0158 22.6708L16.2871 21.0279Z" fill="url(#paint11_linear_21_7366)"/>
<path opacity="0.2" d="M15.1051 20.0265C16.9799 20.4557 21.2217 21.3035 31.0411 27.3219C31.0411 27.3219 30.3001 29.0385 26.3424 29.0385C21.1983 29.0385 13.699 24.3179 9.01194 22.1722L15.1051 20.0265Z" fill="url(#paint12_linear_21_7366)"/>
<g filter="url(#filter2_ii_21_7366)">
<path d="M24.0244 27.0151C24.0244 16.3981 24.236 11.467 24.5514 9.01194H26.6594C26.9229 12.0125 27.1786 18.3204 27.1786 27.0151C27.1786 27.0151 26.9365 27.9384 25.6015 27.9384C24.2664 27.9384 24.0244 27.0151 24.0244 27.0151Z" fill="url(#paint13_linear_21_7366)"/>
<path d="M24.0244 27.0151C24.0244 16.3981 24.236 11.467 24.5514 9.01194H26.6594C26.9229 12.0125 27.1786 18.3204 27.1786 27.0151C27.1786 27.0151 26.9365 27.9384 25.6015 27.9384C24.2664 27.9384 24.0244 27.0151 24.0244 27.0151Z" fill="black" fill-opacity="0.2"/>
</g>
<g filter="url(#filter3_i_21_7366)">
<ellipse cx="20.3711" cy="8.0175" rx="1.31424" ry="0.657168" fill="url(#paint14_linear_21_7366)"/>
</g>
<path d="M13.2106 29.2563C17.8049 29.0153 20.5959 28.5247 21.4172 28.3096L14.8775 23.6782L3.36986 28.8809C4.7358 29.1064 8.61626 29.4973 13.2106 29.2563Z" fill="url(#paint15_linear_21_7366)"/>
<path d="M27.8329 7.21491C26.9439 5.91496 25.6101 5.48164 23.3871 4.615C20.1267 5.04832 13.4278 6.5216 16.2732 7.21491C19.1187 7.90822 23.5871 11.6585 24.0317 19.025C24.4763 19.3138 24.3386 19.7812 26.0547 19.7812C27.7046 19.7812 26.5911 19.4583 27.0357 19.025C27.0357 12.5252 28.8999 8.25488 27.8329 7.21491Z" fill="url(#paint16_linear_21_7366)"/>
<g filter="url(#filter4_i_21_7366)">
<path d="M14.9396 2.01533C20.0842 1.78384 24.2974 4.78489 26.4992 5.95549C25.1654 5.89205 24.6666 7.34246 23.0303 8.51127C19.5256 11.0146 18.735 13.4485 18.0236 16.5219C17.3123 19.5952 16.757 19.7353 16.021 21.5285C15.1318 23.6951 15.8146 22.1184 14.2561 24.9189C11.7155 29.4842 7.95297 28.915 3.37993 28.915C3.88805 27.5103 5.41239 25.4032 5.41239 23.6473C5.41239 22.1994 5.02916 20.9548 4.49686 18.4816C3.83538 15.4083 4.56977 12.7673 5.15834 10.8552C6.49214 6.52203 8.71515 2.29541 14.9396 2.01533Z" fill="url(#paint17_linear_21_7366)"/>
</g>
<mask id="mask0_21_7366" style="mask-type:alpha" maskUnits="userSpaceOnUse" x="3" y="2" width="24" height="27">
<path d="M14.9396 2.01533C20.0842 1.78384 24.2974 4.78489 26.4992 5.95549C25.1654 5.89205 23.9849 5.95549 22.9424 7.68877C21.4344 10.196 22.5613 13.2993 22.0532 15.0552C21.5451 16.8111 20.3756 17.5951 19.6396 19.3884C18.7504 21.555 21.1981 21.9004 19.6396 24.7009C17.0991 29.2662 7.95298 28.915 3.37993 28.915C3.88805 27.5103 5.41239 25.4032 5.41239 23.6473C5.41239 22.1994 4.65022 20.5467 5.15834 18.0884C5.59544 15.9737 8.12658 14.3674 8.71515 12.4553C10.049 8.12208 8.71515 2.29541 14.9396 2.01533Z" fill="url(#paint18_linear_21_7366)"/>
</mask>
<g mask="url(#mask0_21_7366)">
<path opacity="0.75" d="M22.0536 3.74865C20.4234 3.45977 17.6559 4.25584 15.3846 5.91525C12.5166 8.01061 12.9051 11.284 12.0159 13.0172C11.1267 14.7505 10.9025 14.4226 10.0133 17.0225C9.12406 19.6225 10.0133 20.0264 9.5126 22.5297C9.2655 23.7652 6.78865 27.1477 5.15844 28.0143" stroke="#FFFF9E" stroke-miterlimit="10" stroke-linecap="round" stroke-linejoin="round"/>
</g>
<path d="M17.5128 21.0342C12.8976 16.8673 14.5602 13.5921 15.6737 12.5977C18.062 10.465 22.8737 12.3482 25.3744 13.5948C27.7878 14.798 31.9943 17.4934 34.6863 20.1159C36.153 21.5448 36.6655 23.1223 36.8967 24.194C37.0442 24.8774 36.8052 25.6029 36.3109 26.0973C35.8009 26.6075 35.3209 27.0974 34.8409 27.6768C34.1199 28.547 33.3529 28.8114 33.0595 28.8349C28.6712 28.5671 23.2819 26.2429 17.5128 21.0342Z" fill="black"/>
<g filter="url(#filter5_i_21_7366)">
<path d="M17.3553 19.5029C12.74 15.336 14.4026 12.0608 15.5161 11.0664C17.9045 8.93366 22.7161 10.8169 25.2168 12.0635C27.6303 13.2666 31.8368 15.9621 34.5287 18.5846C35.9954 20.0135 36.5079 21.591 36.7392 22.6627C36.8866 23.3461 36.6476 24.0715 36.1533 24.566C35.6433 25.0762 35.1634 25.5661 34.6834 26.1454C33.9624 27.0157 33.1953 27.2801 32.9019 27.3035C28.5136 27.0358 23.1243 24.7116 17.3553 19.5029Z" fill="white"/>
</g>
<g filter="url(#filter6_di_21_7366)">
<path d="M21.3735 19.974C18.081 17.7108 16.6281 14.7874 16.5624 13.5902C16.4411 11.3789 18.5461 10.6217 21.5436 11.7458C24.5411 12.8699 28.2871 14.9831 32.1749 18.2057C34.8521 20.4248 35.7775 22.3475 35.9732 23.3289C36.0238 23.5829 35.9127 23.8307 35.7294 24.0135L34.1741 25.5641C33.9883 25.7493 33.737 25.8565 33.4748 25.8482C28.9956 25.7081 25.3682 22.7197 21.3735 19.974Z" fill="#8AD4F6"/>
</g>
<path d="M30.1937 23.7411C30.527 23.7482 30.7924 23.9718 30.7868 24.2405C30.781 24.5089 30.5068 24.7206 30.1736 24.7139C29.8402 24.707 29.5742 24.4841 29.5794 24.2155C29.585 23.9468 29.8602 23.7343 30.1937 23.7411ZM32.6213 23.1712C32.9548 23.1781 33.221 23.4018 33.2154 23.6706C33.2099 23.9393 32.9347 24.1519 32.6012 24.145C32.2678 24.1379 32.0025 23.9143 32.008 23.6456C32.0136 23.377 32.2879 23.1645 32.6213 23.1712ZM31.4285 22.4385C31.762 22.4453 32.0281 22.6691 32.0226 22.9378C32.0171 23.2066 31.7419 23.4191 31.4084 23.4122C31.0749 23.4053 30.8087 23.1816 30.8143 22.9128C30.8199 22.6441 31.0951 22.4316 31.4285 22.4385ZM30.3453 21.7079C30.6787 21.7149 30.9449 21.9386 30.9394 22.2073C30.9338 22.476 30.6586 22.6885 30.3251 22.6817C29.9916 22.6748 29.7254 22.4511 29.731 22.1823C29.7366 21.9136 30.0118 21.701 30.3453 21.7079ZM32.6597 21.3137C32.993 21.3206 33.2591 21.5435 33.2538 21.8121C33.2483 22.0808 32.9731 22.2933 32.6396 22.2865C32.3063 22.2794 32.0409 22.0557 32.0464 21.7871C32.0523 21.5187 32.3265 21.307 32.6597 21.3137Z" fill="#6F6F6F"/>
<path d="M25.0713 15.6584L22.1026 18.4701C21.6347 18.9132 21.7011 19.6764 22.2384 20.0321L27.0687 23.2296C27.4624 23.4902 27.9847 23.4404 28.322 23.11L31.0928 20.3964C31.5385 19.96 31.4809 19.2267 30.9727 18.8651L26.3403 15.5695C25.9504 15.2921 25.4187 15.3294 25.0713 15.6584Z" fill="#266479"/>
<path d="M24.9149 16.2032L22.8568 18.1505C22.2407 18.7335 22.3536 19.7441 23.0833 20.1767C23.5808 20.4716 24.2143 20.3954 24.6277 19.9909L26.6529 18.0095C27.2088 17.4655 27.1403 16.5518 26.5093 16.0969C26.0212 15.745 25.3519 15.7896 24.9149 16.2032Z" fill="#88D58A"/>
<ellipse cx="26.575" cy="21.7494" rx="0.60402" ry="0.486714" transform="rotate(1.18402 26.575 21.7494)" fill="white"/>
<ellipse cx="27.9184" cy="20.5378" rx="0.60402" ry="0.486714" transform="rotate(1.18402 27.9184 20.5378)" fill="white"/>
<ellipse cx="29.375" cy="19.1517" rx="0.60402" ry="0.486714" transform="rotate(1.18402 29.375 19.1517)" fill="white"/>
<ellipse cx="1.51867" cy="1.44181" rx="1.51867" ry="1.44181" transform="matrix(0.836733 0.55003 -0.710951 0.705127 21.5224 13.6079)" fill="url(#paint19_radial_21_7366)"/>
<ellipse cx="1.51867" cy="1.44181" rx="1.51867" ry="1.44181" transform="matrix(0.836733 0.55003 -0.710951 0.705127 21.5224 13.6079)" fill="black" fill-opacity="0.6"/>
<g clip-path="url(#clip0_21_7366)">
<g filter="url(#filter7_ii_21_7366)">
<path d="M24.0244 27.0151C24.0244 16.3981 24.236 11.467 24.5514 9.01194H26.6594C26.9229 12.0125 27.1786 18.3204 27.1786 27.0151C27.1786 27.0151 26.9365 27.9384 25.6015 27.9384C24.2664 27.9384 24.0244 27.0151 24.0244 27.0151Z" fill="url(#paint20_linear_21_7366)"/>
<path d="M24.0244 27.0151C24.0244 16.3981 24.236 11.467 24.5514 9.01194H26.6594C26.9229 12.0125 27.1786 18.3204 27.1786 27.0151C27.1786 27.0151 26.9365 27.9384 25.6015 27.9384C24.2664 27.9384 24.0244 27.0151 24.0244 27.0151Z" fill="black" fill-opacity="0.2"/>
</g>
<g filter="url(#filter8_i_21_7366)">
<ellipse cx="20.3711" cy="8.0175" rx="1.31424" ry="0.657168" fill="url(#paint21_linear_21_7366)"/>
</g>
<path d="M11.2537 29.247C14.9347 29.0016 17.1713 28.5084 17.8295 28.2925L12.5945 23.6674L3.36986 28.8809C4.46401 29.1051 7.57257 29.4923 11.2537 29.247Z" fill="url(#paint22_linear_21_7366)"/>
<g filter="url(#filter9_i_21_7366)">
<path d="M14.9396 2.01533C20.0842 1.78384 24.2974 4.78489 26.4992 5.95549C25.1654 5.89205 24.6666 7.34246 23.0303 8.51127C19.5256 11.0146 18.735 13.4485 18.0236 16.5219C17.3123 19.5952 16.757 19.7353 16.021 21.5285C15.1318 23.6951 15.8146 22.1184 14.2561 24.9189C11.7155 29.4842 7.95297 28.915 3.37993 28.915C3.88805 27.5103 5.41239 25.4032 5.41239 23.6473C5.41239 22.1994 5.02916 20.9548 4.49686 18.4816C3.83538 15.4083 4.56977 12.7673 5.15834 10.8552C6.49214 6.52203 8.71515 2.29541 14.9396 2.01533Z" fill="url(#paint23_linear_21_7366)"/>
</g>
<mask id="mask1_21_7366" style="mask-type:alpha" maskUnits="userSpaceOnUse" x="3" y="2" width="24" height="27">
<path d="M14.9396 2.01533C20.0842 1.78384 24.2974 4.78489 26.4992 5.95549C25.1654 5.89205 23.9849 5.95549 22.9424 7.68877C21.4344 10.196 22.5613 13.2993 22.0532 15.0552C21.5451 16.8111 20.3756 17.5951 19.6396 19.3884C18.7504 21.555 21.1981 21.9004 19.6396 24.7009C17.0991 29.2662 7.95298 28.915 3.37993 28.915C3.88805 27.5103 5.41239 25.4032 5.41239 23.6473C5.41239 22.1994 4.65022 20.5467 5.15834 18.0884C5.59544 15.9737 8.12658 14.3674 8.71515 12.4553C10.049 8.12208 8.71515 2.29541 14.9396 2.01533Z" fill="url(#paint24_linear_21_7366)"/>
</mask>
<g mask="url(#mask1_21_7366)">
<path opacity="0.75" d="M22.0536 3.74865C20.4234 3.45977 17.6559 4.25584 15.3846 5.91525C12.5166 8.01061 11.1915 9.1932 10.0133 12.5166C8.835 15.84 10.0133 20.0264 9.5126 22.5297C9.2655 23.7652 6.78865 27.1477 5.15844 28.0143" stroke="#FFFF9E" stroke-miterlimit="10" stroke-linecap="round" stroke-linejoin="round"/>
</g>
<path d="M21.1886 15.9139L16.8063 11.8687L17.9956 9.97174L22.6813 14.2967C23.0704 14.6558 23.1485 15.2411 22.8673 15.6898C22.5013 16.2736 21.6949 16.3812 21.1886 15.9139Z" fill="url(#paint25_linear_21_7366)"/>
<g filter="url(#filter10_d_21_7366)">
<path d="M13.3339 6.65471L17.9777 10.5877L16.8061 11.8683L16.5236 11.9331C14.2961 12.4438 12.1704 10.7553 12.1638 8.46994C12.1628 8.12614 12.2911 7.79451 12.5232 7.54085L13.3339 6.65471Z" fill="url(#paint26_linear_21_7366)"/>
<path d="M13.3339 6.65471L17.9777 10.5877L16.8061 11.8683L16.5236 11.9331C14.2961 12.4438 12.1704 10.7553 12.1638 8.46994C12.1628 8.12614 12.2911 7.79451 12.5232 7.54085L13.3339 6.65471Z" fill="black" fill-opacity="0.6"/>
<ellipse cx="15.7136" cy="8.5532" rx="3.04275" ry="2.29934" transform="rotate(40.2627 15.7136 8.5532)" fill="url(#paint27_radial_21_7366)"/>
<ellipse cx="15.7136" cy="8.5532" rx="3.04275" ry="2.29934" transform="rotate(40.2627 15.7136 8.5532)" fill="black" fill-opacity="0.5"/>
</g>
</g>
<defs>
<filter id="filter0_i_21_7366" x="0.0466927" y="16.6871" width="41.9936" height="24.2372" filterUnits="userSpaceOnUse" color-interpolation-filters="sRGB">
<feFlood flood-opacity="0" result="BackgroundImageFix"/>
<feBlend mode="normal" in="SourceGraphic" in2="BackgroundImageFix" result="shape"/>
<feColorMatrix in="SourceAlpha" type="matrix" values="0 0 0 0 0 0 0 0 0 0 0 0 0 0 0 0 0 0 127 0" result="hardAlpha"/>
<feOffset dy="-1"/>
<feComposite in2="hardAlpha" operator="arithmetic" k2="-1" k3="1"/>
<feColorMatrix type="matrix" values="0 0 0 0 1 0 0 0 0 0.7 0 0 0 0 0.5375 0 0 0 0.75 0"/>
<feBlend mode="normal" in2="shape" result="effect1_innerShadow_21_7366"/>
</filter>
<filter id="filter1_i_21_7366" x="0.0154013" y="15.6535" width="41.9936" height="24.2416" filterUnits="userSpaceOnUse" color-interpolation-filters="sRGB">
<feFlood flood-opacity="0" result="BackgroundImageFix"/>
<feBlend mode="normal" in="SourceGraphic" in2="BackgroundImageFix" result="shape"/>
<feColorMatrix in="SourceAlpha" type="matrix" values="0 0 0 0 0 0 0 0 0 0 0 0 0 0 0 0 0 0 127 0" result="hardAlpha"/>
<feOffset dy="-1"/>
<feComposite in2="hardAlpha" operator="arithmetic" k2="-1" k3="1"/>
<feColorMatrix type="matrix" values="0 0 0 0 1 0 0 0 0 0.7 0 0 0 0 0.5375 0 0 0 0.75 0"/>
<feBlend mode="normal" in2="shape" result="effect1_innerShadow_21_7366"/>
</filter>
<filter id="filter2_ii_21_7366" x="24.0244" y="9.01194" width="5.15686" height="19.1768" filterUnits="userSpaceOnUse" color-interpolation-filters="sRGB">
<feFlood flood-opacity="0" result="BackgroundImageFix"/>
<feBlend mode="normal" in="SourceGraphic" in2="BackgroundImageFix" result="shape"/>
<feColorMatrix in="SourceAlpha" type="matrix" values="0 0 0 0 0 0 0 0 0 0 0 0 0 0 0 0 0 0 127 0" result="hardAlpha"/>
<feOffset dy="0.5"/>
<feGaussianBlur stdDeviation="0.125"/>
<feComposite in2="hardAlpha" operator="arithmetic" k2="-1" k3="1"/>
<feColorMatrix type="matrix" values="0 0 0 0 0.718185 0 0 0 0 1 0 0 0 0 0.695833 0 0 0 0.75 0"/>
<feBlend mode="normal" in2="shape" result="effect1_innerShadow_21_7366"/>
<feColorMatrix in="SourceAlpha" type="matrix" values="0 0 0 0 0 0 0 0 0 0 0 0 0 0 0 0 0 0 127 0" result="hardAlpha"/>
<feOffset dx="2"/>
<feGaussianBlur stdDeviation="2.5"/>
<feComposite in2="hardAlpha" operator="arithmetic" k2="-1" k3="1"/>
<feColorMatrix type="matrix" values="0 0 0 0 0.00740157 0 0 0 0 0.0958333 0 0 0 0 0 0 0 0 0.5 0"/>
<feBlend mode="normal" in2="effect1_innerShadow_21_7366" result="effect2_innerShadow_21_7366"/>
</filter>
<filter id="filter3_i_21_7366" x="19.0569" y="7.36034" width="2.62848" height="1.31424" filterUnits="userSpaceOnUse" color-interpolation-filters="sRGB">
<feFlood flood-opacity="0" result="BackgroundImageFix"/>
<feBlend mode="normal" in="SourceGraphic" in2="BackgroundImageFix" result="shape"/>
<feColorMatrix in="SourceAlpha" type="matrix" values="0 0 0 0 0 0 0 0 0 0 0 0 0 0 0 0 0 0 127 0" result="hardAlpha"/>
<feOffset/>
<feGaussianBlur stdDeviation="0.5"/>
<feComposite in2="hardAlpha" operator="arithmetic" k2="-1" k3="1"/>
<feColorMatrix type="matrix" values="0 0 0 0 0.718185 0 0 0 0 1 0 0 0 0 0.695833 0 0 0 0.75 0"/>
<feBlend mode="normal" in2="shape" result="effect1_innerShadow_21_7366"/>
</filter>
<filter id="filter4_i_21_7366" x="3.37997" y="1.50199" width="23.1192" height="27.4358" filterUnits="userSpaceOnUse" color-interpolation-filters="sRGB">
<feFlood flood-opacity="0" result="BackgroundImageFix"/>
<feBlend mode="normal" in="SourceGraphic" in2="BackgroundImageFix" result="shape"/>
<feColorMatrix in="SourceAlpha" type="matrix" values="0 0 0 0 0 0 0 0 0 0 0 0 0 0 0 0 0 0 127 0" result="hardAlpha"/>
<feOffset dy="-0.5"/>
<feGaussianBlur stdDeviation="0.5"/>
<feComposite in2="hardAlpha" operator="arithmetic" k2="-1" k3="1"/>
<feColorMatrix type="matrix" values="0 0 0 0 0.0211268 0 0 0 0 0.2875 0 0 0 0 0 0 0 0 0.9 0"/>
<feBlend mode="normal" in2="shape" result="effect1_innerShadow_21_7366"/>
</filter>
<filter id="filter5_i_21_7366" x="14.2869" y="4.09185" width="22.4955" height="23.2119" filterUnits="userSpaceOnUse" color-interpolation-filters="sRGB">
<feFlood flood-opacity="0" result="BackgroundImageFix"/>
<feBlend mode="normal" in="SourceGraphic" in2="BackgroundImageFix" result="shape"/>
<feColorMatrix in="SourceAlpha" type="matrix" values="0 0 0 0 0 0 0 0 0 0 0 0 0 0 0 0 0 0 127 0" result="hardAlpha"/>
<feOffset dy="-6"/>
<feGaussianBlur stdDeviation="6.5"/>
<feComposite in2="hardAlpha" operator="arithmetic" k2="-1" k3="1"/>
<feColorMatrix type="matrix" values="0 0 0 0 0 0 0 0 0 0 0 0 0 0 0 0 0 0 0.95 0"/>
<feBlend mode="normal" in2="shape" result="effect1_innerShadow_21_7366"/>
</filter>
<filter id="filter6_di_21_7366" x="5.54286" y="4.22092" width="41.4571" height="36.6477" filterUnits="userSpaceOnUse" color-interpolation-filters="sRGB">
<feFlood flood-opacity="0" result="BackgroundImageFix"/>
<feColorMatrix in="SourceAlpha" type="matrix" values="0 0 0 0 0 0 0 0 0 0 0 0 0 0 0 0 0 0 127 0" result="hardAlpha"/>
<feOffset dy="4"/>
<feGaussianBlur stdDeviation="5.5"/>
<feComposite in2="hardAlpha" operator="out"/>
<feColorMatrix type="matrix" values="0 0 0 0 1 0 0 0 0 1 0 0 0 0 1 0 0 0 0.55 0"/>
<feBlend mode="normal" in2="BackgroundImageFix" result="effect1_dropShadow_21_7366"/>
<feBlend mode="normal" in="SourceGraphic" in2="effect1_dropShadow_21_7366" result="shape"/>
<feColorMatrix in="SourceAlpha" type="matrix" values="0 0 0 0 0 0 0 0 0 0 0 0 0 0 0 0 0 0 127 0" result="hardAlpha"/>
<feOffset dy="1"/>
<feComposite in2="hardAlpha" operator="arithmetic" k2="-1" k3="1"/>
<feColorMatrix type="matrix" values="0 0 0 0 1 0 0 0 0 1 0 0 0 0 1 0 0 0 0.65 0"/>
<feBlend mode="normal" in2="shape" result="effect2_innerShadow_21_7366"/>
</filter>
<filter id="filter7_ii_21_7366" x="24.0244" y="9.01194" width="5.15686" height="19.1768" filterUnits="userSpaceOnUse" color-interpolation-filters="sRGB">
<feFlood flood-opacity="0" result="BackgroundImageFix"/>
<feBlend mode="normal" in="SourceGraphic" in2="BackgroundImageFix" result="shape"/>
<feColorMatrix in="SourceAlpha" type="matrix" values="0 0 0 0 0 0 0 0 0 0 0 0 0 0 0 0 0 0 127 0" result="hardAlpha"/>
<feOffset dy="0.5"/>
<feGaussianBlur stdDeviation="0.125"/>
<feComposite in2="hardAlpha" operator="arithmetic" k2="-1" k3="1"/>
<feColorMatrix type="matrix" values="0 0 0 0 0.718185 0 0 0 0 1 0 0 0 0 0.695833 0 0 0 0.75 0"/>
<feBlend mode="normal" in2="shape" result="effect1_innerShadow_21_7366"/>
<feColorMatrix in="SourceAlpha" type="matrix" values="0 0 0 0 0 0 0 0 0 0 0 0 0 0 0 0 0 0 127 0" result="hardAlpha"/>
<feOffset dx="2"/>
<feGaussianBlur stdDeviation="2.5"/>
<feComposite in2="hardAlpha" operator="arithmetic" k2="-1" k3="1"/>
<feColorMatrix type="matrix" values="0 0 0 0 0.00740157 0 0 0 0 0.0958333 0 0 0 0 0 0 0 0 0.5 0"/>
<feBlend mode="normal" in2="effect1_innerShadow_21_7366" result="effect2_innerShadow_21_7366"/>
</filter>
<filter id="filter8_i_21_7366" x="19.0569" y="7.36034" width="2.62848" height="1.31424" filterUnits="userSpaceOnUse" color-interpolation-filters="sRGB">
<feFlood flood-opacity="0" result="BackgroundImageFix"/>
<feBlend mode="normal" in="SourceGraphic" in2="BackgroundImageFix" result="shape"/>
<feColorMatrix in="SourceAlpha" type="matrix" values="0 0 0 0 0 0 0 0 0 0 0 0 0 0 0 0 0 0 127 0" result="hardAlpha"/>
<feOffset/>
<feGaussianBlur stdDeviation="0.5"/>
<feComposite in2="hardAlpha" operator="arithmetic" k2="-1" k3="1"/>
<feColorMatrix type="matrix" values="0 0 0 0 0.718185 0 0 0 0 1 0 0 0 0 0.695833 0 0 0 0.75 0"/>
<feBlend mode="normal" in2="shape" result="effect1_innerShadow_21_7366"/>
</filter>
<filter id="filter9_i_21_7366" x="3.37997" y="1.50199" width="23.1192" height="27.4358" filterUnits="userSpaceOnUse" color-interpolation-filters="sRGB">
<feFlood flood-opacity="0" result="BackgroundImageFix"/>
<feBlend mode="normal" in="SourceGraphic" in2="BackgroundImageFix" result="shape"/>
<feColorMatrix in="SourceAlpha" type="matrix" values="0 0 0 0 0 0 0 0 0 0 0 0 0 0 0 0 0 0 127 0" result="hardAlpha"/>
<feOffset dy="-0.5"/>
<feGaussianBlur stdDeviation="0.5"/>
<feComposite in2="hardAlpha" operator="arithmetic" k2="-1" k3="1"/>
<feColorMatrix type="matrix" values="0 0 0 0 0.0211268 0 0 0 0 0.2875 0 0 0 0 0 0 0 0 0.9 0"/>
<feBlend mode="normal" in2="shape" result="effect1_innerShadow_21_7366"/>
</filter>
<filter id="filter10_d_21_7366" x="10.1612" y="4.91618" width="10.3121" height="10.1125" filterUnits="userSpaceOnUse" color-interpolation-filters="sRGB">
<feFlood flood-opacity="0" result="BackgroundImageFix"/>
<feColorMatrix in="SourceAlpha" type="matrix" values="0 0 0 0 0 0 0 0 0 0 0 0 0 0 0 0 0 0 127 0" result="hardAlpha"/>
<feOffset dy="1"/>
<feGaussianBlur stdDeviation="1"/>
<feComposite in2="hardAlpha" operator="out"/>
<feColorMatrix type="matrix" values="0 0 0 0 0 0 0 0 0 0 0 0 0 0 0 0 0 0 0.45 0"/>
<feBlend mode="normal" in2="BackgroundImageFix" result="effect1_dropShadow_21_7366"/>
<feBlend mode="normal" in="SourceGraphic" in2="effect1_dropShadow_21_7366" result="shape"/>
</filter>
<linearGradient id="paint0_linear_21_7366" x1="0.0312914" y1="30.042" x2="42.087" y2="30.042" gradientUnits="userSpaceOnUse">
<stop stop-color="#7B4F39"/>
<stop offset="0.0001" stop-color="#5F312D"/>
<stop offset="1" stop-color="#9B6B51"/>
</linearGradient>
<linearGradient id="paint1_linear_21_7366" x1="0.0466928" y1="17.0105" x2="0.420172" y2="41.2592" gradientUnits="userSpaceOnUse">
<stop stop-color="#AFFFA1"/>
<stop offset="1" stop-color="#00B37C"/>
</linearGradient>
<linearGradient id="paint2_linear_21_7366" x1="17.5607" y1="35.5701" x2="25.4615" y2="35.5701" gradientUnits="userSpaceOnUse">
<stop offset="0.00558659" stop-color="#A65953"/>
<stop offset="1" stop-color="#D09270"/>
</linearGradient>
<linearGradient id="paint3_linear_21_7366" x1="21.4588" y1="36.5845" x2="17.4423" y2="32.6872" gradientUnits="userSpaceOnUse">
<stop/>
<stop offset="0.0001" stop-opacity="0.984375"/>
<stop offset="1" stop-opacity="0"/>
<stop offset="1" stop-opacity="0"/>
</linearGradient>
<linearGradient id="paint4_linear_21_7366" x1="21.4588" y1="36.5845" x2="17.4423" y2="32.6872" gradientUnits="userSpaceOnUse">
<stop/>
<stop offset="0.0001" stop-opacity="0.984375"/>
<stop offset="1" stop-opacity="0"/>
<stop offset="1" stop-opacity="0"/>
</linearGradient>
<linearGradient id="paint5_linear_21_7366" x1="21.4588" y1="36.5845" x2="17.4423" y2="32.6872" gradientUnits="userSpaceOnUse">
<stop/>
<stop offset="0.0001" stop-opacity="0.984375"/>
<stop offset="1" stop-opacity="0"/>
<stop offset="1" stop-opacity="0"/>
</linearGradient>
<linearGradient id="paint6_linear_21_7366" x1="21.4588" y1="36.5845" x2="17.4423" y2="32.6872" gradientUnits="userSpaceOnUse">
<stop/>
<stop offset="0.0001" stop-opacity="0.984375"/>
<stop offset="1" stop-opacity="0"/>
<stop offset="1" stop-opacity="0"/>
</linearGradient>
<linearGradient id="paint7_linear_21_7366" x1="21.9291" y1="37.8236" x2="20.5575" y2="31.359" gradientUnits="userSpaceOnUse">
<stop stop-color="#061006"/>
<stop offset="1" stop-color="#25863A"/>
</linearGradient>
<linearGradient id="paint8_linear_21_7366" x1="21.2478" y1="35.272" x2="21.0422" y2="33.0371" gradientUnits="userSpaceOnUse">
<stop stop-color="#25863A"/>
<stop offset="1" stop-color="#AED166"/>
</linearGradient>
<linearGradient id="paint9_linear_21_7366" x1="21.9974" y1="35.3631" x2="22.2264" y2="33.7044" gradientUnits="userSpaceOnUse">
<stop stop-color="#25863A"/>
<stop offset="1" stop-color="#AED166"/>
</linearGradient>
<linearGradient id="paint10_linear_21_7366" x1="0" y1="29.011" x2="42.0557" y2="29.011" gradientUnits="userSpaceOnUse">
<stop stop-color="#7B4F39"/>
<stop offset="0.0001" stop-color="#5F312D"/>
<stop offset="1" stop-color="#9B6B51"/>
</linearGradient>
<linearGradient id="paint11_linear_21_7366" x1="31.0723" y1="29.571" x2="3.1439" y2="16.1007" gradientUnits="userSpaceOnUse">
<stop stop-color="#0F0F0F"/>
<stop offset="0.0001" stop-opacity="0.984375"/>
<stop offset="1" stop-opacity="0"/>
<stop offset="1" stop-opacity="0"/>
</linearGradient>
<linearGradient id="paint12_linear_21_7366" x1="36.1969" y1="31.1842" x2="-2.24354" y2="10.9328" gradientUnits="userSpaceOnUse">
<stop stop-color="#0F0F0F"/>
<stop offset="0.0001" stop-opacity="0.984375"/>
<stop offset="1" stop-opacity="0"/>
<stop offset="1" stop-opacity="0"/>
</linearGradient>
<linearGradient id="paint13_linear_21_7366" x1="28.9134" y1="3.01087" x2="26.5555" y2="26.5481" gradientUnits="userSpaceOnUse">
<stop stop-color="#85BB59"/>
<stop offset="1" stop-color="#016B00"/>
</linearGradient>
<linearGradient id="paint14_linear_21_7366" x1="23.1461" y1="6.05576" x2="23.1248" y2="8.60411" gradientUnits="userSpaceOnUse">
<stop stop-color="#016B00"/>
<stop offset="1" stop-color="#85BB59"/>
</linearGradient>
<linearGradient id="paint15_linear_21_7366" x1="3.76902" y1="31.1829" x2="14.0129" y2="21.4738" gradientUnits="userSpaceOnUse">
<stop stop-color="#C4C4C4"/>
<stop offset="0.0001" stop-opacity="0.984375"/>
<stop offset="1" stop-opacity="0"/>
<stop offset="1" stop-opacity="0"/>
</linearGradient>
<linearGradient id="paint16_linear_21_7366" x1="17.6073" y1="22.8144" x2="18.4404" y2="7.99079" gradientUnits="userSpaceOnUse">
<stop stop-color="#25863A"/>
<stop offset="1" stop-color="#416541"/>
</linearGradient>
<linearGradient id="paint17_linear_21_7366" x1="17.6479" y1="30.7136" x2="21.8881" y2="5.74724" gradientUnits="userSpaceOnUse">
<stop stop-color="#98C55F"/>
<stop offset="0.177848" stop-color="#489744"/>
<stop offset="0.464332" stop-color="#AED166"/>
<stop offset="0.697907" stop-color="#7AB354"/>
<stop offset="0.857818" stop-color="#AED166"/>
</linearGradient>
<linearGradient id="paint18_linear_21_7366" x1="17.6479" y1="30.7136" x2="21.8881" y2="5.74724" gradientUnits="userSpaceOnUse">
<stop stop-color="#98C55F"/>
<stop offset="0.177848" stop-color="#489744"/>
<stop offset="0.464332" stop-color="#AED166"/>
<stop offset="0.697907" stop-color="#7AB354"/>
<stop offset="0.857818" stop-color="#AED166"/>
</linearGradient>
<radialGradient id="paint19_radial_21_7366" cx="0" cy="0" r="1" gradientUnits="userSpaceOnUse" gradientTransform="translate(1.51867 1.44181) rotate(180) scale(1.51867 1.46793)">
<stop stop-color="white"/>
<stop offset="0.225962" stop-color="#A2A2A2"/>
<stop offset="0.403846" stop-color="#B8B8B8"/>
<stop offset="0.5" stop-color="#FDFDFD"/>
<stop offset="0.625" stop-color="#B8B8B8"/>
<stop offset="0.697115" stop-color="#E3E3E3"/>
<stop offset="0.778846" stop-color="#737373"/>
<stop offset="1" stop-color="#CDCDCD"/>
</radialGradient>
<linearGradient id="paint20_linear_21_7366" x1="28.9134" y1="3.01087" x2="26.5555" y2="26.5481" gradientUnits="userSpaceOnUse">
<stop stop-color="#85BB59"/>
<stop offset="1" stop-color="#016B00"/>
</linearGradient>
<linearGradient id="paint21_linear_21_7366" x1="23.1461" y1="6.05576" x2="23.1248" y2="8.60411" gradientUnits="userSpaceOnUse">
<stop stop-color="#016B00"/>
<stop offset="1" stop-color="#85BB59"/>
</linearGradient>
<linearGradient id="paint22_linear_21_7366" x1="3.68748" y1="31.1825" x2="13.5807" y2="23.6727" gradientUnits="userSpaceOnUse">
<stop stop-color="#C4C4C4"/>
<stop offset="0.0001" stop-opacity="0.984375"/>
<stop offset="1" stop-opacity="0"/>
<stop offset="1" stop-opacity="0"/>
</linearGradient>
<linearGradient id="paint23_linear_21_7366" x1="12.0157" y1="30.5405" x2="21.6316" y2="4.48315" gradientUnits="userSpaceOnUse">
<stop stop-color="#98C55F"/>
<stop offset="0.177848" stop-color="#489744"/>
<stop offset="0.464332" stop-color="#C0D790"/>
<stop offset="0.697907" stop-color="#DFF9CE"/>
<stop offset="0.857818" stop-color="#AED166"/>
</linearGradient>
<linearGradient id="paint24_linear_21_7366" x1="17.6479" y1="30.7136" x2="21.8881" y2="5.74724" gradientUnits="userSpaceOnUse">
<stop stop-color="#98C55F"/>
<stop offset="0.177848" stop-color="#489744"/>
<stop offset="0.464332" stop-color="#AED166"/>
<stop offset="0.697907" stop-color="#7AB354"/>
<stop offset="0.857818" stop-color="#AED166"/>
</linearGradient>
<linearGradient id="paint25_linear_21_7366" x1="20.7478" y1="10.6402" x2="18.5549" y2="13.3889" gradientUnits="userSpaceOnUse">
<stop stop-color="#444444"/>
<stop offset="0.471154" stop-color="#AAAAAA"/>
<stop offset="0.584293" stop-color="#614848"/>
<stop offset="0.722086" stop-color="#B7B7B7"/>
<stop offset="1" stop-color="#5B5B5B"/>
</linearGradient>
<linearGradient id="paint26_linear_21_7366" x1="16.7828" y1="11.999" x2="12.1391" y2="8.066" gradientUnits="userSpaceOnUse">
<stop stop-color="white"/>
<stop offset="0.225962" stop-color="#A2A2A2"/>
<stop offset="0.403846" stop-color="#B8B8B8"/>
<stop offset="0.5" stop-color="#FDFDFD"/>
<stop offset="0.625" stop-color="#B8B8B8"/>
<stop offset="0.697115" stop-color="#E3E3E3"/>
<stop offset="0.778846" stop-color="#737373"/>
<stop offset="1" stop-color="#CDCDCD"/>
</linearGradient>
<radialGradient id="paint27_radial_21_7366" cx="0" cy="0" r="1" gradientUnits="userSpaceOnUse" gradientTransform="translate(15.7304 8.56149) rotate(180) scale(3.04275 2.34099)">
<stop stop-color="white"/>
<stop offset="0.225962" stop-color="#A2A2A2"/>
<stop offset="0.403846" stop-color="#B8B8B8"/>
<stop offset="0.5" stop-color="#FDFDFD"/>
<stop offset="0.625" stop-color="#B8B8B8"/>
<stop offset="0.697115" stop-color="#E3E3E3"/>
<stop offset="0.778846" stop-color="#737373"/>
<stop offset="1" stop-color="#CDCDCD"/>
</radialGradient>
<clipPath id="clip0_21_7366">
<rect width="21" height="27" fill="white" transform="translate(3.00398 2.00265) scale(1.00133)"/>
</clipPath>
</defs>
</svg>
