<svg width="48" height="48" viewBox="0 0 48 48" fill="none" xmlns="http://www.w3.org/2000/svg">
<path opacity="0.354781" d="M46.7132 31.9608C47.4809 32.3995 48.139 28.6705 47.9744 33.6059C47.9744 34.264 47.5906 34.9221 46.768 35.4156L27.0809 46.8221C25.4357 47.7543 22.7486 47.7543 21.1035 46.8221L1.30671 35.4156C0.484129 34.9221 0.100256 34.3188 0.0454174 33.6608C-0.173937 28.2866 0.429287 32.3995 1.25187 31.9059L20.939 20.4995C22.5841 19.5672 25.2712 19.5672 26.9164 20.4995L46.7132 31.9608Z" fill="url(#paint0_linear_21_7244)" fill-opacity="0.7"/>
<g opacity="0.615047" filter="url(#filter0_i_21_7244)">
<path fill-rule="evenodd" clip-rule="evenodd" d="M46.4009 28.6831C48.5233 29.9085 48.5344 31.8953 46.4259 33.1205L27.9041 43.8841C25.7957 45.1097 22.3656 45.1097 20.2432 43.8841L1.59918 33.1201C-0.523205 31.8947 -0.534501 29.9079 1.57417 28.6825L20.0957 17.9191C22.2044 16.6937 25.6343 16.6937 27.7567 17.9189L46.4009 28.6831Z" fill="url(#paint1_linear_21_7244)" fill-opacity="0.3"/>
<path fill-rule="evenodd" clip-rule="evenodd" d="M46.4009 28.6831C48.5233 29.9085 48.5344 31.8953 46.4259 33.1205L27.9041 43.8841C25.7957 45.1097 22.3656 45.1097 20.2432 43.8841L1.59918 33.1201C-0.523205 31.8947 -0.534501 29.9079 1.57417 28.6825L20.0957 17.9191C22.2044 16.6937 25.6343 16.6937 27.7567 17.9189L46.4009 28.6831Z" fill="url(#paint2_linear_21_7244)" fill-opacity="0.3"/>
</g>
<path fill-rule="evenodd" clip-rule="evenodd" d="M32.193 12.5726C32.7112 12.4249 33.2933 12.4439 33.7644 12.7223L33.7637 12.7219C33.764 12.7221 33.7642 12.7222 33.7644 12.7223L30.2968 10.7072C30.2272 10.6686 30.1566 10.6312 30.0823 10.6019C29.559 10.3826 28.9605 10.4499 28.4415 10.651L31.9091 12.6661C32.0032 12.6298 32.097 12.5999 32.193 12.5726Z" fill="url(#paint3_linear_21_7244)"/>
<path fill-rule="evenodd" clip-rule="evenodd" d="M27.4228 11.3945C28.2794 10.522 29.6742 9.5794 30.9058 10.224C30.7527 10.1538 27.1489 7.98759 27.0827 8.05943C25.7817 7.74435 24.5084 8.74104 23.6945 9.66186L27.1621 11.677C27.2478 11.5813 27.3322 11.4849 27.4228 11.3945Z" fill="url(#paint4_linear_21_7244)"/>
<path fill-rule="evenodd" clip-rule="evenodd" d="M14.4767 25.8886C14.6256 23.429 15.8909 21.0638 17.665 19.3838H17.6649H17.665L14.1974 17.3687C12.1148 19.2576 10.1816 23.2143 11.3562 25.9567C11.5722 26.4177 11.8821 26.7894 12.3112 27.0408L15.7788 29.0559C14.9107 28.5989 14.3827 27.2862 14.4767 25.8886Z" fill="url(#paint5_linear_21_7244)"/>
<path opacity="0.3" d="M33.0333 12.4897C34.178 12.6012 34.9088 13.6973 34.9131 15.2349C34.9199 17.6207 33.2225 20.5154 30.6876 21.979L18.9717 28.7427C16.7736 30.0117 14.9411 29.2511 14.5489 27.0767C14.9405 26.9687 15.3514 26.7967 15.7745 26.5552L28.4698 19.3071C31.0718 17.8216 32.8581 14.9604 33.0333 12.4897Z" fill="#172534"/>
<path opacity="0.8" fill-rule="evenodd" clip-rule="evenodd" d="M27.1622 11.6768C28.7438 9.73622 31.8746 8.86765 31.909 12.6659C33.6786 11.9862 34.9073 13.24 34.9129 15.2354C34.9197 17.6212 33.222 20.5155 30.687 21.9791L18.9715 28.743C16.493 30.1739 14.478 29.0248 14.47 26.1777C14.4633 23.8409 15.8122 21.0874 17.665 19.3835C17.8606 16.4599 19.8876 12.7213 22.6663 11.117C24.7973 9.88668 26.4096 10.3903 27.1622 11.6768Z" fill="url(#paint6_linear_21_7244)"/>
<path fill-rule="evenodd" clip-rule="evenodd" d="M17.7172 18.8728C18.1341 16.0521 19.7786 13.1618 22.0996 11.4818C23.2651 10.6585 24.8945 9.98104 26.2473 10.7476C26.1899 10.7236 22.3692 8.46717 22.4611 8.57866C21.9213 8.36159 21.3191 8.35667 20.7547 8.47622C17.1965 9.33967 14.4528 13.8791 14.1974 17.3685V17.3686L17.665 19.3837C17.6762 19.2139 17.6951 19.0424 17.7172 18.8728Z" fill="url(#paint7_linear_21_7244)"/>
<path d="M21.8445 29.3584C21.9025 29.2266 22.0676 29.1622 22.2126 29.2148C22.3415 29.2617 22.4121 29.3855 22.3855 29.5049L22.3708 29.5498L20.1072 34.6943C20.0492 34.8262 19.8841 34.8906 19.739 34.8379C19.6101 34.791 19.5394 34.6673 19.5662 34.5479L19.5808 34.5029L21.8445 29.3584ZM21.9529 22.4189C22.0496 22.1771 22.3243 22.0595 22.5662 22.1562C22.7809 22.2423 22.8979 22.4685 22.8533 22.6875L22.8289 22.7686L19.0554 32.2012C18.9587 32.443 18.684 32.5616 18.4421 32.4648C18.2273 32.3788 18.1104 32.1517 18.155 31.9326L18.1794 31.8516L21.9529 22.4189ZM26.6707 28.4121C26.7465 28.2898 26.9184 28.2489 27.0544 28.3213C27.1755 28.3857 27.2274 28.5182 27.1843 28.6328L27.1638 28.6748L26.5994 29.9805C26.5236 30.103 26.3518 30.1437 26.2156 30.0713C26.0947 30.0069 26.0427 29.8753 26.0857 29.7607L26.1062 29.7188L26.6707 28.4121ZM27.6121 18.6455C27.7088 18.4037 27.9835 18.2862 28.2253 18.3828C28.4402 18.4688 28.5569 18.695 28.5125 18.9141L28.488 18.9961L24.7156 28.4287C24.6189 28.6705 24.3441 28.788 24.1023 28.6914C23.8874 28.6055 23.7707 28.3792 23.8152 28.1602L23.8396 28.0781L27.6121 18.6455ZM30.1521 19.9795C30.2295 19.8038 30.449 19.7189 30.6423 19.7891C30.8143 19.8516 30.9085 20.0164 30.8728 20.1758L30.8533 20.2344L27.8347 27.0947C27.7573 27.2705 27.5379 27.3555 27.3445 27.2852C27.1726 27.2227 27.0795 27.0587 27.115 26.8994L27.1345 26.8398L30.1521 19.9795ZM32.2205 20.8691C32.2785 20.7372 32.4435 20.6728 32.5886 20.7256C32.7176 20.7725 32.7873 20.8961 32.7605 21.0156L32.7458 21.0596L30.4822 26.2051C30.4241 26.3367 30.2599 26.4012 30.115 26.3486C29.9861 26.3018 29.9155 26.178 29.9421 26.0586L29.9568 26.0137L32.2205 20.8691ZM20.0671 21.8096C20.1428 21.6871 20.3148 21.6466 20.4509 21.7188C20.572 21.7831 20.6249 21.9156 20.5818 22.0303L20.5603 22.0723L19.9968 23.3779C19.9211 23.5004 19.7492 23.5411 19.613 23.4688C19.4921 23.4044 19.4402 23.2728 19.4832 23.1582L19.5037 23.1162L20.0671 21.8096ZM26.5613 15.21C26.6193 15.078 26.7843 15.0136 26.9294 15.0664C27.0582 15.1134 27.1281 15.2371 27.1013 15.3564L27.0867 15.4004L24.823 20.5459C24.7648 20.6776 24.5998 20.7412 24.4548 20.6885C24.3261 20.6415 24.2562 20.5178 24.283 20.3984L24.2976 20.3545L26.5613 15.21ZM30.4431 16.1504C30.5189 16.0279 30.6907 15.9872 30.8269 16.0596C30.9479 16.1239 31.0007 16.2556 30.9578 16.3701L30.9363 16.4121L30.3728 17.7188C30.297 17.841 30.1251 17.8817 29.989 17.8096C29.8679 17.7452 29.816 17.6127 29.8591 17.498L29.8796 17.4561L30.4431 16.1504Z" fill="white"/>
<defs>
<filter id="filter0_i_21_7244" x="0" y="17" width="48" height="27.8032" filterUnits="userSpaceOnUse" color-interpolation-filters="sRGB">
<feFlood flood-opacity="0" result="BackgroundImageFix"/>
<feBlend mode="normal" in="SourceGraphic" in2="BackgroundImageFix" result="shape"/>
<feColorMatrix in="SourceAlpha" type="matrix" values="0 0 0 0 0 0 0 0 0 0 0 0 0 0 0 0 0 0 127 0" result="hardAlpha"/>
<feOffset dy="-1"/>
<feComposite in2="hardAlpha" operator="arithmetic" k2="-1" k3="1"/>
<feColorMatrix type="matrix" values="0 0 0 0 1 0 0 0 0 1 0 0 0 0 1 0 0 0 0.6 0"/>
<feBlend mode="normal" in2="shape" result="effect1_innerShadow_21_7244"/>
</filter>
<linearGradient id="paint0_linear_21_7244" x1="24.8801" y1="7.62833" x2="4.7241" y2="45.9132" gradientUnits="userSpaceOnUse">
<stop stop-color="white"/>
<stop offset="1" stop-color="#00D0F2"/>
</linearGradient>
<linearGradient id="paint1_linear_21_7244" x1="24.8801" y1="4.79188" x2="4.63041" y2="43.141" gradientUnits="userSpaceOnUse">
<stop stop-color="white"/>
<stop offset="1" stop-color="#2EE2FF"/>
</linearGradient>
<linearGradient id="paint2_linear_21_7244" x1="21.7589" y1="53.9002" x2="46.8255" y2="16.2187" gradientUnits="userSpaceOnUse">
<stop stop-color="#EFFFFA" stop-opacity="0.01"/>
<stop offset="0.279879" stop-color="#E3FBF8" stop-opacity="0.744453"/>
<stop offset="0.281674" stop-color="#E1FAF7" stop-opacity="0.01"/>
<stop offset="1" stop-color="#BEEFF1" stop-opacity="0.01"/>
</linearGradient>
<linearGradient id="paint3_linear_21_7244" x1="34.137" y1="10.6518" x2="28.4415" y2="10.6518" gradientUnits="userSpaceOnUse">
<stop stop-color="#4E75A0"/>
<stop offset="1" stop-color="#1F2966"/>
</linearGradient>
<linearGradient id="paint4_linear_21_7244" x1="31.4107" y1="8.30307" x2="23.6945" y2="8.30307" gradientUnits="userSpaceOnUse">
<stop stop-color="#4E75A0"/>
<stop offset="1" stop-color="#1F2966"/>
</linearGradient>
<linearGradient id="paint5_linear_21_7244" x1="18.1316" y1="18.332" x2="11" y2="18.332" gradientUnits="userSpaceOnUse">
<stop stop-color="#4E75A0"/>
<stop offset="1" stop-color="#1F2966"/>
</linearGradient>
<linearGradient id="paint6_linear_21_7244" x1="25.0663" y1="1.5273" x2="8.19521" y2="21.0903" gradientUnits="userSpaceOnUse">
<stop stop-color="#75B4F3"/>
<stop offset="1" stop-color="#ACEDFF"/>
</linearGradient>
<linearGradient id="paint7_linear_21_7244" x1="27.0909" y1="9.30345" x2="14.1974" y2="9.30345" gradientUnits="userSpaceOnUse">
<stop stop-color="#4E75A0"/>
<stop offset="1" stop-color="#1F2966"/>
</linearGradient>
</defs>
</svg>
