<svg width="49" height="48" viewBox="0 0 49 48" fill="none" xmlns="http://www.w3.org/2000/svg">
<path d="M46.7164 32.4387C47.4842 32.8774 48.1423 29.1481 47.9778 34.0839C47.9778 34.7421 47.5939 35.4002 46.7712 35.8937L27.0828 47.301C25.4375 48.2333 22.7502 48.2333 21.1049 47.301L1.3068 35.8937C0.484162 35.4002 0.100263 34.7969 0.0454205 34.1388C-0.173949 28.7642 0.429316 32.8774 1.25195 32.3838L20.9404 20.9766C22.5857 20.0443 25.273 20.0443 26.9182 20.9766L46.7164 32.4387Z" fill="url(#paint0_linear_21_2049)"/>
<g filter="url(#filter0_i_21_2049)">
<path d="M46.716 29.9727C48.3612 30.905 48.3612 32.4954 46.716 33.4278L27.0275 44.835C25.3822 45.7673 22.695 45.7673 21.0497 44.835L1.25153 33.4278C-0.393741 32.4954 -0.393741 30.905 1.25153 29.9727L20.94 18.5655C22.5853 17.6331 25.2725 17.6331 26.9178 18.5655L46.716 29.9727Z" fill="url(#paint1_linear_21_2049)"/>
</g>
<g filter="url(#filter1_ii_21_2049)">
<path d="M23.6309 24.8916C21.458 24.8897 19.3278 25.2815 17.4825 26.0224C15.6372 26.7634 14.1507 27.8238 13.1921 29.0831C12.2335 30.3425 11.8412 31.7502 12.0597 33.1464C12.2782 34.5426 13.0988 35.8712 14.4283 36.9811C15.7577 38.0911 17.5427 38.938 19.5803 39.4255C21.6179 39.913 23.8264 40.0215 25.9547 39.7388C28.0831 39.4561 30.046 38.7935 31.6203 37.8262C32.9332 37.0196 33.9319 36.0281 34.5424 34.933C34.7147 34.6241 34.4757 34.2672 34.122 34.2672H32.4318C32.0664 34.2672 31.7364 34.4713 31.5226 34.7676C30.9694 35.5345 30.1538 36.2131 29.1332 36.7509C27.8957 37.4029 26.4044 37.8226 24.8224 37.9642C23.2404 38.1058 21.6286 37.9638 20.1632 37.5537C18.6978 37.1435 17.4351 36.4811 16.5134 35.6388C15.5916 34.7965 15.0461 33.8068 14.9366 32.7778C14.8271 31.7488 15.1578 30.7201 15.8925 29.8043C16.6272 28.8885 17.7376 28.1208 19.1024 27.5851C20.4672 27.0493 22.0338 26.7662 23.6309 26.7667C24.7733 26.7678 25.9038 26.916 26.9565 27.2025C27.7338 27.4141 28.4572 27.698 29.1041 28.0444C29.4222 28.2147 29.4218 28.6552 29.1188 28.8511L26.5135 30.5346C26.0949 30.8051 26.2865 31.4545 26.7849 31.4545H34.7523C35.0285 31.4545 35.2523 31.2307 35.2523 30.9545V25.8095C35.2523 25.4135 34.8139 25.1747 34.4812 25.3894L32.1113 26.9193C31.9458 27.0261 31.7335 27.025 31.5651 26.9226C30.5489 26.3046 29.3669 25.81 28.076 25.4635C26.6672 25.0854 25.1565 24.891 23.6309 24.8916Z" fill="url(#paint2_linear_21_2049)"/>
</g>
<g filter="url(#filter2_iii_21_2049)">
<path d="M25.5153 9.81351C24.6811 13.6823 21.9527 15.9481 20.2536 16.8448C19.8966 17.0332 19.4626 16.9406 19.2161 16.621C17.6932 14.6467 16.673 11.047 17.32 8.04644C18.033 4.73946 19.8414 3.501 22.1472 1.67842C22.6547 1.2773 23.4122 1.43603 23.7153 2.00747C25.0963 4.61097 26.2367 6.46778 25.5153 9.81351Z" fill="url(#paint3_linear_21_2049)"/>
</g>
<g filter="url(#filter3_iii_21_2049)">
<path d="M13.9855 27.4977C10.9241 24.9895 10.1535 21.5277 10.1313 19.6066C10.1266 19.203 10.4071 18.8591 10.8041 18.7857C13.2558 18.332 16.9242 19.0673 19.2987 21.0126C21.9155 23.1566 22.192 25.3309 22.7611 28.2144C22.8863 28.849 22.3993 29.4506 21.7525 29.4594C18.8057 29.4997 16.6331 29.6668 13.9855 27.4977Z" fill="url(#paint4_linear_21_2049)"/>
</g>
<g filter="url(#filter4_iii_21_2049)">
<path d="M28.771 13.3858C32.0776 11.211 35.6117 11.507 37.4521 12.0583C37.8388 12.1742 38.0835 12.5444 38.0353 12.9452C37.7377 15.4207 35.9426 18.7033 33.378 20.3901C30.5516 22.2492 28.3937 21.8651 25.4716 21.549C24.8285 21.4794 24.3994 20.8352 24.5837 20.2152C25.4235 17.3903 25.9115 15.2666 28.771 13.3858Z" fill="url(#paint5_linear_21_2049)"/>
</g>
<defs>
<filter id="filter0_i_21_2049" x="0.0175781" y="17.8662" width="47.9323" height="27.668" filterUnits="userSpaceOnUse" color-interpolation-filters="sRGB">
<feFlood flood-opacity="0" result="BackgroundImageFix"/>
<feBlend mode="normal" in="SourceGraphic" in2="BackgroundImageFix" result="shape"/>
<feColorMatrix in="SourceAlpha" type="matrix" values="0 0 0 0 0 0 0 0 0 0 0 0 0 0 0 0 0 0 127 0" result="hardAlpha"/>
<feOffset dy="-1"/>
<feComposite in2="hardAlpha" operator="arithmetic" k2="-1" k3="1"/>
<feColorMatrix type="matrix" values="0 0 0 0 1 0 0 0 0 0.7 0 0 0 0 0.5375 0 0 0 0.75 0"/>
<feBlend mode="normal" in2="shape" result="effect1_innerShadow_21_2049"/>
</filter>
<filter id="filter1_ii_21_2049" x="12.0008" y="24.8916" width="23.2515" height="15.501" filterUnits="userSpaceOnUse" color-interpolation-filters="sRGB">
<feFlood flood-opacity="0" result="BackgroundImageFix"/>
<feBlend mode="normal" in="SourceGraphic" in2="BackgroundImageFix" result="shape"/>
<feColorMatrix in="SourceAlpha" type="matrix" values="0 0 0 0 0 0 0 0 0 0 0 0 0 0 0 0 0 0 127 0" result="hardAlpha"/>
<feOffset dy="0.5"/>
<feGaussianBlur stdDeviation="0.375"/>
<feComposite in2="hardAlpha" operator="arithmetic" k2="-1" k3="1"/>
<feColorMatrix type="matrix" values="0 0 0 0 0.266667 0 0 0 0 0.266667 0 0 0 0 0.266667 0 0 0 1 0"/>
<feBlend mode="normal" in2="shape" result="effect1_innerShadow_21_2049"/>
<feColorMatrix in="SourceAlpha" type="matrix" values="0 0 0 0 0 0 0 0 0 0 0 0 0 0 0 0 0 0 127 0" result="hardAlpha"/>
<feOffset dy="-0.25"/>
<feComposite in2="hardAlpha" operator="arithmetic" k2="-1" k3="1"/>
<feColorMatrix type="matrix" values="0 0 0 0 0.501961 0 0 0 0 0.847059 0 0 0 0 0.533333 0 0 0 1 0"/>
<feBlend mode="normal" in2="effect1_innerShadow_21_2049" result="effect2_innerShadow_21_2049"/>
</filter>
<filter id="filter2_iii_21_2049" x="15.1221" y="0.955566" width="11.1164" height="16.9863" filterUnits="userSpaceOnUse" color-interpolation-filters="sRGB">
<feFlood flood-opacity="0" result="BackgroundImageFix"/>
<feBlend mode="normal" in="SourceGraphic" in2="BackgroundImageFix" result="shape"/>
<feColorMatrix in="SourceAlpha" type="matrix" values="0 0 0 0 0 0 0 0 0 0 0 0 0 0 0 0 0 0 127 0" result="hardAlpha"/>
<feOffset dx="0.5"/>
<feGaussianBlur stdDeviation="1"/>
<feComposite in2="hardAlpha" operator="arithmetic" k2="-1" k3="1"/>
<feColorMatrix type="matrix" values="0 0 0 0 0 0 0 0 0 0 0 0 0 0 0 0 0 0 0.5 0"/>
<feBlend mode="normal" in2="shape" result="effect1_innerShadow_21_2049"/>
<feColorMatrix in="SourceAlpha" type="matrix" values="0 0 0 0 0 0 0 0 0 0 0 0 0 0 0 0 0 0 127 0" result="hardAlpha"/>
<feOffset dx="-2" dy="1"/>
<feGaussianBlur stdDeviation="1"/>
<feComposite in2="hardAlpha" operator="arithmetic" k2="-1" k3="1"/>
<feColorMatrix type="matrix" values="0 0 0 0 1 0 0 0 0 1 0 0 0 0 1 0 0 0 0.5 0"/>
<feBlend mode="normal" in2="effect1_innerShadow_21_2049" result="effect2_innerShadow_21_2049"/>
<feColorMatrix in="SourceAlpha" type="matrix" values="0 0 0 0 0 0 0 0 0 0 0 0 0 0 0 0 0 0 127 0" result="hardAlpha"/>
<feOffset dx="-1" dy="-0.5"/>
<feGaussianBlur stdDeviation="0.5"/>
<feComposite in2="hardAlpha" operator="arithmetic" k2="-1" k3="1"/>
<feColorMatrix type="matrix" values="0 0 0 0 0.392157 0 0 0 0 0.282353 0 0 0 0 0.117647 0 0 0 1 0"/>
<feBlend mode="normal" in2="effect2_innerShadow_21_2049" result="effect3_innerShadow_21_2049"/>
</filter>
<filter id="filter3_iii_21_2049" x="8.13123" y="18.1558" width="15.1496" height="12.3232" filterUnits="userSpaceOnUse" color-interpolation-filters="sRGB">
<feFlood flood-opacity="0" result="BackgroundImageFix"/>
<feBlend mode="normal" in="SourceGraphic" in2="BackgroundImageFix" result="shape"/>
<feColorMatrix in="SourceAlpha" type="matrix" values="0 0 0 0 0 0 0 0 0 0 0 0 0 0 0 0 0 0 127 0" result="hardAlpha"/>
<feOffset dx="0.5"/>
<feGaussianBlur stdDeviation="1"/>
<feComposite in2="hardAlpha" operator="arithmetic" k2="-1" k3="1"/>
<feColorMatrix type="matrix" values="0 0 0 0 0 0 0 0 0 0 0 0 0 0 0 0 0 0 0.5 0"/>
<feBlend mode="normal" in2="shape" result="effect1_innerShadow_21_2049"/>
<feColorMatrix in="SourceAlpha" type="matrix" values="0 0 0 0 0 0 0 0 0 0 0 0 0 0 0 0 0 0 127 0" result="hardAlpha"/>
<feOffset dx="-2" dy="1"/>
<feGaussianBlur stdDeviation="1"/>
<feComposite in2="hardAlpha" operator="arithmetic" k2="-1" k3="1"/>
<feColorMatrix type="matrix" values="0 0 0 0 1 0 0 0 0 1 0 0 0 0 1 0 0 0 0.5 0"/>
<feBlend mode="normal" in2="effect1_innerShadow_21_2049" result="effect2_innerShadow_21_2049"/>
<feColorMatrix in="SourceAlpha" type="matrix" values="0 0 0 0 0 0 0 0 0 0 0 0 0 0 0 0 0 0 127 0" result="hardAlpha"/>
<feOffset dx="-1" dy="-0.5"/>
<feGaussianBlur stdDeviation="0.5"/>
<feComposite in2="hardAlpha" operator="arithmetic" k2="-1" k3="1"/>
<feColorMatrix type="matrix" values="0 0 0 0 0.392157 0 0 0 0 0.282353 0 0 0 0 0.117647 0 0 0 1 0"/>
<feBlend mode="normal" in2="effect2_innerShadow_21_2049" result="effect3_innerShadow_21_2049"/>
</filter>
<filter id="filter4_iii_21_2049" x="22.5407" y="11.1611" width="16.0006" height="11.6519" filterUnits="userSpaceOnUse" color-interpolation-filters="sRGB">
<feFlood flood-opacity="0" result="BackgroundImageFix"/>
<feBlend mode="normal" in="SourceGraphic" in2="BackgroundImageFix" result="shape"/>
<feColorMatrix in="SourceAlpha" type="matrix" values="0 0 0 0 0 0 0 0 0 0 0 0 0 0 0 0 0 0 127 0" result="hardAlpha"/>
<feOffset dx="0.5"/>
<feGaussianBlur stdDeviation="1"/>
<feComposite in2="hardAlpha" operator="arithmetic" k2="-1" k3="1"/>
<feColorMatrix type="matrix" values="0 0 0 0 0 0 0 0 0 0 0 0 0 0 0 0 0 0 0.5 0"/>
<feBlend mode="normal" in2="shape" result="effect1_innerShadow_21_2049"/>
<feColorMatrix in="SourceAlpha" type="matrix" values="0 0 0 0 0 0 0 0 0 0 0 0 0 0 0 0 0 0 127 0" result="hardAlpha"/>
<feOffset dx="-2" dy="1"/>
<feGaussianBlur stdDeviation="1"/>
<feComposite in2="hardAlpha" operator="arithmetic" k2="-1" k3="1"/>
<feColorMatrix type="matrix" values="0 0 0 0 1 0 0 0 0 1 0 0 0 0 1 0 0 0 0.5 0"/>
<feBlend mode="normal" in2="effect1_innerShadow_21_2049" result="effect2_innerShadow_21_2049"/>
<feColorMatrix in="SourceAlpha" type="matrix" values="0 0 0 0 0 0 0 0 0 0 0 0 0 0 0 0 0 0 127 0" result="hardAlpha"/>
<feOffset dx="-1" dy="-0.5"/>
<feGaussianBlur stdDeviation="0.5"/>
<feComposite in2="hardAlpha" operator="arithmetic" k2="-1" k3="1"/>
<feColorMatrix type="matrix" values="0 0 0 0 0.392157 0 0 0 0 0.282353 0 0 0 0 0.117647 0 0 0 1 0"/>
<feBlend mode="normal" in2="effect2_innerShadow_21_2049" result="effect3_innerShadow_21_2049"/>
</filter>
<linearGradient id="paint0_linear_21_2049" x1="0" y1="33.112" x2="48.0032" y2="33.112" gradientUnits="userSpaceOnUse">
<stop stop-color="#7B4F39"/>
<stop offset="0.0001" stop-color="#5F312D"/>
<stop offset="1" stop-color="#9B6B51"/>
</linearGradient>
<linearGradient id="paint1_linear_21_2049" x1="0.0175782" y1="18.2354" x2="0.443975" y2="45.9166" gradientUnits="userSpaceOnUse">
<stop stop-color="#AFFFA1"/>
<stop offset="1" stop-color="#00B37C"/>
</linearGradient>
<linearGradient id="paint2_linear_21_2049" x1="37.1275" y1="23.0168" x2="23.4756" y2="44.8139" gradientUnits="userSpaceOnUse">
<stop offset="0.244792" stop-color="#9A6A50"/>
<stop offset="0.886178" stop-color="#60322D"/>
</linearGradient>
<linearGradient id="paint3_linear_21_2049" x1="19.6505" y1="17.1253" x2="22.8899" y2="2.10181" gradientUnits="userSpaceOnUse">
<stop stop-color="#4B3916"/>
<stop offset="1" stop-color="#FFDDBE"/>
</linearGradient>
<linearGradient id="paint4_linear_21_2049" x1="10.157" y1="18.942" x2="22.0453" y2="28.6819" gradientUnits="userSpaceOnUse">
<stop stop-color="#FFDDBE"/>
<stop offset="1" stop-color="#4B3916"/>
</linearGradient>
<linearGradient id="paint5_linear_21_2049" x1="38.0788" y1="12.281" x2="25.2386" y2="20.7264" gradientUnits="userSpaceOnUse">
<stop stop-color="#FFDDBE"/>
<stop offset="1" stop-color="#4B3916"/>
</linearGradient>
</defs>
</svg>
