<svg width="48" height="49" viewBox="0 0 48 49" fill="none" xmlns="http://www.w3.org/2000/svg">
<path d="M46.7132 32.4408C47.4809 32.8795 48.139 29.1504 47.9744 34.0859C47.9744 34.744 47.5906 35.402 46.768 35.8956L27.0809 47.302C25.4357 48.2343 22.7486 48.2343 21.1035 47.302L1.30671 35.8956C0.484129 35.402 0.100256 34.7988 0.0454174 34.1408C-0.173937 28.7666 0.429287 32.8795 1.25187 32.3859L20.939 20.9795C22.5841 20.0472 25.2712 20.0472 26.9164 20.9795L46.7132 32.4408Z" fill="url(#paint0_linear_21_6633)"/>
<circle cx="0.324814" cy="0.324814" r="0.324814" transform="matrix(-0.999391 0.0348995 0.0348995 0.999391 16.4225 9.13574)" fill="#5C422D"/>
<g filter="url(#filter0_ii_21_6633)">
<path fill-rule="evenodd" clip-rule="evenodd" d="M46.4009 29.1631C48.5233 30.3885 48.5344 32.3753 46.4259 33.6005L27.9041 44.3641C25.7957 45.5897 22.3656 45.5897 20.2432 44.3641L1.59918 33.6001C-0.523205 32.3747 -0.534501 30.3879 1.57417 29.1625L20.0957 18.399C22.2044 17.1737 25.6343 17.1737 27.7567 18.3988L46.4009 29.1631Z" fill="url(#paint1_linear_21_6633)"/>
</g>
<g filter="url(#filter1_ii_21_6633)">
<ellipse cx="2.45722" cy="2.96312" rx="2.45722" ry="2.96312" transform="matrix(-0.891007 -0.45399 -0.45399 0.891007 23.0898 27.4541)" fill="url(#paint2_radial_21_6633)"/>
<ellipse cx="2.45722" cy="2.96312" rx="2.45722" ry="2.96312" transform="matrix(-0.891007 -0.45399 -0.45399 0.891007 23.0898 27.4541)" fill="url(#paint3_radial_21_6633)"/>
</g>
<ellipse cx="0.481808" cy="0.674531" rx="0.481808" ry="0.674531" transform="matrix(-0.997564 0.0697565 0.0697565 0.997564 21.6765 27.3477)" fill="#FFEBB6"/>
<ellipse cx="1.0118" cy="1.44542" rx="1.0118" ry="1.44542" transform="matrix(-0.325568 -0.945519 -0.945519 0.325568 22.1952 28.748)" fill="url(#paint4_radial_21_6633)"/>
<circle cx="0.289085" cy="0.289085" r="0.289085" transform="matrix(-0.984808 -0.173648 -0.173648 0.984808 21.6713 27.7959)" fill="#5C422D"/>
<g filter="url(#filter2_ii_21_6633)">
<ellipse cx="2.45722" cy="2.96312" rx="2.45722" ry="2.96312" transform="matrix(-0.891007 -0.45399 -0.45399 0.891007 39.3305 20.958)" fill="url(#paint5_radial_21_6633)"/>
<ellipse cx="2.45722" cy="2.96312" rx="2.45722" ry="2.96312" transform="matrix(-0.891007 -0.45399 -0.45399 0.891007 39.3305 20.958)" fill="url(#paint6_radial_21_6633)"/>
</g>
<ellipse cx="0.481808" cy="0.674531" rx="0.481808" ry="0.674531" transform="matrix(-0.997564 0.0697565 0.0697565 0.997564 37.9172 20.8516)" fill="#FFEBB6"/>
<ellipse cx="1.0118" cy="1.44542" rx="1.0118" ry="1.44542" transform="matrix(-0.325568 -0.945519 -0.945519 0.325568 38.4359 22.252)" fill="url(#paint7_radial_21_6633)"/>
<circle cx="0.289085" cy="0.289085" r="0.289085" transform="matrix(-0.984808 -0.173648 -0.173648 0.984808 37.912 21.2993)" fill="#5C422D"/>
<g filter="url(#filter3_ii_21_6633)">
<ellipse cx="2.16235" cy="2.60754" rx="2.16235" ry="2.60754" transform="matrix(-0.819152 0.573576 0.573576 0.819152 32.8468 15.9941)" fill="url(#paint8_radial_21_6633)"/>
<ellipse cx="2.16235" cy="2.60754" rx="2.16235" ry="2.60754" transform="matrix(-0.819152 0.573576 0.573576 0.819152 32.8468 15.9941)" fill="url(#paint9_radial_21_6633)"/>
</g>
<ellipse cx="0.423991" cy="0.593587" rx="0.423991" ry="0.593587" transform="matrix(-0.406737 0.913545 0.913545 0.406737 32.1802 17.0483)" fill="#FFEBB6"/>
<ellipse cx="0.89038" cy="1.27197" rx="0.89038" ry="1.27197" transform="matrix(-0.987688 -0.156434 -0.156434 0.987688 33.4825 17.2236)" fill="url(#paint10_radial_21_6633)"/>
<circle cx="0.254394" cy="0.254394" r="0.254394" transform="matrix(-0.615661 0.788011 0.788011 0.615661 32.5261 17.2373)" fill="#5C422D"/>
<g filter="url(#filter4_ii_21_6633)">
<ellipse cx="2.16235" cy="2.60754" rx="2.16235" ry="2.60754" transform="matrix(-0.819152 0.573576 0.573576 0.819152 12.5459 12.7461)" fill="url(#paint11_radial_21_6633)"/>
<ellipse cx="2.16235" cy="2.60754" rx="2.16235" ry="2.60754" transform="matrix(-0.819152 0.573576 0.573576 0.819152 12.5459 12.7461)" fill="url(#paint12_radial_21_6633)"/>
</g>
<ellipse cx="0.423991" cy="0.593587" rx="0.423991" ry="0.593587" transform="matrix(-0.406737 0.913545 0.913545 0.406737 11.8793 13.8003)" fill="#FFEBB6"/>
<ellipse cx="0.89038" cy="1.27197" rx="0.89038" ry="1.27197" transform="matrix(-0.987688 -0.156434 -0.156434 0.987688 13.1816 13.9756)" fill="url(#paint13_radial_21_6633)"/>
<circle cx="0.254394" cy="0.254394" r="0.254394" transform="matrix(-0.615661 0.788011 0.788011 0.615661 12.2252 13.9893)" fill="#5C422D"/>
<ellipse cx="23.6277" cy="38.3435" rx="3.50799" ry="1.46166" fill="url(#paint14_linear_21_6633)"/>
<g filter="url(#filter5_i_21_6633)">
<path d="M16.8882 23.6848C14.3182 21.5938 12.9918 18.3452 13.3516 15.0646L13.3866 14.7833L13.7767 11.9797C13.8385 11.5355 14.2487 11.2255 14.6929 11.2873C15.1053 11.3447 15.4021 11.7025 15.3929 12.109L15.3853 12.2035L14.9952 15.0071C14.6161 17.732 15.6427 20.4569 17.7099 22.254L17.9132 22.425L20.878 24.8372C23.1159 26.6581 24.4281 29.3734 24.4714 32.2484L24.4715 32.5365L24.3947 37.8592C24.3882 38.3076 24.0194 38.6659 23.571 38.6594C23.1546 38.6534 22.8159 38.335 22.7748 37.9305L22.7708 37.8358L22.8476 32.513C22.8821 30.1176 21.8575 27.834 20.0563 26.268L19.853 26.097L16.8882 23.6848Z" fill="#E3B17A"/>
</g>
<path fill-rule="evenodd" clip-rule="evenodd" d="M16.3025 13.9146C18.323 13.1866 19.3454 13.9751 19.2017 15.1545C18.7455 17.7041 15.948 19.3507 14.0144 17.012C14.1094 16.8757 14.282 14.6427 16.3025 13.9146Z" fill="url(#paint15_linear_21_6633)"/>
<path d="M23.1918 28.5584C23.0158 28.4648 22.9369 28.2601 22.9955 28.0768L23.024 28.0092L25.5644 23.2324C26.2561 21.9319 27.5418 21.06 28.9967 20.8926L29.1961 20.8742L30.6204 20.7746C32.4159 20.6491 34.1043 21.6129 34.9136 23.2067L34.9969 23.3799L35.2871 24.0173C35.3799 24.2214 35.2898 24.4621 35.0857 24.555C34.9043 24.6376 34.6939 24.5755 34.5841 24.4174L34.548 24.3536L34.2579 23.7162C33.6504 22.3814 32.3072 21.5444 30.8522 21.5766L30.6771 21.5847L29.2527 21.6843C28.0587 21.7678 26.9856 22.43 26.3741 23.4497L26.2814 23.6137L23.7409 28.3905C23.6356 28.5885 23.3898 28.6637 23.1918 28.5584Z" fill="#E3B17A"/>
<path d="M23.1308 32.8988L21.3122 33.026C19.0196 33.1863 16.8557 31.8406 15.81 29.6304L15.7023 29.3903L15.327 28.5066C15.2068 28.2236 15.3202 27.8913 15.5802 27.7644C15.8113 27.6515 16.0805 27.7389 16.2219 27.9585L16.2686 28.0469L16.6439 28.9306C17.4298 30.7812 19.1518 31.9487 21.0102 31.915L21.2338 31.9052L23.0524 31.778C23.549 32.3061 23.1308 32.8988 23.1308 32.8988Z" fill="#E3B17A"/>
<path fill-rule="evenodd" clip-rule="evenodd" d="M19.3046 31.1919C18.546 32.1565 17.8118 32.0841 17.5242 31.469C16.9733 30.0953 17.8303 28.4503 19.4755 28.9981C19.4708 29.0929 20.0633 30.2273 19.3046 31.1919Z" fill="url(#paint16_linear_21_6633)"/>
<path fill-rule="evenodd" clip-rule="evenodd" d="M14.4324 23.8833C13.6737 24.848 12.9395 24.7755 12.652 24.1604C12.101 22.7867 12.9581 21.1417 14.6033 21.6895C14.5985 21.7843 15.1911 22.9187 14.4324 23.8833Z" fill="url(#paint17_linear_21_6633)"/>
<path fill-rule="evenodd" clip-rule="evenodd" d="M38.375 25.8976C38.9603 27.9639 38.1024 28.9288 36.9359 28.7033C34.4243 28.0703 32.9769 25.1648 35.4448 23.3991C35.5741 23.5032 37.7896 23.8312 38.375 25.8976Z" fill="url(#paint18_linear_21_6633)"/>
<g filter="url(#filter6_ii_21_6633)">
<ellipse cx="12.5893" cy="19.5121" rx="2.65048" ry="3.19617" transform="rotate(-106 12.5893 19.5121)" fill="url(#paint19_radial_21_6633)"/>
<ellipse cx="12.5893" cy="19.5121" rx="2.65048" ry="3.19617" transform="rotate(-106 12.5893 19.5121)" fill="url(#paint20_radial_21_6633)"/>
</g>
<ellipse cx="11.2631" cy="21.1087" rx="0.519703" ry="0.727584" transform="rotate(-75 11.2631 21.1087)" fill="#FFEBB6"/>
<ellipse cx="11.6361" cy="20.3639" rx="1.09138" ry="1.55911" transform="rotate(-150 11.6361 20.3639)" fill="url(#paint21_radial_21_6633)"/>
<circle cx="11.2183" cy="21.2029" r="0.311822" transform="rotate(-89 11.2183 21.2029)" fill="#5C422D"/>
<g filter="url(#filter7_ii_21_6633)">
<ellipse cx="2.76092" cy="3.32934" rx="2.76092" ry="3.32934" transform="matrix(0.994522 0.104528 0.104528 -0.994522 31.303 29.5527)" fill="url(#paint22_radial_21_6633)"/>
<ellipse cx="2.76092" cy="3.32934" rx="2.76092" ry="3.32934" transform="matrix(0.994522 0.104528 0.104528 -0.994522 31.303 29.5527)" fill="url(#paint23_radial_21_6633)"/>
</g>
<ellipse cx="0.541357" cy="0.7579" rx="0.541357" ry="0.7579" transform="matrix(0.906308 -0.422618 -0.422618 -0.906308 32.8284 29.0952)" fill="#FFEBB6"/>
<ellipse cx="1.13685" cy="1.62407" rx="1.13685" ry="1.62407" transform="matrix(0.642788 0.766044 0.766044 -0.642788 31.7204 27.8354)" fill="url(#paint24_radial_21_6633)"/>
<circle cx="0.324814" cy="0.324814" r="0.324814" transform="matrix(0.981627 -0.190809 -0.190809 -0.981627 32.6534 28.6235)" fill="#5C422D"/>
<g filter="url(#filter8_ii_21_6633)">
<ellipse cx="2.76092" cy="3.32934" rx="2.76092" ry="3.32934" transform="matrix(-0.965926 -0.258819 -0.258819 0.965926 17.9017 10.4292)" fill="url(#paint25_radial_21_6633)"/>
<ellipse cx="2.76092" cy="3.32934" rx="2.76092" ry="3.32934" transform="matrix(-0.965926 -0.258819 -0.258819 0.965926 17.9017 10.4292)" fill="url(#paint26_radial_21_6633)"/>
</g>
<ellipse cx="0.541357" cy="0.7579" rx="0.541357" ry="0.7579" transform="matrix(-0.961262 0.275637 0.275637 0.961262 16.3235 10.6426)" fill="#FFEBB6"/>
<ellipse cx="1.13685" cy="1.62407" rx="1.13685" ry="1.62407" transform="matrix(-0.515038 -0.857167 -0.857167 0.515038 17.2206 12.0601)" fill="url(#paint27_radial_21_6633)"/>
<g filter="url(#filter9_ii_21_6633)">
<ellipse cx="1.65655" cy="1.99761" rx="1.65655" ry="1.99761" transform="matrix(-0.669131 -0.743145 -0.743145 0.669131 17.8896 15.8096)" fill="url(#paint28_radial_21_6633)"/>
<ellipse cx="1.65655" cy="1.99761" rx="1.65655" ry="1.99761" transform="matrix(-0.669131 -0.743145 -0.743145 0.669131 17.8896 15.8096)" fill="url(#paint29_radial_21_6633)"/>
</g>
<ellipse cx="0.324814" cy="0.45474" rx="0.324814" ry="0.45474" transform="matrix(-0.956305 -0.292372 -0.292372 0.956305 17.0259 15.4014)" fill="#FFEBB6"/>
<ellipse cx="0.68211" cy="0.974442" rx="0.68211" ry="0.974442" transform="matrix(0.0348995 -0.999391 -0.999391 -0.0348995 17.014 16.4082)" fill="url(#paint30_radial_21_6633)"/>
<circle cx="0.194888" cy="0.194888" r="0.194888" transform="matrix(-0.857167 -0.515038 -0.515038 0.857167 16.9144 15.6821)" fill="#5C422D"/>
<g filter="url(#filter10_ii_21_6633)">
<ellipse cx="1.65655" cy="1.99761" rx="1.65655" ry="1.99761" transform="matrix(0.615662 -0.788011 -0.788011 -0.615662 16.9966 20.9453)" fill="url(#paint31_radial_21_6633)"/>
<ellipse cx="1.65655" cy="1.99761" rx="1.65655" ry="1.99761" transform="matrix(0.615662 -0.788011 -0.788011 -0.615662 16.9966 20.9453)" fill="url(#paint32_radial_21_6633)"/>
</g>
<ellipse cx="0.324814" cy="0.45474" rx="0.324814" ry="0.45474" transform="matrix(0.121869 -0.992546 -0.992546 -0.121869 17.2488 20.0239)" fill="#FFEBB6"/>
<ellipse cx="0.68211" cy="0.974442" rx="0.68211" ry="0.974442" transform="matrix(0.990268 -0.139173 -0.139173 -0.990268 16.2555 20.187)" fill="url(#paint33_radial_21_6633)"/>
<circle cx="0.194888" cy="0.194888" r="0.194888" transform="matrix(0.358368 -0.93358 -0.93358 -0.358368 16.9531 19.9629)" fill="#5C422D"/>
<g filter="url(#filter11_ii_21_6633)">
<ellipse cx="1.65655" cy="1.99761" rx="1.65655" ry="1.99761" transform="matrix(0.529919 -0.848048 -0.848048 -0.529919 29.4731 25.7651)" fill="url(#paint34_radial_21_6633)"/>
<ellipse cx="1.65655" cy="1.99761" rx="1.65655" ry="1.99761" transform="matrix(0.529919 -0.848048 -0.848048 -0.529919 29.4731 25.7651)" fill="url(#paint35_radial_21_6633)"/>
</g>
<ellipse cx="0.324814" cy="0.45474" rx="0.324814" ry="0.45474" transform="matrix(0.0174524 -0.999848 -0.999848 -0.0174524 29.6276 24.8223)" fill="#FFEBB6"/>
<ellipse cx="0.68211" cy="0.974442" rx="0.68211" ry="0.974442" transform="matrix(0.970296 -0.241922 -0.241922 -0.970296 28.6567 25.0879)" fill="url(#paint36_radial_21_6633)"/>
<circle cx="0.194888" cy="0.194888" r="0.194888" transform="matrix(0.258819 -0.965926 -0.965926 -0.258819 29.327 24.7925)" fill="#5C422D"/>
<g filter="url(#filter12_ii_21_6633)">
<ellipse cx="13.8843" cy="26.9529" rx="2.76092" ry="3.32934" transform="rotate(-63 13.8843 26.9529)" fill="url(#paint37_radial_21_6633)"/>
<ellipse cx="13.8843" cy="26.9529" rx="2.76092" ry="3.32934" transform="rotate(-63 13.8843 26.9529)" fill="url(#paint38_radial_21_6633)"/>
</g>
<ellipse cx="11.7396" cy="27.227" rx="0.541357" ry="0.7579" transform="rotate(-32 11.7396 27.227)" fill="#FFEBB6"/>
<ellipse cx="12.5528" cy="26.9243" rx="1.13685" ry="1.62407" transform="rotate(-107 12.5528 26.9243)" fill="url(#paint39_radial_21_6633)"/>
<circle cx="11.6386" cy="27.2669" r="0.324814" transform="rotate(-46 11.6386 27.2669)" fill="#5C422D"/>
<g filter="url(#filter13_ii_21_6633)">
<ellipse cx="15.9545" cy="32.77" rx="2.45722" ry="2.96312" transform="rotate(-141 15.9545 32.77)" fill="url(#paint40_radial_21_6633)"/>
<ellipse cx="15.9545" cy="32.77" rx="2.45722" ry="2.96312" transform="rotate(-141 15.9545 32.77)" fill="url(#paint41_radial_21_6633)"/>
</g>
<ellipse cx="15.7963" cy="34.6881" rx="0.481808" ry="0.674531" transform="rotate(-110 15.7963 34.6881)" fill="#FFEBB6"/>
<ellipse cx="15.6835" cy="33.9241" rx="1.0118" ry="1.44542" transform="rotate(175 15.6835 33.9241)" fill="url(#paint42_radial_21_6633)"/>
<circle cx="15.8123" cy="34.7833" r="0.289085" transform="rotate(-124 15.8123 34.7833)" fill="#5C422D"/>
<defs>
<filter id="filter0_ii_21_6633" x="0" y="17.48" width="48" height="27.8032" filterUnits="userSpaceOnUse" color-interpolation-filters="sRGB">
<feFlood flood-opacity="0" result="BackgroundImageFix"/>
<feBlend mode="normal" in="SourceGraphic" in2="BackgroundImageFix" result="shape"/>
<feColorMatrix in="SourceAlpha" type="matrix" values="0 0 0 0 0 0 0 0 0 0 0 0 0 0 0 0 0 0 127 0" result="hardAlpha"/>
<feOffset dy="-1"/>
<feComposite in2="hardAlpha" operator="arithmetic" k2="-1" k3="1"/>
<feColorMatrix type="matrix" values="0 0 0 0 1 0 0 0 0 1 0 0 0 0 1 0 0 0 0.3 0"/>
<feBlend mode="normal" in2="shape" result="effect1_innerShadow_21_6633"/>
<feColorMatrix in="SourceAlpha" type="matrix" values="0 0 0 0 0 0 0 0 0 0 0 0 0 0 0 0 0 0 127 0" result="hardAlpha"/>
<feOffset/>
<feGaussianBlur stdDeviation="4.5"/>
<feComposite in2="hardAlpha" operator="arithmetic" k2="-1" k3="1"/>
<feColorMatrix type="matrix" values="0 0 0 0 1 0 0 0 0 1 0 0 0 0 1 0 0 0 0.3 0"/>
<feBlend mode="normal" in2="effect1_innerShadow_21_6633" result="effect2_innerShadow_21_6633"/>
</filter>
<filter id="filter1_ii_21_6633" x="15.9852" y="25.1118" width="6.14001" height="6.73389" filterUnits="userSpaceOnUse" color-interpolation-filters="sRGB">
<feFlood flood-opacity="0" result="BackgroundImageFix"/>
<feBlend mode="normal" in="SourceGraphic" in2="BackgroundImageFix" result="shape"/>
<feColorMatrix in="SourceAlpha" type="matrix" values="0 0 0 0 0 0 0 0 0 0 0 0 0 0 0 0 0 0 127 0" result="hardAlpha"/>
<feOffset dx="-1" dy="-1"/>
<feGaussianBlur stdDeviation="1"/>
<feComposite in2="hardAlpha" operator="arithmetic" k2="-1" k3="1"/>
<feColorMatrix type="matrix" values="0 0 0 0 0.338419 0 0 0 0 0 0 0 0 0 0.0838894 0 0 0 0.7 0"/>
<feBlend mode="normal" in2="shape" result="effect1_innerShadow_21_6633"/>
<feColorMatrix in="SourceAlpha" type="matrix" values="0 0 0 0 0 0 0 0 0 0 0 0 0 0 0 0 0 0 127 0" result="hardAlpha"/>
<feOffset dx="-1" dy="-2"/>
<feGaussianBlur stdDeviation="0.5"/>
<feComposite in2="hardAlpha" operator="arithmetic" k2="-1" k3="1"/>
<feColorMatrix type="matrix" values="0 0 0 0 0.394719 0 0 0 0 0.0336593 0 0 0 0 0.186233 0 0 0 0.2 0"/>
<feBlend mode="normal" in2="effect1_innerShadow_21_6633" result="effect2_innerShadow_21_6633"/>
</filter>
<filter id="filter2_ii_21_6633" x="32.2259" y="18.6157" width="6.14001" height="6.73389" filterUnits="userSpaceOnUse" color-interpolation-filters="sRGB">
<feFlood flood-opacity="0" result="BackgroundImageFix"/>
<feBlend mode="normal" in="SourceGraphic" in2="BackgroundImageFix" result="shape"/>
<feColorMatrix in="SourceAlpha" type="matrix" values="0 0 0 0 0 0 0 0 0 0 0 0 0 0 0 0 0 0 127 0" result="hardAlpha"/>
<feOffset dx="-1" dy="-1"/>
<feGaussianBlur stdDeviation="1"/>
<feComposite in2="hardAlpha" operator="arithmetic" k2="-1" k3="1"/>
<feColorMatrix type="matrix" values="0 0 0 0 0.338419 0 0 0 0 0 0 0 0 0 0.0838894 0 0 0 0.7 0"/>
<feBlend mode="normal" in2="shape" result="effect1_innerShadow_21_6633"/>
<feColorMatrix in="SourceAlpha" type="matrix" values="0 0 0 0 0 0 0 0 0 0 0 0 0 0 0 0 0 0 127 0" result="hardAlpha"/>
<feOffset dx="-1" dy="-2"/>
<feGaussianBlur stdDeviation="0.5"/>
<feComposite in2="hardAlpha" operator="arithmetic" k2="-1" k3="1"/>
<feColorMatrix type="matrix" values="0 0 0 0 0.394719 0 0 0 0 0.0336593 0 0 0 0 0.186233 0 0 0 0.2 0"/>
<feBlend mode="normal" in2="effect1_innerShadow_21_6633" result="effect2_innerShadow_21_6633"/>
</filter>
<filter id="filter3_ii_21_6633" x="29.2528" y="15.8999" width="5.63666" height="5.94092" filterUnits="userSpaceOnUse" color-interpolation-filters="sRGB">
<feFlood flood-opacity="0" result="BackgroundImageFix"/>
<feBlend mode="normal" in="SourceGraphic" in2="BackgroundImageFix" result="shape"/>
<feColorMatrix in="SourceAlpha" type="matrix" values="0 0 0 0 0 0 0 0 0 0 0 0 0 0 0 0 0 0 127 0" result="hardAlpha"/>
<feOffset dx="-1" dy="-1"/>
<feGaussianBlur stdDeviation="1"/>
<feComposite in2="hardAlpha" operator="arithmetic" k2="-1" k3="1"/>
<feColorMatrix type="matrix" values="0 0 0 0 0.338419 0 0 0 0 0 0 0 0 0 0.0838894 0 0 0 0.7 0"/>
<feBlend mode="normal" in2="shape" result="effect1_innerShadow_21_6633"/>
<feColorMatrix in="SourceAlpha" type="matrix" values="0 0 0 0 0 0 0 0 0 0 0 0 0 0 0 0 0 0 127 0" result="hardAlpha"/>
<feOffset dx="-1" dy="-2"/>
<feGaussianBlur stdDeviation="0.5"/>
<feComposite in2="hardAlpha" operator="arithmetic" k2="-1" k3="1"/>
<feColorMatrix type="matrix" values="0 0 0 0 0.394719 0 0 0 0 0.0336593 0 0 0 0 0.186233 0 0 0 0.2 0"/>
<feBlend mode="normal" in2="effect1_innerShadow_21_6633" result="effect2_innerShadow_21_6633"/>
</filter>
<filter id="filter4_ii_21_6633" x="8.9519" y="12.6519" width="5.63666" height="5.94092" filterUnits="userSpaceOnUse" color-interpolation-filters="sRGB">
<feFlood flood-opacity="0" result="BackgroundImageFix"/>
<feBlend mode="normal" in="SourceGraphic" in2="BackgroundImageFix" result="shape"/>
<feColorMatrix in="SourceAlpha" type="matrix" values="0 0 0 0 0 0 0 0 0 0 0 0 0 0 0 0 0 0 127 0" result="hardAlpha"/>
<feOffset dx="-1" dy="-1"/>
<feGaussianBlur stdDeviation="1"/>
<feComposite in2="hardAlpha" operator="arithmetic" k2="-1" k3="1"/>
<feColorMatrix type="matrix" values="0 0 0 0 0.338419 0 0 0 0 0 0 0 0 0 0.0838894 0 0 0 0.7 0"/>
<feBlend mode="normal" in2="shape" result="effect1_innerShadow_21_6633"/>
<feColorMatrix in="SourceAlpha" type="matrix" values="0 0 0 0 0 0 0 0 0 0 0 0 0 0 0 0 0 0 127 0" result="hardAlpha"/>
<feOffset dx="-1" dy="-2"/>
<feGaussianBlur stdDeviation="0.5"/>
<feComposite in2="hardAlpha" operator="arithmetic" k2="-1" k3="1"/>
<feColorMatrix type="matrix" values="0 0 0 0 0.394719 0 0 0 0 0.0336593 0 0 0 0 0.186233 0 0 0 0.2 0"/>
<feBlend mode="normal" in2="effect1_innerShadow_21_6633" result="effect2_innerShadow_21_6633"/>
</filter>
<filter id="filter5_i_21_6633" x="13.2935" y="11.2793" width="11.178" height="27.5804" filterUnits="userSpaceOnUse" color-interpolation-filters="sRGB">
<feFlood flood-opacity="0" result="BackgroundImageFix"/>
<feBlend mode="normal" in="SourceGraphic" in2="BackgroundImageFix" result="shape"/>
<feColorMatrix in="SourceAlpha" type="matrix" values="0 0 0 0 0 0 0 0 0 0 0 0 0 0 0 0 0 0 127 0" result="hardAlpha"/>
<feOffset dy="0.5"/>
<feGaussianBlur stdDeviation="0.1"/>
<feComposite in2="hardAlpha" operator="arithmetic" k2="-1" k3="1"/>
<feColorMatrix type="matrix" values="0 0 0 0 0.610369 0 0 0 0 0 0 0 0 0 0 0 0 0 0.5 0"/>
<feBlend mode="normal" in2="shape" result="effect1_innerShadow_21_6633"/>
</filter>
<filter id="filter6_ii_21_6633" x="7.4306" y="14.8154" width="8.3175" height="7.39307" filterUnits="userSpaceOnUse" color-interpolation-filters="sRGB">
<feFlood flood-opacity="0" result="BackgroundImageFix"/>
<feBlend mode="normal" in="SourceGraphic" in2="BackgroundImageFix" result="shape"/>
<feColorMatrix in="SourceAlpha" type="matrix" values="0 0 0 0 0 0 0 0 0 0 0 0 0 0 0 0 0 0 127 0" result="hardAlpha"/>
<feOffset dx="-1" dy="-1"/>
<feGaussianBlur stdDeviation="1"/>
<feComposite in2="hardAlpha" operator="arithmetic" k2="-1" k3="1"/>
<feColorMatrix type="matrix" values="0 0 0 0 0.338419 0 0 0 0 0 0 0 0 0 0.0838894 0 0 0 0.7 0"/>
<feBlend mode="normal" in2="shape" result="effect1_innerShadow_21_6633"/>
<feColorMatrix in="SourceAlpha" type="matrix" values="0 0 0 0 0 0 0 0 0 0 0 0 0 0 0 0 0 0 127 0" result="hardAlpha"/>
<feOffset dx="-2" dy="-2"/>
<feGaussianBlur stdDeviation="1"/>
<feComposite in2="hardAlpha" operator="arithmetic" k2="-1" k3="1"/>
<feColorMatrix type="matrix" values="0 0 0 0 0.394719 0 0 0 0 0.0336593 0 0 0 0 0.186233 0 0 0 0.2 0"/>
<feBlend mode="normal" in2="effect1_innerShadow_21_6633" result="effect2_innerShadow_21_6633"/>
</filter>
<filter id="filter7_ii_21_6633" x="30.6287" y="22.2065" width="6.53613" height="7.64746" filterUnits="userSpaceOnUse" color-interpolation-filters="sRGB">
<feFlood flood-opacity="0" result="BackgroundImageFix"/>
<feBlend mode="normal" in="SourceGraphic" in2="BackgroundImageFix" result="shape"/>
<feColorMatrix in="SourceAlpha" type="matrix" values="0 0 0 0 0 0 0 0 0 0 0 0 0 0 0 0 0 0 127 0" result="hardAlpha"/>
<feOffset dx="-1" dy="-1"/>
<feGaussianBlur stdDeviation="1"/>
<feComposite in2="hardAlpha" operator="arithmetic" k2="-1" k3="1"/>
<feColorMatrix type="matrix" values="0 0 0 0 0.338419 0 0 0 0 0 0 0 0 0 0.0838894 0 0 0 0.7 0"/>
<feBlend mode="normal" in2="shape" result="effect1_innerShadow_21_6633"/>
<feColorMatrix in="SourceAlpha" type="matrix" values="0 0 0 0 0 0 0 0 0 0 0 0 0 0 0 0 0 0 127 0" result="hardAlpha"/>
<feOffset dx="-1" dy="-2"/>
<feGaussianBlur stdDeviation="0.5"/>
<feComposite in2="hardAlpha" operator="arithmetic" k2="-1" k3="1"/>
<feColorMatrix type="matrix" values="0 0 0 0 0.394719 0 0 0 0 0.0336593 0 0 0 0 0.186233 0 0 0 0.2 0"/>
<feBlend mode="normal" in2="effect1_innerShadow_21_6633" result="effect2_innerShadow_21_6633"/>
</filter>
<filter id="filter8_ii_21_6633" x="10.5698" y="8.63525" width="6.60675" height="7.59033" filterUnits="userSpaceOnUse" color-interpolation-filters="sRGB">
<feFlood flood-opacity="0" result="BackgroundImageFix"/>
<feBlend mode="normal" in="SourceGraphic" in2="BackgroundImageFix" result="shape"/>
<feColorMatrix in="SourceAlpha" type="matrix" values="0 0 0 0 0 0 0 0 0 0 0 0 0 0 0 0 0 0 127 0" result="hardAlpha"/>
<feOffset dx="-1" dy="-1"/>
<feGaussianBlur stdDeviation="1"/>
<feComposite in2="hardAlpha" operator="arithmetic" k2="-1" k3="1"/>
<feColorMatrix type="matrix" values="0 0 0 0 0.338419 0 0 0 0 0 0 0 0 0 0.0838894 0 0 0 0.7 0"/>
<feBlend mode="normal" in2="shape" result="effect1_innerShadow_21_6633"/>
<feColorMatrix in="SourceAlpha" type="matrix" values="0 0 0 0 0 0 0 0 0 0 0 0 0 0 0 0 0 0 127 0" result="hardAlpha"/>
<feOffset dx="-1" dy="-2"/>
<feGaussianBlur stdDeviation="0.5"/>
<feComposite in2="hardAlpha" operator="arithmetic" k2="-1" k3="1"/>
<feColorMatrix type="matrix" values="0 0 0 0 0.394719 0 0 0 0 0.0336593 0 0 0 0 0.186233 0 0 0 0.2 0"/>
<feBlend mode="normal" in2="effect1_innerShadow_21_6633" result="effect2_innerShadow_21_6633"/>
</filter>
<filter id="filter9_ii_21_6633" x="12.4439" y="13.0981" width="4.70557" height="4.63428" filterUnits="userSpaceOnUse" color-interpolation-filters="sRGB">
<feFlood flood-opacity="0" result="BackgroundImageFix"/>
<feBlend mode="normal" in="SourceGraphic" in2="BackgroundImageFix" result="shape"/>
<feColorMatrix in="SourceAlpha" type="matrix" values="0 0 0 0 0 0 0 0 0 0 0 0 0 0 0 0 0 0 127 0" result="hardAlpha"/>
<feOffset dx="-1" dy="-1"/>
<feGaussianBlur stdDeviation="0.5"/>
<feComposite in2="hardAlpha" operator="arithmetic" k2="-1" k3="1"/>
<feColorMatrix type="matrix" values="0 0 0 0 0.338419 0 0 0 0 0 0 0 0 0 0.0838894 0 0 0 0.7 0"/>
<feBlend mode="normal" in2="shape" result="effect1_innerShadow_21_6633"/>
<feColorMatrix in="SourceAlpha" type="matrix" values="0 0 0 0 0 0 0 0 0 0 0 0 0 0 0 0 0 0 127 0" result="hardAlpha"/>
<feOffset dx="-1" dy="-1"/>
<feGaussianBlur stdDeviation="0.5"/>
<feComposite in2="hardAlpha" operator="arithmetic" k2="-1" k3="1"/>
<feColorMatrix type="matrix" values="0 0 0 0 0.394719 0 0 0 0 0.0336593 0 0 0 0 0.186233 0 0 0 0.2 0"/>
<feBlend mode="normal" in2="effect1_innerShadow_21_6633" result="effect2_innerShadow_21_6633"/>
</filter>
<filter id="filter10_ii_21_6633" x="13.5665" y="15.6167" width="4.75171" height="4.58691" filterUnits="userSpaceOnUse" color-interpolation-filters="sRGB">
<feFlood flood-opacity="0" result="BackgroundImageFix"/>
<feBlend mode="normal" in="SourceGraphic" in2="BackgroundImageFix" result="shape"/>
<feColorMatrix in="SourceAlpha" type="matrix" values="0 0 0 0 0 0 0 0 0 0 0 0 0 0 0 0 0 0 127 0" result="hardAlpha"/>
<feOffset dx="-1" dy="-1"/>
<feGaussianBlur stdDeviation="0.5"/>
<feComposite in2="hardAlpha" operator="arithmetic" k2="-1" k3="1"/>
<feColorMatrix type="matrix" values="0 0 0 0 0.338419 0 0 0 0 0 0 0 0 0 0.0838894 0 0 0 0.7 0"/>
<feBlend mode="normal" in2="shape" result="effect1_innerShadow_21_6633"/>
<feColorMatrix in="SourceAlpha" type="matrix" values="0 0 0 0 0 0 0 0 0 0 0 0 0 0 0 0 0 0 127 0" result="hardAlpha"/>
<feOffset dx="-1" dy="-1"/>
<feGaussianBlur stdDeviation="0.5"/>
<feComposite in2="hardAlpha" operator="arithmetic" k2="-1" k3="1"/>
<feColorMatrix type="matrix" values="0 0 0 0 0.394719 0 0 0 0 0.0336593 0 0 0 0 0.186233 0 0 0 0.2 0"/>
<feBlend mode="normal" in2="effect1_innerShadow_21_6633" result="effect2_innerShadow_21_6633"/>
</filter>
<filter id="filter11_ii_21_6633" x="25.7485" y="20.5425" width="4.81677" height="4.51855" filterUnits="userSpaceOnUse" color-interpolation-filters="sRGB">
<feFlood flood-opacity="0" result="BackgroundImageFix"/>
<feBlend mode="normal" in="SourceGraphic" in2="BackgroundImageFix" result="shape"/>
<feColorMatrix in="SourceAlpha" type="matrix" values="0 0 0 0 0 0 0 0 0 0 0 0 0 0 0 0 0 0 127 0" result="hardAlpha"/>
<feOffset dx="-1" dy="-1"/>
<feGaussianBlur stdDeviation="0.5"/>
<feComposite in2="hardAlpha" operator="arithmetic" k2="-1" k3="1"/>
<feColorMatrix type="matrix" values="0 0 0 0 0.338419 0 0 0 0 0 0 0 0 0 0.0838894 0 0 0 0.7 0"/>
<feBlend mode="normal" in2="shape" result="effect1_innerShadow_21_6633"/>
<feColorMatrix in="SourceAlpha" type="matrix" values="0 0 0 0 0 0 0 0 0 0 0 0 0 0 0 0 0 0 127 0" result="hardAlpha"/>
<feOffset dx="-1" dy="-1"/>
<feGaussianBlur stdDeviation="0.5"/>
<feComposite in2="hardAlpha" operator="arithmetic" k2="-1" k3="1"/>
<feColorMatrix type="matrix" values="0 0 0 0 0.394719 0 0 0 0 0.0336593 0 0 0 0 0.186233 0 0 0 0.2 0"/>
<feBlend mode="normal" in2="effect1_innerShadow_21_6633" result="effect2_innerShadow_21_6633"/>
</filter>
<filter id="filter12_ii_21_6633" x="9.66309" y="23.0654" width="7.4425" height="6.7749" filterUnits="userSpaceOnUse" color-interpolation-filters="sRGB">
<feFlood flood-opacity="0" result="BackgroundImageFix"/>
<feBlend mode="normal" in="SourceGraphic" in2="BackgroundImageFix" result="shape"/>
<feColorMatrix in="SourceAlpha" type="matrix" values="0 0 0 0 0 0 0 0 0 0 0 0 0 0 0 0 0 0 127 0" result="hardAlpha"/>
<feOffset dx="-1" dy="-1"/>
<feGaussianBlur stdDeviation="1"/>
<feComposite in2="hardAlpha" operator="arithmetic" k2="-1" k3="1"/>
<feColorMatrix type="matrix" values="0 0 0 0 0.338419 0 0 0 0 0 0 0 0 0 0.0838894 0 0 0 0.7 0"/>
<feBlend mode="normal" in2="shape" result="effect1_innerShadow_21_6633"/>
<feColorMatrix in="SourceAlpha" type="matrix" values="0 0 0 0 0 0 0 0 0 0 0 0 0 0 0 0 0 0 127 0" result="hardAlpha"/>
<feOffset dx="-1" dy="-2"/>
<feGaussianBlur stdDeviation="0.5"/>
<feComposite in2="hardAlpha" operator="arithmetic" k2="-1" k3="1"/>
<feColorMatrix type="matrix" values="0 0 0 0 0.394719 0 0 0 0 0.0336593 0 0 0 0 0.186233 0 0 0 0.2 0"/>
<feBlend mode="normal" in2="effect1_innerShadow_21_6633" result="effect2_innerShadow_21_6633"/>
</filter>
<filter id="filter13_ii_21_6633" x="12.2854" y="28.9961" width="6.33813" height="6.54785" filterUnits="userSpaceOnUse" color-interpolation-filters="sRGB">
<feFlood flood-opacity="0" result="BackgroundImageFix"/>
<feBlend mode="normal" in="SourceGraphic" in2="BackgroundImageFix" result="shape"/>
<feColorMatrix in="SourceAlpha" type="matrix" values="0 0 0 0 0 0 0 0 0 0 0 0 0 0 0 0 0 0 127 0" result="hardAlpha"/>
<feOffset dx="-1" dy="-1"/>
<feGaussianBlur stdDeviation="1"/>
<feComposite in2="hardAlpha" operator="arithmetic" k2="-1" k3="1"/>
<feColorMatrix type="matrix" values="0 0 0 0 0.338419 0 0 0 0 0 0 0 0 0 0.0838894 0 0 0 0.7 0"/>
<feBlend mode="normal" in2="shape" result="effect1_innerShadow_21_6633"/>
<feColorMatrix in="SourceAlpha" type="matrix" values="0 0 0 0 0 0 0 0 0 0 0 0 0 0 0 0 0 0 127 0" result="hardAlpha"/>
<feOffset dx="-1" dy="-2"/>
<feGaussianBlur stdDeviation="0.5"/>
<feComposite in2="hardAlpha" operator="arithmetic" k2="-1" k3="1"/>
<feColorMatrix type="matrix" values="0 0 0 0 0.394719 0 0 0 0 0.0336593 0 0 0 0 0.186233 0 0 0 0.2 0"/>
<feBlend mode="normal" in2="effect1_innerShadow_21_6633" result="effect2_innerShadow_21_6633"/>
</filter>
<linearGradient id="paint0_linear_21_6633" x1="51.3603" y1="22.5652" x2="0" y2="22.5652" gradientUnits="userSpaceOnUse">
<stop stop-color="#4E75A0"/>
<stop offset="1" stop-color="#1F2966"/>
</linearGradient>
<linearGradient id="paint1_linear_21_6633" x1="27.1719" y1="17.0206" x2="14.5399" y2="39.1242" gradientUnits="userSpaceOnUse">
<stop stop-color="#5D5C75"/>
<stop offset="1" stop-color="#768DA3"/>
</linearGradient>
<radialGradient id="paint2_radial_21_6633" cx="0" cy="0" r="1" gradientTransform="matrix(2.84433 3.4444 -2.85633 3.42992 1.74268 1.17029)" gradientUnits="userSpaceOnUse">
<stop stop-color="#FFB97B"/>
<stop offset="1" stop-color="#D20041"/>
</radialGradient>
<radialGradient id="paint3_radial_21_6633" cx="0" cy="0" r="1" gradientTransform="matrix(0.788414 -1.92549 1.01117 0.602072 1.6688 1.43882)" gradientUnits="userSpaceOnUse">
<stop stop-color="#FFEBAC" stop-opacity="0.6"/>
<stop offset="1" stop-color="white" stop-opacity="0.01"/>
</radialGradient>
<radialGradient id="paint4_radial_21_6633" cx="0" cy="0" r="1" gradientTransform="matrix(0.849566 -1.87943 0.83313 0.768578 0.687155 0.701863)" gradientUnits="userSpaceOnUse">
<stop stop-color="#FFEBAC" stop-opacity="0.6"/>
<stop offset="1" stop-color="white" stop-opacity="0.01"/>
</radialGradient>
<radialGradient id="paint5_radial_21_6633" cx="0" cy="0" r="1" gradientTransform="matrix(2.84433 3.4444 -2.85633 3.42992 1.74268 1.17029)" gradientUnits="userSpaceOnUse">
<stop stop-color="#FFB97B"/>
<stop offset="1" stop-color="#D20041"/>
</radialGradient>
<radialGradient id="paint6_radial_21_6633" cx="0" cy="0" r="1" gradientTransform="matrix(0.788414 -1.92549 1.01117 0.602072 1.6688 1.43882)" gradientUnits="userSpaceOnUse">
<stop stop-color="#FFEBAC" stop-opacity="0.6"/>
<stop offset="1" stop-color="white" stop-opacity="0.01"/>
</radialGradient>
<radialGradient id="paint7_radial_21_6633" cx="0" cy="0" r="1" gradientTransform="matrix(0.849566 -1.87943 0.83313 0.768578 0.687155 0.701863)" gradientUnits="userSpaceOnUse">
<stop stop-color="#FFEBAC" stop-opacity="0.6"/>
<stop offset="1" stop-color="white" stop-opacity="0.01"/>
</radialGradient>
<radialGradient id="paint8_radial_21_6633" cx="0" cy="0" r="1" gradientTransform="matrix(2.50301 3.03107 -2.51357 3.01833 1.53356 1.02986)" gradientUnits="userSpaceOnUse">
<stop stop-color="#FFB97B"/>
<stop offset="1" stop-color="#D20041"/>
</radialGradient>
<radialGradient id="paint9_radial_21_6633" cx="0" cy="0" r="1" gradientTransform="matrix(0.693805 -1.69443 0.889831 0.529824 1.46855 1.26616)" gradientUnits="userSpaceOnUse">
<stop stop-color="#FFEBAC" stop-opacity="0.6"/>
<stop offset="1" stop-color="white" stop-opacity="0.01"/>
</radialGradient>
<radialGradient id="paint10_radial_21_6633" cx="0" cy="0" r="1" gradientTransform="matrix(0.747618 -1.6539 0.733155 0.676349 0.604696 0.617639)" gradientUnits="userSpaceOnUse">
<stop stop-color="#FFEBAC" stop-opacity="0.6"/>
<stop offset="1" stop-color="white" stop-opacity="0.01"/>
</radialGradient>
<radialGradient id="paint11_radial_21_6633" cx="0" cy="0" r="1" gradientTransform="matrix(2.50301 3.03107 -2.51357 3.01833 1.53356 1.02986)" gradientUnits="userSpaceOnUse">
<stop stop-color="#FFB97B"/>
<stop offset="1" stop-color="#D20041"/>
</radialGradient>
<radialGradient id="paint12_radial_21_6633" cx="0" cy="0" r="1" gradientTransform="matrix(0.693805 -1.69443 0.889831 0.529824 1.46855 1.26616)" gradientUnits="userSpaceOnUse">
<stop stop-color="#FFEBAC" stop-opacity="0.6"/>
<stop offset="1" stop-color="white" stop-opacity="0.01"/>
</radialGradient>
<radialGradient id="paint13_radial_21_6633" cx="0" cy="0" r="1" gradientTransform="matrix(0.747618 -1.6539 0.733155 0.676349 0.604696 0.617639)" gradientUnits="userSpaceOnUse">
<stop stop-color="#FFEBAC" stop-opacity="0.6"/>
<stop offset="1" stop-color="white" stop-opacity="0.01"/>
</radialGradient>
<linearGradient id="paint14_linear_21_6633" x1="20.1198" y1="36.8818" x2="20.1198" y2="39.8052" gradientUnits="userSpaceOnUse">
<stop stop-color="#6B6C83"/>
<stop offset="1" stop-color="#282C40"/>
</linearGradient>
<linearGradient id="paint15_linear_21_6633" x1="14.6753" y1="18.8276" x2="20.0167" y2="16.8835" gradientUnits="userSpaceOnUse">
<stop stop-color="#E4FFB3"/>
<stop offset="1" stop-color="#00C733"/>
</linearGradient>
<linearGradient id="paint16_linear_21_6633" x1="18.6055" y1="28.3184" x2="16.6057" y2="30.8779" gradientUnits="userSpaceOnUse">
<stop stop-color="#E4FFB3"/>
<stop offset="1" stop-color="#00C733"/>
</linearGradient>
<linearGradient id="paint17_linear_21_6633" x1="13.7332" y1="21.0098" x2="11.7335" y2="23.5693" gradientUnits="userSpaceOnUse">
<stop stop-color="#E4FFB3"/>
<stop offset="1" stop-color="#00C733"/>
</linearGradient>
<linearGradient id="paint18_linear_21_6633" x1="33.5875" y1="23.9316" x2="35.1543" y2="29.3957" gradientUnits="userSpaceOnUse">
<stop stop-color="#E4FFB3"/>
<stop offset="1" stop-color="#00C733"/>
</linearGradient>
<radialGradient id="paint19_radial_21_6633" cx="0" cy="0" r="1" gradientTransform="matrix(3.06804 3.71531 -3.08099 3.69969 11.8186 17.5783)" gradientUnits="userSpaceOnUse">
<stop stop-color="#FFB97B"/>
<stop offset="1" stop-color="#D20041"/>
</radialGradient>
<radialGradient id="paint20_radial_21_6633" cx="0" cy="0" r="1" gradientTransform="matrix(0.850425 -2.07693 1.0907 0.649426 11.7389 17.8679)" gradientUnits="userSpaceOnUse">
<stop stop-color="#FFEBAC" stop-opacity="0.6"/>
<stop offset="1" stop-color="white" stop-opacity="0.01"/>
</radialGradient>
<radialGradient id="paint21_radial_21_6633" cx="0" cy="0" r="1" gradientTransform="matrix(0.916386 -2.02725 0.898658 0.829028 11.2859 19.5618)" gradientUnits="userSpaceOnUse">
<stop stop-color="#FFEBAC" stop-opacity="0.6"/>
<stop offset="1" stop-color="white" stop-opacity="0.01"/>
</radialGradient>
<radialGradient id="paint22_radial_21_6633" cx="0" cy="0" r="1" gradientTransform="matrix(3.19587 3.87011 -3.20936 3.85385 1.95806 1.31494)" gradientUnits="userSpaceOnUse">
<stop stop-color="#FFB97B"/>
<stop offset="1" stop-color="#D20041"/>
</radialGradient>
<radialGradient id="paint23_radial_21_6633" cx="0" cy="0" r="1" gradientTransform="matrix(0.885859 -2.16347 1.13615 0.676486 1.87506 1.61665)" gradientUnits="userSpaceOnUse">
<stop stop-color="#FFEBAC" stop-opacity="0.6"/>
<stop offset="1" stop-color="white" stop-opacity="0.01"/>
</radialGradient>
<radialGradient id="paint24_radial_21_6633" cx="0" cy="0" r="1" gradientTransform="matrix(0.954568 -2.11172 0.936102 0.863571 0.772084 0.78861)" gradientUnits="userSpaceOnUse">
<stop stop-color="#FFEBAC" stop-opacity="0.6"/>
<stop offset="1" stop-color="white" stop-opacity="0.01"/>
</radialGradient>
<radialGradient id="paint25_radial_21_6633" cx="0" cy="0" r="1" gradientTransform="matrix(3.19587 3.87011 -3.20936 3.85385 1.95806 1.31494)" gradientUnits="userSpaceOnUse">
<stop stop-color="#FFB97B"/>
<stop offset="1" stop-color="#D20041"/>
</radialGradient>
<radialGradient id="paint26_radial_21_6633" cx="0" cy="0" r="1" gradientTransform="matrix(0.885859 -2.16347 1.13615 0.676486 1.87506 1.61665)" gradientUnits="userSpaceOnUse">
<stop stop-color="#FFEBAC" stop-opacity="0.6"/>
<stop offset="1" stop-color="white" stop-opacity="0.01"/>
</radialGradient>
<radialGradient id="paint27_radial_21_6633" cx="0" cy="0" r="1" gradientTransform="matrix(0.954568 -2.11172 0.936102 0.863571 0.772084 0.78861)" gradientUnits="userSpaceOnUse">
<stop stop-color="#FFEBAC" stop-opacity="0.6"/>
<stop offset="1" stop-color="white" stop-opacity="0.01"/>
</radialGradient>
<radialGradient id="paint28_radial_21_6633" cx="0" cy="0" r="1" gradientTransform="matrix(1.91752 2.32207 -1.92562 2.31231 1.17484 0.788961)" gradientUnits="userSpaceOnUse">
<stop stop-color="#FFB97B"/>
<stop offset="1" stop-color="#D20041"/>
</radialGradient>
<radialGradient id="paint29_radial_21_6633" cx="0" cy="0" r="1" gradientTransform="matrix(0.531515 -1.29808 0.681689 0.405891 1.12504 0.969991)" gradientUnits="userSpaceOnUse">
<stop stop-color="#FFEBAC" stop-opacity="0.6"/>
<stop offset="1" stop-color="white" stop-opacity="0.01"/>
</radialGradient>
<radialGradient id="paint30_radial_21_6633" cx="0" cy="0" r="1" gradientTransform="matrix(0.572741 -1.26703 0.561661 0.518143 0.46325 0.473166)" gradientUnits="userSpaceOnUse">
<stop stop-color="#FFEBAC" stop-opacity="0.6"/>
<stop offset="1" stop-color="white" stop-opacity="0.01"/>
</radialGradient>
<radialGradient id="paint31_radial_21_6633" cx="0" cy="0" r="1" gradientTransform="matrix(1.91752 2.32207 -1.92562 2.31231 1.17484 0.788961)" gradientUnits="userSpaceOnUse">
<stop stop-color="#FFB97B"/>
<stop offset="1" stop-color="#D20041"/>
</radialGradient>
<radialGradient id="paint32_radial_21_6633" cx="0" cy="0" r="1" gradientTransform="matrix(0.531515 -1.29808 0.681689 0.405891 1.12504 0.969991)" gradientUnits="userSpaceOnUse">
<stop stop-color="#FFEBAC" stop-opacity="0.6"/>
<stop offset="1" stop-color="white" stop-opacity="0.01"/>
</radialGradient>
<radialGradient id="paint33_radial_21_6633" cx="0" cy="0" r="1" gradientTransform="matrix(0.572741 -1.26703 0.561661 0.518143 0.46325 0.473166)" gradientUnits="userSpaceOnUse">
<stop stop-color="#FFEBAC" stop-opacity="0.6"/>
<stop offset="1" stop-color="white" stop-opacity="0.01"/>
</radialGradient>
<radialGradient id="paint34_radial_21_6633" cx="0" cy="0" r="1" gradientTransform="matrix(1.91752 2.32207 -1.92562 2.31231 1.17484 0.788961)" gradientUnits="userSpaceOnUse">
<stop stop-color="#FFB97B"/>
<stop offset="1" stop-color="#D20041"/>
</radialGradient>
<radialGradient id="paint35_radial_21_6633" cx="0" cy="0" r="1" gradientTransform="matrix(0.531515 -1.29808 0.681689 0.405891 1.12504 0.969991)" gradientUnits="userSpaceOnUse">
<stop stop-color="#FFEBAC" stop-opacity="0.6"/>
<stop offset="1" stop-color="white" stop-opacity="0.01"/>
</radialGradient>
<radialGradient id="paint36_radial_21_6633" cx="0" cy="0" r="1" gradientTransform="matrix(0.572741 -1.26703 0.561661 0.518143 0.46325 0.473166)" gradientUnits="userSpaceOnUse">
<stop stop-color="#FFEBAC" stop-opacity="0.6"/>
<stop offset="1" stop-color="white" stop-opacity="0.01"/>
</radialGradient>
<radialGradient id="paint37_radial_21_6633" cx="0" cy="0" r="1" gradientTransform="matrix(3.19587 3.87011 -3.20936 3.85385 13.0815 24.9385)" gradientUnits="userSpaceOnUse">
<stop stop-color="#FFB97B"/>
<stop offset="1" stop-color="#D20041"/>
</radialGradient>
<radialGradient id="paint38_radial_21_6633" cx="0" cy="0" r="1" gradientTransform="matrix(0.885859 -2.16347 1.13615 0.676486 12.9985 25.2402)" gradientUnits="userSpaceOnUse">
<stop stop-color="#FFEBAC" stop-opacity="0.6"/>
<stop offset="1" stop-color="white" stop-opacity="0.01"/>
</radialGradient>
<radialGradient id="paint39_radial_21_6633" cx="0" cy="0" r="1" gradientTransform="matrix(0.954568 -2.11172 0.936102 0.863571 12.1881 26.0889)" gradientUnits="userSpaceOnUse">
<stop stop-color="#FFEBAC" stop-opacity="0.6"/>
<stop offset="1" stop-color="white" stop-opacity="0.01"/>
</radialGradient>
<radialGradient id="paint40_radial_21_6633" cx="0" cy="0" r="1" gradientTransform="matrix(2.84433 3.4444 -2.85633 3.42992 15.2399 30.9772)" gradientUnits="userSpaceOnUse">
<stop stop-color="#FFB97B"/>
<stop offset="1" stop-color="#D20041"/>
</radialGradient>
<radialGradient id="paint41_radial_21_6633" cx="0" cy="0" r="1" gradientTransform="matrix(0.788414 -1.92549 1.01117 0.602072 15.166 31.2457)" gradientUnits="userSpaceOnUse">
<stop stop-color="#FFEBAC" stop-opacity="0.6"/>
<stop offset="1" stop-color="white" stop-opacity="0.01"/>
</radialGradient>
<radialGradient id="paint42_radial_21_6633" cx="0" cy="0" r="1" gradientTransform="matrix(0.849566 -1.87943 0.83313 0.768578 15.3589 33.1806)" gradientUnits="userSpaceOnUse">
<stop stop-color="#FFEBAC" stop-opacity="0.6"/>
<stop offset="1" stop-color="white" stop-opacity="0.01"/>
</radialGradient>
</defs>
</svg>
