<svg width="42" height="42" viewBox="0 0 42 42" fill="none" xmlns="http://www.w3.org/2000/svg">
<path d="M40.8741 28.3817C41.5459 28.7655 42.1217 25.5026 41.9777 29.8212C41.9777 30.397 41.6418 30.9728 40.9221 31.4046L23.6958 41.3853C22.2563 42.201 19.9051 42.201 18.4656 41.3853L1.14337 31.4046C0.423614 30.9728 0.0877243 30.445 0.0397403 29.8692C-0.152196 25.1667 0.375627 28.7655 1.09539 28.3337L18.3216 18.353C19.7612 17.5373 22.1124 17.5373 23.5519 18.353L40.8741 28.3817Z" fill="url(#paint0_linear_21_7687)"/>
<g filter="url(#filter0_i_21_7687)">
<path d="M40.874 26.2243C42.3135 27.04 42.3135 28.4316 40.874 29.2473L23.6477 39.228C22.2082 40.0437 19.857 40.0437 18.4175 39.228L1.09526 29.2473C-0.344255 28.4316 -0.344255 27.04 1.09526 26.2243L18.3215 16.2436C19.761 15.4279 22.1122 15.4279 23.5518 16.2436L40.874 26.2243Z" fill="url(#paint1_linear_21_7687)"/>
</g>
<path d="M29.1575 28.6552C30.8945 27.4359 30.5085 24.3877 28.7716 23.4732C25.8767 21.9491 23.3213 21.6563 22.2941 21.6563C20.6962 21.6562 15.6481 22.5587 13.1392 24.3877C11.9812 25.3021 11.5952 26.8262 12.1742 28.3504C12.9462 29.8745 14.8915 31.1244 18.1724 32.0388C22.0323 32.6485 26.2627 30.7889 29.1575 28.6552Z" fill="url(#paint2_linear_21_7687)"/>
<path opacity="0.5" d="M12.5645 20.6719C13.877 21 16.8465 21.6482 23.7207 26.25C23.7207 26.25 23.202 27.5625 20.4313 27.5625C16.8301 27.5625 11.5801 23.9531 8.29883 22.3125L12.5645 20.6719Z" fill="url(#paint3_linear_21_7687)"/>
<ellipse opacity="0.3" cx="20.4396" cy="26.25" rx="4.59375" ry="1.96875" fill="black" fill-opacity="0.5"/>
<g filter="url(#filter1_ii_21_7687)">
<path d="M18.3751 26.25C18.3751 11.1566 18.6386 4.14649 19.0314 0.65625H21.6564C21.9845 4.92187 22.3028 13.8893 22.3028 26.25C22.3028 26.25 22.0014 27.5625 20.339 27.5625C18.6765 27.5625 18.3751 26.25 18.3751 26.25Z" fill="url(#paint4_linear_21_7687)"/>
<path d="M18.3751 26.25C18.3751 11.1566 18.6386 4.14649 19.0314 0.65625H21.6564C21.9845 4.92187 22.3028 13.8893 22.3028 26.25C22.3028 26.25 22.0014 27.5625 20.339 27.5625C18.6765 27.5625 18.3751 26.25 18.3751 26.25Z" fill="black" fill-opacity="0.2"/>
</g>
<g filter="url(#filter2_i_21_7687)">
<ellipse cx="20.3439" cy="0.65625" rx="1.3125" ry="0.65625" fill="url(#paint5_linear_21_7687)"/>
</g>
<path d="M11.239 29.2064C14.9152 28.9613 17.1488 28.4688 17.8061 28.2532L12.578 23.6345L3.36565 28.8408C4.45834 29.0647 7.56279 29.4514 11.239 29.2064Z" fill="url(#paint6_linear_21_7687)"/>
<g filter="url(#filter3_i_21_7687)">
<path d="M20.4067 5.11865C21.0627 4.13428 22.0471 3.80615 23.6877 3.1499C26.094 3.47803 31.0379 4.59365 28.9379 5.11865C26.8379 5.64365 23.7826 8.07178 23.4545 13.6499C23.1263 13.8687 22.9855 14.6343 21.719 14.6343C20.5013 14.6343 19.8451 13.978 19.517 13.6499C19.517 8.72803 19.6192 5.90615 20.4067 5.11865Z" fill="url(#paint7_linear_21_7687)"/>
</g>
<g filter="url(#filter4_i_21_7687)">
<path d="M31.3285 3.15044C27.5484 1.89045 23.0155 3.27875 21.3905 4.16518C22.3749 4.11714 21.1091 13.9129 21.8785 15.2254C22.9915 17.124 24.1285 10.7458 24.5035 12.0754C24.8785 13.4051 23.4354 18.0675 23.9785 19.4254C24.6348 21.0661 25.3028 16.2392 26.453 18.3599C28.328 21.8169 35.078 21.551 38.453 21.551C38.078 20.4873 36.953 18.8917 36.953 17.5621C36.953 16.4656 39.5785 18.1369 39.2035 16.2754C38.8809 14.6741 35.4379 12.9984 35.0035 11.5504C34.514 9.91878 40.6907 13.6983 40.1255 11.5504C39.5541 9.37892 36.0535 4.72538 31.3285 3.15044Z" fill="url(#paint8_linear_21_7687)"/>
</g>
<mask id="mask0_21_7687" style="mask-type:alpha" maskUnits="userSpaceOnUse" x="21" y="2" width="18" height="20">
<path d="M28.7035 2.62515C24.9066 2.44985 23.0155 3.27852 21.3905 4.16494C22.3749 4.1169 23.2461 4.16494 24.0155 5.47744C25.1284 7.37598 24.2968 9.72593 24.6718 11.0556C25.0468 12.3852 25.9098 12.9789 26.453 14.3368C27.1093 15.9774 25.3028 16.239 26.453 18.3596C28.328 21.8167 35.078 21.5508 38.453 21.5508C38.078 20.4871 36.953 18.8915 36.953 17.5619C36.953 16.4654 37.5155 15.2139 37.1405 13.3524C36.8179 11.7511 34.9499 10.5347 34.5155 9.08681C33.5311 5.80556 33.2973 2.83723 28.7035 2.62515Z" fill="url(#paint9_linear_21_7687)"/>
</mask>
<g mask="url(#mask0_21_7687)">
<path opacity="0.75" d="M24.6715 2.49375C25.8746 2.275 28.5434 2.29688 29.5934 4.13437C30.9059 6.43125 29.2653 8.07175 29.9215 9.38425C30.5778 10.6967 31.8905 12.0092 32.5468 13.978C33.203 15.9467 32.2186 16.9311 32.8749 17.9155C33.3999 18.703 35.9374 20.2124 37.1405 20.8686" stroke="#FFFF9E" stroke-miterlimit="10" stroke-linecap="round" stroke-linejoin="round"/>
<circle cx="0.437471" cy="0.437471" r="0.437471" transform="matrix(-1 0 0 1 31.328 18.8984)" fill="black" stroke="#434343" stroke-opacity="0.5" stroke-width="0.5"/>
<circle cx="0.437471" cy="0.437471" r="0.437471" transform="matrix(-1 0 0 1 36.578 18.8984)" fill="black" stroke="#434343" stroke-opacity="0.5" stroke-width="0.5"/>
<circle cx="0.437471" cy="0.437471" r="0.437471" transform="matrix(-1 0 0 1 32.203 4.89941)" fill="black" stroke="#434343" stroke-opacity="0.5" stroke-width="0.5"/>
<circle cx="0.437471" cy="0.437471" r="0.437471" transform="matrix(-1 0 0 1 32.203 7.52441)" fill="black" stroke="#434343" stroke-opacity="0.5" stroke-width="0.5"/>
<circle cx="0.437471" cy="0.437471" r="0.437471" transform="matrix(-1 0 0 1 26.955 11.0239)" fill="black" stroke="#434343" stroke-opacity="0.5" stroke-width="0.5"/>
<circle cx="0.437471" cy="0.437471" r="0.437471" transform="matrix(-1 0 0 1 31.328 13.6489)" fill="black" stroke="#434343" stroke-opacity="0.5" stroke-width="0.5"/>
<circle cx="0.437471" cy="0.437471" r="0.437471" transform="matrix(-1 0 0 1 34.828 11.0239)" fill="black" stroke="#434343" stroke-opacity="0.5" stroke-width="0.5"/>
<circle cx="0.437471" cy="0.437471" r="0.437471" transform="matrix(-1 0 0 1 31.328 2.27441)" fill="black" stroke="#434343" stroke-opacity="0.5" stroke-width="0.5"/>
<circle cx="0.437471" cy="0.437471" r="0.437471" transform="matrix(-1 0 0 1 25.205 4.02441)" fill="black" stroke="#434343" stroke-opacity="0.5" stroke-width="0.5"/>
<circle cx="0.437471" cy="0.437471" r="0.437471" transform="matrix(-1 0 0 1 30.453 16.2734)" fill="black" stroke="#434343" stroke-opacity="0.5" stroke-width="0.5"/>
<circle cx="0.437471" cy="0.437471" r="0.437471" transform="matrix(-1 0 0 1 27.828 15.3984)" fill="black" stroke="#434343" stroke-opacity="0.5" stroke-width="0.5"/>
<circle cx="0.437471" cy="0.437471" r="0.437471" transform="matrix(-0.0885811 0.996069 0.996069 0.0885811 33.9569 16.2734)" fill="black" stroke="#434343" stroke-opacity="0.5" stroke-width="0.5"/>
<circle cx="0.437471" cy="0.437471" r="0.437471" transform="matrix(-1 0 0 1 26.08 15.3984)" fill="black" stroke="#434343" stroke-opacity="0.5" stroke-width="0.5"/>
<circle cx="0.437471" cy="0.437471" r="0.437471" transform="matrix(-1 0 0 1 35.703 13.6489)" fill="black" stroke="#434343" stroke-opacity="0.5" stroke-width="0.5"/>
<circle cx="0.437471" cy="0.437471" r="0.437471" transform="matrix(-1 0 0 1 26.08 6.64941)" fill="black" stroke="#434343" stroke-opacity="0.5" stroke-width="0.5"/>
<circle cx="0.437471" cy="0.437471" r="0.437471" transform="matrix(-1 0 0 1 23.455 8.39893)" fill="black" stroke="#434343" stroke-opacity="0.5" stroke-width="0.5"/>
<circle cx="0.437471" cy="0.437471" r="0.437471" transform="matrix(-0.0885811 0.996069 0.996069 0.0885811 27.8319 7.49854)" fill="black" stroke="#434343" stroke-opacity="0.5" stroke-width="0.5"/>
<circle cx="0.437471" cy="0.437471" r="0.437471" transform="matrix(-1 0 0 1 27.828 3.14941)" fill="black" stroke="#434343" stroke-opacity="0.5" stroke-width="0.5"/>
<circle cx="0.437471" cy="0.437471" r="0.437471" transform="matrix(-1 0 0 1 32.203 10.1489)" fill="black" stroke="#434343" stroke-opacity="0.5" stroke-width="0.5"/>
</g>
<g filter="url(#filter5_i_21_7687)">
<path d="M20.3726 12.4683C19.7166 11.4839 18.7322 11.1558 17.0916 10.4995C14.6853 10.8276 9.7414 11.9433 11.8414 12.4683C13.9414 12.9933 16.9967 15.4214 17.3248 20.9995C17.653 21.2183 17.7938 21.9839 19.0603 21.9839C20.278 21.9839 20.9342 21.3276 21.2623 20.9995C21.2623 16.0776 21.1601 13.2558 20.3726 12.4683Z" fill="url(#paint10_linear_21_7687)"/>
</g>
<g filter="url(#filter6_i_21_7687)">
<path d="M9.45077 10.5C13.2309 9.24006 17.7638 10.6284 19.3888 11.5148C18.4044 11.4668 19.6702 21.2625 18.9008 22.575C17.7878 24.4736 16.6508 18.0954 16.2758 19.425C15.9008 20.7547 17.3439 25.4171 16.8008 26.775C16.1445 28.4157 15.4765 23.5888 14.3263 25.7095C12.4513 29.1665 5.70129 28.9006 2.32629 28.9006C2.70129 27.8369 3.82629 26.2413 3.82629 24.9117C3.82629 23.8153 1.20077 25.4865 1.57577 23.625C1.89836 22.0237 5.3414 20.348 5.77577 18.9C6.26527 17.2684 0.0886192 21.0479 0.653782 18.9C1.22516 16.7285 4.72577 12.075 9.45077 10.5Z" fill="url(#paint11_linear_21_7687)"/>
</g>
<mask id="mask1_21_7687" style="mask-type:alpha" maskUnits="userSpaceOnUse" x="2" y="9" width="18" height="20">
<path d="M12.0758 9.97476C15.8726 9.79946 17.7638 10.6281 19.3888 11.5145C18.4044 11.4665 17.5332 11.5145 16.7638 12.827C15.6509 14.7256 16.4825 17.0755 16.1075 18.4052C15.7325 19.7348 14.8695 20.3285 14.3263 21.6864C13.67 23.3271 15.4765 23.5886 14.3263 25.7092C12.4513 29.1663 5.7013 28.9004 2.3263 28.9004C2.7013 27.8367 3.8263 26.2411 3.8263 24.9115C3.8263 23.815 3.2638 22.5635 3.6388 20.7021C3.96138 19.1007 5.82942 17.8843 6.2638 16.4364C7.24817 13.1552 7.48203 10.1868 12.0758 9.97476Z" fill="url(#paint12_linear_21_7687)"/>
</mask>
<g mask="url(#mask1_21_7687)">
<path opacity="0.75" d="M16.1078 9.84336C14.9047 9.62461 12.2359 9.64648 11.1859 11.484C9.87341 13.7809 11.514 15.4214 10.8578 16.7339C10.2015 18.0464 8.88879 19.3589 8.23254 21.3276C7.57629 23.2964 8.56067 24.2807 7.90442 25.2651C7.37942 26.0526 4.84192 27.562 3.63879 28.2182" stroke="#FFFF9E" stroke-miterlimit="10" stroke-linecap="round" stroke-linejoin="round"/>
<circle cx="9.88876" cy="26.6855" r="0.437471" fill="black" stroke="#434343" stroke-opacity="0.5" stroke-width="0.5"/>
<circle cx="4.63876" cy="26.6855" r="0.437471" fill="black" stroke="#434343" stroke-opacity="0.5" stroke-width="0.5"/>
<circle cx="9.01376" cy="12.6865" r="0.437471" fill="black" stroke="#434343" stroke-opacity="0.5" stroke-width="0.5"/>
<circle cx="9.01376" cy="15.3115" r="0.437471" fill="black" stroke="#434343" stroke-opacity="0.5" stroke-width="0.5"/>
<circle cx="14.2618" cy="18.811" r="0.437471" fill="black" stroke="#434343" stroke-opacity="0.5" stroke-width="0.5"/>
<circle cx="9.88876" cy="21.436" r="0.437471" fill="black" stroke="#434343" stroke-opacity="0.5" stroke-width="0.5"/>
<circle cx="6.38876" cy="18.811" r="0.437471" fill="black" stroke="#434343" stroke-opacity="0.5" stroke-width="0.5"/>
<circle cx="9.88876" cy="10.0615" r="0.437471" fill="black" stroke="#434343" stroke-opacity="0.5" stroke-width="0.5"/>
<circle cx="16.0118" cy="11.8115" r="0.437471" fill="black" stroke="#434343" stroke-opacity="0.5" stroke-width="0.5"/>
<circle cx="10.7638" cy="24.0605" r="0.437471" fill="black" stroke="#434343" stroke-opacity="0.5" stroke-width="0.5"/>
<circle cx="13.3888" cy="23.1855" r="0.437471" fill="black" stroke="#434343" stroke-opacity="0.5" stroke-width="0.5"/>
<circle cx="6.42539" cy="24.0975" r="0.437471" transform="rotate(84.918 6.42539 24.0975)" fill="black" stroke="#434343" stroke-opacity="0.5" stroke-width="0.5"/>
<circle cx="15.1368" cy="23.1855" r="0.437471" fill="black" stroke="#434343" stroke-opacity="0.5" stroke-width="0.5"/>
<circle cx="5.51376" cy="21.436" r="0.437471" fill="black" stroke="#434343" stroke-opacity="0.5" stroke-width="0.5"/>
<circle cx="15.1368" cy="14.4365" r="0.437471" fill="black" stroke="#434343" stroke-opacity="0.5" stroke-width="0.5"/>
<circle cx="17.7618" cy="16.186" r="0.437471" fill="black" stroke="#434343" stroke-opacity="0.5" stroke-width="0.5"/>
<circle cx="12.5504" cy="15.3226" r="0.437471" transform="rotate(84.918 12.5504 15.3226)" fill="black" stroke="#434343" stroke-opacity="0.5" stroke-width="0.5"/>
<circle cx="13.3888" cy="10.9365" r="0.437471" fill="black" stroke="#434343" stroke-opacity="0.5" stroke-width="0.5"/>
<circle cx="9.01376" cy="17.936" r="0.437471" fill="black" stroke="#434343" stroke-opacity="0.5" stroke-width="0.5"/>
</g>
<defs>
<filter id="filter0_i_21_7687" x="0.015625" y="15.6318" width="41.938" height="24.208" filterUnits="userSpaceOnUse" color-interpolation-filters="sRGB">
<feFlood flood-opacity="0" result="BackgroundImageFix"/>
<feBlend mode="normal" in="SourceGraphic" in2="BackgroundImageFix" result="shape"/>
<feColorMatrix in="SourceAlpha" type="matrix" values="0 0 0 0 0 0 0 0 0 0 0 0 0 0 0 0 0 0 127 0" result="hardAlpha"/>
<feOffset dy="-1"/>
<feComposite in2="hardAlpha" operator="arithmetic" k2="-1" k3="1"/>
<feColorMatrix type="matrix" values="0 0 0 0 1 0 0 0 0 0.7 0 0 0 0 0.5375 0 0 0 0.75 0"/>
<feBlend mode="normal" in2="shape" result="effect1_innerShadow_21_7687"/>
</filter>
<filter id="filter1_ii_21_7687" x="18.3751" y="0.65625" width="5.92773" height="27.1562" filterUnits="userSpaceOnUse" color-interpolation-filters="sRGB">
<feFlood flood-opacity="0" result="BackgroundImageFix"/>
<feBlend mode="normal" in="SourceGraphic" in2="BackgroundImageFix" result="shape"/>
<feColorMatrix in="SourceAlpha" type="matrix" values="0 0 0 0 0 0 0 0 0 0 0 0 0 0 0 0 0 0 127 0" result="hardAlpha"/>
<feOffset dy="0.5"/>
<feGaussianBlur stdDeviation="0.125"/>
<feComposite in2="hardAlpha" operator="arithmetic" k2="-1" k3="1"/>
<feColorMatrix type="matrix" values="0 0 0 0 0.718185 0 0 0 0 1 0 0 0 0 0.695833 0 0 0 0.75 0"/>
<feBlend mode="normal" in2="shape" result="effect1_innerShadow_21_7687"/>
<feColorMatrix in="SourceAlpha" type="matrix" values="0 0 0 0 0 0 0 0 0 0 0 0 0 0 0 0 0 0 127 0" result="hardAlpha"/>
<feOffset dx="2"/>
<feGaussianBlur stdDeviation="2.5"/>
<feComposite in2="hardAlpha" operator="arithmetic" k2="-1" k3="1"/>
<feColorMatrix type="matrix" values="0 0 0 0 0.00740157 0 0 0 0 0.0958333 0 0 0 0 0 0 0 0 0.5 0"/>
<feBlend mode="normal" in2="effect1_innerShadow_21_7687" result="effect2_innerShadow_21_7687"/>
</filter>
<filter id="filter2_i_21_7687" x="19.0314" y="0" width="2.625" height="1.3125" filterUnits="userSpaceOnUse" color-interpolation-filters="sRGB">
<feFlood flood-opacity="0" result="BackgroundImageFix"/>
<feBlend mode="normal" in="SourceGraphic" in2="BackgroundImageFix" result="shape"/>
<feColorMatrix in="SourceAlpha" type="matrix" values="0 0 0 0 0 0 0 0 0 0 0 0 0 0 0 0 0 0 127 0" result="hardAlpha"/>
<feOffset/>
<feGaussianBlur stdDeviation="0.5"/>
<feComposite in2="hardAlpha" operator="arithmetic" k2="-1" k3="1"/>
<feColorMatrix type="matrix" values="0 0 0 0 0.718185 0 0 0 0 1 0 0 0 0 0.695833 0 0 0 0.75 0"/>
<feBlend mode="normal" in2="shape" result="effect1_innerShadow_21_7687"/>
</filter>
<filter id="filter3_i_21_7687" x="19.517" y="2.6499" width="9.92834" height="11.9844" filterUnits="userSpaceOnUse" color-interpolation-filters="sRGB">
<feFlood flood-opacity="0" result="BackgroundImageFix"/>
<feBlend mode="normal" in="SourceGraphic" in2="BackgroundImageFix" result="shape"/>
<feColorMatrix in="SourceAlpha" type="matrix" values="0 0 0 0 0 0 0 0 0 0 0 0 0 0 0 0 0 0 127 0" result="hardAlpha"/>
<feOffset dy="-0.5"/>
<feGaussianBlur stdDeviation="0.5"/>
<feComposite in2="hardAlpha" operator="arithmetic" k2="-1" k3="1"/>
<feColorMatrix type="matrix" values="0 0 0 0 0.0211268 0 0 0 0 0.2875 0 0 0 0 0 0 0 0 0.9 0"/>
<feBlend mode="normal" in2="shape" result="effect1_innerShadow_21_7687"/>
</filter>
<filter id="filter4_i_21_7687" x="21.3905" y="2.14551" width="18.7716" height="19.4102" filterUnits="userSpaceOnUse" color-interpolation-filters="sRGB">
<feFlood flood-opacity="0" result="BackgroundImageFix"/>
<feBlend mode="normal" in="SourceGraphic" in2="BackgroundImageFix" result="shape"/>
<feColorMatrix in="SourceAlpha" type="matrix" values="0 0 0 0 0 0 0 0 0 0 0 0 0 0 0 0 0 0 127 0" result="hardAlpha"/>
<feOffset dy="-0.5"/>
<feGaussianBlur stdDeviation="0.5"/>
<feComposite in2="hardAlpha" operator="arithmetic" k2="-1" k3="1"/>
<feColorMatrix type="matrix" values="0 0 0 0 0.0211268 0 0 0 0 0.2875 0 0 0 0 0 0 0 0 0.9 0"/>
<feBlend mode="normal" in2="shape" result="effect1_innerShadow_21_7687"/>
</filter>
<filter id="filter5_i_21_7687" x="11.334" y="9.99951" width="9.92834" height="11.9844" filterUnits="userSpaceOnUse" color-interpolation-filters="sRGB">
<feFlood flood-opacity="0" result="BackgroundImageFix"/>
<feBlend mode="normal" in="SourceGraphic" in2="BackgroundImageFix" result="shape"/>
<feColorMatrix in="SourceAlpha" type="matrix" values="0 0 0 0 0 0 0 0 0 0 0 0 0 0 0 0 0 0 127 0" result="hardAlpha"/>
<feOffset dy="-0.5"/>
<feGaussianBlur stdDeviation="0.5"/>
<feComposite in2="hardAlpha" operator="arithmetic" k2="-1" k3="1"/>
<feColorMatrix type="matrix" values="0 0 0 0 0.0211268 0 0 0 0 0.2875 0 0 0 0 0 0 0 0 0.9 0"/>
<feBlend mode="normal" in2="shape" result="effect1_innerShadow_21_7687"/>
</filter>
<filter id="filter6_i_21_7687" x="0.617188" y="9.49512" width="18.7716" height="19.4102" filterUnits="userSpaceOnUse" color-interpolation-filters="sRGB">
<feFlood flood-opacity="0" result="BackgroundImageFix"/>
<feBlend mode="normal" in="SourceGraphic" in2="BackgroundImageFix" result="shape"/>
<feColorMatrix in="SourceAlpha" type="matrix" values="0 0 0 0 0 0 0 0 0 0 0 0 0 0 0 0 0 0 127 0" result="hardAlpha"/>
<feOffset dy="-0.5"/>
<feGaussianBlur stdDeviation="0.5"/>
<feComposite in2="hardAlpha" operator="arithmetic" k2="-1" k3="1"/>
<feColorMatrix type="matrix" values="0 0 0 0 0.0211268 0 0 0 0 0.2875 0 0 0 0 0 0 0 0 0.9 0"/>
<feBlend mode="normal" in2="shape" result="effect1_innerShadow_21_7687"/>
</filter>
<linearGradient id="paint0_linear_21_7687" x1="0" y1="28.9708" x2="42" y2="28.9708" gradientUnits="userSpaceOnUse">
<stop stop-color="#7B4F39"/>
<stop offset="0.0001" stop-color="#5F312D"/>
<stop offset="1" stop-color="#9B6B51"/>
</linearGradient>
<linearGradient id="paint1_linear_21_7687" x1="1.13477" y1="11.1389" x2="0.241543" y2="40.1352" gradientUnits="userSpaceOnUse">
<stop stop-color="#E6FFB1"/>
<stop offset="1" stop-color="#00750C"/>
</linearGradient>
<linearGradient id="paint2_linear_21_7687" x1="11.8498" y1="26.0044" x2="30.2597" y2="26.0044" gradientUnits="userSpaceOnUse">
<stop offset="0.00558659" stop-color="#A65953"/>
<stop offset="1" stop-color="#D09270"/>
</linearGradient>
<linearGradient id="paint3_linear_21_7687" x1="27.3301" y1="29.2031" x2="-0.560546" y2="15.75" gradientUnits="userSpaceOnUse">
<stop stop-color="#0F0F0F"/>
<stop offset="0.0001" stop-opacity="0.984375"/>
<stop offset="1" stop-opacity="0"/>
<stop offset="1" stop-opacity="0"/>
</linearGradient>
<linearGradient id="paint4_linear_21_7687" x1="24.463" y1="-7.875" x2="20.6477" y2="25.4855" gradientUnits="userSpaceOnUse">
<stop stop-color="#85BB59"/>
<stop offset="1" stop-color="#016B00"/>
</linearGradient>
<linearGradient id="paint5_linear_21_7687" x1="23.09" y1="-1.3125" x2="23.0687" y2="1.23229" gradientUnits="userSpaceOnUse">
<stop stop-color="#016B00"/>
<stop offset="1" stop-color="#85BB59"/>
</linearGradient>
<linearGradient id="paint6_linear_21_7687" x1="3.68284" y1="31.1392" x2="13.5624" y2="23.6392" gradientUnits="userSpaceOnUse">
<stop stop-color="#C4C4C4"/>
<stop offset="0.0001" stop-opacity="0.984375"/>
<stop offset="1" stop-opacity="0"/>
<stop offset="1" stop-opacity="0"/>
</linearGradient>
<linearGradient id="paint7_linear_21_7687" x1="27.9534" y1="16.9312" x2="27.3062" y2="5.70804" gradientUnits="userSpaceOnUse">
<stop stop-color="#25863A"/>
<stop offset="1" stop-color="#020300"/>
</linearGradient>
<linearGradient id="paint8_linear_21_7687" x1="27.923" y1="22.9129" x2="24.6334" y2="4.03535" gradientUnits="userSpaceOnUse">
<stop stop-color="#98C55F"/>
<stop offset="0.177848" stop-color="#489744"/>
<stop offset="0.464332" stop-color="#AED166"/>
<stop offset="0.697907" stop-color="#7AB354"/>
<stop offset="0.857818" stop-color="#AED166"/>
</linearGradient>
<linearGradient id="paint9_linear_21_7687" x1="27.923" y1="22.9126" x2="24.6334" y2="4.03511" gradientUnits="userSpaceOnUse">
<stop stop-color="#98C55F"/>
<stop offset="0.177848" stop-color="#489744"/>
<stop offset="0.464332" stop-color="#AED166"/>
<stop offset="0.697907" stop-color="#7AB354"/>
<stop offset="0.857818" stop-color="#AED166"/>
</linearGradient>
<linearGradient id="paint10_linear_21_7687" x1="12.8259" y1="24.2808" x2="13.4731" y2="13.0577" gradientUnits="userSpaceOnUse">
<stop stop-color="#25863A"/>
<stop offset="1" stop-color="#020300"/>
</linearGradient>
<linearGradient id="paint11_linear_21_7687" x1="12.8563" y1="30.2625" x2="16.1459" y2="11.385" gradientUnits="userSpaceOnUse">
<stop stop-color="#98C55F"/>
<stop offset="0.177848" stop-color="#489744"/>
<stop offset="0.464332" stop-color="#AED166"/>
<stop offset="0.697907" stop-color="#7AB354"/>
<stop offset="0.857818" stop-color="#AED166"/>
</linearGradient>
<linearGradient id="paint12_linear_21_7687" x1="12.8563" y1="30.2622" x2="16.1459" y2="11.3847" gradientUnits="userSpaceOnUse">
<stop stop-color="#98C55F"/>
<stop offset="0.177848" stop-color="#489744"/>
<stop offset="0.464332" stop-color="#AED166"/>
<stop offset="0.697907" stop-color="#7AB354"/>
<stop offset="0.857818" stop-color="#AED166"/>
</linearGradient>
</defs>
</svg>
