<svg width="42" height="42" viewBox="0 0 42 42" fill="none" xmlns="http://www.w3.org/2000/svg">
<path d="M40.8741 28.3834C41.5459 28.7673 42.1217 25.5042 41.9777 29.823C41.9777 30.3989 41.6418 30.9747 40.9221 31.4066L23.6958 41.388C22.2563 42.2038 19.9051 42.2038 18.4656 41.388L1.14337 31.4066C0.423614 30.9747 0.0877243 30.4469 0.0397403 29.871C-0.152196 25.1682 0.375627 28.7673 1.09539 28.3354L18.3216 18.354C19.7612 17.5382 22.1124 17.5382 23.5519 18.354L40.8741 28.3834Z" fill="url(#paint0_linear_21_7754)"/>
<g filter="url(#filter0_i_21_7754)">
<path d="M40.874 26.226C42.3135 27.0418 42.3135 28.4335 40.874 29.2493L23.6477 39.2307C22.2082 40.0464 19.857 40.0464 18.4175 39.2307L1.09526 29.2493C-0.344255 28.4335 -0.344255 27.0418 1.09526 26.226L18.3215 16.2447C19.761 15.4289 22.1122 15.4289 23.5518 16.2447L40.874 26.226Z" fill="url(#paint1_linear_21_7754)"/>
</g>
<path d="M29.1575 28.6572C30.8945 27.4378 30.5085 24.3893 28.7716 23.4748C25.8767 21.9506 23.3213 21.6577 22.2941 21.6577C20.6962 21.6577 15.6481 22.5603 13.1392 24.3893C11.9812 25.3039 11.5952 26.8281 12.1742 28.3523C12.9462 29.8765 14.8915 31.1265 18.1724 32.0411C22.0323 32.6508 26.2627 30.7911 29.1575 28.6572Z" fill="url(#paint2_linear_21_7754)"/>
<path opacity="0.5" d="M12.5645 20.6733C13.877 21.0015 16.8465 21.6498 23.7207 26.2519C23.7207 26.2519 23.202 27.5645 20.4313 27.5645C16.8301 27.5645 11.5801 23.9548 8.29883 22.3141L12.5645 20.6733Z" fill="url(#paint3_linear_21_7754)"/>
<ellipse opacity="0.3" cx="20.4395" cy="26.2521" rx="4.59375" ry="1.96889" fill="black" fill-opacity="0.5"/>
<g filter="url(#filter1_ii_21_7754)">
<path d="M18.9004 26.3802C18.9004 15.7773 19.1117 10.8527 19.4267 8.40088H21.532C21.7951 11.3974 22.0504 17.697 22.0504 26.3802C22.0504 26.3802 21.8087 27.3023 20.4754 27.3023C19.1421 27.3023 18.9004 26.3802 18.9004 26.3802Z" fill="url(#paint4_linear_21_7754)"/>
<path d="M18.9004 26.3802C18.9004 15.7773 19.1117 10.8527 19.4267 8.40088H21.532C21.7951 11.3974 22.0504 17.697 22.0504 26.3802C22.0504 26.3802 21.8087 27.3023 20.4754 27.3023C19.1421 27.3023 18.9004 26.3802 18.9004 26.3802Z" fill="black" fill-opacity="0.2"/>
</g>
<g filter="url(#filter2_i_21_7754)">
<ellipse cx="20.3438" cy="8.00688" rx="1.3125" ry="0.656298" fill="url(#paint5_linear_21_7754)"/>
</g>
<path d="M11.239 29.2082C14.9152 28.9632 17.1488 28.4707 17.8061 28.255L12.578 23.636L3.36565 28.8426C4.45834 29.0666 7.56279 29.4533 11.239 29.2082Z" fill="url(#paint6_linear_21_7754)"/>
<path d="M29.5076 28.7833C25.1645 28.5098 22.5275 27.9855 21.752 27.7575L27.9565 22.9707L38.8145 28.2211C37.5218 28.449 33.8508 29.0568 29.5076 28.7833Z" fill="url(#paint7_linear_21_7754)"/>
<g filter="url(#filter3_i_21_7754)">
<path d="M20.7493 9.93342C21.7416 9.41248 23.0855 8.6563 26.4228 8.40088C28.8702 8.6563 30.5607 10.0356 28.4248 10.4443C26.2889 10.8529 22.989 13.2539 22.3215 17.5961C22.3215 17.5961 21.9878 17.8516 21.0825 17.8516C19.9854 17.8516 18.9842 17.5961 18.9842 17.5961C18.9842 13.7648 18.3167 11.2105 20.7493 9.93342Z" fill="url(#paint8_linear_21_7754)"/>
</g>
<g filter="url(#filter4_i_21_7754)">
<path d="M29.3289 8.5196C25.6906 7.97596 21.5767 9.42318 19.9512 10.3543C21.2641 10.2335 19.9512 12.0909 19.9512 14.0523C19.9512 16.0617 20.9998 16.9375 21.5633 18.3341C22.2715 20.0893 22.6699 19.9885 23.1388 21.4482C23.5295 22.6646 24.7142 24.1623 27.8652 26.1193C32.5915 28.3523 34.9556 28.3523 38.3316 28.3523C37.9565 27.235 37.8431 25.1804 37.8431 23.7837C37.8431 22.632 38.3945 21.3509 38.8934 19.5019C39.4185 17.5556 37.4392 16.2719 36.3138 14.8753C33.6976 11.6282 37.5964 9.75493 29.3289 8.5196Z" fill="url(#paint9_linear_21_7754)"/>
</g>
<mask id="mask0_21_7754" style="mask-type:alpha" maskUnits="userSpaceOnUse" x="19" y="8" width="20" height="21">
<path d="M29.594 8.51957C25.8529 7.97606 21.6226 9.42292 19.9512 10.3538C21.3012 10.233 20.9638 11.8602 22.3138 13.5628C24.0496 15.7518 23.4226 16.0598 23.8083 17.4561C24.194 18.8524 26.0262 19.353 26.5083 20.8123C26.9101 22.0285 25.3253 22.7692 26.5083 24.9962C28.4369 28.6266 35.3797 28.3474 38.8512 28.3474C38.4655 27.2303 37.3083 25.5547 37.3083 24.1584C37.3083 23.007 38.8512 21.645 38.4655 19.6902C38.1337 18.0086 36.9226 17.4561 35.7655 16.0597C33.0752 12.8134 38.0952 9.7546 29.594 8.51957Z" fill="url(#paint10_linear_21_7754)"/>
</mask>
<g mask="url(#mask0_21_7754)">
<path opacity="0.75" d="M25.0329 1.96892C26.4548 1.85954 19.7755 6.82486 20.563 9.18753C21.5474 12.1409 28.2192 10.3904 28.8755 14C29.5317 17.6097 31.6099 15.6404 31.938 19.25C32.2661 22.8597 31.5954 21.6576 32.9079 23.6265C33.9579 25.2017 36.1891 26.6893 37.1735 27.2362" stroke="#2F7928" stroke-miterlimit="10" stroke-linecap="round" stroke-linejoin="round"/>
<ellipse cx="32.8125" cy="26.688" rx="0.437471" ry="0.437503" fill="black" stroke="black" stroke-opacity="0.5" stroke-width="0.5"/>
<ellipse cx="35.4375" cy="20.563" rx="0.437471" ry="0.437503" fill="#B2A76A" stroke="black" stroke-opacity="0.5" stroke-width="0.5"/>
<ellipse cx="24.4375" cy="15.4375" rx="0.437471" ry="0.437503" fill="#B2A76A" stroke="black" stroke-opacity="0.5" stroke-width="0.5"/>
<ellipse cx="33.4375" cy="18.4375" rx="0.437471" ry="0.437503" fill="#B2A76A" stroke="black" stroke-opacity="0.5" stroke-width="0.5"/>
<ellipse cx="28.3508" cy="22.052" rx="1.05" ry="1.05008" fill="#D0A127" stroke="black" stroke-opacity="0.5" stroke-width="0.5"/>
<ellipse cx="27.05" cy="10.0501" rx="1.05" ry="1.05008" fill="#D0A127" stroke="black" stroke-opacity="0.5" stroke-width="0.5"/>
<ellipse cx="30.1875" cy="24.063" rx="0.437471" ry="0.437503" fill="black" stroke="black" stroke-opacity="0.5" stroke-width="0.5"/>
<ellipse cx="0.437502" cy="0.437471" rx="0.437502" ry="0.437471" transform="matrix(0.0885748 0.99607 -0.996068 0.0885875 25.3713 12.2246)" fill="black" stroke="black" stroke-opacity="0.5" stroke-width="0.5"/>
<ellipse cx="25.8125" cy="8.31299" rx="0.437471" ry="0.437503" fill="black" stroke="black" stroke-opacity="0.5" stroke-width="0.5"/>
<ellipse cx="26.6875" cy="17.938" rx="0.437471" ry="0.437503" fill="black" stroke="black" stroke-opacity="0.5" stroke-width="0.5"/>
<ellipse cx="33.077" cy="9.97599" rx="1.575" ry="1.57511" fill="#D0A127" stroke="black" stroke-opacity="0.5" stroke-width="0.5"/>
<ellipse cx="32.8125" cy="12.688" rx="0.437471" ry="0.437503" fill="black" stroke="black" stroke-opacity="0.5" stroke-width="0.5"/>
<ellipse cx="31.9375" cy="21.438" rx="0.437471" ry="0.437503" fill="black" stroke="black" stroke-opacity="0.5" stroke-width="0.5"/>
<ellipse cx="34.5625" cy="23.188" rx="0.437471" ry="0.437503" fill="black" stroke="black" stroke-opacity="0.5" stroke-width="0.5"/>
<ellipse cx="0.437502" cy="0.437471" rx="0.437502" ry="0.437471" transform="matrix(0.0885748 0.99607 -0.996068 0.0885875 36.7461 25.3755)" fill="black" stroke="black" stroke-opacity="0.5" stroke-width="0.5"/>
<ellipse cx="37.1855" cy="20.563" rx="0.437471" ry="0.437503" fill="black" stroke="black" stroke-opacity="0.5" stroke-width="0.5"/>
</g>
<g filter="url(#filter5_i_21_7754)">
<path d="M21.4217 12.4699C20.7656 11.4854 19.7812 11.1573 18.1406 10.501C15.7344 10.8291 10.7905 11.9448 12.8905 12.4699C14.9905 12.9949 18.0458 15.4232 18.3739 21.0017C18.702 21.2205 18.8429 21.9862 20.1094 21.9862C21.327 21.9862 21.9833 21.3299 22.3114 21.0017C22.3114 16.0795 22.2092 13.2574 21.4217 12.4699Z" fill="url(#paint11_linear_21_7754)"/>
</g>
<g filter="url(#filter6_i_21_7754)">
<path d="M11.9063 8.53206C15.7031 8.35675 18.8125 10.6294 20.4375 11.5159C19.4531 11.4679 19.6711 12.6805 19.9493 14.1764C20.4375 16.8016 20.4743 16.0493 19.9493 18.3767C19.4243 20.7041 18.9175 21.219 18.3743 22.577C17.7181 24.2177 17.9495 24.1314 16.7993 26.2522C14.9243 29.7095 6.75 28.903 3.375 28.903C3.75 27.8392 4.875 26.2435 4.875 24.9138C4.875 23.8173 4.59216 22.8747 4.19932 21.0019C3.71113 18.6744 4.25313 16.6745 4.6875 15.2264C5.67188 11.945 7.3125 8.74416 11.9063 8.53206Z" fill="url(#paint12_linear_21_7754)"/>
</g>
<mask id="mask1_21_7754" style="mask-type:alpha" maskUnits="userSpaceOnUse" x="3" y="8" width="18" height="21">
<path d="M11.9063 8.53206C15.7031 8.35675 18.8125 10.6294 20.4375 11.5159C19.4531 11.4679 18.5819 11.5159 17.8125 12.8285C16.6996 14.7272 17.5313 17.0773 17.1563 18.407C16.7813 19.7368 15.9182 20.3305 15.375 21.6885C14.7188 23.3293 16.5252 23.5908 15.375 25.7116C13.5 29.1689 6.75 28.903 3.375 28.903C3.75 27.8392 4.875 26.2435 4.875 24.9138C4.875 23.8173 4.3125 22.5657 4.6875 20.7041C5.01009 19.1027 6.87813 17.8862 7.3125 16.4381C8.29688 13.1567 7.3125 8.74416 11.9063 8.53206Z" fill="url(#paint13_linear_21_7754)"/>
</mask>
<g mask="url(#mask1_21_7754)">
<path opacity="0.75" d="M17.1565 9.84483C15.9534 9.62607 13.2846 9.64794 12.2346 11.4856C10.9221 13.7826 12.5627 15.4232 11.9065 16.7358C11.2502 18.0484 9.9375 19.361 9.28125 21.3299C8.625 23.2988 9.60937 24.2833 8.95312 25.2677C8.42812 26.0553 5.89062 27.5647 4.6875 28.221" stroke="#2F7928" stroke-miterlimit="10" stroke-linecap="round" stroke-linejoin="round"/>
<ellipse cx="10.9375" cy="26.688" rx="0.437471" ry="0.437503" fill="#B2A76A" stroke="black" stroke-opacity="0.5" stroke-width="0.5"/>
<ellipse cx="8.43747" cy="20.4375" rx="0.437471" ry="0.437503" fill="#B2A76A" stroke="black" stroke-opacity="0.5" stroke-width="0.5"/>
<ellipse cx="11.4375" cy="9.4375" rx="0.437471" ry="0.437503" fill="#B2A76A" stroke="black" stroke-opacity="0.5" stroke-width="0.5"/>
<ellipse cx="14.4375" cy="12.4375" rx="0.437471" ry="0.437503" fill="#B2A76A" stroke="black" stroke-opacity="0.5" stroke-width="0.5"/>
<ellipse cx="8.43747" cy="20.4375" rx="0.437471" ry="0.437503" fill="#B2A76A" stroke="black" stroke-opacity="0.5" stroke-width="0.5"/>
<ellipse cx="5.68747" cy="26.688" rx="0.437471" ry="0.437503" fill="black" stroke="black" stroke-opacity="0.5" stroke-width="0.5"/>
<ellipse cx="10.0625" cy="15.313" rx="0.437471" ry="0.437503" fill="#4B3F3F" stroke="black" stroke-opacity="0.5" stroke-width="0.5"/>
<ellipse cx="7.43747" cy="18.813" rx="0.437471" ry="0.437503" fill="black" stroke="black" stroke-opacity="0.5" stroke-width="0.5"/>
<ellipse cx="17.0605" cy="11.813" rx="0.437471" ry="0.437503" fill="#3C3A3A" stroke="black" stroke-opacity="0.5" stroke-width="0.5"/>
<ellipse cx="16.1855" cy="23.188" rx="0.437471" ry="0.437503" fill="black" stroke="black" stroke-opacity="0.5" stroke-width="0.5"/>
<ellipse cx="6.56247" cy="21.438" rx="0.437471" ry="0.437503" fill="black" stroke="black" stroke-opacity="0.5" stroke-width="0.5"/>
<ellipse cx="16.1855" cy="14.438" rx="0.437471" ry="0.437503" fill="black" stroke="black" stroke-opacity="0.5" stroke-width="0.5"/>
<ellipse cx="18.8105" cy="16.188" rx="0.437471" ry="0.437503" fill="black" stroke="black" stroke-opacity="0.5" stroke-width="0.5"/>
<ellipse cx="0.836052" cy="0.835992" rx="0.836052" ry="0.835992" transform="matrix(0.0885748 0.99607 -0.996068 0.0885875 9.66541 13)" fill="#D0A127" stroke="black" stroke-opacity="0.5" stroke-width="0.5"/>
<ellipse cx="0.836052" cy="0.835992" rx="0.836052" ry="0.835992" transform="matrix(0.0885748 0.99607 -0.996068 0.0885875 15.6654 18)" fill="#D0A127" stroke="black" stroke-opacity="0.5" stroke-width="0.5"/>
</g>
<ellipse cx="0.836052" cy="0.835992" rx="0.836052" ry="0.835992" transform="matrix(0.0885748 0.99607 -0.996068 0.0885875 13.6654 22)" fill="#D0A127" stroke="black" stroke-opacity="0.5" stroke-width="0.5"/>
<ellipse cx="0.836052" cy="0.835992" rx="0.836052" ry="0.835992" transform="matrix(0.0885748 0.99607 -0.996068 0.0885875 8.66541 23)" fill="#D0A127" stroke="black" stroke-opacity="0.5" stroke-width="0.5"/>
<ellipse cx="14.05" cy="15.0501" rx="1.05" ry="1.05008" fill="#D0A127" stroke="black" stroke-opacity="0.5" stroke-width="0.5"/>
<ellipse cx="0.836052" cy="0.835992" rx="0.836052" ry="0.835992" transform="matrix(0.0885748 0.99607 -0.996068 0.0885875 33.6654 15)" fill="#D0A127" stroke="black" stroke-opacity="0.5" stroke-width="0.5"/>
<ellipse cx="0.836052" cy="0.835992" rx="0.836052" ry="0.835992" transform="matrix(0.0885748 0.99607 -0.996068 0.0885875 30.6654 18)" fill="#D0A127" stroke="black" stroke-opacity="0.5" stroke-width="0.5"/>
<ellipse cx="0.836052" cy="0.835992" rx="0.836052" ry="0.835992" transform="matrix(0.0885748 0.99607 -0.996068 0.0885875 10.6654 17)" fill="#D0A127" stroke="black" stroke-opacity="0.5" stroke-width="0.5"/>
<ellipse cx="0.836052" cy="0.835992" rx="0.836052" ry="0.835992" transform="matrix(0.0885748 0.99607 -0.996068 0.0885875 27.6654 14)" fill="#D0A127" stroke="black" stroke-opacity="0.5" stroke-width="0.5"/>
<ellipse cx="0.836052" cy="0.835992" rx="0.836052" ry="0.835992" transform="matrix(0.0885748 0.99607 -0.996068 0.0885875 35.6654 22)" fill="#D0A127" stroke="black" stroke-opacity="0.5" stroke-width="0.5"/>
<defs>
<filter id="filter0_i_21_7754" x="0.015625" y="15.6328" width="41.938" height="24.2095" filterUnits="userSpaceOnUse" color-interpolation-filters="sRGB">
<feFlood flood-opacity="0" result="BackgroundImageFix"/>
<feBlend mode="normal" in="SourceGraphic" in2="BackgroundImageFix" result="shape"/>
<feColorMatrix in="SourceAlpha" type="matrix" values="0 0 0 0 0 0 0 0 0 0 0 0 0 0 0 0 0 0 127 0" result="hardAlpha"/>
<feOffset dy="-1"/>
<feComposite in2="hardAlpha" operator="arithmetic" k2="-1" k3="1"/>
<feColorMatrix type="matrix" values="0 0 0 0 1 0 0 0 0 0.7 0 0 0 0 0.5375 0 0 0 0.75 0"/>
<feBlend mode="normal" in2="shape" result="effect1_innerShadow_21_7754"/>
</filter>
<filter id="filter1_ii_21_7754" x="18.9004" y="8.40088" width="5.15002" height="19.1514" filterUnits="userSpaceOnUse" color-interpolation-filters="sRGB">
<feFlood flood-opacity="0" result="BackgroundImageFix"/>
<feBlend mode="normal" in="SourceGraphic" in2="BackgroundImageFix" result="shape"/>
<feColorMatrix in="SourceAlpha" type="matrix" values="0 0 0 0 0 0 0 0 0 0 0 0 0 0 0 0 0 0 127 0" result="hardAlpha"/>
<feOffset dy="0.5"/>
<feGaussianBlur stdDeviation="0.125"/>
<feComposite in2="hardAlpha" operator="arithmetic" k2="-1" k3="1"/>
<feColorMatrix type="matrix" values="0 0 0 0 0.718185 0 0 0 0 1 0 0 0 0 0.695833 0 0 0 0.75 0"/>
<feBlend mode="normal" in2="shape" result="effect1_innerShadow_21_7754"/>
<feColorMatrix in="SourceAlpha" type="matrix" values="0 0 0 0 0 0 0 0 0 0 0 0 0 0 0 0 0 0 127 0" result="hardAlpha"/>
<feOffset dx="2"/>
<feGaussianBlur stdDeviation="2.5"/>
<feComposite in2="hardAlpha" operator="arithmetic" k2="-1" k3="1"/>
<feColorMatrix type="matrix" values="0 0 0 0 0.00740157 0 0 0 0 0.0958333 0 0 0 0 0 0 0 0 0.5 0"/>
<feBlend mode="normal" in2="effect1_innerShadow_21_7754" result="effect2_innerShadow_21_7754"/>
</filter>
<filter id="filter2_i_21_7754" x="19.0312" y="7.35059" width="2.625" height="1.3125" filterUnits="userSpaceOnUse" color-interpolation-filters="sRGB">
<feFlood flood-opacity="0" result="BackgroundImageFix"/>
<feBlend mode="normal" in="SourceGraphic" in2="BackgroundImageFix" result="shape"/>
<feColorMatrix in="SourceAlpha" type="matrix" values="0 0 0 0 0 0 0 0 0 0 0 0 0 0 0 0 0 0 127 0" result="hardAlpha"/>
<feOffset/>
<feGaussianBlur stdDeviation="0.5"/>
<feComposite in2="hardAlpha" operator="arithmetic" k2="-1" k3="1"/>
<feColorMatrix type="matrix" values="0 0 0 0 0.718185 0 0 0 0 1 0 0 0 0 0.695833 0 0 0 0.75 0"/>
<feBlend mode="normal" in2="shape" result="effect1_innerShadow_21_7754"/>
</filter>
<filter id="filter3_i_21_7754" x="18.9004" y="7.90088" width="10.5" height="9.95068" filterUnits="userSpaceOnUse" color-interpolation-filters="sRGB">
<feFlood flood-opacity="0" result="BackgroundImageFix"/>
<feBlend mode="normal" in="SourceGraphic" in2="BackgroundImageFix" result="shape"/>
<feColorMatrix in="SourceAlpha" type="matrix" values="0 0 0 0 0 0 0 0 0 0 0 0 0 0 0 0 0 0 127 0" result="hardAlpha"/>
<feOffset dy="-0.5"/>
<feGaussianBlur stdDeviation="0.5"/>
<feComposite in2="hardAlpha" operator="arithmetic" k2="-1" k3="1"/>
<feColorMatrix type="matrix" values="0 0 0 0 0.0211268 0 0 0 0 0.2875 0 0 0 0 0 0 0 0 0.9 0"/>
<feBlend mode="normal" in2="shape" result="effect1_innerShadow_21_7754"/>
</filter>
<filter id="filter4_i_21_7754" x="19.9512" y="7.90088" width="19.0292" height="20.4517" filterUnits="userSpaceOnUse" color-interpolation-filters="sRGB">
<feFlood flood-opacity="0" result="BackgroundImageFix"/>
<feBlend mode="normal" in="SourceGraphic" in2="BackgroundImageFix" result="shape"/>
<feColorMatrix in="SourceAlpha" type="matrix" values="0 0 0 0 0 0 0 0 0 0 0 0 0 0 0 0 0 0 127 0" result="hardAlpha"/>
<feOffset dy="-0.5"/>
<feGaussianBlur stdDeviation="0.5"/>
<feComposite in2="hardAlpha" operator="arithmetic" k2="-1" k3="1"/>
<feColorMatrix type="matrix" values="0 0 0 0 0.0211268 0 0 0 0 0.2875 0 0 0 0 0 0 0 0 0.9 0"/>
<feBlend mode="normal" in2="shape" result="effect1_innerShadow_21_7754"/>
</filter>
<filter id="filter5_i_21_7754" x="12.3831" y="10.001" width="9.92834" height="11.9854" filterUnits="userSpaceOnUse" color-interpolation-filters="sRGB">
<feFlood flood-opacity="0" result="BackgroundImageFix"/>
<feBlend mode="normal" in="SourceGraphic" in2="BackgroundImageFix" result="shape"/>
<feColorMatrix in="SourceAlpha" type="matrix" values="0 0 0 0 0 0 0 0 0 0 0 0 0 0 0 0 0 0 127 0" result="hardAlpha"/>
<feOffset dy="-0.5"/>
<feGaussianBlur stdDeviation="0.5"/>
<feComposite in2="hardAlpha" operator="arithmetic" k2="-1" k3="1"/>
<feColorMatrix type="matrix" values="0 0 0 0 0.0211268 0 0 0 0 0.2875 0 0 0 0 0 0 0 0 0.9 0"/>
<feBlend mode="normal" in2="shape" result="effect1_innerShadow_21_7754"/>
</filter>
<filter id="filter6_i_21_7754" x="3.375" y="8.02246" width="17.0625" height="20.9624" filterUnits="userSpaceOnUse" color-interpolation-filters="sRGB">
<feFlood flood-opacity="0" result="BackgroundImageFix"/>
<feBlend mode="normal" in="SourceGraphic" in2="BackgroundImageFix" result="shape"/>
<feColorMatrix in="SourceAlpha" type="matrix" values="0 0 0 0 0 0 0 0 0 0 0 0 0 0 0 0 0 0 127 0" result="hardAlpha"/>
<feOffset dy="-0.5"/>
<feGaussianBlur stdDeviation="0.5"/>
<feComposite in2="hardAlpha" operator="arithmetic" k2="-1" k3="1"/>
<feColorMatrix type="matrix" values="0 0 0 0 0.0211268 0 0 0 0 0.2875 0 0 0 0 0 0 0 0 0.9 0"/>
<feBlend mode="normal" in2="shape" result="effect1_innerShadow_21_7754"/>
</filter>
<linearGradient id="paint0_linear_21_7754" x1="0" y1="28.9726" x2="42" y2="28.9726" gradientUnits="userSpaceOnUse">
<stop stop-color="#7B4F39"/>
<stop offset="0.0001" stop-color="#5F312D"/>
<stop offset="1" stop-color="#9B6B51"/>
</linearGradient>
<linearGradient id="paint1_linear_21_7754" x1="1.13477" y1="11.1395" x2="0.241413" y2="40.138" gradientUnits="userSpaceOnUse">
<stop stop-color="#E6FFB1"/>
<stop offset="1" stop-color="#00750C"/>
</linearGradient>
<linearGradient id="paint2_linear_21_7754" x1="11.8498" y1="26.0061" x2="30.2597" y2="26.0061" gradientUnits="userSpaceOnUse">
<stop offset="0.00558659" stop-color="#A65953"/>
<stop offset="1" stop-color="#D09270"/>
</linearGradient>
<linearGradient id="paint3_linear_21_7754" x1="27.3301" y1="29.2052" x2="-0.561311" y2="15.7527" gradientUnits="userSpaceOnUse">
<stop stop-color="#0F0F0F"/>
<stop offset="0.0001" stop-opacity="0.984375"/>
<stop offset="1" stop-opacity="0"/>
<stop offset="1" stop-opacity="0"/>
</linearGradient>
<linearGradient id="paint4_linear_21_7754" x1="23.7829" y1="2.40776" x2="21.4282" y2="25.9138" gradientUnits="userSpaceOnUse">
<stop stop-color="#85BB59"/>
<stop offset="1" stop-color="#016B00"/>
</linearGradient>
<linearGradient id="paint5_linear_21_7754" x1="23.0899" y1="6.03799" x2="23.0686" y2="8.58297" gradientUnits="userSpaceOnUse">
<stop stop-color="#016B00"/>
<stop offset="1" stop-color="#85BB59"/>
</linearGradient>
<linearGradient id="paint6_linear_21_7754" x1="3.68284" y1="31.1412" x2="13.5629" y2="23.6414" gradientUnits="userSpaceOnUse">
<stop stop-color="#C4C4C4"/>
<stop offset="0.0001" stop-opacity="0.984375"/>
<stop offset="1" stop-opacity="0"/>
<stop offset="1" stop-opacity="0"/>
</linearGradient>
<linearGradient id="paint7_linear_21_7754" x1="38.4267" y1="30.8348" x2="27.9079" y2="21.6886" gradientUnits="userSpaceOnUse">
<stop stop-color="#C4C4C4"/>
<stop offset="0.0001" stop-opacity="0.984375"/>
<stop offset="1" stop-opacity="0"/>
<stop offset="1" stop-opacity="0"/>
</linearGradient>
<linearGradient id="paint8_linear_21_7754" x1="29.0927" y1="21.4275" x2="29.9525" y2="11.1702" gradientUnits="userSpaceOnUse">
<stop stop-color="#25863A"/>
<stop offset="1" stop-color="#020300"/>
</linearGradient>
<linearGradient id="paint9_linear_21_7754" x1="27.7984" y1="29.781" x2="25.4851" y2="10.3617" gradientUnits="userSpaceOnUse">
<stop stop-color="#98C55F"/>
<stop offset="0.224714" stop-color="#489744"/>
<stop offset="0.464952" stop-color="#AED166"/>
<stop offset="0.692728" stop-color="#7AB354"/>
<stop offset="1" stop-color="#AED166"/>
</linearGradient>
<linearGradient id="paint10_linear_21_7754" x1="28.0203" y1="29.7757" x2="25.77" y2="10.3463" gradientUnits="userSpaceOnUse">
<stop stop-color="#98C55F"/>
<stop offset="0.224714" stop-color="#489744"/>
<stop offset="0.464952" stop-color="#AED166"/>
<stop offset="0.692728" stop-color="#7AB354"/>
<stop offset="1" stop-color="#AED166"/>
</linearGradient>
<linearGradient id="paint11_linear_21_7754" x1="13.875" y1="24.2832" x2="14.5223" y2="13.0593" gradientUnits="userSpaceOnUse">
<stop stop-color="#25863A"/>
<stop offset="1" stop-color="#020300"/>
</linearGradient>
<linearGradient id="paint12_linear_21_7754" x1="13.9051" y1="30.265" x2="17.1951" y2="11.3862" gradientUnits="userSpaceOnUse">
<stop stop-color="#98C55F"/>
<stop offset="0.177848" stop-color="#489744"/>
<stop offset="0.464332" stop-color="#AED166"/>
<stop offset="0.697907" stop-color="#7AB354"/>
<stop offset="0.857818" stop-color="#AED166"/>
</linearGradient>
<linearGradient id="paint13_linear_21_7754" x1="13.9051" y1="30.265" x2="17.1951" y2="11.3862" gradientUnits="userSpaceOnUse">
<stop stop-color="#98C55F"/>
<stop offset="0.177848" stop-color="#489744"/>
<stop offset="0.464332" stop-color="#AED166"/>
<stop offset="0.697907" stop-color="#7AB354"/>
<stop offset="0.857818" stop-color="#AED166"/>
</linearGradient>
</defs>
</svg>
