<svg width="48" height="48" viewBox="0 0 48 48" fill="none" xmlns="http://www.w3.org/2000/svg">
<path d="M46.7132 31.9608C47.4809 32.3995 48.139 28.6705 47.9744 33.6059C47.9744 34.264 47.5906 34.9221 46.768 35.4156L27.0809 46.8221C25.4357 47.7543 22.7486 47.7543 21.1035 46.8221L1.30671 35.4156C0.484129 34.9221 0.100256 34.3188 0.0454174 33.6608C-0.173937 28.2866 0.429287 32.3995 1.25187 31.9059L20.939 20.4995C22.5841 19.5672 25.2712 19.5672 26.9164 20.4995L46.7132 31.9608Z" fill="url(#paint0_linear_21_7214)"/>
<g opacity="0.615047" filter="url(#filter0_i_21_7214)">
<path fill-rule="evenodd" clip-rule="evenodd" d="M46.4009 28.6831C48.5233 29.9085 48.5344 31.8953 46.4259 33.1205L27.9041 43.8841C25.7957 45.1097 22.3656 45.1097 20.2432 43.8841L1.59918 33.1201C-0.523205 31.8947 -0.534501 29.9079 1.57417 28.6825L20.0957 17.9191C22.2044 16.6937 25.6343 16.6937 27.7567 17.9189L46.4009 28.6831Z" fill="url(#paint1_linear_21_7214)" fill-opacity="0.3"/>
<path fill-rule="evenodd" clip-rule="evenodd" d="M46.4009 28.6831C48.5233 29.9085 48.5344 31.8953 46.4259 33.1205L27.9041 43.8841C25.7957 45.1097 22.3656 45.1097 20.2432 43.8841L1.59918 33.1201C-0.523205 31.8947 -0.534501 29.9079 1.57417 28.6825L20.0957 17.9191C22.2044 16.6937 25.6343 16.6937 27.7567 17.9189L46.4009 28.6831Z" fill="url(#paint2_linear_21_7214)" fill-opacity="0.3"/>
</g>
<path opacity="0.7" d="M24.7177 25.2603C27.4271 25.4836 29.5565 27.752 29.5565 30.519C29.5565 33.4341 27.1933 35.7974 24.2782 35.7974C21.3631 35.7974 18.9999 33.4341 18.9999 30.519C18.9999 27.7523 21.1288 25.4841 23.8378 25.2603C22.9283 25.3407 22.2479 25.6652 22.2479 26.0532C22.2486 26.5015 23.1574 26.8647 24.2782 26.8647C25.399 26.8647 26.3078 26.5015 26.3085 26.0532C26.3085 25.6651 25.6275 25.3406 24.7177 25.2603Z" fill="url(#paint3_radial_21_7214)"/>
<g opacity="0.7">
<path d="M22.4864 10.0757C22.8858 10.4065 23.5655 10.6245 24.337 10.6245C25.0554 10.6245 25.6936 10.4342 26.1006 10.1411C26.2321 10.41 26.3087 10.7113 26.3087 11.0308V24.0229C26.3087 24.5912 26.0737 25.1036 25.6973 25.4722C26.0743 25.6196 26.3087 25.8257 26.3087 26.0532C26.3084 26.5016 25.3993 26.8647 24.2784 26.8647C23.1573 26.8647 22.2483 26.5016 22.2481 26.0532C22.2481 25.8258 22.4817 25.6196 22.8585 25.4722C22.4824 25.1037 22.2481 24.591 22.2481 24.0229V11.0308C22.2481 10.6856 22.3344 10.3603 22.4864 10.0757Z" fill="url(#paint4_linear_21_7214)"/>
<path d="M22.4864 10.0757C22.8858 10.4065 23.5655 10.6245 24.337 10.6245C25.0554 10.6245 25.6936 10.4342 26.1006 10.1411C26.2321 10.41 26.3087 10.7113 26.3087 11.0308V24.0229C26.3087 24.5912 26.0737 25.1036 25.6973 25.4722C26.0743 25.6196 26.3087 25.8257 26.3087 26.0532C26.3084 26.5016 25.3993 26.8647 24.2784 26.8647C23.1573 26.8647 22.2483 26.5016 22.2481 26.0532C22.2481 25.8258 22.4817 25.6196 22.8585 25.4722C22.4824 25.1037 22.2481 24.591 22.2481 24.0229V11.0308C22.2481 10.6856 22.3344 10.3603 22.4864 10.0757Z" fill="url(#paint5_linear_21_7214)"/>
</g>
<path fill-rule="evenodd" clip-rule="evenodd" d="M25.4962 21.0536H23.0601V27.0725C21.6408 27.5741 20.624 28.9276 20.624 30.5187C20.624 32.5368 22.26 34.1728 24.2782 34.1728C26.2963 34.1728 27.9323 32.5368 27.9323 30.5187C27.9323 28.9276 26.9155 27.5741 25.4962 27.0725V21.0536Z" fill="url(#paint6_radial_21_7214)"/>
<path fill-rule="evenodd" clip-rule="evenodd" d="M25.4962 21.0536H23.0601V27.0725C21.6408 27.5741 20.624 28.9276 20.624 30.5187C20.624 32.5368 22.26 34.1728 24.2782 34.1728C26.2963 34.1728 27.9323 32.5368 27.9323 30.5187C27.9323 28.9276 26.9155 27.5741 25.4962 27.0725V21.0536Z" fill="url(#paint7_radial_21_7214)"/>
<ellipse cx="24.2782" cy="9.81204" rx="2.03009" ry="0.812035" fill="url(#paint8_linear_21_7214)"/>
<path opacity="0.4" d="M26.0342 12.6543C26.208 12.774 26.3087 12.9121 26.3087 13.0605C26.3085 13.5089 25.3994 13.872 24.2784 13.8721C23.1573 13.8721 22.2483 13.509 22.2481 13.0605C22.2481 12.9123 22.348 12.7739 22.5215 12.6543C22.8728 12.8966 23.5278 13.0605 24.2784 13.0605C25.0286 13.0605 25.6829 12.8964 26.0342 12.6543Z" fill="url(#paint9_linear_21_7214)"/>
<path opacity="0.4" d="M26.0342 17.5264C26.208 17.6461 26.3087 17.7842 26.3087 17.9326C26.3083 18.381 25.3993 18.7441 24.2784 18.7441C23.1574 18.7441 22.2484 18.381 22.2481 17.9326C22.2481 17.7844 22.3481 17.646 22.5215 17.5264C22.8729 17.7686 23.5278 17.9326 24.2784 17.9326C25.0285 17.9326 25.6828 17.7684 26.0342 17.5264Z" fill="url(#paint10_linear_21_7214)"/>
<ellipse cx="24.2782" cy="30.5189" rx="4.46619" ry="4.46619" fill="url(#paint11_radial_21_7214)"/>
<path opacity="0.4" d="M26.0342 15.0903C26.208 15.21 26.3087 15.3482 26.3087 15.4966C26.3083 15.9449 25.3993 16.3081 24.2784 16.3081C23.1574 16.3081 22.2484 15.9449 22.2481 15.4966C22.2481 15.3483 22.348 15.21 22.5215 15.0903C22.8729 15.3326 23.5279 15.4966 24.2784 15.4966C25.0285 15.4966 25.6829 15.3324 26.0342 15.0903Z" fill="url(#paint12_linear_21_7214)"/>
<defs>
<filter id="filter0_i_21_7214" x="0" y="17" width="48" height="27.8032" filterUnits="userSpaceOnUse" color-interpolation-filters="sRGB">
<feFlood flood-opacity="0" result="BackgroundImageFix"/>
<feBlend mode="normal" in="SourceGraphic" in2="BackgroundImageFix" result="shape"/>
<feColorMatrix in="SourceAlpha" type="matrix" values="0 0 0 0 0 0 0 0 0 0 0 0 0 0 0 0 0 0 127 0" result="hardAlpha"/>
<feOffset dy="-1"/>
<feComposite in2="hardAlpha" operator="arithmetic" k2="-1" k3="1"/>
<feColorMatrix type="matrix" values="0 0 0 0 1 0 0 0 0 1 0 0 0 0 1 0 0 0 0.6 0"/>
<feBlend mode="normal" in2="shape" result="effect1_innerShadow_21_7214"/>
</filter>
<linearGradient id="paint0_linear_21_7214" x1="51.3603" y1="22.0852" x2="0" y2="22.0852" gradientUnits="userSpaceOnUse">
<stop stop-color="#3D686D"/>
<stop offset="1" stop-color="#363846"/>
</linearGradient>
<linearGradient id="paint1_linear_21_7214" x1="24.8801" y1="4.79188" x2="4.63041" y2="43.141" gradientUnits="userSpaceOnUse">
<stop stop-color="white"/>
<stop offset="1" stop-color="#2EE2FF"/>
</linearGradient>
<linearGradient id="paint2_linear_21_7214" x1="21.7589" y1="53.9002" x2="46.8255" y2="16.2187" gradientUnits="userSpaceOnUse">
<stop stop-color="#EFFFFA" stop-opacity="0.01"/>
<stop offset="0.279879" stop-color="#E3FBF8" stop-opacity="0.744453"/>
<stop offset="0.281674" stop-color="#E1FAF7" stop-opacity="0.01"/>
<stop offset="1" stop-color="#BEEFF1" stop-opacity="0.01"/>
</linearGradient>
<radialGradient id="paint3_radial_21_7214" cx="0" cy="0" r="1" gradientTransform="matrix(4.35286 6.95351 -6.96639 4.34481 19.9253 27.5044)" gradientUnits="userSpaceOnUse">
<stop stop-color="white"/>
<stop offset="1" stop-color="#5FC7D8"/>
</radialGradient>
<linearGradient id="paint4_linear_21_7214" x1="26.3087" y1="11.0421" x2="22.5414" y2="11.0421" gradientUnits="userSpaceOnUse">
<stop stop-color="white"/>
<stop offset="1" stop-color="#5FC7D8"/>
</linearGradient>
<linearGradient id="paint5_linear_21_7214" x1="26.3087" y1="9.06368" x2="22.2481" y2="9.06368" gradientUnits="userSpaceOnUse">
<stop stop-color="white" stop-opacity="0.01"/>
<stop offset="0.258017" stop-color="white" stop-opacity="0.01"/>
<stop offset="0.490105" stop-color="white"/>
<stop offset="0.808086" stop-color="white" stop-opacity="0.01"/>
<stop offset="1" stop-color="white" stop-opacity="0.01"/>
</linearGradient>
<radialGradient id="paint6_radial_21_7214" cx="0" cy="0" r="1" gradientTransform="matrix(4.22983 7.62507 -4.24768 7.59302 23.2156 23.6445)" gradientUnits="userSpaceOnUse">
<stop stop-color="#FFB97B"/>
<stop offset="1" stop-color="#D20041"/>
</radialGradient>
<radialGradient id="paint7_radial_21_7214" cx="0" cy="0" r="1" gradientTransform="matrix(1.17246 -4.26256 1.50373 1.33284 23.1057 24.2389)" gradientUnits="userSpaceOnUse">
<stop stop-color="#FFEBAC" stop-opacity="0.6"/>
<stop offset="1" stop-color="white" stop-opacity="0.01"/>
</radialGradient>
<linearGradient id="paint8_linear_21_7214" x1="22.2481" y1="9" x2="22.2481" y2="10.6241" gradientUnits="userSpaceOnUse">
<stop stop-color="#EFFFFA"/>
<stop offset="1" stop-color="#BEEFF1"/>
</linearGradient>
<linearGradient id="paint9_linear_21_7214" x1="26.5929" y1="12.7547" x2="22.2481" y2="12.7547" gradientUnits="userSpaceOnUse">
<stop stop-color="#4E75A0"/>
<stop offset="1" stop-color="#1F2966"/>
</linearGradient>
<linearGradient id="paint10_linear_21_7214" x1="26.5929" y1="17.6267" x2="22.2481" y2="17.6267" gradientUnits="userSpaceOnUse">
<stop stop-color="#4E75A0"/>
<stop offset="1" stop-color="#1F2966"/>
</linearGradient>
<radialGradient id="paint11_radial_21_7214" cx="0" cy="0" r="1" gradientUnits="userSpaceOnUse" gradientTransform="translate(22.1781 28.7767) rotate(65.0514) scale(6.46297)">
<stop stop-color="white"/>
<stop offset="1" stop-color="white" stop-opacity="0.01"/>
</radialGradient>
<linearGradient id="paint12_linear_21_7214" x1="26.5929" y1="15.1907" x2="22.2481" y2="15.1907" gradientUnits="userSpaceOnUse">
<stop stop-color="#4E75A0"/>
<stop offset="1" stop-color="#1F2966"/>
</linearGradient>
</defs>
</svg>
