<svg width="50" height="50" viewBox="0 0 50 50" fill="none" xmlns="http://www.w3.org/2000/svg">
<path d="M46.7865 32.4912C47.5554 32.9306 48.2145 29.1957 48.0498 34.1389C48.0498 34.798 47.6653 35.4571 46.8414 35.9515L27.1234 47.3758C25.4757 48.3095 22.7844 48.3095 21.1366 47.3758L1.30876 35.9515C0.484889 35.4571 0.100413 34.853 0.0454887 34.1939C-0.174211 28.8112 0.429961 32.9306 1.25383 32.4363L20.9718 21.0119C22.6196 20.0782 25.3109 20.0782 26.9586 21.0119L46.7865 32.4912Z" fill="url(#paint0_linear_21_6860)"/>
<g filter="url(#filter0_ii_21_6860)">
<path fill-rule="evenodd" clip-rule="evenodd" d="M46.2847 29.1613C48.4018 30.3836 48.4128 32.3654 46.3096 33.5876L27.8342 44.3242C25.7311 45.5467 22.3096 45.5467 20.1925 44.3242L1.59518 33.5872C-0.521895 32.3648 -0.533163 30.383 1.57023 29.1607L20.0454 18.4242C22.1488 17.2019 25.5701 17.2019 27.6872 18.424L46.2847 29.1613Z" fill="url(#paint1_linear_21_6860)"/>
</g>
<path d="M15.3901 33.1228L30.7801 24.2128" stroke="#644141"/>
<path opacity="0.3" d="M7.16146 26.6883C5.62947 27.8117 5.74381 28.6883 7.73926 30.0186C9.8795 31.4455 12.3588 31.4054 15.1828 31.625C17.9709 31.8419 20.7512 31.5518 24.4577 30.8169L27.6391 30.1555L28.2933 30.0257L28.8534 29.9231C28.912 29.9129 28.9698 29.9031 29.0268 29.8936C34.4627 28.9876 39.5203 27.7627 42.794 32.6733C45.2841 36.4085 42.8429 34.9684 41.5651 33.0518C38.6481 28.6763 34.1055 30.6895 29.2932 31.4916L28.779 31.5826L28.1821 31.6985L25.2705 32.3058C21.1811 33.1406 18.1513 33.4808 15.0572 33.2402C11.9721 33.0002 9.22777 32.958 6.84064 31.3666C3.97609 29.4568 3.68543 28.8484 6.20345 27.0019C7.08171 26.3578 7.72375 26.2759 7.16146 26.6883Z" fill="#AE2423"/>
<g filter="url(#filter1_d_21_6860)">
<path d="M19.2748 20.1797C19.7127 20.0884 20.1417 20.3695 20.233 20.8074C20.3242 21.2454 20.0431 21.6744 19.6052 21.7656L18.75 21.947L17.9222 22.1291L17.1217 22.312L16.3486 22.4955L15.603 22.6796L14.8849 22.8644C14.7675 22.8953 14.6512 22.9261 14.5361 22.957L13.8593 23.1427C13.6382 23.2046 13.4218 23.2667 13.21 23.3288L12.5883 23.5155C12.487 23.5466 12.3869 23.5778 12.2879 23.609L11.7077 23.7964C11.5189 23.8589 11.3347 23.9215 11.1552 23.9842L10.6304 24.1723C10.5453 24.2037 10.4613 24.2351 10.3785 24.2666L9.89536 24.4553L9.44009 24.6443C8.48384 25.0542 7.72375 26.276 7.16146 26.6883C5.62947 27.8118 5.74381 28.6884 7.73926 30.0187C9.8795 31.4455 12.3588 32.2155 15.1828 32.4351C17.9709 32.6519 20.7512 32.3619 24.4577 31.627L27.6391 30.9656L28.2933 30.8358L28.8534 30.7332C28.912 30.723 28.9698 30.7132 29.0268 30.7037C34.4627 29.7977 34.6603 31.8128 37.934 36.7234C40.4241 40.4586 37.8638 39.5386 36.5861 37.622C33.669 33.2464 34.1055 31.4996 29.2932 32.3016L28.779 32.3927L28.1821 32.5086L25.2705 33.1159C21.1811 33.9507 18.1513 34.2909 15.0572 34.0502C11.9721 33.8103 9.22777 32.958 6.84064 31.3666C3.97609 29.4569 3.68543 26.4185 6.20345 24.5719C7.08171 23.9279 8.32633 23.3054 9.94165 22.7007L10.4938 22.4998C10.6825 22.433 10.8757 22.3665 11.0735 22.3001L11.6807 22.1017L12.3155 21.9046C12.5317 21.8391 12.7524 21.7737 12.9778 21.7086L13.6678 21.5138L14.3855 21.3201C14.5074 21.2879 14.6305 21.2557 14.7548 21.2236L15.514 21.0315L16.301 20.8405L17.1159 20.6505L17.9585 20.4614L18.829 20.2734C18.9765 20.2421 19.125 20.2108 19.2748 20.1797Z" fill="black" fill-opacity="0.01"/>
</g>
<g filter="url(#filter2_i_21_6860)">
<path d="M19.2748 17.7496C19.7127 17.6583 20.1417 17.9394 20.233 18.3773C20.3242 18.8153 20.0431 19.2443 19.6052 19.3355L18.75 19.5169L17.9222 19.699L17.1217 19.8819L16.3486 20.0654L15.603 20.2496L14.8849 20.4343C14.7675 20.4652 14.6512 20.496 14.5361 20.5269L13.8593 20.7126C13.6382 20.7745 13.4218 20.8366 13.21 20.8987L12.5883 21.0854C12.487 21.1166 12.3869 21.1477 12.2879 21.1789L11.7077 21.3663C11.5189 21.4288 11.3347 21.4914 11.1552 21.5541L10.6304 21.7423C10.5453 21.7737 10.4613 21.8051 10.3785 21.8365L9.89536 22.0252L9.44009 22.2142C8.48384 22.6241 7.72375 23.0359 7.16146 23.4482C5.62947 24.5717 5.74381 25.4483 7.73926 26.7786C9.8795 28.2054 12.3588 28.9754 15.1828 29.195C17.971 29.4119 20.7512 29.1218 24.4577 28.3869L27.6391 27.7255L28.2933 27.5957L28.8534 27.4931C28.912 27.4829 28.9698 27.4731 29.0268 27.4636C34.4627 26.5576 41.1403 29.3827 44.414 34.2933C46.9041 38.0285 44.5977 40.3707 38.4373 41.1078L37.892 41.1679L37.3273 41.2198C36.8815 41.257 36.0937 41.0094 36.0565 40.5636C36.0194 40.1178 36.5573 39.562 37.0581 39.562C37.1499 39.5531 37.4693 39.5714 37.5589 39.562L38.5529 39.4675L39.0497 39.4024C39.1303 39.3911 39.2098 39.3795 39.2882 39.3677L39.7453 39.2941L40.1761 39.2146C40.2457 39.2008 40.3142 39.1868 40.3817 39.1726L40.7735 39.0843C43.7417 38.3695 44.3438 37.1085 43.0661 35.1919C40.149 30.8164 34.1055 28.2595 29.2932 29.0616L28.779 29.1526L28.1821 29.2685L25.2705 29.8758C21.1811 30.7106 18.1513 31.0508 15.0572 30.8101C11.9721 30.5702 9.22778 29.718 6.84064 28.1265C3.97609 26.2168 3.68543 23.9884 6.20345 22.1419C7.08171 21.4978 8.32633 20.8753 9.94165 20.2706L10.4938 20.0697C10.6825 20.0029 10.8757 19.9364 11.0735 19.8701L11.6807 19.6717L12.3155 19.4745C12.5317 19.409 12.7524 19.3436 12.9778 19.2785L13.6678 19.0837L14.3855 18.89C14.5075 18.8578 14.6305 18.8256 14.7548 18.7935L15.514 18.6015L16.301 18.4104L17.1159 18.2204L17.9585 18.0314L18.8291 17.8433C18.9765 17.812 19.125 17.7808 19.2748 17.7496Z" fill="#EDB37F"/>
</g>
<path d="M15.3901 26.6429L30.7801 17.7329" stroke="#644141"/>
<path fill-rule="evenodd" clip-rule="evenodd" d="M35.6401 29.0729C36.4501 29.0729 39.6504 29.8349 39.6901 29.8829C40.3163 30.642 40.5001 32.3129 38.8801 31.5029C38.19 31.1579 34.8301 29.0729 35.6401 29.0729Z" fill="#7B1515"/>
<path fill-rule="evenodd" clip-rule="evenodd" d="M8.10006 28.2626C8.91006 28.2626 12.1104 29.0245 12.1501 29.0726C12.7763 29.8316 12.1501 30.6926 10.5301 29.8826C9.84003 29.5375 7.29006 28.2626 8.10006 28.2626Z" fill="#7B1515"/>
<path fill-rule="evenodd" clip-rule="evenodd" d="M4.04996 24.2126C4.85996 24.2126 4.82032 24.1645 4.85996 24.2126C5.48615 24.9717 7.28997 27.4526 5.66996 26.6426C4.97993 26.2976 3.23996 24.2126 4.04996 24.2126Z" fill="#7B1515"/>
<path d="M15.3901 29.8823L30.7801 20.9723" stroke="#644141"/>
<ellipse cx="1.77306" cy="3.04408" rx="1.77306" ry="3.04408" transform="matrix(0.799889 -0.60276 -0.60276 -0.799889 37.6857 34.786)" fill="url(#paint2_linear_21_6860)"/>
<path fill-rule="evenodd" clip-rule="evenodd" d="M38.0377 30.1948C36.6439 28.358 35.2277 28.4962 34.6337 29.6676C33.4825 32.2836 35.0198 35.4162 38.2192 34.3725C38.2164 34.192 39.4315 32.0317 38.0377 30.1948Z" fill="url(#paint3_linear_21_6860)"/>
<path opacity="0.535838" fill-rule="evenodd" clip-rule="evenodd" d="M37.7767 32.4108L37.7164 32.1571L37.0421 32.609L36.5246 31.9269L37.1493 31.5081L37.0889 31.2546L36.3767 31.732L35.8788 31.0757L36.5036 30.657L36.4431 30.4034L35.7309 30.8807L35.1016 30.0513L34.994 30.2669L35.6294 31.1043L35.5158 32.2646L35.6818 32.3012L35.7796 31.3022L36.2752 31.9554L36.1617 33.1159L36.3276 33.1524L36.4253 32.1533L36.9091 32.7909L36.7891 34.0183L36.955 34.0548L37.0695 32.8847L37.7767 32.4108Z" fill="#2E4B1C"/>
<ellipse cx="1.34753" cy="2.3135" rx="1.34753" ry="2.3135" transform="matrix(0.799889 -0.60276 -0.60276 -0.799889 28.6603 33.0841)" fill="url(#paint4_linear_21_6860)"/>
<path fill-rule="evenodd" clip-rule="evenodd" d="M28.9279 29.595C27.8686 28.1991 26.7923 28.3041 26.3408 29.1943C25.4659 31.1825 26.6343 33.5633 29.0658 32.7701C29.0637 32.6329 29.9872 30.9911 28.9279 29.595Z" fill="url(#paint5_linear_21_6860)"/>
<path opacity="0.535838" fill-rule="evenodd" clip-rule="evenodd" d="M28.7296 31.2789L28.6837 31.0861L28.1713 31.4295L27.778 30.9111L28.2527 30.5928L28.2068 30.4001L27.6655 30.763L27.2871 30.2642L27.762 29.946L27.716 29.7532L27.1747 30.116L26.6964 29.4857L26.6147 29.6495L27.0976 30.2859L27.0113 31.1678L27.1374 31.1956L27.2117 30.4363L27.5884 30.9328L27.5021 31.8147L27.6282 31.8425L27.7025 31.0832L28.0702 31.5678L27.9789 32.5005L28.105 32.5283L28.192 31.6391L28.7296 31.2789Z" fill="#2E4B1C"/>
<ellipse cx="10.5899" cy="19.4792" rx="1.34964" ry="2.31714" transform="rotate(18 10.5899 19.4792)" fill="url(#paint6_linear_21_6860)"/>
<path fill-rule="evenodd" clip-rule="evenodd" d="M11.4114 20.0703C10.8643 21.7351 9.81241 21.9862 9.09573 21.2914C7.62119 19.6964 7.95077 17.065 10.5081 17.0233C10.5508 17.1537 11.9585 18.4055 11.4114 20.0703Z" fill="url(#paint7_linear_21_6860)"/>
<path opacity="0.535838" fill-rule="evenodd" clip-rule="evenodd" d="M10.6757 18.5428L10.6951 18.74L10.0988 18.5821L9.89566 19.2003L10.4482 19.3467L10.4675 19.5438L9.83762 19.377L9.64219 19.9718L10.1948 20.1181L10.214 20.3153L9.58414 20.1485L9.33716 20.9002L9.20655 20.7719L9.45591 20.0129L9.08721 19.2072L9.1974 19.1399L9.51486 19.8335L9.70936 19.2415L9.34069 18.4357L9.45087 18.3684L9.76829 19.0622L9.95816 18.4843L9.56822 17.632L9.67843 17.5647L10.0502 18.3772L10.6757 18.5428Z" fill="#2E4B1C"/>
<ellipse cx="33.2699" cy="17.859" rx="1.34964" ry="2.31714" transform="rotate(18 33.2699 17.859)" fill="url(#paint8_linear_21_6860)"/>
<path fill-rule="evenodd" clip-rule="evenodd" d="M34.0913 18.4501C33.5443 20.1149 32.4924 20.366 31.7757 19.6712C30.3011 18.0762 30.6307 15.4447 33.188 15.4031C33.2307 15.5335 34.6384 16.7853 34.0913 18.4501Z" fill="url(#paint9_linear_21_6860)"/>
<path opacity="0.535838" fill-rule="evenodd" clip-rule="evenodd" d="M33.3557 16.9226L33.375 17.1198L32.7787 16.9619L32.5756 17.5801L33.1282 17.7265L33.1475 17.9236L32.5176 17.7568L32.3222 18.3516L32.8747 18.4978L32.894 18.6951L32.2641 18.5283L32.0171 19.28L31.8865 19.1517L32.1359 18.3927L31.7672 17.587L31.8774 17.5197L32.1948 18.2133L32.3893 17.6213L32.0206 16.8155L32.1308 16.7482L32.4482 17.4419L32.6381 16.864L32.2482 16.0118L32.3584 15.9445L32.7302 16.757L33.3557 16.9226Z" fill="#2E4B1C"/>
<ellipse cx="1.77306" cy="3.04408" rx="1.77306" ry="3.04408" transform="matrix(0.695749 0.720469 0.720469 -0.695749 3.72703 31.9172)" fill="url(#paint10_linear_21_6860)"/>
<path fill-rule="evenodd" clip-rule="evenodd" d="M8.3269 31.7069C9.98012 30.0997 9.67034 28.7108 8.43533 28.264C5.69848 27.4402 2.77658 29.3478 4.2024 32.3962C4.38122 32.3715 6.67356 33.3142 8.3269 31.7069Z" fill="url(#paint11_linear_21_6860)"/>
<path opacity="0.535838" fill-rule="evenodd" clip-rule="evenodd" d="M6.09608 31.718L6.34049 31.6272L5.80984 31.013L6.42373 30.4162L6.9156 30.9852L7.15984 30.8944L6.59923 30.2457L7.18993 29.6715L7.68166 30.2406L7.92601 30.1496L7.3654 29.5009L8.11193 28.7752L7.88488 28.6948L7.13112 29.4274L5.96561 29.4561L5.94955 29.6253L6.953 29.6006L6.36506 30.1721L5.19944 30.2009L5.18336 30.37L6.18692 30.3453L5.61301 30.9031L4.38021 30.9336L4.36414 31.1027L5.53948 31.0737L6.09608 31.718Z" fill="#2E4B1C"/>
<ellipse cx="2.03801" cy="3.49895" rx="2.03801" ry="3.49895" transform="matrix(0.799889 -0.60276 -0.60276 -0.799889 19.3945 36.7055)" fill="url(#paint12_linear_21_6860)"/>
<path fill-rule="evenodd" clip-rule="evenodd" d="M19.7993 31.4281C18.1972 29.3169 16.5694 29.4758 15.8866 30.8221C14.5634 33.8291 16.3304 37.4298 20.0079 36.2302C20.0047 36.0227 21.4014 33.5395 19.7993 31.4281Z" fill="url(#paint13_linear_21_6860)"/>
<path opacity="0.535838" fill-rule="evenodd" clip-rule="evenodd" d="M19.4993 33.9749L19.4299 33.6834L18.6549 34.2027L18.0601 33.4188L18.7782 32.9373L18.7087 32.646L17.8901 33.1947L17.3178 32.4403L18.036 31.9591L17.9664 31.6675L17.1478 32.2162L16.4244 31.2629L16.3008 31.5107L17.0311 32.4732L16.9006 33.8069L17.0913 33.849L17.2037 32.7007L17.7734 33.4515L17.643 34.7854L17.8337 34.8274L17.946 33.679L18.502 34.4119L18.3641 35.8226L18.5548 35.8646L18.6864 34.5197L19.4993 33.9749Z" fill="#2E4B1C"/>
<path d="M2.16848 25.352C3.7142 26.5168 5.51723 26.7312 6.19568 25.8309C6.87412 24.9305 6.17105 23.2565 4.62533 22.0917C3.07962 20.9269 1.27658 20.7125 0.598137 21.6128C-0.080305 22.5131 0.622761 24.1872 2.16848 25.352Z" fill="url(#paint14_linear_21_6860)"/>
<path fill-rule="evenodd" clip-rule="evenodd" d="M2.89214 25.167C5.01405 26.7549 6.53506 26.1535 6.82028 24.6711C7.2634 21.4159 4.57236 18.4417 1.36802 20.6085C1.42822 20.8071 0.770136 23.5791 2.89214 25.167Z" fill="url(#paint15_linear_21_6860)"/>
<path opacity="0.535838" fill-rule="evenodd" clip-rule="evenodd" d="M2.4785 22.6362L2.62555 22.8973L3.22737 22.1844L4.01524 22.7741L3.45771 23.4348L3.60479 23.6957L4.24045 22.9426L4.99853 23.51L4.44082 24.1706L4.58807 24.4316L5.22373 23.6785L6.1818 24.3956L6.23232 24.1233L5.26499 23.3994L5.02285 22.0813L4.82792 22.0935L5.03637 23.2283L4.28185 22.6636L4.03956 21.3454L3.84465 21.3576L4.05324 22.4925L3.3167 21.9412L3.06048 20.5471L2.86553 20.5593L3.1098 21.8884L2.4785 22.6362Z" fill="#2E4B1C"/>
<ellipse cx="2.03801" cy="3.49895" rx="2.03801" ry="3.49895" transform="matrix(-0.99913 -0.069866 -0.069866 0.99913 17.7742 12.5979)" fill="url(#paint16_linear_21_6860)"/>
<path fill-rule="evenodd" clip-rule="evenodd" d="M14.0066 16.315C13.8306 18.9594 15.1633 19.9074 16.562 19.3393C19.5333 17.938 20.562 14.0612 16.9996 12.554C16.8658 12.7126 14.1827 13.6704 14.0066 16.315Z" fill="url(#paint17_linear_21_6860)"/>
<path opacity="0.535838" fill-rule="evenodd" clip-rule="evenodd" d="M15.9037 14.5898L15.7648 14.8554L16.6904 14.9718L16.625 15.9537L15.7672 15.846L15.6285 16.1115L16.6063 16.2344L16.5433 17.1792L15.6856 17.0713L15.5469 17.3369L16.5247 17.4599L16.4451 18.6539L16.7009 18.548L16.7813 17.3424L17.7548 16.4215L17.6384 16.2647L16.8002 17.0575L16.8629 16.1171L17.8364 15.196L17.72 15.0392L16.8819 15.8322L16.943 14.9143L17.9727 13.9401L17.8563 13.7833L16.8746 14.712L15.9037 14.5898Z" fill="#2E4B1C"/>
<path fill-rule="evenodd" clip-rule="evenodd" d="M12.1828 29.0725C13.1786 29.0725 16.1658 28.2625 17.1616 29.0725C18.1573 29.8825 17.649 29.8825 16.1658 29.8825C14.6826 29.8825 11.1871 29.0725 12.1828 29.0725Z" fill="#7B1515"/>
<ellipse cx="14.3775" cy="25.0103" rx="2.0007" ry="4.84786" fill="url(#paint18_linear_21_6860)"/>
<path fill-rule="evenodd" clip-rule="evenodd" d="M15.7626 26.4977C15.7533 29.2952 14.5878 30.3492 13.157 29.648C10.1313 27.9537 9.23182 21.4873 13.094 20.1625C13.2232 20.3394 15.7719 23.7001 15.7626 26.4977Z" fill="url(#paint19_linear_21_6860)"/>
<path opacity="0.535838" fill-rule="evenodd" clip-rule="evenodd" d="M14.0459 23.7719L14.1726 24.0618L13.1894 24.1163L13.186 25.155L14.0971 25.1047L14.2237 25.3945L13.185 25.4519L13.1817 26.4514L14.0929 26.4009L14.2194 26.6909L13.1807 26.7483L13.1766 28.0115L12.915 27.8811L12.9192 26.6058L11.9619 25.5644L12.096 25.4078L12.9202 26.3043L12.9234 25.3096L11.9662 24.268L12.1002 24.1114L12.9244 25.0081L12.9276 24.0371L11.9152 22.9355L12.0493 22.7789L13.0145 23.8291L14.0459 23.7719Z" fill="#2E4B1C"/>
<path fill-rule="evenodd" clip-rule="evenodd" d="M20.25 29.0725C21.06 29.0725 23.49 28.2625 24.3 29.0725C25.11 29.8825 24.6965 29.8825 23.49 29.8825C22.2835 29.8825 19.44 29.0725 20.25 29.0725Z" fill="#7B1515"/>
<path d="M15.3901 23.4025L30.7801 14.4924" stroke="#644141"/>
<ellipse cx="23.5245" cy="24.3659" rx="3.40201" ry="5.84073" transform="rotate(38 23.5245 24.3659)" fill="url(#paint20_linear_21_6860)"/>
<path fill-rule="evenodd" clip-rule="evenodd" d="M24.9604 26.4749C22.2294 29.9465 19.5213 29.6344 18.4227 27.3709C16.3051 22.3216 19.3544 16.3727 25.4477 18.4788C25.4364 18.8244 27.6916 23.003 24.9604 26.4749Z" fill="url(#paint21_linear_21_6860)"/>
<path opacity="0.535838" fill-rule="evenodd" clip-rule="evenodd" d="M24.5347 22.2223L24.4106 22.7061L23.1343 21.8181L22.1203 23.1072L23.3028 23.9304L23.1786 24.4139L21.8304 23.4757L20.8547 24.7161L22.0375 25.539L21.9131 26.0227L20.5649 25.0846L19.3318 26.6522L19.1331 26.2357L20.378 24.6529L20.1993 22.4266L20.5184 22.3621L20.6723 24.2789L21.6434 23.0443L21.4648 20.8178L21.7839 20.7533L21.9376 22.6702L22.8856 21.4651L22.6967 19.1103L23.0158 19.0457L23.1959 21.2908L24.5347 22.2223Z" fill="#2E4B1C"/>
<g filter="url(#filter3_i_21_6860)">
<path d="M14.9851 17.7329C15.6082 17.7329 16.1218 18.0456 16.1919 18.4484L16.2001 18.5429V37.1729C16.2001 37.6203 15.6561 37.9829 14.9851 37.9829C14.362 37.9829 13.8485 37.6702 13.7783 37.2674L13.7701 37.1729V18.5429C13.7701 18.0955 14.3141 17.7329 14.9851 17.7329Z" fill="#5A473B"/>
</g>
<g filter="url(#filter4_i_21_6860)">
<path d="M31.1851 8.01256C31.8082 8.01256 32.3217 8.32525 32.3919 8.7281L32.4001 8.82256V27.4526C32.4001 27.9 31.8561 28.2626 31.1851 28.2626C30.562 28.2626 30.0484 27.9499 29.9782 27.5471L29.9701 27.4526V8.82256C29.9701 8.37521 30.514 8.01256 31.1851 8.01256Z" fill="#5A473B"/>
</g>
<path fill-rule="evenodd" clip-rule="evenodd" d="M29.97 27.4528C30.78 27.4528 33.21 26.6428 34.02 27.4528C34.83 28.2628 34.4165 28.2628 33.21 28.2628C32.0035 28.2628 29.16 27.4528 29.97 27.4528Z" fill="#7B1515"/>
<ellipse cx="32.9412" cy="25.4183" rx="1.60056" ry="3.87829" transform="rotate(51 32.9412 25.4183)" fill="url(#paint22_linear_21_6860)"/>
<path fill-rule="evenodd" clip-rule="evenodd" d="M32.7138 27.0282C30.9699 28.4308 29.7278 28.2369 29.4434 26.9942C28.9735 24.2601 32.5409 20.4453 35.309 22.1795C35.2641 22.3489 34.4578 25.6255 32.7138 27.0282Z" fill="url(#paint23_linear_21_6860)"/>
<path opacity="0.535838" fill-rule="evenodd" clip-rule="evenodd" d="M33.5443 24.5884L33.4279 24.8131L32.899 24.2292L32.2515 24.7501L32.7415 25.2912L32.625 25.5158L32.0664 24.899L31.4433 25.4001L31.9335 25.9412L31.8169 26.1658L31.2583 25.549L30.4708 26.1824L30.4202 25.9541L31.2152 25.3146L31.3807 24.1951L31.5456 24.1997L31.4031 25.1635L32.0232 24.6647L32.1889 23.5451L32.3537 23.5496L32.2111 24.5135L32.8165 24.0266L32.9916 22.8426L33.1565 22.8471L32.9895 23.976L33.5443 24.5884Z" fill="#2E4B1C"/>
<path d="M15.3901 20.1625L30.7801 11.2525" stroke="#644141"/>
<defs>
<filter id="filter0_ii_21_6860" x="0" y="17.5074" width="47.8799" height="27.7339" filterUnits="userSpaceOnUse" color-interpolation-filters="sRGB">
<feFlood flood-opacity="0" result="BackgroundImageFix"/>
<feBlend mode="normal" in="SourceGraphic" in2="BackgroundImageFix" result="shape"/>
<feColorMatrix in="SourceAlpha" type="matrix" values="0 0 0 0 0 0 0 0 0 0 0 0 0 0 0 0 0 0 127 0" result="hardAlpha"/>
<feOffset dy="-1"/>
<feComposite in2="hardAlpha" operator="arithmetic" k2="-1" k3="1"/>
<feColorMatrix type="matrix" values="0 0 0 0 1 0 0 0 0 1 0 0 0 0 1 0 0 0 0.3 0"/>
<feBlend mode="normal" in2="shape" result="effect1_innerShadow_21_6860"/>
<feColorMatrix in="SourceAlpha" type="matrix" values="0 0 0 0 0 0 0 0 0 0 0 0 0 0 0 0 0 0 127 0" result="hardAlpha"/>
<feOffset/>
<feGaussianBlur stdDeviation="2.5"/>
<feComposite in2="hardAlpha" operator="arithmetic" k2="-1" k3="1"/>
<feColorMatrix type="matrix" values="0 0 0 0 1 0 0 0 0 1 0 0 0 0 1 0 0 0 0.3 0"/>
<feBlend mode="normal" in2="effect1_innerShadow_21_6860" result="effect2_innerShadow_21_6860"/>
</filter>
<filter id="filter1_d_21_6860" x="1.48389" y="16.1562" width="48.5161" height="33.1516" filterUnits="userSpaceOnUse" color-interpolation-filters="sRGB">
<feFlood flood-opacity="0" result="BackgroundImageFix"/>
<feColorMatrix in="SourceAlpha" type="matrix" values="0 0 0 0 0 0 0 0 0 0 0 0 0 0 0 0 0 0 127 0" result="hardAlpha"/>
<feOffset dx="4" dy="3"/>
<feGaussianBlur stdDeviation="3.5"/>
<feColorMatrix type="matrix" values="0 0 0 0 0.435928 0 0 0 0 0.0374143 0 0 0 0 0.0374143 0 0 0 0.5 0"/>
<feBlend mode="normal" in2="BackgroundImageFix" result="effect1_dropShadow_21_6860"/>
<feBlend mode="normal" in="SourceGraphic" in2="effect1_dropShadow_21_6860" result="shape"/>
</filter>
<filter id="filter2_i_21_6860" x="4.4886" y="17.7324" width="40.9121" height="24.4925" filterUnits="userSpaceOnUse" color-interpolation-filters="sRGB">
<feFlood flood-opacity="0" result="BackgroundImageFix"/>
<feBlend mode="normal" in="SourceGraphic" in2="BackgroundImageFix" result="shape"/>
<feColorMatrix in="SourceAlpha" type="matrix" values="0 0 0 0 0 0 0 0 0 0 0 0 0 0 0 0 0 0 127 0" result="hardAlpha"/>
<feOffset dy="1"/>
<feGaussianBlur stdDeviation="0.5"/>
<feComposite in2="hardAlpha" operator="arithmetic" k2="-1" k3="1"/>
<feColorMatrix type="matrix" values="0 0 0 0 0.610369 0 0 0 0 0 0 0 0 0 0 0 0 0 0.5 0"/>
<feBlend mode="normal" in2="shape" result="effect1_innerShadow_21_6860"/>
</filter>
<filter id="filter3_i_21_6860" x="13.7701" y="17.7329" width="2.42996" height="20.25" filterUnits="userSpaceOnUse" color-interpolation-filters="sRGB">
<feFlood flood-opacity="0" result="BackgroundImageFix"/>
<feBlend mode="normal" in="SourceGraphic" in2="BackgroundImageFix" result="shape"/>
<feColorMatrix in="SourceAlpha" type="matrix" values="0 0 0 0 0 0 0 0 0 0 0 0 0 0 0 0 0 0 127 0" result="hardAlpha"/>
<feOffset dx="1"/>
<feComposite in2="hardAlpha" operator="arithmetic" k2="-1" k3="1"/>
<feColorMatrix type="matrix" values="0 0 0 0 1 0 0 0 0 0.831177 0 0 0 0 0.739959 0 0 0 0.5 0"/>
<feBlend mode="normal" in2="shape" result="effect1_innerShadow_21_6860"/>
</filter>
<filter id="filter4_i_21_6860" x="29.9701" y="8.01256" width="2.42996" height="20.25" filterUnits="userSpaceOnUse" color-interpolation-filters="sRGB">
<feFlood flood-opacity="0" result="BackgroundImageFix"/>
<feBlend mode="normal" in="SourceGraphic" in2="BackgroundImageFix" result="shape"/>
<feColorMatrix in="SourceAlpha" type="matrix" values="0 0 0 0 0 0 0 0 0 0 0 0 0 0 0 0 0 0 127 0" result="hardAlpha"/>
<feOffset dx="1"/>
<feComposite in2="hardAlpha" operator="arithmetic" k2="-1" k3="1"/>
<feColorMatrix type="matrix" values="0 0 0 0 1 0 0 0 0 0.831177 0 0 0 0 0.739959 0 0 0 0.5 0"/>
<feBlend mode="normal" in2="shape" result="effect1_innerShadow_21_6860"/>
</filter>
<linearGradient id="paint0_linear_21_6860" x1="49.7423" y1="23.0906" x2="0" y2="23.0906" gradientUnits="userSpaceOnUse">
<stop stop-color="#72716B"/>
<stop offset="1" stop-color="#7C4023"/>
</linearGradient>
<linearGradient id="paint1_linear_21_6860" x1="25.9728" y1="14.1088" x2="13.5363" y2="38.6162" gradientUnits="userSpaceOnUse">
<stop stop-color="#E9D7A9"/>
<stop offset="1" stop-color="#FFD29A"/>
</linearGradient>
<linearGradient id="paint2_linear_21_6860" x1="0" y1="0" x2="0" y2="6.08817" gradientUnits="userSpaceOnUse">
<stop stop-color="#73C63E"/>
<stop offset="1" stop-color="#008C5A"/>
</linearGradient>
<linearGradient id="paint3_linear_21_6860" x1="36.5011" y1="35.6672" x2="32.8284" y2="30.7934" gradientUnits="userSpaceOnUse">
<stop stop-color="#E4FFB3"/>
<stop offset="1" stop-color="#00C733"/>
</linearGradient>
<linearGradient id="paint4_linear_21_6860" x1="0" y1="0" x2="0" y2="4.62701" gradientUnits="userSpaceOnUse">
<stop stop-color="#73C63E"/>
<stop offset="1" stop-color="#008C5A"/>
</linearGradient>
<linearGradient id="paint5_linear_21_6860" x1="27.7601" y1="33.7541" x2="24.9688" y2="30.05" gradientUnits="userSpaceOnUse">
<stop stop-color="#E4FFB3"/>
<stop offset="1" stop-color="#00C733"/>
</linearGradient>
<linearGradient id="paint6_linear_21_6860" x1="9.25472" y1="17.1891" x2="9.25472" y2="21.8233" gradientUnits="userSpaceOnUse">
<stop stop-color="#73C63E"/>
<stop offset="1" stop-color="#008C5A"/>
</linearGradient>
<linearGradient id="paint7_linear_21_6860" x1="8.95312" y1="16.5181" x2="7.51988" y2="20.9291" gradientUnits="userSpaceOnUse">
<stop stop-color="#E4FFB3"/>
<stop offset="1" stop-color="#00C733"/>
</linearGradient>
<linearGradient id="paint8_linear_21_6860" x1="31.9704" y1="15.5663" x2="31.9704" y2="20.2006" gradientUnits="userSpaceOnUse">
<stop stop-color="#73C63E"/>
<stop offset="1" stop-color="#008C5A"/>
</linearGradient>
<linearGradient id="paint9_linear_21_6860" x1="31.6331" y1="14.8979" x2="30.1998" y2="19.3089" gradientUnits="userSpaceOnUse">
<stop stop-color="#E4FFB3"/>
<stop offset="1" stop-color="#00C733"/>
</linearGradient>
<linearGradient id="paint10_linear_21_6860" x1="0" y1="0" x2="0" y2="6.08817" gradientUnits="userSpaceOnUse">
<stop stop-color="#73C63E"/>
<stop offset="1" stop-color="#008C5A"/>
</linearGradient>
<linearGradient id="paint11_linear_21_6860" x1="2.70798" y1="30.8486" x2="7.0979" y2="26.6094" gradientUnits="userSpaceOnUse">
<stop stop-color="#E4FFB3"/>
<stop offset="1" stop-color="#00C733"/>
</linearGradient>
<linearGradient id="paint12_linear_21_6860" x1="0" y1="0" x2="0" y2="6.99789" gradientUnits="userSpaceOnUse">
<stop stop-color="#73C63E"/>
<stop offset="1" stop-color="#008C5A"/>
</linearGradient>
<linearGradient id="paint13_linear_21_6860" x1="18.033" y1="37.7183" x2="13.8115" y2="32.1162" gradientUnits="userSpaceOnUse">
<stop stop-color="#E4FFB3"/>
<stop offset="1" stop-color="#00C733"/>
</linearGradient>
<linearGradient id="paint14_linear_21_6860" x1="0.339644" y1="19.8695" x2="0.339644" y2="26.3876" gradientUnits="userSpaceOnUse">
<stop stop-color="#73C63E"/>
<stop offset="1" stop-color="#008C5A"/>
</linearGradient>
<linearGradient id="paint15_linear_21_6860" x1="2.85617" y1="18.6338" x2="8.45827" y2="22.8552" gradientUnits="userSpaceOnUse">
<stop stop-color="#E4FFB3"/>
<stop offset="1" stop-color="#00C733"/>
</linearGradient>
<linearGradient id="paint16_linear_21_6860" x1="0" y1="0" x2="0" y2="6.99789" gradientUnits="userSpaceOnUse">
<stop stop-color="#73C63E"/>
<stop offset="1" stop-color="#008C5A"/>
</linearGradient>
<linearGradient id="paint17_linear_21_6860" x1="19.4663" y1="12.7265" x2="18.977" y2="19.724" gradientUnits="userSpaceOnUse">
<stop stop-color="#E4FFB3"/>
<stop offset="1" stop-color="#00C733"/>
</linearGradient>
<linearGradient id="paint18_linear_21_6860" x1="12.3963" y1="20.1941" x2="12.3963" y2="29.8898" gradientUnits="userSpaceOnUse">
<stop stop-color="#73C63E"/>
<stop offset="1" stop-color="#008C5A"/>
</linearGradient>
<linearGradient id="paint19_linear_21_6860" x1="10.5301" y1="20.1625" x2="10.5301" y2="29.8582" gradientUnits="userSpaceOnUse">
<stop stop-color="#E4FFB3"/>
<stop offset="1" stop-color="#00C733"/>
</linearGradient>
<linearGradient id="paint20_linear_21_6860" x1="20.154" y1="18.5542" x2="20.154" y2="30.2357" gradientUnits="userSpaceOnUse">
<stop stop-color="#73C63E"/>
<stop offset="1" stop-color="#008C5A"/>
</linearGradient>
<linearGradient id="paint21_linear_21_6860" x1="22.2001" y1="15.9415" x2="15.0024" y2="25.1541" gradientUnits="userSpaceOnUse">
<stop stop-color="#E4FFB3"/>
<stop offset="1" stop-color="#00C733"/>
</linearGradient>
<linearGradient id="paint22_linear_21_6860" x1="31.3899" y1="21.5739" x2="31.3899" y2="29.3304" gradientUnits="userSpaceOnUse">
<stop stop-color="#73C63E"/>
<stop offset="1" stop-color="#008C5A"/>
</linearGradient>
<linearGradient id="paint23_linear_21_6860" x1="34.0182" y1="20.5855" x2="27.9902" y2="25.4669" gradientUnits="userSpaceOnUse">
<stop stop-color="#E4FFB3"/>
<stop offset="1" stop-color="#00C733"/>
</linearGradient>
</defs>
</svg>
