<svg width="48" height="49" viewBox="0 0 48 49" fill="none" xmlns="http://www.w3.org/2000/svg">
<rect width="1546" height="1080" transform="translate(-238.001 -228.001)" fill="white"/>
<path d="M46.7133 32.4438C47.481 32.8825 48.1391 29.1534 47.9746 34.0889C47.9746 34.747 47.5907 35.4051 46.7681 35.8986L27.081 47.3051C25.4358 48.2374 22.7487 48.2374 21.1035 47.3051L1.30671 35.8986C0.48413 35.4051 0.100256 34.8018 0.0454175 34.1438C-0.173938 28.7696 0.429288 32.8825 1.25187 32.3889L20.939 20.9825C22.5842 20.0502 25.2713 20.0502 26.9165 20.9825L46.7133 32.4438Z" fill="url(#paint0_linear_0_1)"/>
<g filter="url(#filter0_i_0_1)">
<path d="M46.7129 29.9758C48.358 30.9081 48.358 32.4984 46.7129 33.4307L27.0257 44.8372C25.3805 45.7694 22.6934 45.7694 21.0483 44.8372L1.25145 33.4307C-0.393713 32.4984 -0.393713 30.9081 1.25145 29.9758L20.9386 18.5694C22.5838 17.6371 25.2709 17.6371 26.916 18.5694L46.7129 29.9758Z" fill="url(#paint1_linear_0_1)"/>
</g>
<g opacity="0.6">
<path opacity="0.3" d="M31.7888 29.6099C32.4308 29.6099 32.9123 29.7043 33.474 29.7043V29.6099C33.2333 29.5154 33.0728 29.421 32.832 29.3266C32.2703 29.2321 31.7086 29.0432 31.1468 28.9488C30.8258 28.8543 30.5048 28.8543 30.1036 28.8543C29.8628 28.8543 29.5419 28.7599 29.3011 28.6654C29.3011 28.6654 29.3011 28.6654 29.3011 28.571C29.4616 28.4765 29.6221 28.4765 29.7826 28.3821C29.9431 28.2876 29.9431 28.1932 29.6221 28.0043C29.2209 27.8154 28.8999 27.7209 28.4184 27.6265C27.8566 27.6265 27.2949 27.532 26.6529 27.4376C26.4924 27.4376 26.2517 27.3431 26.0109 27.2487C26.0109 27.2487 26.0109 27.1542 25.9307 27.1542C26.1714 27.1542 26.3319 27.1542 26.5727 27.1542C26.7332 27.1542 26.8134 27.0598 26.8937 27.0598C26.8134 26.9653 26.7332 26.8709 26.5727 26.8709C26.2517 26.682 25.8504 26.5876 25.4492 26.5876C25.048 26.5876 24.8875 26.4931 24.9677 26.3042C24.9677 26.2098 24.9677 26.1153 24.6467 26.0209C24.085 25.9264 23.9245 25.6431 23.6837 25.3597C23.5232 25.1708 23.3627 24.9819 23.2825 24.793C23.2022 24.6986 23.2825 24.6041 23.443 24.5097C23.6035 24.4152 23.764 24.6041 23.8442 24.6986C23.9245 24.6986 24.0047 24.793 24.085 24.793C24.8875 25.0764 25.3689 25.4542 25.9307 25.832C26.0109 25.7375 26.1714 25.6431 26.3319 25.5486C26.4924 25.7375 26.5727 25.9264 26.6529 26.1153C26.8134 26.3987 26.9739 26.3987 27.2147 26.3042C27.5357 26.2098 27.5357 26.2098 28.0171 26.4931C28.0974 26.5876 28.1776 26.5876 28.2579 26.5876C28.4986 26.682 28.6591 26.682 28.6591 26.5876C28.6591 26.4931 28.5789 26.3987 28.5789 26.3042C29.3011 26.682 30.1036 26.8709 30.4246 27.3431C30.5048 27.4376 30.5048 27.4376 30.5851 27.532C30.6653 27.6265 30.8258 27.6265 30.9061 27.6265C30.9863 27.6265 30.9863 27.532 31.0666 27.532C31.0666 27.532 31.0666 27.4376 30.9863 27.4376C30.6653 26.9653 30.6653 26.9653 31.5481 27.2487C32.4308 27.4376 32.7518 27.8154 33.0728 28.1932C33.2333 28.3821 33.3938 28.571 33.5543 28.7599C33.6345 28.7599 33.6345 28.7599 33.7148 28.7599C33.795 28.571 33.8753 28.3821 34.0358 28.1932C34.1963 28.2876 34.2765 28.3821 34.3568 28.3821C35.1592 29.0432 36.042 29.7043 36.8445 30.4599C37.005 30.6488 37.1654 30.7433 37.2457 30.9322C37.3259 31.0266 37.2457 31.1211 37.1654 31.1211C37.0852 31.1211 36.8445 31.1211 36.684 31.0266C35.9617 30.6488 35.2395 30.4599 34.437 30.3655C33.5543 30.1766 32.7518 29.8932 32.0296 29.6099C32.0296 29.7988 31.9493 29.7043 31.7888 29.6099Z" fill="black"/>
</g>
<path d="M42.9451 27.4374C42.3031 27.5319 41.7414 27.5319 41.2599 27.6263C41.2599 27.5319 41.1796 27.5319 41.1796 27.4374C41.3401 27.2485 41.4204 27.0596 41.6611 26.9652C42.1426 26.6818 42.7043 26.4929 43.1858 26.2096C43.5068 26.1151 43.8278 26.0207 44.1488 25.9262C44.3896 25.8318 44.6303 25.6429 44.8711 25.5484C44.8711 25.454 44.871 25.454 44.7908 25.3595C44.5501 25.2651 44.3896 25.0762 44.1488 24.9818C43.9081 24.7929 43.8278 24.604 43.9883 24.2262C44.2291 23.7539 44.4698 23.565 44.9513 23.4706C45.513 23.4706 46.0748 23.2817 46.6365 23.1872C46.797 23.1872 46.9575 22.9983 47.118 22.8094C47.118 22.715 47.118 22.715 47.118 22.6205C46.8773 22.6205 46.6365 22.6205 46.3958 22.6205C46.2353 22.6205 46.155 22.5261 45.9945 22.4317C46.0748 22.2428 46.0748 22.1483 46.155 21.9594C46.3958 21.5816 46.6365 21.2983 47.0378 21.2983C47.439 21.2983 47.5192 21.1094 47.2785 20.7316C47.118 20.4482 47.118 20.3538 47.3587 20.1649C47.8402 19.8815 47.76 19.3149 47.8402 18.7482C47.9205 18.3704 47.9205 17.9926 47.8402 17.6148C47.8402 17.4259 47.5995 17.1425 47.439 17.0481C47.1982 16.9537 47.1983 17.237 47.118 17.4259C47.118 17.5203 47.0378 17.6148 47.0378 17.7092C46.3958 18.2759 46.155 19.0315 45.9945 19.976C45.7538 19.7871 45.5933 19.5982 45.3525 19.3149C45.3525 19.7871 45.4328 20.0704 45.4328 20.4482C45.4328 21.0149 45.3525 21.0149 44.9513 20.826C44.4698 20.5427 44.4698 20.5427 44.2291 21.1094C44.1488 21.2038 44.1488 21.2983 44.0686 21.3927C43.9081 21.6761 43.7476 21.6761 43.6673 21.2983C43.5871 21.1094 43.5871 21.0149 43.5068 20.7316C43.0253 21.3927 42.3834 21.9594 42.4636 22.9039C42.4636 22.9983 42.4636 23.1872 42.4636 23.2817C42.3834 23.3761 42.3031 23.4706 42.2229 23.4706C42.1426 23.4706 42.0624 23.3761 41.9821 23.2817C41.9821 23.2817 41.9821 23.1872 41.9821 23.0928C41.9019 22.1483 41.9019 22.1483 41.1796 22.6205C40.4574 23.0928 40.4574 23.8484 40.3771 24.6984C40.3771 25.0762 40.3771 25.454 40.2969 25.8318C40.2167 25.8318 40.2166 25.8318 40.1364 25.9262C39.8956 25.5484 39.6549 25.1707 39.3339 24.7929C39.2537 24.9818 39.1734 25.0762 39.1734 25.1707C38.8524 26.5874 38.6117 28.0985 38.2907 29.5153C38.2104 29.7986 38.2104 30.1764 38.2907 30.5542C38.2907 30.7431 38.4512 30.932 38.5314 31.0264C38.6117 31.0264 38.8524 30.932 38.9327 30.8375C39.3339 29.9875 40.0562 29.7042 40.6981 29.3264C41.4204 28.9486 42.0624 28.3819 42.7043 27.7208C42.7846 27.8152 42.8648 27.6263 42.9451 27.4374Z" fill="url(#paint2_linear_0_1)"/>
<path d="M35.8631 23.4232C36.2643 23.8954 36.6655 24.2732 37.0668 24.7455C37.147 24.7455 37.147 24.651 37.2273 24.651C37.2273 24.4621 37.2273 24.1788 37.147 23.9899C36.9063 23.4232 36.6655 22.9509 36.3446 22.3842C36.1841 22.1009 35.9433 21.8176 35.7828 21.5342C35.6223 21.2509 35.5421 20.9675 35.4618 20.6842L35.5421 20.5897C35.7828 20.6842 36.0236 20.6842 36.1841 20.7786C36.5051 20.8731 36.5853 20.6842 36.6655 20.4008C36.7458 19.9286 36.6655 19.5508 36.2643 19.173C35.8631 18.7008 35.5421 18.2285 35.1408 17.7563C35.0606 17.5674 34.9803 17.3785 34.9001 17.1896L34.9803 17.0951C35.1408 17.284 35.3013 17.3785 35.5421 17.5674C35.6223 17.6618 35.7828 17.6618 35.9433 17.7563C35.9433 17.6618 36.0236 17.4729 36.0236 17.3785C36.0236 16.9062 36.0236 16.5285 35.7026 16.2451C35.3816 15.9618 35.3816 15.7729 35.7828 15.584C36.0236 15.4895 36.1038 15.3951 36.0236 15.1117C35.8631 14.545 36.1841 14.1672 36.3446 13.7895C36.5051 13.5061 36.6655 13.2228 36.9063 12.9394C37.0668 12.845 37.3075 12.7505 37.468 12.7505C37.7088 12.845 37.5483 13.0339 37.5483 13.2228C37.5483 13.3172 37.468 13.4117 37.468 13.5061C37.6285 14.3561 37.468 15.1117 37.147 15.8673C37.3878 15.8673 37.6285 15.8673 37.9495 15.8673C37.7088 16.1507 37.5483 16.434 37.3075 16.6229C37.0668 17.0007 37.0668 17.0951 37.468 17.1896C37.9495 17.3785 37.9495 17.3785 37.8693 17.9452C37.8693 18.0396 37.8693 18.1341 37.789 18.2285C37.789 18.5119 37.8693 18.6063 38.11 18.5119C38.1903 18.4174 38.3508 18.323 38.5113 18.2285C38.5113 19.0786 38.6718 19.9286 38.1903 20.5897C38.11 20.6842 38.0298 20.7786 38.0298 20.8731C38.0298 20.9675 38.0298 21.1564 38.11 21.2509C38.1903 21.3453 38.2705 21.2509 38.3508 21.2509C38.431 21.2509 38.431 21.1564 38.431 21.1564C38.9928 20.4953 38.9928 20.4953 39.2335 21.3453C39.4742 22.1953 39.1532 22.762 38.752 23.4232C38.5915 23.7065 38.431 23.9899 38.1903 24.2732C38.1903 24.3677 38.2705 24.3677 38.2705 24.4621C38.6718 24.3677 38.9927 24.2732 39.4742 24.1788C39.394 24.3677 39.394 24.4621 39.394 24.5566C38.9125 25.7844 38.3508 27.1067 37.8693 28.3345C37.789 28.6178 37.5483 28.9012 37.3878 29.0901C37.3075 29.1845 37.0668 29.279 36.9865 29.1845C36.9063 29.0901 36.7458 28.9012 36.7458 28.8067C36.9063 27.9567 36.5051 27.2011 36.1841 26.54C35.7828 25.7844 35.6223 24.9343 35.5421 23.9899C35.7828 23.7065 35.7828 23.6121 35.8631 23.4232Z" fill="#2E6735"/>
<path d="M36.216 23.4232C36.6172 23.8954 37.0184 24.2732 37.4197 24.7455C37.4999 24.7455 37.4999 24.651 37.5802 24.651C37.5802 24.4621 37.5802 24.1788 37.4999 23.9899C37.2592 23.4232 37.0185 22.9509 36.6975 22.3842C36.537 22.1009 36.2962 21.8176 36.1357 21.5342C35.9752 21.2509 35.895 20.9675 35.8147 20.6842L35.895 20.5897C36.1357 20.6842 36.3765 20.6842 36.537 20.7786C36.858 20.8731 36.9382 20.6842 37.0184 20.4008C37.0987 19.9286 37.0184 19.5508 36.6172 19.173C36.216 18.7008 35.895 18.2285 35.4937 17.7563C35.4135 17.5674 35.3332 17.3785 35.253 17.1896L35.3332 17.0951C35.4937 17.284 35.6542 17.3785 35.895 17.5674C35.9752 17.6618 36.1357 17.6618 36.2962 17.7563C36.2962 17.6618 36.3765 17.4729 36.3765 17.3785C36.3765 16.9062 36.3765 16.5285 36.0555 16.2451C35.7345 15.9618 35.7345 15.7729 36.1357 15.584C36.3765 15.4895 36.4567 15.3951 36.3765 15.1117C36.216 14.545 36.537 14.1672 36.6975 13.7895C36.858 13.5061 37.0185 13.2228 37.2592 12.9394C37.4197 12.845 37.6604 12.7505 37.8209 12.7505C38.0617 12.845 37.9012 13.0339 37.9012 13.2228C37.9012 13.3172 37.8209 13.4117 37.8209 13.5061C37.9814 14.3561 37.8209 15.1117 37.4999 15.8673C37.7407 15.8673 37.9814 15.8673 38.3024 15.8673C38.0617 16.1507 37.9012 16.434 37.6604 16.6229C37.4197 17.0007 37.4197 17.0951 37.8209 17.1896C38.3024 17.3785 38.3024 17.3785 38.2222 17.9452C38.2222 18.0396 38.2222 18.1341 38.1419 18.2285C38.1419 18.5119 38.2222 18.6063 38.4629 18.5119C38.5432 18.4174 38.7037 18.323 38.8642 18.2285C38.8642 19.0786 39.0247 19.9286 38.5432 20.5897C38.4629 20.6842 38.3827 20.7786 38.3827 20.8731C38.3827 20.9675 38.3827 21.1564 38.4629 21.2509C38.5432 21.3453 38.6234 21.2509 38.7037 21.2509C38.7839 21.2509 38.7839 21.1564 38.7839 21.1564C39.3457 20.4953 39.3457 20.4953 39.5864 21.3453C39.8271 22.1953 39.5062 22.762 39.1049 23.4232C38.9444 23.7065 38.7839 23.9899 38.5432 24.2732C38.5432 24.3677 38.6234 24.3677 38.6234 24.4621C39.0247 24.3677 39.3456 24.2732 39.8271 24.1788C39.7469 24.3677 39.7469 24.4621 39.7469 24.5566C39.2654 25.7844 38.7037 27.1067 38.2222 28.3345C38.1419 28.6178 37.9012 28.9012 37.7407 29.0901C37.6604 29.1845 37.4197 29.279 37.3394 29.1845C37.2592 29.0901 37.0987 28.9012 37.0987 28.8067C37.2592 27.9567 36.858 27.2011 36.537 26.54C36.1357 25.7844 35.9752 24.9343 35.895 23.9899C36.1357 23.7065 36.1357 23.6121 36.216 23.4232Z" fill="url(#paint3_linear_0_1)"/>
<path d="M32.4554 27.4379C33.0974 27.5323 33.6591 27.5323 34.1406 27.6268C34.1406 27.5323 34.2209 27.5323 34.2209 27.4379C34.0604 27.249 33.9801 27.0601 33.7394 26.9657C33.2579 26.6823 32.6962 26.4934 32.2147 26.2101C31.8937 26.1156 31.5727 26.0212 31.2517 25.9267C31.0109 25.8323 30.7702 25.6434 30.5294 25.5489C30.5294 25.4545 30.5294 25.4545 30.6097 25.36C30.8504 25.2656 31.0109 25.0767 31.2517 24.9822C31.4924 24.7933 31.5727 24.6045 31.4122 24.2267C31.1714 23.7544 30.9307 23.5655 30.4492 23.4711C29.8874 23.4711 29.3257 23.2822 28.764 23.1877C28.6035 23.1877 28.443 22.9988 28.2825 22.8099C28.2825 22.7155 28.2825 22.7155 28.2825 22.621C28.5232 22.621 28.764 22.621 29.0047 22.621C29.1652 22.621 29.2455 22.5266 29.406 22.4321C29.3257 22.2432 29.3257 22.1488 29.2455 21.9599C29.0047 21.5821 28.764 21.2988 28.3627 21.2988C27.9615 21.2988 27.8812 21.1099 28.122 20.7321C28.2825 20.4487 28.2825 20.3543 28.0417 20.1654C27.5602 19.882 27.6405 19.3153 27.5603 18.7487C27.48 18.3709 27.48 17.9931 27.5603 17.6153C27.5603 17.4264 27.801 17.143 27.9615 17.0486C28.2022 16.9541 28.2022 17.2375 28.2825 17.4264C28.2825 17.5208 28.3627 17.6153 28.3627 17.7097C29.0047 18.2764 29.2455 19.032 29.406 19.9765C29.6467 19.7876 29.8072 19.5987 30.0479 19.3153C30.0479 19.7876 29.9677 20.0709 29.9677 20.4487C29.9677 21.0154 30.0479 21.0154 30.4492 20.8265C30.9307 20.5432 30.9307 20.5432 31.1714 21.1099C31.2517 21.2043 31.2517 21.2988 31.3319 21.3932C31.4924 21.6766 31.6529 21.6766 31.7332 21.2988C31.8134 21.1099 31.8134 21.0154 31.8937 20.7321C32.3752 21.3932 33.0171 21.9599 32.9369 22.9044C32.9369 22.9988 32.9369 23.1877 32.9369 23.2822C33.0171 23.3766 33.0974 23.4711 33.1776 23.4711C33.2579 23.4711 33.3381 23.3766 33.4184 23.2822C33.4184 23.2822 33.4184 23.1877 33.4184 23.0933C33.4986 22.1488 33.4986 22.1488 34.2209 22.621C34.9431 23.0933 34.9431 23.8489 35.0234 24.6989C35.0234 25.0767 35.0233 25.4545 35.1036 25.8323C35.1838 25.8323 35.1838 25.8323 35.2641 25.9267C35.5048 25.5489 35.7456 25.1711 36.0666 24.7933C36.1468 24.9822 36.2271 25.0767 36.2271 25.1711C36.5481 26.5879 36.7888 28.099 37.1098 29.5158C37.19 29.7991 37.19 30.1769 37.1098 30.5547C37.1098 30.7436 36.9493 30.9325 36.8691 31.0269C36.7888 31.0269 36.5481 30.9325 36.4678 30.838C36.0666 29.988 35.3443 29.7047 34.7024 29.3269C33.9801 28.9491 33.3381 28.3824 32.6961 27.7212C32.5356 27.8157 32.5356 27.6268 32.4554 27.4379Z" fill="#2E6735"/>
<path d="M32.9114 27.4379C33.5534 27.5323 34.1152 27.5323 34.5966 27.6268C34.5966 27.5323 34.6769 27.5323 34.6769 27.4379C34.5164 27.249 34.4361 27.0601 34.1954 26.9657C33.7139 26.6823 33.1522 26.4934 32.6707 26.2101C32.3497 26.1156 32.0287 26.0212 31.7077 25.9267C31.467 25.8323 31.2262 25.6434 30.9855 25.5489C30.9855 25.4545 30.9855 25.4545 31.0657 25.36C31.3065 25.2656 31.467 25.0767 31.7077 24.9822C31.9484 24.7933 32.0287 24.6045 31.8682 24.2267C31.6275 23.7544 31.3867 23.5655 30.9052 23.4711C30.3435 23.4711 29.7817 23.2822 29.22 23.1877C29.0595 23.1877 28.899 22.9988 28.7385 22.8099C28.7385 22.7155 28.7385 22.7155 28.7385 22.621C28.9793 22.621 29.22 22.621 29.4608 22.621C29.6213 22.621 29.7015 22.5266 29.862 22.4321C29.7817 22.2432 29.7817 22.1488 29.7015 21.9599C29.4607 21.5821 29.22 21.2988 28.8188 21.2988C28.4175 21.2988 28.3373 21.1099 28.578 20.7321C28.7385 20.4487 28.7385 20.3543 28.4978 20.1654C28.0163 19.882 28.0965 19.3153 28.0163 18.7487C27.936 18.3709 27.936 17.9931 28.0163 17.6153C28.0163 17.4264 28.257 17.143 28.4175 17.0486C28.6583 16.9541 28.6583 17.2375 28.7385 17.4264C28.7385 17.5208 28.8188 17.6153 28.8188 17.7097C29.4608 18.2764 29.7015 19.032 29.862 19.9765C30.1027 19.7876 30.2632 19.5987 30.504 19.3153C30.504 19.7876 30.4237 20.0709 30.4237 20.4487C30.4237 21.0154 30.504 21.0154 30.9052 20.8265C31.3867 20.5432 31.3867 20.5432 31.6275 21.1099C31.7077 21.2043 31.7077 21.2988 31.7879 21.3932C31.9484 21.6766 32.1089 21.6766 32.1892 21.2988C32.2694 21.1099 32.2694 21.0154 32.3497 20.7321C32.8312 21.3932 33.4732 21.9599 33.3929 22.9044C33.3929 22.9988 33.3929 23.1877 33.3929 23.2822C33.4732 23.3766 33.5534 23.4711 33.6337 23.4711C33.7139 23.4711 33.7942 23.3766 33.8744 23.2822C33.8744 23.2822 33.8744 23.1877 33.8744 23.0933C33.9547 22.1488 33.9547 22.1488 34.6769 22.621C35.3991 23.0933 35.3991 23.8489 35.4794 24.6989C35.4794 25.0767 35.4794 25.4545 35.5596 25.8323C35.6399 25.8323 35.6399 25.8323 35.7201 25.9267C35.9609 25.5489 36.2016 25.1711 36.5226 24.7933C36.6028 24.9822 36.6831 25.0767 36.6831 25.1711C37.0041 26.5879 37.2448 28.099 37.5658 29.5158C37.6461 29.7991 37.6461 30.1769 37.5658 30.5547C37.5658 30.7436 37.4053 30.9325 37.3251 31.0269C37.2448 31.0269 37.0041 30.9325 36.9238 30.838C36.5226 29.988 35.8004 29.7047 35.1584 29.3269C34.4361 28.9491 33.7942 28.3824 33.1522 27.7212C32.9917 27.8157 32.9917 27.6268 32.9114 27.4379Z" fill="url(#paint4_linear_0_1)"/>
<path fill-rule="evenodd" clip-rule="evenodd" d="M38.598 9.53465C38.7173 9.46504 38.8704 9.50527 38.94 9.62451C41.1152 13.3507 40.983 18.5023 40.3312 22.6752C40.004 24.7697 39.5432 26.6339 39.1642 27.9743C38.9747 28.6447 38.8056 29.1846 38.6836 29.5574C38.6226 29.7439 38.5734 29.8885 38.5394 29.9869C38.5223 30.036 38.5091 30.0736 38.5001 30.0991L38.4897 30.1281L38.487 30.1356L38.4863 30.1376C38.4862 30.1377 38.486 30.1384 38.251 30.0529L38.0161 29.9675L38.0168 29.9656L38.0192 29.9589L38.0289 29.9317C38.0375 29.9075 38.0503 29.8712 38.0669 29.8233C38.1001 29.7275 38.1483 29.5855 38.2084 29.402C38.3285 29.0348 38.4956 28.5014 38.6831 27.8383C39.0581 26.5116 39.5139 24.6676 39.8372 22.5981C40.4862 18.4431 40.5905 13.4435 38.5082 9.8766C38.4386 9.75736 38.4788 9.60426 38.598 9.53465ZM38.1656 30.2879C38.0358 30.2407 37.9689 30.0972 38.0161 29.9675L38.251 30.0529L38.4863 30.1376C38.4391 30.2673 38.2954 30.3351 38.1656 30.2879Z" fill="#275F3D"/>
<path fill-rule="evenodd" clip-rule="evenodd" d="M36.8416 12.5283L36.0391 16.3L38.3663 13.3308L39.1688 15.5777V13.3308L41.496 14.8555C41.496 14.8555 39.1688 12.6086 39.9713 12.6086C40.7737 12.6086 43.8232 12.6086 43.8232 12.6086L39.1688 11.1641L36.8416 12.5283Z" fill="#275F3D"/>
<path d="M41.3457 8.9385C41.3457 9.01953 41.3452 9.0962 41.3545 9.16213C41.3641 9.2288 41.3826 9.27612 41.4112 9.30471L41.4961 9.38967H41.0479C41.0444 9.38944 41.039 9.38951 41.0332 9.3887C41.0289 9.38806 41.0241 9.38595 41.0186 9.38479C41.0288 9.40285 41.0399 9.42046 41.0489 9.4385C41.0798 9.50045 41.1015 9.56476 41.1036 9.64846L41.1465 9.85159C41.1543 9.90609 41.1565 9.95654 41.1426 9.99807C41.1273 10.0439 41.0948 10.0745 41.0498 10.0918C41.0276 10.1003 41.0019 10.1043 40.9737 10.1074C41.0085 10.1733 41.0491 10.2519 41.0723 10.3291C41.1047 10.4375 41.1086 10.5603 41.0098 10.6592C40.9737 10.6953 40.9243 10.6996 40.8829 10.6953C40.8405 10.691 40.7932 10.6762 40.7481 10.6612C40.7008 10.6454 40.6558 10.6288 40.6104 10.6153C40.5863 10.6081 40.5637 10.6024 40.543 10.5987V10.7783C40.5817 10.8964 40.604 11.0023 40.5928 11.0918C40.582 11.1781 40.5391 11.2444 40.4629 11.292V11.3604L40.4551 11.3721C40.3957 11.4712 40.3495 11.5495 40.3086 11.6035C40.2691 11.6558 40.2255 11.699 40.169 11.7071C40.1117 11.7152 40.059 11.6844 40.0088 11.6446C39.9828 11.6239 39.9562 11.5955 39.9239 11.5645C39.9374 11.678 39.9339 11.7702 39.9131 11.8457C39.8832 11.9539 39.8223 12.025 39.7471 12.0713C39.6739 12.1164 39.5882 12.1371 39.5108 12.1524C39.4295 12.1684 39.3609 12.1776 39.3047 12.1963C39.2378 12.2186 39.1791 12.2214 39.128 12.2002C39.0777 12.1793 39.043 12.1385 39.0157 12.0948C38.9887 12.0516 38.9648 11.9975 38.9395 11.9444C38.9238 11.9114 38.904 11.8791 38.8848 11.8448C38.8467 11.8973 38.8038 11.9424 38.7627 11.9834C38.7018 12.0444 38.6473 12.0991 38.6114 12.1709L38.6094 12.1748C38.3648 12.5824 38.1169 12.8325 37.7032 12.9981L37.6934 13.001H37.6846C37.6812 13.001 37.6719 13.0035 37.6534 13.0176C37.6352 13.0315 37.6147 13.0513 37.5889 13.0772C37.5394 13.1267 37.474 13.1922 37.3858 13.2364C37.314 13.2723 37.2592 13.3268 37.1983 13.3877C37.1389 13.4471 37.073 13.5133 36.9844 13.5577C36.9439 13.5779 36.904 13.5958 36.8672 13.6036C36.8295 13.6114 36.7869 13.61 36.751 13.583C36.7172 13.5575 36.6986 13.516 36.6875 13.4678C36.6849 13.4561 36.6837 13.4432 36.6817 13.4297C36.6638 13.4537 36.6467 13.4773 36.626 13.4981C36.5709 13.5531 36.506 13.5962 36.4229 13.6377C36.3452 13.6766 36.2713 13.7326 36.1856 13.7862C36.1086 13.8343 36.0224 13.8778 35.9317 13.8819C35.9086 13.8921 35.8848 13.898 35.8604 13.8955C35.8322 13.8926 35.8086 13.8799 35.7901 13.8623C35.756 13.8299 35.7359 13.778 35.7207 13.7276C35.705 13.6752 35.6913 13.6123 35.6778 13.5508C35.6712 13.5208 35.6617 13.4914 35.6543 13.4619C35.4299 13.7461 35.1855 13.9639 34.7949 13.9639C34.7141 13.9639 34.6152 13.9647 34.5196 13.8692L34.5049 13.8545V13.5049L34.5069 13.4971C34.5483 13.3729 34.6102 13.2495 34.6699 13.1299C34.7195 13.0308 34.7647 12.9326 34.8018 12.8369C34.6231 12.8329 34.4458 12.8175 34.2783 12.7998C34.0868 12.7797 33.9092 12.7608 33.752 12.7608H33.7022V12.6123L33.7129 12.5987C33.8778 12.3926 34.0628 12.2487 34.2549 12.1172C34.4368 11.9927 34.6203 11.8801 34.8067 11.7354C34.5036 11.3247 34.5098 10.8417 34.668 10.3672V10.3643H34.669C34.7097 10.2626 34.7515 10.1786 34.7959 10.1153C34.8401 10.0524 34.8905 10.0043 34.9502 9.9844C35.0124 9.96379 35.0752 9.97674 35.1358 10.0137C35.1937 10.049 35.2522 10.1079 35.3125 10.1875L35.3994 10.2744C35.4079 10.236 35.4192 10.2026 35.4307 10.1739C35.4417 10.1464 35.451 10.1275 35.458 10.1074C35.4647 10.0886 35.4678 10.0743 35.4678 10.0625C35.4678 9.64773 35.6338 9.31327 35.9639 9.0635C36.0242 9.00319 36.078 8.95478 36.128 8.92287C36.1786 8.89062 36.2304 8.87196 36.2862 8.87893C36.3409 8.88581 36.39 8.9165 36.4385 8.96096C36.4872 9.0056 36.5401 9.06876 36.6006 9.14944L36.6065 9.1553C36.7166 8.55578 37.1121 8.24061 37.4922 7.93654L37.501 7.92971C37.5406 7.90993 37.5837 7.89005 37.625 7.87404C37.6662 7.85815 37.7101 7.8458 37.7539 7.84572C37.7995 7.84572 37.8448 7.8587 37.8838 7.8926C37.9199 7.92401 37.9474 7.97063 37.9688 8.03127C38.0134 8.08158 38.034 8.14846 38.044 8.20803C38.0472 8.22761 38.0453 8.24783 38.0469 8.26662C38.1847 8.13056 38.3324 7.99133 38.5391 7.85354C38.6622 7.73218 38.8274 7.61212 38.9707 7.52541L39.1065 7.44924C39.1678 7.40916 39.2248 7.38504 39.2774 7.38185C39.335 7.37838 39.383 7.4004 39.418 7.4424C39.4508 7.48183 39.4705 7.53656 39.4825 7.59768C39.4946 7.65968 39.5 7.73352 39.5 7.81545V7.88381C39.7015 7.75453 39.846 7.682 39.9893 7.61037C40.0664 7.57181 40.1245 7.53329 40.1846 7.49318C40.2448 7.45309 40.3074 7.4108 40.3907 7.36916L40.4004 7.36428H40.6231V7.66701L40.6182 7.67678C40.5809 7.75129 40.5612 7.82655 40.5411 7.90725C40.5304 7.9498 40.5184 7.99404 40.5039 8.03908C40.6274 7.98064 40.756 7.92738 40.8877 7.9258C41.0129 7.88653 41.1195 7.90235 41.1768 7.9883C41.23 8.06836 41.224 8.18833 41.1827 8.31252C41.1433 8.43074 41.126 8.52316 41.1348 8.60256C41.1434 8.6795 41.1766 8.74978 41.25 8.82326L41.3311 8.90334L41.3457 8.91799V8.9385Z" fill="url(#paint5_linear_0_1)" stroke="#BD6600" stroke-width="0.1"/>
<path d="M41.4987 32.0316C42.2209 31.7106 42.0604 30.9081 41.3382 30.6674C40.1344 30.2661 38.6097 29.8649 38.2085 29.7846C37.727 29.6241 35.8813 30.4266 34.838 30.9081C34.3566 31.1488 34.1961 31.5501 34.4368 31.9513C34.7578 32.3526 37.1652 32.0316 38.5295 32.2723C40.1344 32.5131 40.2147 32.5933 41.4987 32.0316Z" fill="#B8715F"/>
<mask id="mask0_0_1" style="mask-type:alpha" maskUnits="userSpaceOnUse" x="0" y="22" width="18" height="12">
<path d="M14.25 22.5001L0 30.7501L9.75 33.142L17.625 27.4044L14.25 22.5001Z" fill="#C4C4C4"/>
</mask>
<g mask="url(#mask0_0_1)">
<g opacity="0.6">
<path opacity="0.3" d="M4.03782 29.6094C4.67981 29.6094 5.16131 29.7039 5.72304 29.7039V29.6094C5.4823 29.515 5.3218 29.4205 5.08105 29.3261C4.51932 29.2316 3.95757 29.0427 3.39583 28.9483C3.07484 28.8538 2.75385 28.8538 2.3526 28.8538C2.11186 28.8538 1.79087 28.7594 1.55012 28.6649C1.55012 28.6649 1.55012 28.6649 1.55012 28.5705C1.71062 28.476 1.87112 28.476 2.03162 28.3816C2.19211 28.2871 2.19212 28.1927 1.87112 28.0038C1.46988 27.8149 1.14889 27.7204 0.667398 27.626C0.10566 27.626 -0.456076 27.5315 -1.09806 27.4371C-1.25856 27.4371 -1.49931 27.3427 -1.74005 27.2482C-1.74005 27.2482 -1.74006 27.1538 -1.8203 27.1538C-1.57956 27.1538 -1.41906 27.1538 -1.17832 27.1538C-1.01782 27.1538 -0.937576 27.0593 -0.857327 27.0593C-0.937576 26.9649 -1.01782 26.8704 -1.17832 26.8704C-1.49931 26.6815 -1.90055 26.5871 -2.30179 26.5871C-2.70303 26.5871 -2.86353 26.4926 -2.78328 26.3037C-2.78328 26.2093 -2.78328 26.1148 -3.10427 26.0204C-3.66601 25.9259 -3.82651 25.6426 -4.06726 25.3592C-4.22776 25.1703 -4.38825 24.9814 -4.4685 24.7925C-4.54875 24.6981 -4.46849 24.6037 -4.30799 24.5092C-4.1475 24.4148 -3.987 24.6037 -3.90675 24.6981C-3.8265 24.6981 -3.74627 24.7925 -3.66602 24.7925C-2.86353 25.0759 -2.38204 25.4537 -1.8203 25.8315C-1.74006 25.737 -1.57956 25.6426 -1.41906 25.5481C-1.25857 25.737 -1.17831 25.9259 -1.09806 26.1148C-0.937566 26.3982 -0.777072 26.3982 -0.536327 26.3037C-0.215334 26.2093 -0.215334 26.2093 0.266156 26.4926C0.346404 26.5871 0.426655 26.5871 0.506904 26.5871C0.747648 26.6815 0.908145 26.6815 0.908145 26.5871C0.908145 26.4926 0.827892 26.3982 0.827892 26.3037C1.55013 26.6815 2.35261 26.8704 2.67361 27.3426C2.75385 27.4371 2.75385 27.4371 2.8341 27.5315C2.91435 27.626 3.07484 27.626 3.15509 27.626C3.23534 27.626 3.23535 27.5315 3.31559 27.5315C3.31559 27.5315 3.31559 27.4371 3.23534 27.4371C2.91435 26.9649 2.91435 26.9649 3.79708 27.2482C4.67981 27.4371 5.00081 27.8149 5.3218 28.1927C5.4823 28.3816 5.64279 28.5705 5.80328 28.7594C5.88353 28.7594 5.88353 28.7594 5.96378 28.7594C6.04403 28.5705 6.12428 28.3816 6.28478 28.1927C6.44528 28.2871 6.52552 28.3816 6.60577 28.3816C7.40825 29.0427 8.29099 29.7039 9.09347 30.4594C9.25397 30.6483 9.41446 30.7428 9.49471 30.9317C9.57496 31.0261 9.49471 31.1206 9.41446 31.1206C9.33421 31.1206 9.09347 31.1206 8.93297 31.0261C8.21074 30.6483 7.4885 30.4594 6.68602 30.365C5.80329 30.1761 5.00081 29.8928 4.27857 29.6094C4.27857 29.7983 4.19832 29.7039 4.03782 29.6094Z" fill="black"/>
</g>
</g>
<path d="M15.1931 27.4374C14.5511 27.5319 13.9894 27.5319 13.5079 27.6263C13.5079 27.5319 13.4276 27.5319 13.4276 27.4374C13.5881 27.2485 13.6684 27.0596 13.9091 26.9652C14.3906 26.6818 14.9523 26.4929 15.4338 26.2096C15.7548 26.1151 16.0758 26.0207 16.3968 25.9262C16.6376 25.8318 16.8783 25.6429 17.1191 25.5484C17.1191 25.454 17.1191 25.454 17.0388 25.3595C16.7981 25.2651 16.6376 25.0762 16.3968 24.9818C16.1561 24.7929 16.0758 24.604 16.2363 24.2262C16.4771 23.7539 16.7178 23.565 17.1993 23.4706C17.761 23.4706 18.3228 23.2817 18.8845 23.1872C19.045 23.1872 19.2055 22.9983 19.366 22.8094C19.366 22.715 19.366 22.715 19.366 22.6205C19.1253 22.6205 18.8845 22.6205 18.6438 22.6205C18.4833 22.6205 18.403 22.5261 18.2425 22.4317C18.3228 22.2428 18.3228 22.1483 18.403 21.9594C18.6438 21.5816 18.8845 21.2983 19.2858 21.2983C19.687 21.2983 19.7673 21.1094 19.5265 20.7316C19.366 20.4482 19.366 20.3538 19.6067 20.1649C20.0882 19.8815 20.008 19.3149 20.0882 18.7482C20.1685 18.3704 20.1685 17.9926 20.0882 17.6148C20.0882 17.4259 19.8475 17.1425 19.687 17.0481C19.4463 16.9537 19.4463 17.237 19.366 17.4259C19.366 17.5203 19.2858 17.6148 19.2858 17.7092C18.6438 18.2759 18.403 19.0315 18.2425 19.976C18.0018 19.7871 17.8413 19.5982 17.6005 19.3149C17.6005 19.7871 17.6808 20.0704 17.6808 20.4482C17.6808 21.0149 17.6005 21.0149 17.1993 20.826C16.7178 20.5427 16.7178 20.5427 16.4771 21.1094C16.3968 21.2038 16.3968 21.2983 16.3166 21.3927C16.1561 21.6761 15.9956 21.6761 15.9153 21.2983C15.8351 21.1094 15.8351 21.0149 15.7548 20.7316C15.2733 21.3927 14.6314 21.9594 14.7116 22.9039C14.7116 22.9983 14.7116 23.1872 14.7116 23.2817C14.6314 23.3761 14.5511 23.4706 14.4709 23.4706C14.3906 23.4706 14.3104 23.3761 14.2301 23.2817C14.2301 23.2817 14.2301 23.1872 14.2301 23.0928C14.1499 22.1483 14.1499 22.1483 13.4276 22.6205C12.7054 23.0928 12.7054 23.8484 12.6251 24.6984C12.6251 25.0762 12.6252 25.454 12.5449 25.8318C12.4647 25.8318 12.4646 25.8318 12.3844 25.9262C12.1437 25.5484 11.9029 25.1707 11.5819 24.7929C11.5017 24.9818 11.4214 25.0762 11.4214 25.1707C11.1004 26.5874 10.8597 28.0985 10.5387 29.5153C10.4584 29.7986 10.4584 30.1764 10.5387 30.5542C10.5387 30.7431 10.6992 30.932 10.7794 31.0264C10.8597 31.0264 11.1004 30.932 11.1807 30.8375C11.5819 29.9875 12.3042 29.7042 12.9461 29.3264C13.6684 28.9486 14.3104 28.3819 14.9524 27.7208C15.0326 27.8152 15.1128 27.6263 15.1931 27.4374Z" fill="url(#paint6_linear_0_1)"/>
<path d="M7.96299 23.4227C8.36424 23.8949 8.76548 24.2727 9.16672 24.745C9.24697 24.745 9.24698 24.6505 9.32723 24.6505C9.32723 24.4616 9.32722 24.1783 9.24697 23.9894C9.00623 23.4227 8.76548 22.9504 8.44449 22.3838C8.28399 22.1004 8.04325 21.8171 7.88275 21.5337C7.72226 21.2504 7.642 20.967 7.56175 20.6837L7.64201 20.5892C7.88275 20.6837 8.1235 20.6837 8.284 20.7781C8.60499 20.8726 8.68523 20.6837 8.76548 20.4003C8.84573 19.9281 8.76548 19.5503 8.36424 19.1725C7.96299 18.7003 7.64201 18.228 7.24077 17.7558C7.16052 17.5669 7.08027 17.378 7.00002 17.1891L7.08027 17.0947C7.24077 17.2835 7.40126 17.378 7.64201 17.5669C7.72225 17.6613 7.88275 17.6613 8.04325 17.7558C8.04325 17.6613 8.1235 17.4724 8.1235 17.378C8.1235 16.9058 8.12349 16.528 7.8025 16.2446C7.48151 15.9613 7.48151 15.7724 7.88275 15.5835C8.1235 15.489 8.20375 15.3946 8.1235 15.1112C7.963 14.5445 8.28399 14.1668 8.44449 13.789C8.60499 13.5056 8.76548 13.2223 9.00623 12.9389C9.16672 12.8445 9.40746 12.75 9.56796 12.75C9.80871 12.8445 9.64821 13.0334 9.64821 13.2223C9.64821 13.3167 9.56796 13.4112 9.56796 13.5056C9.72846 14.3557 9.56797 15.1112 9.24697 15.8668C9.48772 15.8668 9.72846 15.8668 10.0495 15.8668C9.80871 16.1502 9.64821 16.4335 9.40747 16.6224C9.16672 17.0002 9.16672 17.0947 9.56796 17.1891C10.0495 17.378 10.0495 17.378 9.9692 17.9447C9.9692 18.0391 9.96921 18.1336 9.88896 18.228C9.88896 18.5114 9.9692 18.6058 10.2099 18.5114C10.2902 18.4169 10.4507 18.3225 10.6112 18.228C10.6112 19.0781 10.7717 19.9281 10.2902 20.5892C10.21 20.6837 10.1297 20.7781 10.1297 20.8726C10.1297 20.967 10.1297 21.1559 10.2099 21.2504C10.2902 21.3448 10.3704 21.2504 10.4507 21.2504C10.5309 21.2504 10.531 21.1559 10.531 21.1559C11.0927 20.4948 11.0927 20.4948 11.3334 21.3448C11.5742 22.1949 11.2532 22.7615 10.8519 23.4227C10.6914 23.706 10.5309 23.9894 10.2902 24.2727C10.2902 24.3672 10.3704 24.3672 10.3704 24.4616C10.7717 24.3672 11.0927 24.2727 11.5742 24.1783C11.4939 24.3672 11.4939 24.4616 11.4939 24.5561C11.0124 25.7839 10.4507 27.1062 9.9692 28.334C9.88895 28.6173 9.64822 28.9007 9.48772 29.0896C9.40747 29.184 9.16673 29.2785 9.08648 29.184C9.00623 29.0896 8.84573 28.9007 8.84573 28.8062C9.00623 27.9562 8.60499 27.2006 8.284 26.5395C7.88275 25.7839 7.72225 24.9339 7.64201 23.9894C7.88275 23.706 7.88275 23.6116 7.96299 23.4227Z" fill="#275F3D"/>
<path d="M8.46492 23.4227C8.86616 23.8949 9.2674 24.2727 9.66864 24.745C9.74889 24.745 9.7489 24.6505 9.82915 24.6505C9.82915 24.4616 9.82914 24.1783 9.7489 23.9894C9.50815 23.4227 9.26741 22.9504 8.94641 22.3838C8.78592 22.1004 8.54517 21.8171 8.38468 21.5337C8.22418 21.2504 8.14393 20.967 8.06368 20.6837L8.14393 20.5892C8.38468 20.6837 8.62542 20.6837 8.78592 20.7781C9.10691 20.8726 9.18715 20.6837 9.2674 20.4003C9.34765 19.9281 9.2674 19.5503 8.86616 19.1725C8.46492 18.7003 8.14393 18.228 7.74269 17.7558C7.66244 17.5669 7.58219 17.378 7.50194 17.1891L7.58219 17.0947C7.74269 17.2835 7.90319 17.378 8.14393 17.5669C8.22418 17.6613 8.38468 17.6613 8.54517 17.7558C8.54517 17.6613 8.62543 17.4724 8.62543 17.378C8.62543 16.9058 8.62542 16.528 8.30442 16.2446C7.98343 15.9613 7.98344 15.7724 8.38468 15.5835C8.62542 15.489 8.70567 15.3946 8.62543 15.1112C8.46493 14.5445 8.78592 14.1668 8.94641 13.789C9.10691 13.5056 9.2674 13.2223 9.50815 12.9389C9.66865 12.8445 9.90939 12.75 10.0699 12.75C10.3106 12.8445 10.1501 13.0334 10.1501 13.2223C10.1501 13.3167 10.0699 13.4112 10.0699 13.5056C10.2304 14.3557 10.0699 15.1112 9.7489 15.8668C9.98964 15.8668 10.2304 15.8668 10.5514 15.8668C10.3106 16.1502 10.1501 16.4335 9.90939 16.6224C9.66865 17.0002 9.66864 17.0947 10.0699 17.1891C10.5514 17.378 10.5514 17.378 10.4711 17.9447C10.4711 18.0391 10.4711 18.1336 10.3909 18.228C10.3909 18.5114 10.4711 18.6058 10.7119 18.5114C10.7921 18.4169 10.9526 18.3225 11.1131 18.228C11.1131 19.0781 11.2736 19.9281 10.7921 20.5892C10.7119 20.6837 10.6316 20.7781 10.6316 20.8726C10.6316 20.967 10.6316 21.1559 10.7119 21.2504C10.7921 21.3448 10.8724 21.2504 10.9526 21.2504C11.0329 21.2504 11.0329 21.1559 11.0329 21.1559C11.5946 20.4948 11.5946 20.4948 11.8354 21.3448C12.0761 22.1949 11.7551 22.7615 11.3539 23.4227C11.1934 23.706 11.0329 23.9894 10.7921 24.2727C10.7921 24.3672 10.8724 24.3672 10.8724 24.4616C11.2736 24.3672 11.5946 24.2727 12.0761 24.1783C11.9958 24.3672 11.9959 24.4616 11.9959 24.5561C11.5144 25.7839 10.9526 27.1062 10.4711 28.334C10.3909 28.6173 10.1501 28.9007 9.98964 29.0896C9.9094 29.184 9.66865 29.2785 9.5884 29.184C9.50815 29.0896 9.34766 28.9007 9.34766 28.8062C9.50815 27.9562 9.10691 27.2006 8.78592 26.5395C8.38468 25.7839 8.22418 24.9339 8.14393 23.9894C8.38468 23.706 8.38467 23.6116 8.46492 23.4227Z" fill="url(#paint7_linear_0_1)"/>
<path d="M5.15943 27.4374C5.80141 27.5319 6.36316 27.5319 6.84465 27.6263C6.84465 27.5319 6.9249 27.5319 6.9249 27.4374C6.7644 27.2485 6.68415 27.0596 6.44341 26.9652C5.96192 26.6818 5.40018 26.4929 4.91869 26.2096C4.5977 26.1151 4.2767 26.0207 3.9557 25.9262C3.71496 25.8318 3.47422 25.6429 3.23347 25.5484C3.23347 25.454 3.23348 25.454 3.31373 25.3595C3.55447 25.2651 3.71496 25.0762 3.9557 24.9818C4.19645 24.7929 4.27671 24.604 4.11621 24.2262C3.87546 23.7539 3.63471 23.565 3.15322 23.4706C2.59148 23.4706 2.02975 23.2817 1.46801 23.1872C1.30752 23.1872 1.14701 22.9983 0.986518 22.8094C0.986518 22.715 0.986518 22.715 0.986518 22.6205C1.22726 22.6205 1.46802 22.6205 1.70876 22.6205C1.86926 22.6205 1.94951 22.5261 2.11 22.4317C2.02975 22.2428 2.02974 22.1483 1.9495 21.9594C1.70875 21.5816 1.46801 21.2983 1.06677 21.2983C0.66553 21.2983 0.585279 21.1094 0.826024 20.7316C0.986521 20.4482 0.986516 20.3538 0.745771 20.1649C0.264281 19.8815 0.344537 19.3149 0.264288 18.7482C0.18404 18.3704 0.18404 17.9926 0.264288 17.6148C0.264288 17.4259 0.505033 17.1425 0.66553 17.0481C0.906275 16.9537 0.90627 17.237 0.986518 17.4259C0.986518 17.5203 1.06677 17.6148 1.06677 17.7092C1.70876 18.2759 1.94951 19.0315 2.11 19.976C2.35075 19.7871 2.51123 19.5982 2.75198 19.3149C2.75198 19.7871 2.67174 20.0704 2.67174 20.4482C2.67174 21.0149 2.75198 21.0149 3.15322 20.826C3.63471 20.5427 3.63472 20.5427 3.87546 21.1094C3.95571 21.2038 3.95571 21.2983 4.03596 21.3927C4.19645 21.6761 4.35695 21.6761 4.4372 21.2983C4.51745 21.1094 4.51744 21.0149 4.59769 20.7316C5.07918 21.3927 5.72117 21.9594 5.64092 22.9039C5.64092 22.9983 5.64092 23.1872 5.64092 23.2817C5.72117 23.3761 5.80142 23.4706 5.88167 23.4706C5.96192 23.4706 6.04217 23.3761 6.12242 23.2817C6.12242 23.2817 6.12242 23.1872 6.12242 23.0928C6.20267 22.1483 6.20267 22.1483 6.9249 22.6205C7.64714 23.0928 7.64714 23.8484 7.72738 24.6984C7.72738 25.0762 7.72738 25.454 7.80763 25.8318C7.88787 25.8318 7.88787 25.8318 7.96812 25.9262C8.20886 25.5484 8.44961 25.1707 8.7706 24.7929C8.85085 24.9818 8.93111 25.0762 8.93111 25.1707C9.2521 26.5874 9.49284 28.0985 9.81383 29.5153C9.89408 29.7986 9.89408 30.1764 9.81383 30.5542C9.81383 30.7431 9.65333 30.932 9.57309 31.0264C9.49284 31.0264 9.25209 30.932 9.17184 30.8375C8.7706 29.9875 8.04837 29.7042 7.40638 29.3264C6.68415 28.9486 6.04216 28.3819 5.40018 27.7208C5.23968 27.8152 5.23968 27.6263 5.15943 27.4374Z" fill="#275F3D"/>
<path d="M5.45533 27.4374C6.09731 27.5319 6.65906 27.5319 7.14055 27.6263C7.14055 27.5319 7.2208 27.5319 7.2208 27.4374C7.0603 27.2485 6.98005 27.0596 6.7393 26.9652C6.25782 26.6818 5.69608 26.4929 5.21459 26.2096C4.8936 26.1151 4.5726 26.0207 4.2516 25.9262C4.01086 25.8318 3.77012 25.6429 3.52937 25.5484C3.52937 25.454 3.52938 25.454 3.60963 25.3595C3.85037 25.2651 4.01086 25.0762 4.2516 24.9818C4.49235 24.7929 4.57261 24.604 4.41211 24.2262C4.17136 23.7539 3.93061 23.565 3.44912 23.4706C2.88738 23.4706 2.32565 23.2817 1.76391 23.1872C1.60342 23.1872 1.44291 22.9983 1.28242 22.8094C1.28242 22.715 1.28242 22.715 1.28242 22.6205C1.52316 22.6205 1.76391 22.6205 2.00466 22.6205C2.16516 22.6205 2.2454 22.5261 2.4059 22.4317C2.32565 22.2428 2.32564 22.1483 2.24539 21.9594C2.00465 21.5816 1.76391 21.2983 1.36267 21.2983C0.961429 21.2983 0.881178 21.1094 1.12192 20.7316C1.28242 20.4482 1.28242 20.3538 1.04167 20.1649C0.56018 19.8815 0.640436 19.3149 0.560188 18.7482C0.479939 18.3704 0.479939 17.9926 0.560188 17.6148C0.560188 17.4259 0.800932 17.1425 0.961429 17.0481C1.20217 16.9537 1.20217 17.237 1.28242 17.4259C1.28242 17.5203 1.36267 17.6148 1.36267 17.7092C2.00466 18.2759 2.2454 19.0315 2.4059 19.976C2.64665 19.7871 2.80713 19.5982 3.04788 19.3149C3.04788 19.7871 2.96764 20.0704 2.96764 20.4482C2.96764 21.0149 3.04788 21.0149 3.44912 20.826C3.93061 20.5427 3.93062 20.5427 4.17136 21.1094C4.25161 21.2038 4.25161 21.2983 4.33186 21.3927C4.49235 21.6761 4.65285 21.6761 4.7331 21.2983C4.81335 21.1094 4.81334 21.0149 4.89359 20.7316C5.37508 21.3927 6.01707 21.9594 5.93682 22.9039C5.93682 22.9983 5.93682 23.1872 5.93682 23.2817C6.01707 23.3761 6.09732 23.4706 6.17757 23.4706C6.25782 23.4706 6.33807 23.3761 6.41832 23.2817C6.41832 23.2817 6.41832 23.1872 6.41832 23.0928C6.49857 22.1483 6.49857 22.1483 7.2208 22.6205C7.94303 23.0928 7.94303 23.8484 8.02328 24.6984C8.02328 25.0762 8.02328 25.454 8.10352 25.8318C8.18377 25.8318 8.18377 25.8318 8.26402 25.9262C8.50476 25.5484 8.74551 25.1707 9.0665 24.7929C9.14675 24.9818 9.22701 25.0762 9.22701 25.1707C9.548 26.5874 9.78874 28.0985 10.1097 29.5153C10.19 29.7986 10.19 30.1764 10.1097 30.5542C10.1097 30.7431 9.94923 30.932 9.86898 31.0264C9.78874 31.0264 9.54799 30.932 9.46774 30.8375C9.0665 29.9875 8.34427 29.7042 7.70228 29.3264C6.98005 28.9486 6.33806 28.3819 5.69607 27.7208C5.53558 27.8152 5.53558 27.6263 5.45533 27.4374Z" fill="url(#paint8_linear_0_1)"/>
<path fill-rule="evenodd" clip-rule="evenodd" d="M10.0989 9.53416C10.2182 9.46455 10.3713 9.50478 10.4409 9.62402C12.6162 13.3502 12.4839 18.5018 11.8321 22.6748C11.5049 24.7692 11.0441 26.6334 10.6652 27.9738C10.4756 28.6442 10.3065 29.1842 10.1845 29.557C10.1235 29.7434 10.0743 29.888 10.0403 29.9864C10.0232 30.0355 10.01 30.0731 10.001 30.0986L9.99062 30.1276L9.98791 30.1351L9.98718 30.1371C9.98713 30.1372 9.98689 30.1379 9.75194 30.0525L9.51701 29.967L9.51769 29.9651L9.52009 29.9584L9.5298 29.9313C9.5384 29.907 9.55121 29.8707 9.56779 29.8228C9.60096 29.727 9.64924 29.585 9.70929 29.4015C9.8294 29.0344 9.99655 28.501 10.184 27.8378C10.559 26.5111 11.0148 24.6671 11.3381 22.5976C11.9871 18.4426 12.0914 13.4431 10.0091 9.87611C9.93945 9.75687 9.97969 9.60377 10.0989 9.53416ZM9.66651 30.2874C9.53675 30.2402 9.46982 30.0967 9.51701 29.967L9.75194 30.0525L9.98718 30.1371C9.94 30.2668 9.79626 30.3346 9.66651 30.2874Z" fill="#275F3D"/>
<path fill-rule="evenodd" clip-rule="evenodd" d="M8.34056 12.6143L7.53807 16.3859L9.86527 13.4167L10.6678 15.6637V13.4167L12.995 14.9415C12.995 14.9415 10.6678 12.6945 11.4702 12.6945C12.2727 12.6945 15.3222 12.6945 15.3222 12.6945L10.6678 11.25L8.34056 12.6143Z" fill="#275F3D"/>
<path d="M12.8438 9.02444C12.8438 9.10547 12.8432 9.18214 12.8526 9.24807C12.8621 9.31473 12.8806 9.36206 12.9092 9.39065L12.9942 9.47561H12.5459C12.5424 9.47537 12.537 9.47545 12.5313 9.47463C12.5269 9.474 12.5221 9.47189 12.5166 9.47073C12.5269 9.48879 12.5379 9.5064 12.5469 9.52444C12.5779 9.58638 12.5996 9.6507 12.6016 9.7344L12.6446 9.93753C12.6523 9.99202 12.6545 10.0425 12.6407 10.084C12.6254 10.1298 12.5928 10.1605 12.5479 10.1778C12.5257 10.1863 12.5 10.1902 12.4717 10.1934C12.5065 10.2593 12.5472 10.3378 12.5703 10.4151C12.6028 10.5234 12.6066 10.6463 12.5078 10.7451C12.4718 10.7812 12.4224 10.7855 12.3809 10.7813C12.3386 10.7769 12.2912 10.7621 12.2461 10.7471C12.1988 10.7313 12.1539 10.7147 12.1084 10.7012C12.0844 10.694 12.0618 10.6884 12.041 10.6846V10.8643C12.0797 10.9823 12.102 11.0883 12.0909 11.1778C12.08 11.2641 12.0372 11.3304 11.961 11.378V11.4463L11.9532 11.458C11.8937 11.5571 11.8475 11.6355 11.8067 11.6895C11.7671 11.7418 11.7236 11.7849 11.667 11.793C11.6097 11.8012 11.557 11.7704 11.5069 11.7305C11.4808 11.7098 11.4542 11.6814 11.4219 11.6504C11.4354 11.7639 11.432 11.8561 11.4112 11.9317C11.3813 12.0399 11.3203 12.1109 11.2451 12.1573C11.1719 12.2023 11.0862 12.2231 11.0088 12.2383C10.9276 12.2543 10.8589 12.2635 10.8028 12.2823C10.7358 12.3045 10.6772 12.3073 10.626 12.2862C10.5757 12.2653 10.541 12.2244 10.5137 12.1807C10.4868 12.1375 10.4629 12.0834 10.4375 12.0303C10.4218 11.9973 10.402 11.965 10.3828 11.9307C10.3448 11.9833 10.3018 12.0283 10.2608 12.0694C10.1998 12.1303 10.1453 12.185 10.1094 12.2569L10.1074 12.2608C9.86286 12.6683 9.61493 12.9185 9.2012 13.084L9.19143 13.0869H9.18264C9.17921 13.0869 9.16991 13.0894 9.15139 13.1035C9.13327 13.1174 9.11277 13.1373 9.08694 13.1631C9.03742 13.2126 8.97199 13.2781 8.88381 13.3223C8.81203 13.3582 8.7572 13.4128 8.69631 13.4737C8.63695 13.533 8.57101 13.5993 8.48244 13.6436C8.44198 13.6638 8.40202 13.6818 8.36526 13.6895C8.32753 13.6973 8.28498 13.6959 8.24904 13.669C8.21519 13.6435 8.19661 13.602 8.18557 13.5537C8.18289 13.542 8.1817 13.5291 8.17971 13.5157C8.16184 13.5397 8.14478 13.5633 8.12404 13.584C8.06897 13.6391 8.004 13.6821 7.92092 13.7237C7.84319 13.7625 7.76934 13.8185 7.68361 13.8721C7.6066 13.9202 7.52042 13.9638 7.42971 13.9678C7.4066 13.978 7.38282 13.9839 7.35842 13.9815C7.33022 13.9786 7.30662 13.9658 7.2881 13.9483C7.25401 13.9158 7.23389 13.8639 7.21877 13.8135C7.20306 13.7611 7.18932 13.6982 7.1758 13.6368C7.16919 13.6067 7.15974 13.5774 7.15236 13.5479C6.92792 13.8321 6.68352 14.0498 6.29298 14.0498C6.21209 14.0498 6.11323 14.0506 6.01759 13.9551L6.00294 13.9405V13.5909L6.0049 13.583C6.0463 13.4589 6.10821 13.3354 6.16798 13.2159C6.21755 13.1167 6.26269 13.0185 6.29982 12.9229C6.1211 12.9188 5.94381 12.9034 5.77638 12.8858C5.58481 12.8656 5.40725 12.8467 5.25001 12.8467H5.20021V12.6983L5.21095 12.6846C5.37584 12.4785 5.5608 12.3346 5.75294 12.2032C5.93486 12.0787 6.11834 11.9661 6.3047 11.8213C6.00162 11.4106 6.00788 10.9276 6.16603 10.4532V10.4502H6.16701C6.20772 10.3485 6.24949 10.2645 6.29396 10.2012C6.33812 10.1383 6.38854 10.0902 6.44826 10.0703C6.51048 10.0497 6.57319 10.0627 6.63381 10.0996C6.69177 10.135 6.75021 10.1938 6.81056 10.2735L6.89748 10.3604C6.90596 10.3219 6.91721 10.2886 6.92873 10.2598C6.93972 10.2323 6.94899 10.2134 6.95607 10.1934C6.96274 10.1745 6.9658 10.1603 6.96584 10.1485C6.96584 9.73367 7.13183 9.39921 7.46193 9.14944C7.52227 9.08912 7.57606 9.04071 7.626 9.00881C7.6766 8.97656 7.72847 8.9579 7.7842 8.96487C7.83892 8.97174 7.88799 9.00244 7.93654 9.0469C7.98524 9.09154 8.03814 9.15469 8.09865 9.23538L8.10451 9.24123C8.21464 8.64172 8.61017 8.32655 8.99026 8.02248L8.99905 8.01565C9.03861 7.99586 9.08171 7.97599 9.12307 7.95998C9.16419 7.94408 9.20817 7.93174 9.25198 7.93166C9.29751 7.93166 9.34282 7.94464 9.38186 7.97854C9.41798 8.00995 9.44547 8.05657 9.46682 8.11721C9.5114 8.16752 9.53205 8.2344 9.54202 8.29397C9.54528 8.31354 9.54337 8.33376 9.54495 8.35256C9.68269 8.21649 9.83044 8.07727 10.0371 7.93947C10.1602 7.81811 10.3254 7.69806 10.4688 7.61135L10.6045 7.53518C10.6658 7.4951 10.7229 7.47098 10.7754 7.46779C10.833 7.46432 10.881 7.48634 10.916 7.52834C10.9488 7.56776 10.9685 7.6225 10.9805 7.68361C10.9926 7.74562 10.9981 7.81946 10.9981 7.90139V7.96975C11.1995 7.84047 11.3441 7.76794 11.4873 7.69631C11.5644 7.65775 11.6225 7.61923 11.6826 7.57912C11.7428 7.53902 11.8054 7.49673 11.8887 7.4551L11.8985 7.45021H12.1211V7.75295L12.1162 7.76272C12.079 7.83723 12.0593 7.91248 12.0391 7.99318C12.0285 8.03574 12.0165 8.07998 12.002 8.12502C12.1254 8.06658 12.2541 8.01332 12.3858 8.01174C12.5109 7.97246 12.6175 7.98828 12.6748 8.07424C12.728 8.1543 12.7221 8.27426 12.6807 8.39846C12.6413 8.51668 12.624 8.6091 12.6328 8.6885C12.6415 8.76543 12.6746 8.83572 12.7481 8.9092L12.8291 8.98928L12.8438 9.00393V9.02444Z" fill="url(#paint9_radial_0_1)"/>
<path d="M12.8438 9.02444C12.8438 9.10547 12.8432 9.18214 12.8526 9.24807C12.8621 9.31473 12.8806 9.36206 12.9092 9.39065L12.9942 9.47561H12.5459C12.5424 9.47537 12.537 9.47545 12.5313 9.47463C12.5269 9.474 12.5221 9.47189 12.5166 9.47073C12.5269 9.48879 12.5379 9.5064 12.5469 9.52444C12.5779 9.58638 12.5996 9.6507 12.6016 9.7344L12.6446 9.93753C12.6523 9.99202 12.6545 10.0425 12.6407 10.084C12.6254 10.1298 12.5928 10.1605 12.5479 10.1778C12.5257 10.1863 12.5 10.1902 12.4717 10.1934C12.5065 10.2593 12.5472 10.3378 12.5703 10.4151C12.6028 10.5234 12.6066 10.6463 12.5078 10.7451C12.4718 10.7812 12.4224 10.7855 12.3809 10.7813C12.3386 10.7769 12.2912 10.7621 12.2461 10.7471C12.1988 10.7313 12.1539 10.7147 12.1084 10.7012C12.0844 10.694 12.0618 10.6884 12.041 10.6846V10.8643C12.0797 10.9823 12.102 11.0883 12.0909 11.1778C12.08 11.2641 12.0372 11.3304 11.961 11.378V11.4463L11.9532 11.458C11.8937 11.5571 11.8475 11.6355 11.8067 11.6895C11.7671 11.7418 11.7236 11.7849 11.667 11.793C11.6097 11.8012 11.557 11.7704 11.5069 11.7305C11.4808 11.7098 11.4542 11.6814 11.4219 11.6504C11.4354 11.7639 11.432 11.8561 11.4112 11.9317C11.3813 12.0399 11.3203 12.1109 11.2451 12.1573C11.1719 12.2023 11.0862 12.2231 11.0088 12.2383C10.9276 12.2543 10.8589 12.2635 10.8028 12.2823C10.7358 12.3045 10.6772 12.3073 10.626 12.2862C10.5757 12.2653 10.541 12.2244 10.5137 12.1807C10.4868 12.1375 10.4629 12.0834 10.4375 12.0303C10.4218 11.9973 10.402 11.965 10.3828 11.9307C10.3448 11.9833 10.3018 12.0283 10.2608 12.0694C10.1998 12.1303 10.1453 12.185 10.1094 12.2569L10.1074 12.2608C9.86286 12.6683 9.61493 12.9185 9.2012 13.084L9.19143 13.0869H9.18264C9.17921 13.0869 9.16991 13.0894 9.15139 13.1035C9.13327 13.1174 9.11277 13.1373 9.08694 13.1631C9.03742 13.2126 8.97199 13.2781 8.88381 13.3223C8.81203 13.3582 8.7572 13.4128 8.69631 13.4737C8.63695 13.533 8.57101 13.5993 8.48244 13.6436C8.44198 13.6638 8.40202 13.6818 8.36526 13.6895C8.32753 13.6973 8.28498 13.6959 8.24904 13.669C8.21519 13.6435 8.19661 13.602 8.18557 13.5537C8.18289 13.542 8.1817 13.5291 8.17971 13.5157C8.16184 13.5397 8.14478 13.5633 8.12404 13.584C8.06897 13.6391 8.004 13.6821 7.92092 13.7237C7.84319 13.7625 7.76934 13.8185 7.68361 13.8721C7.6066 13.9202 7.52042 13.9638 7.42971 13.9678C7.4066 13.978 7.38282 13.9839 7.35842 13.9815C7.33022 13.9786 7.30662 13.9658 7.2881 13.9483C7.25401 13.9158 7.23389 13.8639 7.21877 13.8135C7.20306 13.7611 7.18932 13.6982 7.1758 13.6368C7.16919 13.6067 7.15974 13.5774 7.15236 13.5479C6.92792 13.8321 6.68352 14.0498 6.29298 14.0498C6.21209 14.0498 6.11323 14.0506 6.01759 13.9551L6.00294 13.9405V13.5909L6.0049 13.583C6.0463 13.4589 6.10821 13.3354 6.16798 13.2159C6.21755 13.1167 6.26269 13.0185 6.29982 12.9229C6.1211 12.9188 5.94381 12.9034 5.77638 12.8858C5.58481 12.8656 5.40725 12.8467 5.25001 12.8467H5.20021V12.6983L5.21095 12.6846C5.37584 12.4785 5.5608 12.3346 5.75294 12.2032C5.93486 12.0787 6.11834 11.9661 6.3047 11.8213C6.00162 11.4106 6.00788 10.9276 6.16603 10.4532V10.4502H6.16701C6.20772 10.3485 6.24949 10.2645 6.29396 10.2012C6.33812 10.1383 6.38854 10.0902 6.44826 10.0703C6.51048 10.0497 6.57319 10.0627 6.63381 10.0996C6.69177 10.135 6.75021 10.1938 6.81056 10.2735L6.89748 10.3604C6.90596 10.3219 6.91721 10.2886 6.92873 10.2598C6.93972 10.2323 6.94899 10.2134 6.95607 10.1934C6.96274 10.1745 6.9658 10.1603 6.96584 10.1485C6.96584 9.73367 7.13183 9.39921 7.46193 9.14944C7.52227 9.08912 7.57606 9.04071 7.626 9.00881C7.6766 8.97656 7.72847 8.9579 7.7842 8.96487C7.83892 8.97174 7.88799 9.00244 7.93654 9.0469C7.98524 9.09154 8.03814 9.15469 8.09865 9.23538L8.10451 9.24123C8.21464 8.64172 8.61017 8.32655 8.99026 8.02248L8.99905 8.01565C9.03861 7.99586 9.08171 7.97599 9.12307 7.95998C9.16419 7.94408 9.20817 7.93174 9.25198 7.93166C9.29751 7.93166 9.34282 7.94464 9.38186 7.97854C9.41798 8.00995 9.44547 8.05657 9.46682 8.11721C9.5114 8.16752 9.53205 8.2344 9.54202 8.29397C9.54528 8.31354 9.54337 8.33376 9.54495 8.35256C9.68269 8.21649 9.83044 8.07727 10.0371 7.93947C10.1602 7.81811 10.3254 7.69806 10.4688 7.61135L10.6045 7.53518C10.6658 7.4951 10.7229 7.47098 10.7754 7.46779C10.833 7.46432 10.881 7.48634 10.916 7.52834C10.9488 7.56776 10.9685 7.6225 10.9805 7.68361C10.9926 7.74562 10.9981 7.81946 10.9981 7.90139V7.96975C11.1995 7.84047 11.3441 7.76794 11.4873 7.69631C11.5644 7.65775 11.6225 7.61923 11.6826 7.57912C11.7428 7.53902 11.8054 7.49673 11.8887 7.4551L11.8985 7.45021H12.1211V7.75295L12.1162 7.76272C12.079 7.83723 12.0593 7.91248 12.0391 7.99318C12.0285 8.03574 12.0165 8.07998 12.002 8.12502C12.1254 8.06658 12.2541 8.01332 12.3858 8.01174C12.5109 7.97246 12.6175 7.98828 12.6748 8.07424C12.728 8.1543 12.7221 8.27426 12.6807 8.39846C12.6413 8.51668 12.624 8.6091 12.6328 8.6885C12.6415 8.76543 12.6746 8.83572 12.7481 8.9092L12.8291 8.98928L12.8438 9.00393V9.02444Z" fill="url(#paint10_linear_0_1)"/>
<path d="M12.8438 9.02444C12.8438 9.10547 12.8432 9.18214 12.8526 9.24807C12.8621 9.31473 12.8806 9.36206 12.9092 9.39065L12.9942 9.47561H12.5459C12.5424 9.47537 12.537 9.47545 12.5313 9.47463C12.5269 9.474 12.5221 9.47189 12.5166 9.47073C12.5269 9.48879 12.5379 9.5064 12.5469 9.52444C12.5779 9.58638 12.5996 9.6507 12.6016 9.7344L12.6446 9.93753C12.6523 9.99202 12.6545 10.0425 12.6407 10.084C12.6254 10.1298 12.5928 10.1605 12.5479 10.1778C12.5257 10.1863 12.5 10.1902 12.4717 10.1934C12.5065 10.2593 12.5472 10.3378 12.5703 10.4151C12.6028 10.5234 12.6066 10.6463 12.5078 10.7451C12.4718 10.7812 12.4224 10.7855 12.3809 10.7813C12.3386 10.7769 12.2912 10.7621 12.2461 10.7471C12.1988 10.7313 12.1539 10.7147 12.1084 10.7012C12.0844 10.694 12.0618 10.6884 12.041 10.6846V10.8643C12.0797 10.9823 12.102 11.0883 12.0909 11.1778C12.08 11.2641 12.0372 11.3304 11.961 11.378V11.4463L11.9532 11.458C11.8937 11.5571 11.8475 11.6355 11.8067 11.6895C11.7671 11.7418 11.7236 11.7849 11.667 11.793C11.6097 11.8012 11.557 11.7704 11.5069 11.7305C11.4808 11.7098 11.4542 11.6814 11.4219 11.6504C11.4354 11.7639 11.432 11.8561 11.4112 11.9317C11.3813 12.0399 11.3203 12.1109 11.2451 12.1573C11.1719 12.2023 11.0862 12.2231 11.0088 12.2383C10.9276 12.2543 10.8589 12.2635 10.8028 12.2823C10.7358 12.3045 10.6772 12.3073 10.626 12.2862C10.5757 12.2653 10.541 12.2244 10.5137 12.1807C10.4868 12.1375 10.4629 12.0834 10.4375 12.0303C10.4218 11.9973 10.402 11.965 10.3828 11.9307C10.3448 11.9833 10.3018 12.0283 10.2608 12.0694C10.1998 12.1303 10.1453 12.185 10.1094 12.2569L10.1074 12.2608C9.86286 12.6683 9.61493 12.9185 9.2012 13.084L9.19143 13.0869H9.18264C9.17921 13.0869 9.16991 13.0894 9.15139 13.1035C9.13327 13.1174 9.11277 13.1373 9.08694 13.1631C9.03742 13.2126 8.97199 13.2781 8.88381 13.3223C8.81203 13.3582 8.7572 13.4128 8.69631 13.4737C8.63695 13.533 8.57101 13.5993 8.48244 13.6436C8.44198 13.6638 8.40202 13.6818 8.36526 13.6895C8.32753 13.6973 8.28498 13.6959 8.24904 13.669C8.21519 13.6435 8.19661 13.602 8.18557 13.5537C8.18289 13.542 8.1817 13.5291 8.17971 13.5157C8.16184 13.5397 8.14478 13.5633 8.12404 13.584C8.06897 13.6391 8.004 13.6821 7.92092 13.7237C7.84319 13.7625 7.76934 13.8185 7.68361 13.8721C7.6066 13.9202 7.52042 13.9638 7.42971 13.9678C7.4066 13.978 7.38282 13.9839 7.35842 13.9815C7.33022 13.9786 7.30662 13.9658 7.2881 13.9483C7.25401 13.9158 7.23389 13.8639 7.21877 13.8135C7.20306 13.7611 7.18932 13.6982 7.1758 13.6368C7.16919 13.6067 7.15974 13.5774 7.15236 13.5479C6.92792 13.8321 6.68352 14.0498 6.29298 14.0498C6.21209 14.0498 6.11323 14.0506 6.01759 13.9551L6.00294 13.9405V13.5909L6.0049 13.583C6.0463 13.4589 6.10821 13.3354 6.16798 13.2159C6.21755 13.1167 6.26269 13.0185 6.29982 12.9229C6.1211 12.9188 5.94381 12.9034 5.77638 12.8858C5.58481 12.8656 5.40725 12.8467 5.25001 12.8467H5.20021V12.6983L5.21095 12.6846C5.37584 12.4785 5.5608 12.3346 5.75294 12.2032C5.93486 12.0787 6.11834 11.9661 6.3047 11.8213C6.00162 11.4106 6.00788 10.9276 6.16603 10.4532V10.4502H6.16701C6.20772 10.3485 6.24949 10.2645 6.29396 10.2012C6.33812 10.1383 6.38854 10.0902 6.44826 10.0703C6.51048 10.0497 6.57319 10.0627 6.63381 10.0996C6.69177 10.135 6.75021 10.1938 6.81056 10.2735L6.89748 10.3604C6.90596 10.3219 6.91721 10.2886 6.92873 10.2598C6.93972 10.2323 6.94899 10.2134 6.95607 10.1934C6.96274 10.1745 6.9658 10.1603 6.96584 10.1485C6.96584 9.73367 7.13183 9.39921 7.46193 9.14944C7.52227 9.08912 7.57606 9.04071 7.626 9.00881C7.6766 8.97656 7.72847 8.9579 7.7842 8.96487C7.83892 8.97174 7.88799 9.00244 7.93654 9.0469C7.98524 9.09154 8.03814 9.15469 8.09865 9.23538L8.10451 9.24123C8.21464 8.64172 8.61017 8.32655 8.99026 8.02248L8.99905 8.01565C9.03861 7.99586 9.08171 7.97599 9.12307 7.95998C9.16419 7.94408 9.20817 7.93174 9.25198 7.93166C9.29751 7.93166 9.34282 7.94464 9.38186 7.97854C9.41798 8.00995 9.44547 8.05657 9.46682 8.11721C9.5114 8.16752 9.53205 8.2344 9.54202 8.29397C9.54528 8.31354 9.54337 8.33376 9.54495 8.35256C9.68269 8.21649 9.83044 8.07727 10.0371 7.93947C10.1602 7.81811 10.3254 7.69806 10.4688 7.61135L10.6045 7.53518C10.6658 7.4951 10.7229 7.47098 10.7754 7.46779C10.833 7.46432 10.881 7.48634 10.916 7.52834C10.9488 7.56776 10.9685 7.6225 10.9805 7.68361C10.9926 7.74562 10.9981 7.81946 10.9981 7.90139V7.96975C11.1995 7.84047 11.3441 7.76794 11.4873 7.69631C11.5644 7.65775 11.6225 7.61923 11.6826 7.57912C11.7428 7.53902 11.8054 7.49673 11.8887 7.4551L11.8985 7.45021H12.1211V7.75295L12.1162 7.76272C12.079 7.83723 12.0593 7.91248 12.0391 7.99318C12.0285 8.03574 12.0165 8.07998 12.002 8.12502C12.1254 8.06658 12.2541 8.01332 12.3858 8.01174C12.5109 7.97246 12.6175 7.98828 12.6748 8.07424C12.728 8.1543 12.7221 8.27426 12.6807 8.39846C12.6413 8.51668 12.624 8.6091 12.6328 8.6885C12.6415 8.76543 12.6746 8.83572 12.7481 8.9092L12.8291 8.98928L12.8438 9.00393V9.02444Z" stroke="#BD6600" stroke-width="0.1"/>
<path d="M13.7467 32.0311C14.4689 31.7101 14.3084 30.9076 13.5862 30.6669C12.3824 30.2656 10.8577 29.8644 10.4565 29.7841C9.97499 29.6236 8.12928 30.4261 7.08605 30.9076C6.60456 31.1484 6.44407 31.5496 6.68481 31.9508C7.0058 32.3521 9.41325 32.0311 10.7775 32.2718C12.3824 32.5126 12.4627 32.5928 13.7467 32.0311Z" fill="#9A5240"/>
<g opacity="0.6">
<path opacity="0.3" d="M18.1364 38.3975C18.7784 38.3975 19.2599 38.492 19.8217 38.492V38.3975C19.5809 38.3031 19.4204 38.2086 19.1797 38.1142C18.6179 38.0197 18.0562 37.8308 17.4944 37.7364C17.1734 37.6419 16.8525 37.6419 16.4512 37.6419C16.2105 37.6419 15.8895 37.5475 15.6487 37.453C15.6487 37.453 15.6487 37.453 15.6487 37.3586C15.8092 37.2641 15.9697 37.2641 16.1302 37.1697C16.2907 37.0752 16.2907 36.9808 15.9697 36.7919C15.5685 36.603 15.2475 36.5086 14.766 36.4141C14.2043 36.4141 13.6425 36.3197 13.0005 36.2252C12.84 36.2252 12.5993 36.1308 12.3586 36.0363C12.3586 36.0363 12.3586 35.9419 12.2783 35.9419C12.519 35.9419 12.6795 35.9419 12.9203 35.9419C13.0808 35.9419 13.161 35.8474 13.2413 35.8474C13.161 35.753 13.0808 35.6585 12.9203 35.6585C12.5993 35.4696 12.1981 35.3752 11.7968 35.3752C11.3956 35.3752 11.2351 35.2807 11.3153 35.0918C11.3153 34.9974 11.3153 34.9029 10.9943 34.8085C10.4326 34.714 10.2721 34.4307 10.0313 34.1473C9.87085 33.9584 9.71036 33.7696 9.63011 33.5807C9.54986 33.4862 9.63012 33.3918 9.79061 33.2973C9.95111 33.2029 10.1116 33.3918 10.1919 33.4862C10.2721 33.4862 10.3523 33.5807 10.4326 33.5807C11.2351 33.864 11.7166 34.2418 12.2783 34.6196C12.3586 34.5251 12.519 34.4307 12.6795 34.3362C12.84 34.5251 12.9203 34.714 13.0005 34.9029C13.161 35.1863 13.3215 35.1863 13.5623 35.0918C13.8833 34.9974 13.8833 34.9974 14.3648 35.2807C14.445 35.3752 14.5253 35.3752 14.6055 35.3752C14.8463 35.4696 15.0068 35.4696 15.0068 35.3752C15.0068 35.2807 14.9265 35.1863 14.9265 35.0918C15.6487 35.4696 16.4512 35.6585 16.7722 36.1308C16.8525 36.2252 16.8525 36.2252 16.9327 36.3197C17.013 36.4141 17.1734 36.4141 17.2537 36.4141C17.3339 36.4141 17.334 36.3197 17.4142 36.3197C17.4142 36.3197 17.4142 36.2252 17.3339 36.2252C17.013 35.753 17.013 35.753 17.8957 36.0363C18.7784 36.2252 19.0994 36.603 19.4204 36.9808C19.5809 37.1697 19.7414 37.3586 19.9019 37.5475C19.9821 37.5475 19.9821 37.5475 20.0624 37.5475C20.1426 37.3586 20.2229 37.1697 20.3834 36.9808C20.5439 37.0752 20.6241 37.1697 20.7044 37.1697C21.5069 37.8308 22.3896 38.492 23.1921 39.2476C23.3526 39.4364 23.5131 39.5309 23.5933 39.7198C23.6736 39.8142 23.5933 39.9087 23.5131 39.9087C23.4328 39.9087 23.1921 39.9087 23.0316 39.8142C22.3093 39.4364 21.5871 39.2476 20.7846 39.1531C19.9019 38.9642 19.0994 38.6809 18.3772 38.3975C18.3772 38.5864 18.2969 38.492 18.1364 38.3975Z" fill="black"/>
</g>
<path d="M29.2908 36.2245C28.6488 36.319 28.087 36.319 27.6055 36.4134C27.6055 36.319 27.5253 36.319 27.5253 36.2245C27.6858 36.0356 27.766 35.8467 28.0068 35.7523C28.4883 35.469 29.05 35.2801 29.5315 34.9967C29.8525 34.9023 30.1735 34.8078 30.4945 34.7134C30.7352 34.6189 30.976 34.43 31.2167 34.3356C31.2167 34.2411 31.2167 34.2411 31.1365 34.1467C30.8957 34.0522 30.7352 33.8633 30.4945 33.7689C30.2537 33.58 30.1735 33.3911 30.334 33.0133C30.5747 32.5411 30.8155 32.3522 31.297 32.2577C31.8587 32.2577 32.4204 32.0688 32.9822 31.9744C33.1427 31.9744 33.3032 31.7855 33.4637 31.5966C33.4637 31.5021 33.4637 31.5021 33.4637 31.4077C33.2229 31.4077 32.9822 31.4077 32.7414 31.4077C32.5809 31.4077 32.5007 31.3132 32.3402 31.2188C32.4204 31.0299 32.4204 30.9354 32.5007 30.7465C32.7414 30.3687 32.9822 30.0854 33.3834 30.0854C33.7847 30.0854 33.8649 29.8965 33.6242 29.5187C33.4637 29.2354 33.4637 29.1409 33.7044 28.952C34.1859 28.6687 34.1057 28.102 34.1859 27.5353C34.2662 27.1575 34.2662 26.7797 34.1859 26.4019C34.1859 26.213 33.9452 25.9297 33.7847 25.8352C33.5439 25.7408 33.5439 26.0241 33.4637 26.213C33.4637 26.3075 33.3834 26.4019 33.3834 26.4964C32.7414 27.0631 32.5007 27.8186 32.3402 28.7631C32.0994 28.5742 31.9389 28.3853 31.6982 28.102C31.6982 28.5742 31.7785 28.8576 31.7785 29.2354C31.7785 29.8021 31.6982 29.8021 31.297 29.6132C30.8155 29.3298 30.8155 29.3298 30.5747 29.8965C30.4945 29.991 30.4945 30.0854 30.4142 30.1799C30.2537 30.4632 30.0932 30.4632 30.013 30.0854C29.9327 29.8965 29.9327 29.8021 29.8525 29.5187C29.371 30.1799 28.729 30.7465 28.8093 31.691C28.8093 31.7855 28.8093 31.9744 28.8093 32.0688C28.729 32.1633 28.6488 32.2577 28.5685 32.2577C28.4883 32.2577 28.408 32.1633 28.3278 32.0688C28.3278 32.0688 28.3278 31.9744 28.3278 31.8799C28.2475 30.9354 28.2475 30.9354 27.5253 31.4077C26.8031 31.8799 26.8031 32.6355 26.7228 33.4855C26.7228 33.8633 26.7228 34.2411 26.6426 34.6189C26.5623 34.6189 26.5623 34.6189 26.4821 34.7134C26.2413 34.3356 26.0006 33.9578 25.6796 33.58C25.5993 33.7689 25.5191 33.8633 25.5191 33.9578C25.1981 35.3745 24.9574 36.8857 24.6364 38.3024C24.5561 38.5857 24.5561 38.9635 24.6364 39.3413C24.6364 39.5302 24.7968 39.7191 24.8771 39.8136C24.9573 39.8136 25.1981 39.7191 25.2783 39.6247C25.6796 38.7746 26.4018 38.4913 27.0438 38.1135C27.766 37.7357 28.408 37.169 29.05 36.5079C29.1303 36.6023 29.2105 36.4134 29.2908 36.2245Z" fill="url(#paint11_linear_0_1)"/>
<path d="M22.7149 32.9911C23.1162 33.4633 23.5174 33.8411 23.9186 34.3133C23.9989 34.3133 23.9989 34.2189 24.0792 34.2189C24.0792 34.03 24.0792 33.7467 23.9989 33.5578C23.7582 32.9911 23.5174 32.5188 23.1964 31.9521C23.0359 31.6688 22.7952 31.3854 22.6347 31.1021C22.4742 30.8188 22.3939 30.5354 22.3137 30.2521L22.3939 30.1576C22.6347 30.2521 22.8754 30.2521 23.0359 30.3465C23.3569 30.441 23.4372 30.2521 23.5174 29.9687C23.5977 29.4965 23.5174 29.1187 23.1162 28.7409C22.7149 28.2687 22.3939 27.7964 21.9927 27.3242C21.9124 27.1353 21.8322 26.9464 21.7519 26.7575L21.8322 26.663C21.9927 26.8519 22.1532 26.9464 22.3939 27.1353C22.4742 27.2297 22.6347 27.2297 22.7952 27.3242C22.7952 27.2297 22.8754 27.0408 22.8754 26.9464C22.8754 26.4741 22.8754 26.0963 22.5544 25.813C22.2334 25.5297 22.2334 25.3408 22.6347 25.1519C22.8754 25.0574 22.9557 24.963 22.8754 24.6796C22.7149 24.1129 23.0359 23.7351 23.1964 23.3573C23.3569 23.074 23.5174 22.7907 23.7582 22.5073C23.9187 22.4129 24.1594 22.3184 24.3199 22.3184C24.5606 22.4129 24.4001 22.6018 24.4001 22.7907C24.4001 22.8851 24.3199 22.9796 24.3199 23.074C24.4804 23.924 24.3199 24.6796 23.9989 25.4352C24.2396 25.4352 24.4804 25.4352 24.8014 25.4352C24.5606 25.7186 24.4001 26.0019 24.1594 26.1908C23.9187 26.5686 23.9186 26.663 24.3199 26.7575C24.8014 26.9464 24.8014 26.9464 24.7211 27.5131C24.7211 27.6075 24.7211 27.702 24.6409 27.7964C24.6409 28.0798 24.7211 28.1742 24.9619 28.0798C25.0421 27.9853 25.2026 27.8909 25.3631 27.7964C25.3631 28.6464 25.5236 29.4965 25.0421 30.1576C24.9619 30.2521 24.8816 30.3465 24.8816 30.441C24.8816 30.5354 24.8816 30.7243 24.9619 30.8188C25.0421 30.9132 25.1224 30.8188 25.2026 30.8188C25.2829 30.8188 25.2829 30.7243 25.2829 30.7243C25.8446 30.0632 25.8446 30.0632 26.0854 30.9132C26.3261 31.7632 26.0051 32.3299 25.6039 32.9911C25.4434 33.2744 25.2829 33.5578 25.0421 33.8411C25.0421 33.9356 25.1224 33.9356 25.1224 34.03C25.5236 33.9356 25.8446 33.8411 26.3261 33.7467C26.2459 33.9356 26.2459 34.03 26.2459 34.1244C25.7644 35.3523 25.2026 36.6746 24.7211 37.9024C24.6409 38.1857 24.4001 38.4691 24.2396 38.658C24.1594 38.7524 23.9187 38.8469 23.8384 38.7524C23.7582 38.658 23.5977 38.4691 23.5977 38.3746C23.7582 37.5246 23.3569 36.769 23.0359 36.1079C22.6347 35.3523 22.4742 34.5022 22.3939 33.5578C22.6347 33.2744 22.6347 33.18 22.7149 32.9911Z" fill="url(#paint12_linear_0_1)"/>
<path d="M18.9554 36.2245C19.5973 36.319 20.1591 36.319 20.6406 36.4134C20.6406 36.319 20.7208 36.319 20.7208 36.2245C20.5603 36.0356 20.4801 35.8467 20.2393 35.7523C19.7578 35.469 19.1961 35.2801 18.7146 34.9967C18.3936 34.9023 18.0726 34.8078 17.7516 34.7134C17.5109 34.6189 17.2702 34.43 17.0294 34.3356C17.0294 34.2411 17.0294 34.2411 17.1097 34.1467C17.3504 34.0522 17.5109 33.8633 17.7516 33.7689C17.9924 33.58 18.0726 33.3911 17.9121 33.0133C17.6714 32.5411 17.4306 32.3522 16.9492 32.2577C16.3874 32.2577 15.8257 32.0688 15.2639 31.9744C15.1034 31.9744 14.9429 31.7855 14.7825 31.5966C14.7825 31.5021 14.7825 31.5021 14.7825 31.4077C15.0232 31.4077 15.2639 31.4077 15.5047 31.4077C15.6652 31.4077 15.7454 31.3132 15.9059 31.2188C15.8257 31.0299 15.8257 30.9354 15.7454 30.7465C15.5047 30.3687 15.2639 30.0854 14.8627 30.0854C14.4615 30.0854 14.3812 29.8965 14.622 29.5187C14.7825 29.2354 14.7824 29.1409 14.5417 28.952C14.0602 28.6687 14.1405 28.102 14.0602 27.5353C13.98 27.1575 13.98 26.7797 14.0602 26.4019C14.0602 26.213 14.301 25.9297 14.4615 25.8352C14.7022 25.7408 14.7022 26.0241 14.7825 26.213C14.7825 26.3075 14.8627 26.4019 14.8627 26.4964C15.5047 27.0631 15.7454 27.8186 15.9059 28.7631C16.1467 28.5742 16.3072 28.3853 16.5479 28.102C16.5479 28.5742 16.4677 28.8576 16.4677 29.2354C16.4677 29.8021 16.5479 29.8021 16.9492 29.6132C17.4306 29.3298 17.4307 29.3298 17.6714 29.8965C17.7516 29.991 17.7516 30.0854 17.8319 30.1799C17.9924 30.4632 18.1529 30.4632 18.2331 30.0854C18.3134 29.8965 18.3134 29.8021 18.3936 29.5187C18.8751 30.1799 19.5171 30.7465 19.4369 31.691C19.4369 31.7855 19.4369 31.9744 19.4369 32.0688C19.5171 32.1633 19.5974 32.2577 19.6776 32.2577C19.7579 32.2577 19.8381 32.1633 19.9184 32.0688C19.9184 32.0688 19.9184 31.9744 19.9184 31.8799C19.9986 30.9354 19.9986 30.9354 20.7208 31.4077C21.4431 31.8799 21.4431 32.6355 21.5233 33.4855C21.5233 33.8633 21.5233 34.2411 21.6036 34.6189C21.6838 34.6189 21.6838 34.6189 21.7641 34.7134C22.0048 34.3356 22.2455 33.9578 22.5665 33.58C22.6468 33.7689 22.727 33.8633 22.727 33.9578C23.048 35.3745 23.2888 36.8857 23.6098 38.3024C23.69 38.5857 23.69 38.9635 23.6098 39.3413C23.6098 39.5302 23.4493 39.7191 23.369 39.8136C23.2888 39.8136 23.048 39.7191 22.9678 39.6247C22.5665 38.7746 21.8443 38.4913 21.2023 38.1135C20.4801 37.7357 19.8381 37.169 19.1961 36.5079C19.0356 36.6023 19.0356 36.4134 18.9554 36.2245Z" fill="#2E6735"/>
<path d="M19.2571 36.2245C19.899 36.319 20.4608 36.319 20.9423 36.4134C20.9423 36.319 21.0225 36.319 21.0225 36.2245C20.862 36.0356 20.7818 35.8467 20.541 35.7523C20.0595 35.469 19.4978 35.2801 19.0163 34.9967C18.6953 34.9023 18.3743 34.8078 18.0533 34.7134C17.8126 34.6189 17.5718 34.43 17.3311 34.3356C17.3311 34.2411 17.3311 34.2411 17.4114 34.1467C17.6521 34.0522 17.8126 33.8633 18.0533 33.7689C18.2941 33.58 18.3743 33.3911 18.2138 33.0133C17.9731 32.5411 17.7323 32.3522 17.2509 32.2577C16.6891 32.2577 16.1274 32.0688 15.5656 31.9744C15.4051 31.9744 15.2446 31.7855 15.0841 31.5966C15.0841 31.5021 15.0841 31.5021 15.0841 31.4077C15.3249 31.4077 15.5656 31.4077 15.8064 31.4077C15.9669 31.4077 16.0471 31.3132 16.2076 31.2188C16.1274 31.0299 16.1274 30.9354 16.0471 30.7465C15.8064 30.3687 15.5656 30.0854 15.1644 30.0854C14.7632 30.0854 14.6829 29.8965 14.9237 29.5187C15.0842 29.2354 15.0841 29.1409 14.8434 28.952C14.3619 28.6687 14.4422 28.102 14.3619 27.5353C14.2817 27.1575 14.2817 26.7797 14.3619 26.4019C14.3619 26.213 14.6027 25.9297 14.7632 25.8352C15.0039 25.7408 15.0039 26.0241 15.0841 26.213C15.0841 26.3075 15.1644 26.4019 15.1644 26.4964C15.8064 27.0631 16.0471 27.8186 16.2076 28.7631C16.4484 28.5742 16.6089 28.3853 16.8496 28.102C16.8496 28.5742 16.7694 28.8576 16.7694 29.2354C16.7694 29.8021 16.8496 29.8021 17.2509 29.6132C17.7323 29.3298 17.7323 29.3298 17.9731 29.8965C18.0533 29.991 18.0533 30.0854 18.1336 30.1799C18.2941 30.4632 18.4546 30.4632 18.5348 30.0854C18.6151 29.8965 18.6151 29.8021 18.6953 29.5187C19.1768 30.1799 19.8188 30.7465 19.7386 31.691C19.7386 31.7855 19.7386 31.9744 19.7386 32.0688C19.8188 32.1633 19.8991 32.2577 19.9793 32.2577C20.0595 32.2577 20.1398 32.1633 20.22 32.0688C20.22 32.0688 20.22 31.9744 20.22 31.8799C20.3003 30.9354 20.3003 30.9354 21.0225 31.4077C21.7448 31.8799 21.7448 32.6355 21.825 33.4855C21.825 33.8633 21.825 34.2411 21.9053 34.6189C21.9855 34.6189 21.9855 34.6189 22.0657 34.7134C22.3065 34.3356 22.5472 33.9578 22.8682 33.58C22.9485 33.7689 23.0287 33.8633 23.0287 33.9578C23.3497 35.3745 23.5905 36.8857 23.9115 38.3024C23.9917 38.5857 23.9917 38.9635 23.9115 39.3413C23.9115 39.5302 23.751 39.7191 23.6707 39.8136C23.5905 39.8136 23.3497 39.7191 23.2695 39.6247C22.8682 38.7746 22.146 38.4913 21.504 38.1135C20.7818 37.7357 20.1398 37.169 19.4978 36.5079C19.3373 36.6023 19.3373 36.4134 19.2571 36.2245Z" fill="url(#paint13_linear_0_1)"/>
<path fill-rule="evenodd" clip-rule="evenodd" d="M21.8411 21.6143L21.0386 25.3859L23.3658 22.4168L24.1683 24.6637V22.4168L26.4955 23.9415C26.4955 23.9415 24.1683 21.6945 24.9708 21.6945C25.7733 21.6945 28.8227 21.6945 28.8227 21.6945L24.1683 20.2501L21.8411 21.6143Z" fill="#275F3D"/>
<path d="M26.3457 18.0249C26.3457 18.106 26.3451 18.1826 26.3545 18.2486C26.364 18.3152 26.3826 18.3626 26.4111 18.3912L26.4961 18.4761H26.0479C26.0443 18.4759 26.0389 18.476 26.0332 18.4751C26.0288 18.4745 26.0241 18.4724 26.0186 18.4712C26.0288 18.4893 26.0398 18.5069 26.0488 18.5249C26.0798 18.5869 26.1015 18.6512 26.1035 18.7349L26.1465 18.938C26.1543 18.9925 26.1564 19.043 26.1426 19.0845C26.1273 19.1303 26.0947 19.161 26.0498 19.1783C26.0276 19.1868 26.0019 19.1908 25.9736 19.1939C26.0084 19.2598 26.0491 19.3384 26.0723 19.4156C26.1047 19.5239 26.1085 19.6468 26.0098 19.7457C25.9737 19.7817 25.9243 19.786 25.8828 19.7818C25.8405 19.7774 25.7932 19.7626 25.7481 19.7476C25.7008 19.7318 25.6558 19.7152 25.6104 19.7017C25.5863 19.6946 25.5637 19.6889 25.543 19.6851V19.8648C25.5816 19.9828 25.604 20.0888 25.5928 20.1783C25.582 20.2646 25.5391 20.3309 25.4629 20.3785V20.4468L25.4551 20.4585C25.3956 20.5577 25.3494 20.636 25.3086 20.69C25.2691 20.7423 25.2255 20.7854 25.1689 20.7935C25.1117 20.8017 25.0589 20.7709 25.0088 20.731C24.9828 20.7103 24.9561 20.6819 24.9238 20.6509C24.9373 20.7644 24.9339 20.8566 24.9131 20.9322C24.8832 21.0404 24.8222 21.1115 24.7471 21.1578C24.6738 21.2028 24.5882 21.2236 24.5107 21.2388C24.4295 21.2548 24.3608 21.264 24.3047 21.2828C24.2377 21.3051 24.1791 21.3078 24.1279 21.2867C24.0776 21.2658 24.043 21.2249 24.0156 21.1812C23.9887 21.138 23.9648 21.0839 23.9395 21.0308C23.9237 20.9978 23.9039 20.9655 23.8848 20.9312C23.8467 20.9838 23.8038 21.0288 23.7627 21.0699C23.7017 21.1309 23.6473 21.1855 23.6113 21.2574L23.6094 21.2613C23.3648 21.6688 23.1169 21.919 22.7031 22.0845L22.6934 22.0875H22.6846C22.6811 22.0875 22.6718 22.0899 22.6533 22.1041C22.6352 22.1179 22.6147 22.1378 22.5889 22.1636C22.5393 22.2131 22.4739 22.2786 22.3857 22.3228C22.314 22.3587 22.2591 22.4133 22.1982 22.4742C22.1389 22.5335 22.0729 22.5998 21.9844 22.6441C21.9439 22.6643 21.9039 22.6823 21.8672 22.69C21.8295 22.6979 21.7869 22.6964 21.751 22.6695C21.7171 22.644 21.6985 22.6025 21.6875 22.5543C21.6848 22.5425 21.6836 22.5296 21.6816 22.5162C21.6638 22.5402 21.6467 22.5638 21.626 22.5845C21.5709 22.6396 21.5059 22.6826 21.4228 22.7242C21.3451 22.763 21.2713 22.819 21.1855 22.8726C21.1085 22.9207 21.0223 22.9643 20.9316 22.9683C20.9085 22.9785 20.8847 22.9845 20.8603 22.982C20.8322 22.9791 20.8086 22.9663 20.79 22.9488C20.7559 22.9163 20.7358 22.8644 20.7207 22.814C20.705 22.7616 20.6912 22.6987 20.6777 22.6373C20.6711 22.6073 20.6617 22.5779 20.6543 22.5484C20.4298 22.8326 20.1854 23.0504 19.7949 23.0504C19.714 23.0504 19.6152 23.0512 19.5195 22.9556L19.5049 22.941V22.5914L19.5068 22.5836C19.5482 22.4594 19.6101 22.3359 19.6699 22.2164C19.7195 22.1172 19.7646 22.019 19.8017 21.9234C19.623 21.9193 19.4457 21.9039 19.2783 21.8863C19.0867 21.8661 18.9092 21.8472 18.7519 21.8472H18.7021V21.6988L18.7129 21.6851C18.8778 21.479 19.0627 21.3351 19.2549 21.2037C19.4368 21.0792 19.6203 20.9666 19.8066 20.8218C19.5035 20.4112 19.5098 19.9281 19.668 19.4537V19.4507H19.6689C19.7096 19.349 19.7514 19.265 19.7959 19.2017C19.8401 19.1388 19.8905 19.0908 19.9502 19.0708C20.0124 19.0502 20.0751 19.0632 20.1357 19.1001C20.1937 19.1355 20.2521 19.1943 20.3125 19.274L20.3994 19.3609C20.4079 19.3224 20.4191 19.2891 20.4307 19.2603C20.4416 19.2328 20.4509 19.2139 20.458 19.1939C20.4647 19.175 20.4677 19.1608 20.4678 19.149C20.4678 18.7342 20.6338 18.3997 20.9639 18.1499C21.0242 18.0896 21.078 18.0412 21.1279 18.0093C21.1785 17.9771 21.2304 17.9584 21.2861 17.9654C21.3408 17.9723 21.3899 18.0029 21.4385 18.0474C21.4872 18.0921 21.5401 18.1552 21.6006 18.2359L21.6064 18.2417C21.7166 17.6422 22.1121 17.3271 22.4922 17.023L22.501 17.0162C22.5405 16.9964 22.5836 16.9765 22.625 16.9605C22.6661 16.9446 22.7101 16.9323 22.7539 16.9322C22.7994 16.9322 22.8447 16.9452 22.8838 16.979C22.9199 17.0105 22.9474 17.0571 22.9687 17.1177C23.0133 17.168 23.034 17.2349 23.0439 17.2945C23.0472 17.3141 23.0453 17.3343 23.0469 17.3531C23.1846 17.217 23.3324 17.0778 23.5391 16.94C23.6621 16.8186 23.8273 16.6986 23.9707 16.6119L24.1064 16.5357C24.1677 16.4956 24.2248 16.4715 24.2773 16.4683C24.335 16.4648 24.383 16.4869 24.418 16.5289C24.4507 16.5683 24.4705 16.623 24.4824 16.6841C24.4945 16.7461 24.5 16.82 24.5 16.9019V16.9703C24.7015 16.841 24.846 16.7685 24.9893 16.6968C25.0664 16.6583 25.1244 16.6197 25.1846 16.5796C25.2447 16.5395 25.3074 16.4972 25.3906 16.4556L25.4004 16.4507H25.6231V16.7535L25.6182 16.7632C25.5809 16.8377 25.5612 16.913 25.541 16.9937C25.5304 17.0362 25.5184 17.0805 25.5039 17.1255C25.6273 17.0671 25.756 17.0138 25.8877 17.0123C26.0128 16.973 26.1195 16.9888 26.1768 17.0748C26.23 17.1548 26.224 17.2748 26.1826 17.399C26.1432 17.5172 26.126 17.6096 26.1348 17.689C26.1434 17.7659 26.1766 17.8362 26.25 17.9097L26.3311 17.9898L26.3457 18.0044V18.0249Z" fill="url(#paint14_radial_0_1)"/>
<path d="M26.3457 18.0249C26.3457 18.106 26.3451 18.1826 26.3545 18.2486C26.364 18.3152 26.3826 18.3626 26.4111 18.3912L26.4961 18.4761H26.0479C26.0443 18.4759 26.0389 18.476 26.0332 18.4751C26.0288 18.4745 26.0241 18.4724 26.0186 18.4712C26.0288 18.4893 26.0398 18.5069 26.0488 18.5249C26.0798 18.5869 26.1015 18.6512 26.1035 18.7349L26.1465 18.938C26.1543 18.9925 26.1564 19.043 26.1426 19.0845C26.1273 19.1303 26.0947 19.161 26.0498 19.1783C26.0276 19.1868 26.0019 19.1908 25.9736 19.1939C26.0084 19.2598 26.0491 19.3384 26.0723 19.4156C26.1047 19.5239 26.1085 19.6468 26.0098 19.7457C25.9737 19.7817 25.9243 19.786 25.8828 19.7818C25.8405 19.7774 25.7932 19.7626 25.7481 19.7476C25.7008 19.7318 25.6558 19.7152 25.6104 19.7017C25.5863 19.6946 25.5637 19.6889 25.543 19.6851V19.8648C25.5816 19.9828 25.604 20.0888 25.5928 20.1783C25.582 20.2646 25.5391 20.3309 25.4629 20.3785V20.4468L25.4551 20.4585C25.3956 20.5577 25.3494 20.636 25.3086 20.69C25.2691 20.7423 25.2255 20.7854 25.1689 20.7935C25.1117 20.8017 25.0589 20.7709 25.0088 20.731C24.9828 20.7103 24.9561 20.6819 24.9238 20.6509C24.9373 20.7644 24.9339 20.8566 24.9131 20.9322C24.8832 21.0404 24.8222 21.1115 24.7471 21.1578C24.6738 21.2028 24.5882 21.2236 24.5107 21.2388C24.4295 21.2548 24.3608 21.264 24.3047 21.2828C24.2377 21.3051 24.1791 21.3078 24.1279 21.2867C24.0776 21.2658 24.043 21.2249 24.0156 21.1812C23.9887 21.138 23.9648 21.0839 23.9395 21.0308C23.9237 20.9978 23.9039 20.9655 23.8848 20.9312C23.8467 20.9838 23.8038 21.0288 23.7627 21.0699C23.7017 21.1309 23.6473 21.1855 23.6113 21.2574L23.6094 21.2613C23.3648 21.6688 23.1169 21.919 22.7031 22.0845L22.6934 22.0875H22.6846C22.6811 22.0875 22.6718 22.0899 22.6533 22.1041C22.6352 22.1179 22.6147 22.1378 22.5889 22.1636C22.5393 22.2131 22.4739 22.2786 22.3857 22.3228C22.314 22.3587 22.2591 22.4133 22.1982 22.4742C22.1389 22.5335 22.0729 22.5998 21.9844 22.6441C21.9439 22.6643 21.9039 22.6823 21.8672 22.69C21.8295 22.6979 21.7869 22.6964 21.751 22.6695C21.7171 22.644 21.6985 22.6025 21.6875 22.5543C21.6848 22.5425 21.6836 22.5296 21.6816 22.5162C21.6638 22.5402 21.6467 22.5638 21.626 22.5845C21.5709 22.6396 21.5059 22.6826 21.4228 22.7242C21.3451 22.763 21.2713 22.819 21.1855 22.8726C21.1085 22.9207 21.0223 22.9643 20.9316 22.9683C20.9085 22.9785 20.8847 22.9845 20.8603 22.982C20.8322 22.9791 20.8086 22.9663 20.79 22.9488C20.7559 22.9163 20.7358 22.8644 20.7207 22.814C20.705 22.7616 20.6912 22.6987 20.6777 22.6373C20.6711 22.6073 20.6617 22.5779 20.6543 22.5484C20.4298 22.8326 20.1854 23.0504 19.7949 23.0504C19.714 23.0504 19.6152 23.0512 19.5195 22.9556L19.5049 22.941V22.5914L19.5068 22.5836C19.5482 22.4594 19.6101 22.3359 19.6699 22.2164C19.7195 22.1172 19.7646 22.019 19.8017 21.9234C19.623 21.9193 19.4457 21.9039 19.2783 21.8863C19.0867 21.8661 18.9092 21.8472 18.7519 21.8472H18.7021V21.6988L18.7129 21.6851C18.8778 21.479 19.0627 21.3351 19.2549 21.2037C19.4368 21.0792 19.6203 20.9666 19.8066 20.8218C19.5035 20.4112 19.5098 19.9281 19.668 19.4537V19.4507H19.6689C19.7096 19.349 19.7514 19.265 19.7959 19.2017C19.8401 19.1388 19.8905 19.0908 19.9502 19.0708C20.0124 19.0502 20.0751 19.0632 20.1357 19.1001C20.1937 19.1355 20.2521 19.1943 20.3125 19.274L20.3994 19.3609C20.4079 19.3224 20.4191 19.2891 20.4307 19.2603C20.4416 19.2328 20.4509 19.2139 20.458 19.1939C20.4647 19.175 20.4677 19.1608 20.4678 19.149C20.4678 18.7342 20.6338 18.3997 20.9639 18.1499C21.0242 18.0896 21.078 18.0412 21.1279 18.0093C21.1785 17.9771 21.2304 17.9584 21.2861 17.9654C21.3408 17.9723 21.3899 18.0029 21.4385 18.0474C21.4872 18.0921 21.5401 18.1552 21.6006 18.2359L21.6064 18.2417C21.7166 17.6422 22.1121 17.3271 22.4922 17.023L22.501 17.0162C22.5405 16.9964 22.5836 16.9765 22.625 16.9605C22.6661 16.9446 22.7101 16.9323 22.7539 16.9322C22.7994 16.9322 22.8447 16.9452 22.8838 16.979C22.9199 17.0105 22.9474 17.0571 22.9687 17.1177C23.0133 17.168 23.034 17.2349 23.0439 17.2945C23.0472 17.3141 23.0453 17.3343 23.0469 17.3531C23.1846 17.217 23.3324 17.0778 23.5391 16.94C23.6621 16.8186 23.8273 16.6986 23.9707 16.6119L24.1064 16.5357C24.1677 16.4956 24.2248 16.4715 24.2773 16.4683C24.335 16.4648 24.383 16.4869 24.418 16.5289C24.4507 16.5683 24.4705 16.623 24.4824 16.6841C24.4945 16.7461 24.5 16.82 24.5 16.9019V16.9703C24.7015 16.841 24.846 16.7685 24.9893 16.6968C25.0664 16.6583 25.1244 16.6197 25.1846 16.5796C25.2447 16.5395 25.3074 16.4972 25.3906 16.4556L25.4004 16.4507H25.6231V16.7535L25.6182 16.7632C25.5809 16.8377 25.5612 16.913 25.541 16.9937C25.5304 17.0362 25.5184 17.0805 25.5039 17.1255C25.6273 17.0671 25.756 17.0138 25.8877 17.0123C26.0128 16.973 26.1195 16.9888 26.1768 17.0748C26.23 17.1548 26.224 17.2748 26.1826 17.399C26.1432 17.5172 26.126 17.6096 26.1348 17.689C26.1434 17.7659 26.1766 17.8362 26.25 17.9097L26.3311 17.9898L26.3457 18.0044V18.0249Z" fill="url(#paint15_linear_0_1)"/>
<path d="M26.3457 18.0249C26.3457 18.106 26.3451 18.1826 26.3545 18.2486C26.364 18.3152 26.3826 18.3626 26.4111 18.3912L26.4961 18.4761H26.0479C26.0443 18.4759 26.0389 18.476 26.0332 18.4751C26.0288 18.4745 26.0241 18.4724 26.0186 18.4712C26.0288 18.4893 26.0398 18.5069 26.0488 18.5249C26.0798 18.5869 26.1015 18.6512 26.1035 18.7349L26.1465 18.938C26.1543 18.9925 26.1564 19.043 26.1426 19.0845C26.1273 19.1303 26.0947 19.161 26.0498 19.1783C26.0276 19.1868 26.0019 19.1908 25.9736 19.1939C26.0084 19.2598 26.0491 19.3384 26.0723 19.4156C26.1047 19.5239 26.1085 19.6468 26.0098 19.7457C25.9737 19.7817 25.9243 19.786 25.8828 19.7818C25.8405 19.7774 25.7932 19.7626 25.7481 19.7476C25.7008 19.7318 25.6558 19.7152 25.6104 19.7017C25.5863 19.6946 25.5637 19.6889 25.543 19.6851V19.8648C25.5816 19.9828 25.604 20.0888 25.5928 20.1783C25.582 20.2646 25.5391 20.3309 25.4629 20.3785V20.4468L25.4551 20.4585C25.3956 20.5577 25.3494 20.636 25.3086 20.69C25.2691 20.7423 25.2255 20.7854 25.1689 20.7935C25.1117 20.8017 25.0589 20.7709 25.0088 20.731C24.9828 20.7103 24.9561 20.6819 24.9238 20.6509C24.9373 20.7644 24.9339 20.8566 24.9131 20.9322C24.8832 21.0404 24.8222 21.1115 24.7471 21.1578C24.6738 21.2028 24.5882 21.2236 24.5107 21.2388C24.4295 21.2548 24.3608 21.264 24.3047 21.2828C24.2377 21.3051 24.1791 21.3078 24.1279 21.2867C24.0776 21.2658 24.043 21.2249 24.0156 21.1812C23.9887 21.138 23.9648 21.0839 23.9395 21.0308C23.9237 20.9978 23.9039 20.9655 23.8848 20.9312C23.8467 20.9838 23.8038 21.0288 23.7627 21.0699C23.7017 21.1309 23.6473 21.1855 23.6113 21.2574L23.6094 21.2613C23.3648 21.6688 23.1169 21.919 22.7031 22.0845L22.6934 22.0875H22.6846C22.6811 22.0875 22.6718 22.0899 22.6533 22.1041C22.6352 22.1179 22.6147 22.1378 22.5889 22.1636C22.5393 22.2131 22.4739 22.2786 22.3857 22.3228C22.314 22.3587 22.2591 22.4133 22.1982 22.4742C22.1389 22.5335 22.0729 22.5998 21.9844 22.6441C21.9439 22.6643 21.9039 22.6823 21.8672 22.69C21.8295 22.6979 21.7869 22.6964 21.751 22.6695C21.7171 22.644 21.6985 22.6025 21.6875 22.5543C21.6848 22.5425 21.6836 22.5296 21.6816 22.5162C21.6638 22.5402 21.6467 22.5638 21.626 22.5845C21.5709 22.6396 21.5059 22.6826 21.4228 22.7242C21.3451 22.763 21.2713 22.819 21.1855 22.8726C21.1085 22.9207 21.0223 22.9643 20.9316 22.9683C20.9085 22.9785 20.8847 22.9845 20.8603 22.982C20.8322 22.9791 20.8086 22.9663 20.79 22.9488C20.7559 22.9163 20.7358 22.8644 20.7207 22.814C20.705 22.7616 20.6912 22.6987 20.6777 22.6373C20.6711 22.6073 20.6617 22.5779 20.6543 22.5484C20.4298 22.8326 20.1854 23.0504 19.7949 23.0504C19.714 23.0504 19.6152 23.0512 19.5195 22.9556L19.5049 22.941V22.5914L19.5068 22.5836C19.5482 22.4594 19.6101 22.3359 19.6699 22.2164C19.7195 22.1172 19.7646 22.019 19.8017 21.9234C19.623 21.9193 19.4457 21.9039 19.2783 21.8863C19.0867 21.8661 18.9092 21.8472 18.7519 21.8472H18.7021V21.6988L18.7129 21.6851C18.8778 21.479 19.0627 21.3351 19.2549 21.2037C19.4368 21.0792 19.6203 20.9666 19.8066 20.8218C19.5035 20.4112 19.5098 19.9281 19.668 19.4537V19.4507H19.6689C19.7096 19.349 19.7514 19.265 19.7959 19.2017C19.8401 19.1388 19.8905 19.0908 19.9502 19.0708C20.0124 19.0502 20.0751 19.0632 20.1357 19.1001C20.1937 19.1355 20.2521 19.1943 20.3125 19.274L20.3994 19.3609C20.4079 19.3224 20.4191 19.2891 20.4307 19.2603C20.4416 19.2328 20.4509 19.2139 20.458 19.1939C20.4647 19.175 20.4677 19.1608 20.4678 19.149C20.4678 18.7342 20.6338 18.3997 20.9639 18.1499C21.0242 18.0896 21.078 18.0412 21.1279 18.0093C21.1785 17.9771 21.2304 17.9584 21.2861 17.9654C21.3408 17.9723 21.3899 18.0029 21.4385 18.0474C21.4872 18.0921 21.5401 18.1552 21.6006 18.2359L21.6064 18.2417C21.7166 17.6422 22.1121 17.3271 22.4922 17.023L22.501 17.0162C22.5405 16.9964 22.5836 16.9765 22.625 16.9605C22.6661 16.9446 22.7101 16.9323 22.7539 16.9322C22.7994 16.9322 22.8447 16.9452 22.8838 16.979C22.9199 17.0105 22.9474 17.0571 22.9687 17.1177C23.0133 17.168 23.034 17.2349 23.0439 17.2945C23.0472 17.3141 23.0453 17.3343 23.0469 17.3531C23.1846 17.217 23.3324 17.0778 23.5391 16.94C23.6621 16.8186 23.8273 16.6986 23.9707 16.6119L24.1064 16.5357C24.1677 16.4956 24.2248 16.4715 24.2773 16.4683C24.335 16.4648 24.383 16.4869 24.418 16.5289C24.4507 16.5683 24.4705 16.623 24.4824 16.6841C24.4945 16.7461 24.5 16.82 24.5 16.9019V16.9703C24.7015 16.841 24.846 16.7685 24.9893 16.6968C25.0664 16.6583 25.1244 16.6197 25.1846 16.5796C25.2447 16.5395 25.3074 16.4972 25.3906 16.4556L25.4004 16.4507H25.6231V16.7535L25.6182 16.7632C25.5809 16.8377 25.5612 16.913 25.541 16.9937C25.5304 17.0362 25.5184 17.0805 25.5039 17.1255C25.6273 17.0671 25.756 17.0138 25.8877 17.0123C26.0128 16.973 26.1195 16.9888 26.1768 17.0748C26.23 17.1548 26.224 17.2748 26.1826 17.399C26.1432 17.5172 26.126 17.6096 26.1348 17.689C26.1434 17.7659 26.1766 17.8362 26.25 17.9097L26.3311 17.9898L26.3457 18.0044V18.0249Z" stroke="#BD6600" stroke-width="0.1"/>
<path fill-rule="evenodd" clip-rule="evenodd" d="M24.2052 22.2771C24.3286 22.2152 24.4789 22.2651 24.5408 22.3885C25.9963 25.2897 25.9064 29.2935 25.4718 32.5305C25.2535 34.1565 24.9461 35.6037 24.6933 36.6443C24.5669 37.1648 24.454 37.584 24.3726 37.8736C24.3319 38.0183 24.299 38.1307 24.2763 38.2072C24.2649 38.2454 24.2561 38.2746 24.25 38.2945L24.2431 38.317L24.2413 38.3229L24.2408 38.3245C24.2407 38.3246 24.2406 38.3252 24.002 38.2506L24.2408 38.3245C24.1996 38.4563 24.0592 38.5304 23.9274 38.4892C23.7956 38.448 23.7222 38.3078 23.7633 38.176L23.7751 38.1797C23.7633 38.176 23.7633 38.176 23.7633 38.176L23.7638 38.1746L23.7654 38.1695L23.7718 38.1485C23.7775 38.1298 23.786 38.1017 23.7971 38.0646C23.8191 37.9904 23.8513 37.8805 23.8913 37.7382C23.9712 37.4538 24.0826 37.0403 24.2074 36.5263C24.4573 35.4978 24.7609 34.0683 24.9763 32.464C25.409 29.2405 25.4768 25.3693 24.0939 22.6127C24.0319 22.4893 24.0818 22.3391 24.2052 22.2771Z" fill="#275F3D"/>
<path d="M27.8482 41.0316C28.5705 40.7106 28.41 39.9081 27.6877 39.6674C26.484 39.2661 24.9593 38.8649 24.558 38.7846C24.0766 38.6241 22.2308 39.4266 21.1876 39.9081C20.7061 40.1489 20.5456 40.5501 20.7864 40.9513C21.1074 41.3526 23.5148 41.0316 24.879 41.2723C26.484 41.5131 26.5643 41.5933 27.8482 41.0316Z" fill="#AA6351"/>
<path d="M26.0001 37.5001C26.6667 36.0001 28.8001 32.4001 32.0001 30.0001" stroke="#B8F488" stroke-width="0.3"/>
<path d="M13 27.5001C13.6667 26.0001 15.8 22.4001 19 20.0001" stroke="#B8F488" stroke-width="0.3"/>
<path d="M23.0001 37.5001C22.3334 36.0001 20.2001 32.4001 17 30.0001" stroke="#B8F488" stroke-width="0.3"/>
<path d="M9.00002 28.5001C8.33335 27.0001 6.20002 23.4001 3.00001 21.0001" stroke="#B8F488" stroke-width="0.3"/>
<path d="M24.0001 35.5001C24.0001 33.5001 24.5001 29.5001 23.0001 25.0001" stroke="#B8F488" stroke-width="0.3"/>
<path d="M10 26.5001C10 24.5001 10.5 20.5001 9.00004 16" stroke="#B8F488" stroke-width="0.3"/>
<path d="M39.0001 29.5001C39.6668 28.0001 41.8001 24.4001 45.0001 22.0001" stroke="#B8F488" stroke-width="0.3"/>
<path d="M37.0001 29.5001C36.3334 28.0001 34.2001 24.4001 31.0001 22.0001" stroke="#B8F488" stroke-width="0.3"/>
<path d="M38.0001 27.5001C38.0001 25.5001 38.5001 21.5001 37.0001 17" stroke="#B8F488" stroke-width="0.3"/>
<defs>
<filter id="filter0_i_0_1" x="0.0175782" y="17.8702" width="47.9292" height="27.6661" filterUnits="userSpaceOnUse" color-interpolation-filters="sRGB">
<feFlood flood-opacity="0" result="BackgroundImageFix"/>
<feBlend mode="normal" in="SourceGraphic" in2="BackgroundImageFix" result="shape"/>
<feColorMatrix in="SourceAlpha" type="matrix" values="0 0 0 0 0 0 0 0 0 0 0 0 0 0 0 0 0 0 127 0" result="hardAlpha"/>
<feOffset dy="-1"/>
<feComposite in2="hardAlpha" operator="arithmetic" k2="-1" k3="1"/>
<feColorMatrix type="matrix" values="0 0 0 0 1 0 0 0 0 1 0 0 0 0 1 0 0 0 0.3 0"/>
<feBlend mode="normal" in2="shape" result="effect1_innerShadow_0_1"/>
</filter>
<linearGradient id="paint0_linear_0_1" x1="0" y1="33.1171" x2="48" y2="33.1171" gradientUnits="userSpaceOnUse">
<stop stop-color="#7B4F39"/>
<stop offset="0.0001" stop-color="#5F312D"/>
<stop offset="1" stop-color="#9B6B51"/>
</linearGradient>
<linearGradient id="paint1_linear_0_1" x1="50.9663" y1="20.2475" x2="0.0175782" y2="20.2475" gradientUnits="userSpaceOnUse">
<stop stop-color="#D39773"/>
<stop offset="1" stop-color="#A55852"/>
</linearGradient>
<linearGradient id="paint2_linear_0_1" x1="39.5298" y1="29.0879" x2="48.5298" y2="17.4629" gradientUnits="userSpaceOnUse">
<stop stop-color="#275F3D"/>
<stop offset="0.614357" stop-color="#6BE16F"/>
</linearGradient>
<linearGradient id="paint3_linear_0_1" x1="35.8676" y1="26.9422" x2="44.8159" y2="22.2966" gradientUnits="userSpaceOnUse">
<stop stop-color="#275F3D"/>
<stop offset="0.614357" stop-color="#6BE16F"/>
</linearGradient>
<linearGradient id="paint4_linear_0_1" x1="29.2554" y1="29.0884" x2="38.2554" y2="17.4634" gradientUnits="userSpaceOnUse">
<stop stop-color="#275F3D"/>
<stop offset="0.614357" stop-color="#6BE16F"/>
</linearGradient>
<linearGradient id="paint5_linear_0_1" x1="35.5001" y1="7.00014" x2="39.377" y2="12.0005" gradientUnits="userSpaceOnUse">
<stop offset="0.485709" stop-color="#F5D107"/>
<stop offset="1" stop-color="#E68615"/>
</linearGradient>
<linearGradient id="paint6_linear_0_1" x1="11.7778" y1="29.0879" x2="20.7778" y2="17.4629" gradientUnits="userSpaceOnUse">
<stop stop-color="#275F3D"/>
<stop offset="0.614357" stop-color="#6BE16F"/>
</linearGradient>
<linearGradient id="paint7_linear_0_1" x1="8.11656" y1="26.9417" x2="17.0648" y2="22.2961" gradientUnits="userSpaceOnUse">
<stop stop-color="#275F3D"/>
<stop offset="0.614357" stop-color="#6BE16F"/>
</linearGradient>
<linearGradient id="paint8_linear_0_1" x1="1.79932" y1="29.0879" x2="10.7993" y2="17.4629" gradientUnits="userSpaceOnUse">
<stop stop-color="#275F3D"/>
<stop offset="0.614357" stop-color="#6BE16F"/>
</linearGradient>
<radialGradient id="paint9_radial_0_1" cx="0" cy="0" r="1" gradientUnits="userSpaceOnUse" gradientTransform="translate(8.25001 9.08645) rotate(48.8141) scale(3.98631 7.34819)">
<stop offset="0.485709" stop-color="#F5D107"/>
<stop offset="1" stop-color="#E68615"/>
</radialGradient>
<linearGradient id="paint10_linear_0_1" x1="6.99813" y1="7.08608" x2="10.875" y2="12.0864" gradientUnits="userSpaceOnUse">
<stop offset="0.485709" stop-color="#F5D107"/>
<stop offset="1" stop-color="#E68615"/>
</linearGradient>
<linearGradient id="paint11_linear_0_1" x1="25.8755" y1="37.8751" x2="34.8755" y2="26.2501" gradientUnits="userSpaceOnUse">
<stop stop-color="#275F3D"/>
<stop offset="0.614357" stop-color="#6BE16F"/>
</linearGradient>
<linearGradient id="paint12_linear_0_1" x1="22.3666" y1="36.5101" x2="31.3149" y2="31.8645" gradientUnits="userSpaceOnUse">
<stop stop-color="#275F3D"/>
<stop offset="0.614357" stop-color="#6BE16F"/>
</linearGradient>
<linearGradient id="paint13_linear_0_1" x1="15.601" y1="37.8751" x2="24.6011" y2="26.2501" gradientUnits="userSpaceOnUse">
<stop stop-color="#275F3D"/>
<stop offset="0.614357" stop-color="#6BE16F"/>
</linearGradient>
<radialGradient id="paint14_radial_0_1" cx="0" cy="0" r="1" gradientUnits="userSpaceOnUse" gradientTransform="translate(21.7519 18.087) rotate(48.8141) scale(3.98631 7.34819)">
<stop offset="0.485709" stop-color="#F5D107"/>
<stop offset="1" stop-color="#E68615"/>
</radialGradient>
<linearGradient id="paint15_linear_0_1" x1="20.5001" y1="16.0866" x2="24.3769" y2="21.087" gradientUnits="userSpaceOnUse">
<stop offset="0.485709" stop-color="#F5D107"/>
<stop offset="1" stop-color="#E68615"/>
</linearGradient>
</defs>
</svg>
