<svg width="48" height="49" viewBox="0 0 48 49" fill="none" xmlns="http://www.w3.org/2000/svg">
<path fill-rule="evenodd" clip-rule="evenodd" d="M23.2975 32.2635C23.4202 32.2036 23.6657 32.0839 23.7279 31.9C23.7902 31.7162 23.8542 31.2245 23.977 31.1646C24.0997 31.1048 24.2224 31.0449 24.3452 30.985C24.4679 30.9252 24.2242 30.7371 24.4697 30.6173C24.7151 30.4976 25.0833 30.318 25.0229 30.194C24.9624 30.07 24.2296 29.8135 24.2296 29.8135L25.7006 29.403L24.8486 28.5906C24.8486 28.5906 25.5867 27.9236 25.4658 27.6756C25.3448 27.4276 24.7934 27.5431 24.6707 27.6029C24.548 27.6628 24.9179 27.1754 25.1029 26.9317C25.2879 26.6879 24.7365 26.8034 25.5352 26.2604C26.3338 25.7173 26.5775 25.9055 26.4566 25.6575C26.3356 25.4095 26.3374 25.1016 26.0919 25.2214C25.8464 25.3411 25.1723 25.5164 25.1723 25.5164C25.1723 25.5164 25.2417 24.1011 25.7326 23.8617C26.2235 23.6222 26.8372 23.3229 27.0827 23.2032C27.3281 23.0835 27.7568 23.0279 27.3299 22.7756C26.903 22.5234 25.9852 22.5106 26.2307 22.3908C26.4761 22.2711 29.6121 19.6672 30.4072 19.7399C31.2022 19.8125 30.2791 20.7233 30.2791 20.7233C30.2791 20.7233 30.087 22.1984 30.1457 22.6302C30.2044 23.0621 29.7668 24.6569 29.5818 24.9007C29.3968 25.1444 29.2865 23.0493 28.7956 23.2887C28.6179 23.3754 28.535 23.6974 28.5045 24.0788C28.4508 24.7512 28.5596 25.6083 28.5982 25.6874C28.6586 25.8114 28.4736 26.0551 28.4736 26.0551C28.4736 26.0551 28.8988 26.6152 28.712 27.1668C28.5252 27.7184 28.5893 27.2267 28.3456 27.0385C28.1019 26.8504 27.7977 26.5383 27.675 26.5981C27.5523 26.658 27.1823 27.1454 27.1823 27.1454C27.1823 27.1454 26.935 27.573 27.1165 27.945C27.2979 28.317 27.2979 28.317 27.3584 28.441C27.4188 28.565 27.2943 28.9327 27.2943 28.9327C27.2943 28.9327 27.6572 29.6766 27.5949 29.8605C27.5327 30.0444 27.5291 30.6601 27.4082 30.4121C27.2872 30.1641 27.0489 29.0524 26.7411 29.356C26.4334 29.6596 26.1844 30.395 26.2449 30.519C26.3053 30.643 26.5472 31.139 26.4245 31.1988C26.3018 31.2587 25.5689 31.0021 25.5689 31.0021C25.5689 31.0021 25.7486 31.682 25.5031 31.8017C25.2577 31.9214 24.8272 32.2849 24.8272 32.2849C24.8272 32.2849 24.2758 32.4003 24.1531 32.4602C24.0303 32.52 23.8453 32.7637 23.6621 32.6996C23.4789 32.6355 23.1748 32.3233 23.2975 32.2635Z" fill="url(#paint0_linear_21_6014)"/>
<path fill-rule="evenodd" clip-rule="evenodd" d="M24.1826 33.6C24.1227 33.4773 24.003 33.2318 23.8191 33.1695C23.6353 33.1073 23.1436 33.0433 23.0837 32.9205C23.0238 32.7978 22.964 32.6751 22.9041 32.5523C22.8442 32.4296 22.6561 32.6733 22.5364 32.4278C22.4167 32.1823 22.2371 31.8141 22.1131 31.8746C21.9891 31.9351 21.7326 32.6679 21.7326 32.6679L21.3221 31.1969L20.5097 32.0489C20.5097 32.0489 19.8427 31.3108 19.5947 31.4317C19.3467 31.5527 19.4622 32.1041 19.522 32.2268C19.5819 32.3495 19.0944 31.9796 18.8507 31.7946C18.607 31.6096 18.7225 32.161 18.1794 31.3623C17.6364 30.5637 17.8245 30.32 17.5765 30.4409C17.3286 30.5619 17.0207 30.5601 17.1404 30.8056C17.2602 31.051 17.4355 31.7252 17.4355 31.7252C17.4355 31.7252 16.0202 31.6558 15.7808 31.1649C15.5413 30.6739 15.242 30.0603 15.1223 29.8148C15.0026 29.5693 14.947 29.1407 14.6947 29.5676C14.4424 29.9945 14.4296 30.9123 14.3099 30.6668C14.1902 30.4214 11.5862 27.2854 11.6589 26.4903C11.7316 25.6952 12.6423 26.6184 12.6423 26.6184C12.6423 26.6184 14.1175 26.8105 14.5493 26.7518C14.9812 26.6931 16.576 27.1307 16.8197 27.3157C17.0634 27.5007 14.9683 27.611 15.2078 28.1019C15.2945 28.2796 15.6164 28.3625 15.9979 28.393C16.6702 28.4467 17.5274 28.3379 17.6065 28.2993C17.7305 28.2389 17.9742 28.4239 17.9742 28.4239C17.9742 28.4239 18.5343 27.9987 19.0859 28.1855C19.6374 28.3723 19.1457 28.3082 18.9576 28.5519C18.7695 28.7956 18.4573 29.0998 18.5172 29.2225C18.5771 29.3452 19.0645 29.7152 19.0645 29.7152C19.0645 29.7152 19.4921 29.9625 19.8641 29.781C20.236 29.5996 20.236 29.5996 20.36 29.5391C20.484 29.4787 20.8517 29.6032 20.8517 29.6032C20.8517 29.6032 21.5957 29.2403 21.7796 29.3026C21.9634 29.3648 22.5791 29.3684 22.3311 29.4893C22.0831 29.6103 20.9715 29.8486 21.275 30.1564C21.5786 30.4641 22.314 30.7131 22.438 30.6526C22.562 30.5922 23.058 30.3502 23.1179 30.473C23.1777 30.5957 22.9212 31.3286 22.9212 31.3286C22.9212 31.3286 23.601 31.1489 23.7208 31.3944C23.8405 31.6398 24.2039 32.0703 24.2039 32.0703C24.2039 32.0703 24.3194 32.6217 24.3792 32.7444C24.4391 32.8672 24.6828 33.0522 24.6187 33.2354C24.5545 33.4186 24.2424 33.7227 24.1826 33.6Z" fill="#38CA68"/>
<path d="M46.7132 32.4432C47.4809 32.8819 48.139 29.1529 47.9744 34.0884C47.9744 34.7464 47.5906 35.4045 46.768 35.898L27.0809 47.3045C25.4357 48.2367 22.7486 48.2367 21.1035 47.3045L1.30671 35.898C0.484129 35.4045 0.100256 34.8013 0.0454174 34.1432C-0.173937 28.769 0.429287 32.8819 1.25187 32.3884L20.939 20.9819C22.5841 20.0497 25.2712 20.0497 26.9164 20.9819L46.7132 32.4432Z" fill="url(#paint1_linear_21_6014)"/>
<g filter="url(#filter0_ii_21_6014)">
<path fill-rule="evenodd" clip-rule="evenodd" d="M46.4009 29.1626C48.5233 30.388 48.5344 32.3748 46.4259 33.6L27.9041 44.3636C25.7957 45.5892 22.3656 45.5892 20.2432 44.3636L1.59918 33.5996C-0.523205 32.3742 -0.534501 30.3874 1.57417 29.162L20.0957 18.3986C22.2044 17.1732 25.6343 17.1732 27.7567 18.3984L46.4009 29.1626Z" fill="url(#paint2_linear_21_6014)"/>
</g>
<ellipse opacity="0.2" cx="23.549" cy="32.173" rx="9.74442" ry="4.06018" fill="#2A3B4E"/>
<ellipse opacity="0.2" cx="23.549" cy="32.1729" rx="7.30832" ry="2.43611" fill="#2A3B4E"/>
<path d="M23.549 32.9084C25.1597 31.2976 17.0527 30.4723 17.8647 26.4121" stroke="#275F3D" stroke-linecap="round"/>
<path d="M23.549 32.9085C25.1598 31.2977 26.7972 28.0363 27.6092 23.9761" stroke="#275F3D" stroke-linecap="round"/>
<path d="M23.549 32.9086C25.1598 31.2978 32.4814 23.9762 33.2934 19.916" stroke="#275F3D" stroke-linecap="round"/>
<g filter="url(#filter1_i_21_6014)">
<circle cx="21.9249" cy="32.9082" r="0.812035" fill="url(#paint3_radial_21_6014)"/>
</g>
<circle cx="25.1731" cy="32.9082" r="0.812035" fill="#275F3D"/>
<path d="M23.549 32.9083C24.361 32.0962 25.1731 17.4796 21.9249 14.2314" stroke="#21AB17" stroke-width="2" stroke-linecap="round"/>
<path fill-rule="evenodd" clip-rule="evenodd" d="M21.9487 18.0726L22.213 18.8404C22.213 18.8404 22.7418 20.376 24.2774 19.8473C25.813 19.3185 25.5233 15.983 24.4911 15.4796C23.4589 14.9761 22.1877 16.2727 22.1877 16.2727L21.9487 18.0726Z" fill="url(#paint4_linear_21_6014)"/>
<path fill-rule="evenodd" clip-rule="evenodd" d="M21.1129 16.6675L20.3008 20.7277L22.7369 17.4796L23.549 19.9157V17.4796L25.9851 19.1036C25.9851 19.1036 23.549 16.6675 24.361 16.6675C25.1731 16.6675 28.4212 16.6675 28.4212 16.6675C28.4212 16.6675 23.549 15.0435 23.549 15.0435L21.1129 16.6675Z" fill="#275F3D"/>
<path fill-rule="evenodd" clip-rule="evenodd" d="M22.1167 16.0368C22.1167 16.0368 22.4165 16.7103 22.2493 16.7847C22.0822 16.8591 21.2292 17.6424 21.0793 17.3057C20.9294 16.9689 20.6873 16.875 20.6873 16.875C20.6873 16.875 20.8949 17.7912 20.4107 17.6033C19.9265 17.4155 19.6671 17.7327 19.4422 17.2276C19.2174 16.7225 19.0502 16.7969 19.0502 16.7969C19.0502 16.7969 19.0907 17.7876 18.6065 17.5997C18.1223 17.4118 18.3239 16.5151 18.3239 16.5151C18.3239 16.5151 18.1223 17.4118 17.8052 17.1495C17.4881 16.8872 17.4476 15.8965 17.4476 15.8965C17.4476 15.8965 17.2288 17.2044 16.8367 16.7737C16.4447 16.343 16.5541 15.6891 16.5541 15.6891C16.5541 15.6891 15.4185 15.3878 15.845 14.9961C16.2715 14.6045 16.773 14.3813 16.773 14.3813C16.773 14.3813 15.061 14.1348 16.0639 13.6883C17.0668 13.2418 17.7354 12.9441 17.7354 12.9441C17.7354 12.9441 16.5248 12.4744 17.6949 11.9534C18.8649 11.4325 19.6835 11.4715 19.6835 11.4715C19.6835 11.4715 18.6573 10.5162 20.3116 10.1832C21.9659 9.85011 21.8564 10.504 22.0236 10.4296C22.1907 10.3552 21.5738 9.41945 22.7267 9.30965C23.8795 9.19985 24.2543 10.0417 24.4214 9.96725C24.5886 9.89283 24.1561 8.4715 25.4416 9.10958C26.7271 9.74765 26.3583 10.7188 26.5255 10.6444C26.6926 10.5699 29.3671 9.37922 28.4219 10.4053C27.4767 11.4313 27.4595 11.8424 27.4595 11.8424C27.4595 11.8424 29.5058 11.94 28.6528 12.7233C27.7998 13.5065 26.9063 13.2991 26.9063 13.2991C26.9063 13.2991 27.8575 14.0861 27.1889 14.3837C26.5203 14.6814 25.6268 14.474 25.6268 14.474C25.6268 14.474 26.7624 14.7754 25.9267 15.1475C25.0909 15.5196 24.2896 15.0694 24.2896 15.0694C24.2896 15.0694 25.4425 14.9596 24.5145 15.5745C23.5866 16.1894 22.6181 15.8136 22.6181 15.8136L22.1167 16.0368Z" fill="url(#paint5_linear_21_6014)"/>
<path fill-rule="evenodd" clip-rule="evenodd" d="M23.6238 14.5714C23.6238 14.5714 23.8409 15.0591 23.9612 15.0056C24.0814 14.9521 24.9113 14.8747 24.8028 14.6309C24.6942 14.387 24.7602 14.2116 24.7602 14.2116C24.7602 14.2116 25.1518 14.7677 25.2837 14.4168C25.4156 14.0659 25.7103 14.0807 25.5475 13.715C25.3847 13.3492 25.5049 13.2957 25.5049 13.2957C25.5049 13.2957 26.0168 13.7982 26.1487 13.4473C26.2806 13.0964 25.7027 12.7693 25.7027 12.7693C25.7027 12.7693 26.2806 13.0964 26.2922 12.799C26.3039 12.5017 25.792 11.9991 25.792 11.9991C25.792 11.9991 26.5986 12.5165 26.556 12.0972C26.5134 11.678 26.1101 11.4193 26.1101 11.4193C26.1101 11.4193 26.4941 10.6639 26.0792 10.7026C25.6642 10.7413 25.3035 10.9019 25.3035 10.9019C25.3035 10.9019 25.9939 9.86404 25.2725 10.1852C24.5512 10.5064 24.0702 10.7205 24.0702 10.7205C24.0702 10.7205 24.4 9.84329 23.5584 10.218C22.7167 10.5927 22.3444 11.0507 22.3444 11.0507C22.3444 11.0507 22.3251 10.0367 21.3516 10.7623C20.3781 11.4879 20.7814 11.7466 20.6611 11.8001C20.5409 11.8536 20.3354 11.0686 19.7226 11.6336C19.1098 12.1986 19.3812 12.8082 19.261 12.8618C19.1407 12.9153 18.5862 11.9935 18.3108 12.9926C18.0353 13.9918 18.7334 14.2653 18.6131 14.3189C18.4929 14.3724 16.5692 15.2289 17.5737 15.2199C18.5781 15.211 18.8069 15.4013 18.8069 15.4013C18.8069 15.4013 17.876 16.5462 18.706 16.4688C19.5359 16.3915 19.854 15.8116 19.854 15.8116C19.854 15.8116 19.819 16.7037 20.2999 16.4896C20.7808 16.2755 21.0989 15.6956 21.0989 15.6956C21.0989 15.6956 20.7149 16.4509 21.3161 16.1833C21.9172 15.9156 22.0608 15.2673 22.0608 15.2673C22.0608 15.2673 21.448 15.8324 22.2236 15.6331C22.9993 15.4338 23.2631 14.732 23.2631 14.732L23.6238 14.5714Z" fill="url(#paint6_linear_21_6014)"/>
<path fill-rule="evenodd" clip-rule="evenodd" d="M23.6238 14.5714C23.6238 14.5714 23.8409 15.0591 23.9612 15.0056C24.0814 14.9521 24.9113 14.8747 24.8028 14.6309C24.6942 14.387 24.7602 14.2116 24.7602 14.2116C24.7602 14.2116 25.1518 14.7677 25.2837 14.4168C25.4156 14.0659 25.7103 14.0807 25.5475 13.715C25.3847 13.3492 25.5049 13.2957 25.5049 13.2957C25.5049 13.2957 26.0168 13.7982 26.1487 13.4473C26.2806 13.0964 25.7027 12.7693 25.7027 12.7693C25.7027 12.7693 26.2806 13.0964 26.2922 12.799C26.3039 12.5017 25.792 11.9991 25.792 11.9991C25.792 11.9991 26.5986 12.5165 26.556 12.0972C26.5134 11.678 26.1101 11.4193 26.1101 11.4193C26.1101 11.4193 26.4941 10.6639 26.0792 10.7026C25.6642 10.7413 25.3035 10.9019 25.3035 10.9019C25.3035 10.9019 25.9939 9.86404 25.2725 10.1852C24.5512 10.5064 24.0702 10.7205 24.0702 10.7205C24.0702 10.7205 24.4 9.84329 23.5584 10.218C22.7167 10.5927 22.3444 11.0507 22.3444 11.0507C22.3444 11.0507 22.3251 10.0367 21.3516 10.7623C20.3781 11.4879 20.7814 11.7466 20.6611 11.8001C20.5409 11.8536 20.3354 11.0686 19.7226 11.6336C19.1098 12.1986 19.3812 12.8082 19.261 12.8618C19.1407 12.9153 18.5862 11.9935 18.3108 12.9926C18.0353 13.9918 18.7334 14.2653 18.6131 14.3189C18.4929 14.3724 16.5692 15.2289 17.5737 15.2199C18.5781 15.211 18.8069 15.4013 18.8069 15.4013C18.8069 15.4013 17.876 16.5462 18.706 16.4688C19.5359 16.3915 19.854 15.8116 19.854 15.8116C19.854 15.8116 19.819 16.7037 20.2999 16.4896C20.7808 16.2755 21.0989 15.6956 21.0989 15.6956C21.0989 15.6956 20.7149 16.4509 21.3161 16.1833C21.9172 15.9156 22.0608 15.2673 22.0608 15.2673C22.0608 15.2673 21.448 15.8324 22.2236 15.6331C22.9993 15.4338 23.2631 14.732 23.2631 14.732L23.6238 14.5714Z" fill="url(#paint7_radial_21_6014)"/>
<ellipse cx="22.3307" cy="13.224" rx="2.92333" ry="1.21805" transform="rotate(-24 22.3307 13.224)" fill="url(#paint8_radial_21_6014)"/>
<circle cx="20.534" cy="14.9963" r="0.406018" transform="rotate(-24 20.534 14.9963)" fill="url(#paint9_radial_21_6014)"/>
<circle cx="22.1581" cy="14.1838" r="0.406018" transform="rotate(-24 22.1581 14.1838)" fill="url(#paint10_radial_21_6014)"/>
<circle cx="24.5942" cy="13.3718" r="0.406018" transform="rotate(-24 24.5942 13.3718)" fill="url(#paint11_radial_21_6014)"/>
<circle cx="19.7219" cy="14.1838" r="0.406018" transform="rotate(-24 19.7219 14.1838)" fill="url(#paint12_radial_21_6014)"/>
<circle cx="21.346" cy="12.5598" r="0.406018" transform="rotate(-24 21.346 12.5598)" fill="url(#paint13_radial_21_6014)"/>
<circle cx="24.5942" cy="11.7478" r="0.406018" transform="rotate(-24 24.5942 11.7478)" fill="url(#paint14_radial_21_6014)"/>
<circle cx="22.9701" cy="12.5598" r="0.406018" transform="rotate(-24 22.9701 12.5598)" fill="url(#paint15_radial_21_6014)"/>
<circle cx="20.534" cy="13.3718" r="0.406018" transform="rotate(-24 20.534 13.3718)" fill="url(#paint16_radial_21_6014)"/>
<path d="M23.6336 32.5692C23.8953 31.8091 19.921 22.3638 16.8807 21.3169" stroke="#21AB17" stroke-width="1.4" stroke-linecap="round"/>
<path fill-rule="evenodd" clip-rule="evenodd" d="M18.0742 23.7262L18.4762 24.1281C18.4762 24.1281 19.2801 24.932 20.0839 24.1281C20.8878 23.3242 19.682 21.3145 18.8781 21.3145C18.0742 21.3145 17.6723 22.5204 17.6723 22.5204L18.0742 23.7262Z" fill="url(#paint17_linear_21_6014)"/>
<path fill-rule="evenodd" clip-rule="evenodd" d="M17.1173 23.0988L17.8523 25.9024L18.3883 23.1113L19.6467 24.3948L18.8992 22.8621L20.9302 23.1364C20.9302 23.1364 18.65 22.3512 19.1609 22.1021C19.6718 21.8529 21.7154 20.8562 21.7154 20.8562C21.7154 20.8562 18.1516 21.3294 18.1516 21.3294L17.1173 23.0988Z" fill="#275F3D"/>
<path fill-rule="evenodd" clip-rule="evenodd" d="M17.5552 22.3934C17.5552 22.3934 17.9505 22.7251 17.8682 22.8232C17.7859 22.9213 17.4896 23.6758 17.2919 23.51C17.0943 23.3441 16.9131 23.3593 16.9131 23.3593C16.9131 23.3593 17.3249 23.872 16.9626 23.9024C16.6003 23.9328 16.5345 24.212 16.238 23.9632C15.9415 23.7144 15.8592 23.8125 15.8592 23.8125C15.8592 23.8125 16.1887 24.4234 15.8264 24.4538C15.4641 24.4841 15.3157 23.8581 15.3157 23.8581C15.3157 23.8581 15.4641 24.4841 15.1841 24.4164C14.9041 24.3487 14.5746 23.7378 14.5746 23.7378C14.5746 23.7378 14.8383 24.6278 14.4595 24.4772C14.0807 24.3265 13.9488 23.8815 13.9488 23.8815C13.9488 23.8815 13.1419 24.0404 13.2901 23.6631C13.4382 23.2858 13.6852 22.9915 13.6852 22.9915C13.6852 22.9915 12.5324 23.3618 13.0264 22.7731C13.5204 22.1844 13.8497 21.792 13.8497 21.792C13.8497 21.792 12.9439 21.8679 13.5202 21.1811C14.0965 20.4943 14.6235 20.2677 14.6235 20.2677C14.6235 20.2677 13.6847 19.9816 14.6233 19.2644C15.5619 18.5472 15.6937 18.9922 15.7761 18.8941C15.8584 18.796 15.1831 18.3966 15.8747 17.9737C16.5663 17.5509 17.0605 17.9655 17.1428 17.8674C17.2251 17.7693 16.5168 17.0078 17.5214 17.0147C18.526 17.0217 18.592 17.7459 18.6743 17.6478C18.7567 17.5496 20.0739 15.9798 19.7941 16.9154C19.5143 17.851 19.6296 18.1149 19.6296 18.1149C19.6296 18.1149 20.947 17.5484 20.6507 18.3029C20.3544 19.0575 19.7286 19.2012 19.7286 19.2012C19.7286 19.2012 20.5685 19.4044 20.2392 19.7968C19.9099 20.1893 19.2841 20.333 19.2841 20.333C19.2841 20.333 20.0911 20.1741 19.6794 20.6647C19.2678 21.1552 18.6255 21.1179 18.6255 21.1179C18.6255 21.1179 19.3171 20.695 18.922 21.3666C18.5268 22.0383 17.8022 22.099 17.8022 22.099L17.5552 22.3934Z" fill="url(#paint18_linear_21_6014)"/>
<path fill-rule="evenodd" clip-rule="evenodd" d="M18.0537 21.0088C18.0537 21.0088 18.34 21.249 18.3992 21.1785C18.4584 21.1079 18.9569 20.8045 18.8137 20.6844C18.6706 20.5643 18.6583 20.4337 18.6583 20.4337C18.6583 20.4337 19.0753 20.6634 19.0506 20.4021C19.0259 20.1409 19.2159 20.0598 19.0012 19.8797C18.7865 19.6995 18.8457 19.6289 18.8457 19.6289C18.8457 19.6289 19.322 19.788 19.2973 19.5268C19.2726 19.2655 18.8087 19.2371 18.8087 19.2371C18.8087 19.2371 19.2726 19.2655 19.1887 19.0749C19.1048 18.8842 18.6285 18.7251 18.6285 18.7251C18.6285 18.7251 19.2948 18.8031 19.1393 18.5524C18.9839 18.3017 18.6507 18.2627 18.6507 18.2627C18.6507 18.2627 18.6606 17.6696 18.4113 17.8213C18.1621 17.9729 17.9845 18.1847 17.9845 18.1847C17.9845 18.1847 18.1004 17.3198 17.7451 17.7433C17.3898 18.1667 17.1529 18.449 17.1529 18.449C17.1529 18.449 17.0912 17.7959 16.6767 18.2899C16.2621 18.7839 16.1684 19.1863 16.1684 19.1863C16.1684 19.1863 15.8451 18.5543 15.4553 19.3095C15.0654 20.0648 15.3986 20.1038 15.3393 20.1743C15.2801 20.2449 14.91 19.8141 14.6978 20.3576C14.4856 20.9011 14.8434 21.2014 14.7842 21.2719C14.725 21.3425 14.0932 20.9327 14.2265 21.6459C14.3598 22.359 14.883 22.3169 14.8237 22.3875C14.7645 22.4581 13.817 23.5872 14.4462 23.2734C15.0755 22.9595 15.2778 23.009 15.2778 23.009C15.2778 23.009 15.0434 24.015 15.5419 23.7117C16.0403 23.4083 16.0625 22.9459 16.0625 22.9459C16.0625 22.9459 16.3142 23.5179 16.5511 23.2356C16.788 22.9533 16.8101 22.4909 16.8101 22.4909C16.8101 22.4909 16.8003 23.0839 17.0964 22.7311C17.3925 22.3782 17.2839 21.9263 17.2839 21.9263C17.2839 21.9263 17.0717 22.4698 17.4986 22.1064C17.9255 21.743 17.8761 21.2206 17.8761 21.2206L18.0537 21.0088Z" fill="url(#paint19_linear_21_6014)"/>
<path fill-rule="evenodd" clip-rule="evenodd" d="M18.0537 21.0088C18.0537 21.0088 18.34 21.249 18.3992 21.1785C18.4584 21.1079 18.9569 20.8045 18.8137 20.6844C18.6706 20.5643 18.6583 20.4337 18.6583 20.4337C18.6583 20.4337 19.0753 20.6634 19.0506 20.4021C19.0259 20.1409 19.2159 20.0598 19.0012 19.8797C18.7865 19.6995 18.8457 19.6289 18.8457 19.6289C18.8457 19.6289 19.322 19.788 19.2973 19.5268C19.2726 19.2655 18.8087 19.2371 18.8087 19.2371C18.8087 19.2371 19.2726 19.2655 19.1887 19.0749C19.1048 18.8842 18.6285 18.7251 18.6285 18.7251C18.6285 18.7251 19.2948 18.8031 19.1393 18.5524C18.9839 18.3017 18.6507 18.2627 18.6507 18.2627C18.6507 18.2627 18.6606 17.6696 18.4113 17.8213C18.1621 17.9729 17.9845 18.1847 17.9845 18.1847C17.9845 18.1847 18.1004 17.3198 17.7451 17.7433C17.3898 18.1667 17.1529 18.449 17.1529 18.449C17.1529 18.449 17.0912 17.7959 16.6767 18.2899C16.2621 18.7839 16.1684 19.1863 16.1684 19.1863C16.1684 19.1863 15.8451 18.5543 15.4553 19.3095C15.0654 20.0648 15.3986 20.1038 15.3393 20.1743C15.2801 20.2449 14.91 19.8141 14.6978 20.3576C14.4856 20.9011 14.8434 21.2014 14.7842 21.2719C14.725 21.3425 14.0932 20.9327 14.2265 21.6459C14.3598 22.359 14.883 22.3169 14.8237 22.3875C14.7645 22.4581 13.817 23.5872 14.4462 23.2734C15.0755 22.9595 15.2778 23.009 15.2778 23.009C15.2778 23.009 15.0434 24.015 15.5419 23.7117C16.0403 23.4083 16.0625 22.9459 16.0625 22.9459C16.0625 22.9459 16.3142 23.5179 16.5511 23.2356C16.788 22.9533 16.8101 22.4909 16.8101 22.4909C16.8101 22.4909 16.8003 23.0839 17.0964 22.7311C17.3925 22.3782 17.2839 21.9263 17.2839 21.9263C17.2839 21.9263 17.0717 22.4698 17.4986 22.1064C17.9255 21.743 17.8761 21.2206 17.8761 21.2206L18.0537 21.0088Z" fill="url(#paint20_radial_21_6014)"/>
<ellipse cx="16.8268" cy="20.5581" rx="2.04633" ry="0.852637" transform="rotate(-50 16.8268 20.5581)" fill="url(#paint21_radial_21_6014)"/>
<circle cx="16.2401" cy="22.2242" r="0.284212" transform="rotate(-50 16.2401 22.2242)" fill="url(#paint22_radial_21_6014)"/>
<circle cx="17.0127" cy="21.215" r="0.284212" transform="rotate(-50 17.0127 21.215)" fill="url(#paint23_radial_21_6014)"/>
<circle cx="18.2962" cy="19.9567" r="0.284212" transform="rotate(-50 18.2962 19.9567)" fill="url(#paint24_radial_21_6014)"/>
<circle cx="15.48" cy="21.9625" r="0.284212" transform="rotate(-50 15.48 21.9625)" fill="url(#paint25_radial_21_6014)"/>
<circle cx="16.0035" cy="20.4425" r="0.284212" transform="rotate(-50 16.0035 20.4425)" fill="url(#paint26_radial_21_6014)"/>
<circle cx="17.7979" cy="18.9347" r="0.284212" transform="rotate(-50 17.7979 18.9347)" fill="url(#paint27_radial_21_6014)"/>
<circle cx="17.0253" cy="19.944" r="0.284212" transform="rotate(-50 17.0253 19.944)" fill="url(#paint28_radial_21_6014)"/>
<circle cx="15.7417" cy="21.2023" r="0.284212" transform="rotate(-50 15.7417 21.2023)" fill="url(#paint29_radial_21_6014)"/>
<path fill-rule="evenodd" clip-rule="evenodd" d="M25.2447 31.2186C25.4177 31.2186 25.7636 31.2186 25.9366 31.043C26.1096 30.8674 26.4555 30.3407 26.6285 30.3407C26.8014 30.3407 26.9744 30.3407 27.1474 30.3407C27.3203 30.3407 27.1474 29.9895 27.4933 29.9895C27.8393 29.9895 28.3582 29.9895 28.3582 29.814C28.3582 29.6384 27.6663 28.936 27.6663 28.936L29.5689 29.2872L29.05 27.8825C29.05 27.8825 30.2608 27.5314 30.2608 27.1802C30.2608 26.8291 29.5689 26.6535 29.396 26.6535C29.223 26.6535 29.9149 26.3023 30.2608 26.1267C30.6067 25.9511 29.9149 25.7756 31.1256 25.6C32.3364 25.4244 32.5094 25.7756 32.5094 25.4244C32.5094 25.0732 32.6823 24.7221 32.3364 24.7221C31.9905 24.7221 31.1256 24.5465 31.1256 24.5465C31.1256 24.5465 31.9905 22.9662 32.6823 22.9662C33.3742 22.9662 34.239 22.9662 34.585 22.9662C34.9309 22.9662 35.4498 23.1418 35.1039 22.6151C34.7579 22.0883 33.7201 21.5616 34.0661 21.5616C34.412 21.5616 39.4281 20.3325 40.2929 20.8593C41.1577 21.386 39.601 21.9128 39.601 21.9128C39.601 21.9128 38.5632 23.493 38.3903 24.0197C38.2173 24.5465 36.8335 26.1267 36.4876 26.3023C36.1417 26.4779 37.1795 24.0197 36.4876 24.0197C36.2372 24.0197 35.9641 24.3418 35.7175 24.7612C35.283 25.5003 34.9309 26.5414 34.9309 26.6535C34.9309 26.8291 34.585 27.0046 34.585 27.0046C34.585 27.0046 34.7579 27.8825 34.239 28.4093C33.7201 28.936 34.0661 28.4093 33.8931 28.0581C33.7201 27.707 33.5472 27.1802 33.3742 27.1802C33.2012 27.1802 32.5094 27.5314 32.5094 27.5314C32.5094 27.5314 31.9905 27.8825 31.9905 28.4093C31.9905 28.936 31.9905 28.936 31.9905 29.1116C31.9905 29.2872 31.6445 29.6384 31.6445 29.6384C31.6445 29.6384 31.6445 30.6919 31.4716 30.8674C31.2986 31.043 30.9527 31.7454 30.9527 31.3942C30.9527 31.043 31.2986 29.6384 30.7797 29.814C30.2608 29.9895 29.5689 30.6919 29.5689 30.8674C29.5689 31.043 29.5689 31.7454 29.396 31.7454C29.223 31.7454 28.5311 31.043 28.5311 31.043C28.5311 31.043 28.3582 31.9209 28.0122 31.9209C27.6663 31.9209 26.9744 32.0965 26.9744 32.0965C26.9744 32.0965 26.2825 31.9209 26.1096 31.9209C25.9366 31.9209 25.5907 32.0965 25.4177 31.9209C25.2447 31.7454 25.0718 31.2186 25.2447 31.2186Z" fill="url(#paint30_linear_21_6014)"/>
<path d="M40.5126 21.3403C40.3331 21.6603 39.6233 21.9052 39.6015 21.9126C39.6015 21.9126 38.5635 23.4933 38.3906 24.02C38.2175 24.5468 36.8332 26.1267 36.4872 26.3022C36.142 26.4767 37.179 24.02 36.4872 24.02C36.2369 24.0203 35.9641 24.3422 35.7177 24.7612C35.2832 25.5003 34.9306 26.5418 34.9306 26.6538C34.9303 26.8277 34.5913 27.0011 34.5849 27.0044C34.5849 27.0044 34.7581 27.8829 34.2392 28.4097C33.7204 28.9363 34.0664 28.4093 33.8935 28.0581C33.7205 27.7069 33.5469 27.1802 33.374 27.1802C33.2022 27.1805 32.5223 27.5253 32.5097 27.5317C32.5097 27.5317 31.9902 27.8829 31.9902 28.4097V29.1118C31.9901 29.2855 31.652 29.6305 31.6445 29.6382C31.6445 29.6382 31.6446 30.6921 31.4716 30.8677C31.2986 31.0433 30.9531 31.7452 30.9531 31.394C30.9532 31.0424 31.298 29.6384 30.7792 29.814C30.2604 29.9898 29.5693 30.6921 29.5693 30.8677C29.5693 31.0433 29.5689 31.7443 29.3964 31.7456C29.2251 31.7456 28.544 31.0565 28.5312 31.0435C28.5277 31.0611 28.3547 31.9207 28.0126 31.9214C27.6704 31.9214 26.9891 32.0925 26.9745 32.0962C26.9745 32.0962 26.8114 32.0557 26.624 32.0132C26.8782 31.8969 27.1523 31.7676 27.4267 31.6304C27.9412 31.3731 28.4749 31.081 28.8857 30.7935C29.0896 30.6507 29.282 30.4958 29.4286 30.3345C29.554 30.1965 29.7167 29.976 29.7304 29.6978C29.7317 29.6941 29.7338 29.6881 29.7372 29.6802C29.7513 29.6479 29.7778 29.5979 29.8232 29.5298C29.9143 29.3931 30.0546 29.2209 30.2372 29.02C30.601 28.6198 31.0944 28.1507 31.5976 27.6978C32.0987 27.2468 32.6008 26.8191 32.9785 26.5044C33.167 26.3473 33.3247 26.2188 33.4345 26.1294C33.4893 26.0848 33.5323 26.0494 33.5615 26.0259C33.5759 26.0142 33.5873 26.0055 33.5947 25.9995L33.5966 25.9976C33.5983 25.9963 33.6007 25.9947 33.6035 25.9927C33.6099 25.9878 33.6196 25.9804 33.6318 25.9712C33.6563 25.9526 33.6921 25.9248 33.7372 25.8901C33.8277 25.8207 33.957 25.7213 34.1113 25.5991C34.4196 25.355 34.8319 25.0191 35.246 24.6567C35.6577 24.2965 36.0822 23.9002 36.4072 23.5347C36.569 23.3526 36.7169 23.1659 36.8271 22.9868C36.916 22.8423 37.0146 22.6482 37.0361 22.4351C37.0397 22.4316 37.044 22.4276 37.0488 22.4233C37.112 22.3672 37.2279 22.2918 37.4062 22.2056C37.7586 22.0351 38.2575 21.8675 38.8046 21.7183C39.3469 21.5704 39.9164 21.4464 40.3984 21.3599C40.4371 21.3529 40.4755 21.3467 40.5126 21.3403ZM28.8808 29.1597C28.859 29.2002 28.8381 29.2407 28.8203 29.2817C28.7832 29.3669 28.7472 29.4762 28.7372 29.5981C28.7299 29.6095 28.7162 29.631 28.6884 29.6616C28.6131 29.7445 28.4881 29.8505 28.3115 29.9741C27.9611 30.2193 27.4796 30.4857 26.9794 30.7358C26.4829 30.9841 25.984 31.2088 25.6083 31.3716C25.4516 31.4395 25.3164 31.4954 25.2128 31.5386C25.1597 31.3706 25.1521 31.2183 25.2451 31.2183C25.4181 31.2183 25.7635 31.2187 25.9365 31.0435C26.1094 30.8679 26.4559 30.3413 26.6288 30.3413H27.1474C27.3203 30.3413 27.1475 29.9899 27.4931 29.9897C27.839 29.9897 28.3583 29.9895 28.3583 29.814C28.358 29.6382 27.666 28.936 27.666 28.936L28.8808 29.1597ZM38.332 20.813C37.835 20.956 37.3514 21.1219 36.9706 21.3062C36.7558 21.4101 36.5475 21.5317 36.3857 21.6753C36.235 21.809 36.041 22.0362 36.041 22.3521C36.041 22.3098 36.0526 22.3371 35.9755 22.4624C35.9082 22.5719 35.8026 22.7093 35.6601 22.8696C35.3761 23.1891 34.988 23.5546 34.5878 23.9048C34.1901 24.2528 33.7907 24.577 33.4902 24.8149C33.3402 24.9337 33.215 25.0303 33.1279 25.0972C33.0844 25.1305 33.0503 25.1569 33.0273 25.1743C33.0161 25.1828 33.0076 25.1895 33.0019 25.1938C32.9991 25.1959 32.9964 25.1977 32.9951 25.1987L32.9931 25.1997V25.2007L32.9872 25.2046L32.9804 25.2104H32.9794C32.9789 25.2109 32.9783 25.2117 32.9775 25.2124C32.9754 25.2141 32.9726 25.2171 32.9687 25.2202C32.9608 25.2266 32.9486 25.2354 32.9335 25.2476C32.9032 25.272 32.8587 25.3083 32.8027 25.354C32.6904 25.4454 32.5305 25.5771 32.3388 25.7368C31.9553 26.0564 31.4424 26.4923 30.9286 26.9546C30.417 27.4151 29.8944 27.9101 29.497 28.3472C29.4292 28.4218 29.3656 28.4976 29.3036 28.5708C29.1757 28.2245 29.0497 27.8823 29.0497 27.8823C29.0497 27.8823 30.2607 27.5313 30.2607 27.1802C30.2605 26.8294 29.5701 26.6541 29.3964 26.6538C29.2235 26.6538 29.9147 26.302 30.2607 26.1265C30.6065 25.9509 29.9152 25.7757 31.1259 25.6001C32.3364 25.4246 32.5097 25.7755 32.5097 25.4243C32.5098 25.0734 32.6821 24.7225 32.3369 24.7222C31.9942 24.7222 31.142 24.5496 31.1259 24.5464C31.1394 24.5217 31.9962 22.9663 32.6826 22.9663H34.5849C34.9308 22.9663 35.4494 23.1415 35.1035 22.6147C34.7572 22.0882 33.7205 21.562 34.0663 21.562C34.2968 21.5616 36.5699 21.0244 38.332 20.813Z" fill="url(#paint31_linear_21_6014)"/>
<path fill-rule="evenodd" clip-rule="evenodd" d="M23.8118 32.2682C23.6901 32.2062 23.4468 32.0823 23.3877 31.8973C23.3287 31.7124 23.2733 31.2197 23.1516 31.1577C23.0299 31.0957 22.9082 31.0337 22.7866 30.9717C22.6649 30.9097 22.9118 30.7259 22.6685 30.6019C22.4252 30.4779 22.0602 30.2919 22.1228 30.169C22.1854 30.0461 22.9226 29.8024 22.9226 29.8024L21.459 29.3663L22.3251 28.5689C22.3251 28.5689 21.5986 27.8891 21.7239 27.6432C21.8492 27.3974 22.3985 27.5224 22.5201 27.5844C22.6418 27.6464 22.2804 27.1526 22.0997 26.9057C21.919 26.6588 22.4683 26.7839 21.6792 26.227C20.8902 25.6701 20.6432 25.8539 20.7685 25.6081C20.8938 25.3623 20.8974 25.0544 21.1407 25.1784C21.384 25.3024 22.055 25.4895 22.055 25.4895C22.055 25.4895 22.0103 24.0732 21.5237 23.8252C21.037 23.5772 20.4286 23.2673 20.1853 23.1433C19.942 23.0193 19.5143 22.9562 19.9456 22.7115C20.3768 22.4667 21.2947 22.4699 21.0514 22.3459C20.808 22.2219 17.718 19.5636 16.9218 19.6224C16.1255 19.6812 17.0327 20.6079 17.0327 20.6079C17.0327 20.6079 17.199 22.0862 17.1328 22.5169C17.0666 22.9477 17.4762 24.5499 17.6569 24.7969C17.8376 25.0438 17.9845 22.9509 18.4711 23.1989C18.6473 23.2886 18.7245 23.612 18.7484 23.994C18.7904 24.6671 18.6667 25.5222 18.6267 25.6006C18.5641 25.7236 18.7448 25.9705 18.7448 25.9705C18.7448 25.9705 18.3099 26.5231 18.4871 27.0778C18.6642 27.6326 18.6087 27.1398 18.8557 26.956C19.1026 26.7721 19.4122 26.4654 19.5338 26.5273C19.6555 26.5893 20.0169 27.0832 20.0169 27.0832C20.0169 27.0832 20.2567 27.515 20.0688 27.8837C19.8809 28.2525 19.8809 28.2525 19.8182 28.3754C19.7556 28.4983 19.8737 28.8682 19.8737 28.8682C19.8737 28.8682 19.4979 29.6057 19.5569 29.7906C19.616 29.9755 19.6088 30.5912 19.7341 30.3454C19.8593 30.0995 20.117 28.9922 20.4194 29.3011C20.7218 29.61 20.9579 30.3496 20.8953 30.4726C20.8327 30.5955 20.5822 31.0872 20.7038 31.1492C20.8255 31.2111 21.5627 30.9674 21.5627 30.9674C21.5627 30.9674 21.3712 31.644 21.6145 31.768C21.8579 31.892 22.2819 32.2629 22.2819 32.2629C22.2819 32.2629 22.8312 32.388 22.9529 32.45C23.0746 32.5119 23.2553 32.7589 23.4396 32.6979C23.6239 32.637 23.9335 32.3302 23.8118 32.2682Z" fill="url(#paint32_linear_21_6014)"/>
<path d="M21.4479 31.1454C21.4055 31.3475 21.3476 31.7442 21.5304 31.8374C21.7762 31.9627 22.2033 32.333 22.2114 32.34C22.2135 32.3405 22.2623 32.3521 22.3335 32.3694C22.2176 32.2229 22.0953 32.0684 21.9763 31.9089C21.7923 31.6623 21.6086 31.399 21.4479 31.1454ZM16.4214 19.9345C16.5295 20.2086 16.8305 20.5167 16.8305 20.5167C16.8329 20.537 17.0045 22.0171 16.939 22.4505C16.873 22.8867 17.2949 24.5117 17.4796 24.7624C17.6642 25.0107 17.8075 22.893 18.3034 23.1457C18.4827 23.2375 18.5617 23.5656 18.5872 23.9524C18.6322 24.6333 18.5103 25.4973 18.4696 25.5792C18.4063 25.7035 18.5908 25.9544 18.5908 25.9544C18.5908 25.9544 18.15 26.5128 18.3321 27.0753C18.5142 27.6379 18.4561 27.1383 18.7068 26.9528C18.9575 26.7674 19.2718 26.4581 19.3958 26.5213C19.5188 26.5846 19.8806 27.0751 19.8885 27.0858C19.8885 27.0858 20.1343 27.5239 19.9444 27.8969L19.6908 28.3946C19.6288 28.5173 19.7455 28.8823 19.749 28.8933C19.749 28.8933 19.3695 29.6393 19.4301 29.8269C19.4908 30.0144 19.4848 30.6381 19.6115 30.3895C19.7381 30.1408 19.9973 29.02 20.306 29.3339C20.6145 29.6475 20.8572 30.3967 20.7945 30.522C20.7312 30.6463 20.4776 31.1434 20.601 31.2071C20.699 31.257 21.1864 31.113 21.3875 31.0511C21.3291 30.9558 21.2739 30.8627 21.2249 30.7721C21.1287 30.5938 21.0422 30.4063 20.9924 30.2283C20.952 30.0841 20.9076 29.8466 21.0036 29.6148C21.0044 29.5942 21.0036 29.5567 20.9966 29.4994C20.9814 29.3766 20.9443 29.2085 20.8864 29.0015C20.7712 28.5902 20.5889 28.0813 20.3919 27.5779C20.1958 27.0771 19.9896 26.5922 19.8326 26.232C19.7543 26.0524 19.6878 25.9034 19.6415 25.8004C19.6185 25.7493 19.6001 25.7091 19.5878 25.682C19.5817 25.6686 19.5772 25.6578 19.5741 25.6509C19.5726 25.6477 19.571 25.6451 19.5702 25.6435L19.5693 25.6408C19.5667 25.6355 19.5631 25.6285 19.559 25.6202C19.5481 25.598 19.5316 25.565 19.5117 25.5238C19.4717 25.4413 19.4151 25.323 19.3483 25.1797C19.2149 24.8933 19.0389 24.5028 18.8718 24.093C18.706 23.6862 18.5428 23.2459 18.44 22.8624C18.3889 22.6717 18.3485 22.4793 18.3333 22.3039C18.3223 22.1765 18.3202 22.0023 18.3749 21.833C18.3506 21.7806 18.303 21.699 18.22 21.5907C18.034 21.3482 17.7424 21.0512 17.4057 20.7473C17.0809 20.4541 16.7284 20.1673 16.4214 19.9345ZM22.1732 30.4146C22.3307 30.6851 22.5456 30.9995 22.7783 31.3114C23.0433 31.6666 23.3189 32.0067 23.5288 32.2583C23.6128 32.3589 23.6867 32.4445 23.744 32.5115C23.7974 32.4399 23.8176 32.3762 23.7688 32.351C23.6448 32.2878 23.396 32.1609 23.3353 31.9734C23.2747 31.7856 23.2165 31.287 23.0925 31.2239L22.7201 31.0341C22.5971 30.9707 22.8467 30.7852 22.5989 30.6589C22.4632 30.5898 22.2915 30.5005 22.1732 30.4146ZM22.0026 29.5944C22.0027 29.6214 22.0035 29.6485 22.0019 29.6752C21.9978 29.7482 21.9856 29.8414 21.9506 29.9373C21.952 29.9432 21.9531 29.9505 21.9552 29.9583C21.9717 30.0171 22.0067 30.0971 22.0578 30.2001C22.1794 30.0719 22.851 29.8516 22.8553 29.8502L22.0026 29.5944ZM21.5783 26.2239C21.1349 25.9117 20.8601 25.8259 20.7235 25.7719C20.7321 25.7915 20.7408 25.8119 20.7497 25.8324C20.9097 26.1995 21.1205 26.6972 21.3227 27.2138C21.5239 27.7277 21.7215 28.2726 21.8501 28.732C21.8674 28.7937 21.8817 28.8554 21.8968 28.9158C22.0762 28.7514 22.2337 28.6068 22.2425 28.5987C22.2288 28.5859 21.5031 27.9052 21.6285 27.659C21.7552 27.4106 22.3137 27.5381 22.4383 27.6013C22.5623 27.6645 22.1933 27.1641 22.0085 26.9133C21.8238 26.6626 22.383 26.7905 21.5783 26.2239ZM18.6423 20.5553C18.7806 20.7007 18.9081 20.8442 19.0142 20.9827C19.133 21.1378 19.2445 21.3087 19.3135 21.4815C19.3736 21.6321 19.4388 21.8815 19.3287 22.1337C19.3279 22.1425 19.3255 22.1685 19.3298 22.2176C19.3379 22.3113 19.3623 22.4411 19.4059 22.6038C19.4927 22.9277 19.6383 23.323 19.7984 23.7157C19.9573 24.1054 20.1259 24.4799 20.2552 24.7573C20.3196 24.8955 20.374 25.0095 20.4121 25.0882C20.431 25.1272 20.4458 25.158 20.4559 25.1785C20.461 25.1887 20.4655 25.1971 20.468 25.2022C20.4691 25.2045 20.47 25.2068 20.4706 25.2079L20.471 25.2092L20.4749 25.2167L20.4779 25.2237L20.4787 25.2241L20.4796 25.2267C20.4804 25.2287 20.4815 25.2317 20.483 25.2351C20.4864 25.2425 20.4917 25.2539 20.4981 25.2679C20.511 25.2964 20.5302 25.3379 20.5539 25.3906C20.5795 25.4477 20.611 25.5179 20.6471 25.5992C20.6479 25.5976 20.648 25.5952 20.6489 25.5936C20.7754 25.345 20.7785 25.0338 21.0265 25.1601C21.2746 25.2865 21.9582 25.4782 21.9582 25.4782C21.9582 25.4782 21.908 24.0434 21.412 23.7904L20.0477 23.0952C19.7996 22.9688 19.364 22.9031 19.8021 22.6566C20.2403 22.4102 21.174 22.4163 20.926 22.29C20.7834 22.2168 19.6982 21.3125 18.6423 20.5553Z" fill="url(#paint33_linear_21_6014)"/>
<defs>
<filter id="filter0_ii_21_6014" x="0" y="17.4795" width="48" height="27.8032" filterUnits="userSpaceOnUse" color-interpolation-filters="sRGB">
<feFlood flood-opacity="0" result="BackgroundImageFix"/>
<feBlend mode="normal" in="SourceGraphic" in2="BackgroundImageFix" result="shape"/>
<feColorMatrix in="SourceAlpha" type="matrix" values="0 0 0 0 0 0 0 0 0 0 0 0 0 0 0 0 0 0 127 0" result="hardAlpha"/>
<feOffset dy="-1"/>
<feComposite in2="hardAlpha" operator="arithmetic" k2="-1" k3="1"/>
<feColorMatrix type="matrix" values="0 0 0 0 1 0 0 0 0 1 0 0 0 0 1 0 0 0 0.3 0"/>
<feBlend mode="normal" in2="shape" result="effect1_innerShadow_21_6014"/>
<feColorMatrix in="SourceAlpha" type="matrix" values="0 0 0 0 0 0 0 0 0 0 0 0 0 0 0 0 0 0 127 0" result="hardAlpha"/>
<feOffset/>
<feGaussianBlur stdDeviation="2.5"/>
<feComposite in2="hardAlpha" operator="arithmetic" k2="-1" k3="1"/>
<feColorMatrix type="matrix" values="0 0 0 0 1 0 0 0 0 1 0 0 0 0 1 0 0 0 0.3 0"/>
<feBlend mode="normal" in2="effect1_innerShadow_21_6014" result="effect2_innerShadow_21_6014"/>
</filter>
<filter id="filter1_i_21_6014" x="21.1129" y="32.0962" width="1.62408" height="1.62402" filterUnits="userSpaceOnUse" color-interpolation-filters="sRGB">
<feFlood flood-opacity="0" result="BackgroundImageFix"/>
<feBlend mode="normal" in="SourceGraphic" in2="BackgroundImageFix" result="shape"/>
<feColorMatrix in="SourceAlpha" type="matrix" values="0 0 0 0 0 0 0 0 0 0 0 0 0 0 0 0 0 0 127 0" result="hardAlpha"/>
<feOffset/>
<feGaussianBlur stdDeviation="2.5"/>
<feComposite in2="hardAlpha" operator="arithmetic" k2="-1" k3="1"/>
<feColorMatrix type="matrix" values="0 0 0 0 0.0464869 0 0 0 0 0.601899 0 0 0 0 0 0 0 0 1 0"/>
<feBlend mode="normal" in2="shape" result="effect1_innerShadow_21_6014"/>
</filter>
<linearGradient id="paint0_linear_21_6014" x1="16.641" y1="31.3302" x2="27.1748" y2="37.5468" gradientUnits="userSpaceOnUse">
<stop stop-color="#2E9849"/>
<stop offset="1" stop-color="#29712F"/>
</linearGradient>
<linearGradient id="paint1_linear_21_6014" x1="0" y1="33.1165" x2="47.9999" y2="33.1165" gradientUnits="userSpaceOnUse">
<stop stop-color="#7B4F39"/>
<stop offset="0.0001" stop-color="#5F312D"/>
<stop offset="1" stop-color="#9B6B51"/>
</linearGradient>
<linearGradient id="paint2_linear_21_6014" x1="26.038" y1="14.0723" x2="13.5703" y2="38.6412" gradientUnits="userSpaceOnUse">
<stop stop-color="#FFD29A"/>
<stop offset="1" stop-color="#BB632B"/>
</linearGradient>
<radialGradient id="paint3_radial_21_6014" cx="0" cy="0" r="1" gradientUnits="userSpaceOnUse" gradientTransform="translate(21.925 32.9082) rotate(46.0291) scale(0.764564)">
<stop stop-color="#CCFF93"/>
<stop offset="1" stop-color="#2EC232"/>
</radialGradient>
<linearGradient id="paint4_linear_21_6014" x1="22.3164" y1="13.8646" x2="19.8176" y2="17.8756" gradientUnits="userSpaceOnUse">
<stop stop-color="#509B3F"/>
<stop offset="1" stop-color="#397549"/>
</linearGradient>
<linearGradient id="paint5_linear_21_6014" x1="15.9938" y1="18.3666" x2="28.6669" y2="16.8644" gradientUnits="userSpaceOnUse">
<stop stop-color="#EAFF08"/>
<stop offset="1" stop-color="#FFA207"/>
</linearGradient>
<linearGradient id="paint6_linear_21_6014" x1="27.8154" y1="12.4182" x2="20.8973" y2="18.46" gradientUnits="userSpaceOnUse">
<stop stop-color="#EAFF08"/>
<stop offset="1" stop-color="#FFA207"/>
</linearGradient>
<radialGradient id="paint7_radial_21_6014" cx="0" cy="0" r="1" gradientTransform="matrix(-3.61492 3.36549 3.83441 0.911838 21.9271 10.4411)" gradientUnits="userSpaceOnUse">
<stop stop-color="#EAFF08"/>
<stop offset="1" stop-color="#FFA207"/>
</radialGradient>
<radialGradient id="paint8_radial_21_6014" cx="0" cy="0" r="1" gradientTransform="matrix(2.7344 0.763909 -1.83338 1.13933 21.6521 12.006)" gradientUnits="userSpaceOnUse">
<stop stop-color="#EAFF08"/>
<stop offset="1" stop-color="#FFA207"/>
</radialGradient>
<radialGradient id="paint9_radial_21_6014" cx="0" cy="0" r="1" gradientUnits="userSpaceOnUse" gradientTransform="translate(20.534 14.8279) rotate(35.583) scale(0.752185)">
<stop stop-color="#EAFF08"/>
<stop offset="1" stop-color="#FFA207"/>
</radialGradient>
<radialGradient id="paint10_radial_21_6014" cx="0" cy="0" r="1" gradientUnits="userSpaceOnUse" gradientTransform="translate(22.1581 14.0154) rotate(35.583) scale(0.752185)">
<stop stop-color="#EAFF08"/>
<stop offset="1" stop-color="#FFA207"/>
</radialGradient>
<radialGradient id="paint11_radial_21_6014" cx="0" cy="0" r="1" gradientUnits="userSpaceOnUse" gradientTransform="translate(24.5942 13.2034) rotate(35.583) scale(0.752185)">
<stop stop-color="#EAFF08"/>
<stop offset="1" stop-color="#FFA207"/>
</radialGradient>
<radialGradient id="paint12_radial_21_6014" cx="0" cy="0" r="1" gradientUnits="userSpaceOnUse" gradientTransform="translate(19.7219 14.0154) rotate(35.583) scale(0.752185)">
<stop stop-color="#EAFF08"/>
<stop offset="1" stop-color="#FFA207"/>
</radialGradient>
<radialGradient id="paint13_radial_21_6014" cx="0" cy="0" r="1" gradientUnits="userSpaceOnUse" gradientTransform="translate(21.346 12.3914) rotate(35.583) scale(0.752185)">
<stop stop-color="#EAFF08"/>
<stop offset="1" stop-color="#FFA207"/>
</radialGradient>
<radialGradient id="paint14_radial_21_6014" cx="0" cy="0" r="1" gradientUnits="userSpaceOnUse" gradientTransform="translate(24.5942 11.5794) rotate(35.583) scale(0.752185)">
<stop stop-color="#EAFF08"/>
<stop offset="1" stop-color="#FFA207"/>
</radialGradient>
<radialGradient id="paint15_radial_21_6014" cx="0" cy="0" r="1" gradientUnits="userSpaceOnUse" gradientTransform="translate(22.9701 12.3914) rotate(35.583) scale(0.752185)">
<stop stop-color="#EAFF08"/>
<stop offset="1" stop-color="#FFA207"/>
</radialGradient>
<radialGradient id="paint16_radial_21_6014" cx="0" cy="0" r="1" gradientUnits="userSpaceOnUse" gradientTransform="translate(20.534 13.2034) rotate(35.583) scale(0.752185)">
<stop stop-color="#EAFF08"/>
<stop offset="1" stop-color="#FFA207"/>
</radialGradient>
<linearGradient id="paint17_linear_21_6014" x1="17.0143" y1="20.9658" x2="16.673" y2="24.2562" gradientUnits="userSpaceOnUse">
<stop stop-color="#509B3F"/>
<stop offset="1" stop-color="#397549"/>
</linearGradient>
<linearGradient id="paint18_linear_21_6014" x1="14.4179" y1="25.738" x2="21.9303" y2="20.904" gradientUnits="userSpaceOnUse">
<stop stop-color="#EAFF08"/>
<stop offset="1" stop-color="#FFA207"/>
</linearGradient>
<linearGradient id="paint19_linear_21_6014" x1="20.0302" y1="18.3679" x2="17.5316" y2="24.292" gradientUnits="userSpaceOnUse">
<stop stop-color="#EAFF08"/>
<stop offset="1" stop-color="#FFA207"/>
</linearGradient>
<radialGradient id="paint20_radial_21_6014" cx="0" cy="0" r="1" gradientTransform="matrix(-1.24161 3.22669 2.69225 -0.602938 15.7188 18.9308)" gradientUnits="userSpaceOnUse">
<stop stop-color="#EAFF08"/>
<stop offset="1" stop-color="#FFA207"/>
</radialGradient>
<radialGradient id="paint21_radial_21_6014" cx="0" cy="0" r="1" gradientTransform="matrix(1.91408 0.534736 -1.28337 0.797533 16.3518 19.7055)" gradientUnits="userSpaceOnUse">
<stop stop-color="#EAFF08"/>
<stop offset="1" stop-color="#FFA207"/>
</radialGradient>
<radialGradient id="paint22_radial_21_6014" cx="0" cy="0" r="1" gradientUnits="userSpaceOnUse" gradientTransform="translate(16.2401 22.1064) rotate(35.583) scale(0.526529)">
<stop stop-color="#EAFF08"/>
<stop offset="1" stop-color="#FFA207"/>
</radialGradient>
<radialGradient id="paint23_radial_21_6014" cx="0" cy="0" r="1" gradientUnits="userSpaceOnUse" gradientTransform="translate(17.0127 21.0971) rotate(35.583) scale(0.526529)">
<stop stop-color="#EAFF08"/>
<stop offset="1" stop-color="#FFA207"/>
</radialGradient>
<radialGradient id="paint24_radial_21_6014" cx="0" cy="0" r="1" gradientUnits="userSpaceOnUse" gradientTransform="translate(18.2962 19.8388) rotate(35.583) scale(0.526529)">
<stop stop-color="#EAFF08"/>
<stop offset="1" stop-color="#FFA207"/>
</radialGradient>
<radialGradient id="paint25_radial_21_6014" cx="0" cy="0" r="1" gradientUnits="userSpaceOnUse" gradientTransform="translate(15.48 21.8447) rotate(35.583) scale(0.526529)">
<stop stop-color="#EAFF08"/>
<stop offset="1" stop-color="#FFA207"/>
</radialGradient>
<radialGradient id="paint26_radial_21_6014" cx="0" cy="0" r="1" gradientUnits="userSpaceOnUse" gradientTransform="translate(16.0035 20.3246) rotate(35.583) scale(0.526529)">
<stop stop-color="#EAFF08"/>
<stop offset="1" stop-color="#FFA207"/>
</radialGradient>
<radialGradient id="paint27_radial_21_6014" cx="0" cy="0" r="1" gradientUnits="userSpaceOnUse" gradientTransform="translate(17.7979 18.8168) rotate(35.583) scale(0.526529)">
<stop stop-color="#EAFF08"/>
<stop offset="1" stop-color="#FFA207"/>
</radialGradient>
<radialGradient id="paint28_radial_21_6014" cx="0" cy="0" r="1" gradientUnits="userSpaceOnUse" gradientTransform="translate(17.0253 19.8261) rotate(35.583) scale(0.526529)">
<stop stop-color="#EAFF08"/>
<stop offset="1" stop-color="#FFA207"/>
</radialGradient>
<radialGradient id="paint29_radial_21_6014" cx="0" cy="0" r="1" gradientUnits="userSpaceOnUse" gradientTransform="translate(15.7417 21.0844) rotate(35.583) scale(0.526529)">
<stop stop-color="#EAFF08"/>
<stop offset="1" stop-color="#FFA207"/>
</radialGradient>
<linearGradient id="paint30_linear_21_6014" x1="31.8576" y1="15.7887" x2="22.6646" y2="29.4292" gradientUnits="userSpaceOnUse">
<stop stop-color="#9DEE8B"/>
<stop offset="0.372317" stop-color="#0DCB3A"/>
<stop offset="1" stop-color="#00C733"/>
<stop offset="1" stop-color="#00C733"/>
</linearGradient>
<linearGradient id="paint31_linear_21_6014" x1="32.5609" y1="16.03" x2="23.4466" y2="28.5019" gradientUnits="userSpaceOnUse">
<stop stop-color="#509B3F"/>
<stop offset="1" stop-color="#397549"/>
</linearGradient>
<linearGradient id="paint32_linear_21_6014" x1="24.6641" y1="19.096" x2="26.2082" y2="31.9471" gradientUnits="userSpaceOnUse">
<stop stop-color="#9DEE8B"/>
<stop offset="0.372317" stop-color="#0DCB3A"/>
<stop offset="1" stop-color="#00C733"/>
<stop offset="1" stop-color="#00C733"/>
</linearGradient>
<linearGradient id="paint33_linear_21_6014" x1="23.991" y1="19.056" x2="25.8562" y2="31.1278" gradientUnits="userSpaceOnUse">
<stop stop-color="#509B3F"/>
<stop offset="1" stop-color="#397549"/>
</linearGradient>
</defs>
</svg>
