<svg width="48" height="48" viewBox="0 0 48 48" fill="none" xmlns="http://www.w3.org/2000/svg">
<path d="M46.7133 32.4383C47.481 32.8771 48.1391 29.148 47.9746 34.0835C47.9746 34.7416 47.5907 35.3996 46.7681 35.8932L27.081 47.2997C25.4358 48.2319 22.7487 48.2319 21.1035 47.2997L1.30671 35.8932C0.48413 35.3996 0.100256 34.7964 0.0454175 34.1384C-0.173938 28.7641 0.429288 32.8771 1.25187 32.3835L20.939 20.977C22.5842 20.0448 25.2713 20.0448 26.9164 20.977L46.7133 32.4383Z" fill="url(#paint0_linear_21_1760)"/>
<g filter="url(#filter0_i_21_1760)">
<path d="M46.7129 29.9709C48.358 30.9032 48.358 32.4935 46.7129 33.4258L27.0257 44.8322C25.3805 45.7645 22.6934 45.7645 21.0483 44.8322L1.25145 33.4258C-0.393713 32.4935 -0.393713 30.9032 1.25145 29.9709L20.9386 18.5644C22.5838 17.6322 25.2709 17.6322 26.916 18.5644L46.7129 29.9709Z" fill="url(#paint1_linear_21_1760)"/>
</g>
<path d="M27.4225 24.1043C28.1447 23.7833 27.9842 22.9808 27.262 22.74C26.0582 22.3388 24.5335 21.9375 24.1323 21.8573C23.6508 21.6968 21.8051 22.4993 20.7618 22.9808C20.2804 23.2215 20.1199 23.6228 20.3606 24.024C20.6816 24.4252 23.089 24.1043 24.4533 24.345C26.0582 24.5857 26.1385 24.666 27.4225 24.1043Z" fill="url(#paint2_linear_21_1760)"/>
<mask id="mask0_21_1760" style="mask-type:alpha" maskUnits="userSpaceOnUse" x="0" y="18" width="48" height="28">
<path d="M46.6953 30.1921C48.3404 31.1244 48.3404 32.7147 46.6953 33.6469L27.0081 45.0534C25.363 45.9857 22.6759 45.9857 21.0307 45.0534L1.23387 33.6469C-0.411291 32.7147 -0.411291 31.1244 1.23387 30.1921L20.921 18.7856C22.5662 17.8534 25.2533 17.8534 26.8985 18.7856L46.6953 30.1921Z" fill="url(#paint3_linear_21_1760)"/>
</mask>
<g mask="url(#mask0_21_1760)">
<g opacity="0.6">
<path opacity="0.2" d="M4.0378 29.7103C4.67979 29.7103 5.16128 29.7905 5.72302 29.7905V29.7103C5.48228 29.63 5.32178 29.5498 5.08103 29.4695C4.5193 29.3893 3.95755 29.2288 3.39581 29.1485C3.07482 29.0683 2.75383 29.0683 2.35258 29.0683C2.11184 29.0683 1.79085 28.988 1.5501 28.9078C1.5501 28.9078 1.5501 28.9078 1.5501 28.8275C1.7106 28.7473 1.8711 28.7473 2.0316 28.667C2.19209 28.5868 2.1921 28.5065 1.8711 28.346C1.46986 28.1855 1.14887 28.1053 0.667378 28.025C0.10564 28.025 -0.456096 27.9448 -1.09808 27.8645C-1.25858 27.8645 -1.49933 27.7843 -1.74007 27.7041C-1.74007 27.7041 -1.74008 27.6238 -1.82032 27.6238C-1.57958 27.6238 -1.41908 27.6238 -1.17833 27.6238C-1.01784 27.6238 -0.937595 27.5436 -0.857347 27.5436C-0.937595 27.4633 -1.01784 27.3831 -1.17833 27.3831C-1.49933 27.2226 -1.90056 27.1423 -2.30181 27.1423C-2.70305 27.1423 -2.86355 27.0621 -2.7833 26.9016C-2.7833 26.8213 -2.7833 26.7411 -3.10429 26.6608C-3.66603 26.5806 -3.82653 26.3398 -4.06728 26.0991C-4.22778 25.9386 -4.38827 25.7781 -4.46852 25.6176C-4.54877 25.5373 -4.46851 25.4571 -4.30801 25.3769C-4.14752 25.2966 -3.98702 25.4571 -3.90677 25.5373C-3.82652 25.5373 -3.74629 25.6176 -3.66604 25.6176C-2.86355 25.8583 -2.38206 26.1793 -1.82032 26.5003C-1.74008 26.4201 -1.57958 26.3398 -1.41908 26.2596C-1.25859 26.4201 -1.17833 26.5806 -1.09808 26.7411C-0.937585 26.9818 -0.777091 26.9818 -0.536346 26.9016C-0.215353 26.8213 -0.215353 26.8213 0.266137 27.0621C0.346385 27.1423 0.426636 27.1423 0.506884 27.1423C0.747629 27.2226 0.908125 27.2226 0.908125 27.1423C0.908125 27.0621 0.827872 26.9818 0.827872 26.9016C1.55011 27.2226 2.35259 27.3831 2.67359 27.7843C2.75383 27.8645 2.75383 27.8645 2.83408 27.9448C2.91433 28.025 3.07482 28.025 3.15507 28.025C3.23532 28.025 3.23533 27.9448 3.31557 27.9448C3.31557 27.9448 3.31557 27.8645 3.23532 27.8645C2.91433 27.4633 2.91433 27.4633 3.79706 27.7041C4.67979 27.8645 5.00079 28.1855 5.32178 28.5065C5.48228 28.667 5.64277 28.8275 5.80326 28.988C5.88351 28.988 5.88351 28.988 5.96376 28.988C6.04401 28.8275 6.12426 28.667 6.28476 28.5065C6.44526 28.5868 6.5255 28.667 6.60575 28.667C7.40823 29.2288 8.29097 29.7905 9.09345 30.4325C9.25395 30.593 9.41444 30.6732 9.49469 30.8337C9.57494 30.914 9.49469 30.9942 9.41444 30.9942C9.33419 30.9942 9.09345 30.9942 8.93295 30.914C8.21072 30.593 7.48848 30.4325 6.686 30.3522C5.80327 30.1917 5.00079 29.951 4.27855 29.7103C4.27855 29.8708 4.1983 29.7905 4.0378 29.7103Z" fill="black"/>
</g>
</g>
<g filter="url(#filter1_i_21_1760)">
<path d="M15.1931 27.8647C14.5511 27.945 13.9894 27.945 13.5079 28.0252C13.5079 27.945 13.4276 27.945 13.4276 27.8647C13.5881 27.7042 13.6684 27.5437 13.9091 27.4635C14.3906 27.2228 14.9524 27.0623 15.4338 26.8215C15.7548 26.7413 16.0758 26.661 16.3968 26.5808C16.6376 26.5005 16.8783 26.34 17.1191 26.2598C17.1191 26.1795 17.1191 26.1795 17.0388 26.0993C16.7981 26.019 16.6376 25.8585 16.3968 25.7783C16.1561 25.6178 16.0758 25.4573 16.2363 25.1363C16.4771 24.7351 16.7178 24.5746 17.1993 24.4943C17.761 24.4943 18.3228 24.3338 18.8845 24.2536C19.045 24.2536 19.2055 24.0931 19.366 23.9326C19.366 23.8523 19.366 23.8523 19.366 23.7721C19.1253 23.7721 18.8845 23.7721 18.6438 23.7721C18.4833 23.7721 18.403 23.6918 18.2425 23.6116C18.3228 23.4511 18.3228 23.3708 18.403 23.2103C18.6438 22.8893 18.8845 22.6486 19.2858 22.6486C19.687 22.6486 19.7673 22.4881 19.5265 22.1671C19.366 21.9264 19.366 21.8461 19.6068 21.6856C20.0882 21.4449 20.008 20.9634 20.0882 20.4819C20.1685 20.1609 20.1685 19.8399 20.0882 19.5189C20.0882 19.3584 19.8475 19.1177 19.687 19.0374C19.4463 18.9572 19.4463 19.1979 19.366 19.3584C19.366 19.4387 19.2858 19.5189 19.2858 19.5992C18.6438 20.0807 18.403 20.7226 18.2425 21.5251C18.0018 21.3646 17.8413 21.2041 17.6005 20.9634C17.6005 21.3646 17.6808 21.6054 17.6808 21.9264C17.6808 22.4079 17.6005 22.4079 17.1993 22.2474C16.7178 22.0066 16.7178 22.0066 16.4771 22.4881C16.3968 22.5684 16.3968 22.6486 16.3166 22.7288C16.1561 22.9696 15.9956 22.9696 15.9153 22.6486C15.8351 22.4881 15.8351 22.4079 15.7548 22.1671C15.2734 22.7288 14.6314 23.2103 14.7116 24.0128C14.7116 24.0931 14.7116 24.2536 14.7116 24.3338C14.6314 24.4141 14.5511 24.4943 14.4709 24.4943C14.3906 24.4943 14.3104 24.4141 14.2301 24.3338C14.2301 24.3338 14.2301 24.2536 14.2301 24.1733C14.1499 23.3708 14.1499 23.3708 13.4276 23.7721C12.7054 24.1733 12.7054 24.8153 12.6252 25.5375C12.6252 25.8585 12.6252 26.1795 12.5449 26.5005C12.4647 26.5005 12.4647 26.5005 12.3844 26.5808C12.1437 26.2598 11.9029 25.9388 11.5819 25.6178C11.5017 25.7783 11.4214 25.8585 11.4214 25.9388C11.1004 27.1425 10.8597 28.4265 10.5387 29.6302C10.4585 29.8709 10.4585 30.1919 10.5387 30.5129C10.5387 30.6734 10.6992 30.8339 10.7794 30.9142C10.8597 30.9142 11.1004 30.8339 11.1807 30.7537C11.5819 30.0314 12.3042 29.7907 12.9462 29.4697C13.6684 29.1487 14.3104 28.6672 14.9524 28.1055C15.0326 28.1857 15.1128 28.0252 15.1931 27.8647Z" fill="url(#paint4_linear_21_1760)"/>
</g>
<g filter="url(#filter2_i_21_1760)">
<path d="M8.46347 25.5681C8.86471 25.9693 9.26595 26.2903 9.66719 26.6915C9.74744 26.6915 9.74745 26.6113 9.8277 26.6113C9.8277 26.4508 9.82769 26.21 9.74744 26.0495C9.5067 25.5681 9.26595 25.1668 8.94496 24.6853C8.78446 24.4446 8.54372 24.2038 8.38322 23.9631C8.22273 23.7223 8.14247 23.4816 8.06222 23.2409L8.14248 23.1606C8.38322 23.2409 8.62397 23.2409 8.78447 23.3211C9.10546 23.4014 9.1857 23.2409 9.26595 23.0001C9.3462 22.5989 9.26595 22.2779 8.86471 21.9569C8.46347 21.5556 8.14248 21.1544 7.74124 20.7532C7.66099 20.5927 7.58074 20.4322 7.50049 20.2717L7.58074 20.1914C7.74124 20.3519 7.90173 20.4322 8.14248 20.5927C8.22273 20.6729 8.38322 20.6729 8.54372 20.7532C8.54372 20.6729 8.62397 20.5124 8.62397 20.4322C8.62397 20.0309 8.62396 19.7099 8.30297 19.4692C7.98198 19.2284 7.98198 19.0679 8.38322 18.9074C8.62397 18.8272 8.70422 18.747 8.62397 18.5062C8.46348 18.0247 8.78446 17.7037 8.94496 17.3827C9.10546 17.142 9.26595 16.9012 9.5067 16.6605C9.66719 16.5802 9.90793 16.5 10.0684 16.5C10.3092 16.5802 10.1487 16.7407 10.1487 16.9012C10.1487 16.9815 10.0684 17.0617 10.0684 17.142C10.2289 17.8642 10.0684 18.5062 9.74744 19.1482C9.98819 19.1482 10.2289 19.1482 10.5499 19.1482C10.3092 19.3889 10.1487 19.6297 9.90794 19.7902C9.66719 20.1112 9.66719 20.1914 10.0684 20.2717C10.5499 20.4322 10.5499 20.4322 10.4697 20.9137C10.4697 20.9939 10.4697 21.0742 10.3894 21.1544C10.3894 21.3951 10.4697 21.4754 10.7104 21.3951C10.7907 21.3149 10.9512 21.2346 11.1117 21.1544C11.1117 21.8766 11.2722 22.5989 10.7907 23.1606C10.7104 23.2409 10.6302 23.3211 10.6302 23.4014C10.6302 23.4816 10.6302 23.6421 10.7104 23.7223C10.7907 23.8026 10.8709 23.7223 10.9512 23.7223C11.0314 23.7223 11.0314 23.6421 11.0314 23.6421C11.5932 23.0804 11.5932 23.0804 11.8339 23.8026C12.0746 24.5248 11.7537 25.0063 11.3524 25.5681C11.1919 25.8088 11.0314 26.0495 10.7907 26.2903C10.7907 26.3705 10.8709 26.3705 10.8709 26.4508C11.2722 26.3705 11.5931 26.2903 12.0746 26.21C11.9944 26.3705 11.9944 26.4508 11.9944 26.531C11.5129 27.5743 10.9512 28.6977 10.4697 29.741C10.3894 29.9817 10.1487 30.2225 9.98819 30.383C9.90794 30.4632 9.6672 30.5435 9.58695 30.4632C9.5067 30.383 9.3462 30.2225 9.3462 30.1422C9.5067 29.42 9.10546 28.778 8.78447 28.2163C8.38322 27.5743 8.22273 26.852 8.14248 26.0495C8.38322 25.8088 8.38322 25.7286 8.46347 25.5681Z" fill="url(#paint5_linear_21_1760)"/>
</g>
<g filter="url(#filter3_i_21_1760)">
<path d="M5.15943 27.8647C5.80141 27.945 6.36316 27.945 6.84465 28.0252C6.84465 27.945 6.9249 27.945 6.9249 27.8647C6.7644 27.7042 6.68415 27.5437 6.4434 27.4635C5.96191 27.2228 5.40018 27.0623 4.91869 26.8215C4.5977 26.7413 4.2767 26.661 3.9557 26.5808C3.71496 26.5005 3.47422 26.34 3.23347 26.2598C3.23347 26.1795 3.23348 26.1795 3.31373 26.0993C3.55447 26.019 3.71496 25.8585 3.9557 25.7783C4.19645 25.6178 4.27671 25.4573 4.11621 25.1363C3.87546 24.7351 3.63471 24.5746 3.15322 24.4943C2.59148 24.4943 2.02975 24.3338 1.46801 24.2536C1.30752 24.2536 1.14701 24.0931 0.986518 23.9326C0.986518 23.8523 0.986518 23.8523 0.986518 23.7721C1.22726 23.7721 1.46801 23.7721 1.70876 23.7721C1.86926 23.7721 1.9495 23.6918 2.11 23.6116C2.02975 23.4511 2.02974 23.3708 1.94949 23.2103C1.70875 22.8893 1.46801 22.6486 1.06677 22.6486C0.665529 22.6486 0.585279 22.4881 0.826023 22.1671C0.98652 21.9264 0.986515 21.8461 0.74577 21.6856C0.26428 21.4449 0.344536 20.9634 0.264288 20.4819C0.184039 20.1609 0.184039 19.8399 0.264288 19.5189C0.264288 19.3584 0.505033 19.1177 0.665529 19.0374C0.906274 18.9572 0.906269 19.1979 0.986518 19.3584C0.986518 19.4387 1.06677 19.5189 1.06677 19.5992C1.70876 20.0807 1.9495 20.7226 2.11 21.5251C2.35075 21.3646 2.51123 21.2041 2.75198 20.9634C2.75198 21.3646 2.67174 21.6054 2.67174 21.9264C2.67174 22.4079 2.75198 22.4079 3.15322 22.2474C3.63471 22.0066 3.63472 22.0066 3.87546 22.4881C3.95571 22.5684 3.95571 22.6486 4.03596 22.7288C4.19645 22.9696 4.35695 22.9696 4.4372 22.6486C4.51745 22.4881 4.51744 22.4079 4.59769 22.1671C5.07918 22.7288 5.72117 23.2103 5.64092 24.0128C5.64092 24.0931 5.64092 24.2536 5.64092 24.3338C5.72117 24.4141 5.80142 24.4943 5.88167 24.4943C5.96192 24.4943 6.04217 24.4141 6.12242 24.3338C6.12242 24.3338 6.12242 24.2536 6.12242 24.1733C6.20266 23.3708 6.20266 23.3708 6.9249 23.7721C7.64713 24.1733 7.64713 24.8153 7.72738 25.5375C7.72738 25.8585 7.72738 26.1795 7.80762 26.5005C7.88787 26.5005 7.88787 26.5005 7.96812 26.5808C8.20886 26.2598 8.44961 25.9388 8.7706 25.6178C8.85085 25.7783 8.93111 25.8585 8.93111 25.9388C9.2521 27.1425 9.49284 28.4265 9.81383 29.6302C9.89408 29.8709 9.89408 30.1919 9.81383 30.5129C9.81383 30.6734 9.65333 30.8339 9.57308 30.9142C9.49284 30.9142 9.25209 30.8339 9.17184 30.7537C8.7706 30.0314 8.04837 29.7907 7.40638 29.4697C6.68415 29.1487 6.04216 28.6672 5.40017 28.1055C5.23968 28.1857 5.23968 28.0252 5.15943 27.8647Z" fill="url(#paint6_linear_21_1760)"/>
</g>
<path d="M9.99057 29.8213C9.99057 29.8213 10.7128 27.4138 10.3116 24.5249C9.91032 21.636 9.02759 21.3952 9.42884 17.3828" stroke="#A6C989" stroke-width="0.2" stroke-miterlimit="10" stroke-linecap="round" stroke-linejoin="round"/>
<path d="M10.9365 30.3523C10.9365 30.3523 11.3378 28.9881 13.1835 26.6609C15.0292 24.414 17.8379 24.0127 19.5231 20.3213" stroke="#A6C989" stroke-width="0.2" stroke-miterlimit="10" stroke-linecap="round" stroke-linejoin="round"/>
<path d="M9.41127 30.3523C9.41127 30.3523 9.01003 28.9881 7.16432 26.6609C5.31861 24.414 2.50992 24.0127 0.824707 20.3213" stroke="#A6C989" stroke-width="0.2" stroke-miterlimit="10" stroke-linecap="round" stroke-linejoin="round"/>
<path d="M13.7467 32.1174C14.4689 31.7964 14.3084 30.994 13.5862 30.7532C12.3824 30.352 10.8577 29.9507 10.4565 29.8705C9.975 29.71 8.12929 30.5125 7.08607 30.994C6.60458 31.2347 6.44408 31.6359 6.68482 32.0372C7.00582 32.4384 9.41326 32.1174 10.7775 32.3582C12.3824 32.5989 12.4627 32.6792 13.7467 32.1174Z" fill="url(#paint7_linear_21_1760)"/>
<g opacity="0.6">
<path opacity="0.2" d="M31.7878 29.6958C32.4298 29.6958 32.9113 29.7902 33.473 29.7902V29.6958C33.2323 29.6013 33.0718 29.5069 32.831 29.4124C32.2693 29.318 31.7076 29.1291 31.1458 29.0346C30.8248 28.9402 30.5038 28.9402 30.1026 28.9402C29.8618 28.9402 29.5408 28.8457 29.3001 28.7513C29.3001 28.7513 29.3001 28.7513 29.3001 28.6568C29.4606 28.5624 29.6211 28.5624 29.7816 28.4679C29.9421 28.3735 29.9421 28.279 29.6211 28.0902C29.2199 27.9013 28.8989 27.8068 28.4174 27.7124C27.8556 27.7124 27.2939 27.6179 26.6519 27.5235C26.4914 27.5235 26.2507 27.429 26.0099 27.3346C26.0099 27.3346 26.0099 27.2401 25.9297 27.2401C26.1704 27.2401 26.3309 27.2401 26.5717 27.2401C26.7322 27.2401 26.8124 27.1457 26.8927 27.1457C26.8124 27.0512 26.7322 26.9568 26.5717 26.9568C26.2507 26.7679 25.8494 26.6734 25.4482 26.6734C25.047 26.6734 24.8865 26.579 24.9667 26.3901C24.9667 26.2956 24.9667 26.2012 24.6457 26.1067C24.084 26.0123 23.9235 25.7289 23.6827 25.4456C23.5222 25.2567 23.3617 25.0678 23.2815 24.8789C23.2012 24.7845 23.2815 24.69 23.442 24.5956C23.6025 24.5011 23.763 24.69 23.8432 24.7845C23.9235 24.7845 24.0037 24.8789 24.084 24.8789C24.8864 25.1623 25.3679 25.54 25.9297 25.9178C26.0099 25.8234 26.1704 25.7289 26.3309 25.6345C26.4914 25.8234 26.5717 26.0123 26.6519 26.2012C26.8124 26.4845 26.9729 26.4845 27.2137 26.3901C27.5346 26.2956 27.5346 26.2956 28.0161 26.579C28.0964 26.6734 28.1766 26.6734 28.2569 26.6734C28.4976 26.7679 28.6581 26.7679 28.6581 26.6734C28.6581 26.579 28.5779 26.4845 28.5779 26.3901C29.3001 26.7679 30.1026 26.9568 30.4236 27.429C30.5038 27.5235 30.5038 27.5235 30.5841 27.6179C30.6643 27.7124 30.8248 27.7124 30.9051 27.7124C30.9853 27.7124 30.9853 27.6179 31.0656 27.6179C31.0656 27.6179 31.0656 27.5235 30.9853 27.5235C30.6643 27.0512 30.6643 27.0512 31.5471 27.3346C32.4298 27.5235 32.7508 27.9013 33.0718 28.279C33.2323 28.4679 33.3928 28.6568 33.5533 28.8457C33.6335 28.8457 33.6335 28.8457 33.7138 28.8457C33.794 28.6568 33.8743 28.4679 34.0348 28.279C34.1953 28.3735 34.2755 28.4679 34.3557 28.4679C35.1582 29.1291 36.041 29.7902 36.8434 30.5458C37.0039 30.7347 37.1644 30.8291 37.2447 31.018C37.3249 31.1125 37.2447 31.2069 37.1644 31.2069C37.0842 31.2069 36.8435 31.2069 36.683 31.1125C35.9607 30.7347 35.2385 30.5458 34.436 30.4514C33.5533 30.2625 32.7508 29.9791 32.0286 29.6958C32.0286 29.8847 31.9483 29.7902 31.7878 29.6958Z" fill="black"/>
</g>
<g filter="url(#filter4_i_21_1760)">
<path d="M42.9441 27.5238C42.3021 27.6182 41.7404 27.6182 41.2589 27.7127C41.2589 27.6182 41.1786 27.6182 41.1786 27.5238C41.3391 27.3349 41.4194 27.146 41.6601 27.0515C42.1416 26.7682 42.7033 26.5793 43.1848 26.296C43.5058 26.2015 43.8268 26.1071 44.1478 26.0126C44.3885 25.9182 44.6293 25.7293 44.87 25.6348C44.87 25.5404 44.87 25.5404 44.7898 25.4459C44.549 25.3515 44.3885 25.1626 44.1478 25.0681C43.907 24.8792 43.8268 24.6903 43.9873 24.3126C44.228 23.8403 44.4688 23.6514 44.9503 23.557C45.512 23.557 46.0738 23.3681 46.6355 23.2736C46.796 23.2736 46.9565 23.0847 47.117 22.8958C47.117 22.8014 47.117 22.8014 47.117 22.7069C46.8762 22.7069 46.6355 22.7069 46.3947 22.7069C46.2343 22.7069 46.154 22.6125 45.9935 22.518C46.0738 22.3291 46.0738 22.2347 46.154 22.0458C46.3947 21.668 46.6355 21.3847 47.0367 21.3847C47.438 21.3847 47.5182 21.1958 47.2775 20.818C47.117 20.5346 47.117 20.4402 47.3577 20.2513C47.8392 19.9679 47.759 19.4012 47.8392 18.8346C47.9195 18.4568 47.9195 18.079 47.8392 17.7012C47.8392 17.5123 47.5985 17.2289 47.438 17.1345C47.1972 17.04 47.1972 17.3234 47.117 17.5123C47.117 17.6067 47.0367 17.7012 47.0367 17.7956C46.3948 18.3623 46.154 19.1179 45.9935 20.0624C45.7528 19.8735 45.5923 19.6846 45.3515 19.4012C45.3515 19.8735 45.4318 20.1568 45.4318 20.5346C45.4318 21.1013 45.3515 21.1013 44.9503 20.9124C44.4688 20.6291 44.4688 20.6291 44.228 21.1958C44.1478 21.2902 44.1478 21.3847 44.0676 21.4791C43.9071 21.7624 43.7466 21.7624 43.6663 21.3847C43.5861 21.1958 43.5861 21.1013 43.5058 20.818C43.0243 21.4791 42.3823 22.0458 42.4626 22.9903C42.4626 23.0847 42.4626 23.2736 42.4626 23.3681C42.3823 23.4625 42.3021 23.557 42.2218 23.557C42.1416 23.557 42.0613 23.4625 41.9811 23.3681C41.9811 23.3681 41.9811 23.2736 41.9811 23.1792C41.9008 22.2347 41.9008 22.2347 41.1786 22.7069C40.4564 23.1792 40.4564 23.9348 40.3761 24.7848C40.3761 25.1626 40.3761 25.5404 40.2959 25.9182C40.2156 25.9182 40.2156 25.9182 40.1354 26.0126C39.8946 25.6348 39.6539 25.257 39.3329 24.8792C39.2526 25.0681 39.1724 25.1626 39.1724 25.257C38.8514 26.6738 38.6107 28.1849 38.2897 29.6017C38.2094 29.885 38.2094 30.2628 38.2897 30.6406C38.2897 30.8295 38.4502 31.0184 38.5304 31.1128C38.6107 31.1128 38.8514 31.0184 38.9317 30.9239C39.3329 30.0739 40.0551 29.7906 40.6971 29.4128C41.4194 29.035 42.0613 28.4683 42.7033 27.8071C42.7836 27.9016 42.8638 27.7127 42.9441 27.5238Z" fill="url(#paint8_linear_21_1760)"/>
</g>
<g filter="url(#filter5_i_21_1760)">
<path d="M36.2144 23.5091C36.6157 23.9813 37.0169 24.3591 37.4182 24.8314C37.4984 24.8314 37.4984 24.7369 37.5787 24.7369C37.5787 24.548 37.5787 24.2647 37.4984 24.0758C37.2577 23.5091 37.0169 23.0368 36.6959 22.4701C36.5354 22.1868 36.2947 21.9035 36.1342 21.6201C35.9737 21.3368 35.8934 21.0534 35.8132 20.7701L35.8935 20.6756C36.1342 20.7701 36.3749 20.7701 36.5354 20.8645C36.8564 20.959 36.9367 20.7701 37.0169 20.4867C37.0972 20.0145 37.0169 19.6367 36.6157 19.2589C36.2144 18.7867 35.8935 18.3144 35.4922 17.8422C35.412 17.6533 35.3317 17.4644 35.2515 17.2755L35.3317 17.181C35.4922 17.3699 35.6527 17.4644 35.8935 17.6533C35.9737 17.7477 36.1342 17.7477 36.2947 17.8422C36.2947 17.7477 36.3749 17.5588 36.3749 17.4644C36.3749 16.9921 36.3749 16.6144 36.0539 16.331C35.733 16.0477 35.733 15.8588 36.1342 15.6699C36.3749 15.5754 36.4552 15.481 36.3749 15.1976C36.2145 14.6309 36.5354 14.2531 36.6959 13.8754C36.8564 13.592 37.0169 13.3087 37.2577 13.0253C37.4182 12.9309 37.6589 12.8364 37.8194 12.8364C38.0602 12.9309 37.8997 13.1198 37.8997 13.3087C37.8997 13.4031 37.8194 13.4976 37.8194 13.592C37.9799 14.442 37.8194 15.1976 37.4984 15.9532C37.7392 15.9532 37.9799 15.9532 38.3009 15.9532C38.0602 16.2366 37.8997 16.5199 37.6589 16.7088C37.4182 17.0866 37.4182 17.181 37.8194 17.2755C38.3009 17.4644 38.3009 17.4644 38.2206 18.0311C38.2206 18.1255 38.2207 18.22 38.1404 18.3144C38.1404 18.5978 38.2207 18.6922 38.4614 18.5978C38.5416 18.5033 38.7021 18.4089 38.8626 18.3144C38.8626 19.1645 39.0231 20.0145 38.5416 20.6756C38.4614 20.7701 38.3812 20.8645 38.3812 20.959C38.3812 21.0534 38.3811 21.2423 38.4614 21.3368C38.5416 21.4312 38.6219 21.3368 38.7021 21.3368C38.7824 21.3368 38.7824 21.2423 38.7824 21.2423C39.3441 20.5812 39.3441 20.5812 39.5849 21.4312C39.8256 22.2813 39.5046 22.8479 39.1034 23.5091C38.9429 23.7924 38.7824 24.0758 38.5416 24.3591C38.5416 24.4536 38.6219 24.4536 38.6219 24.548C39.0231 24.4536 39.3441 24.3591 39.8256 24.2647C39.7454 24.4536 39.7454 24.548 39.7454 24.6425C39.2639 25.8703 38.7021 27.1926 38.2206 28.4204C38.1404 28.7037 37.8997 28.9871 37.7392 29.176C37.6589 29.2704 37.4182 29.3649 37.3379 29.2704C37.2577 29.176 37.0972 28.9871 37.0972 28.8926C37.2577 28.0426 36.8564 27.287 36.5354 26.6259C36.1342 25.8703 35.9737 25.0202 35.8935 24.0758C36.1342 23.7924 36.1342 23.698 36.2144 23.5091Z" fill="url(#paint9_linear_21_1760)"/>
</g>
<g filter="url(#filter6_i_21_1760)">
<path d="M32.9104 27.5238C33.5524 27.6182 34.1141 27.6182 34.5956 27.7127C34.5956 27.6182 34.6759 27.6182 34.6759 27.5238C34.5154 27.3349 34.4351 27.146 34.1944 27.0515C33.7129 26.7682 33.1512 26.5793 32.6697 26.296C32.3487 26.2015 32.0277 26.1071 31.7067 26.0126C31.4659 25.9182 31.2252 25.7293 30.9844 25.6348C30.9844 25.5404 30.9845 25.5404 31.0647 25.4459C31.3054 25.3515 31.4659 25.1626 31.7067 25.0681C31.9474 24.8792 32.0277 24.6903 31.8672 24.3126C31.6264 23.8403 31.3857 23.6514 30.9042 23.557C30.3425 23.557 29.7807 23.3681 29.219 23.2736C29.0585 23.2736 28.898 23.0847 28.7375 22.8958C28.7375 22.8014 28.7375 22.8014 28.7375 22.7069C28.9782 22.7069 29.219 22.7069 29.4597 22.7069C29.6202 22.7069 29.7005 22.6125 29.861 22.518C29.7807 22.3291 29.7807 22.2347 29.7005 22.0458C29.4597 21.668 29.219 21.3847 28.8177 21.3847C28.4165 21.3847 28.3363 21.1958 28.577 20.818C28.7375 20.5346 28.7375 20.4402 28.4967 20.2513C28.0153 19.9679 28.0955 19.4012 28.0153 18.8346C27.935 18.4568 27.935 18.079 28.0153 17.7012C28.0153 17.5123 28.256 17.2289 28.4165 17.1345C28.6573 17.04 28.6572 17.3234 28.7375 17.5123C28.7375 17.6067 28.8177 17.7012 28.8177 17.7956C29.4597 18.3623 29.7005 19.1179 29.861 20.0624C30.1017 19.8735 30.2622 19.6846 30.503 19.4012C30.503 19.8735 30.4227 20.1568 30.4227 20.5346C30.4227 21.1013 30.503 21.1013 30.9042 20.9124C31.3857 20.6291 31.3857 20.6291 31.6264 21.1958C31.7067 21.2902 31.7067 21.3847 31.7869 21.4791C31.9474 21.7624 32.1079 21.7624 32.1882 21.3847C32.2684 21.1958 32.2684 21.1013 32.3487 20.818C32.8302 21.4791 33.4721 22.0458 33.3919 22.9903C33.3919 23.0847 33.3919 23.2736 33.3919 23.3681C33.4721 23.4625 33.5524 23.557 33.6326 23.557C33.7129 23.557 33.7931 23.4625 33.8734 23.3681C33.8734 23.3681 33.8734 23.2736 33.8734 23.1792C33.9536 22.2347 33.9536 22.2347 34.6759 22.7069C35.3981 23.1792 35.3981 23.9348 35.4784 24.7848C35.4784 25.1626 35.4784 25.5404 35.5586 25.9182C35.6388 25.9182 35.6388 25.9182 35.7191 26.0126C35.9598 25.6348 36.2006 25.257 36.5216 24.8792C36.6018 25.0681 36.6821 25.1626 36.6821 25.257C37.0031 26.6738 37.2438 28.1849 37.5648 29.6017C37.6451 29.885 37.6451 30.2628 37.5648 30.6406C37.5648 30.8295 37.4043 31.0184 37.3241 31.1128C37.2438 31.1128 37.0031 31.0184 36.9228 30.9239C36.5216 30.0739 35.7993 29.7906 35.1574 29.4128C34.4351 29.035 33.7931 28.4683 33.1512 27.8071C32.9907 27.9016 32.9907 27.7127 32.9104 27.5238Z" fill="url(#paint10_linear_21_1760)"/>
</g>
<path d="M38.25 30.1388C38.25 30.1388 42.9807 17.1295 38.723 9.83643" stroke="#275F3D" stroke-width="0.5" stroke-miterlimit="10" stroke-linecap="round" stroke-linejoin="round"/>
<path d="M37.7406 28.5155C37.7406 28.5155 38.4628 25.682 38.0616 22.2819C37.6603 18.8817 36.7776 18.5984 37.1788 13.876" stroke="#A6C989" stroke-width="0.2" stroke-miterlimit="10" stroke-linecap="round" stroke-linejoin="round"/>
<path d="M38.6865 30.4515C38.6865 30.4515 39.0878 28.8459 40.9335 26.1069C42.7792 23.4624 45.5879 22.9901 47.2731 18.6455" stroke="#A6C989" stroke-width="0.2" stroke-miterlimit="10" stroke-linecap="round" stroke-linejoin="round"/>
<path d="M37.1627 30.4515C37.1627 30.4515 36.7615 28.8459 34.9158 26.1069C33.0701 23.4624 30.2614 22.9901 28.5762 18.6455" stroke="#A6C989" stroke-width="0.2" stroke-miterlimit="10" stroke-linecap="round" stroke-linejoin="round"/>
<path fill-rule="evenodd" clip-rule="evenodd" d="M36.8406 12.6142L36.0381 16.3859L38.3653 13.4167L39.1678 15.6637V13.4167L41.495 14.9414C41.495 14.9414 39.1678 12.6945 39.9702 12.6945C40.7727 12.6945 43.8222 12.6945 43.8222 12.6945L39.1678 11.25L36.8406 12.6142Z" fill="#275F3D"/>
<path d="M41.3438 9.02441C41.3438 9.10544 41.3432 9.18212 41.3525 9.24805C41.3621 9.31471 41.3806 9.36204 41.4092 9.39062L41.4941 9.47559H41.0459C41.0424 9.47535 41.037 9.47542 41.0312 9.47461C41.0269 9.47397 41.0221 9.47186 41.0166 9.4707C41.0268 9.48877 41.0379 9.50637 41.0469 9.52441C41.0778 9.58636 41.0995 9.65067 41.1016 9.73438L41.1445 9.93848C41.1523 9.9928 41.1544 10.0426 41.1406 10.084C41.1253 10.1298 41.0928 10.1605 41.0479 10.1777C41.0256 10.1862 40.9999 10.1902 40.9717 10.1934C41.0065 10.2593 41.0471 10.3378 41.0703 10.415C41.1028 10.5234 41.1066 10.6462 41.0078 10.7451C40.9717 10.7812 40.9223 10.7855 40.8809 10.7812C40.8385 10.7769 40.7912 10.7621 40.7461 10.7471C40.6988 10.7313 40.6539 10.7147 40.6084 10.7012C40.5843 10.694 40.5617 10.6883 40.541 10.6846V10.8643C40.5797 10.9823 40.602 11.0883 40.5908 11.1777C40.58 11.264 40.5371 11.3304 40.4609 11.3779V11.4463L40.4531 11.458C40.3937 11.5571 40.3475 11.6354 40.3066 11.6895C40.2671 11.7417 40.2236 11.7849 40.167 11.793C40.1097 11.8012 40.057 11.7703 40.0068 11.7305C39.9808 11.7098 39.9542 11.6814 39.9219 11.6504C39.9354 11.7639 39.9319 11.8561 39.9111 11.9316C39.8812 12.0398 39.8203 12.1109 39.7451 12.1572C39.6719 12.2023 39.5862 12.223 39.5088 12.2383C39.4275 12.2543 39.3589 12.2635 39.3027 12.2822C39.2358 12.3045 39.1771 12.3073 39.126 12.2861C39.0757 12.2653 39.041 12.2244 39.0137 12.1807C38.9867 12.1375 38.9629 12.0834 38.9375 12.0303C38.9218 11.9973 38.902 11.965 38.8828 11.9307C38.8447 11.9832 38.8018 12.0283 38.7607 12.0693C38.6998 12.1303 38.6453 12.185 38.6094 12.2568L38.6074 12.2607C38.3628 12.6683 38.1149 12.9184 37.7012 13.084L37.6914 13.0869H37.6826C37.6792 13.0869 37.6699 13.0894 37.6514 13.1035C37.6332 13.1174 37.6127 13.1373 37.5869 13.1631C37.5374 13.2126 37.472 13.2781 37.3838 13.3223C37.312 13.3582 37.2572 13.4127 37.1963 13.4736C37.1369 13.533 37.071 13.5992 36.9824 13.6436C36.942 13.6638 36.902 13.6817 36.8652 13.6895C36.8275 13.6973 36.785 13.6959 36.749 13.6689C36.7152 13.6434 36.6966 13.6019 36.6855 13.5537C36.6829 13.542 36.6817 13.5291 36.6797 13.5156C36.6618 13.5396 36.6448 13.5632 36.624 13.584C36.569 13.639 36.504 13.6821 36.4209 13.7236C36.3432 13.7625 36.2693 13.8185 36.1836 13.8721C36.1066 13.9202 36.0204 13.9637 35.9297 13.9678C35.9066 13.978 35.8828 13.9839 35.8584 13.9814C35.8302 13.9786 35.8066 13.9658 35.7881 13.9482C35.754 13.9158 35.7339 13.8639 35.7188 13.8135C35.703 13.7611 35.6893 13.6982 35.6758 13.6367C35.6692 13.6067 35.6597 13.5773 35.6523 13.5479C35.4279 13.832 35.1835 14.0498 34.793 14.0498C34.7121 14.0498 34.6132 14.0506 34.5176 13.9551L34.5029 13.9404V13.5908L34.5049 13.583C34.5463 13.4588 34.6082 13.3354 34.668 13.2158C34.7175 13.1167 34.7627 13.0185 34.7998 12.9229C34.6211 12.9188 34.4438 12.9043 34.2764 12.8867C34.0848 12.8665 33.9073 12.8467 33.75 12.8467H33.7002V12.6982L33.7109 12.6846C33.8758 12.4785 34.0608 12.3346 34.2529 12.2031C34.4349 12.0787 34.6183 11.9661 34.8047 11.8213C34.5016 11.4106 34.5079 10.9276 34.666 10.4531V10.4502H34.667C34.7077 10.3485 34.7495 10.2645 34.7939 10.2012C34.8381 10.1383 34.8885 10.0902 34.9482 10.0703C35.0105 10.0497 35.0732 10.0626 35.1338 10.0996C35.1918 10.135 35.2502 10.1938 35.3105 10.2734L35.3975 10.3604C35.4059 10.3219 35.4172 10.2886 35.4287 10.2598C35.4397 10.2323 35.449 10.2134 35.4561 10.1934C35.4627 10.1745 35.4658 10.1603 35.4658 10.1484C35.4658 9.73365 35.6318 9.39918 35.9619 9.14941C36.0222 9.0891 36.076 9.04069 36.126 9.00879C36.1766 8.97653 36.2285 8.95788 36.2842 8.96484C36.3389 8.97172 36.388 9.00241 36.4365 9.04688C36.4852 9.09152 36.5381 9.15467 36.5986 9.23535L36.6045 9.24121C36.7146 8.6417 37.1102 8.32653 37.4902 8.02246L37.499 8.01562C37.5386 7.99584 37.5817 7.97597 37.623 7.95996C37.6642 7.94406 37.7082 7.93172 37.752 7.93164C37.7975 7.93164 37.8428 7.94463 37.8818 7.97852C37.918 8.00993 37.9454 8.05655 37.9668 8.11719C38.0114 8.1675 38.032 8.23437 38.042 8.29395C38.0453 8.31352 38.0433 8.33374 38.0449 8.35254C38.1827 8.21647 38.3304 8.07725 38.5371 7.93945C38.6602 7.81809 38.8254 7.69804 38.9688 7.61133L39.1045 7.53516C39.1658 7.49508 39.2228 7.47096 39.2754 7.46777C39.333 7.46429 39.381 7.48632 39.416 7.52832C39.4488 7.56774 39.4685 7.62247 39.4805 7.68359C39.4926 7.7456 39.498 7.81943 39.498 7.90137V7.96973C39.6995 7.84045 39.844 7.76792 39.9873 7.69629C40.0644 7.65773 40.1225 7.61921 40.1826 7.5791C40.2428 7.539 40.3054 7.49672 40.3887 7.45508L40.3984 7.4502H40.6211V7.75293L40.6162 7.7627C40.579 7.83721 40.5592 7.91246 40.5391 7.99316C40.5284 8.03572 40.5164 8.07996 40.502 8.125C40.6251 8.06671 40.7534 8.01354 40.8848 8.01172C41.0103 7.97208 41.1174 7.98806 41.1748 8.07422C41.228 8.15428 41.222 8.27424 41.1807 8.39844C41.1413 8.51665 41.124 8.60907 41.1328 8.68848C41.1414 8.76541 41.1746 8.8357 41.248 8.90918L41.3291 8.98926L41.3438 9.00391V9.02441Z" fill="url(#paint11_radial_21_1760)" stroke="#BD6600" stroke-width="0.1"/>
<path d="M41.4967 32.1174C42.2189 31.7964 42.0584 30.994 41.3362 30.7532C40.1324 30.352 38.6077 29.9507 38.2065 29.8705C37.725 29.71 35.8793 30.5125 34.8361 30.994C34.3546 31.2347 34.1941 31.6359 34.4348 32.0372C34.7558 32.4384 37.1633 32.1174 38.5275 32.3582C40.1324 32.5989 40.2127 32.6792 41.4967 32.1174Z" fill="url(#paint12_linear_21_1760)"/>
<g opacity="0.6">
<path opacity="0.2" d="M19.1972 38.8263C19.6902 38.8263 20.1831 38.881 20.6214 38.881V38.8263C20.457 38.7715 20.2927 38.6619 20.0736 38.6619C19.5806 38.5524 19.0876 38.4976 18.6494 38.4428C18.3755 38.3881 18.1017 38.3881 17.773 38.3333C17.5539 38.2785 17.28 38.2237 17.0609 38.169V38.1142C17.1705 38.0594 17.3348 38.0046 17.4443 38.0046C17.6087 37.9499 17.5539 37.8403 17.3348 37.7307C17.0061 37.5664 16.6775 37.5116 16.294 37.4569C15.8011 37.4569 15.3081 37.4021 14.8151 37.3473C14.6507 37.3473 14.4864 37.2925 14.2673 37.2378C14.2673 37.2378 14.2673 37.183 14.2125 37.183C14.3769 37.183 14.596 37.183 14.7603 37.183C14.8699 37.183 14.9246 37.1282 15.0342 37.1282C15.0342 37.0734 14.9246 37.0187 14.8151 37.0187C14.5412 36.9091 14.2125 36.7996 13.8839 36.7996C13.5552 36.7996 13.4457 36.7448 13.5004 36.5804C13.5004 36.4709 13.5004 36.4709 13.2266 36.3613C12.7884 36.2518 12.624 36.0875 12.4049 35.8684C12.2406 35.7588 12.131 35.5945 12.0215 35.4849C11.9667 35.4301 12.0215 35.3206 12.131 35.3206C12.2954 35.2658 12.4049 35.3754 12.5145 35.4301C12.5693 35.4849 12.624 35.4849 12.6788 35.5397C13.3361 35.704 13.7743 35.9779 14.2673 36.3066C14.3769 36.2518 14.4316 36.197 14.596 36.0875C14.7055 36.2518 14.8151 36.3613 14.8699 36.4709C15.0342 36.6352 15.089 36.69 15.3628 36.5804C15.6915 36.4709 15.6915 36.4709 16.0749 36.69C16.1297 36.7448 16.1845 36.7448 16.294 36.7996C16.5131 36.9091 16.6227 36.9091 16.6227 36.7996C16.6227 36.7448 16.5679 36.69 16.5679 36.5804C17.2252 36.7996 17.8278 37.0187 18.1564 37.3473C18.2112 37.4021 18.2112 37.4569 18.3208 37.4569C18.3755 37.5116 18.5399 37.5116 18.5946 37.5116C18.6494 37.5116 18.7042 37.4569 18.7042 37.4569C18.7042 37.4569 18.7042 37.4021 18.6494 37.4021C18.3755 37.0734 18.4303 37.0734 19.1424 37.2378C19.8545 37.4021 20.1284 37.676 20.457 37.9499C20.6214 38.0594 20.7309 38.2237 20.8952 38.3333C20.95 38.3333 21.0048 38.3333 21.0596 38.3333C21.1691 38.2237 21.2239 38.0594 21.3335 37.9499C21.443 38.0046 21.5526 38.0594 21.6073 38.1142C22.3194 38.6072 23.0315 39.1002 23.6888 39.5931C23.8532 39.7027 23.9627 39.8122 24.0175 39.9218C24.0723 39.9766 24.0175 40.0313 23.9627 40.0861C23.9079 40.0861 23.6341 40.0861 23.5793 40.0314C22.9767 39.7575 22.3194 39.6479 21.6621 39.5384C20.95 39.4288 20.2379 39.2097 19.5806 38.9906C19.4163 38.9358 19.3615 38.881 19.1972 38.8263Z" fill="black"/>
</g>
<g filter="url(#filter7_i_21_1760)">
<path d="M28.6724 37.2917C28.1246 37.3465 27.6864 37.3465 27.1934 37.4013C27.1934 37.3465 27.1386 37.2917 27.1386 37.2917C27.2482 37.1822 27.3578 37.0179 27.5221 36.9083C27.9603 36.6892 28.3985 36.5249 28.8367 36.3605C29.1106 36.251 29.3845 36.251 29.6584 36.1414C29.8775 36.0867 30.0418 35.9223 30.2609 35.8128C30.2609 35.758 30.2609 35.758 30.2061 35.7032C30.0418 35.5937 29.8227 35.5389 29.6584 35.4293C29.4392 35.3198 29.3845 35.1555 29.494 34.8816C29.6584 34.5529 29.9322 34.3886 30.3157 34.3338C30.8087 34.279 31.3016 34.2243 31.7946 34.1147C31.959 34.0599 32.0685 33.9504 32.2328 33.8408C32.2328 33.7861 32.2328 33.7313 32.2328 33.7313C32.0137 33.7313 31.8494 33.7313 31.6303 33.6765C31.5207 33.6765 31.4112 33.6217 31.3016 33.567C31.3564 33.4574 31.3564 33.3478 31.4112 33.2383C31.5755 32.9644 31.8494 32.8001 32.1781 32.7453C32.5615 32.7453 32.6163 32.6358 32.3972 32.3071C32.2876 32.1428 32.2328 32.0332 32.5067 31.9237C32.8902 31.7046 32.8354 31.2663 32.8902 30.9377C32.9449 30.6638 32.9449 30.3899 32.8902 30.116C32.8354 29.9517 32.7258 29.7874 32.5615 29.7326C32.3424 29.6231 32.3424 29.8422 32.2876 30.0065C32.2876 30.0613 32.2328 30.1708 32.1781 30.1708C31.6303 30.5543 31.466 31.1568 31.2469 31.7593C31.0825 31.595 30.9182 31.4855 30.6991 31.2663C30.7539 31.595 30.7539 31.8141 30.7539 32.088C30.7539 32.4714 30.6991 32.5262 30.3704 32.3619C29.9322 32.1428 29.9322 32.1428 29.7131 32.581C29.6584 32.6358 29.6584 32.7453 29.6036 32.8001C29.494 33.0192 29.3297 32.9644 29.2749 32.7453C29.2201 32.6358 29.2201 32.5262 29.1654 32.3071C28.7272 32.8001 28.2342 33.1835 28.2889 33.8956C28.2889 34.0052 28.2889 34.1147 28.2889 34.1695C28.2342 34.2243 28.1246 34.3338 28.0698 34.3338C28.0151 34.3338 27.9055 34.2243 27.8507 34.1695V34.0599C27.796 33.3478 27.796 33.3478 27.1934 33.7313C26.5909 34.0599 26.5909 34.6625 26.5361 35.2102C26.5361 35.4841 26.4813 35.758 26.4813 36.0319C26.4266 36.0319 26.3718 36.0867 26.3718 36.0867C26.1527 35.8128 25.9336 35.5389 25.6597 35.265C25.6049 35.4293 25.5501 35.4841 25.4954 35.5937C25.2215 36.6344 25.0024 37.6752 24.7833 38.7159C24.7285 38.935 24.7285 39.2089 24.7833 39.428C24.7833 39.5376 24.8928 39.7019 25.0024 39.7567C25.1119 39.8114 25.2763 39.7019 25.331 39.5923C25.6597 38.9898 26.2622 38.7707 26.8648 38.5516C27.5221 38.2777 28.0151 37.8943 28.5628 37.4013C28.5628 37.5108 28.5628 37.4013 28.6724 37.2917Z" fill="url(#paint13_linear_21_1760)"/>
</g>
<g filter="url(#filter8_i_21_1760)">
<path d="M22.9626 35.6909C23.346 36.0196 23.6199 36.3482 23.9486 36.6221C24.0033 36.6221 24.0581 36.5673 24.0581 36.5673C24.0581 36.403 24.0581 36.2387 24.0033 36.0744C23.7842 35.6909 23.5651 35.3075 23.346 34.9241C23.1817 34.7049 23.0174 34.5406 22.853 34.3215C22.7435 34.1572 22.6887 33.9381 22.5791 33.719C22.6339 33.719 22.6339 33.6642 22.6887 33.6642C22.853 33.719 23.0721 33.7737 23.2365 33.7737C23.4556 33.8285 23.6199 33.719 23.6747 33.4451C23.7294 33.1164 23.6747 32.8426 23.346 32.5687C23.0174 32.24 22.6887 31.9114 22.4148 31.5279C22.3053 31.4184 22.3053 31.254 22.2505 31.0897C22.3053 31.0897 22.3053 31.0349 22.36 31.0349C22.5244 31.1445 22.6339 31.254 22.7983 31.3636C22.9078 31.4184 23.0174 31.4184 23.1269 31.4731C23.1817 31.3636 23.2365 31.254 23.2365 31.1445C23.2912 30.8158 23.1817 30.542 22.9626 30.3228C22.6887 30.1037 22.6887 29.9942 23.0174 29.8846C23.1817 29.8299 23.2912 29.7751 23.1817 29.556C23.0174 29.1725 23.2912 28.8987 23.4556 28.57C23.5651 28.3509 23.7294 28.1318 23.9486 27.9675C24.0581 27.8579 24.2772 27.8031 24.3868 27.8579C24.6059 27.9127 24.4963 28.077 24.4415 28.1866C24.4415 28.2413 24.3868 28.2961 24.3868 28.3509C24.5511 28.9534 24.3868 29.5012 24.1129 30.049C24.332 30.049 24.5511 30.049 24.825 30.049C24.6059 30.2681 24.4415 30.4324 24.2772 30.5967C24.0581 30.8706 24.0581 30.9254 24.3868 31.0349C24.825 31.1445 24.825 31.1445 24.7154 31.5827C24.7154 31.6375 24.6606 31.747 24.6606 31.8018C24.6606 32.0209 24.7702 32.0757 24.9345 31.9661C25.0441 31.9114 25.1536 31.8566 25.2632 31.747C25.2632 32.4043 25.4275 32.9521 24.9893 33.4451C24.9345 33.4999 24.8797 33.6094 24.825 33.6642C24.825 33.719 24.825 33.8833 24.9345 33.8833C24.9893 33.9381 25.0989 33.8833 25.1536 33.8833C25.2084 33.8833 25.2084 33.8285 25.2632 33.7737C25.7014 33.2808 25.7014 33.2808 25.9753 33.9381C26.1944 34.5406 25.9205 34.9788 25.5918 35.417C25.4275 35.6361 25.318 35.8552 25.1536 36.0196C25.1536 36.0744 25.2084 36.0744 25.2084 36.1291C25.5371 36.0744 25.8109 36.0196 26.1944 35.91C26.1396 36.0744 26.1396 36.1291 26.1396 36.2387C25.7014 37.1699 25.2632 38.0463 24.825 38.9775C24.7154 39.1966 24.5511 39.3609 24.3868 39.5253C24.332 39.58 24.1129 39.6348 24.0581 39.6348C23.9486 39.58 23.8938 39.4157 23.8938 39.3062C24.0033 38.6488 23.6747 38.1559 23.4008 37.6629C23.0721 37.1151 22.9626 36.4578 22.853 35.8552C22.9078 35.9648 22.9626 35.8552 22.9626 35.6909Z" fill="url(#paint14_linear_21_1760)"/>
</g>
<g filter="url(#filter9_i_21_1760)">
<path d="M20.127 37.2917C20.6748 37.3465 21.113 37.3465 21.606 37.4013C21.606 37.3465 21.6608 37.2917 21.6608 37.2917C21.5512 37.1822 21.4416 37.0179 21.2773 36.9083C20.8391 36.6892 20.4009 36.5249 19.9627 36.3605C19.6888 36.251 19.4149 36.251 19.141 36.1414C18.9219 36.0867 18.7576 35.9223 18.5385 35.8128C18.5385 35.758 18.5385 35.758 18.5933 35.7032C18.7576 35.5937 18.9767 35.5389 19.141 35.4293C19.3602 35.3198 19.4149 35.1555 19.3054 34.8816C19.141 34.5529 18.8672 34.3886 18.4837 34.3338C17.9907 34.279 17.4978 34.2243 17.0048 34.1147C16.8404 34.0599 16.7309 33.9504 16.5666 33.8408C16.5666 33.7861 16.5666 33.7313 16.5666 33.7313C16.7857 33.7313 16.95 33.7313 17.1691 33.6765C17.2787 33.6765 17.3882 33.6217 17.4978 33.567C17.443 33.4574 17.443 33.3478 17.3882 33.2383C17.2239 32.9644 16.95 32.8001 16.6213 32.7453C16.2379 32.7453 16.1831 32.6358 16.4022 32.3071C16.5118 32.1428 16.5666 32.0332 16.2927 31.9237C15.9092 31.7046 15.964 31.2663 15.9092 30.9377C15.8545 30.6638 15.8545 30.3899 15.9092 30.116C15.964 29.9517 16.0736 29.7874 16.2379 29.7326C16.457 29.6231 16.457 29.8422 16.5118 30.0065C16.5118 30.0613 16.5666 30.1708 16.6213 30.1708C17.1691 30.5543 17.3334 31.1568 17.5525 31.7593C17.7169 31.595 17.8812 31.4855 18.1003 31.2663C18.0455 31.595 18.0455 31.8141 18.0455 32.088C18.0455 32.4714 18.1003 32.5262 18.429 32.3619C18.8672 32.1428 18.8672 32.1428 19.0863 32.581C19.141 32.6358 19.141 32.7453 19.1958 32.8001C19.3054 33.0192 19.4697 32.9644 19.5245 32.7453C19.5793 32.6358 19.5793 32.5262 19.634 32.3071C20.0722 32.8001 20.5652 33.1835 20.5105 33.8956C20.5105 34.0052 20.5105 34.1147 20.5105 34.1695C20.5652 34.2243 20.6748 34.3338 20.7296 34.3338C20.7843 34.3338 20.8939 34.2243 20.9487 34.1695V34.0599C21.0034 33.3478 21.0034 33.3478 21.606 33.7313C22.2085 34.0599 22.2085 34.6625 22.2633 35.2102C22.2633 35.4841 22.3181 35.758 22.3181 36.0319C22.3728 36.0319 22.4276 36.0867 22.4276 36.0867C22.6467 35.8128 22.8658 35.5389 23.1397 35.265C23.1945 35.4293 23.2493 35.4841 23.304 35.5937C23.5779 36.6344 23.797 37.6752 24.0161 38.7159C24.0709 38.935 24.0709 39.2089 24.0161 39.428C24.0161 39.5376 23.9066 39.7019 23.797 39.7567C23.6875 39.8114 23.5231 39.7019 23.4684 39.5923C23.1397 38.9898 22.5372 38.7707 21.9346 38.5516C21.2773 38.2777 20.7843 37.8943 20.2366 37.4013C20.2366 37.5108 20.1818 37.4013 20.127 37.2917Z" fill="url(#paint15_linear_21_1760)"/>
</g>
<path d="M24.2772 39.3609C24.2772 39.3609 24.9345 37.3342 24.5511 34.8692C24.1677 32.4043 23.4556 32.24 23.839 28.7891" stroke="url(#paint16_linear_21_1760)" stroke-width="0.2" stroke-miterlimit="10" stroke-linecap="round" stroke-linejoin="round"/>
<path d="M25.0576 39.3732C25.0576 39.3732 25.3863 38.2229 26.9748 36.251C28.5085 34.3338 30.9187 34.0051 32.3429 30.8281" stroke="#A6C989" stroke-width="0.2" stroke-miterlimit="10" stroke-linecap="round" stroke-linejoin="round"/>
<path d="M23.797 39.3732C23.797 39.3732 23.4683 38.2229 21.8798 36.251C20.2913 34.279 17.9359 34.0051 16.5117 30.8281" stroke="#A6C989" stroke-width="0.2" stroke-miterlimit="10" stroke-linecap="round" stroke-linejoin="round"/>
<path d="M27.8458 41.1174C28.568 40.7964 28.4075 39.994 27.6853 39.7532C26.4816 39.352 24.9569 38.9507 24.5556 38.8705C24.0741 38.71 22.2284 39.5125 21.1852 39.994C20.7037 40.2347 20.5432 40.6359 20.7839 41.0372C21.1049 41.4384 23.5124 41.1174 24.8766 41.3582C26.4816 41.5989 26.5618 41.6792 27.8458 41.1174Z" fill="url(#paint17_linear_21_1760)"/>
<defs>
<filter id="filter0_i_21_1760" x="0.0175781" y="17.8652" width="47.9291" height="27.666" filterUnits="userSpaceOnUse" color-interpolation-filters="sRGB">
<feFlood flood-opacity="0" result="BackgroundImageFix"/>
<feBlend mode="normal" in="SourceGraphic" in2="BackgroundImageFix" result="shape"/>
<feColorMatrix in="SourceAlpha" type="matrix" values="0 0 0 0 0 0 0 0 0 0 0 0 0 0 0 0 0 0 127 0" result="hardAlpha"/>
<feOffset dy="-1"/>
<feComposite in2="hardAlpha" operator="arithmetic" k2="-1" k3="1"/>
<feColorMatrix type="matrix" values="0 0 0 0 1 0 0 0 0 1 0 0 0 0 1 0 0 0 0.3 0"/>
<feBlend mode="normal" in2="shape" result="effect1_innerShadow_21_1760"/>
</filter>
<filter id="filter1_i_21_1760" x="10.4785" y="19.0215" width="9.66992" height="11.8926" filterUnits="userSpaceOnUse" color-interpolation-filters="sRGB">
<feFlood flood-opacity="0" result="BackgroundImageFix"/>
<feBlend mode="normal" in="SourceGraphic" in2="BackgroundImageFix" result="shape"/>
<feColorMatrix in="SourceAlpha" type="matrix" values="0 0 0 0 0 0 0 0 0 0 0 0 0 0 0 0 0 0 127 0" result="hardAlpha"/>
<feOffset dy="-0.5"/>
<feComposite in2="hardAlpha" operator="arithmetic" k2="-1" k3="1"/>
<feColorMatrix type="matrix" values="0 0 0 0 0 0 0 0 0 0 0 0 0 0 0 0 0 0 0.5 0"/>
<feBlend mode="normal" in2="shape" result="effect1_innerShadow_21_1760"/>
</filter>
<filter id="filter2_i_21_1760" x="7.50049" y="16.5" width="4.57416" height="13.9966" filterUnits="userSpaceOnUse" color-interpolation-filters="sRGB">
<feFlood flood-opacity="0" result="BackgroundImageFix"/>
<feBlend mode="normal" in="SourceGraphic" in2="BackgroundImageFix" result="shape"/>
<feColorMatrix in="SourceAlpha" type="matrix" values="0 0 0 0 0 0 0 0 0 0 0 0 0 0 0 0 0 0 127 0" result="hardAlpha"/>
<feOffset dy="-0.5"/>
<feComposite in2="hardAlpha" operator="arithmetic" k2="-1" k3="1"/>
<feColorMatrix type="matrix" values="0 0 0 0 0 0 0 0 0 0 0 0 0 0 0 0 0 0 0.5 0"/>
<feBlend mode="normal" in2="shape" result="effect1_innerShadow_21_1760"/>
</filter>
<filter id="filter3_i_21_1760" x="0.204102" y="19.0215" width="9.66992" height="11.8926" filterUnits="userSpaceOnUse" color-interpolation-filters="sRGB">
<feFlood flood-opacity="0" result="BackgroundImageFix"/>
<feBlend mode="normal" in="SourceGraphic" in2="BackgroundImageFix" result="shape"/>
<feColorMatrix in="SourceAlpha" type="matrix" values="0 0 0 0 0 0 0 0 0 0 0 0 0 0 0 0 0 0 127 0" result="hardAlpha"/>
<feOffset dy="-0.5"/>
<feComposite in2="hardAlpha" operator="arithmetic" k2="-1" k3="1"/>
<feColorMatrix type="matrix" values="0 0 0 0 0 0 0 0 0 0 0 0 0 0 0 0 0 0 0.5 0"/>
<feBlend mode="normal" in2="shape" result="effect1_innerShadow_21_1760"/>
</filter>
<filter id="filter4_i_21_1760" x="38.2295" y="17.1157" width="9.66992" height="13.9971" filterUnits="userSpaceOnUse" color-interpolation-filters="sRGB">
<feFlood flood-opacity="0" result="BackgroundImageFix"/>
<feBlend mode="normal" in="SourceGraphic" in2="BackgroundImageFix" result="shape"/>
<feColorMatrix in="SourceAlpha" type="matrix" values="0 0 0 0 0 0 0 0 0 0 0 0 0 0 0 0 0 0 127 0" result="hardAlpha"/>
<feOffset dy="-0.5"/>
<feComposite in2="hardAlpha" operator="arithmetic" k2="-1" k3="1"/>
<feColorMatrix type="matrix" values="0 0 0 0 0 0 0 0 0 0 0 0 0 0 0 0 0 0 0.5 0"/>
<feBlend mode="normal" in2="shape" result="effect1_innerShadow_21_1760"/>
</filter>
<filter id="filter5_i_21_1760" x="35.2515" y="12.8364" width="4.57416" height="16.4731" filterUnits="userSpaceOnUse" color-interpolation-filters="sRGB">
<feFlood flood-opacity="0" result="BackgroundImageFix"/>
<feBlend mode="normal" in="SourceGraphic" in2="BackgroundImageFix" result="shape"/>
<feColorMatrix in="SourceAlpha" type="matrix" values="0 0 0 0 0 0 0 0 0 0 0 0 0 0 0 0 0 0 127 0" result="hardAlpha"/>
<feOffset dy="-0.5"/>
<feComposite in2="hardAlpha" operator="arithmetic" k2="-1" k3="1"/>
<feColorMatrix type="matrix" values="0 0 0 0 0 0 0 0 0 0 0 0 0 0 0 0 0 0 0.5 0"/>
<feBlend mode="normal" in2="shape" result="effect1_innerShadow_21_1760"/>
</filter>
<filter id="filter6_i_21_1760" x="27.9551" y="17.1157" width="9.66992" height="13.9971" filterUnits="userSpaceOnUse" color-interpolation-filters="sRGB">
<feFlood flood-opacity="0" result="BackgroundImageFix"/>
<feBlend mode="normal" in="SourceGraphic" in2="BackgroundImageFix" result="shape"/>
<feColorMatrix in="SourceAlpha" type="matrix" values="0 0 0 0 0 0 0 0 0 0 0 0 0 0 0 0 0 0 127 0" result="hardAlpha"/>
<feOffset dy="-0.5"/>
<feComposite in2="hardAlpha" operator="arithmetic" k2="-1" k3="1"/>
<feColorMatrix type="matrix" values="0 0 0 0 0 0 0 0 0 0 0 0 0 0 0 0 0 0 0.5 0"/>
<feBlend mode="normal" in2="shape" result="effect1_innerShadow_21_1760"/>
</filter>
<filter id="filter7_i_21_1760" x="24.7422" y="29.7031" width="8.18906" height="10.0679" filterUnits="userSpaceOnUse" color-interpolation-filters="sRGB">
<feFlood flood-opacity="0" result="BackgroundImageFix"/>
<feBlend mode="normal" in="SourceGraphic" in2="BackgroundImageFix" result="shape"/>
<feColorMatrix in="SourceAlpha" type="matrix" values="0 0 0 0 0 0 0 0 0 0 0 0 0 0 0 0 0 0 127 0" result="hardAlpha"/>
<feOffset dy="-0.5"/>
<feComposite in2="hardAlpha" operator="arithmetic" k2="-1" k3="1"/>
<feColorMatrix type="matrix" values="0 0 0 0 0 0 0 0 0 0 0 0 0 0 0 0 0 0 0.5 0"/>
<feBlend mode="normal" in2="shape" result="effect1_innerShadow_21_1760"/>
</filter>
<filter id="filter8_i_21_1760" x="22.2505" y="27.8364" width="3.94388" height="11.7983" filterUnits="userSpaceOnUse" color-interpolation-filters="sRGB">
<feFlood flood-opacity="0" result="BackgroundImageFix"/>
<feBlend mode="normal" in="SourceGraphic" in2="BackgroundImageFix" result="shape"/>
<feColorMatrix in="SourceAlpha" type="matrix" values="0 0 0 0 0 0 0 0 0 0 0 0 0 0 0 0 0 0 127 0" result="hardAlpha"/>
<feOffset dy="-0.5"/>
<feComposite in2="hardAlpha" operator="arithmetic" k2="-1" k3="1"/>
<feColorMatrix type="matrix" values="0 0 0 0 0 0 0 0 0 0 0 0 0 0 0 0 0 0 0.5 0"/>
<feBlend mode="normal" in2="shape" result="effect1_innerShadow_21_1760"/>
</filter>
<filter id="filter9_i_21_1760" x="15.8682" y="29.7031" width="8.18906" height="10.0679" filterUnits="userSpaceOnUse" color-interpolation-filters="sRGB">
<feFlood flood-opacity="0" result="BackgroundImageFix"/>
<feBlend mode="normal" in="SourceGraphic" in2="BackgroundImageFix" result="shape"/>
<feColorMatrix in="SourceAlpha" type="matrix" values="0 0 0 0 0 0 0 0 0 0 0 0 0 0 0 0 0 0 127 0" result="hardAlpha"/>
<feOffset dy="-0.5"/>
<feComposite in2="hardAlpha" operator="arithmetic" k2="-1" k3="1"/>
<feColorMatrix type="matrix" values="0 0 0 0 0 0 0 0 0 0 0 0 0 0 0 0 0 0 0.5 0"/>
<feBlend mode="normal" in2="shape" result="effect1_innerShadow_21_1760"/>
</filter>
<linearGradient id="paint0_linear_21_1760" x1="0" y1="33.1116" x2="48" y2="33.1116" gradientUnits="userSpaceOnUse">
<stop stop-color="#7B4F39"/>
<stop offset="0.0001" stop-color="#5F312D"/>
<stop offset="1" stop-color="#9B6B51"/>
</linearGradient>
<linearGradient id="paint1_linear_21_1760" x1="50.9663" y1="20.2426" x2="0.0175781" y2="20.2426" gradientUnits="userSpaceOnUse">
<stop stop-color="#D39773"/>
<stop offset="1" stop-color="#A55852"/>
</linearGradient>
<linearGradient id="paint2_linear_21_1760" x1="20.2188" y1="23.1628" x2="27.8739" y2="23.1628" gradientUnits="userSpaceOnUse">
<stop offset="0.00558659" stop-color="#A65953"/>
<stop offset="1" stop-color="#D09270"/>
</linearGradient>
<linearGradient id="paint3_linear_21_1760" x1="50.9487" y1="20.4638" x2="0" y2="20.4638" gradientUnits="userSpaceOnUse">
<stop stop-color="#D39773"/>
<stop offset="1" stop-color="#A55852"/>
</linearGradient>
<linearGradient id="paint4_linear_21_1760" x1="11.249" y1="30.2874" x2="21.5451" y2="27.5937" gradientUnits="userSpaceOnUse">
<stop offset="0.331045" stop-color="#664300"/>
<stop offset="1" stop-color="#6BE16F"/>
</linearGradient>
<linearGradient id="paint5_linear_21_1760" x1="10.124" y1="30.1272" x2="9.85325" y2="18.973" gradientUnits="userSpaceOnUse">
<stop offset="0.471257" stop-color="#664300"/>
<stop offset="1" stop-color="#6BE16F"/>
</linearGradient>
<linearGradient id="paint6_linear_21_1760" x1="10.1255" y1="28.8751" x2="4.54362" y2="23.2129" gradientUnits="userSpaceOnUse">
<stop offset="0.471257" stop-color="#664300"/>
<stop offset="1" stop-color="#6BE16F"/>
</linearGradient>
<linearGradient id="paint7_linear_21_1760" x1="6.54303" y1="31.176" x2="14.1981" y2="31.176" gradientUnits="userSpaceOnUse">
<stop offset="0.00558659" stop-color="#A65953"/>
<stop offset="1" stop-color="#D09270"/>
</linearGradient>
<linearGradient id="paint8_linear_21_1760" x1="39" y1="30.3751" x2="49.4829" y2="28.0449" gradientUnits="userSpaceOnUse">
<stop offset="0.331045" stop-color="#664300"/>
<stop offset="1" stop-color="#6BE16F"/>
</linearGradient>
<linearGradient id="paint9_linear_21_1760" x1="37.875" y1="28.875" x2="37.5" y2="15.75" gradientUnits="userSpaceOnUse">
<stop offset="0.471257" stop-color="#664300"/>
<stop offset="1" stop-color="#6BE16F"/>
</linearGradient>
<linearGradient id="paint10_linear_21_1760" x1="37.8765" y1="28.713" x2="31.3781" y2="23.1122" gradientUnits="userSpaceOnUse">
<stop offset="0.471257" stop-color="#664300"/>
<stop offset="1" stop-color="#6BE16F"/>
</linearGradient>
<radialGradient id="paint11_radial_21_1760" cx="0" cy="0" r="1" gradientUnits="userSpaceOnUse" gradientTransform="translate(36.75 9.08643) rotate(48.8141) scale(3.9863 7.34819)">
<stop offset="0.485709" stop-color="#F5D107"/>
<stop offset="1" stop-color="#E68615"/>
</radialGradient>
<linearGradient id="paint12_linear_21_1760" x1="34.293" y1="31.176" x2="41.9481" y2="31.176" gradientUnits="userSpaceOnUse">
<stop offset="0.00558659" stop-color="#A65953"/>
<stop offset="1" stop-color="#D09270"/>
</linearGradient>
<linearGradient id="paint13_linear_21_1760" x1="25.3947" y1="39.2406" x2="34.1137" y2="36.9588" gradientUnits="userSpaceOnUse">
<stop offset="0.331045" stop-color="#664300"/>
<stop offset="1" stop-color="#6BE16F"/>
</linearGradient>
<linearGradient id="paint14_linear_21_1760" x1="24.5125" y1="39.3236" x2="24.2894" y2="29.9208" gradientUnits="userSpaceOnUse">
<stop offset="0.471257" stop-color="#664300"/>
<stop offset="1" stop-color="#6BE16F"/>
</linearGradient>
<linearGradient id="paint15_linear_21_1760" x1="24.2702" y1="38.045" x2="19.5447" y2="33.25" gradientUnits="userSpaceOnUse">
<stop offset="0.471257" stop-color="#664300"/>
<stop offset="1" stop-color="#6BE16F"/>
</linearGradient>
<linearGradient id="paint16_linear_21_1760" x1="24.2001" y1="28.7891" x2="24.2001" y2="39.3609" gradientUnits="userSpaceOnUse">
<stop stop-color="#A6C989"/>
<stop offset="1" stop-color="#A6C989"/>
</linearGradient>
<linearGradient id="paint17_linear_21_1760" x1="20.6421" y1="40.176" x2="28.2972" y2="40.176" gradientUnits="userSpaceOnUse">
<stop offset="0.00558659" stop-color="#A65953"/>
<stop offset="1" stop-color="#D09270"/>
</linearGradient>
</defs>
</svg>
