<svg width="48" height="48" viewBox="0 0 48 48" fill="none" xmlns="http://www.w3.org/2000/svg">
<path d="M46.7132 31.9603C47.4809 32.399 48.139 28.67 47.9744 33.6054C47.9744 34.2635 47.5906 34.9216 46.768 35.4151L27.0809 46.8216C25.4357 47.7538 22.7486 47.7538 21.1035 46.8216L1.30671 35.4151C0.484129 34.9216 0.100256 34.3184 0.0454174 33.6603C-0.173937 28.2861 0.429287 32.399 1.25187 31.9054L20.939 20.499C22.5841 19.5667 25.2712 19.5667 26.9164 20.499L46.7132 31.9603Z" fill="url(#paint0_linear_21_7082)"/>
<g opacity="0.9" filter="url(#filter0_i_21_7082)">
<path fill-rule="evenodd" clip-rule="evenodd" d="M46.4009 28.6831C48.5233 29.9085 48.5344 31.8953 46.4259 33.1205L27.9041 43.8841C25.7957 45.1097 22.3656 45.1097 20.2432 43.8841L1.59918 33.1201C-0.523205 31.8947 -0.534501 29.9079 1.57417 28.6825L20.0957 17.9191C22.2044 16.6937 25.6343 16.6937 27.7567 17.9189L46.4009 28.6831Z" fill="url(#paint1_linear_21_7082)"/>
</g>
<path fill-rule="evenodd" clip-rule="evenodd" d="M29.5643 21.0474C29.6352 21.0884 29.7064 21.1612 29.7601 21.2577L36.8365 31.9702C37.009 32.2801 36.8608 32.5123 36.6427 32.3864C36.4869 32.3198 28.5775 22.9304 28.4547 22.8283C28.3906 22.7624 28.3426 22.6808 28.3141 22.6C28.2881 22.6641 28.2348 22.7011 28.1594 22.6916L20.0476 22.8152C19.771 22.7769 19.5561 22.2661 19.7534 22.1409L26.8671 19.6209C26.9213 19.5868 26.9928 19.5963 27.0637 19.6373C27.301 19.6633 28.1677 22.1198 28.2902 22.3099C28.3083 22.3247 28.3163 22.3102 28.3267 22.2976L29.3348 21.0598C29.3876 20.995 29.4757 20.9963 29.5643 21.0474Z" fill="url(#paint2_linear_21_7082)"/>
<path fill-rule="evenodd" clip-rule="evenodd" d="M36.8617 32.3762C36.8574 32.3791 36.8533 32.3825 36.8488 32.3851C36.8509 32.3832 36.8558 32.38 36.8617 32.3762ZM37.5163 31.832C37.5163 31.8279 37.5163 31.8238 37.5162 31.8197C37.5161 31.8155 37.5159 31.8115 37.5156 31.8075C37.5153 31.8034 37.515 31.7992 37.5146 31.795C37.5145 31.7933 37.5142 31.7916 37.5141 31.7899C37.5136 31.7858 37.5135 31.7841 37.5132 31.7825C37.5127 31.7782 37.5121 31.774 37.5114 31.7697C37.5108 31.7654 37.51 31.7611 37.5092 31.7567C37.5091 31.7566 37.5091 31.7565 37.5091 31.7564C37.5082 31.7519 37.5074 31.7477 37.5065 31.7434C37.5055 31.7389 37.5045 31.7344 37.5033 31.7299C37.5028 31.7279 37.5023 31.7259 37.5018 31.7239C37.5006 31.7195 37.5002 31.7178 37.4997 31.7161C37.4984 31.7116 37.4971 31.7071 37.4957 31.7025C37.4943 31.698 37.4929 31.6935 37.4914 31.6889C37.4913 31.6886 37.4912 31.6882 37.491 31.6879C37.4894 31.683 37.488 31.6791 37.4866 31.6753C37.485 31.6708 37.4833 31.6662 37.4815 31.6616C37.4803 31.6585 37.479 31.6554 37.4777 31.6523C37.4768 31.6499 37.4765 31.6491 37.4762 31.6483C37.4743 31.6439 37.4724 31.6394 37.4704 31.6349C37.4684 31.6304 37.4663 31.6258 37.4641 31.6212L37.4596 31.612C37.4583 31.6092 37.4571 31.6065 37.4557 31.6037C37.4527 31.5979 37.4497 31.592 37.4465 31.5861C37.4447 31.5827 37.4428 31.5793 37.4409 31.5759L29.4712 19.9702L28.8669 20.3214L36.8365 31.9271C36.8433 31.9392 36.8495 31.9513 36.8553 31.9632C36.8559 31.9645 36.8566 31.9657 36.8572 31.967C36.8628 31.9788 36.868 31.9904 36.8727 32.0018C36.8781 32.0152 36.8824 32.0267 36.8863 32.038C36.8904 32.0504 36.8937 32.0615 36.8967 32.0724C36.9002 32.0861 36.9027 32.0968 36.9047 32.1072C36.9067 32.1182 36.9083 32.1285 36.9094 32.1386C36.9095 32.1394 36.9096 32.1403 36.9097 32.1411C36.9108 32.1511 36.9115 32.161 36.9118 32.1705C36.9121 32.1804 36.912 32.1897 36.9115 32.1988C36.9108 32.2096 36.9099 32.2177 36.9088 32.2256C36.9071 32.2364 36.9057 32.2437 36.9039 32.2508C36.9009 32.2623 36.8987 32.2693 36.8962 32.2759C36.893 32.2841 36.8905 32.2896 36.8878 32.2949C36.8861 32.2984 36.8841 32.3016 36.8822 32.3049C36.8805 32.3079 36.8788 32.3109 36.8769 32.3137C36.8712 32.3223 36.8648 32.3301 36.8578 32.3372C36.8563 32.3387 36.8548 32.34 36.8533 32.3414C36.8458 32.3483 36.838 32.3546 36.8293 32.3596L36.9892 32.2667C37.1041 32.2015 37.2563 32.1153 37.3612 32.0505L37.4337 32.0084C37.4479 32.0001 37.4603 31.9889 37.4713 31.9758C37.479 31.9689 37.4832 31.9638 37.4825 31.961C37.4885 31.9504 37.4904 31.9472 37.4922 31.9437C37.495 31.9377 37.4967 31.9339 37.4983 31.93C37.5 31.9277 37.5011 31.9257 37.5008 31.9243C37.5025 31.9197 37.5041 31.9148 37.5056 31.9099C37.5062 31.9079 37.5066 31.9058 37.5072 31.9038C37.5086 31.8982 37.509 31.8968 37.5093 31.8954C37.5103 31.8912 37.5112 31.8869 37.512 31.8824C37.5123 31.8808 37.5125 31.8792 37.5127 31.8776C37.5134 31.8727 37.5137 31.8711 37.5139 31.8694C37.5145 31.8652 37.5149 31.861 37.5153 31.8566C37.5154 31.8544 37.5156 31.8522 37.5157 31.85C37.5159 31.8466 37.516 31.8455 37.516 31.8444C37.5162 31.8404 37.5163 31.8362 37.5163 31.832Z" fill="url(#paint3_linear_21_7082)"/>
<path fill-rule="evenodd" clip-rule="evenodd" d="M28.5035 9.3897C28.6228 9.45856 28.7418 9.61261 28.7694 9.7962L29.5509 20.6929C29.5827 20.9034 29.4541 21.0078 29.2841 20.9097L27.4114 19.8285C27.2351 19.7267 27.1062 19.461 27.15 19.2897L28.2408 9.4737C28.2757 9.33589 28.3898 9.32402 28.5035 9.3897Z" fill="url(#paint4_linear_21_7082)"/>
<path fill-rule="evenodd" clip-rule="evenodd" d="M36.8617 32.3762C36.8574 32.3791 36.8533 32.3825 36.8488 32.3851C36.8509 32.3832 36.8558 32.38 36.8617 32.3762ZM37.5163 31.832C37.5163 31.8279 37.5163 31.8238 37.5162 31.8197C37.5161 31.8155 37.5159 31.8115 37.5156 31.8075C37.5153 31.8034 37.515 31.7992 37.5146 31.795C37.5145 31.7933 37.5142 31.7916 37.5141 31.7899C37.5136 31.7858 37.5135 31.7841 37.5132 31.7825C37.5127 31.7782 37.5121 31.774 37.5114 31.7697C37.5108 31.7654 37.51 31.7611 37.5092 31.7567C37.5091 31.7566 37.5091 31.7565 37.5091 31.7564C37.5082 31.7519 37.5074 31.7477 37.5065 31.7434C37.5055 31.7389 37.5045 31.7344 37.5033 31.7299C37.5028 31.7279 37.5023 31.7259 37.5018 31.7239C37.5006 31.7195 37.5002 31.7178 37.4997 31.7161C37.4984 31.7116 37.4971 31.7071 37.4957 31.7025C37.4943 31.698 37.4929 31.6935 37.4914 31.6889C37.4913 31.6886 37.4912 31.6882 37.491 31.6879C37.4894 31.683 37.488 31.6791 37.4866 31.6753C37.485 31.6708 37.4833 31.6662 37.4815 31.6616C37.4803 31.6585 37.479 31.6554 37.4777 31.6523C37.4768 31.6499 37.4765 31.6491 37.4762 31.6483C37.4743 31.6439 37.4724 31.6394 37.4704 31.6349C37.4684 31.6304 37.4663 31.6258 37.4641 31.6212L37.4596 31.612C37.4583 31.6092 37.4571 31.6065 37.4557 31.6037C37.4527 31.5979 37.4497 31.592 37.4465 31.5861C37.4447 31.5827 37.4428 31.5793 37.4409 31.5759L29.4712 19.9702L28.8669 20.3214L36.8365 31.9271C36.8433 31.9392 36.8495 31.9513 36.8553 31.9632C36.8559 31.9645 36.8566 31.9657 36.8572 31.967C36.8628 31.9788 36.868 31.9904 36.8727 32.0018C36.8781 32.0152 36.8824 32.0267 36.8863 32.038C36.8904 32.0504 36.8937 32.0615 36.8967 32.0724C36.9002 32.0861 36.9027 32.0968 36.9047 32.1072C36.9067 32.1182 36.9083 32.1285 36.9094 32.1386C36.9095 32.1394 36.9096 32.1403 36.9097 32.1411C36.9108 32.1511 36.9115 32.161 36.9118 32.1705C36.9121 32.1804 36.912 32.1897 36.9115 32.1988C36.9108 32.2096 36.9099 32.2177 36.9088 32.2256C36.9071 32.2364 36.9057 32.2437 36.9039 32.2508C36.9009 32.2623 36.8987 32.2693 36.8962 32.2759C36.893 32.2841 36.8905 32.2896 36.8878 32.2949C36.8861 32.2984 36.8841 32.3016 36.8822 32.3049C36.8805 32.3079 36.8788 32.3109 36.8769 32.3137C36.8712 32.3223 36.8648 32.3301 36.8578 32.3372C36.8563 32.3387 36.8548 32.34 36.8533 32.3414C36.8458 32.3483 36.838 32.3546 36.8293 32.3596L36.9892 32.2667C37.1041 32.2015 37.2563 32.1153 37.3612 32.0505L37.4337 32.0084C37.4479 32.0001 37.4603 31.9889 37.4713 31.9758C37.479 31.9689 37.4832 31.9638 37.4825 31.961C37.4885 31.9504 37.4904 31.9472 37.4922 31.9437C37.495 31.9377 37.4967 31.9339 37.4983 31.93C37.5 31.9277 37.5011 31.9257 37.5008 31.9243C37.5025 31.9197 37.5041 31.9148 37.5056 31.9099C37.5062 31.9079 37.5066 31.9058 37.5072 31.9038C37.5086 31.8982 37.509 31.8968 37.5093 31.8954C37.5103 31.8912 37.5112 31.8869 37.512 31.8824C37.5123 31.8808 37.5125 31.8792 37.5127 31.8776C37.5134 31.8727 37.5137 31.8711 37.5139 31.8694C37.5145 31.8652 37.5149 31.861 37.5153 31.8566C37.5154 31.8544 37.5156 31.8522 37.5157 31.85C37.5159 31.8466 37.516 31.8455 37.516 31.8444C37.5162 31.8404 37.5163 31.8362 37.5163 31.832Z" fill="url(#paint5_linear_21_7082)"/>
<path fill-rule="evenodd" clip-rule="evenodd" d="M36.8617 32.3762C36.8574 32.3791 36.8533 32.3825 36.8488 32.3851C36.8509 32.3832 36.8558 32.38 36.8617 32.3762ZM37.5163 31.832C37.5163 31.8279 37.5163 31.8238 37.5162 31.8197C37.5161 31.8155 37.5159 31.8115 37.5156 31.8075C37.5153 31.8034 37.515 31.7992 37.5146 31.795C37.5145 31.7933 37.5142 31.7916 37.5141 31.7899C37.5136 31.7858 37.5135 31.7841 37.5132 31.7825C37.5127 31.7782 37.5121 31.774 37.5114 31.7697C37.5108 31.7654 37.51 31.7611 37.5092 31.7567C37.5091 31.7566 37.5091 31.7565 37.5091 31.7564C37.5082 31.7519 37.5074 31.7477 37.5065 31.7434C37.5055 31.7389 37.5045 31.7344 37.5033 31.7299C37.5028 31.7279 37.5023 31.7259 37.5018 31.7239C37.5006 31.7195 37.5002 31.7178 37.4997 31.7161C37.4984 31.7116 37.4971 31.7071 37.4957 31.7025C37.4943 31.698 37.4929 31.6935 37.4914 31.6889C37.4913 31.6886 37.4912 31.6882 37.491 31.6879C37.4894 31.683 37.488 31.6791 37.4866 31.6753C37.485 31.6708 37.4833 31.6662 37.4815 31.6616C37.4803 31.6585 37.479 31.6554 37.4777 31.6523C37.4768 31.6499 37.4765 31.6491 37.4762 31.6483C37.4743 31.6439 37.4724 31.6394 37.4704 31.6349C37.4684 31.6304 37.4663 31.6258 37.4641 31.6212L37.4596 31.612C37.4583 31.6092 37.4571 31.6065 37.4557 31.6037C37.4527 31.5979 37.4497 31.592 37.4465 31.5861C37.4447 31.5827 37.4428 31.5793 37.4409 31.5759L29.4712 19.9702L28.8669 20.3214L36.8365 31.9271C36.8433 31.9392 36.8495 31.9513 36.8553 31.9632C36.8559 31.9645 36.8566 31.9657 36.8572 31.967C36.8628 31.9788 36.868 31.9904 36.8727 32.0018C36.8781 32.0152 36.8824 32.0267 36.8863 32.038C36.8904 32.0504 36.8937 32.0615 36.8967 32.0724C36.9002 32.0861 36.9027 32.0968 36.9047 32.1072C36.9067 32.1182 36.9083 32.1285 36.9094 32.1386C36.9095 32.1394 36.9096 32.1403 36.9097 32.1411C36.9108 32.1511 36.9115 32.161 36.9118 32.1705C36.9121 32.1804 36.912 32.1897 36.9115 32.1988C36.9108 32.2096 36.9099 32.2177 36.9088 32.2256C36.9071 32.2364 36.9057 32.2437 36.9039 32.2508C36.9009 32.2623 36.8987 32.2693 36.8962 32.2759C36.893 32.2841 36.8905 32.2896 36.8878 32.2949C36.8861 32.2984 36.8841 32.3016 36.8822 32.3049C36.8805 32.3079 36.8788 32.3109 36.8769 32.3137C36.8712 32.3223 36.8648 32.3301 36.8578 32.3372C36.8563 32.3387 36.8548 32.34 36.8533 32.3414C36.8458 32.3483 36.838 32.3546 36.8293 32.3596L36.9892 32.2667C37.1041 32.2015 37.2563 32.1153 37.3612 32.0505L37.4337 32.0084C37.4479 32.0001 37.4603 31.9889 37.4713 31.9758C37.479 31.9689 37.4832 31.9638 37.4825 31.961C37.4885 31.9504 37.4904 31.9472 37.4922 31.9437C37.495 31.9377 37.4967 31.9339 37.4983 31.93C37.5 31.9277 37.5011 31.9257 37.5008 31.9243C37.5025 31.9197 37.5041 31.9148 37.5056 31.9099C37.5062 31.9079 37.5066 31.9058 37.5072 31.9038C37.5086 31.8982 37.509 31.8968 37.5093 31.8954C37.5103 31.8912 37.5112 31.8869 37.512 31.8824C37.5123 31.8808 37.5125 31.8792 37.5127 31.8776C37.5134 31.8727 37.5137 31.8711 37.5139 31.8694C37.5145 31.8652 37.5149 31.861 37.5153 31.8566C37.5154 31.8544 37.5156 31.8522 37.5157 31.85C37.5159 31.8466 37.516 31.8455 37.516 31.8444C37.5162 31.8404 37.5163 31.8362 37.5163 31.832Z" fill="url(#paint6_linear_21_7082)"/>
<path fill-rule="evenodd" clip-rule="evenodd" d="M29.3737 9.44513C29.3736 9.44385 29.3734 9.44252 29.3731 9.44123C29.3723 9.43587 29.3714 9.43056 29.3704 9.42528C29.3694 9.42001 29.3683 9.41478 29.3672 9.4095C29.3661 9.40432 29.3649 9.39913 29.3636 9.39403C29.3623 9.38892 29.361 9.38386 29.3596 9.37889C29.358 9.37297 29.3566 9.36847 29.3553 9.36397C29.3538 9.3593 29.3523 9.35458 29.3508 9.34995C29.3492 9.34532 29.3476 9.34077 29.346 9.33619C29.3444 9.33186 29.3428 9.32757 29.3411 9.32328C29.34 9.32032 29.3388 9.31736 29.3376 9.31445C29.3343 9.30652 29.3326 9.3024 29.3308 9.29837C29.3289 9.29417 29.3271 9.29001 29.3251 9.28594C29.323 9.28148 29.3209 9.2771 29.3187 9.27273C29.3161 9.26754 29.3135 9.2624 29.3108 9.25734C29.309 9.25404 29.3085 9.25322 29.308 9.25241C29.3047 9.24628 29.3013 9.24019 29.2978 9.23423C29.2916 9.22377 29.2852 9.21365 29.2785 9.20374C29.2777 9.20254 29.2769 9.20143 29.2761 9.20023C29.27 9.19152 29.2664 9.18629 29.2627 9.18128C29.2591 9.17639 29.2554 9.17159 29.2517 9.16687C29.2482 9.1625 29.2448 9.15821 29.2413 9.15397C29.2347 9.14625 29.2329 9.1441 29.2311 9.14205C29.2275 9.13802 29.224 9.13407 29.2204 9.13021C29.2167 9.12627 29.213 9.12237 29.2092 9.11855C29.2053 9.11456 29.2014 9.11066 29.1974 9.10689C29.192 9.1017 29.1885 9.09848 29.1851 9.09535C29.1809 9.09158 29.1767 9.08794 29.1725 9.08438C29.1682 9.08082 29.164 9.07735 29.1598 9.074C29.1576 9.07229 29.1555 9.07074 29.1533 9.06907C29.1502 9.06667 29.1486 9.06551 29.1471 9.0644C29.143 9.06135 29.1389 9.05844 29.1348 9.05561C29.1307 9.05282 29.1267 9.05016 29.1226 9.04755C29.1186 9.04502 29.1146 9.04258 29.1107 9.04026C29.1098 9.0397 29.1088 9.03919 29.1079 9.03867C29.1049 9.03692 29.1019 9.03524 29.099 9.03361C29.0951 9.03151 29.0912 9.0295 29.0873 9.02761C29.0858 9.02688 29.0843 9.0262 29.0828 9.02547C29.0788 9.02362 29.0773 9.02285 29.0758 9.02221C29.072 9.02049 29.0682 9.01887 29.0644 9.01736C29.0618 9.01634 29.0592 9.01539 29.0566 9.01441C29.0542 9.01351 29.0536 9.01329 29.0531 9.01308C29.0493 9.01175 29.0455 9.0105 29.0417 9.00935C29.0379 9.00819 29.034 9.00716 29.0302 9.00617L29.0299 9.00613C29.0258 9.0051 29.0222 9.00429 29.0187 9.00364C29.0147 9.00287 29.0108 9.00219 29.007 9.00167C29.0005 9.00099 28.9976 9.00064 28.9948 9.00043C28.9905 9.00013 28.9863 9 28.9822 9C28.9756 9.00026 28.9721 9.0003 28.9687 9.00064C28.9658 9.0009 28.963 9.00141 28.9603 9.00184C28.9589 9.00206 28.9575 9.00219 28.9561 9.00244C28.9477 9.00399 28.9419 9.00562 28.9361 9.00759C28.9288 9.0102 28.9219 9.01333 28.9154 9.01715L28.311 9.36834C28.3176 9.36457 28.3244 9.36144 28.3315 9.35891C28.338 9.35664 28.3448 9.35492 28.3518 9.35368C28.3621 9.35214 28.3683 9.35154 28.3747 9.35136C28.3841 9.35119 28.3915 9.35166 28.399 9.35252C28.4089 9.35377 28.4169 9.35522 28.425 9.3572C28.4337 9.35938 28.4421 9.36195 28.4504 9.36491C28.4601 9.36851 28.468 9.37182 28.476 9.3755C28.4768 9.37593 28.4776 9.37632 28.4785 9.3767C28.4868 9.38069 28.4952 9.38502 28.5035 9.38987C28.5182 9.39831 28.5328 9.40809 28.5472 9.41902C28.5478 9.41945 28.5484 9.41988 28.549 9.42031C28.5632 9.43116 28.5773 9.44312 28.591 9.45615C28.6057 9.47013 28.6191 9.48441 28.6321 9.49958C28.6458 9.51579 28.6579 9.53153 28.6692 9.54795C28.67 9.54911 28.6709 9.55026 28.6717 9.55146C28.6831 9.5681 28.6937 9.58551 28.7036 9.60364C28.7152 9.62491 28.7245 9.64446 28.7328 9.66465L28.7332 9.6656C28.7415 9.68605 28.7488 9.7071 28.7548 9.72875C28.7611 9.75105 28.7659 9.77347 28.7694 9.79637L29.5509 21.5863L30.1553 21.2351L29.3737 9.44513Z" fill="url(#paint7_linear_21_7082)"/>
<path fill-rule="evenodd" clip-rule="evenodd" d="M29.4969 23.2666C29.3877 24.359 27.8556 24.3574 27.7481 23.2588C27.7456 24.6405 27.6616 38.3714 27.7528 38.7267C28.0595 39.5216 29.0355 39.5151 29.3915 38.8525C29.3983 38.8231 29.4167 38.7635 29.4284 38.7292C29.4279 38.7523 29.4273 38.766 29.4267 38.7687C29.4295 38.7484 29.4416 38.6687 29.4512 38.637C29.4509 38.6682 29.4504 38.6858 29.45 38.6889C29.4514 38.6762 29.4577 38.5866 29.4647 38.5563C29.4645 38.5887 29.4643 38.607 29.4641 38.6099C29.4648 38.611 29.4648 38.5396 29.4699 38.5177C29.4699 38.5253 29.4699 38.5293 29.4699 38.5294" fill="url(#paint8_linear_21_7082)"/>
<path fill-rule="evenodd" clip-rule="evenodd" d="M27.9664 19.3507C29.0877 19.9981 29.9936 21.5674 29.9899 22.8558C29.9863 24.1442 29.0745 24.6641 27.9532 24.0167C26.832 23.3694 25.9259 21.7999 25.9295 20.5115C25.9332 19.2231 26.8452 18.7034 27.9664 19.3507Z" fill="url(#paint9_linear_21_7082)"/>
<path opacity="0.3" fill-rule="evenodd" clip-rule="evenodd" d="M27.716 38.4438C27.716 38.4438 27.716 38.4437 27.716 38.4437C27.716 38.197 28.1159 37.9971 28.6092 37.9971C29.1026 37.9971 29.5025 38.197 29.5025 38.4437C29.5025 38.4439 29.5025 38.4441 29.5025 38.4443V39.337V39.3371C29.5025 39.5837 29.1026 39.7837 28.6092 39.7837C28.1159 39.7837 27.716 39.5837 27.716 39.3371V39.337V38.4438Z" fill="url(#paint10_linear_21_7082)"/>
<path d="M28.6096 32.9717C29.1027 32.9718 29.5021 33.1537 29.5021 33.3779C29.5021 33.4238 29.4842 33.4667 29.4533 33.5078C29.4846 33.5533 29.502 33.6016 29.5021 33.6523C29.5021 33.8989 29.1027 34.0995 28.6096 34.0996C28.1162 34.0996 27.716 33.899 27.716 33.6523C27.7161 33.6018 27.7328 33.5531 27.7639 33.5078C27.7333 33.4669 27.7161 33.4235 27.716 33.3779C27.716 33.1537 28.1162 32.9717 28.6096 32.9717ZM28.6096 31.3477C28.856 31.3477 29.0789 31.3933 29.2404 31.4668C29.4022 31.5403 29.5021 31.6417 29.5021 31.7539C29.5021 31.7997 29.4842 31.8427 29.4533 31.8838C29.4846 31.9293 29.502 31.9775 29.5021 32.0283C29.5021 32.2749 29.1027 32.4755 28.6096 32.4756C28.1162 32.4756 27.716 32.275 27.716 32.0283C27.7161 31.9778 27.7328 31.9291 27.7639 31.8838C27.7492 31.8641 27.7376 31.8441 27.7297 31.8232C27.7287 31.8207 27.7286 31.8179 27.7277 31.8154C27.7209 31.7952 27.716 31.775 27.716 31.7539C27.716 31.6138 27.8721 31.49 28.1096 31.417C28.2523 31.3731 28.4244 31.3477 28.6096 31.3477Z" fill="url(#paint11_linear_21_7082)"/>
<path fill-rule="evenodd" clip-rule="evenodd" d="M29.8825 20.5814C29.4215 19.7817 28.5697 18.8656 27.6278 18.7951C27.6282 18.7949 27.6288 18.7946 27.6292 18.7945C27.6098 18.7789 27.1557 18.8609 27.1697 18.8523C26.9645 18.9371 26.73 19.0704 26.5218 19.2093C28.5116 18.2918 31.1897 22.7844 29.3977 24.1581C29.5574 24.0614 29.7335 23.9744 29.8919 23.8679C30.9005 23.0936 30.474 21.6153 29.8825 20.5814Z" fill="url(#paint12_linear_21_7082)"/>
<path fill-rule="evenodd" clip-rule="evenodd" d="M11.9814 18.2353C12.031 18.264 12.0809 18.315 12.1185 18.3825L17.072 25.8812C17.1927 26.0982 17.089 26.2607 16.9363 26.1726C16.8273 26.1259 11.2907 19.5534 11.2047 19.4819C11.1599 19.4358 11.1262 19.3786 11.1063 19.3221C11.0881 19.367 11.0508 19.3928 10.998 19.3862L5.31976 19.4727C5.12609 19.4459 4.97566 19.0884 5.11378 19.0008L10.0934 17.2367C10.1313 17.2128 10.1814 17.2195 10.231 17.2482C10.3971 17.2664 11.0038 18.986 11.0896 19.119C11.1022 19.1294 11.1078 19.1192 11.1151 19.1104L11.8208 18.244C11.8577 18.1986 11.9194 18.1995 11.9814 18.2353Z" fill="url(#paint13_linear_21_7082)"/>
<path fill-rule="evenodd" clip-rule="evenodd" d="M17.0896 26.1656C17.0866 26.1676 17.0838 26.17 17.0806 26.1718C17.0821 26.1705 17.0854 26.1683 17.0896 26.1656ZM17.5478 25.7847C17.5478 25.7819 17.5478 25.779 17.5477 25.7761C17.5477 25.7731 17.5475 25.7703 17.5473 25.7675C17.5471 25.7647 17.5469 25.7617 17.5466 25.7588C17.5465 25.7576 17.5464 25.7564 17.5462 25.7552C17.5459 25.7523 17.5458 25.7512 17.5457 25.75C17.5453 25.747 17.5449 25.7441 17.5444 25.7411C17.5439 25.7381 17.5434 25.735 17.5428 25.732C17.5428 25.7319 17.5428 25.7319 17.5428 25.7318C17.5422 25.7286 17.5416 25.7257 17.5409 25.7227C17.5403 25.7195 17.5395 25.7164 17.5387 25.7132C17.5384 25.7118 17.538 25.7105 17.5376 25.709C17.5368 25.706 17.5366 25.7048 17.5362 25.7036C17.5353 25.7004 17.5344 25.6972 17.5334 25.694C17.5324 25.6909 17.5315 25.6877 17.5304 25.6846C17.5303 25.6843 17.5302 25.684 17.5301 25.6838C17.529 25.6804 17.528 25.6777 17.527 25.675C17.5259 25.6718 17.5247 25.6686 17.5235 25.6654C17.5226 25.6633 17.5217 25.6611 17.5208 25.6589C17.5201 25.6572 17.5199 25.6567 17.5197 25.6561C17.5184 25.653 17.5171 25.6499 17.5157 25.6467C17.5143 25.6436 17.5128 25.6404 17.5113 25.6372L17.5082 25.6307C17.5072 25.6288 17.5064 25.6269 17.5054 25.6249C17.5033 25.6208 17.5012 25.6167 17.499 25.6126C17.4977 25.6102 17.4964 25.6078 17.495 25.6054L11.9163 17.4814L11.4932 17.7273L17.072 25.8513C17.0767 25.8598 17.081 25.8682 17.0851 25.8765C17.0855 25.8774 17.086 25.8783 17.0864 25.8792C17.0904 25.8874 17.094 25.8956 17.0973 25.9036C17.1011 25.9129 17.1041 25.921 17.1068 25.9289C17.1097 25.9376 17.112 25.9453 17.1141 25.953C17.1166 25.9626 17.1183 25.97 17.1197 25.9774C17.1211 25.985 17.1222 25.9922 17.123 25.9993C17.1231 25.9999 17.1231 26.0005 17.1232 26.0011C17.1239 26.0081 17.1244 26.015 17.1247 26.0216C17.1249 26.0286 17.1248 26.0351 17.1244 26.0414C17.124 26.049 17.1234 26.0547 17.1226 26.0602C17.1214 26.0678 17.1204 26.0729 17.1191 26.0779C17.117 26.0859 17.1155 26.0908 17.1138 26.0955C17.1115 26.1011 17.1097 26.105 17.1079 26.1088C17.1066 26.1112 17.1053 26.1134 17.1039 26.1157C17.1027 26.1178 17.1015 26.1199 17.1003 26.1219C17.0962 26.1279 17.0917 26.1334 17.0868 26.1383C17.0858 26.1394 17.0847 26.1403 17.0837 26.1413C17.0785 26.1461 17.073 26.1505 17.0669 26.154L17.1788 26.089C17.2593 26.0434 17.3658 25.983 17.4393 25.9377L17.49 25.9082C17.4999 25.9024 17.5086 25.8946 17.5163 25.8853C17.5217 25.8805 17.5247 25.8769 17.5242 25.875C17.5284 25.8676 17.5297 25.8653 17.5309 25.8629C17.5329 25.8587 17.5341 25.856 17.5352 25.8533C17.5364 25.8517 17.5372 25.8503 17.5369 25.8493C17.5381 25.8461 17.5393 25.8427 17.5403 25.8392C17.5407 25.8378 17.5411 25.8364 17.5414 25.8349C17.5424 25.831 17.5427 25.8301 17.5429 25.8291C17.5436 25.8261 17.5442 25.8231 17.5448 25.82C17.545 25.8189 17.5451 25.8177 17.5453 25.8166C17.5458 25.8132 17.546 25.8121 17.5462 25.8109C17.5465 25.808 17.5468 25.805 17.5471 25.8019C17.5472 25.8004 17.5473 25.7988 17.5474 25.7973C17.5475 25.7949 17.5476 25.7942 17.5476 25.7934C17.5477 25.7906 17.5478 25.7876 17.5478 25.7847Z" fill="url(#paint14_linear_21_7082)"/>
<path fill-rule="evenodd" clip-rule="evenodd" d="M11.2389 10.0749C11.3224 10.1231 11.4057 10.2309 11.425 10.3594L11.9721 17.9871C11.9943 18.1345 11.9043 18.2076 11.7853 18.1389L10.4744 17.382C10.351 17.3108 10.2608 17.1248 10.2914 17.0049L11.055 10.1337C11.0795 10.0372 11.1593 10.0289 11.2389 10.0749Z" fill="url(#paint15_linear_21_7082)"/>
<path fill-rule="evenodd" clip-rule="evenodd" d="M17.0896 26.1656C17.0866 26.1676 17.0838 26.17 17.0806 26.1718C17.0821 26.1705 17.0854 26.1683 17.0896 26.1656ZM17.5478 25.7847C17.5478 25.7819 17.5478 25.779 17.5477 25.7761C17.5477 25.7731 17.5475 25.7703 17.5473 25.7675C17.5471 25.7647 17.5469 25.7617 17.5466 25.7588C17.5465 25.7576 17.5464 25.7564 17.5462 25.7552C17.5459 25.7523 17.5458 25.7512 17.5457 25.75C17.5453 25.747 17.5449 25.7441 17.5444 25.7411C17.5439 25.7381 17.5434 25.735 17.5428 25.732C17.5428 25.7319 17.5428 25.7319 17.5428 25.7318C17.5422 25.7286 17.5416 25.7257 17.5409 25.7227C17.5403 25.7195 17.5395 25.7164 17.5387 25.7132C17.5384 25.7118 17.538 25.7105 17.5376 25.709C17.5368 25.706 17.5366 25.7048 17.5362 25.7036C17.5353 25.7004 17.5344 25.6972 17.5334 25.694C17.5324 25.6909 17.5315 25.6877 17.5304 25.6846C17.5303 25.6843 17.5302 25.684 17.5301 25.6838C17.529 25.6804 17.528 25.6777 17.527 25.675C17.5259 25.6718 17.5247 25.6686 17.5235 25.6654C17.5226 25.6633 17.5217 25.6611 17.5208 25.6589C17.5201 25.6572 17.5199 25.6567 17.5197 25.6561C17.5184 25.653 17.5171 25.6499 17.5157 25.6467C17.5143 25.6436 17.5128 25.6404 17.5113 25.6372L17.5082 25.6307C17.5072 25.6288 17.5064 25.6269 17.5054 25.6249C17.5033 25.6208 17.5012 25.6167 17.499 25.6126C17.4977 25.6102 17.4964 25.6078 17.495 25.6054L11.9163 17.4814L11.4932 17.7273L17.072 25.8513C17.0767 25.8598 17.081 25.8682 17.0851 25.8765C17.0855 25.8774 17.086 25.8783 17.0864 25.8792C17.0904 25.8874 17.094 25.8956 17.0973 25.9036C17.1011 25.9129 17.1041 25.921 17.1068 25.9289C17.1097 25.9376 17.112 25.9453 17.1141 25.953C17.1166 25.9626 17.1183 25.97 17.1197 25.9774C17.1211 25.985 17.1222 25.9922 17.123 25.9993C17.1231 25.9999 17.1231 26.0005 17.1232 26.0011C17.1239 26.0081 17.1244 26.015 17.1247 26.0216C17.1249 26.0286 17.1248 26.0351 17.1244 26.0414C17.124 26.049 17.1234 26.0547 17.1226 26.0602C17.1214 26.0678 17.1204 26.0729 17.1191 26.0779C17.117 26.0859 17.1155 26.0908 17.1138 26.0955C17.1115 26.1011 17.1097 26.105 17.1079 26.1088C17.1066 26.1112 17.1053 26.1134 17.1039 26.1157C17.1027 26.1178 17.1015 26.1199 17.1003 26.1219C17.0962 26.1279 17.0917 26.1334 17.0868 26.1383C17.0858 26.1394 17.0847 26.1403 17.0837 26.1413C17.0785 26.1461 17.073 26.1505 17.0669 26.154L17.1788 26.089C17.2593 26.0434 17.3658 25.983 17.4393 25.9377L17.49 25.9082C17.4999 25.9024 17.5086 25.8946 17.5163 25.8853C17.5217 25.8805 17.5247 25.8769 17.5242 25.875C17.5284 25.8676 17.5297 25.8653 17.5309 25.8629C17.5329 25.8587 17.5341 25.856 17.5352 25.8533C17.5364 25.8517 17.5372 25.8503 17.5369 25.8493C17.5381 25.8461 17.5393 25.8427 17.5403 25.8392C17.5407 25.8378 17.5411 25.8364 17.5414 25.8349C17.5424 25.831 17.5427 25.8301 17.5429 25.8291C17.5436 25.8261 17.5442 25.8231 17.5448 25.82C17.545 25.8189 17.5451 25.8177 17.5453 25.8166C17.5458 25.8132 17.546 25.8121 17.5462 25.8109C17.5465 25.808 17.5468 25.805 17.5471 25.8019C17.5472 25.8004 17.5473 25.7988 17.5474 25.7973C17.5475 25.7949 17.5476 25.7942 17.5476 25.7934C17.5477 25.7906 17.5478 25.7876 17.5478 25.7847Z" fill="url(#paint16_linear_21_7082)"/>
<path fill-rule="evenodd" clip-rule="evenodd" d="M17.0896 26.1656C17.0866 26.1676 17.0838 26.17 17.0806 26.1718C17.0821 26.1705 17.0854 26.1683 17.0896 26.1656ZM17.5478 25.7847C17.5478 25.7819 17.5478 25.779 17.5477 25.7761C17.5477 25.7731 17.5475 25.7703 17.5473 25.7675C17.5471 25.7647 17.5469 25.7617 17.5466 25.7588C17.5465 25.7576 17.5464 25.7564 17.5462 25.7552C17.5459 25.7523 17.5458 25.7512 17.5457 25.75C17.5453 25.747 17.5449 25.7441 17.5444 25.7411C17.5439 25.7381 17.5434 25.735 17.5428 25.732C17.5428 25.7319 17.5428 25.7319 17.5428 25.7318C17.5422 25.7286 17.5416 25.7257 17.5409 25.7227C17.5403 25.7195 17.5395 25.7164 17.5387 25.7132C17.5384 25.7118 17.538 25.7105 17.5376 25.709C17.5368 25.706 17.5366 25.7048 17.5362 25.7036C17.5353 25.7004 17.5344 25.6972 17.5334 25.694C17.5324 25.6909 17.5315 25.6877 17.5304 25.6846C17.5303 25.6843 17.5302 25.684 17.5301 25.6838C17.529 25.6804 17.528 25.6777 17.527 25.675C17.5259 25.6718 17.5247 25.6686 17.5235 25.6654C17.5226 25.6633 17.5217 25.6611 17.5208 25.6589C17.5201 25.6572 17.5199 25.6567 17.5197 25.6561C17.5184 25.653 17.5171 25.6499 17.5157 25.6467C17.5143 25.6436 17.5128 25.6404 17.5113 25.6372L17.5082 25.6307C17.5072 25.6288 17.5064 25.6269 17.5054 25.6249C17.5033 25.6208 17.5012 25.6167 17.499 25.6126C17.4977 25.6102 17.4964 25.6078 17.495 25.6054L11.9163 17.4814L11.4932 17.7273L17.072 25.8513C17.0767 25.8598 17.081 25.8682 17.0851 25.8765C17.0855 25.8774 17.086 25.8783 17.0864 25.8792C17.0904 25.8874 17.094 25.8956 17.0973 25.9036C17.1011 25.9129 17.1041 25.921 17.1068 25.9289C17.1097 25.9376 17.112 25.9453 17.1141 25.953C17.1166 25.9626 17.1183 25.97 17.1197 25.9774C17.1211 25.985 17.1222 25.9922 17.123 25.9993C17.1231 25.9999 17.1231 26.0005 17.1232 26.0011C17.1239 26.0081 17.1244 26.015 17.1247 26.0216C17.1249 26.0286 17.1248 26.0351 17.1244 26.0414C17.124 26.049 17.1234 26.0547 17.1226 26.0602C17.1214 26.0678 17.1204 26.0729 17.1191 26.0779C17.117 26.0859 17.1155 26.0908 17.1138 26.0955C17.1115 26.1011 17.1097 26.105 17.1079 26.1088C17.1066 26.1112 17.1053 26.1134 17.1039 26.1157C17.1027 26.1178 17.1015 26.1199 17.1003 26.1219C17.0962 26.1279 17.0917 26.1334 17.0868 26.1383C17.0858 26.1394 17.0847 26.1403 17.0837 26.1413C17.0785 26.1461 17.073 26.1505 17.0669 26.154L17.1788 26.089C17.2593 26.0434 17.3658 25.983 17.4393 25.9377L17.49 25.9082C17.4999 25.9024 17.5086 25.8946 17.5163 25.8853C17.5217 25.8805 17.5247 25.8769 17.5242 25.875C17.5284 25.8676 17.5297 25.8653 17.5309 25.8629C17.5329 25.8587 17.5341 25.856 17.5352 25.8533C17.5364 25.8517 17.5372 25.8503 17.5369 25.8493C17.5381 25.8461 17.5393 25.8427 17.5403 25.8392C17.5407 25.8378 17.5411 25.8364 17.5414 25.8349C17.5424 25.831 17.5427 25.8301 17.5429 25.8291C17.5436 25.8261 17.5442 25.8231 17.5448 25.82C17.545 25.8189 17.5451 25.8177 17.5453 25.8166C17.5458 25.8132 17.546 25.8121 17.5462 25.8109C17.5465 25.808 17.5468 25.805 17.5471 25.8019C17.5472 25.8004 17.5473 25.7988 17.5474 25.7973C17.5475 25.7949 17.5476 25.7942 17.5476 25.7934C17.5477 25.7906 17.5478 25.7876 17.5478 25.7847Z" fill="url(#paint17_linear_21_7082)"/>
<path fill-rule="evenodd" clip-rule="evenodd" d="M11.8473 10.1138C11.8472 10.1129 11.847 10.112 11.8469 10.1111C11.8463 10.1074 11.8456 10.1036 11.8449 10.0999C11.8442 10.0963 11.8435 10.0926 11.8427 10.0889C11.8419 10.0853 11.8411 10.0816 11.8402 10.0781C11.8393 10.0745 11.8384 10.071 11.8374 10.0675C11.8362 10.0633 11.8353 10.0602 11.8343 10.057C11.8333 10.0538 11.8323 10.0505 11.8312 10.0472C11.8301 10.044 11.829 10.0408 11.8279 10.0376C11.8268 10.0345 11.8256 10.0315 11.8245 10.0285C11.8236 10.0265 11.8228 10.0244 11.822 10.0224C11.8197 10.0168 11.8185 10.0139 11.8172 10.0111C11.8159 10.0082 11.8146 10.0053 11.8133 10.0024C11.8118 9.99928 11.8103 9.99622 11.8088 9.99316C11.807 9.98953 11.8051 9.98592 11.8032 9.98238C11.802 9.98007 11.8016 9.9795 11.8013 9.97893C11.799 9.97464 11.7966 9.97038 11.7941 9.96621C11.7898 9.95888 11.7854 9.9518 11.7807 9.94487C11.7801 9.94403 11.7795 9.94325 11.779 9.94241C11.7747 9.93631 11.7722 9.93265 11.7696 9.92914C11.7671 9.92572 11.7645 9.92236 11.7619 9.91906C11.7595 9.91599 11.7571 9.91299 11.7547 9.91002C11.75 9.90462 11.7488 9.90312 11.7475 9.90168C11.745 9.89886 11.7425 9.8961 11.74 9.89339C11.7374 9.89063 11.7348 9.8879 11.7322 9.88523C11.7295 9.88244 11.7267 9.87971 11.724 9.87707C11.7201 9.87344 11.7177 9.87119 11.7153 9.86899C11.7124 9.86635 11.7095 9.8638 11.7065 9.86131C11.7036 9.85882 11.7006 9.85639 11.6976 9.85405C11.6961 9.85285 11.6946 9.85177 11.6931 9.8506C11.6909 9.84892 11.6899 9.84811 11.6888 9.84733C11.6859 9.84519 11.6831 9.84315 11.6802 9.84117C11.6773 9.83922 11.6745 9.83736 11.6717 9.83553C11.6689 9.83376 11.6661 9.83205 11.6633 9.83043C11.6627 9.83004 11.662 9.82968 11.6614 9.82932C11.6593 9.82809 11.6572 9.82692 11.6551 9.82578C11.6524 9.82431 11.6497 9.82289 11.647 9.82157C11.6459 9.82106 11.6449 9.82058 11.6438 9.82007C11.6411 9.81878 11.64 9.81824 11.639 9.81779C11.6363 9.81659 11.6336 9.81545 11.631 9.8144C11.6291 9.81368 11.6273 9.81302 11.6255 9.81233C11.6238 9.8117 11.6234 9.81155 11.623 9.8114C11.6204 9.81047 11.6177 9.8096 11.6151 9.80879C11.6124 9.80798 11.6097 9.80726 11.6071 9.80657L11.6068 9.80654C11.6039 9.80582 11.6014 9.80525 11.599 9.8048C11.5962 9.80426 11.5935 9.80378 11.5908 9.80342C11.5863 9.80294 11.5843 9.8027 11.5823 9.80255C11.5793 9.80234 11.5764 9.80225 11.5734 9.80225C11.5688 9.80243 11.5664 9.80246 11.564 9.8027C11.562 9.80288 11.5601 9.80324 11.5581 9.80354C11.5572 9.80369 11.5562 9.80378 11.5552 9.80396C11.5494 9.80504 11.5453 9.80618 11.5412 9.80756C11.5361 9.80939 11.5313 9.81158 11.5268 9.81425L11.1041 10.0601C11.1087 10.0574 11.1135 10.0553 11.1185 10.0535C11.123 10.0519 11.1278 10.0507 11.1326 10.0498C11.1398 10.0487 11.1442 10.0483 11.1486 10.0482C11.1552 10.0481 11.1604 10.0484 11.1657 10.049C11.1726 10.0499 11.1782 10.0509 11.1838 10.0523C11.1899 10.0538 11.1958 10.0556 11.2016 10.0577C11.2084 10.0602 11.2139 10.0625 11.2195 10.0651C11.22 10.0654 11.2206 10.0657 11.2212 10.0659C11.227 10.0687 11.2329 10.0718 11.2387 10.0752C11.249 10.0811 11.2592 10.0879 11.2693 10.0956C11.2697 10.0959 11.2701 10.0962 11.2705 10.0965C11.2805 10.1041 11.2903 10.1124 11.2999 10.1216C11.3102 10.1313 11.3196 10.1413 11.3286 10.152C11.3383 10.1633 11.3467 10.1743 11.3546 10.1858C11.3552 10.1866 11.3558 10.1874 11.3563 10.1883C11.3643 10.1999 11.3717 10.2121 11.3787 10.2248C11.3868 10.2397 11.3933 10.2534 11.3991 10.2675L11.3993 10.2682C11.4052 10.2825 11.4102 10.2972 11.4145 10.3124C11.4188 10.328 11.4222 10.3437 11.4246 10.3597L11.9712 18.6126L12.3938 18.3668L11.8473 10.1138Z" fill="url(#paint18_linear_21_7082)"/>
<path fill-rule="evenodd" clip-rule="evenodd" d="M11.933 19.7887C11.8566 20.5534 10.7852 20.5522 10.7101 19.7832C10.7083 20.7504 10.6496 30.362 10.7133 30.6108C10.9278 31.1672 11.6103 31.1626 11.8593 30.6988C11.864 30.6782 11.8769 30.6365 11.8851 30.6125C11.8847 30.6287 11.8843 30.6383 11.8839 30.6401C11.8859 30.6259 11.8943 30.5701 11.901 30.5479C11.9008 30.5698 11.9005 30.5821 11.9002 30.5843C11.9012 30.5754 11.9055 30.5127 11.9104 30.4914C11.9103 30.5141 11.9102 30.5269 11.9101 30.529C11.9105 30.5297 11.9105 30.4798 11.9141 30.4645C11.9141 30.4698 11.9141 30.4725 11.9141 30.4726" fill="url(#paint19_linear_21_7082)"/>
<path fill-rule="evenodd" clip-rule="evenodd" d="M10.8629 17.048C11.6478 17.5011 12.2819 18.5996 12.2794 19.5015C12.2768 20.4034 11.6386 20.7673 10.8537 20.3141C10.0688 19.861 9.43454 18.7624 9.43708 17.8605C9.43965 16.9586 10.0781 16.5948 10.8629 17.048Z" fill="url(#paint20_linear_21_7082)"/>
<g opacity="0.3" filter="url(#filter1_i_21_7082)">
<path fill-rule="evenodd" clip-rule="evenodd" d="M11.9369 30.4145C11.9369 30.4141 11.9369 30.4136 11.9369 30.4132C11.9369 30.2406 11.6572 30.1006 11.3123 30.1006C10.9673 30.1006 10.6876 30.2406 10.6876 30.4132C10.6876 30.4133 10.6876 30.4133 10.6876 30.4133H10.6876V31.0386V31.0386C10.6876 31.2113 10.9673 31.3512 11.3123 31.3512C11.6572 31.3512 11.9369 31.2113 11.9369 31.0386V31.0386V30.4145Z" fill="url(#paint21_linear_21_7082)"/>
</g>
<path fill-rule="evenodd" clip-rule="evenodd" d="M12.2042 17.9095C11.8815 17.3497 11.2852 16.7084 10.6259 16.6591C10.6262 16.6589 10.6266 16.6587 10.6269 16.6586C10.6133 16.6477 10.2954 16.7051 10.3052 16.6991C10.1616 16.7585 9.9974 16.8518 9.85168 16.949C11.2445 16.3067 13.1192 19.4516 11.8648 20.4132C11.9766 20.3455 12.0999 20.2846 12.2108 20.21C12.9168 19.668 12.6182 18.6332 12.2042 17.9095Z" fill="url(#paint22_linear_21_7082)"/>
<path fill-rule="evenodd" clip-rule="evenodd" d="M6.27124 16.3821L1.44722 18.7941L0.552795 17.0052L5.48857 14.5373L5.54602 14.5182C5.5505 14.5165 5.55967 14.5128 5.57255 14.5072C5.60297 14.4939 5.64901 14.4719 5.7003 14.4411C5.8146 14.3725 5.89224 14.2986 5.92826 14.2385L5.92901 14.2373C5.94486 14.2109 5.97519 14.1605 5.93518 14.0138C5.88382 13.8255 5.70684 13.4642 5.16511 12.9225L6.57932 11.5083C7.25565 12.1846 7.68769 12.8385 7.86471 13.4875C8.05245 14.1759 7.93214 14.786 7.64325 15.2675C7.37476 15.715 6.99563 15.9963 6.72929 16.1561C6.59026 16.2395 6.465 16.2999 6.37172 16.3406C6.33314 16.3574 6.29927 16.3712 6.27124 16.3821Z" fill="white"/>
<path fill-rule="evenodd" clip-rule="evenodd" d="M46.2518 18.2251L43.698 19.5932L42.7536 17.8302L45.3339 16.4479C45.2882 16.3754 45.2137 16.2749 45.0933 16.1459L46.5554 14.7812C46.9471 15.2009 47.2248 15.6354 47.3416 16.0942C47.4664 16.5845 47.3892 17.036 47.1841 17.4022C46.9948 17.7402 46.7291 17.95 46.5478 18.0666C46.4526 18.1278 46.3664 18.1724 46.3008 18.203C46.2832 18.2112 46.2668 18.2186 46.2518 18.2251ZM45.4751 16.3778C45.4751 16.3778 45.4742 16.3787 45.4721 16.3802C45.474 16.3785 45.475 16.3778 45.4751 16.3778Z" fill="white"/>
<path opacity="0.4" d="M18.4801 14.9529L21.3616 14.331C21.3616 14.331 22.7384 14.2431 21.8732 12.5468" stroke="white" stroke-width="2"/>
<path fill-rule="evenodd" clip-rule="evenodd" d="M41.9868 16.5041L35.5397 19.6125L34.6711 17.811L41.2298 14.6488L41.289 14.6297C41.2901 14.6293 41.2918 14.6287 41.2939 14.628C41.3035 14.6245 41.322 14.6175 41.3475 14.6068C41.3991 14.585 41.4743 14.5502 41.5577 14.502C41.7377 14.3978 41.8882 14.2704 41.9707 14.1378C42.0301 14.0423 42.0828 13.9078 42.0098 13.6495C41.9243 13.3472 41.6525 12.8416 40.9076 12.1233L42.2959 10.6836C43.175 11.5314 43.7153 12.3308 43.9343 13.1052C44.1657 13.9236 44.0154 14.6373 43.6688 15.1944C43.3454 15.7142 42.8868 16.0436 42.5593 16.2331C42.3889 16.3317 42.2357 16.4029 42.1224 16.4505C42.0684 16.4732 42.0225 16.491 41.9868 16.5041Z" fill="white"/>
<defs>
<filter id="filter0_i_21_7082" x="0" y="17" width="48" height="27.8032" filterUnits="userSpaceOnUse" color-interpolation-filters="sRGB">
<feFlood flood-opacity="0" result="BackgroundImageFix"/>
<feBlend mode="normal" in="SourceGraphic" in2="BackgroundImageFix" result="shape"/>
<feColorMatrix in="SourceAlpha" type="matrix" values="0 0 0 0 0 0 0 0 0 0 0 0 0 0 0 0 0 0 127 0" result="hardAlpha"/>
<feOffset dy="-1"/>
<feComposite in2="hardAlpha" operator="arithmetic" k2="-1" k3="1"/>
<feColorMatrix type="matrix" values="0 0 0 0 0.501879 0 0 0 0 0.150356 0 0 0 0 0.150356 0 0 0 0.3 0"/>
<feBlend mode="normal" in2="shape" result="effect1_innerShadow_21_7082"/>
</filter>
<filter id="filter1_i_21_7082" x="10.6876" y="30.1006" width="1.24927" height="1.25049" filterUnits="userSpaceOnUse" color-interpolation-filters="sRGB">
<feFlood flood-opacity="0" result="BackgroundImageFix"/>
<feBlend mode="normal" in="SourceGraphic" in2="BackgroundImageFix" result="shape"/>
<feColorMatrix in="SourceAlpha" type="matrix" values="0 0 0 0 0 0 0 0 0 0 0 0 0 0 0 0 0 0 127 0" result="hardAlpha"/>
<feOffset dx="-4" dy="-2"/>
<feGaussianBlur stdDeviation="0.5"/>
<feComposite in2="hardAlpha" operator="arithmetic" k2="-1" k3="1"/>
<feColorMatrix type="matrix" values="0 0 0 0 0 0 0 0 0 0 0 0 0 0 0 0 0 0 0.5 0"/>
<feBlend mode="normal" in2="shape" result="effect1_innerShadow_21_7082"/>
</filter>
<linearGradient id="paint0_linear_21_7082" x1="26.0619" y1="7.28658" x2="5.06518" y2="46.0808" gradientUnits="userSpaceOnUse">
<stop stop-color="#254F76"/>
<stop offset="1" stop-color="#E85757"/>
</linearGradient>
<linearGradient id="paint1_linear_21_7082" x1="-4.93752" y1="13.8496" x2="-8.70959" y2="42.5857" gradientUnits="userSpaceOnUse">
<stop stop-color="#BB632B"/>
<stop offset="1" stop-color="#FFD29A"/>
</linearGradient>
<linearGradient id="paint2_linear_21_7082" x1="19.6768" y1="19.6001" x2="19.6768" y2="32.4213" gradientUnits="userSpaceOnUse">
<stop stop-color="white"/>
<stop offset="1" stop-color="#D7DAEB"/>
</linearGradient>
<linearGradient id="paint3_linear_21_7082" x1="26.15" y1="20.3165" x2="30.5754" y2="33.2783" gradientUnits="userSpaceOnUse">
<stop stop-color="#2B366F"/>
<stop offset="1" stop-color="#E9EDFF"/>
</linearGradient>
<linearGradient id="paint4_linear_21_7082" x1="27.1414" y1="9.35107" x2="27.1414" y2="20.9469" gradientUnits="userSpaceOnUse">
<stop stop-color="white"/>
<stop offset="1" stop-color="#D7DAEB"/>
</linearGradient>
<linearGradient id="paint5_linear_21_7082" x1="26.15" y1="20.3165" x2="30.5754" y2="33.2783" gradientUnits="userSpaceOnUse">
<stop stop-color="#2B366F"/>
<stop offset="1" stop-color="#E9EDFF"/>
</linearGradient>
<linearGradient id="paint6_linear_21_7082" x1="26.15" y1="20.3165" x2="30.5754" y2="33.2783" gradientUnits="userSpaceOnUse">
<stop stop-color="#2B366F"/>
<stop offset="1" stop-color="#E9EDFF"/>
</linearGradient>
<linearGradient id="paint7_linear_21_7082" x1="27.7317" y1="9.35107" x2="34.2839" y2="13.3873" gradientUnits="userSpaceOnUse">
<stop stop-color="#E9EDFF"/>
<stop offset="1" stop-color="#2B366F"/>
</linearGradient>
<linearGradient id="paint8_linear_21_7082" x1="29.4969" y1="23.2588" x2="27.7104" y2="23.2588" gradientUnits="userSpaceOnUse">
<stop stop-color="#E9EDFF"/>
<stop offset="0.441988" stop-color="#F5F7FF"/>
<stop offset="0.762561" stop-color="#B2B8D5"/>
<stop offset="1" stop-color="#6C739A"/>
</linearGradient>
<linearGradient id="paint9_linear_21_7082" x1="25.9295" y1="19.0723" x2="25.9295" y2="24.2952" gradientUnits="userSpaceOnUse">
<stop stop-color="white"/>
<stop offset="1" stop-color="#D7DAEB"/>
</linearGradient>
<linearGradient id="paint10_linear_21_7082" x1="27.7994" y1="38.317" x2="28.4393" y2="39.9366" gradientUnits="userSpaceOnUse">
<stop stop-color="#201E30"/>
<stop offset="1" stop-color="#989EB9"/>
</linearGradient>
<linearGradient id="paint11_linear_21_7082" x1="27.2558" y1="32.5548" x2="29.2157" y2="33.9876" gradientUnits="userSpaceOnUse">
<stop stop-color="#FE4D59"/>
<stop offset="1" stop-color="#C8131C"/>
</linearGradient>
<linearGradient id="paint12_linear_21_7082" x1="25.2728" y1="18.9421" x2="27.0931" y2="24.6129" gradientUnits="userSpaceOnUse">
<stop stop-color="#E9EDFF"/>
<stop offset="1" stop-color="#2B366F"/>
</linearGradient>
<linearGradient id="paint13_linear_21_7082" x1="5.06018" y1="17.2222" x2="5.06018" y2="26.197" gradientUnits="userSpaceOnUse">
<stop stop-color="white"/>
<stop offset="1" stop-color="#D7DAEB"/>
</linearGradient>
<linearGradient id="paint14_linear_21_7082" x1="9.5914" y1="17.7238" x2="12.6892" y2="26.7971" gradientUnits="userSpaceOnUse">
<stop stop-color="#2B366F"/>
<stop offset="1" stop-color="#E9EDFF"/>
</linearGradient>
<linearGradient id="paint15_linear_21_7082" x1="10.2854" y1="10.0479" x2="10.2854" y2="18.1649" gradientUnits="userSpaceOnUse">
<stop stop-color="white"/>
<stop offset="1" stop-color="#D7DAEB"/>
</linearGradient>
<linearGradient id="paint16_linear_21_7082" x1="9.5914" y1="17.7238" x2="12.6892" y2="26.7971" gradientUnits="userSpaceOnUse">
<stop stop-color="#2B366F"/>
<stop offset="1" stop-color="#E9EDFF"/>
</linearGradient>
<linearGradient id="paint17_linear_21_7082" x1="9.5914" y1="17.7238" x2="12.6892" y2="26.7971" gradientUnits="userSpaceOnUse">
<stop stop-color="#2B366F"/>
<stop offset="1" stop-color="#E9EDFF"/>
</linearGradient>
<linearGradient id="paint18_linear_21_7082" x1="10.699" y1="10.048" x2="15.2834" y2="12.8692" gradientUnits="userSpaceOnUse">
<stop stop-color="#E9EDFF"/>
<stop offset="1" stop-color="#2B366F"/>
</linearGradient>
<linearGradient id="paint19_linear_21_7082" x1="11.933" y1="19.7832" x2="10.6837" y2="19.7832" gradientUnits="userSpaceOnUse">
<stop stop-color="#E9EDFF"/>
<stop offset="0.441988" stop-color="#F5F7FF"/>
<stop offset="0.762561" stop-color="#B2B8D5"/>
<stop offset="1" stop-color="#6C739A"/>
</linearGradient>
<linearGradient id="paint20_linear_21_7082" x1="9.43707" y1="16.853" x2="9.43707" y2="20.5091" gradientUnits="userSpaceOnUse">
<stop stop-color="white"/>
<stop offset="1" stop-color="#D7DAEB"/>
</linearGradient>
<linearGradient id="paint21_linear_21_7082" x1="10.746" y1="30.3245" x2="11.1942" y2="31.4579" gradientUnits="userSpaceOnUse">
<stop stop-color="#201E30"/>
<stop offset="1" stop-color="#989EB9"/>
</linearGradient>
<linearGradient id="paint22_linear_21_7082" x1="8.9774" y1="16.762" x2="10.2516" y2="20.7315" gradientUnits="userSpaceOnUse">
<stop stop-color="#E9EDFF"/>
<stop offset="1" stop-color="#2B366F"/>
</linearGradient>
</defs>
</svg>
