<svg width="48" height="48" viewBox="0 0 48 48" fill="none" xmlns="http://www.w3.org/2000/svg">
<g filter="url(#filter0_i_21_6925)">
<path fill-rule="evenodd" clip-rule="evenodd" d="M46.4009 29.4277C48.5233 30.6531 48.5344 32.6399 46.4259 33.8651L27.9041 44.6288C25.7957 45.8543 22.3656 45.8543 20.2432 44.6288L1.59918 33.8647C-0.523205 32.6393 -0.534501 30.6525 1.57417 29.4271L20.0957 18.6637C22.2044 17.4383 25.6343 17.4383 27.7567 18.6635L46.4009 29.4277Z" fill="url(#paint0_linear_21_6925)"/>
</g>
<path d="M20.0957 18.6636C22.2044 17.4383 25.6345 17.4384 27.7568 18.6636L46.4004 29.4282C46.4777 29.4729 46.5523 29.5184 46.624 29.5649C44.9424 31.1344 39.1702 36.1735 35.7295 34.7974C31.6695 33.1734 28.4213 40.4809 24.3613 39.6694C20.3012 38.8574 19.4886 32.3614 8.12012 31.5493C4.96182 31.3237 4.31187 29.6571 5.08789 27.3843L20.0957 18.6636Z" fill="url(#paint1_linear_21_6925)"/>
<path d="M20.0959 18.6636C22.2046 17.4383 25.6347 17.4384 27.757 18.6636L46.4006 29.4272C46.431 29.4448 46.4608 29.464 46.4904 29.4819C44.413 30.7165 37.5285 34.5423 34.1057 33.1733C30.0456 31.5493 28.4214 40.4808 24.3615 39.6694C20.3013 38.8574 24.3609 30.7373 12.9924 29.9253C9.29821 29.6613 8.5204 27.5968 9.26385 24.9575L20.0959 18.6636Z" fill="url(#paint2_linear_21_6925)"/>
<path d="M20.0953 18.6636C22.2039 17.4382 25.634 17.4385 27.7564 18.6636L46.4009 29.4282C46.4148 29.4362 46.4283 29.4446 46.442 29.4526C44.308 30.5308 37.5017 33.7195 34.105 32.3608C30.0452 30.7378 28.4209 40.4814 24.3609 39.6694C20.301 38.8572 26.7966 30.7373 15.4283 29.9253C11.1809 29.6218 10.4477 26.9377 11.3648 23.7368L20.0953 18.6636Z" fill="url(#paint3_linear_21_6925)"/>
<path d="M20.0959 18.6636C22.2046 17.4383 25.6348 17.4384 27.7571 18.6636L46.093 29.2505C43.3607 29.6064 35.7793 30.4325 32.4817 29.1138C28.4215 27.4897 29.2333 38.8574 25.1731 38.0454C21.113 37.2333 26.7969 29.9259 15.429 29.1138C11.4892 28.8324 10.573 26.6003 11.1926 23.8374L20.0959 18.6636Z" fill="url(#paint4_linear_21_6925)"/>
<path d="M20.0958 18.6636C22.2044 17.4384 25.6337 17.4386 27.756 18.6636L45.2794 28.7798C41.3944 28.0588 32.3832 26.3129 29.2335 25.0532C25.1733 23.4292 29.2331 38.0449 25.173 37.2329C21.1128 36.4209 27.6089 27.4893 16.2404 26.6772C13.1549 26.4568 11.866 25.219 11.6876 23.5493L20.0958 18.6636Z" fill="url(#paint5_linear_21_6925)"/>
<ellipse opacity="0.1" cx="22.3309" cy="22.6168" rx="6.9023" ry="4.06018" fill="url(#paint6_linear_21_6925)"/>
<ellipse opacity="0.24" cx="23.549" cy="22.2108" rx="4.87221" ry="2.84212" fill="url(#paint7_linear_21_6925)"/>
<g filter="url(#filter1_i_21_6925)">
<ellipse cx="23.955" cy="31.955" rx="8.52637" ry="4.46619" fill="#771B1B" fill-opacity="0.4"/>
</g>
<ellipse opacity="0.54" cx="22.737" cy="21.3985" rx="2.43611" ry="1.62407" fill="url(#paint8_linear_21_6925)"/>
<path fill-rule="evenodd" clip-rule="evenodd" d="M5.07085 27.8406L5.03461 27.8137L5.52183 27.1641L5.55213 27.1866C5.73274 27.3195 5.77141 27.5736 5.63851 27.7542C5.50561 27.9348 5.25146 27.9735 5.07085 27.8406ZM6.4311 28.2097C6.53346 28.0102 6.77818 27.9314 6.97769 28.0338L7.05197 28.0717C7.25195 28.1731 7.33182 28.4175 7.23037 28.6174C7.12892 28.8174 6.88456 28.8973 6.68459 28.7958L6.607 28.7563C6.40749 28.6539 6.32874 28.4092 6.4311 28.2097ZM8.061 28.996C8.14697 28.7889 8.38455 28.6907 8.59166 28.7767L8.6696 28.8089C8.87698 28.8942 8.97595 29.1314 8.89065 29.3388C8.80535 29.5462 8.56809 29.6451 8.36071 29.5599L8.28032 29.5266C8.07322 29.4407 7.97503 29.2031 8.061 28.996ZM9.74539 29.6594C9.81814 29.4473 10.0491 29.3343 10.2612 29.4071L10.3411 29.4344C10.5534 29.5066 10.667 29.7372 10.5948 29.9495C10.5227 30.1618 10.2921 30.2754 10.0798 30.2032L9.99771 30.1752C9.7856 30.1025 9.67263 29.8715 9.74539 29.6594ZM11.466 30.2195C11.5269 30.0037 11.7512 29.8781 11.967 29.939L12.0491 29.9621C12.2651 30.0224 12.3912 30.2464 12.3308 30.4624C12.2705 30.6783 12.0465 30.8045 11.8305 30.7441L11.7465 30.7205C11.5306 30.6596 11.4051 30.4353 11.466 30.2195ZM13.2151 30.6861C13.2649 30.4674 13.4825 30.3306 13.7012 30.3804L13.7842 30.3992C14.0029 30.4485 14.1403 30.6658 14.091 30.8845C14.0417 31.1033 13.8244 31.2406 13.6057 31.1914L13.5208 31.1721C13.3022 31.1223 13.1653 30.9047 13.2151 30.6861ZM14.9861 31.0644C15.0253 30.8437 15.2361 30.6965 15.4568 30.7357L15.4992 30.7432L15.3581 31.5429L15.3148 31.5352C15.094 31.496 14.9468 31.2852 14.9861 31.0644Z" fill="#D33232"/>
<path fill-rule="evenodd" clip-rule="evenodd" d="M36.4622 32.4585C36.4675 32.6827 36.29 32.8687 36.0659 32.8739L35.9821 32.876C35.7579 32.8819 35.5714 32.7049 35.5656 32.4808C35.5597 32.2566 35.7367 32.0701 35.9608 32.0643L36.0468 32.0621C36.271 32.0569 36.457 32.2343 36.4622 32.4585ZM37.3404 32.4617C37.3477 32.2376 37.5354 32.0619 37.7595 32.0692L37.845 32.0722C38.0691 32.0802 38.2443 32.2683 38.2363 32.4924C38.2283 32.7165 38.0401 32.8917 37.816 32.8837L37.7329 32.8808C37.5088 32.8735 37.3331 32.6858 37.3404 32.4617ZM34.6896 32.527C34.7076 32.7505 34.5409 32.9463 34.3174 32.9643L34.234 32.9711C34.0105 32.9898 33.8143 32.8237 33.7957 32.6002C33.777 32.3768 33.9431 32.1805 34.1666 32.1619L34.2523 32.1549C34.4758 32.1369 34.6716 32.3035 34.6896 32.527ZM39.1123 32.5509C39.1351 32.3278 39.3344 32.1655 39.5575 32.1883L39.643 32.1972C39.866 32.2208 40.0276 32.4207 40.004 32.6437C39.9804 32.8667 39.7805 33.0283 39.5575 33.0047L39.475 32.9961C39.2519 32.9733 39.0895 32.774 39.1123 32.5509ZM32.923 32.6988C32.9574 32.9204 32.8057 33.1279 32.5841 33.1623L32.5447 33.1685C32.3232 33.2035 32.1153 33.0523 32.0803 32.8308C32.0454 32.6093 32.1966 32.4014 32.4181 32.3664L32.4594 32.3599C32.681 32.3255 32.8886 32.4772 32.923 32.6988ZM40.873 32.7698C40.9154 32.5496 41.1283 32.4055 41.3484 32.4479L41.4335 32.4645C41.6534 32.5079 41.7965 32.7215 41.7531 32.9415C41.7096 33.1615 41.496 33.3046 41.2761 33.2611L41.195 33.2453C40.9748 33.2029 40.8306 32.99 40.873 32.7698ZM42.6048 33.1564C42.6737 32.943 42.9025 32.8259 43.1159 32.8948C43.1436 32.9037 43.1713 32.9128 43.1989 32.9219C43.4118 32.9923 43.5273 33.2219 43.4569 33.4348C43.3865 33.6477 43.1569 33.7633 42.944 33.6929C42.9182 33.6843 42.8923 33.6759 42.8664 33.6675C42.653 33.5986 42.5359 33.3698 42.6048 33.1564ZM44.2676 33.773C44.3739 33.5756 44.6201 33.5017 44.8176 33.608L44.8563 33.6291C45.0532 33.7364 45.1257 33.9831 45.0184 34.1799C44.911 34.3768 44.6644 34.4493 44.4675 34.3419L44.4325 34.323C44.2351 34.2167 44.1613 33.9704 44.2676 33.773Z" fill="#D33232"/>
<path fill-rule="evenodd" clip-rule="evenodd" d="M21.113 18.5037C22.0389 18.0054 22.7795 16.6664 22.7738 15.5109C22.7681 14.3553 22.0159 13.7964 21.0858 14.2802C20.1556 14.7641 19.3891 16.119 19.3991 17.2948C19.4092 18.4705 20.18 19.0064 21.113 18.5037ZM27.2207 13.2937C27.2207 13.402 27.2207 13.5089 27.2207 13.6172C27.2207 13.7256 27.2207 13.8281 27.2207 13.935C27.2207 14.6933 27.0312 15.6293 26.7198 16.6563C26.6078 17.0415 26.4791 17.4267 26.3336 17.8119C24.6642 22.4124 21.1762 28.2218 21.1762 28.2218C21.1762 28.2218 17.5216 26.4524 15.6613 23.6632C15.4919 23.4278 15.3448 23.1768 15.2221 22.9136C14.8525 22.214 14.6486 21.4378 14.6264 20.6458C14.6264 20.5332 14.6264 20.4205 14.6264 20.3064C14.6264 20.1923 14.6163 20.0854 14.6163 19.9727C14.556 15.4849 17.4872 10.3456 21.047 8.58631C24.5006 6.88189 27.2207 9.02686 27.2207 13.2937Z" fill="#932E2E"/>
<path fill-rule="evenodd" clip-rule="evenodd" d="M21.1748 18.5267C22.0992 18.0284 22.8399 16.6908 22.8342 15.5338C22.8284 14.3769 22.0806 13.8193 21.1461 14.3017C20.2117 14.7842 19.4509 16.1434 19.4609 17.3192C19.471 18.4949 20.2404 19.0294 21.1748 18.5267ZM27.2825 13.3166C27.2825 13.425 27.2825 13.5319 27.2825 13.6402C27.2825 13.7485 27.2825 13.8511 27.2825 13.958C27.2825 14.7163 27.0931 15.6523 26.7801 16.6793C26.6682 17.0645 26.5395 17.4496 26.394 17.8348C24.7261 22.4396 21.238 28.2434 21.238 28.2434C21.238 28.2434 17.5834 26.4754 15.7231 23.6862C15.5526 23.4512 15.405 23.2001 15.2825 22.9365C14.9129 22.2374 14.709 21.4618 14.6868 20.6702C14.6868 20.5561 14.6868 20.4434 14.6868 20.3293C14.6868 20.2152 14.6796 20.1083 14.6781 19.9957C14.6164 15.5107 17.5432 10.37 21.1074 8.60926C24.561 6.90483 27.2825 9.04981 27.2825 13.3166Z" fill="#942E2E"/>
<path fill-rule="evenodd" clip-rule="evenodd" d="M21.2352 18.5443C22.161 18.046 22.9017 16.7084 22.8959 15.5514C22.8902 14.3945 22.138 13.8427 21.2079 14.3251C20.2777 14.8076 19.5112 16.1668 19.5213 17.3425C19.5313 18.5183 20.3021 19.0527 21.2352 18.5443ZM27.3429 13.3444C27.3429 13.4512 27.3429 13.5596 27.3429 13.6665C27.3429 13.7734 27.3429 13.8774 27.3429 13.9857C27.3429 14.7426 27.1534 15.6786 26.8405 16.7055C26.7299 17.0926 26.6008 17.4783 26.4558 17.8611C24.7864 22.4645 21.2983 28.2682 21.2983 28.2682C21.2983 28.2682 17.6438 26.4988 15.7835 23.7096C15.6134 23.4745 15.4663 23.2234 15.3442 22.9599C14.974 22.261 14.7701 21.4852 14.7485 20.6936C14.7485 20.5809 14.7485 20.4668 14.7485 20.3527C14.7485 20.2386 14.7413 20.1332 14.7399 20.0191C14.6782 15.5312 17.6107 10.3934 21.1691 8.63264C24.6227 6.92822 27.3429 9.07319 27.3429 13.3444Z" fill="#952E2E"/>
<path fill-rule="evenodd" clip-rule="evenodd" d="M21.2969 18.5731C22.2242 18.0747 22.962 16.7372 22.9562 15.5802C22.9505 14.4232 22.1983 13.8657 21.2682 14.3553C20.338 14.845 19.5729 16.1898 19.583 17.3655C19.593 18.5413 20.3581 19.0772 21.2969 18.5731ZM27.4046 13.3645C27.4046 13.4713 27.4046 13.5797 27.4046 13.688C27.4046 13.7963 27.4046 13.8974 27.4046 14.0058C27.4046 14.7627 27.2137 15.6986 26.9022 16.7256C26.7902 17.1127 26.661 17.4984 26.516 17.8812C24.8481 22.4817 21.3629 28.2854 21.3629 28.2854C21.3629 28.2854 17.7055 26.5217 15.8437 23.7326C15.6745 23.4974 15.5274 23.247 15.4045 22.9843C15.0342 22.2829 14.8304 21.5048 14.8088 20.7108C14.8088 20.5981 14.8088 20.484 14.8088 20.3714C14.8088 20.2587 14.8002 20.1489 14.7987 20.0363C14.737 15.5499 17.6696 10.4106 21.228 8.65129C24.683 6.9512 27.4046 9.09617 27.4046 13.3645Z" fill="#962E2E"/>
<path fill-rule="evenodd" clip-rule="evenodd" d="M21.3629 18.5975C22.2887 18.0977 23.028 16.7602 23.0237 15.6032C23.0193 14.4462 22.2643 13.8887 21.3356 14.3725C20.4069 14.8564 19.6404 16.2127 19.6404 17.3885C19.6404 18.5643 20.4241 19.1002 21.3629 18.5975ZM27.4648 13.3874C27.4648 13.4943 27.4648 13.6027 27.4648 13.711C27.4648 13.8193 27.4648 13.9219 27.4648 14.0288C27.4648 14.7871 27.2754 15.7216 26.9624 16.7486C26.8505 17.1338 26.7222 17.519 26.5777 17.9042C24.9084 22.5047 21.4203 28.3084 21.4203 28.3084C21.4203 28.3084 17.7657 26.5462 15.9083 23.757C15.7388 23.5215 15.5918 23.2705 15.4691 23.0073C15.0978 22.3082 14.8929 21.5319 14.8705 20.7396C14.8705 20.6269 14.8705 20.5142 14.8705 20.4001C14.8705 20.286 14.8619 20.1791 14.859 20.065C14.7987 15.5786 17.7298 10.4394 21.2897 8.68006C24.7447 6.97564 27.4648 9.12061 27.4648 13.3874Z" fill="#972E2E"/>
<path fill-rule="evenodd" clip-rule="evenodd" d="M21.4174 18.6209C22.3433 18.1226 23.0854 16.7851 23.0854 15.6266C23.0854 14.4682 22.3275 13.9121 21.3974 14.396C20.4672 14.8799 19.695 16.2333 19.705 17.4134C19.715 18.5935 20.4844 19.1221 21.4174 18.6209ZM27.5266 13.4109C27.5266 13.5192 27.5266 13.6261 27.5266 13.7344C27.5266 13.8428 27.5266 13.9453 27.5266 14.0522C27.5266 14.8105 27.3357 15.7465 27.0242 16.7735C26.9122 17.1587 26.7835 17.5439 26.6381 17.929C24.9701 22.5339 21.4806 28.3376 21.4806 28.3376C21.4806 28.3376 17.826 26.5696 15.9657 23.7804C15.7965 23.5448 15.6494 23.2938 15.5265 23.0308C15.1568 22.3312 14.9529 21.555 14.9308 20.763C14.9308 20.6504 14.9308 20.5377 14.9308 20.4236C14.9308 20.3095 14.9222 20.2026 14.9208 20.0899C14.859 15.6021 17.7916 10.4628 21.35 8.7035C24.8079 6.99907 27.5266 9.14405 27.5266 13.4109Z" fill="#982E2E"/>
<path fill-rule="evenodd" clip-rule="evenodd" d="M21.4792 18.6439C22.405 18.1456 23.1442 16.8109 23.1399 15.6554C23.1356 14.4998 22.3806 13.9365 21.4519 14.4189C20.5232 14.9014 19.7552 16.2606 19.7653 17.4363C19.7753 18.6121 20.5461 19.1465 21.4792 18.6439ZM27.5869 13.4338C27.5869 13.5422 27.5869 13.6491 27.5869 13.7574C27.5869 13.8657 27.5869 13.9683 27.5869 14.0752C27.5869 14.8335 27.3974 15.7695 27.0845 16.7965C26.9725 17.1816 26.8438 17.5668 26.6983 17.952C25.0304 22.5568 21.5423 28.3605 21.5423 28.3605C21.5423 28.3605 17.8878 26.5926 16.0275 23.8034C15.8574 23.568 15.7099 23.317 15.5868 23.0537C15.2177 22.3545 15.0143 21.5788 14.9925 20.7874C14.9925 20.6733 14.9925 20.5606 14.9925 20.4465C14.9925 20.3324 14.9825 20.2255 14.981 20.1129C14.9222 15.625 17.8476 10.4872 21.4131 8.72211C24.8667 7.02202 27.5869 9.16699 27.5869 13.4338Z" fill="#992E2E"/>
<path fill-rule="evenodd" clip-rule="evenodd" d="M21.5395 18.6671C22.4653 18.1688 23.206 16.8313 23.2002 15.6743C23.1945 14.5173 22.4423 13.9598 21.5064 14.4422C20.5705 14.9246 19.817 16.2838 19.8256 17.4596C19.8342 18.6354 20.6064 19.1698 21.5395 18.6671ZM27.6486 13.4585C27.6486 13.5654 27.6486 13.6738 27.6486 13.7821C27.6486 13.8904 27.6486 13.9915 27.6486 14.0999C27.6486 14.8567 27.4577 15.7927 27.1462 16.8197C27.0342 17.2068 26.905 17.5925 26.7601 17.9753C25.095 22.5758 21.6026 28.3795 21.6026 28.3795C21.6026 28.3795 17.948 26.6158 16.0877 23.8266C15.9177 23.5916 15.7706 23.3405 15.6485 23.077C15.2769 22.3784 15.0711 21.6027 15.0471 20.8107C15.0471 20.698 15.0471 20.5839 15.0471 20.4698C15.0471 20.3557 15.0471 20.2488 15.0471 20.1332C14.9825 15.6555 17.9093 10.5105 21.4734 8.75115C24.927 7.04528 27.6486 9.19025 27.6486 13.4585Z" fill="#9A2E2E"/>
<path fill-rule="evenodd" clip-rule="evenodd" d="M21.6012 18.6884C22.527 18.1901 23.2662 16.8526 23.2605 15.6956C23.2548 14.5386 22.5026 13.9811 21.5725 14.4649C20.6423 14.9488 19.8772 16.3066 19.8873 17.4823C19.8973 18.6581 20.6681 19.194 21.6012 18.6884ZM27.7089 13.4885C27.7089 13.5954 27.7089 13.7037 27.7089 13.8121C27.7089 13.9204 27.7089 14.0215 27.7089 14.1298C27.7089 14.8867 27.5194 15.8227 27.2065 16.8497C27.0945 17.2368 26.9653 17.6225 26.8203 18.0052C25.1524 22.5985 21.6643 28.4022 21.6643 28.4022C21.6643 28.4022 18.0098 26.6328 16.1495 23.8494C15.9792 23.6147 15.8317 23.3641 15.7088 23.1012C15.3396 22.4014 15.1363 21.6253 15.1145 20.8334C15.1145 20.7208 15.1145 20.6066 15.1145 20.494C15.1145 20.3813 15.1059 20.2773 15.1045 20.1589C15.0471 15.6725 17.9696 10.5332 21.5351 8.7739C24.9873 7.06947 27.7089 9.213 27.7089 13.4885Z" fill="#9B2F2F"/>
<path fill-rule="evenodd" clip-rule="evenodd" d="M21.6615 18.7147C22.5873 18.2149 23.328 16.8788 23.3223 15.7204C23.3165 14.562 22.5644 14.0058 21.6342 14.4897C20.7041 14.9736 19.9376 16.3299 19.9476 17.5057C19.9576 18.6815 20.7285 19.2173 21.6615 18.7147ZM27.7692 13.5046C27.7692 13.6115 27.7692 13.7199 27.7692 13.8282C27.7692 13.9365 27.7692 14.0391 27.7692 14.146C27.7692 14.9043 27.5797 15.8388 27.2682 16.8673C27.1563 17.2524 27.0275 17.6376 26.8821 18.0228C25.2127 22.6262 21.7246 28.4299 21.7246 28.4299C21.7246 28.4299 18.0701 26.6634 16.2098 23.8742C16.0383 23.6389 15.8893 23.3879 15.7648 23.1245C15.397 22.424 15.1951 21.6474 15.1748 20.8553C15.1748 20.7427 15.1748 20.63 15.1748 20.5159C15.1748 20.4018 15.1662 20.2949 15.1648 20.1822C15.1045 15.6958 18.0299 10.5566 21.5955 8.79725C25.0491 7.09282 27.7692 9.2378 27.7692 13.5046Z" fill="#9C2F2F"/>
<path fill-rule="evenodd" clip-rule="evenodd" d="M21.7232 18.7376C22.6548 18.2393 23.3883 16.9018 23.3825 15.7433C23.3768 14.5849 22.6246 14.0302 21.6945 14.5127C20.7643 14.9951 19.9993 16.3529 20.0093 17.533C20.0194 18.7131 20.7887 19.2403 21.7232 18.7376ZM27.8309 13.5276C27.8309 13.6359 27.8309 13.7428 27.8309 13.8511C27.8309 13.9595 27.8309 14.062 27.8309 14.1689C27.8309 14.9272 27.6414 15.8632 27.3285 16.8902C27.2165 17.2754 27.0878 17.6606 26.9424 18.0457C25.2744 22.6462 21.7935 28.45 21.7935 28.45C21.7935 28.45 18.139 26.6863 16.2787 23.8971C16.1084 23.6619 15.9609 23.4109 15.838 23.1475C15.468 22.4481 15.2646 21.6717 15.2437 20.8797C15.2437 20.767 15.2437 20.6544 15.2437 20.5403C15.2437 20.4262 15.2351 20.3193 15.2337 20.2066C15.1662 15.7188 18.0916 10.581 21.65 8.8202C25.1093 7.11577 27.8309 9.26075 27.8309 13.5276Z" fill="#9D2F2F"/>
<path fill-rule="evenodd" clip-rule="evenodd" d="M21.7835 18.761C22.7093 18.2627 23.45 16.9251 23.4443 15.7682C23.4385 14.6112 22.6864 14.0536 21.7562 14.5361C20.8261 15.0185 20.0596 16.3777 20.071 17.5535C20.0825 18.7292 20.8505 19.2666 21.7835 18.761ZM27.8912 13.551C27.8912 13.6593 27.8912 13.7676 27.8912 13.8745C27.8912 13.9814 27.8912 14.0854 27.8912 14.1923C27.8912 14.9506 27.7017 15.8866 27.3888 16.9136C27.2783 17.3007 27.1491 17.6863 27.0041 18.0691C25.3347 22.674 21.8467 28.4777 21.8467 28.4777C21.8467 28.4777 18.1921 26.7097 16.339 23.9205C16.1662 23.6844 16.0167 23.4318 15.8925 23.1665C15.5236 22.4687 15.3198 21.6946 15.2969 20.9045C15.2969 20.7919 15.2969 20.6778 15.2969 20.5636C15.2969 20.4495 15.2882 20.3427 15.2868 20.23C15.2265 15.7422 18.1519 10.6 21.7175 8.84357C25.1711 7.13337 27.8912 9.28412 27.8912 13.551Z" fill="#9E2F2F"/>
<path fill-rule="evenodd" clip-rule="evenodd" d="M21.8452 18.784C22.7696 18.2857 23.516 16.9554 23.5045 15.7911C23.493 14.6269 22.7466 14.0766 21.8165 14.559C20.8863 15.0415 20.1212 16.4007 20.1313 17.5765C20.1413 18.7522 20.9107 19.2881 21.8452 18.784ZM27.9529 13.5754C27.9529 13.6823 27.9529 13.7906 27.9529 13.8989C27.9529 14.0073 27.9529 14.1084 27.9529 14.2167C27.9529 14.9736 27.762 15.9096 27.4505 16.9366C27.3385 17.3237 27.2093 17.7093 27.0643 18.0921C25.3964 22.6926 21.9069 28.4963 21.9069 28.4963C21.9069 28.4963 18.2538 26.7327 16.392 23.9435C16.2225 23.7081 16.0754 23.4571 15.9528 23.1938C15.5832 22.4947 15.3793 21.7191 15.3571 20.9275C15.3571 20.8149 15.3571 20.7008 15.3571 20.5881C15.3571 20.4754 15.3485 20.3656 15.347 20.253C15.2868 15.7666 18.2136 10.6273 21.7777 8.86656C25.2385 7.16214 27.9529 9.30711 27.9529 13.5754Z" fill="#9F2F2F"/>
<path fill-rule="evenodd" clip-rule="evenodd" d="M21.9055 18.8083C22.8313 18.3085 23.5706 16.971 23.5663 15.814C23.562 14.657 22.8069 14.0994 21.8782 14.5833C20.9495 15.0672 20.1816 16.4235 20.1916 17.5993C20.2017 18.775 20.9725 19.3109 21.9055 18.8083ZM28.0132 13.5982C28.0132 13.7051 28.0132 13.8134 28.0132 13.9218C28.0132 14.0301 28.0132 14.1327 28.0132 14.2395C28.0132 14.9979 27.8237 15.9324 27.5108 16.9594C27.3988 17.3465 27.2711 17.7322 27.1261 18.1149C25.4567 22.7183 21.9687 28.522 21.9687 28.522C21.9687 28.522 18.3141 26.7598 16.4538 23.9692C16.284 23.7345 16.137 23.4839 16.0146 23.221C15.6443 22.5216 15.4404 21.7454 15.4189 20.9532C15.4189 20.8406 15.4189 20.7279 15.4189 20.6138C15.4189 20.4997 15.4117 20.3899 15.4088 20.2773C15.3485 15.7909 18.2796 10.6516 21.8395 8.89228C25.2931 7.18641 28.0132 9.33138 28.0132 13.5982Z" fill="#A02F2F"/>
<path fill-rule="evenodd" clip-rule="evenodd" d="M21.9658 18.8333C22.8916 18.335 23.6323 16.9974 23.6266 15.839C23.6208 14.6806 22.8687 14.123 21.9371 14.6069C21.0055 15.0908 20.2433 16.4471 20.2533 17.6229C20.2634 18.7986 21.0328 19.3345 21.9658 18.8333ZM28.0749 13.6218C28.0749 13.7302 28.0749 13.837 28.0749 13.9454C28.0749 14.0537 28.0749 14.1563 28.0749 14.2631C28.0749 15.0215 27.884 15.9575 27.5725 16.9844C27.4606 17.3696 27.3318 17.7548 27.1864 18.14C25.5256 22.7405 22.0289 28.5442 22.0289 28.5442C22.0289 28.5442 18.3744 26.7777 16.5141 23.9914C16.3451 23.7556 16.1981 23.5046 16.0748 23.2417C15.7048 22.5422 15.5004 21.7661 15.4777 20.974C15.4777 20.8613 15.4777 20.7486 15.4777 20.6345C15.4777 20.5204 15.4777 20.4135 15.4777 20.3009C15.416 15.813 18.3485 10.6737 21.9069 8.91443C25.3534 7.21001 28.0749 9.35498 28.0749 13.6218Z" fill="#A12F2F"/>
<path fill-rule="evenodd" clip-rule="evenodd" d="M22.0275 18.8548C22.9533 18.3565 23.6926 17.019 23.6883 15.862C23.684 14.705 22.9289 14.1474 22.0002 14.6299C21.0715 15.1123 20.3036 16.4715 20.3136 17.6473C20.3237 18.823 21.0945 19.3575 22.0275 18.8548ZM28.1352 13.6448C28.1352 13.7531 28.1352 13.86 28.1352 13.9683C28.1352 14.0767 28.1352 14.1792 28.1352 14.2861C28.1352 15.0444 27.9457 15.9804 27.6328 17.0074C27.5208 17.3887 27.3916 17.7787 27.2481 18.1586C25.5787 22.7634 22.0906 28.5671 22.0906 28.5671C22.0906 28.5671 18.4361 26.8035 16.5758 24.0143C16.4058 23.7789 16.2582 23.5279 16.1351 23.2647C15.7662 22.5659 15.5628 21.7907 15.5408 20.9998C15.5408 20.8857 15.5408 20.773 15.5408 20.6589C15.5408 20.5448 15.5308 20.4379 15.5294 20.3252C15.4777 15.836 18.3959 10.6981 21.9615 8.93738C25.4151 7.23296 28.1352 9.37793 28.1352 13.6448Z" fill="#A22F2F"/>
<path fill-rule="evenodd" clip-rule="evenodd" d="M22.0878 18.8777C23.0136 18.3794 23.7543 17.0419 23.7486 15.8849C23.7428 14.7279 22.9907 14.1704 22.0605 14.6528C21.1304 15.1352 20.3653 16.4944 20.3739 17.6774C20.3825 18.8604 21.1548 19.3804 22.0878 18.8777ZM28.1969 13.6691C28.1969 13.776 28.1969 13.8844 28.1969 13.9913C28.1969 14.0981 28.1969 14.2021 28.1969 14.3105C28.1969 15.0673 28.006 16.0033 27.6945 17.0303C27.5826 17.4174 27.4534 17.8031 27.3084 18.1859C25.639 22.7893 22.151 28.593 22.151 28.593C22.151 28.593 18.4921 26.8264 16.6361 24.0329C16.4658 23.7993 16.3182 23.5497 16.1954 23.2876C15.8264 22.5883 15.623 21.8127 15.6012 21.0213C15.6012 20.9086 15.6012 20.7945 15.6012 20.6804C15.6012 20.5663 15.5925 20.4594 15.5911 20.3467C15.5294 15.8589 18.4619 10.7211 22.0203 8.96031C25.4754 7.25589 28.1969 9.40086 28.1969 13.6691Z" fill="#A32F2F"/>
<path fill-rule="evenodd" clip-rule="evenodd" d="M22.1495 18.9011C23.0754 18.3999 23.8146 17.0653 23.8031 15.9083C23.7916 14.7513 23.0452 14.1937 22.1151 14.6776C21.1849 15.1615 20.4256 16.5222 20.4356 17.6936C20.4457 18.865 21.2194 19.411 22.1495 18.9011ZM28.2529 13.6925C28.2529 13.7994 28.2529 13.9077 28.2529 14.0161C28.2529 14.1244 28.2529 14.2255 28.2529 14.3339C28.2529 15.0907 28.0634 16.0267 27.7505 17.0537C27.6386 17.4408 27.5094 17.8265 27.3644 18.2092C25.6964 22.8126 22.2084 28.6163 22.2084 28.6163C22.2084 28.6163 18.5581 26.8498 16.6978 24.0606C16.5275 23.8254 16.3799 23.5744 16.2571 23.311C15.8882 22.6112 15.6848 21.8351 15.6629 21.0432C15.6629 20.9305 15.6629 20.8164 15.6629 20.7038C15.6629 20.5911 15.6543 20.4813 15.6528 20.3687C15.5925 15.8837 18.5179 10.7445 22.0806 8.98514C25.5357 7.27783 28.2529 9.42425 28.2529 13.6925Z" fill="#A42F2F"/>
<path fill-rule="evenodd" clip-rule="evenodd" d="M22.2098 18.9254C23.1356 18.4256 23.8763 17.088 23.8705 15.9311C23.8648 14.7741 23.1126 14.2107 22.1825 14.7004C21.2523 15.1901 20.4858 16.5406 20.5016 17.7164C20.5174 18.8921 21.2767 19.428 22.2098 18.9254ZM28.3175 13.7153C28.3175 13.8222 28.3175 13.9305 28.3175 14.0389C28.3175 14.1472 28.3175 14.2497 28.3175 14.3566C28.3175 15.115 28.128 16.0495 27.8165 17.0765C27.7045 17.4617 27.5758 17.8468 27.4304 18.232C25.761 22.8354 22.2729 28.6391 22.2729 28.6391C22.2729 28.6391 18.6184 26.8769 16.7581 24.0877C16.5886 23.8523 16.4415 23.6013 16.3188 23.3381C15.9492 22.6385 15.7454 21.8623 15.7231 21.0703C15.7231 20.9577 15.7231 20.845 15.7231 20.7309C15.7231 20.6168 15.7145 20.5099 15.7131 20.3958C15.6528 15.9065 18.5782 10.7672 22.1437 9.01081C25.5973 7.30349 28.3175 9.44413 28.3175 13.7153Z" fill="#A52F2F"/>
<path fill-rule="evenodd" clip-rule="evenodd" d="M22.2715 18.9486C23.1974 18.4502 23.9366 17.1127 23.9309 15.9543C23.9251 14.7958 23.173 14.2412 22.2428 14.7236C21.3127 15.2061 20.5476 16.5638 20.5576 17.741C20.5677 18.9182 21.3371 19.4512 22.2715 18.9486ZM28.3792 13.7385C28.3792 13.8469 28.3792 13.9537 28.3792 14.0621C28.3792 14.1704 28.3792 14.273 28.3792 14.3798C28.3792 15.1382 28.1898 16.0742 27.8768 17.1011C27.7649 17.4863 27.6362 17.8715 27.4907 18.2567C25.8228 22.8572 22.3347 28.6551 22.3347 28.6551C22.3347 28.6551 18.6801 26.8915 16.8198 24.1023C16.6496 23.8671 16.502 23.616 16.3792 23.3526C16.0092 22.6532 15.8058 21.8769 15.7849 21.0849C15.7849 20.9722 15.7849 20.8595 15.7849 20.7454C15.7849 20.6313 15.7763 20.5302 15.7748 20.4219C15.7146 15.9297 18.6356 10.7904 22.2055 9.03113C25.6577 7.32671 28.3792 9.47168 28.3792 13.7385Z" fill="#A62F2F"/>
<path fill-rule="evenodd" clip-rule="evenodd" d="M22.3318 18.9773C23.2577 18.479 23.9983 17.1414 23.9926 15.9844C23.9869 14.8275 23.229 14.2641 22.3045 14.7466C21.3801 15.229 20.6079 16.5882 20.6179 17.764C20.628 18.9397 21.3988 19.4742 22.3318 18.9773ZM28.4395 13.7615C28.4395 13.8698 28.4395 13.9767 28.4395 14.085C28.4395 14.1934 28.4395 14.2959 28.4395 14.4028C28.4395 15.1611 28.25 16.0971 27.9371 17.1241C27.8266 17.5112 27.6974 17.8954 27.5524 18.2796C25.883 22.8772 22.395 28.6838 22.395 28.6838C22.395 28.6838 18.7404 26.9216 16.8801 24.131C16.71 23.8959 16.5629 23.6449 16.4409 23.3814C16.0713 22.6822 15.8674 21.9066 15.8452 21.115C15.8452 21.0024 15.8452 20.8883 15.8452 20.7742C15.8452 20.6601 15.8366 20.5532 15.8351 20.4405C15.7734 15.9527 18.706 10.8148 22.2644 9.05408C25.7194 7.34966 28.4395 9.49463 28.4395 13.7615Z" fill="#A72F2F"/>
<path fill-rule="evenodd" clip-rule="evenodd" d="M22.3936 18.9946C23.318 18.4963 24.0586 17.1588 24.0529 16.0018C24.0472 14.8448 23.295 14.2872 22.3677 14.7697C21.4404 15.2521 20.6696 16.6113 20.6797 17.7871C20.6897 18.9628 21.4591 19.4973 22.3936 18.9946ZM28.5012 13.786C28.5012 13.8929 28.5012 14.0012 28.5012 14.1096C28.5012 14.2179 28.5012 14.319 28.5012 14.4273C28.5012 15.1842 28.3103 16.1202 27.9989 17.1472C27.8869 17.5343 27.7577 17.92 27.6127 18.3027C25.9448 22.9061 22.4553 28.7098 22.4553 28.7098C22.4553 28.7098 18.8021 26.9433 16.9418 24.1541C16.7713 23.9191 16.6237 23.668 16.5012 23.4045C16.1335 22.7068 15.9306 21.9333 15.9083 21.1439C15.9083 21.0313 15.9083 20.9171 15.9083 20.803C15.9083 20.6889 15.8997 20.582 15.8983 20.4694C15.8366 15.983 18.7691 10.8437 22.3275 9.08441C25.7797 7.37276 28.5012 9.51773 28.5012 13.786Z" fill="#A82F2F"/>
<path fill-rule="evenodd" clip-rule="evenodd" d="M22.4538 19.0181C23.3797 18.5198 24.1203 17.1822 24.1146 16.0253C24.1088 14.8683 23.3553 14.3107 22.4265 14.7888C21.4978 15.2669 20.7299 16.6348 20.7399 17.8106C20.75 18.9863 21.5208 19.5222 22.4538 19.0181ZM28.5615 13.8095C28.5615 13.9164 28.5615 14.0247 28.5615 14.1331C28.5615 14.2414 28.5615 14.3425 28.5615 14.4508C28.5615 15.2077 28.372 16.1437 28.0591 17.1707C27.9472 17.5578 27.8194 17.9434 27.6744 18.3262C26.005 22.9267 22.5112 28.7304 22.5112 28.7304C22.5112 28.7304 18.8624 26.9668 17.0021 24.1776C16.8323 23.9428 16.6853 23.6923 16.5629 23.4294C16.1926 22.73 15.9887 21.9537 15.9672 21.1616C15.9672 21.049 15.9672 20.9349 15.9672 20.8222C15.9672 20.7095 15.9586 20.6012 15.9557 20.4871C15.8954 16.0007 18.8265 10.8614 22.3864 9.10211C25.8414 7.39769 28.5615 9.54122 28.5615 13.8095Z" fill="#A93030"/>
<path fill-rule="evenodd" clip-rule="evenodd" d="M22.5112 19.0427C23.44 18.5444 24.1806 17.2068 24.1749 16.0484C24.1691 14.89 23.417 14.3339 22.4868 14.8178C21.5567 15.3016 20.7887 16.658 20.8017 17.8337C20.8146 19.0095 21.5811 19.5454 22.5112 19.0427ZM28.6232 13.8327C28.6232 13.9395 28.6232 14.0479 28.6232 14.1562C28.6232 14.2645 28.6232 14.3671 28.6232 14.474C28.6232 15.2323 28.4323 16.1683 28.1208 17.1953C28.0089 17.5805 27.8802 17.9656 27.7347 18.3508C26.0668 22.9542 22.5773 28.7579 22.5773 28.7579C22.5773 28.7579 18.9227 26.9914 17.0567 24.2022C16.8908 23.967 16.7467 23.717 16.626 23.4554C16.2565 22.7558 16.0526 21.9797 16.0303 21.1877C16.0303 21.075 16.0303 20.9623 16.0303 20.8482C16.0303 20.7341 16.0217 20.6272 16.0203 20.5146C15.9571 16.0238 18.8839 10.8889 22.4481 9.12526C25.9017 7.42229 28.6232 9.56581 28.6232 13.8327Z" fill="#AA3030"/>
<path fill-rule="evenodd" clip-rule="evenodd" d="M22.5758 19.0654C23.5017 18.5671 24.2409 17.2296 24.2337 16.0711C24.2266 14.9127 23.4773 14.3552 22.5486 14.8405C21.6199 15.3258 20.8519 16.6807 20.862 17.8579C20.872 19.0351 21.65 19.5681 22.5758 19.0654ZM28.6835 13.8554C28.6835 13.9637 28.6835 14.0706 28.6835 14.1789C28.6835 14.2873 28.6835 14.3898 28.6835 14.4967C28.6835 15.255 28.4941 16.191 28.1811 17.218C28.0692 17.6051 27.94 17.9893 27.7964 18.3736C26.1271 22.9784 22.639 28.7821 22.639 28.7821C22.639 28.7821 18.9844 27.0184 17.1241 24.2293C16.9544 23.9937 16.8069 23.7427 16.6835 23.4796C16.3142 22.7799 16.1108 22.0038 16.0892 21.2119C16.0892 21.0992 16.0892 20.9865 16.0892 20.8724C16.0892 20.7583 16.0792 20.6514 16.0777 20.5388C16.0189 16.0466 18.9442 10.9088 22.5112 9.15523C25.9634 7.44358 28.6835 9.58855 28.6835 13.8554Z" fill="#AB3030"/>
<path fill-rule="evenodd" clip-rule="evenodd" d="M22.6361 19.0887C23.5619 18.5904 24.3026 17.2528 24.2969 16.0959C24.2911 14.9389 23.539 14.3813 22.6088 14.8638C21.6787 15.3462 20.9136 16.7054 20.9222 17.8812C20.9308 19.0569 21.7031 19.5914 22.6361 19.0887ZM28.7452 13.8787C28.7452 13.987 28.7452 14.0953 28.7452 14.2022C28.7452 14.3091 28.7452 14.4131 28.7452 14.52C28.7452 15.2783 28.5543 16.2143 28.2428 17.2413C28.1308 17.6284 28.0017 18.0141 27.8567 18.3968C26.1873 22.9973 22.6992 28.7996 22.6992 28.7996C22.6992 28.7996 19.0447 27.0374 17.1844 24.2482C17.0143 24.0131 16.8672 23.7621 16.7451 23.4985C16.3756 22.7994 16.1717 22.0238 16.1494 21.2322C16.1494 21.1196 16.1494 21.0055 16.1494 20.8913C16.1494 20.7772 16.1408 20.6704 16.1394 20.5577C16.0777 16.0699 19.0102 10.932 22.5686 9.17127C26.0237 7.46685 28.7452 9.61182 28.7452 13.8787Z" fill="#AC3030"/>
<path fill-rule="evenodd" clip-rule="evenodd" d="M22.6978 19.112C23.6236 18.6136 24.3629 17.2761 24.3571 16.1191C24.3514 14.9621 23.5992 14.4046 22.6691 14.887C21.7389 15.3695 20.9739 16.7287 20.9839 17.9044C20.994 19.0802 21.7648 19.6161 22.6978 19.112ZM28.8055 13.9034C28.8055 14.0102 28.8055 14.1186 28.8055 14.2269C28.8055 14.3352 28.8055 14.4364 28.8055 14.5447C28.8055 15.3016 28.616 16.2376 28.3031 17.2645C28.1911 17.6516 28.062 18.0373 27.917 18.4201C26.249 23.0235 22.761 28.82 22.761 28.82C22.761 28.82 19.1064 27.0664 17.2461 24.2715C17.0759 24.0367 16.9283 23.7862 16.8054 23.5232C16.4365 22.8234 16.2331 22.0474 16.2112 21.2555C16.2112 21.1428 16.2112 21.0287 16.2112 20.916C16.2112 20.8034 16.2025 20.6936 16.2011 20.5809C16.1408 16.0888 19.0662 10.9553 22.6318 9.19597C26.0839 7.4901 28.8055 9.63508 28.8055 13.9034Z" fill="#AD3030"/>
<path fill-rule="evenodd" clip-rule="evenodd" d="M22.7581 19.1366C23.6839 18.6368 24.4246 17.2993 24.4189 16.1423C24.4131 14.9853 23.6595 14.4278 22.7308 14.9117C21.8021 15.3955 21.0342 16.7519 21.0442 17.9276C21.0543 19.1034 21.8251 19.6393 22.7581 19.1366ZM28.8658 13.9222C28.8658 14.0291 28.8658 14.1374 28.8658 14.2458C28.8658 14.3541 28.8658 14.4567 28.8658 14.5636C28.8658 15.3219 28.6763 16.2564 28.3648 17.2834C28.2529 17.6705 28.1237 18.0562 27.9787 18.439C26.3093 23.0423 22.8213 28.846 22.8213 28.846C22.8213 28.846 19.1667 27.0838 17.3064 24.2932C17.1366 24.0585 16.9895 23.8079 16.8672 23.545C16.4976 22.8454 16.2937 22.0693 16.2715 21.2772C16.2715 21.1646 16.2715 21.0519 16.2715 20.9378C16.2715 20.8237 16.2628 20.7168 16.2614 20.6027C16.1954 16.1178 19.1265 10.9785 22.6921 9.21918C26.1457 7.51475 28.8658 9.65973 28.8658 13.9222Z" fill="#AE3030"/>
<path fill-rule="evenodd" clip-rule="evenodd" d="M22.8199 19.1595C23.7457 18.6612 24.485 17.3236 24.4792 16.1652C24.4735 15.0068 23.7213 14.4507 22.7983 14.9331C21.8754 15.4156 21.0959 16.7748 21.106 17.9505C21.116 19.1263 21.8854 19.6622 22.8199 19.1595ZM28.9276 13.9495C28.9276 14.0578 28.9276 14.1647 28.9276 14.273C28.9276 14.3813 28.9276 14.4839 28.9276 14.5908C28.9276 15.3491 28.7381 16.2851 28.4252 17.3121C28.3132 17.6973 28.1845 18.0824 28.039 18.4676C26.3711 23.0681 22.883 28.8718 22.883 28.8718C22.883 28.8718 19.2285 27.1082 17.3682 24.3219C17.1982 24.0865 17.0507 23.8355 16.9275 23.5722C16.5593 22.8714 16.3578 22.0941 16.339 21.3016C16.339 21.1889 16.339 21.0763 16.339 20.9621C16.339 20.848 16.3304 20.7412 16.3289 20.6285C16.2686 16.1407 19.1997 11.0014 22.7596 9.24207C26.206 7.53765 28.9276 9.68262 28.9276 13.9495Z" fill="#AF3030"/>
<path fill-rule="evenodd" clip-rule="evenodd" d="M22.8801 19.1825C23.8031 18.6885 24.5466 17.3467 24.5409 16.1897C24.5351 15.0327 23.783 14.4751 22.8528 14.9576C21.9227 15.44 21.1562 16.7992 21.1662 17.975C21.1763 19.1507 21.9471 19.6852 22.8801 19.1825ZM28.9878 13.9725C28.9878 14.0808 28.9878 14.1877 28.9878 14.296C28.9878 14.4044 28.9878 14.5069 28.9878 14.6138C28.9878 15.3721 28.7983 16.3081 28.4854 17.3351C28.3749 17.7222 28.2457 18.1064 28.1007 18.4906C26.4313 23.0911 22.9418 28.8948 22.9418 28.8948C22.9418 28.8948 19.2873 27.1312 17.427 24.342C17.2578 24.1092 17.1112 23.8606 16.9892 23.5996C16.6196 22.9005 16.4157 22.1248 16.3935 21.3333C16.3935 21.2192 16.3935 21.1065 16.3935 20.9924C16.3935 20.8783 16.3849 20.7714 16.3834 20.6587C16.3231 16.1637 19.2485 11.0331 22.8141 9.26508C26.2677 7.56644 28.9878 9.70563 28.9878 13.9725Z" fill="#B03030"/>
<path fill-rule="evenodd" clip-rule="evenodd" d="M22.9418 19.2058C23.8662 18.7075 24.6069 17.37 24.6012 16.213C24.5954 15.056 23.8433 14.4999 22.9131 14.9809C21.983 15.4619 21.2193 16.8225 21.2279 17.9983C21.2366 19.174 22.0074 19.7085 22.9418 19.2058ZM29.0495 13.9972C29.0495 14.1041 29.0495 14.2124 29.0495 14.3193C29.0495 14.4262 29.0495 14.5302 29.0495 14.6385C29.0495 15.3954 28.8586 16.3314 28.5471 17.3584C28.4352 17.7455 28.306 18.1312 28.161 18.5139C26.4931 23.1173 23.005 28.921 23.005 28.921C23.005 28.921 19.3533 27.1545 17.4873 24.3653C17.3202 24.1299 17.176 23.8788 17.0566 23.6157C16.6846 22.9172 16.4782 22.1415 16.4538 21.3493C16.4538 21.2367 16.4538 21.1226 16.4538 21.0085C16.4538 20.8944 16.4451 20.7875 16.4437 20.6748C16.382 16.187 19.3145 11.0491 22.8729 9.28838C26.328 7.58396 29.0495 9.73327 29.0495 13.9972Z" fill="#B13030"/>
<path fill-rule="evenodd" clip-rule="evenodd" d="M23.0022 19.2287C23.928 18.7303 24.6644 17.3885 24.6644 16.2329C24.6644 15.0774 23.905 14.5213 22.9749 15.0052C22.0447 15.489 21.2782 16.8454 21.2883 18.0211C21.2983 19.1969 22.0691 19.7328 23.0022 19.2287ZM29.1142 14.0201C29.1142 14.1269 29.1142 14.2353 29.1142 14.3436C29.1142 14.4519 29.1142 14.5531 29.1142 14.6614C29.1142 15.4183 28.9247 16.3543 28.6118 17.3812C28.5012 17.7683 28.372 18.154 28.2271 18.5368C26.5577 23.1402 23.0696 28.9367 23.0696 28.9367C23.0696 28.9367 19.4107 27.1773 17.5504 24.3882C17.3807 24.1534 17.2336 23.9029 17.1112 23.6399C16.7412 22.9405 16.5373 22.1643 16.5155 21.3722C16.5155 21.2595 16.5155 21.1454 16.5155 21.0327C16.5155 20.9201 16.5069 20.8103 16.504 20.6976C16.4437 16.2113 19.3749 11.072 22.9347 9.31267C26.3869 7.6068 29.1142 9.75178 29.1142 14.0201Z" fill="#B23030"/>
<path fill-rule="evenodd" clip-rule="evenodd" d="M23.0639 19.2533C23.9883 18.7535 24.7289 17.4159 24.7232 16.259C24.7175 15.102 23.9653 14.5444 23.0352 15.0283C22.105 15.5122 21.3399 16.8685 21.35 18.0443C21.36 19.22 22.1294 19.7559 23.0639 19.2533ZM29.1716 14.0432C29.1716 14.1501 29.1716 14.2584 29.1716 14.3668C29.1716 14.4751 29.1716 14.5776 29.1716 14.6845C29.1716 15.4429 28.9806 16.3774 28.6692 17.4044C28.5572 17.7896 28.4285 18.1747 28.283 18.5599C26.6151 23.1633 23.1256 28.9598 23.1256 28.9598C23.1256 28.9598 19.4725 27.1976 17.6107 24.4084C17.4418 24.1726 17.2947 23.9217 17.1715 23.6588C16.8019 22.9591 16.598 22.183 16.5758 21.391C16.5758 21.2783 16.5758 21.1657 16.5758 21.0516C16.5758 20.9375 16.5672 20.8306 16.5657 20.7165C16.5054 16.233 19.4323 11.0951 22.9964 9.33582C26.45 7.6314 29.1716 9.77637 29.1716 14.0432Z" fill="#B33030"/>
<path fill-rule="evenodd" clip-rule="evenodd" d="M23.1242 19.2767C24.05 18.7784 24.7892 17.4408 24.7849 16.2824C24.7806 15.124 24.0256 14.5693 23.0969 15.0517C22.1682 15.5342 21.4002 16.8919 21.4103 18.0692C21.4203 19.2464 22.1911 19.7794 23.1242 19.2767ZM29.2319 14.0666C29.2319 14.175 29.2319 14.2819 29.2319 14.3902C29.2319 14.4985 29.2319 14.6011 29.2319 14.708C29.2319 15.4663 29.0424 16.4023 28.7295 17.4293C28.6175 17.8164 28.4883 18.2006 28.3448 18.5848C26.6739 23.1853 23.1873 28.989 23.1873 28.989C23.1873 28.989 19.5328 27.2254 17.6725 24.4362C17.5027 24.2006 17.3552 23.9496 17.2318 23.6865C16.8625 22.9869 16.6591 22.2107 16.6375 21.4188C16.6375 21.3061 16.6375 21.1934 16.6375 21.0793C16.6375 20.9652 16.626 20.8555 16.626 20.7457C16.5657 16.2578 19.4969 11.1186 23.0567 9.35926C26.5117 7.65483 29.2319 9.79981 29.2319 14.0666Z" fill="#B43030"/>
<path fill-rule="evenodd" clip-rule="evenodd" d="M23.1844 19.2996C24.1103 18.8013 24.8509 17.4638 24.8452 16.3068C24.8395 15.1498 24.0902 14.5923 23.1571 15.0776C22.2241 15.5629 21.4619 16.9163 21.4705 18.0921C21.4791 19.2679 22.2514 19.8023 23.1844 19.2996ZM29.2935 14.0896C29.2935 14.1979 29.2935 14.3048 29.2935 14.4131C29.2935 14.5215 29.2935 14.624 29.2935 14.7309C29.2935 15.4892 29.1026 16.4252 28.7912 17.4522C28.6792 17.8374 28.5505 18.2226 28.405 18.6078C26.7356 23.2126 23.2476 29.0163 23.2476 29.0163C23.2476 29.0163 19.593 27.2483 17.7327 24.4664C17.5626 24.2313 17.4155 23.9802 17.2935 23.7167C16.9228 23.0154 16.7189 22.2372 16.6978 21.4432C16.6978 21.3305 16.6978 21.2164 16.6978 21.1023C16.6978 20.9882 16.6892 20.8813 16.6877 20.7686C16.626 16.2808 19.5543 11.143 23.1184 9.38221C26.572 7.67778 29.2935 9.82276 29.2935 14.0896Z" fill="#B53030"/>
<path fill-rule="evenodd" clip-rule="evenodd" d="M23.2462 19.3229C24.172 18.8246 24.9113 17.487 24.9055 16.33C24.8998 15.1731 24.1476 14.6155 23.2175 15.098C22.2873 15.5804 21.5223 16.9396 21.5323 18.111C21.5424 19.2825 22.3132 19.8256 23.2462 19.3229ZM29.3539 14.1143C29.3539 14.2212 29.3539 14.3295 29.3539 14.4378C29.3539 14.5462 29.3539 14.6473 29.3539 14.7556C29.3539 15.5125 29.1644 16.4485 28.8515 17.4755C28.7395 17.8626 28.6104 18.2482 28.4654 18.631C26.7974 23.2344 23.3094 29.0381 23.3094 29.0381C23.3094 29.0381 19.6548 27.2716 17.7945 24.4824C17.624 24.2474 17.4764 23.9963 17.3538 23.7327C16.9847 23.0335 16.7813 22.2579 16.7596 21.4664C16.7596 21.3538 16.7596 21.2397 16.7596 21.1255C16.7596 21.0114 16.7509 20.9045 16.7495 20.7919C16.6892 16.3055 19.6203 11.1662 23.1802 9.40691C26.6323 7.70104 29.3539 9.84601 29.3539 14.1143Z" fill="#B63030"/>
<path fill-rule="evenodd" clip-rule="evenodd" d="M23.3064 19.3457C24.2337 18.8474 24.9729 17.5099 24.9672 16.3529C24.9615 15.1959 24.2093 14.6441 23.2792 15.1222C22.349 15.6003 21.5825 16.9624 21.5925 18.1382C21.6026 19.314 22.3677 19.8441 23.3064 19.3457ZM29.4156 14.1371C29.4156 14.244 29.4156 14.3524 29.4156 14.4607C29.4156 14.569 29.4156 14.6701 29.4156 14.7785C29.4156 15.5368 29.2246 16.4713 28.9132 17.4983C28.8012 17.8854 28.672 18.2711 28.527 18.6539C26.8576 23.2544 23.3725 29.0581 23.3725 29.0581C23.3725 29.0581 19.7179 27.2944 17.8576 24.5052C17.6878 24.2705 17.5407 24.0199 17.4183 23.757C17.0488 23.0574 16.8449 22.2813 16.8227 21.4893C16.8227 21.3766 16.8227 21.2625 16.8227 21.1498C16.8227 21.0372 16.814 20.9288 16.8126 20.8147C16.7509 16.3283 19.6834 11.1891 23.2418 9.42975C26.694 7.72533 29.4156 9.86886 29.4156 14.1371Z" fill="#B73030"/>
<path fill-rule="evenodd" clip-rule="evenodd" d="M23.3725 19.3704C24.294 18.8707 25.0333 17.5331 25.0275 16.3776C25.0218 15.222 24.2696 14.6631 23.3395 15.1469C22.4093 15.6308 21.65 16.9857 21.65 18.1615C21.65 19.3372 22.4337 19.8731 23.3725 19.3704ZM29.4802 14.1604C29.4802 14.2673 29.4802 14.3756 29.4802 14.4839C29.4802 14.5923 29.4802 14.6948 29.4802 14.8017C29.4802 15.56 29.2907 16.496 28.9778 17.523C28.8658 17.9082 28.7371 18.2934 28.5917 18.6786C26.9237 23.2819 23.4356 29.0784 23.4356 29.0784C23.4356 29.0784 19.7839 27.3191 17.9179 24.5299C17.748 24.2945 17.6004 24.0435 17.4772 23.7803C17.1081 23.0806 16.9047 22.3044 16.883 21.5125C16.883 21.3999 16.883 21.2872 16.883 21.1731C16.883 21.059 16.8744 20.9521 16.8729 20.8394C16.8126 16.3516 19.7438 11.2123 23.3036 9.45301C26.7543 7.74858 29.4759 9.89356 29.4759 14.1604H29.4802Z" fill="#B73131"/>
<path fill-rule="evenodd" clip-rule="evenodd" d="M23.4284 19.3934C24.3543 18.8951 25.095 17.5575 25.095 16.3991C25.095 15.2407 24.3313 14.686 23.4012 15.1684C22.471 15.6509 21.7045 17.0086 21.7145 18.1859C21.7246 19.3631 22.4954 19.8961 23.4284 19.3934ZM29.5361 14.1833C29.5361 14.2917 29.5361 14.3986 29.5361 14.5069C29.5361 14.6152 29.5361 14.7178 29.5361 14.8247C29.5361 15.583 29.3467 16.519 29.0337 17.546C28.9232 17.9331 28.794 18.3173 28.649 18.7015C26.9797 23.3063 23.4916 29.1101 23.4916 29.1101C23.4916 29.1101 19.837 27.3421 17.9767 24.5529C17.807 24.3176 17.6599 24.0666 17.5375 23.8032C17.1678 23.1037 16.9639 22.3275 16.9418 21.5355C16.9418 21.4228 16.9418 21.3101 16.9418 21.196C16.9418 21.0819 16.9332 20.975 16.9317 20.8624C16.87 16.3745 19.8026 11.2367 23.361 9.47596C26.8175 7.77153 29.5361 9.91651 29.5361 14.1833Z" fill="#B83131"/>
<path fill-rule="evenodd" clip-rule="evenodd" d="M23.4902 19.411C24.4146 18.9127 25.1553 17.5751 25.1495 16.4181C25.1438 15.2612 24.3916 14.7094 23.4615 15.1918C22.5313 15.6743 21.7663 17.0335 21.7763 18.2092C21.7864 19.385 22.5557 19.9194 23.4902 19.411ZM29.5979 14.2111C29.5979 14.3194 29.5979 14.4277 29.5979 14.5346C29.5979 14.6415 29.5979 14.7455 29.5979 14.8524C29.5979 15.6107 29.407 16.5467 29.0955 17.5737C28.9835 17.9608 28.8543 18.3465 28.7094 18.7292C27.0414 23.3341 23.5533 29.1378 23.5533 29.1378C23.5533 29.1378 19.8988 27.3655 18.0385 24.5763C17.8679 24.3412 17.7204 24.0902 17.5978 23.8266C17.2282 23.1275 17.0244 22.3519 17.0021 21.5603C17.0021 21.4476 17.0021 21.3335 17.0021 21.2194C17.0021 21.1053 16.9935 20.9984 16.9921 20.8858C16.9318 16.3979 19.8629 11.2601 23.4213 9.49934C26.8763 7.79492 29.5979 9.93989 29.5979 14.2111Z" fill="#B93131"/>
<path fill-rule="evenodd" clip-rule="evenodd" d="M23.5505 19.4396C24.4763 18.9413 25.217 17.6037 25.2113 16.4467C25.2055 15.2898 24.4534 14.7322 23.5232 15.2219C22.5931 15.7115 21.8266 17.0563 21.8366 18.2321C21.8467 19.4078 22.6175 19.9437 23.5505 19.4396ZM29.6582 14.231C29.6582 14.3379 29.6582 14.4462 29.6582 14.5545C29.6582 14.6629 29.6582 14.764 29.6582 14.8723C29.6582 15.6292 29.4687 16.5652 29.1558 17.5922C29.0453 17.9793 28.9161 18.3649 28.7711 18.7477C27.1046 23.3482 23.6137 29.1519 23.6137 29.1519C23.6137 29.1519 19.9591 27.3883 18.0988 24.5991C17.929 24.3643 17.7819 24.1138 17.6596 23.8509C17.2887 23.1497 17.0848 22.3714 17.0639 21.5773C17.0639 21.4647 17.0639 21.3506 17.0639 21.2379C17.0639 21.1252 17.0567 21.0212 17.0567 20.9086C16.995 16.4222 19.9275 11.2829 23.4859 9.52361C26.9381 7.81774 29.6582 9.96271 29.6582 14.231Z" fill="#BA3131"/>
<path fill-rule="evenodd" clip-rule="evenodd" d="M23.6122 19.4642C24.5366 18.9644 25.2773 17.6269 25.2716 16.4699C25.2658 15.3129 24.5209 14.7554 23.5835 15.2392C22.6462 15.7231 21.8883 17.0794 21.8984 18.2552C21.9084 19.431 22.6778 19.9669 23.6122 19.4642ZM29.7199 14.2541C29.7199 14.361 29.7199 14.4694 29.7199 14.5777C29.7199 14.686 29.7199 14.7886 29.7199 14.8955C29.7199 15.6538 29.529 16.5883 29.2175 17.6153C29.1056 18.0024 28.9764 18.3881 28.8314 18.7709C27.1635 23.3714 23.674 29.1751 23.674 29.1751C23.674 29.1751 20.0208 27.4129 18.1591 24.6222C17.9899 24.3871 17.8428 24.1366 17.7199 23.874C17.3503 23.1744 17.1464 22.3983 17.1242 21.6063C17.1242 21.4936 17.1242 21.3809 17.1242 21.2668C17.1242 21.1527 17.1155 21.0458 17.1141 20.9317C17.0567 16.4453 19.9806 11.3061 23.5448 9.54676C26.9984 7.84233 29.7199 9.98731 29.7199 14.2541Z" fill="#BB3131"/>
<path fill-rule="evenodd" clip-rule="evenodd" d="M23.6725 19.4871C24.5984 18.9888 25.3376 17.6513 25.3333 16.4928C25.329 15.3344 24.5739 14.7783 23.6452 15.2622C22.7165 15.7461 21.9486 17.0995 21.9586 18.2782C21.9687 19.4568 22.7395 19.9884 23.6725 19.4871ZM29.7802 14.2771C29.7802 14.3854 29.7802 14.4923 29.7802 14.6006C29.7802 14.709 29.7802 14.8115 29.7802 14.9184C29.7802 15.6767 29.5907 16.6127 29.2778 17.6397C29.1658 18.0268 29.0367 18.411 28.8931 18.7953C27.2237 23.4001 23.7357 29.2038 23.7357 29.2038C23.7357 29.2038 20.0811 27.4402 18.2208 24.651C18.0492 24.4141 17.8997 24.1616 17.7744 23.897C17.4053 23.1973 17.2019 22.4211 17.1801 21.6292C17.1801 21.5166 17.1801 21.4039 17.1801 21.2898C17.1801 21.1757 17.1701 21.0688 17.1686 20.9561C17.1084 16.4683 20.0395 11.329 23.5993 9.56971C27.0601 7.86528 29.7802 10.0103 29.7802 14.2771Z" fill="#BC3131"/>
<path fill-rule="evenodd" clip-rule="evenodd" d="M23.7328 19.5106C24.6644 19.0123 25.3993 17.6776 25.3936 16.5221C25.3878 15.3665 24.6357 14.8032 23.7055 15.2856C22.7754 15.7681 22.0103 17.1273 22.0189 18.303C22.0275 19.4788 22.7983 20.0132 23.7328 19.5106ZM29.8419 14.3005C29.8419 14.4089 29.8419 14.5158 29.8419 14.6241C29.8419 14.7324 29.8419 14.835 29.8419 14.9419C29.8419 15.7002 29.651 16.6362 29.3395 17.6632C29.2276 18.0483 29.0988 18.4335 28.9534 18.8187C27.2854 23.4192 23.8031 29.2229 23.8031 29.2229C23.8031 29.2229 20.1485 27.4593 18.2882 24.6701C18.1182 24.435 17.9711 24.184 17.849 23.9204C17.4794 23.2213 17.2756 22.4457 17.2533 21.6541C17.2533 21.54 17.2533 21.4273 17.2533 21.3132C17.2533 21.1991 17.2447 21.0922 17.2433 20.9796C17.1815 16.4917 20.1141 11.3539 23.6725 9.59314C27.1204 7.88872 29.8419 10.0337 29.8419 14.3005Z" fill="#BD3131"/>
<path fill-rule="evenodd" clip-rule="evenodd" d="M23.7945 19.5335C24.7203 19.0352 25.4596 17.6976 25.4538 16.5407C25.4481 15.3837 24.6959 14.8261 23.7658 15.3086C22.8356 15.791 22.0705 17.1502 22.0806 18.326C22.0906 19.5017 22.8615 20.0362 23.7945 19.5335ZM29.9022 14.3249C29.9022 14.4318 29.9022 14.5401 29.9022 14.647C29.9022 14.7539 29.9022 14.8579 29.9022 14.9662C29.9022 15.7231 29.7127 16.6591 29.3998 17.6861C29.2878 18.0732 29.1586 18.4589 29.0136 18.8416C27.3457 23.445 23.8576 29.2487 23.8576 29.2487C23.8576 29.2487 20.2031 27.4822 18.3485 24.693C18.178 24.458 18.0304 24.2069 17.9078 23.9433C17.5387 23.2441 17.3353 22.4685 17.3136 21.677C17.3136 21.5644 17.3136 21.4503 17.3136 21.3362C17.3136 21.222 17.305 21.1152 17.3035 21.0025C17.2432 16.5147 20.1744 11.3768 23.7342 9.61608C27.1806 7.91165 29.9022 10.0566 29.9022 14.3249Z" fill="#BE3131"/>
<path fill-rule="evenodd" clip-rule="evenodd" d="M23.8548 19.5552C24.7807 19.0584 25.5257 17.7208 25.5156 16.5638C25.5056 15.4069 24.7577 14.8493 23.8276 15.3332C22.8974 15.8171 22.1309 17.1734 22.1409 18.3492C22.151 19.5249 22.9218 20.0608 23.8548 19.5552ZM29.964 14.3553C29.964 14.4622 29.964 14.5705 29.964 14.6789C29.964 14.7872 29.964 14.8883 29.964 14.9966C29.964 15.7535 29.773 16.6895 29.4616 17.7165C29.3496 18.1036 29.2204 18.4893 29.0754 18.872C27.406 23.4653 23.918 29.269 23.918 29.269C23.918 29.269 20.2634 27.4996 18.4031 24.7162C18.2334 24.4814 18.0863 24.2309 17.9639 23.968C17.5943 23.2684 17.3904 22.4922 17.3682 21.7002C17.3682 21.5876 17.3682 21.4734 17.3682 21.3608C17.3682 21.2481 17.3596 21.1383 17.3581 21.0257C17.2964 16.5393 20.229 11.4 23.7874 9.6407C27.2481 7.93484 29.964 10.0798 29.964 14.3553Z" fill="#BF3131"/>
<path fill-rule="evenodd" clip-rule="evenodd" d="M23.9165 19.5811C24.8423 19.0813 25.5816 17.7437 25.5758 16.5868C25.5701 15.4298 24.8179 14.8722 23.8878 15.3561C22.9576 15.84 22.1926 17.1963 22.2026 18.3721C22.2127 19.5478 22.982 20.0837 23.9165 19.5811ZM30.0242 14.371C30.0242 14.4779 30.0242 14.5862 30.0242 14.6946C30.0242 14.8029 30.0242 14.9054 30.0242 15.0123C30.0242 15.7707 29.8347 16.7052 29.5218 17.7322C29.4098 18.1174 29.2811 18.5025 29.1357 18.8877C27.4677 23.4911 23.9796 29.2948 23.9796 29.2948C23.9796 29.2948 20.3251 27.5326 18.4648 24.7434C18.2949 24.508 18.1473 24.257 18.0241 23.9938C17.6543 23.2927 17.4509 22.5151 17.4298 21.7217C17.4298 21.609 17.4298 21.4964 17.4298 21.3823C17.4298 21.2681 17.4212 21.1613 17.4198 21.0471C17.3595 16.5608 20.2906 11.4215 23.8505 9.66217C27.3026 7.9592 30.0242 10.1042 30.0242 14.371Z" fill="#C03131"/>
<path fill-rule="evenodd" clip-rule="evenodd" d="M23.9768 19.6043C24.9026 19.106 25.6433 17.7685 25.6376 16.61C25.6318 15.4516 24.8797 14.8969 23.9467 15.3794C23.0136 15.8618 22.2529 17.2196 22.2629 18.3997C22.273 19.5798 23.0438 20.107 23.9768 19.6043ZM30.0845 14.3943C30.0845 14.5026 30.0845 14.6095 30.0845 14.7178C30.0845 14.8262 30.0845 14.9287 30.0845 15.0356C30.0845 15.7939 29.895 16.7299 29.5821 17.7569C29.4716 18.144 29.3424 18.5282 29.1974 18.9124C27.5352 23.5129 24.04 29.3167 24.04 29.3167C24.04 29.3167 20.3854 27.553 18.5251 24.7638C18.3553 24.5286 18.2083 24.2775 18.0859 24.0142C17.7151 23.3148 17.5103 22.5387 17.4873 21.7464C17.4873 21.6337 17.4873 21.5211 17.4873 21.407C17.4873 21.2929 17.4873 21.186 17.4873 21.0733C17.4256 16.5855 20.3509 11.4462 23.9165 9.68689C27.3644 7.98247 30.0845 10.1274 30.0845 14.3943Z" fill="#C13131"/>
<path fill-rule="evenodd" clip-rule="evenodd" d="M24.0385 19.6277C24.9629 19.1294 25.7036 17.7918 25.6979 16.6349C25.6921 15.4779 24.94 14.9203 24.0098 15.4028C23.0797 15.8852 22.3146 17.2444 22.3246 18.4202C22.3347 19.5959 23.1041 20.1333 24.0385 19.6277ZM30.1462 14.4177C30.1462 14.526 30.1462 14.6329 30.1462 14.7412C30.1462 14.8495 30.1462 14.9521 30.1462 15.059C30.1462 15.8173 29.9553 16.7533 29.6438 17.7803C29.5319 18.1655 29.4031 18.5506 29.2577 18.9358C27.5897 23.5407 24.1017 29.3444 24.1017 29.3444C24.1017 29.3444 20.4471 27.5807 18.5868 24.7915C18.4158 24.5538 18.2682 24.2998 18.1461 24.0332C17.7766 23.3341 17.5727 22.5584 17.5504 21.7669C17.5504 21.6542 17.5504 21.5401 17.5504 21.426C17.5504 21.3119 17.5418 21.205 17.5404 21.0924C17.4873 16.6089 20.4069 11.4667 23.971 9.71027C27.4247 8.00007 30.1462 10.1508 30.1462 14.4177Z" fill="#C23131"/>
<path fill-rule="evenodd" clip-rule="evenodd" d="M24.0988 19.6507C25.0246 19.1524 25.7653 17.8221 25.7596 16.6578C25.7538 15.4936 25.0017 14.9433 24.0715 15.4257C23.1414 15.9082 22.3749 17.2674 22.3849 18.4432C22.395 19.6189 23.1658 20.1534 24.0988 19.6507ZM30.2065 14.4421C30.2065 14.549 30.2065 14.6573 30.2065 14.7656C30.2065 14.874 30.2065 14.9751 30.2065 15.0834C30.2065 15.8403 30.017 16.7763 29.7041 17.8033C29.5936 18.1904 29.4644 18.576 29.3194 18.9588C27.65 23.5593 24.162 29.363 24.162 29.363C24.162 29.363 20.5017 27.5994 18.6471 24.8102C18.476 24.5752 18.328 24.3242 18.205 24.0605C17.8358 23.3614 17.6329 22.5856 17.6122 21.7942C17.6122 21.6816 17.6122 21.5675 17.6122 21.4533C17.6122 21.3392 17.6035 21.2323 17.6021 21.1197C17.5418 16.6333 20.4672 11.494 24.0328 9.73326C27.4864 8.02884 30.2065 10.1738 30.2065 14.4421Z" fill="#C33131"/>
<path fill-rule="evenodd" clip-rule="evenodd" d="M24.1605 19.6737C25.0849 19.1754 25.8256 17.8378 25.8199 16.6808C25.8141 15.5238 25.062 14.9663 24.1318 15.4502C23.2017 15.9341 22.4366 17.2904 22.4467 18.4661C22.4567 19.6419 23.229 20.1778 24.1605 19.6737ZM30.2625 14.4651C30.2625 14.572 30.2625 14.6803 30.2625 14.7886C30.2625 14.897 30.2625 14.9981 30.2625 15.1064C30.2625 15.8647 30.0716 16.7993 29.7601 17.8263C29.6481 18.2134 29.5189 18.599 29.374 18.9818C27.706 23.5852 24.2165 29.3889 24.2165 29.3889C24.2165 29.3889 20.5691 27.6224 18.7074 24.8332C18.5382 24.5981 18.3911 24.3476 18.2682 24.085C17.8986 23.3853 17.6947 22.6092 17.6725 21.8172C17.6725 21.7045 17.6725 21.5904 17.6725 21.4778C17.6725 21.3651 17.6638 21.2568 17.6624 21.1427C17.6021 16.6563 20.5289 11.517 24.0902 9.7577C27.5467 8.05327 30.2625 10.1982 30.2625 14.4651Z" fill="#C43131"/>
<path fill-rule="evenodd" clip-rule="evenodd" d="M24.2208 19.6995C25.1467 19.1998 25.8859 17.8637 25.8816 16.7052C25.8773 15.5468 25.1223 14.9907 24.1936 15.4746C23.2649 15.9585 22.4969 17.3133 22.5113 18.4891C22.5256 19.6649 23.2878 20.2007 24.2208 19.6995ZM30.3285 14.4895C30.3285 14.5964 30.3285 14.7047 30.3285 14.813C30.3285 14.9214 30.3285 15.0239 30.3285 15.1308C30.3285 15.8891 30.1391 16.8251 29.8261 17.8521C29.7142 18.2392 29.585 18.6234 29.4415 19.0076C27.7721 23.5995 24.284 29.409 24.284 29.409C24.284 29.409 20.6294 27.6439 18.7691 24.8576C18.5997 24.6221 18.4526 24.3711 18.3299 24.1079C17.9597 23.4085 17.7558 22.6323 17.7342 21.8402C17.7342 21.7275 17.7342 21.6148 17.7342 21.5007C17.7342 21.3866 17.7242 21.2797 17.7227 21.1671C17.6624 16.6792 20.5935 11.54 24.1534 9.78064C27.6084 8.07622 30.3285 10.2212 30.3285 14.488V14.4895Z" fill="#C53131"/>
<path fill-rule="evenodd" clip-rule="evenodd" d="M24.2811 19.7212C25.2069 19.2229 25.9476 17.8853 25.9419 16.7269C25.9361 15.5685 25.184 15.0138 24.2538 15.4962C23.3237 15.9787 22.5586 17.3379 22.5672 18.5137C22.5758 19.6894 23.3481 20.2239 24.2811 19.7212ZM30.3902 14.5111C30.3902 14.6195 30.3902 14.7264 30.3902 14.8347C30.3902 14.943 30.3902 15.0456 30.3902 15.1525C30.3902 15.9108 30.1993 16.8468 29.8878 17.8738C29.7759 18.259 29.6472 18.6441 29.5017 19.0293C27.8338 23.6341 24.3443 29.4379 24.3443 29.4379C24.3443 29.4379 20.6897 27.6742 18.8294 24.885C18.6596 24.6498 18.5125 24.3987 18.3901 24.1354C18.0202 23.4354 17.8163 22.6587 17.7945 21.8662C17.7945 21.7535 17.7945 21.6408 17.7945 21.5267C17.7945 21.4126 17.7858 21.3057 17.7844 21.1931C17.7227 16.7052 20.6552 11.5674 24.2136 9.80665C27.6687 8.09934 30.3902 10.2443 30.3902 14.5111Z" fill="#C63232"/>
<path fill-rule="evenodd" clip-rule="evenodd" d="M24.3428 19.7445C25.2687 19.2461 26.0079 17.9086 26.0022 16.7516C25.9964 15.5946 25.2385 15.0371 24.3155 15.5195C23.3926 16.002 22.6189 17.3612 22.6289 18.5441C22.639 19.7271 23.4098 20.2471 24.3428 19.7445ZM30.4505 14.5344C30.4505 14.6427 30.4505 14.7511 30.4505 14.858C30.4505 14.9649 30.4505 15.0689 30.4505 15.1757C30.4505 15.9341 30.261 16.8701 29.9481 17.897C29.8362 18.2841 29.707 18.6698 29.562 19.0526C27.894 23.6531 24.406 29.4568 24.406 29.4568C24.406 29.4568 20.7514 27.6931 18.8911 24.8996C18.7206 24.6646 18.573 24.4135 18.4504 24.15C18.0813 23.4508 17.8779 22.6751 17.8562 21.8837C17.8562 21.771 17.8562 21.6569 17.8562 21.5428C17.8562 21.4287 17.8476 21.3218 17.8461 21.2091C17.7858 16.7213 20.717 11.5835 24.2768 9.8227C27.729 8.12261 30.4505 10.2676 30.4505 14.5344Z" fill="#C73232"/>
<path fill-rule="evenodd" clip-rule="evenodd" d="M24.4031 19.7678C25.329 19.2666 26.0697 17.932 26.0639 16.775C26.0582 15.618 25.306 15.0604 24.3773 15.5443C23.4486 16.0282 22.6792 17.3889 22.6892 18.5603C22.6993 19.7317 23.4701 20.2777 24.4031 19.7678ZM30.5123 14.5592C30.5123 14.6661 30.5123 14.7744 30.5123 14.8828C30.5123 14.9911 30.5123 15.0922 30.5123 15.2006C30.5123 15.9574 30.3214 16.8934 30.0099 17.9204C29.8979 18.3075 29.7687 18.6932 29.6237 19.0759C27.9544 23.6793 24.4663 29.483 24.4663 29.483C24.4663 29.483 20.8117 27.7165 18.9514 24.9273C18.7816 24.6921 18.6345 24.4411 18.5122 24.1777C18.1435 23.4783 17.9402 22.7027 17.9179 21.9114C17.9179 21.7987 17.9179 21.6846 17.9179 21.5719C17.9179 21.4593 17.9093 21.3495 17.9079 21.2368C17.8462 16.7504 20.773 11.6112 24.3371 9.85184C27.7907 8.14453 30.5123 10.2909 30.5123 14.5592Z" fill="#C83232"/>
<path fill-rule="evenodd" clip-rule="evenodd" d="M24.4648 19.792C25.3907 19.2923 26.1299 17.9547 26.1242 16.7978C26.1184 15.6408 25.3663 15.0774 24.4361 15.5671C23.506 16.0568 22.7409 17.4073 22.7509 18.5831C22.761 19.7588 23.5318 20.2947 24.4648 19.792ZM30.5725 14.582C30.5725 14.6889 30.5725 14.7972 30.5725 14.9056C30.5725 15.0139 30.5725 15.1164 30.5725 15.2233C30.5725 15.9817 30.383 16.9162 30.0701 17.9432C29.9582 18.3284 29.8295 18.7135 29.684 19.0987C28.016 23.7021 24.528 29.5058 24.528 29.5058C24.528 29.5058 20.8734 27.7436 19.0131 24.9544C18.8432 24.719 18.6957 24.468 18.5724 24.2048C18.2033 23.505 17.9999 22.7289 17.9782 21.937C17.9782 21.8244 17.9782 21.7117 17.9782 21.5976C17.9782 21.4835 17.9696 21.3766 17.9681 21.2625C17.9079 16.7761 20.839 11.6368 24.3988 9.87751C27.851 8.17019 30.5725 10.3108 30.5725 14.582Z" fill="#C93232"/>
<path fill-rule="evenodd" clip-rule="evenodd" d="M24.5208 19.8153C25.4467 19.3169 26.1874 17.9794 26.1816 16.821C26.1759 15.6625 25.428 15.1064 24.4979 15.5903C23.5677 16.0742 22.7983 17.4305 22.8113 18.6077C22.8242 19.7849 23.5921 20.3179 24.5208 19.8153ZM30.6285 14.6052C30.6285 14.7136 30.6285 14.8204 30.6285 14.9288C30.6285 15.0371 30.6285 15.1397 30.6285 15.2465C30.6285 16.0049 30.4391 16.9409 30.1276 17.9678C30.0156 18.353 29.8869 18.7382 29.7414 19.1234C28.0764 23.7239 24.5883 29.5218 24.5883 29.5218C24.5883 29.5218 20.9323 27.7639 19.0734 24.9748C18.9045 24.7392 18.7579 24.4882 18.6356 24.2251C18.2661 23.5255 18.0622 22.7494 18.0399 21.9574C18.0399 21.8447 18.0399 21.732 18.0399 21.6179C18.0399 21.5038 18.0313 21.3969 18.0299 21.2842C17.9682 16.7964 20.8935 11.6571 24.4591 9.89783C27.9127 8.19341 30.6328 10.3384 30.6328 14.6052H30.6285Z" fill="#CA3232"/>
<path fill-rule="evenodd" clip-rule="evenodd" d="M24.5868 19.844C25.5112 19.3399 26.2519 18.0023 26.2433 16.8454C26.2347 15.6884 25.4854 15.1308 24.5553 15.6133C23.6251 16.0957 22.8629 17.4549 22.8729 18.6307C22.883 19.8064 23.6596 20.3409 24.5868 19.844ZM30.6931 14.6282C30.6931 14.7365 30.6931 14.8434 30.6931 14.9517C30.6931 15.0601 30.6931 15.1626 30.6931 15.2695C30.6931 16.0278 30.5036 16.9638 30.1907 17.9908C30.0787 18.376 29.95 18.7612 29.8046 19.1463C28.138 23.7439 24.65 29.5505 24.65 29.5505C24.65 29.5505 20.9954 27.7883 19.1351 24.9977C18.9646 24.7627 18.817 24.5116 18.6944 24.248C18.3249 23.5489 18.121 22.7733 18.0988 21.9817C18.0988 21.8676 18.0988 21.755 18.0988 21.6409C18.0988 21.5268 18.0901 21.4199 18.0887 21.3072C18.0299 16.8194 20.9552 11.6815 24.5208 9.92078C27.973 8.21636 30.6931 10.3613 30.6931 14.6282Z" fill="#CB3232"/>
<path fill-rule="evenodd" clip-rule="evenodd" d="M24.6471 19.8615C25.573 19.3632 26.3136 18.0256 26.3079 16.8686C26.3022 15.7116 25.55 15.1541 24.6199 15.6365C23.6897 16.119 22.9232 17.4782 22.9332 18.6539C22.9433 19.8297 23.7141 20.3641 24.6471 19.8615ZM30.7548 14.6529C30.7548 14.7598 30.7548 14.8681 30.7548 14.975C30.7548 15.0819 30.7548 15.1859 30.7548 15.2942C30.7548 16.0511 30.5653 16.9871 30.2524 18.0141C30.1419 18.4012 30.0127 18.7868 29.8677 19.1696C28.1983 23.773 24.7103 29.5767 24.7103 29.5767C24.7103 29.5767 21.0557 27.8102 19.1954 25.021C19.0253 24.7859 18.8782 24.5349 18.7562 24.2713C18.3868 23.5742 18.1829 22.8005 18.1605 22.0108C18.1605 21.8981 18.1605 21.784 18.1605 21.6699C18.1605 21.5558 18.1519 21.4489 18.1504 21.3362C18.0887 16.8484 21.0213 11.7106 24.5797 9.94982C28.0347 8.23962 30.7548 10.3846 30.7548 14.6529Z" fill="#CC3232"/>
<path fill-rule="evenodd" clip-rule="evenodd" d="M24.7089 19.8844C25.6333 19.3861 26.3739 18.0486 26.3682 16.8916C26.3625 15.7346 25.6103 15.177 24.6802 15.6551C23.75 16.1332 22.9849 17.5011 22.995 18.6769C23.005 19.8526 23.7744 20.3885 24.7089 19.8844ZM30.8166 14.6758C30.8166 14.7827 30.8166 14.891 30.8166 14.9994C30.8166 15.1077 30.8166 15.2088 30.8166 15.3171C30.8166 16.074 30.6256 17.01 30.3142 18.037C30.2022 18.4241 30.073 18.8098 29.928 19.1925C28.2601 23.7959 24.7706 29.5996 24.7706 29.5996C24.7706 29.5996 21.1175 27.8331 19.2557 25.0439C19.0865 24.8088 18.9394 24.5583 18.8165 24.2957C18.4469 23.5961 18.243 22.82 18.2208 22.028C18.2208 21.9153 18.2208 21.8012 18.2208 21.6885C18.2208 21.5758 18.2122 21.4675 18.2107 21.3534C18.149 16.867 21.0816 11.7277 24.64 9.96843C28.095 8.26256 30.8166 10.4075 30.8166 14.6758Z" fill="#CD3232"/>
<path fill-rule="evenodd" clip-rule="evenodd" d="M24.7691 19.9091C25.695 19.4107 26.4342 18.0718 26.4299 16.9148C26.4256 15.7578 25.6691 15.2002 24.7418 15.6841C23.8146 16.168 23.0452 17.5243 23.0552 18.7001C23.0653 19.8759 23.8361 20.4117 24.7691 19.9091ZM30.8768 14.699C30.8768 14.8059 30.8768 14.9142 30.8768 15.0226C30.8768 15.1309 30.8768 15.2335 30.8768 15.3404C30.8768 16.0987 30.6873 17.0332 30.3744 18.0602C30.2625 18.4454 30.1342 18.8306 29.9897 19.2158C28.3203 23.8191 24.8323 29.6228 24.8323 29.6228C24.8323 29.6228 21.1777 27.8606 19.3174 25.0715C19.148 24.836 19.0009 24.585 18.8782 24.3218C18.508 23.6224 18.304 22.8462 18.2825 22.054C18.2825 21.9414 18.2825 21.8287 18.2825 21.7146C18.2825 21.6005 18.2739 21.4936 18.271 21.3795C18.2107 16.8931 21.1418 11.7538 24.7017 9.99453C28.1567 8.28866 30.8768 10.4322 30.8768 14.699Z" fill="#CE3232"/>
<path fill-rule="evenodd" clip-rule="evenodd" d="M24.8294 19.9325C25.7553 19.4341 26.4959 18.0966 26.4902 16.9382C26.4845 15.7797 25.7323 15.2222 24.8079 15.7075C23.8835 16.1928 23.1069 17.5477 23.117 18.7249C23.127 19.9021 23.8964 20.4351 24.8294 19.9325ZM30.9386 14.7224C30.9386 14.8307 30.9386 14.9376 30.9386 15.046C30.9386 15.1543 30.9386 15.2568 30.9386 15.3637C30.9386 16.1221 30.7477 17.058 30.4362 18.085C30.3242 18.4702 30.1955 18.8554 30.05 19.2406C28.3821 23.8454 24.8926 29.6491 24.8926 29.6491C24.8926 29.6491 21.238 27.8855 19.3777 25.0963C19.2085 24.8607 19.0614 24.6097 18.9385 24.3466C18.5701 23.6453 18.3682 22.8676 18.3485 22.0745C18.3485 21.9619 18.3485 21.8492 18.3485 21.7351C18.3485 21.621 18.3399 21.5141 18.3385 21.4014C18.2768 16.9136 21.2093 11.7758 24.7677 10.015C28.217 8.3106 30.9386 10.4556 30.9386 14.7224Z" fill="#CF3232"/>
<path fill-rule="evenodd" clip-rule="evenodd" d="M24.8912 19.9554C25.8127 19.4571 26.5562 18.1195 26.5519 16.9626C26.5476 15.8056 25.7926 15.248 24.8639 15.7305C23.9352 16.2129 23.1672 17.5721 23.1773 18.7479C23.1873 19.9236 23.9581 20.4581 24.8912 19.9554ZM30.9989 14.7454C30.9989 14.8537 30.9989 14.9606 30.9989 15.0689C30.9989 15.1772 30.9989 15.2798 30.9989 15.3867C30.9989 16.145 30.8094 17.081 30.4965 18.108C30.3845 18.4932 30.2558 18.8783 30.1103 19.2635C28.4424 23.864 24.9514 29.6663 24.9514 29.6663C24.9514 29.6663 21.2997 27.9041 19.4395 25.1149C19.2689 24.8799 19.1213 24.6288 18.9988 24.3652C18.6297 23.666 18.4263 22.8904 18.4045 22.0989C18.4045 21.9863 18.4045 21.8722 18.4045 21.758C18.4045 21.6439 18.3959 21.5371 18.3945 21.4244C18.3342 16.9366 21.2653 11.7987 24.8251 10.038C28.2773 8.33355 30.9989 10.4785 30.9989 14.7454Z" fill="#D03232"/>
<path fill-rule="evenodd" clip-rule="evenodd" d="M24.9514 19.9787C25.8773 19.4803 26.618 18.1428 26.6122 16.9858C26.6065 15.8288 25.8543 15.2713 24.9242 15.7537C23.994 16.2362 23.2289 17.5954 23.2376 18.7711C23.2462 19.9469 24.0184 20.4813 24.9514 19.9787ZM31.0606 14.7701C31.0606 14.8769 31.0606 14.9853 31.0606 15.0936C31.0606 15.2019 31.0606 15.3031 31.0606 15.4114C31.0606 16.1683 30.8697 17.1043 30.5582 18.1312C30.4462 18.5183 30.317 18.904 30.172 19.2868C28.5027 23.8902 25.0146 29.6867 25.0146 29.6867C25.0146 29.6867 21.3629 27.9331 19.4969 25.1382C19.3298 24.9027 19.1856 24.6517 19.0662 24.3885C18.6967 23.6894 18.4928 22.9137 18.4705 22.1222C18.4705 22.0095 18.4705 21.8954 18.4705 21.7813C18.4705 21.6672 18.4619 21.5603 18.4605 21.4476C18.3988 16.9613 21.3313 11.822 24.8897 10.0627C28.339 8.3568 31.0606 10.5018 31.0606 14.7701Z" fill="#D13232"/>
<path fill-rule="evenodd" clip-rule="evenodd" d="M25.0132 20.003C25.939 19.5032 26.6739 18.1657 26.6739 17.0087C26.6739 15.8517 25.9146 15.2942 24.9845 15.778C24.0543 16.2619 23.2892 17.6182 23.2993 18.794C23.3093 19.9698 24.0801 20.5056 25.0132 20.003ZM31.1237 14.7886C31.1237 14.8955 31.1237 15.0038 31.1237 15.1122C31.1237 15.2205 31.1237 15.323 31.1237 15.4299C31.1237 16.1883 30.9343 17.1228 30.6213 18.1498C30.5094 18.5369 30.3802 18.9226 30.2352 19.3053C28.5673 23.9087 25.0792 29.7124 25.0792 29.7124C25.0792 29.7124 21.4246 27.9502 19.5643 25.1596C19.3941 24.9249 19.2465 24.6743 19.1237 24.4114C18.7545 23.7116 18.5511 22.9355 18.5294 22.1436C18.5294 22.031 18.5294 21.9168 18.5294 21.8042C18.5294 21.6915 18.5208 21.5832 18.5193 21.4691C18.4591 16.9827 21.3902 11.8434 24.95 10.0841C28.3964 8.38113 31.1237 10.5261 31.1237 14.7886Z" fill="#D23232"/>
<path fill-rule="evenodd" clip-rule="evenodd" d="M25.0735 20.0262C25.9993 19.5264 26.74 18.1903 26.7343 17.0319C26.7285 15.8735 25.9764 15.3174 25.0462 15.7998C24.1161 16.2822 23.3495 17.6415 23.3596 18.8172C23.3696 19.993 24.1405 20.5289 25.0735 20.0262ZM31.1812 14.8162C31.1812 14.923 31.1812 15.0314 31.1812 15.1397C31.1812 15.248 31.1812 15.3506 31.1812 15.4575C31.1812 16.2158 30.9917 17.1518 30.6802 18.1788C30.5682 18.564 30.4395 18.9491 30.2941 19.3343C28.6247 23.9377 25.1366 29.7414 25.1366 29.7414C25.1366 29.7414 21.4821 27.9749 19.6218 25.1886C19.4523 24.9531 19.3052 24.7021 19.1825 24.4389C18.8129 23.7393 18.6091 22.9632 18.5868 22.1712C18.5868 22.0585 18.5868 21.9458 18.5868 21.8317C18.5868 21.7176 18.5782 21.6107 18.5768 21.4981C18.5165 17.0073 21.4419 11.8681 25.0074 10.1088C28.4611 8.40435 31.1812 10.5493 31.1812 14.8162Z" fill="#D33232"/>
<path fill-rule="evenodd" clip-rule="evenodd" d="M25.1352 20.0492C26.061 19.5552 26.8002 18.2134 26.7945 17.0549C26.7888 15.8965 26.0366 15.3418 25.1065 15.8243C24.1763 16.3067 23.4112 17.6659 23.4213 18.8417C23.4313 20.0174 24.2007 20.5519 25.1352 20.0492ZM31.2429 14.8392C31.2429 14.9475 31.2429 15.0544 31.2429 15.1627C31.2429 15.2711 31.2429 15.3736 31.2429 15.4805C31.2429 16.2388 31.0534 17.1748 30.7405 18.2018C30.6285 18.587 30.4998 18.9722 30.3543 19.3573C28.6835 23.9578 25.1983 29.7615 25.1983 29.7615C25.1983 29.7615 21.5437 27.9979 19.6834 25.2087C19.5136 24.9758 19.3661 24.7272 19.2428 24.4663C18.873 23.7673 18.6696 22.9915 18.6485 22.2C18.6485 22.0859 18.6485 21.9732 18.6485 21.8591C18.6485 21.745 18.6356 21.6309 18.6356 21.5182C18.5782 17.0304 21.5064 11.8998 25.0677 10.1318C28.5213 8.43314 31.2429 10.5723 31.2429 14.8392Z" fill="#D43333"/>
<path fill-rule="evenodd" clip-rule="evenodd" d="M25.1954 20.0725C26.1213 19.5742 26.862 18.2367 26.8562 17.0797C26.8505 15.9227 26.0998 15.3666 25.1682 15.8476C24.2366 16.3286 23.4715 17.6892 23.4816 18.865C23.4916 20.0408 24.2624 20.5752 25.1954 20.0725ZM31.3031 14.8625C31.3031 14.9708 31.3031 15.0792 31.3031 15.186C31.3031 15.2929 31.3031 15.3969 31.3031 15.5038C31.3031 16.2621 31.1137 17.1981 30.8007 18.2251C30.6902 18.6122 30.561 18.9979 30.4161 19.3807C28.7467 23.9855 25.2586 29.7892 25.2586 29.7892C25.2586 29.7892 21.604 28.0212 19.7437 25.232C19.5737 24.997 19.4266 24.7459 19.3045 24.4824C18.9349 23.7833 18.7311 23.0076 18.7088 22.2161C18.7088 22.1034 18.7088 21.9893 18.7088 21.8752C18.7088 21.7611 18.7002 21.6542 18.6988 21.5415C18.6356 17.0537 21.5638 11.9159 25.1294 10.1551C28.583 8.45068 31.3031 10.6 31.3031 14.8625Z" fill="#D53333"/>
<path fill-rule="evenodd" clip-rule="evenodd" d="M25.2572 20.0954C26.1816 19.597 26.9223 18.2552 26.9165 17.0996C26.9108 15.9441 26.1586 15.388 25.2285 15.8719C24.2983 16.3557 23.5333 17.7121 23.5433 18.8878C23.5534 20.0636 24.3227 20.5995 25.2572 20.0954ZM31.3649 14.8868C31.3649 14.9936 31.3649 15.102 31.3649 15.2103C31.3649 15.3186 31.3649 15.4197 31.3649 15.5281C31.3649 16.285 31.174 17.2209 30.8625 18.2479C30.7505 18.635 30.6214 19.0207 30.4764 19.4035C28.8084 24.0069 25.3189 29.8033 25.3189 29.8033C25.3189 29.8033 21.6658 28.0397 19.8041 25.2505C19.6348 25.0154 19.4878 24.7649 19.3648 24.5023C18.9954 23.8026 18.7916 23.0265 18.7691 22.2346C18.7691 22.1219 18.7691 22.0078 18.7691 21.8951C18.7691 21.7824 18.7605 21.6727 18.7591 21.56C18.6974 17.0736 21.6299 11.9343 25.1883 10.175C28.6433 8.4735 31.3649 10.6185 31.3649 14.8868Z" fill="#D63333"/>
<path fill-rule="evenodd" clip-rule="evenodd" d="M25.3174 20.12C26.2433 19.6202 26.9825 18.2826 26.9782 17.1257C26.9739 15.9687 26.2189 15.4111 25.2902 15.895C24.3614 16.3789 23.5935 17.7352 23.6035 18.911C23.6136 20.0867 24.3844 20.6226 25.3174 20.12ZM31.4251 14.9099C31.4251 15.0168 31.4251 15.1251 31.4251 15.2335C31.4251 15.3418 31.4251 15.4443 31.4251 15.5512C31.4251 16.3096 31.2356 17.2441 30.9227 18.2711C30.8108 18.6563 30.6825 19.0414 30.538 19.4266C28.8686 24.0329 25.382 29.8308 25.382 29.8308C25.382 29.8308 21.7275 28.0686 19.8672 25.2794C19.6977 25.044 19.5506 24.793 19.4279 24.5298C19.0577 23.8304 18.8538 23.0541 18.8322 22.262C18.8322 22.1494 18.8322 22.0367 18.8322 21.9226C18.8322 21.8085 18.8236 21.7016 18.8207 21.5875C18.7605 17.1011 21.6916 11.9618 25.2514 10.2025C28.705 8.4981 31.4251 10.6431 31.4251 14.9099Z" fill="#D73333"/>
<path fill-rule="evenodd" clip-rule="evenodd" d="M25.3821 20.1434C26.3079 19.6451 27.0486 18.3075 27.0428 17.1491C27.0371 15.9907 26.2849 15.4346 25.3548 15.9184C24.4246 16.4023 23.6596 17.7586 23.6596 18.9359C23.6596 20.1131 24.4447 20.6461 25.3821 20.1434ZM31.4869 14.9333C31.4869 15.0417 31.4869 15.1486 31.4869 15.2569C31.4869 15.3652 31.4869 15.4678 31.4869 15.5747C31.4869 16.333 31.296 17.269 30.9845 18.296C30.8725 18.6811 30.7438 19.0663 30.5984 19.4515C28.9304 24.0563 25.4409 29.8601 25.4409 29.8601C25.4409 29.8601 21.7935 28.0921 19.9275 25.3029C19.7582 25.0673 19.6112 24.8163 19.4882 24.5532C19.1186 23.8536 18.9148 23.0775 18.8925 22.2855C18.8925 22.1728 18.8925 22.0601 18.8925 21.946C18.8925 21.8319 18.8839 21.725 18.8825 21.6124C18.8208 17.1245 21.7533 11.9853 25.3117 10.226C28.7653 8.52153 31.4869 10.6665 31.4869 14.9333Z" fill="#D83333"/>
<path fill-rule="evenodd" clip-rule="evenodd" d="M25.4395 20.1665C26.3653 19.6682 27.1046 18.3306 27.1046 17.1737C27.1046 16.0167 26.3409 15.4591 25.4122 15.9445C24.4835 16.4298 23.7155 17.7832 23.7256 18.959C23.7356 20.1347 24.5065 20.6692 25.4395 20.1665ZM31.5543 14.9565C31.5543 15.0648 31.5543 15.1717 31.5543 15.28C31.5543 15.3883 31.5543 15.4909 31.5543 15.5978C31.5543 16.3561 31.3649 17.2921 31.0519 18.3191C30.94 18.7043 30.8113 19.0894 30.6658 19.4746C28.9979 24.0795 25.5098 29.8832 25.5098 29.8832C25.5098 29.8832 21.8481 28.1152 19.9878 25.3332C19.8177 25.0979 19.6702 24.8469 19.5471 24.5836C19.178 23.8844 18.9746 23.1087 18.9528 22.3173C18.9528 22.2032 18.9528 22.0905 18.9528 21.9764C18.9528 21.8623 18.9428 21.7554 18.9413 21.6427C18.8811 17.1549 21.8122 12.0171 25.372 10.2563C28.8271 8.54465 31.5543 10.6896 31.5543 14.9565Z" fill="#D93333"/>
<path fill-rule="evenodd" clip-rule="evenodd" d="M25.4998 20.1893C26.4256 19.6909 27.1663 18.3534 27.1606 17.1964C27.1548 16.0394 26.4027 15.4819 25.4725 15.9643C24.5424 16.4468 23.7773 17.806 23.7859 18.9774C23.7945 20.1488 24.5668 20.6919 25.4998 20.1893ZM31.6089 14.9807C31.6089 15.0876 31.6089 15.1959 31.6089 15.3028C31.6089 15.4097 31.6089 15.5137 31.6089 15.622C31.6089 16.3789 31.418 17.3149 31.1065 18.3418C30.9946 18.729 30.8654 19.1146 30.7204 19.4974C29.051 24.1008 25.5629 29.9045 25.5629 29.9045C25.5629 29.9045 21.9084 28.138 20.0481 25.3488C19.878 25.1137 19.7309 24.8626 19.6088 24.5991C19.2393 23.9 19.0354 23.1244 19.0131 22.3328C19.0131 22.2201 19.0131 22.106 19.0131 21.9919C19.0131 21.8778 19.0045 21.7709 19.0031 21.6583C18.9414 17.1704 21.8739 12.0326 25.4323 10.2718C28.8874 8.56741 31.6089 10.7124 31.6089 14.9807Z" fill="#DA3333"/>
<path fill-rule="evenodd" clip-rule="evenodd" d="M25.5615 20.2125C26.4873 19.7142 27.2266 18.3767 27.2208 17.2197C27.2151 16.0627 26.4629 15.5109 25.5328 15.989C24.6026 16.4671 23.8375 17.8292 23.8476 19.005C23.8576 20.1808 24.6285 20.7109 25.5615 20.2125ZM31.6692 15.0039C31.6692 15.1108 31.6692 15.2192 31.6692 15.3275C31.6692 15.4358 31.6692 15.5369 31.6692 15.6453C31.6692 16.4021 31.4797 17.3381 31.1668 18.3651C31.0548 18.7522 30.9256 19.1379 30.7806 19.5207C29.1141 24.1212 25.6246 29.9249 25.6246 29.9249C25.6246 29.9249 21.9701 28.1612 20.1098 25.372C19.9395 25.1373 19.792 24.8868 19.6691 24.6238C19.3 23.9241 19.0966 23.148 19.0748 22.3561C19.0748 22.2434 19.0748 22.1293 19.0748 22.0166C19.0748 21.904 19.0662 21.7956 19.0662 21.6815C19.0059 17.1951 21.9371 12.0559 25.4969 10.2966C28.9476 8.59069 31.6692 10.7357 31.6692 15.0039Z" fill="#DB3333"/>
<path fill-rule="evenodd" clip-rule="evenodd" d="M25.5615 20.2125C26.4873 19.7142 27.2266 18.3767 27.2208 17.2197C27.2151 16.0627 26.4629 15.5109 25.5328 15.989C24.6026 16.4671 23.8375 17.8292 23.8476 19.005C23.8576 20.1808 24.6285 20.7109 25.5615 20.2125ZM31.6692 15.0039C31.6692 15.1108 31.6692 15.2192 31.6692 15.3275C31.6692 15.4358 31.6692 15.5369 31.6692 15.6453C31.6692 16.4021 31.4797 17.3381 31.1668 18.3651C31.0548 18.7522 30.9256 19.1379 30.7806 19.5207C29.1141 24.1212 25.6246 29.9249 25.6246 29.9249C25.6246 29.9249 21.9701 28.1612 20.1098 25.372C19.9395 25.1373 19.792 24.8868 19.6691 24.6238C19.3 23.9241 19.0966 23.148 19.0748 22.3561C19.0748 22.2434 19.0748 22.1293 19.0748 22.0166C19.0748 21.904 19.0662 21.7956 19.0662 21.6815C19.0059 17.1951 21.9371 12.0559 25.4969 10.2966C28.9476 8.59069 31.6692 10.7357 31.6692 15.0039Z" fill="#F76D6D"/>
<defs>
<filter id="filter0_i_21_6925" x="0" y="17.7446" width="48" height="27.8032" filterUnits="userSpaceOnUse" color-interpolation-filters="sRGB">
<feFlood flood-opacity="0" result="BackgroundImageFix"/>
<feBlend mode="normal" in="SourceGraphic" in2="BackgroundImageFix" result="shape"/>
<feColorMatrix in="SourceAlpha" type="matrix" values="0 0 0 0 0 0 0 0 0 0 0 0 0 0 0 0 0 0 127 0" result="hardAlpha"/>
<feOffset dy="-1"/>
<feComposite in2="hardAlpha" operator="arithmetic" k2="-1" k3="1"/>
<feColorMatrix type="matrix" values="0 0 0 0 0.310375 0 0 0 0 0.330477 0 0 0 0 0.375839 0 0 0 0.3 0"/>
<feBlend mode="normal" in2="shape" result="effect1_innerShadow_21_6925"/>
</filter>
<filter id="filter1_i_21_6925" x="15.4286" y="27.4888" width="17.0527" height="8.93262" filterUnits="userSpaceOnUse" color-interpolation-filters="sRGB">
<feFlood flood-opacity="0" result="BackgroundImageFix"/>
<feBlend mode="normal" in="SourceGraphic" in2="BackgroundImageFix" result="shape"/>
<feColorMatrix in="SourceAlpha" type="matrix" values="0 0 0 0 0 0 0 0 0 0 0 0 0 0 0 0 0 0 127 0" result="hardAlpha"/>
<feOffset dy="2"/>
<feComposite in2="hardAlpha" operator="arithmetic" k2="-1" k3="1"/>
<feColorMatrix type="matrix" values="0 0 0 0 0 0 0 0 0 0 0 0 0 0 0 0 0 0 0.25 0"/>
<feBlend mode="normal" in2="shape" result="effect1_innerShadow_21_6925"/>
</filter>
<linearGradient id="paint0_linear_21_6925" x1="-2.38925" y1="25.9523" x2="7.50682" y2="49.4671" gradientUnits="userSpaceOnUse">
<stop stop-color="#00CC60"/>
<stop offset="1" stop-color="#88D37A"/>
</linearGradient>
<linearGradient id="paint1_linear_21_6925" x1="27.4832" y1="15.0501" x2="18.2005" y2="35.2093" gradientUnits="userSpaceOnUse">
<stop stop-color="#E9D7A9"/>
<stop offset="1" stop-color="#AFFF9A" stop-opacity="0.4"/>
</linearGradient>
<linearGradient id="paint2_linear_21_6925" x1="29.3608" y1="15.1821" x2="19.7365" y2="34.2993" gradientUnits="userSpaceOnUse">
<stop stop-color="#E9D7A9"/>
<stop offset="1" stop-color="#ABFF9A" stop-opacity="0.7"/>
</linearGradient>
<linearGradient id="paint3_linear_21_6925" x1="30.2327" y1="15.0519" x2="19.9895" y2="33.9029" gradientUnits="userSpaceOnUse">
<stop stop-color="#E9D7A9"/>
<stop offset="1" stop-color="#FFDA9A"/>
</linearGradient>
<linearGradient id="paint4_linear_21_6925" x1="12.7321" y1="17.554" x2="12.5109" y2="32.7284" gradientUnits="userSpaceOnUse">
<stop stop-color="#E9D7A9"/>
<stop offset="1" stop-color="#FFB185"/>
</linearGradient>
<linearGradient id="paint5_linear_21_6925" x1="13.3312" y1="17.5617" x2="13.1184" y2="32.124" gradientUnits="userSpaceOnUse">
<stop stop-color="#E9D7A9"/>
<stop offset="1" stop-color="#FF9C85"/>
</linearGradient>
<linearGradient id="paint6_linear_21_6925" x1="22.3309" y1="15.7542" x2="18.1521" y2="26.0465" gradientUnits="userSpaceOnUse">
<stop stop-color="#FFA73C"/>
<stop offset="1" stop-color="#E15D44"/>
</linearGradient>
<linearGradient id="paint7_linear_21_6925" x1="23.549" y1="17.4069" x2="20.6414" y2="24.6285" gradientUnits="userSpaceOnUse">
<stop stop-color="#FFA73C"/>
<stop offset="1" stop-color="#E15D44"/>
</linearGradient>
<linearGradient id="paint8_linear_21_6925" x1="22.737" y1="18.6534" x2="20.9159" y2="22.6111" gradientUnits="userSpaceOnUse">
<stop stop-color="#FFA73C"/>
<stop offset="1" stop-color="#E15D44"/>
</linearGradient>
</defs>
</svg>
