<svg preserveAspectRatio="none" width="100%" height="100%" overflow="visible" style="display: block;" viewBox="0 0 25 24" fill="none" xmlns="http://www.w3.org/2000/svg">
<path id="fields_sel copy 10" d="M9.43262 12.7021C9.67193 12.7516 9.82653 12.9853 9.77735 13.2246L7.63379 23.583C7.58437 23.8251 7.37115 23.9995 7.12403 24H1.042C0.926451 23.9997 0.813647 23.9601 0.723639 23.8877C0.505235 23.7116 0.470661 23.3915 0.64649 23.1729L8.99415 12.8604C9.06993 12.7663 9.18048 12.7072 9.30079 12.6963V12.6943C9.34477 12.6901 9.38934 12.6933 9.43262 12.7021ZM12.5 12.542C12.7641 12.5419 12.9921 12.7268 13.0459 12.9854L15.1982 23.375C15.2052 23.4093 15.208 23.4445 15.208 23.4795C15.2078 23.767 14.9751 24.0001 14.6875 24H10.3154C10.2805 24 10.2452 23.9962 10.2109 23.9893C9.92936 23.9315 9.74817 23.6567 9.80567 23.375L11.9551 12.9854C12.0085 12.727 12.2362 12.542 12.5 12.542ZM15.6992 12.6963C15.8195 12.7075 15.9299 12.7665 16.0059 12.8604L24.3535 23.167C24.4301 23.2593 24.4716 23.3762 24.4707 23.4961C24.4683 23.7766 24.2386 24.0022 23.958 24H17.876C17.6289 23.9995 17.4156 23.8251 17.3662 23.583L15.2227 13.2256C15.2138 13.1823 15.2116 13.1377 15.2158 13.0938C15.2394 12.8505 15.4559 12.6728 15.6992 12.6963ZM5.31641 13.3496C5.42475 13.3233 5.53779 13.3702 5.59669 13.4648C5.65935 13.5598 5.65221 13.6843 5.57911 13.7715L0.462896 20.0928C0.413602 20.1534 0.338902 20.1883 0.260748 20.1885C0.117102 20.1887 0.000396453 20.0724 5.80463e-06 19.9287V16.3955C-0.0015452 15.8255 0.307829 15.3003 0.806646 15.0244C2.22904 14.2687 3.74538 13.7048 5.31641 13.3496ZM19.6836 13.3496C21.2546 13.7048 22.771 14.2687 24.1934 15.0244C24.6922 15.3003 25.0016 15.8255 25 16.3955V19.9238C24.9998 20.0018 24.9647 20.0757 24.9043 20.125C24.7927 20.2157 24.6278 20.1995 24.5371 20.0879L19.4209 13.7666C19.3707 13.7041 19.3518 13.622 19.3701 13.5439C19.403 13.4039 19.5436 13.3167 19.6836 13.3496ZM7.2002 8.03125C8.01174 5.10466 11.0421 3.38979 13.9688 4.20117C16.8954 5.01265 18.6101 8.04307 17.7988 10.9697C17.6544 11.4696 17.1366 11.7628 16.6338 11.6289C16.1234 11.493 15.8201 10.9684 15.9561 10.458C16.1294 9.83182 16.1294 9.17013 15.9561 8.54395C15.4275 6.63501 13.4509 5.51632 11.542 6.04492C9.63327 6.57361 8.51451 8.5492 9.04297 10.458C9.17687 10.9608 8.88366 11.4786 8.38379 11.623C7.87648 11.7694 7.34683 11.477 7.2002 10.9697C6.9337 10.0084 6.93369 8.99256 7.2002 8.03125ZM5.08301 9.11426C5.6583 9.11426 6.125 9.58096 6.12501 10.1562C6.12501 10.7315 5.65831 11.1982 5.08301 11.1982H4.042C3.4667 11.1982 3.00001 10.7315 3.00001 10.1562C3.00001 9.58096 3.4667 9.11426 4.042 9.11426H5.08301ZM21.083 9.11426C21.6583 9.11426 22.125 9.58096 22.125 10.1562C22.125 10.7315 21.6583 11.1982 21.083 11.1982H20.042C19.4667 11.1982 19 10.7315 19 10.1562C19 9.58096 19.4667 9.11426 20.042 9.11426H21.083ZM5.47462 3.00098C5.87427 2.58718 6.53444 2.57497 6.94825 2.97461L7.68653 3.71289C8.09303 4.11993 8.09249 4.77889 7.68555 5.18555C7.27862 5.59219 6.61965 5.5923 6.2129 5.18555L5.47462 4.44824C5.08489 4.0447 5.08512 3.40466 5.47462 3.00098ZM18.3643 2.97461C18.7678 2.58488 19.4078 2.58511 19.8115 2.97461C20.2253 3.37427 20.2375 4.03444 19.8379 4.44824L19.0996 5.18555C18.6929 5.5923 18.0339 5.59219 17.627 5.18555C17.22 4.77888 17.2195 4.11993 17.626 3.71289L18.3643 2.97461ZM12.6563 0C13.2315 4.319e-06 13.6982 0.466698 13.6982 1.04199V2.08301C13.6982 2.6583 13.2315 3.125 12.6563 3.125C12.081 3.125 11.6143 2.6583 11.6143 2.08301V1.04199C11.6143 0.466695 12.081 0 12.6563 0Z" fill="var(--fill-0, black)"/>
</svg>
