<svg preserveAspectRatio="none" width="100%" height="100%" overflow="visible" style="display: block;" viewBox="0 0 24 23.041" fill="none" xmlns="http://www.w3.org/2000/svg">
<path id="fields_sel copy 10" d="M9.05665 12.1943C9.28633 12.2419 9.43399 12.4666 9.38673 12.6963L7.32911 22.6406C7.28167 22.873 7.07705 23.0405 6.83985 23.041H1.00098C0.890057 23.0408 0.781728 23.0022 0.695319 22.9326C0.485729 22.7635 0.453183 22.4569 0.622077 22.2471L8.63477 12.3467C8.70758 12.2562 8.814 12.1989 8.92969 12.1885V12.1875C8.97205 12.1834 9.01498 12.1857 9.05665 12.1943ZM15.0723 12.1875C15.1878 12.1982 15.2943 12.2554 15.3672 12.3457L23.3799 22.2402C23.4535 22.3289 23.4941 22.4404 23.4932 22.5557C23.491 22.8251 23.2705 23.0421 23.001 23.04H17.1621C16.9249 23.0396 16.7203 22.8721 16.6729 22.6396L14.6152 12.6963C14.6067 12.6548 14.6044 12.6124 14.6084 12.5703C14.6309 12.3367 14.8386 12.165 15.0723 12.1875ZM11.9981 12.0391C12.2516 12.039 12.4708 12.2176 12.5225 12.4658L14.5889 22.4395C14.5956 22.4724 14.5986 22.5064 14.5986 22.54C14.5984 22.816 14.3746 23.0391 14.0986 23.0391H9.90137C9.86791 23.0391 9.83456 23.036 9.80176 23.0293C9.5312 22.9741 9.35592 22.71 9.41114 22.4395L11.4756 12.4658C11.5268 12.2179 11.7449 12.0393 11.9981 12.0391ZM5.1045 12.8154C5.2083 12.7904 5.31653 12.8342 5.37305 12.9248C5.43321 13.0159 5.42645 13.136 5.35645 13.2197L0.444342 19.2881C0.397079 19.3462 0.325905 19.3806 0.250983 19.3809C0.112911 19.3812 0.000381827 19.2689 6.4633e-06 19.1309V15.7393C-0.00159755 15.1919 0.295458 14.6868 0.774421 14.4219C2.13989 13.6964 3.59635 13.1564 5.1045 12.8154ZM18.8955 12.8164C20.4037 13.1574 21.8601 13.6983 23.2256 14.4238C23.7046 14.6887 24.0016 15.1939 24 15.7412V19.1279C23.9998 19.2029 23.9654 19.274 23.9072 19.3213C23.8001 19.408 23.6427 19.3921 23.5557 19.2852L18.6436 13.2168C18.5954 13.1568 18.5781 13.0778 18.5957 13.0029C18.6273 12.8687 18.7613 12.7852 18.8955 12.8164ZM6.91407 7.70996C7.69318 4.90046 10.6025 3.2543 13.4121 4.0332C16.2216 4.81231 17.8678 7.72162 17.0889 10.5312C16.9502 11.0111 16.4534 11.2915 15.9707 11.1631C15.4808 11.0326 15.1889 10.53 15.3193 10.04C15.4858 9.43879 15.4858 8.8034 15.3193 8.20215C14.8118 6.36965 12.9146 5.29529 11.082 5.80273C9.24969 6.31035 8.17523 8.20758 8.68262 10.04C8.81116 10.5227 8.53066 11.0195 8.05079 11.1582C7.56371 11.299 7.05493 11.0183 6.91407 10.5312C6.65821 9.60837 6.65821 8.63285 6.91407 7.70996ZM4.88184 8.75098C5.43413 8.75098 5.88184 9.19869 5.88184 9.75098C5.88173 10.3032 5.43407 10.751 4.88184 10.751H3.88184C3.32967 10.7509 2.88195 10.3031 2.88184 9.75098C2.88184 9.19872 3.3296 8.75103 3.88184 8.75098H4.88184ZM20.2422 8.75098C20.7944 8.75105 21.2422 9.19873 21.2422 9.75098C21.2421 10.3031 20.7944 10.7509 20.2422 10.751H19.2422C18.69 10.751 18.2423 10.3032 18.2422 9.75098C18.2422 9.1987 18.6899 8.751 19.2422 8.75098H20.2422ZM5.2588 2.87988C5.64247 2.48263 6.2756 2.47181 6.67286 2.85547L7.38184 3.56348C7.77205 3.95414 7.77226 4.5871 7.38184 4.97754C6.99116 5.36793 6.35728 5.3681 5.9668 4.97754L5.2588 4.26953C4.88458 3.88206 4.88467 3.26741 5.2588 2.87988ZM17.6309 2.85547C18.0184 2.48119 18.633 2.48121 19.0205 2.85547C19.4177 3.23916 19.4286 3.87231 19.0449 4.26953L18.3369 4.97754C17.9464 5.36788 17.3135 5.36786 16.9229 4.97754C16.5323 4.58719 16.5318 3.95425 16.9219 3.56348L17.6309 2.85547ZM12.1504 0C12.7027 0 13.1504 0.447714 13.1504 1V2C13.1504 2.55229 12.7027 3 12.1504 3C11.5983 2.99977 11.1504 2.55215 11.1504 2V1C11.1504 0.447859 11.5983 0.00023457 12.1504 0Z" fill="var(--fill-0, black)"/>
</svg>
