<svg preserveAspectRatio="none" width="100%" height="100%" overflow="visible" style="display: block;" viewBox="0 0 24 20" fill="none" xmlns="http://www.w3.org/2000/svg">
<path id="Users" d="M13 12C14.3261 12 15.5975 12.5272 16.5352 13.4648C17.4728 14.4025 18 15.6739 18 17V19C18 19.5523 17.5523 20 17 20C16.4477 20 16 19.5523 16 19V17C16 16.2044 15.6837 15.4415 15.1211 14.8789C14.6289 14.3867 13.9835 14.0829 13.2969 14.0146L13 14H5C4.20435 14 3.44152 14.3163 2.87891 14.8789C2.3163 15.4415 2 16.2044 2 17V19C2 19.5523 1.55228 20 1 20C0.447715 20 0 19.5523 0 19V17C0 15.6739 0.527162 14.4025 1.46484 13.4648C2.40253 12.5272 3.67392 12 5 12H13ZM19.0322 12.8799C19.1703 12.3452 19.7153 12.024 20.25 12.1621C21.3226 12.4391 22.2734 13.0639 22.9521 13.9395C23.6308 14.815 23.9991 15.8913 24 16.999V19C23.9999 19.5522 23.5522 20 23 20C22.4478 20 22.0001 19.5522 22 19V17.001L21.9893 16.7529C21.9411 16.1767 21.7275 15.6248 21.3711 15.165C20.9639 14.6397 20.3936 14.2638 19.75 14.0977C19.2153 13.9595 18.8942 13.4146 19.0322 12.8799ZM9 0C11.7614 0 14 2.23858 14 5C14 7.76142 11.7614 10 9 10C6.23858 10 4 7.76142 4 5C4 2.23858 6.23858 0 9 0ZM15.0312 0.881836C15.1682 0.346814 15.713 0.0241452 16.248 0.161133C17.3236 0.43651 18.2773 1.06244 18.958 1.93945C19.6385 2.81638 20.0078 3.89487 20.0078 5.00488L20.0039 5.21289C19.9608 6.24911 19.5959 7.24827 18.958 8.07031C18.2773 8.94732 17.3236 9.57326 16.248 9.84863C15.713 9.98562 15.1682 9.66295 15.0312 9.12793C14.8943 8.59291 15.2169 8.04812 15.752 7.91113C16.3972 7.74592 16.9695 7.37089 17.3779 6.84473C17.7353 6.38439 17.949 5.8311 17.9971 5.25391L18.0078 5.00488C18.0078 4.33876 17.7864 3.69125 17.3779 3.16504C16.9695 2.63888 16.3972 2.26385 15.752 2.09863C15.2169 1.96164 14.8943 1.41686 15.0312 0.881836ZM9 2C7.34315 2 6 3.34315 6 5C6 6.65685 7.34315 8 9 8C10.6569 8 12 6.65685 12 5C12 3.34315 10.6569 2 9 2Z" fill="var(--fill-0, black)"/>
</svg>
