<svg preserveAspectRatio="none" width="100%" height="100%" overflow="visible" style="display: block;" viewBox="0 0 23.8333 17.3333" fill="none" xmlns="http://www.w3.org/2000/svg">
<path id="group" d="M1.08333 17.3333C0.776389 17.3333 0.519278 17.2293 0.312 17.0213C0.104 16.8141 0 16.5569 0 16.25V14.3C0 13.6861 0.158167 13.1217 0.4745 12.6067C0.790111 12.0925 1.20972 11.7 1.73333 11.4292C2.85278 10.8694 3.99028 10.4495 5.14583 10.1692C6.30139 9.88975 7.475 9.75 8.66667 9.75C9.85833 9.75 11.0319 9.88975 12.1875 10.1692C13.3431 10.4495 14.4806 10.8694 15.6 11.4292C16.1236 11.7 16.5432 12.0925 16.8588 12.6067C17.1752 13.1217 17.3333 13.6861 17.3333 14.3V16.25C17.3333 16.5569 17.2293 16.8141 17.0213 17.0213C16.8141 17.2293 16.5569 17.3333 16.25 17.3333H1.08333ZM18.9854 17.3333C19.1479 17.2069 19.2743 17.0488 19.3646 16.8588C19.4549 16.6696 19.5 16.4576 19.5 16.2229V14.0833C19.5 13.2889 19.279 12.5259 18.837 11.7942C18.3943 11.0634 17.7667 10.4361 16.9542 9.9125C17.875 10.0208 18.7417 10.2057 19.5542 10.4672C20.3667 10.7293 21.125 11.05 21.8292 11.4292C22.4792 11.7903 22.9757 12.1918 23.3187 12.6338C23.6618 13.0766 23.8333 13.5597 23.8333 14.0833V16.25C23.8333 16.5569 23.7293 16.8141 23.5213 17.0213C23.3141 17.2293 23.0569 17.3333 22.75 17.3333H18.9854ZM8.66667 8.66667C7.475 8.66667 6.45486 8.24236 5.60625 7.39375C4.75764 6.54514 4.33333 5.525 4.33333 4.33333C4.33333 3.14167 4.75764 2.12153 5.60625 1.27292C6.45486 0.424306 7.475 0 8.66667 0C9.85833 0 10.8785 0.424306 11.7271 1.27292C12.5757 2.12153 13 3.14167 13 4.33333C13 5.525 12.5757 6.54514 11.7271 7.39375C10.8785 8.24236 9.85833 8.66667 8.66667 8.66667ZM19.5 4.33333C19.5 5.525 19.0757 6.54514 18.2271 7.39375C17.3785 8.24236 16.3583 8.66667 15.1667 8.66667C14.9681 8.66667 14.7153 8.64428 14.4083 8.5995C14.1014 8.554 13.8486 8.50417 13.65 8.45C14.1375 7.87222 14.512 7.23125 14.7734 6.52708C15.0356 5.82292 15.1667 5.09167 15.1667 4.33333C15.1667 3.575 15.0356 2.84375 14.7734 2.13958C14.512 1.43542 14.1375 0.794444 13.65 0.216666C13.9028 0.126389 14.1556 0.067528 14.4083 0.0400835C14.6611 0.0133613 14.9139 0 15.1667 0C16.3583 0 17.3785 0.424306 18.2271 1.27292C19.0757 2.12153 19.5 3.14167 19.5 4.33333Z" fill="var(--fill-0, black)"/>
</svg>
