<svg preserveAspectRatio="none" width="100%" height="100%" overflow="visible" style="display: block;" viewBox="0 0 17.3333 18.9583" fill="none" xmlns="http://www.w3.org/2000/svg">
<path id="home" d="M2.16667 18.9583C1.57083 18.9583 1.06094 18.7464 0.637 18.3224C0.212333 17.8977 0 17.3875 0 16.7917V7.04167C0 6.69861 0.0769165 6.37361 0.23075 6.06667C0.383861 5.75972 0.595833 5.50694 0.866667 5.30833L7.36667 0.433333C7.56528 0.288889 7.77292 0.180555 7.98958 0.108333C8.20625 0.036111 8.43194 0 8.66667 0C8.90139 0 9.12708 0.036111 9.34375 0.108333C9.56042 0.180555 9.76805 0.288889 9.96667 0.433333L16.4667 5.30833C16.7375 5.50694 16.9498 5.75972 17.1037 6.06667C17.2568 6.37361 17.3333 6.69861 17.3333 7.04167V16.7917C17.3333 17.3875 17.1214 17.8977 16.6974 18.3224C16.2727 18.7464 15.7625 18.9583 15.1667 18.9583H10.8333V11.375H6.5V18.9583H2.16667Z" fill="var(--fill-0, black)"/>
</svg>
