<svg preserveAspectRatio="none" width="100%" height="100%" overflow="visible" style="display: block;" viewBox="0 0 19.5 16.25" fill="none" xmlns="http://www.w3.org/2000/svg">
<path id="format_list_bulleted" d="M1.625 9.75C1.17361 9.75 0.790111 9.59183 0.4745 9.2755C0.158167 8.95989 0 8.57639 0 8.125C0 7.67361 0.158167 7.29011 0.4745 6.9745C0.790111 6.65817 1.17361 6.5 1.625 6.5C2.07639 6.5 2.45989 6.65817 2.7755 6.9745C3.09183 7.29011 3.25 7.67361 3.25 8.125C3.25 8.57639 3.09183 8.95989 2.7755 9.2755C2.45989 9.59183 2.07639 9.75 1.625 9.75ZM1.625 3.25C1.17361 3.25 0.790111 3.09183 0.4745 2.7755C0.158167 2.45989 0 2.07639 0 1.625C0 1.17361 0.158167 0.790111 0.4745 0.4745C0.790111 0.158167 1.17361 0 1.625 0C2.07639 0 2.45989 0.158167 2.7755 0.4745C3.09183 0.790111 3.25 1.17361 3.25 1.625C3.25 2.07639 3.09183 2.45989 2.7755 2.7755C2.45989 3.09183 2.07639 3.25 1.625 3.25ZM1.625 16.25C1.17361 16.25 0.790111 16.0918 0.4745 15.7755C0.158167 15.4599 0 15.0764 0 14.625C0 14.1736 0.158167 13.7901 0.4745 13.4745C0.790111 13.1582 1.17361 13 1.625 13C2.07639 13 2.45989 13.1582 2.7755 13.4745C3.09183 13.7901 3.25 14.1736 3.25 14.625C3.25 15.0764 3.09183 15.4599 2.7755 15.7755C2.45989 16.0918 2.07639 16.25 1.625 16.25ZM6.5 15.7083C6.19306 15.7083 5.93594 15.6043 5.72867 15.3963C5.52067 15.1891 5.41667 14.9319 5.41667 14.625C5.41667 14.3181 5.52067 14.0609 5.72867 13.8537C5.93594 13.6457 6.19306 13.5417 6.5 13.5417H18.4167C18.7236 13.5417 18.9807 13.6457 19.188 13.8537C19.396 14.0609 19.5 14.3181 19.5 14.625C19.5 14.9319 19.396 15.1891 19.188 15.3963C18.9807 15.6043 18.7236 15.7083 18.4167 15.7083H6.5ZM6.5 9.20833C6.19306 9.20833 5.93594 9.10433 5.72867 8.89633C5.52067 8.68906 5.41667 8.43194 5.41667 8.125C5.41667 7.81806 5.52067 7.56058 5.72867 7.35258C5.93594 7.14531 6.19306 7.04167 6.5 7.04167H18.4167C18.7236 7.04167 18.9807 7.14531 19.188 7.35258C19.396 7.56058 19.5 7.81806 19.5 8.125C19.5 8.43194 19.396 8.68906 19.188 8.89633C18.9807 9.10433 18.7236 9.20833 18.4167 9.20833H6.5ZM6.5 2.70833C6.19306 2.70833 5.93594 2.60469 5.72867 2.39742C5.52067 2.18942 5.41667 1.93194 5.41667 1.625C5.41667 1.31806 5.52067 1.06058 5.72867 0.852584C5.93594 0.645306 6.19306 0.541667 6.5 0.541667H18.4167C18.7236 0.541667 18.9807 0.645306 19.188 0.852584C19.396 1.06058 19.5 1.31806 19.5 1.625C19.5 1.93194 19.396 2.18942 19.188 2.39742C18.9807 2.60469 18.7236 2.70833 18.4167 2.70833H6.5Z" fill="var(--fill-0, black)"/>
</svg>
