<svg preserveAspectRatio="none" width="100%" height="100%" overflow="visible" style="display: block;" viewBox="0 0 19.5 19.2587" fill="none" xmlns="http://www.w3.org/2000/svg">
<path id="map" d="M12.2958 19.1361L6.5 17.1048L1.4625 19.0548C1.10139 19.1992 0.767361 19.1584 0.460417 18.9324C0.153472 18.7071 0 18.4048 0 18.0256V2.85897C0 2.62425 0.0678888 2.41661 0.203667 2.23606C0.338722 2.0555 0.523611 1.92008 0.758333 1.82981L5.79583 0.123555C6.03056 0.051333 6.26528 0.0105276 6.5 0.00113869C6.73472 -0.00752798 6.96944 0.0332775 7.20417 0.123555L13 2.15481L18.0375 0.204805C18.3986 0.0603609 18.7326 0.100805 19.0396 0.326139C19.3465 0.552194 19.5 0.854805 19.5 1.23397V16.4006C19.5 16.6354 19.4321 16.843 19.2963 17.0236C19.1613 17.2041 18.9764 17.3395 18.7417 17.4298L13.7042 19.1361C13.4694 19.2083 13.2347 19.2487 13 19.2574C12.7653 19.2668 12.5306 19.2263 12.2958 19.1361ZM11.9167 16.7256V4.05064L7.58333 2.53397V15.209L11.9167 16.7256Z" fill="var(--fill-0, black)"/>
</svg>
