<svg preserveAspectRatio="none" width="100%" height="100%" overflow="visible" style="display: block;" viewBox="0 0 19.5 13" fill="none" xmlns="http://www.w3.org/2000/svg">
<path id="menu" d="M1.08333 13C0.776389 13 0.519278 12.896 0.312 12.688C0.104 12.4807 0 12.2236 0 11.9167C0 11.6097 0.104 11.3526 0.312 11.1453C0.519278 10.9373 0.776389 10.8333 1.08333 10.8333H18.4167C18.7236 10.8333 18.9807 10.9373 19.188 11.1453C19.396 11.3526 19.5 11.6097 19.5 11.9167C19.5 12.2236 19.396 12.4807 19.188 12.688C18.9807 12.896 18.7236 13 18.4167 13H1.08333ZM1.08333 7.58333C0.776389 7.58333 0.519278 7.47933 0.312 7.27133C0.104 7.06406 0 6.80694 0 6.5C0 6.19306 0.104 5.93558 0.312 5.72758C0.519278 5.52031 0.776389 5.41667 1.08333 5.41667H18.4167C18.7236 5.41667 18.9807 5.52031 19.188 5.72758C19.396 5.93558 19.5 6.19306 19.5 6.5C19.5 6.80694 19.396 7.06406 19.188 7.27133C18.9807 7.47933 18.7236 7.58333 18.4167 7.58333H1.08333ZM1.08333 2.16667C0.776389 2.16667 0.519278 2.06303 0.312 1.85575C0.104 1.64775 0 1.39028 0 1.08333C0 0.776389 0.104 0.518917 0.312 0.310917C0.519278 0.103639 0.776389 0 1.08333 0H18.4167C18.7236 0 18.9807 0.103639 19.188 0.310917C19.396 0.518917 19.5 0.776389 19.5 1.08333C19.5 1.39028 19.396 1.64775 19.188 1.85575C18.9807 2.06303 18.7236 2.16667 18.4167 2.16667H1.08333Z" fill="var(--fill-0, black)"/>
</svg>
