<svg preserveAspectRatio="none" width="100%" height="100%" overflow="visible" style="display: block;" viewBox="0 0 17.3333 21.6667" fill="none" xmlns="http://www.w3.org/2000/svg">
<path id="notifications" d="M1.08333 18.4167C0.776389 18.4167 0.518917 18.3127 0.310917 18.1047C0.103639 17.8974 0 17.6403 0 17.3333C0 17.0264 0.103639 16.7693 0.310917 16.562C0.518917 16.354 0.776389 16.25 1.08333 16.25H2.16667V8.66667C2.16667 7.16806 2.61806 5.83628 3.52083 4.67133C4.42361 3.50711 5.59722 2.74444 7.04167 2.38333V1.625C7.04167 1.17361 7.19983 0.790111 7.51617 0.4745C7.83178 0.158167 8.21528 0 8.66667 0C9.11805 0 9.50156 0.158167 9.81717 0.4745C10.1335 0.790111 10.2917 1.17361 10.2917 1.625V2.38333C11.7361 2.74444 12.9097 3.50711 13.8125 4.67133C14.7153 5.83628 15.1667 7.16806 15.1667 8.66667V16.25H16.25C16.5569 16.25 16.8141 16.354 17.0213 16.562C17.2293 16.7693 17.3333 17.0264 17.3333 17.3333C17.3333 17.6403 17.2293 17.8974 17.0213 18.1047C16.8141 18.3127 16.5569 18.4167 16.25 18.4167H1.08333ZM8.66667 21.6667C8.07083 21.6667 7.56094 21.4547 7.137 21.0308C6.71233 20.6061 6.5 20.0958 6.5 19.5H10.8333C10.8333 20.0958 10.6214 20.6061 10.1974 21.0308C9.77275 21.4547 9.2625 21.6667 8.66667 21.6667Z" fill="var(--fill-0, black)"/>
</svg>
