<svg width="100%" height="100%" viewBox="0 0 16 16" fill="none" xmlns="http://www.w3.org/2000/svg" preserveAspectRatio="xMidYMid meet" focusable="false">
<path d="M13.333 1.3335H2.66634C1.93301 1.3335 1.33301 1.9335 1.33301 2.66683V13.3335C1.33301 14.0668 1.93301 14.6668 2.66634 14.6668H13.333C14.0663 14.6668 14.6663 14.0668 14.6663 13.3335V2.66683C14.6663 1.9335 14.0663 1.3335 13.333 1.3335ZM10.1997 2.66683C9.66634 3.40016 9.33301 4.3335 9.33301 5.3335H6.66634C6.66634 4.26683 7.19967 3.26683 7.99967 2.66683H10.1997ZM9.33301 9.3335H6.66634C6.66634 8.3335 6.33301 7.40016 5.79967 6.66683H7.99967C8.79967 7.26683 9.33301 8.26683 9.33301 9.3335ZM2.66634 2.66683H6.19967C5.66634 3.40016 5.33301 4.3335 5.33301 5.3335H2.66634V2.66683ZM2.66634 6.66683H3.99967C4.79967 7.26683 5.33301 8.20016 5.33301 9.3335H2.66634V6.66683ZM2.66634 13.3335V10.6668H6.19967C5.66634 11.4002 5.33301 12.3335 5.33301 13.3335H2.66634ZM6.66634 13.3335C6.66634 12.2668 7.19967 11.2668 7.99967 10.6668H10.1997C9.66634 11.4002 9.33301 12.3335 9.33301 13.3335H6.66634ZM13.333 13.3335H10.6663C10.6663 12.2668 11.1997 11.2668 11.9997 10.6668H13.333V13.3335ZM13.333 9.3335H10.6663C10.6663 8.3335 10.333 7.40016 9.79967 6.66683H13.333V9.3335ZM13.333 5.3335H10.6663C10.6663 4.26683 11.1997 3.26683 11.9997 2.66683H13.333V5.3335Z" fill="var(--fill-0, black)"/>
</svg>
