<svg preserveAspectRatio="none" width="100%" height="100%" overflow="visible" style="display: block;" viewBox="0 0 23.4 21.5268" fill="none" xmlns="http://www.w3.org/2000/svg">
<path id="Union" d="M12.4849 0.757264C13.6418 -0.252367 15.3672 -0.252476 16.524 0.757264C16.6106 0.832859 16.6825 0.923837 16.7359 1.02484L16.7828 1.12933L18.1148 4.62543L19.3775 5.8891C19.4336 5.94521 19.483 6.00849 19.523 6.0766L19.5758 6.18207L22.2584 12.4428L22.4176 12.602L22.3619 12.6577L22.4908 12.8452C23.8705 14.9584 23.6798 17.7972 21.9195 19.7104L21.7555 19.8823C19.5625 22.0749 16.0069 22.075 13.8141 19.8823C12.9214 18.9895 12.392 17.8709 12.2262 16.7104C12.1994 16.6398 12.1795 16.5653 12.1705 16.4877L12.1646 16.3793V8.42621C12.1034 8.42522 12.0397 8.42384 11.9742 8.42328L11.2301 8.4223L11.231 8.42426V16.8471C11.231 17.0722 11.1506 17.2785 11.0182 17.4399C10.7661 18.3341 10.2891 19.1786 9.58553 19.8823C7.39261 22.0747 3.83694 22.0749 1.64413 19.8823C-0.355159 17.8828 -0.530836 14.7505 1.11581 12.5512L3.82089 6.24066C3.85203 6.16816 3.89198 6.09973 3.94003 6.03754L4.01913 5.94769L5.27889 4.68695L6.6119 1.13422C6.65272 1.02542 6.71362 0.924468 6.79061 0.838319L6.87264 0.757264C8.02947 -0.252368 9.75494 -0.252475 10.9117 0.757264C11.086 0.909484 11.197 1.12009 11.2252 1.34711L11.232 1.46234V5.20551C11.232 5.72218 10.8131 6.1417 10.2965 6.14203L10.2955 6.14105V6.55512C10.4165 6.55299 10.5419 6.55176 10.6715 6.55121H11.7945C12.2918 6.55332 12.724 6.56719 13.1031 6.59808V6.08148L13.1002 6.08246C12.6204 6.08228 12.2246 5.72159 12.1705 5.25629L12.1646 5.14691V1.46234C12.1647 1.19215 12.2814 0.934958 12.4849 0.757264ZM8.11288 13.1225C6.64312 11.8037 4.38054 11.8511 2.96737 13.2641C2.88679 13.3447 2.81055 13.4283 2.73885 13.5141L2.733 13.5297C2.67196 13.6721 2.57932 13.7912 2.46737 13.8832C1.53125 15.3331 1.69771 17.2882 2.96737 18.558C4.42923 20.0198 6.79936 20.0197 8.26132 18.558C9.67435 17.1448 9.72181 14.8823 8.40292 13.4125L8.26132 13.2641L8.11288 13.1225ZM20.2828 13.1225C18.813 11.8036 16.5505 11.8511 15.1373 13.2641C13.6756 14.726 13.6755 17.0962 15.1373 18.558C16.5992 20.0199 18.9693 20.0198 20.4312 18.558C21.751 17.2381 21.8794 15.178 20.816 13.7143C20.7918 13.6864 20.7696 13.6565 20.7486 13.6254C20.6929 13.5533 20.6346 13.4823 20.5728 13.4135L20.4312 13.2641L20.2828 13.1225Z" fill="var(--fill-0, black)"/>
</svg>
