<svg preserveAspectRatio="none" width="100%" height="100%" overflow="visible" style="display: block;" viewBox="0 0 24.9993 22.9999" fill="none" xmlns="http://www.w3.org/2000/svg">
<g id="scout copy 4">
<path id="Combined Shape" d="M13.3413 0.809221C14.5774 -0.269739 16.4207 -0.269741 17.6568 0.809221C17.7492 0.889953 17.8262 0.986501 17.8833 1.09438L17.9331 1.20668L19.357 4.94203L20.7066 6.29262C20.7663 6.35239 20.8182 6.41933 20.8609 6.49184L20.9185 6.60512L23.7896 13.3043L23.9497 13.4645L23.8892 13.5221L24.0279 13.7233C25.5021 15.9812 25.2982 19.015 23.4175 21.0592L23.2417 21.2418C20.8986 23.5849 17.1005 23.5848 14.7574 21.2418C13.7987 20.2832 13.2314 19.0812 13.0572 17.8346C13.0325 17.7651 13.0142 17.6924 13.0054 17.6168L12.9995 17.4997V9.00453C12.9325 9.00344 12.8632 9.00124 12.7915 9.00063L11.9995 8.99965V17.9997C11.9995 18.2406 11.9139 18.4618 11.772 18.6344C11.5027 19.5894 10.9941 20.4913 10.2427 21.2428C7.89976 23.5858 4.10055 23.5853 1.75735 21.2428C-0.377096 19.1084 -0.567195 15.7663 1.18704 13.4166L4.07962 6.6686C4.11302 6.59065 4.15685 6.51762 4.20853 6.45082L4.29153 6.35512L5.63821 5.00746L7.06302 1.21156C7.10663 1.09527 7.17117 0.988217 7.25345 0.896135L7.34134 0.809221C8.5774 -0.269741 10.4207 -0.269739 11.6568 0.809221C11.8432 0.971988 11.9617 1.19729 11.9917 1.44008L11.9995 1.56215V5.56215C11.9995 6.11429 11.5516 6.56192 10.9995 6.56215C10.4868 6.56215 10.0633 6.17656 10.0054 5.67934L9.99954 5.56215L9.99856 2.10024L9.8804 2.05824C9.54944 1.9552 9.18533 1.9889 8.87649 2.16078L8.83255 2.18813L7.43509 5.91371C7.39753 6.01379 7.34466 6.10721 7.27786 6.19008L7.20657 6.26918L5.84231 7.63442L4.29349 11.2467C6.23352 10.6733 8.40629 11.1005 9.99954 12.528V9.05824C9.32308 9.13897 9.08296 9.31938 8.89407 9.69692C8.64708 10.1909 8.04625 10.3912 7.55228 10.1442C7.05842 9.89724 6.85826 9.29727 7.10501 8.80336C7.85983 7.29372 8.79659 7.01071 11.399 6.99965H12.5992C15.2018 7.01069 16.1392 7.29365 16.8941 8.80336C17.1406 9.29713 16.9404 9.89716 16.4468 10.1442C15.9528 10.3912 15.352 10.1909 15.105 9.69692C15.0723 9.63148 15.0373 9.57235 14.9995 9.51821V12.5289C16.6011 11.0937 18.7871 10.6696 20.7349 11.2565L19.1558 7.57094L17.7915 6.20668C17.7252 6.14028 17.6687 6.06483 17.6236 5.98305L17.565 5.85512L16.1675 2.1891L16.1216 2.16078C15.8128 1.98891 15.4487 1.95517 15.1177 2.05824L14.9995 2.10024V5.49965C14.9994 6.01238 14.613 6.43505 14.1158 6.49281L13.9995 6.49965C13.4867 6.49965 13.0632 6.1132 13.0054 5.61586L12.9995 5.49965V1.56215C12.9996 1.27355 13.124 0.999059 13.3413 0.809221ZM8.66849 14.0202C7.0981 12.611 4.68142 12.6618 3.17142 14.1715C3.08445 14.2585 3.00163 14.3484 2.92435 14.4411L2.91849 14.4567C2.85416 14.6067 2.75656 14.732 2.63919 14.8297C1.63611 16.3793 1.81348 18.4698 3.17142 19.8278C4.73353 21.3897 7.26563 21.3898 8.82767 19.8278C10.3373 18.3178 10.3881 15.9011 8.97903 14.3307L8.82767 14.1715L8.66849 14.0202ZM21.6685 14.0202C20.0981 12.611 17.6815 12.6619 16.1714 14.1715C14.6094 15.7336 14.6093 18.2657 16.1714 19.8278C17.7335 21.3897 20.2656 21.3898 21.8277 19.8278C23.3373 18.3178 23.3881 15.9011 21.979 14.3307L21.8277 14.1715L21.6685 14.0202Z" fill="var(--fill-0, black)"/>
</g>
</svg>
