<svg preserveAspectRatio="none" width="100%" height="100%" overflow="visible" style="display: block;" viewBox="0 0 19.0667 19.0396" fill="none" xmlns="http://www.w3.org/2000/svg">
<path id="search" d="M17.225 18.7417L11.1583 12.675C10.6167 13.1083 9.99375 13.4514 9.28958 13.7042C8.58542 13.9569 7.83611 14.0833 7.04167 14.0833C5.07361 14.0833 3.40817 13.4019 2.04533 12.0391C0.681778 10.6755 0 9.00972 0 7.04167C0 5.07361 0.681778 3.40781 2.04533 2.04425C3.40817 0.681417 5.07361 0 7.04167 0C9.00972 0 10.6755 0.681417 12.0391 2.04425C13.4019 3.40781 14.0833 5.07361 14.0833 7.04167C14.0833 7.83611 13.9569 8.58542 13.7042 9.28958C13.4514 9.99375 13.1083 10.6167 12.675 11.1583L18.7688 17.2521C18.9674 17.4507 19.0667 17.6944 19.0667 17.9833C19.0667 18.2722 18.9583 18.525 18.7417 18.7417C18.5431 18.9403 18.2903 19.0396 17.9833 19.0396C17.6764 19.0396 17.4236 18.9403 17.225 18.7417ZM7.04167 11.9167C8.39583 11.9167 9.54706 11.4429 10.4953 10.4953C11.4429 9.54706 11.9167 8.39583 11.9167 7.04167C11.9167 5.6875 11.4429 4.53628 10.4953 3.588C9.54706 2.64044 8.39583 2.16667 7.04167 2.16667C5.6875 2.16667 4.53628 2.64044 3.588 3.588C2.64044 4.53628 2.16667 5.6875 2.16667 7.04167C2.16667 8.39583 2.64044 9.54706 3.588 10.4953C4.53628 11.4429 5.6875 11.9167 7.04167 11.9167Z" fill="var(--fill-0, black)"/>
</svg>
