<svg xmlns="http://www.w3.org/2000/svg" viewBox="0 0 129 129" fill="none" aria-hidden="true" width="129" height="129">
  <!-- AgMRI retailer Alerts empty dashboard. Brand stop: #3c84c7. Inline in app for var(--color-brand-500) theming. -->
  <path fill-rule="evenodd" clip-rule="evenodd" d="M66.8579 11.497C66.5717 11.3778 66.2651 11.3166 65.9555 11.3172L65.9529 11.3172C65.3279 11.3177 64.7286 11.5688 64.2867 12.0152C63.845 12.4614 63.5965 13.0663 63.5956 13.6973V16.6934H57.7339L57.7339 13.6933C57.7358 11.4933 58.6018 9.38391 60.1418 7.82826C61.6815 6.27291 63.7692 5.39815 65.9467 5.39593L65.9479 5.39593C67.0272 5.39438 68.0963 5.60766 69.094 6.0236C70.0925 6.43986 71 7.05093 71.7645 7.82184C72.529 8.59274 73.1355 9.50836 73.5493 10.5163C73.9631 11.5242 74.1761 12.6047 74.1761 13.6958V16.5826H68.3143V13.6958C68.3143 13.3831 68.2533 13.0735 68.1347 12.7846C68.0161 12.4957 67.8423 12.2333 67.6232 12.0124C67.4041 11.7915 67.144 11.6163 66.8579 11.497ZM65.9479 5.39593L65.9467 5.39593L65.9479 5.39593Z" fill="url(#es_alerts_p0)"/>
  <path d="M66.3116 113.452C78.4606 113.452 88.3092 103.503 88.3092 91.2308C88.3092 78.9586 78.4606 69.0099 66.3116 69.0099C54.1627 69.0099 44.314 78.9586 44.314 91.2308C44.314 103.503 54.1627 113.452 66.3116 113.452Z" fill="url(#es_alerts_p1)"/>
  <path d="M101.02 66.733V49.6852C101.02 40.3865 97.3635 31.4686 90.8543 24.8934C84.3452 18.3182 75.5169 14.6243 66.3116 14.6243C57.1062 14.6243 48.2779 18.3182 41.7688 24.8934C35.2596 31.4686 31.6028 40.3865 31.6028 49.6852V66.733C31.6032 70.6496 30.5064 74.4864 28.4391 77.7998C26.3718 81.1133 23.4185 83.7681 19.9204 85.4575C19.1165 85.8442 18.4378 86.4537 17.9634 87.215C17.4891 87.9763 17.2386 88.858 17.241 89.7575V89.8499C17.2404 90.1748 17.3033 90.4966 17.4259 90.7969C17.5486 91.0973 17.7287 91.3702 17.9559 91.6002C18.1831 91.8301 18.453 92.0125 18.7501 92.137C19.0472 92.2615 19.3656 92.3256 19.6873 92.3256H112.931C113.253 92.3256 113.571 92.2615 113.868 92.137C114.166 92.0125 114.435 91.8301 114.663 91.6002C114.89 91.3702 115.07 91.0973 115.193 90.7969C115.315 90.4966 115.378 90.1748 115.378 89.8499V89.7575C115.378 88.8609 115.127 87.9824 114.653 87.2239C114.18 86.4654 113.504 85.8577 112.703 85.4713C109.203 83.7809 106.248 81.1239 104.18 77.8078C102.113 74.4917 101.017 70.652 101.02 66.733Z" fill="url(#es_alerts_p2)"/>
  <defs>
    <linearGradient id="es_alerts_p0" x1="78.1763" y1="17.2752" x2="69.8332" y2="2.18787" gradientUnits="userSpaceOnUse">
      <stop stop-color="#FAFAFA"/>
      <stop offset="1" stop-color="#3c84c7"/>
    </linearGradient>
    <linearGradient id="es_alerts_p1" x1="103.371" y1="128.382" x2="34.9856" y2="55.2365" gradientUnits="userSpaceOnUse">
      <stop stop-color="#3c84c7"/>
      <stop offset="0.984375" stop-color="#FAFAFA"/>
    </linearGradient>
    <linearGradient id="es_alerts_p2" x1="79.9006" y1="86.0082" x2="58.3153" y2="23.1851" gradientUnits="userSpaceOnUse">
      <stop stop-color="#3c84c7"/>
      <stop offset="1" stop-color="#FAFAFA"/>
    </linearGradient>
  </defs>
</svg>
