<svg xmlns="http://www.w3.org/2000/svg" viewBox="0 0 129 129" fill="none" aria-hidden="true" width="129" height="129">
  <!-- AgMRI retailer home empty / no-data illustration. Gradient brand stop: #3c84c7. For theme-aware tint, inline SVG and use var(--color-brand-500) on first stops. -->
  <path d="M67.177 78.5492C66.9618 77.6466 66.0501 76.9998 64.9936 77.0002C63.9382 77.0002 63.0279 77.6472 62.8144 78.5492L54.2143 114.815C53.9842 115.799 54.7116 116.759 55.8389 116.96C55.9762 116.984 56.1159 116.997 56.256 116.997H73.7438C74.8944 116.997 75.8273 116.183 75.8275 115.179C75.8276 115.057 75.8135 114.935 75.7854 114.815L67.177 78.5492Z" fill="url(#es_dash_p0)"/>
  <path d="M37.3878 80.2206C37.1523 79.8902 36.7004 79.729 36.267 79.8207C29.9824 81.0607 23.9151 83.0256 18.2251 85.6638C16.2294 86.627 14.9933 88.4623 15 90.4525V102.786C15.0016 103.288 15.4692 103.694 16.0445 103.692C16.3572 103.692 16.6529 103.568 16.85 103.357L37.317 81.2933C37.6101 80.9888 37.6389 80.5524 37.3878 80.2206Z" fill="url(#es_dash_p1)"/>
  <path d="M50.9786 78.1161C51.282 77.787 51.7257 77.5796 52.2078 77.5416C52.3842 77.5268 52.5622 77.5315 52.7359 77.5628C53.6937 77.7354 54.3098 78.5529 54.1119 79.3888L45.5368 115.546C45.3391 116.391 44.4879 116.998 43.4993 117H19.1698C18.7076 116.999 18.2596 116.861 17.8995 116.608C17.0247 115.993 16.8864 114.876 17.5906 114.113L50.9786 78.1161Z" fill="url(#es_dash_p2)"/>
  <path d="M111.775 85.6692C106.085 83.031 100.018 81.0661 93.733 79.8261C93.1729 79.7113 92.6123 80.0145 92.4808 80.5033C92.4075 80.7757 92.4821 81.0624 92.683 81.2805L113.15 103.344C113.513 103.734 114.169 103.793 114.615 103.476C114.858 103.304 114.999 103.046 115 102.773V90.4579C115.007 88.4677 113.771 86.6324 111.775 85.6692Z" fill="url(#es_dash_p3)"/>
  <path d="M77.8004 77.5381C78.2822 77.5769 78.7255 77.7841 79.0295 78.1126L112.417 114.088C112.725 114.41 112.891 114.817 112.887 115.236C112.879 116.216 111.961 117.004 110.838 116.996H86.5088C85.5202 116.995 84.669 116.387 84.4713 115.542L75.8962 79.3889C75.8603 79.2374 75.8507 79.082 75.8677 78.928C75.9616 78.0785 76.8269 77.4562 77.8004 77.5381Z" fill="url(#es_dash_p4)"/>
  <path fill-rule="evenodd" clip-rule="evenodd" d="M61.0394 14.0755C62.7997 11.3082 67.2006 11.3082 68.9609 14.0755L94.3807 60.7738C96.141 63.5411 93.9406 67.0002 90.42 67.0002H39.5804C36.0597 67.0002 33.8593 63.5411 35.6196 60.7738L61.0394 14.0755ZM65.0002 28.9231C63.8167 28.9231 62.8573 29.8702 62.8573 31.0385V47.9617C62.8573 49.13 63.8167 50.0771 65.0002 50.0771C66.1836 50.0771 67.143 49.13 67.143 47.9617V31.0385C67.143 29.8702 66.1836 28.9231 65.0002 28.9231ZM67.143 56.4232C67.143 57.5915 66.1836 58.5386 65.0002 58.5386C63.8167 58.5386 62.8573 57.5915 62.8573 56.4232C62.8573 55.2549 63.8167 54.3078 65.0002 54.3078C66.1836 54.3078 67.143 55.2549 67.143 56.4232Z" fill="url(#es_dash_p5)"/>
  <defs>
    <linearGradient id="es_dash_p0" x1="65" y1="12" x2="65" y2="117" gradientUnits="userSpaceOnUse">
      <stop stop-color="#3c84c7"/>
      <stop offset="1" stop-color="#FAFAFA"/>
    </linearGradient>
    <linearGradient id="es_dash_p1" x1="65" y1="12" x2="65" y2="117" gradientUnits="userSpaceOnUse">
      <stop stop-color="#3c84c7"/>
      <stop offset="1" stop-color="#FAFAFA"/>
    </linearGradient>
    <linearGradient id="es_dash_p2" x1="65" y1="12" x2="65" y2="117" gradientUnits="userSpaceOnUse">
      <stop stop-color="#3c84c7"/>
      <stop offset="1" stop-color="#FAFAFA"/>
    </linearGradient>
    <linearGradient id="es_dash_p3" x1="65" y1="12" x2="65" y2="117" gradientUnits="userSpaceOnUse">
      <stop stop-color="#3c84c7"/>
      <stop offset="1" stop-color="#FAFAFA"/>
    </linearGradient>
    <linearGradient id="es_dash_p4" x1="65" y1="12" x2="65" y2="117" gradientUnits="userSpaceOnUse">
      <stop stop-color="#3c84c7"/>
      <stop offset="1" stop-color="#FAFAFA"/>
    </linearGradient>
    <linearGradient id="es_dash_p5" x1="65" y1="12" x2="65" y2="117" gradientUnits="userSpaceOnUse">
      <stop stop-color="#3c84c7"/>
      <stop offset="1" stop-color="#FAFAFA"/>
    </linearGradient>
  </defs>
</svg>
