<svg preserveAspectRatio="none" width="100%" height="100%" overflow="visible" style="display: block;" viewBox="0 0 20.0003 20" fill="none" xmlns="http://www.w3.org/2000/svg">
<g id="Drone Icon">
<g id="Path 5">
<mask id="path-1-inside-1_0_16" fill="white">
<path d="M15.4122 2.65214C15.8999 2.18188 16.6682 2.16607 17.1749 2.616C17.7242 3.10426 17.7589 3.95188 17.251 4.48319L14.2862 7.5828C13.7898 8.10192 13.4628 8.76019 13.3497 9.46952C13.2936 9.82118 13.2909 10.1796 13.3419 10.532L13.3467 10.5633C13.4616 11.3572 13.8286 12.0934 14.3936 12.6629L17.1944 15.4851C17.6917 15.9867 17.6795 16.7998 17.168 17.2869C16.672 17.7589 15.89 17.7482 15.4063 17.2635L12.4737 14.325C12.047 13.8974 11.5111 13.5864 10.9288 13.4256C10.3264 13.2593 9.68527 13.2587 9.08307 13.4256C8.49937 13.5874 7.96776 13.9 7.54303 14.3318L4.62213 17.3025C4.13797 17.7945 3.35226 17.8196 2.83795 17.3592C2.28402 16.8632 2.26182 16.0025 2.78912 15.4783L5.76569 12.5193C6.24742 12.0403 6.58058 11.4315 6.72369 10.7674L6.7276 10.7469C6.82919 10.2752 6.83013 9.78708 6.72955 9.31522C6.5961 8.68942 6.28952 8.11318 5.84479 7.65311L2.78815 4.491C2.27219 3.95729 2.30871 3.09996 2.86822 2.6121C3.38142 2.16526 4.15268 2.19135 4.63483 2.67167L7.74518 5.7703C8.10823 6.13198 8.55346 6.40089 9.04205 6.55546L9.11822 6.57987C9.69464 6.76217 10.3137 6.76337 10.8907 6.5828C11.3285 6.44568 11.7285 6.20806 12.0587 5.88944L15.4122 2.65214Z"/>
</mask>
<path d="M15.4122 2.65214L11.2477 -1.66724L11.245 -1.66464L15.4122 2.65214ZM17.1749 2.616L21.1607 -1.86873L21.1588 -1.87047L17.1749 2.616ZM17.251 4.48319L21.5869 8.63053L21.5882 8.6292L17.251 4.48319ZM14.2862 7.5828L9.95034 3.43547L9.9499 3.43593L14.2862 7.5828ZM13.3497 9.46952L7.42454 8.52459L7.42442 8.52539L13.3497 9.46952ZM13.3419 10.532L7.40363 11.3908L7.40852 11.4246L7.41379 11.4583L13.3419 10.532ZM13.3467 10.5633L19.2849 9.70382L19.28 9.67039L19.2748 9.63701L13.3467 10.5633ZM14.3936 12.6629L10.1343 16.8888L10.1348 16.8893L14.3936 12.6629ZM17.1944 15.4851L21.4553 11.2609L21.4532 11.2587L17.1944 15.4851ZM17.168 17.2869L21.3038 21.6338L21.3062 21.6315L17.168 17.2869ZM15.4063 17.2635L19.6533 13.0252L19.6532 13.0251L15.4063 17.2635ZM12.4737 14.325L8.22641 18.563L8.22682 18.5634L12.4737 14.325ZM10.9288 13.4256L12.5264 7.6422L12.5254 7.6419L10.9288 13.4256ZM9.08307 13.4256L7.48107 7.64339L7.48005 7.64368L9.08307 13.4256ZM7.54303 14.3318L3.26526 10.1246L3.26468 10.1252L7.54303 14.3318ZM4.62213 17.3025L8.89843 21.5112L8.90048 21.5092L4.62213 17.3025ZM2.83795 17.3592L-1.16441 21.8292L-1.16398 21.8296L2.83795 17.3592ZM2.78912 15.4783L-1.44093 11.2231L-1.44097 11.2232L2.78912 15.4783ZM5.76569 12.5193L9.99574 16.7745L9.99652 16.7737L5.76569 12.5193ZM6.72369 10.7674L12.5891 12.0312L12.6042 11.9608L12.6177 11.89L6.72369 10.7674ZM6.7276 10.7469L0.862117 9.48349L0.847001 9.55367L0.833568 9.62419L6.7276 10.7469ZM6.72955 9.31522L12.5977 8.06437L12.5976 8.06383L6.72955 9.31522ZM5.84479 7.65311L1.53081 11.8232L1.53088 11.8233L5.84479 7.65311ZM2.78815 4.491L7.10212 0.320918L7.10196 0.320747L2.78815 4.491ZM2.86822 2.6121L-1.07178 -1.91298L-1.07496 -1.91021L2.86822 2.6121ZM4.63483 2.67167L8.86945 -1.57897L8.86943 -1.579L4.63483 2.67167ZM7.74518 5.7703L3.51055 10.0209L3.51062 10.021L7.74518 5.7703ZM9.04205 6.55546L10.8734 0.841764L10.8626 0.8383L10.8517 0.834876L9.04205 6.55546ZM9.11822 6.57987L7.28691 12.2936L7.29793 12.2971L7.30895 12.3006L9.11822 6.57987ZM10.8907 6.5828L12.6827 12.3089L12.6839 12.3086L10.8907 6.5828ZM12.0587 5.88944L16.2254 10.2066L16.2258 10.2062L12.0587 5.88944ZM15.4122 2.65214L19.5767 6.97151C17.8087 8.67605 15.0274 8.73324 13.191 7.10248L17.1749 2.616L21.1588 -1.87047C18.3089 -4.4011 13.9911 -4.3123 11.2477 -1.66724L15.4122 2.65214ZM17.1749 2.616L13.189 7.10074C11.1989 5.33205 11.0719 2.26411 12.9139 0.337181L17.251 4.48319L21.5882 8.6292C24.446 5.63965 24.2495 0.876482 21.1607 -1.86873L17.1749 2.616ZM17.251 4.48319L12.9152 0.335856L9.95034 3.43547L14.2862 7.5828L18.622 11.7301L21.5869 8.63053L17.251 4.48319ZM14.2862 7.5828L9.9499 3.43593C8.612 4.83494 7.72993 6.60966 7.42454 8.52459L13.3497 9.46952L19.2748 10.4144C19.1956 10.9107 18.9675 11.3689 18.6225 11.7297L14.2862 7.5828ZM13.3497 9.46952L7.42442 8.52539C7.27358 9.47206 7.26589 10.4383 7.40363 11.3908L13.3419 10.532L19.2801 9.67326C19.3159 9.92089 19.3137 10.1703 19.2749 10.4137L13.3497 9.46952ZM13.3419 10.532L7.41379 11.4583L7.41867 11.4895L13.3467 10.5633L19.2748 9.63701L19.2699 9.60576L13.3419 10.532ZM13.3467 10.5633L7.40861 11.4227C7.70766 13.4889 8.66269 15.4055 10.1343 16.8888L14.3936 12.6629L18.6529 8.43698C18.9945 8.78128 19.2156 9.22548 19.2849 9.70382L13.3467 10.5633ZM14.3936 12.6629L10.1348 16.8893L12.9356 19.7115L17.1944 15.4851L21.4532 11.2587L18.6524 8.43648L14.3936 12.6629ZM17.1944 15.4851L12.9335 19.7094C11.0613 17.821 11.1113 14.7697 13.0299 12.9423L17.168 17.2869L21.3062 21.6315C24.2477 18.8298 24.322 14.1524 21.4553 11.2609L17.1944 15.4851ZM17.168 17.2869L13.0322 12.94C14.9003 11.1626 17.8394 11.2075 19.6533 13.0252L15.4063 17.2635L11.1593 21.5017C13.9406 24.2888 18.4436 24.3551 21.3038 21.6338L17.168 17.2869ZM15.4063 17.2635L19.6532 13.0251L16.7206 10.0866L12.4737 14.325L8.22682 18.5634L11.1594 21.5019L15.4063 17.2635ZM12.4737 14.325L16.721 10.087C15.5529 8.9164 14.1014 8.07728 12.5264 7.6422L10.9288 13.4256L9.3311 19.209C8.92074 19.0956 8.54105 18.8783 8.22641 18.563L12.4737 14.325ZM10.9288 13.4256L12.5254 7.6419C10.8819 7.18822 9.13524 7.18509 7.48107 7.64339L9.08307 13.4256L10.6851 19.2078C10.2353 19.3324 9.77095 19.3304 9.33219 19.2093L10.9288 13.4256ZM9.08307 13.4256L7.48005 7.64368C5.88438 8.08607 4.4297 8.94064 3.26526 10.1246L7.54303 14.3318L11.8208 18.539C11.5058 18.8593 11.1144 19.0887 10.6861 19.2075L9.08307 13.4256ZM7.54303 14.3318L3.26468 10.1252L0.343778 13.0959L4.62213 17.3025L8.90048 21.5092L11.8214 18.5385L7.54303 14.3318ZM4.62213 17.3025L0.345834 13.0938C2.1072 11.3042 4.96573 11.211 6.83988 12.8888L2.83795 17.3592L-1.16398 21.8296C1.73879 24.4281 6.16874 24.2848 8.89843 21.5112L4.62213 17.3025ZM2.83795 17.3592L6.84031 12.8891C8.85881 14.6965 8.93751 17.8265 7.01922 19.7335L2.78912 15.4783L-1.44097 11.2232C-4.41388 14.1786 -4.29076 19.0299 -1.16441 21.8292L2.83795 17.3592ZM2.78912 15.4783L7.01918 19.7335L9.99574 16.7745L5.76569 12.5193L1.53563 8.26414L-1.44093 11.2231L2.78912 15.4783ZM5.76569 12.5193L9.99652 16.7737C11.299 15.4785 12.2011 13.8317 12.5891 12.0312L6.72369 10.7674L0.858311 9.50353C0.960043 9.0314 1.19586 8.60202 1.53485 8.26491L5.76569 12.5193ZM6.72369 10.7674L12.6177 11.89L12.6216 11.8695L6.7276 10.7469L0.833568 9.62419L0.829662 9.6447L6.72369 10.7674ZM6.7276 10.7469L12.5931 12.0102C12.8724 10.7137 12.8757 9.36863 12.5977 8.06437L6.72955 9.31522L0.861387 10.5661C0.784534 10.2055 0.786021 9.83678 0.862117 9.48349L6.7276 10.7469ZM6.72955 9.31522L12.5976 8.06383C12.23 6.34016 11.3857 4.75221 10.1587 3.48296L5.84479 7.65311L1.53088 11.8233C1.19339 11.4741 0.962171 11.0387 0.861502 10.5666L6.72955 9.31522ZM5.84479 7.65311L10.1588 3.48303L7.10212 0.320918L2.78815 4.491L-1.52583 8.66109L1.53081 11.8232L5.84479 7.65311ZM2.78815 4.491L7.10196 0.320747C8.97312 2.25632 8.84095 5.36477 6.81141 7.13441L2.86822 2.6121L-1.07496 -1.91021C-4.22352 0.835148 -4.42873 5.65826 -1.52566 8.66126L2.78815 4.491ZM2.86822 2.6121L6.80823 7.13718C4.94518 8.75935 2.1474 8.66291 0.400226 6.92233L4.63483 2.67167L8.86943 -1.579C6.15797 -4.28021 1.81766 -4.42883 -1.07178 -1.91298L2.86822 2.6121ZM4.63483 2.67167L0.400201 6.92231L3.51055 10.0209L7.74518 5.7703L11.9798 1.51966L8.86945 -1.57897L4.63483 2.67167ZM7.74518 5.7703L3.51062 10.021C4.55763 11.064 5.83601 11.8343 7.23237 12.276L9.04205 6.55546L10.8517 0.834876C11.2709 0.967476 11.6588 1.19991 11.9797 1.5196L7.74518 5.7703ZM9.04205 6.55546L7.21074 12.2692L7.28691 12.2936L9.11822 6.57987L10.9495 0.866178L10.8734 0.841764L9.04205 6.55546ZM9.11822 6.57987L7.30895 12.3006C9.05516 12.8529 10.9313 12.857 12.6827 12.3089L10.8907 6.5828L9.09863 0.856673C9.69612 0.669684 10.3341 0.671491 10.9275 0.859161L9.11822 6.57987ZM10.8907 6.5828L12.6839 12.3086C14.0133 11.8922 15.2256 11.1716 16.2254 10.2066L12.0587 5.88944L7.8919 1.57225C8.23146 1.24452 8.6437 0.999149 9.09748 0.857035L10.8907 6.5828ZM12.0587 5.88944L16.2258 10.2062L19.5794 6.96891L15.4122 2.65214L11.245 -1.66464L7.89147 1.57267L12.0587 5.88944Z" fill="black" mask="url(#path-1-inside-1_0_16)"/>
</g>
<circle id="Oval Copy 10" cx="3.63636" cy="3.63636" r="3.13636" stroke="black"/>
<path id="Oval Copy 12" d="M3.63672 13.2273C5.36872 13.2275 6.77246 14.6319 6.77246 16.364C6.77227 18.0959 5.3686 19.4995 3.63672 19.4997C1.90467 19.4997 0.500192 18.096 0.5 16.364C0.5 14.6318 1.90455 13.2273 3.63672 13.2273Z" stroke="black"/>
<path id="Oval Copy 11" d="M16.3642 0.5C18.0962 0.500192 19.5 1.90467 19.5 3.63672C19.4998 5.3686 18.0961 6.77227 16.3642 6.77246C14.6322 6.77246 13.2277 5.36872 13.2275 3.63672C13.2275 1.90455 14.6321 0.5 16.3642 0.5Z" stroke="black"/>
<circle id="Oval Copy 13" cx="16.3639" cy="16.3636" r="3.13636" stroke="black"/>
</g>
</svg>
