<svg preserveAspectRatio="none" width="100%" height="100%" overflow="visible" style="display: block;" viewBox="0 0 21 21" fill="none" xmlns="http://www.w3.org/2000/svg">
<g id="Group 4946">
<path id="Rectangle 3659" d="M0 2C0 0.89543 0.895431 0 2 0H7.875V6.5625H0V2Z" fill="var(--fill-0, black)"/>
<path id="Rectangle 3662" d="M0 7.875H3.9375V21H2C0.895431 21 0 20.1046 0 19V7.875Z" fill="var(--fill-0, black)"/>
<rect id="Rectangle 3660" x="9.1875" width="7.875" height="6.5625" fill="var(--fill-0, black)"/>
<rect id="Rectangle 3663" x="5.25" y="7.875" width="6.5625" height="13.125" fill="var(--fill-0, black)"/>
<path id="Rectangle 3661" d="M18.375 0H19C20.1046 0 21 0.895431 21 2V13.125H18.375V0Z" fill="var(--fill-0, black)"/>
<rect id="Rectangle 3664" x="13.125" y="7.875" width="3.9375" height="5.25" fill="var(--fill-0, black)"/>
<path id="Rectangle 3665" d="M13.125 14.4375H21V19C21 20.1046 20.1046 21 19 21H13.125V14.4375Z" fill="var(--fill-0, black)"/>
</g>
</svg>
