<svg preserveAspectRatio="none" width="100%" height="100%" overflow="visible" style="display: block;" viewBox="0 0 20 22.9678" fill="none" xmlns="http://www.w3.org/2000/svg">
<path id="flight" fill-rule="evenodd" clip-rule="evenodd" d="M19.9937 15.728V13.7807C20.0436 13.1815 19.794 12.5824 19.3446 12.2329L12.0049 7.73915V5.79188C12.0049 1.74755 11.5056 0 10.0077 0C8.5098 0 8.0105 1.79748 8.0105 5.79188V7.73915L0.670789 12.2828C0.171489 12.6323 -0.078161 13.2315 0.021699 13.7807V15.728L8.31008 12.832L8.70952 18.9235L5.91344 20.4713C5.66379 20.6211 5.514 20.9207 5.514 21.2203V22.9678L10.0077 21.6197L14.5014 22.9678V21.1703C14.5014 20.8707 14.3516 20.6211 14.1519 20.4214L11.3558 18.8735L11.7053 12.7821L19.9937 15.728Z" fill="var(--fill-0, black)"/>
</svg>
