<svg preserveAspectRatio="none" width="100%" height="100%" overflow="visible" style="display: block;" viewBox="0 0 24 16.129" fill="none" xmlns="http://www.w3.org/2000/svg">
<g id="Group 4972">
<path id="Subtract" d="M12.5501 1.11914C12.8075 1.11914 13.0627 1.13991 13.3157 1.18164C13.5684 1.22378 13.8149 1.29154 14.054 1.38477C13.9344 1.47799 13.8375 1.59889 13.7639 1.74805C13.6904 1.89714 13.6536 2.06027 13.6536 2.2373C13.6536 2.54487 13.7616 2.80848 13.9778 3.02734C14.1937 3.24657 14.4537 3.3564 14.7571 3.35645H15.3089V3.91602C15.3089 4.22345 15.4173 4.48629 15.6331 4.70508C15.8493 4.9243 16.109 5.03412 16.4124 5.03418C16.5043 5.03418 16.5923 5.02548 16.6751 5.00684C16.7577 4.98819 16.836 4.9601 16.9094 4.92285C16.9278 5.05326 16.9413 5.18404 16.9505 5.31445C16.9596 5.44486 16.9641 5.57564 16.9641 5.70605C16.964 6.60095 16.633 7.56352 15.971 8.59375C15.3089 9.62366 14.3066 10.7398 12.9641 11.9424C12.909 11.989 12.8443 12.0267 12.7708 12.0547C12.6972 12.0826 12.6236 12.0967 12.5501 12.0967C12.4765 12.0967 12.4029 12.0826 12.3294 12.0547C12.2558 12.0267 12.1912 11.989 12.136 11.9424C10.7936 10.7398 9.79124 9.62366 9.12917 8.59375C8.46714 7.56352 8.1361 6.60095 8.13601 5.70605C8.13601 4.30769 8.57954 3.19301 9.46706 2.36328C10.3543 1.53357 11.3822 1.11917 12.5501 1.11914ZM12.5501 4.47461C12.2467 4.47464 11.9867 4.58484 11.7708 4.80371C11.5547 5.02291 11.4466 5.28626 11.4466 5.59375C11.4466 5.90137 11.5545 6.1649 11.7708 6.38379C11.9867 6.60303 12.2467 6.71286 12.5501 6.71289C12.8535 6.71289 13.114 6.60307 13.3303 6.38379C13.5462 6.16492 13.6536 5.90133 13.6536 5.59375C13.6536 5.2863 13.546 5.0229 13.3303 4.80371C13.114 4.58481 12.8535 4.47461 12.5501 4.47461ZM16.4124 0C16.5687 0 16.7004 0.0531283 16.8059 0.160156C16.9119 0.267552 16.9641 0.401093 16.9641 0.55957V1.67773H18.0676C18.224 1.67773 18.3556 1.73184 18.4612 1.83887C18.5669 1.94617 18.6194 2.07905 18.6194 2.2373C18.6194 2.39568 18.567 2.52875 18.4612 2.63574C18.3556 2.74314 18.224 2.79688 18.0676 2.79688H16.9641V3.91602C16.9641 4.07423 16.9116 4.20718 16.8059 4.31445C16.7004 4.42148 16.5687 4.47461 16.4124 4.47461C16.2561 4.47455 16.1253 4.42143 16.0198 4.31445C15.9139 4.20713 15.8607 4.07435 15.8606 3.91602V2.79688H14.7571C14.6009 2.79683 14.47 2.74309 14.3645 2.63574C14.2586 2.52871 14.2053 2.3958 14.2053 2.2373C14.2054 2.07893 14.2587 1.94621 14.3645 1.83887C14.4701 1.73188 14.6009 1.67778 14.7571 1.67773H15.8606V0.55957C15.8606 0.401079 15.9139 0.267557 16.0198 0.160156C16.1253 0.0533279 16.2563 5.54784e-05 16.4124 0Z" fill="var(--fill-0, black)"/>
<path id="Subtract_2" fill-rule="evenodd" clip-rule="evenodd" d="M12.2484 13.7368C12.3446 13.7723 12.4408 13.79 12.537 13.79C12.6332 13.79 12.7294 13.7723 12.8256 13.7368C12.9218 13.7014 13.006 13.6542 13.0782 13.5951C13.374 13.3384 13.6572 13.0849 13.9278 12.8344L14.5867 16.129H10.9577L11.1235 12.8133C11.4009 13.0707 11.6917 13.3313 11.9958 13.5951C12.068 13.6542 12.1522 13.7014 12.2484 13.7368ZM16.6786 9.829C16.7957 9.66876 16.9064 9.51012 17.0106 9.35305C17.2402 9.00705 17.4393 8.66707 17.608 8.33312C17.7084 8.39967 17.8018 8.47779 17.8861 8.56658L23.7766 14.7671C24.2646 15.2808 23.9005 16.129 23.192 16.129H19.8286L16.6786 9.829ZM14.7701 12.0239C15.2708 11.5216 15.7179 11.0325 16.1113 10.5566L18.6189 16.129H15.7964L14.7701 12.0239ZM7.34523 8.08381C7.53708 8.49747 7.77647 8.92056 8.06339 9.35305C8.55752 10.0976 9.19657 10.8778 9.98052 11.6936H3.29655L6.45313 8.53698C6.69643 8.29368 7.00945 8.13614 7.34523 8.08381ZM2.49011 12.5L0.237817 14.7523C-0.270211 15.2603 0.0895953 16.129 0.808056 16.129H3.69977L5.71587 12.5H2.49011ZM5.31265 16.129L6.92553 12.5H10.1513L9.74807 16.129H5.31265Z" fill="var(--fill-0, black)"/>
</g>
</svg>
