<svg preserveAspectRatio="none" width="100%" height="100%" overflow="visible" style="display: block;" viewBox="0 0 15.2383 19.9994" fill="none" xmlns="http://www.w3.org/2000/svg">
<path id="Combined Shape" d="M0.149269 14.8643C0.894882 13.68 4.33863 14.5607 5.50669 15.3174C6.67461 16.0759 7.01952 17.6459 6.27036 18.8281C5.5228 20.0085 3.97261 20.3553 2.80454 19.5986C1.63261 18.8418 -0.595668 16.0486 0.149269 14.8643ZM10.5809 7.47559C11.6303 6.41111 13.3501 6.39477 14.4227 7.44044C15.495 8.48403 15.5122 10.1926 14.4608 11.2549C13.4092 12.3173 9.98453 14.0551 8.91392 13.0117C7.84344 11.9682 9.52937 8.53809 10.5809 7.47559ZM0.188331 4.48048C0.789246 2.8925 3.61287 -0.505289 5.28989 0.0634833C6.96932 0.634742 6.86963 4.95452 6.26646 6.54493C5.66577 8.13502 3.82091 8.96006 2.14146 8.39161C0.464364 7.82281 -0.409915 6.07074 0.188331 4.48048Z" fill="var(--fill-0, black)"/>
</svg>
