<svg preserveAspectRatio="none" width="100%" height="100%" overflow="visible" style="display: block;" viewBox="0 0 21.3333 19.6923" fill="none" xmlns="http://www.w3.org/2000/svg">
<path id="Shape" fill-rule="evenodd" clip-rule="evenodd" d="M6.16769 14.569C6.03742 14.5874 5.90622 14.5972 5.77409 14.5972V14.5972C4.21458 14.4142 2.80489 13.5384 1.9051 12.1925C0.0338741 9.88619 -0.770073 3.72814 0.939245 0.34647C1.02671 0.172277 1.18583 0.0496612 1.37006 0.0117086C1.5543 -0.0252709 1.74412 0.0263057 1.88742 0.152814C3.13242 1.14737 4.56631 1.85095 6.09325 2.2188C7.73371 2.54967 9.24111 3.39144 10.4154 4.63511C11.518 5.72601 12.0484 7.30639 11.8409 8.87899C11.6371 9.70519 11.1691 10.4331 10.515 10.9421C10.2842 11.1377 10.2181 11.4763 10.3577 11.7507C10.8788 12.7745 11.3347 13.8342 11.7218 14.9212C11.7488 14.9971 11.8018 15.0604 11.8707 15.0974C12.0224 15.1791 12.2085 15.1168 12.2866 14.9582C12.4169 14.6984 12.5555 14.4327 12.7044 14.1641C12.8226 13.95 12.8151 13.6844 12.6839 13.479C12.3834 13.0256 12.2206 12.4884 12.2168 11.9376C12.2931 10.7523 12.9315 9.68475 13.9168 9.09405C14.7785 8.54034 15.7267 8.14816 16.7186 7.93699C17.8538 7.7083 18.9294 7.22562 19.8711 6.52301C20.0209 6.40623 20.2135 6.36536 20.3959 6.41207C20.5773 6.46073 20.729 6.5921 20.8072 6.77019C21.8074 9.70324 21.3645 12.9633 19.6236 15.4896C18.8745 16.4033 17.8054 16.9619 16.6572 17.0388C16.4906 17.0388 16.325 17.0232 16.1612 16.9911C15.9751 16.9532 15.7937 16.8938 15.6206 16.815C15.5992 16.8052 15.5778 16.7936 15.5573 16.7809C15.2614 16.6019 15.16 16.2048 15.3321 15.8944C16.0272 14.46 17.0852 13.2533 18.3916 12.4057C18.6987 12.2451 18.8233 11.8558 18.6698 11.5347C18.5163 11.2145 18.1441 11.0841 17.837 11.2447C15.3731 12.5312 13.4618 16.3138 12.6653 19.0036C12.5453 19.4123 12.1843 19.6916 11.7758 19.6916C11.7525 19.6926 11.7302 19.6926 11.7069 19.6916C11.2742 19.6585 10.9207 19.3169 10.8546 18.8683C10.2982 15.2521 7.72069 10.254 5.31071 7.06116C5.09762 6.77992 4.70682 6.73224 4.4379 6.95509C4.16899 7.17696 4.1234 7.58568 4.33648 7.86692C5.59916 9.53391 6.69621 11.3313 7.61089 13.2309C7.74953 13.5199 7.663 13.8722 7.40804 14.0561C7.03863 14.3266 6.61433 14.5018 6.16769 14.569Z" fill="var(--fill-0, black)"/>
</svg>
