<svg preserveAspectRatio="none" width="100%" height="100%" overflow="visible" style="display: block;" viewBox="0 0 19.9994 20.645" fill="none" xmlns="http://www.w3.org/2000/svg">
<path id="Shape" fill-rule="evenodd" clip-rule="evenodd" d="M5.06418 0C4.91314 0 4.77987 0.0533071 4.67326 0.159921L0.159921 4.67326C0.0533071 4.77987 0 4.93091 0 5.08195C0 5.23298 0.0533071 5.36625 0.159921 5.47286L3.05627 8.38699C4.04646 7.3968 5.24013 6.20865 6.2971 5.15656C7.13688 4.32067 7.89037 3.57066 8.38698 3.07404L5.47286 0.159921C5.36625 0.0533071 5.21521 0 5.06418 0ZM11.1596 3.22576C10.6259 3.22576 10.1058 3.40443 9.7124 3.78356L2.69371 10.5469C2.58517 10.6515 2.51282 10.7996 2.51282 10.9478C2.51282 11.096 2.58517 11.2267 2.69371 11.3313L3.36302 11.9763C2.31157 11.8586 1.38901 12.0482 0.812412 12.6038C0.588556 12.8217 0.588556 13.1703 0.812412 13.3882L2.44046 14.957C2.27539 15.2468 2.16912 15.5584 2.16912 15.8983C2.16912 16.4278 2.37715 16.9354 2.76607 17.3102C3.15499 17.685 3.68184 17.8855 4.23131 17.8855C4.58405 17.8855 4.9074 17.783 5.20814 17.624L6.83619 19.1928C7.0623 19.4085 7.42409 19.4085 7.65021 19.1928C8.22681 18.6372 8.42353 17.7482 8.30143 16.735L8.97074 17.3799C9.08379 17.4889 9.21947 17.5543 9.3687 17.5543C9.51794 17.5543 9.6717 17.4889 9.78476 17.3799L16.8035 10.6166C17.1924 10.2418 17.4185 9.75159 17.4185 9.22211C17.4185 8.69264 17.1924 8.18495 16.8035 7.81018L12.6248 3.78356C12.2359 3.40879 11.6932 3.22576 11.1596 3.22576ZM14.2352 14.9567C15.2738 13.9133 16.2963 12.8859 16.9254 12.258L19.8395 15.1721C19.9461 15.2787 19.9994 15.4298 19.9994 15.5808C19.9994 15.7318 19.9461 15.8651 19.8395 15.9717L15.3262 20.4851C15.2151 20.5961 15.0641 20.645 14.9175 20.645C14.7709 20.645 14.6198 20.5961 14.5088 20.4851L11.6124 17.5887C12.3016 16.8995 13.2753 15.9212 14.2352 14.9567Z" fill="black"/>
</svg>
