<svg preserveAspectRatio="none" width="100%" height="100%" overflow="visible" style="display: block;" viewBox="0 0 20 19" fill="none" xmlns="http://www.w3.org/2000/svg">
<path id="scout-report-mini copy 4" fill-rule="evenodd" clip-rule="evenodd" d="M18.7736 11.061L16.5609 5.46923C16.5392 5.41526 16.5074 5.36608 16.4672 5.32443L15.2596 4.09714L14.0153 0.735871C13.9938 0.678513 13.9607 0.626284 13.9183 0.582459C13.0062 -0.194153 11.6747 -0.194153 10.7626 0.582459C10.6828 0.663432 10.6381 0.773191 10.6383 0.887559V5.18567C10.3617 5.15982 10.08 5.14172 9.78724 5.14172C9.64256 5.14172 9.50214 5.14861 9.36171 5.15551V0.889283C9.36191 0.774918 9.31722 0.665159 9.23746 0.584186C8.32532 -0.192427 6.99386 -0.192427 6.08172 0.584186C6.03929 0.628011 6.00626 0.68024 5.9847 0.737598L4.74044 4.09714L3.53193 5.32444C3.49173 5.36608 3.45993 5.41526 3.43831 5.46923L1.2264 11.061C-0.518059 12.9931 -0.385607 15.9914 1.52225 17.758C3.4301 19.5246 6.39089 19.3905 8.13535 17.4584C8.9265 16.5822 9.36414 15.4372 9.36172 14.2499V9.47517C9.49363 9.46224 9.6332 9.45362 9.78725 9.45362C10.0729 9.45173 10.358 9.47887 10.6383 9.53464V14.2482C10.633 16.8661 12.7243 18.9928 15.3094 18.9982C17.8946 19.0037 19.9946 16.8858 20 14.2678C20.0024 13.0805 19.5648 11.9355 18.7736 11.0593L18.7736 11.061ZM7.6594 14.2481C7.6594 15.9141 6.32579 17.2646 4.68068 17.2646C3.03558 17.2646 1.70196 15.9141 1.70196 14.2481C1.70196 12.5821 3.03558 11.2316 4.68068 11.2316C6.32579 11.2316 7.6594 12.5821 7.6594 14.2481ZM12.3401 14.2481C12.3401 15.9141 13.6737 17.2646 15.3188 17.2646C16.9639 17.2646 18.2975 15.9141 18.2975 14.2481C18.2975 12.5821 16.9639 11.2316 15.3188 11.2316C13.6737 11.2316 12.3401 12.5821 12.3401 14.2481Z" fill="var(--fill-0, black)"/>
</svg>
