<svg class="logo" width="193" height="30" viewBox="0 0 193 30" fill="none" xmlns="http://www.w3.org/2000/svg">
<g clip-path="url(#clip0_1629_7928)">
<path d="M32.465 10.6836L23.584 15.1568L26.1415 19.9694L36.2041 15.935L32.465 10.6836Z" fill="#C9D646"></path>
<path d="M8.53405 10.6836L17.4151 15.1568L14.8575 19.9694L4.79492 15.935L8.53405 10.6836Z" fill="#C9D646"></path>
<path d="M38.8333 7.47705L36.2059 15.935L32.4668 10.6836L38.8333 7.47705Z" fill="#005333"></path>
<path d="M23.5849 15.1567L22.4906 17.5535L20.5 19.2227L22.1612 20.2333L23.742 25.4159L29.516 26.316L23.5849 15.1567Z" fill="#005333"></path>
<path d="M2.16797 7.47705L4.79537 15.935L8.53449 10.6836L2.16797 7.47705Z" fill="#005333"></path>
<path d="M17.4147 15.1567L18.509 17.5535L20.4996 19.2227L18.8384 20.2333L17.2576 25.4159L11.4824 26.316L17.4147 15.1567Z" fill="#005333"></path>
<path d="M40.9997 0.5L38.8322 7.47705L23.5846 15.1568L22.2168 10.8359L28.184 4.67089L40.9997 0.5Z" fill="#0D9A57"></path>
<path d="M26.6621 20.9482L32.7877 22.9186L37.5221 29.4998L29.5153 26.3158L26.6621 20.9482Z" fill="#0D9A57"></path>
<path d="M0 0.5L2.16758 7.47705L17.4151 15.1568L18.7818 10.8359L12.8145 4.67089L0 0.5Z" fill="#0D9A57"></path>
<path d="M14.3366 20.9482L8.211 22.9186L3.47656 29.4998L11.4822 26.3158L14.3366 20.9482Z" fill="#0D9A57"></path>
</g>
<path class="logo-color" d="M61.5897 24.3609C65.9875 24.3609 69.0993 21.606 69.5365 17.5795H65.6532C65.1902 19.6457 63.75 20.9967 61.564 20.9967C58.6579 20.9967 56.9348 18.4801 56.9348 14.9305C56.9348 11.3543 58.6836 8.86424 61.6155 8.86424C63.75 8.86424 65.1902 10.2152 65.6532 12.2815H69.5623C69.0993 8.25497 66.0904 5.5 61.8212 5.5C56.369 5.5 53 9.2351 53 14.9305C53 20.6258 56.2404 24.3609 61.5897 24.3609Z" fill="#005333"></path>
<path class="logo-color" d="M78.98 10.4272C77.1026 10.4272 75.9196 11.1954 75.0709 12.255V5.65894H71.4447V24.202H75.0709V17.2086C75.0709 14.8775 76.1768 13.5 78.0284 13.5C79.8287 13.5 80.7031 14.745 80.7031 16.9702V24.202H84.3293V16.6523C84.3293 12.043 81.9118 10.4272 78.98 10.4272Z" fill="#005333"></path>
<path class="logo-color" d="M94.0466 10.5861C91.9892 10.5861 90.9605 11.4073 90.2404 12.6258L89.906 10.5861H86.6142V24.202H90.2404V17.5265C90.2404 15.4603 91.0633 13.9768 93.2236 13.9768H94.6638V10.5861H94.0466Z" fill="#005333"></path>
<path class="logo-color" d="M100.291 24.2815L99.9563 25.1821C99.5962 26.1093 99.2876 26.3477 98.3618 26.3477H96.3558V29.5H99.8791C101.937 29.5 102.605 28.3874 103.428 26.1358L109.292 10.5861H105.408L102.271 20.2815L99.0561 10.5861H95.1985L100.291 24.2815Z" fill="#005333"></path>
<path class="logo-color" d="M109.58 19.6722C109.734 22.5861 112.229 24.3609 115.907 24.3609C119.456 24.3609 121.924 22.6391 121.924 19.9371C121.924 16.8642 119.404 16.149 116.369 15.8311C114.466 15.5927 113.335 15.4868 113.335 14.4536C113.335 13.5795 114.261 13.0497 115.675 13.0497C117.141 13.0497 118.144 13.7119 118.247 14.798H121.719C121.539 12.0166 119.096 10.4007 115.546 10.4007C112.152 10.3742 109.863 12.149 109.863 14.851C109.863 17.6589 112.255 18.3742 115.341 18.745C117.475 19.0364 118.375 19.1159 118.375 20.2285C118.375 21.1821 117.45 21.6854 115.932 21.6854C114.158 21.6854 113.155 20.8642 113.026 19.6722H109.58Z" fill="#005333"></path>
<path class="logo-color" d="M136.436 21.0497C135.871 21.0497 135.588 20.9172 135.588 20.202V15.3808C135.588 12.1225 133.453 10.4272 129.75 10.4272C126.252 10.4272 123.886 12.1755 123.629 14.8245H127.127C127.281 13.8179 128.232 13.1556 129.647 13.1556C131.164 13.1556 132.013 13.9503 132.013 15.1689V15.8311H129.39C125.429 15.8311 123.32 17.4735 123.32 20.3609C123.32 22.957 125.378 24.3609 128.232 24.3609C130.29 24.3609 131.627 23.4868 132.553 21.9768C132.527 23.2748 133.119 24.202 134.996 24.202H136.848V21.0497H136.436ZM132.013 18.5861C131.987 20.4404 130.83 21.6589 128.927 21.6589C127.718 21.6589 126.972 21.0497 126.972 20.096C126.972 18.957 127.847 18.3212 129.364 18.3212H132.013V18.5861Z" fill="#005333"></path>
<path class="logo-color" d="M149.541 24.202V20.7848H142.391V5.65894H138.534V24.202H149.541Z" fill="#005333"></path>
<path class="logo-color" d="M163.812 21.0497C163.246 21.0497 162.963 20.9172 162.963 20.202V15.3808C162.963 12.1225 160.828 10.4272 157.125 10.4272C153.627 10.4272 151.261 12.1755 151.004 14.8245H154.502C154.656 13.8179 155.608 13.1556 157.022 13.1556C158.54 13.1556 159.388 13.9503 159.388 15.1689V15.8311H156.765C152.805 15.8311 150.696 17.4735 150.696 20.3609C150.696 22.957 152.753 24.3609 155.608 24.3609C157.665 24.3609 159.002 23.4868 159.928 21.9768C159.903 23.2748 160.494 24.202 162.372 24.202H164.223V21.0497H163.812ZM159.388 18.5861C159.363 20.4404 158.205 21.6589 156.302 21.6589C155.093 21.6589 154.348 21.0497 154.348 20.096C154.348 18.957 155.222 18.3212 156.739 18.3212H159.388V18.5861Z" fill="#005333"></path>
<path class="logo-color" d="M173.238 10.4272C171.413 10.4272 170.127 11.2219 169.252 12.3079V5.65894H165.626V24.202H168.789L169.149 22.3477C169.998 23.5132 171.31 24.3609 173.213 24.3609C176.788 24.3609 179.359 21.5795 179.359 17.3675C179.359 13.0497 176.788 10.4272 173.238 10.4272ZM172.416 21.3146C170.435 21.3146 169.201 19.6987 169.201 17.3675C169.201 15.0629 170.435 13.4735 172.416 13.4735C174.396 13.4735 175.682 15.0629 175.682 17.394C175.682 19.7252 174.396 21.3146 172.416 21.3146Z" fill="#005333"></path>
<path class="logo-color" d="M180.655 19.6722C180.81 22.5861 183.304 24.3609 186.982 24.3609C190.531 24.3609 193 22.6391 193 19.9371C193 16.8642 190.48 16.149 187.445 15.8311C185.542 15.5927 184.41 15.4868 184.41 14.4536C184.41 13.5795 185.336 13.0497 186.751 13.0497C188.216 13.0497 189.219 13.7119 189.322 14.798H192.794C192.614 12.0166 190.171 10.4007 186.622 10.4007C183.227 10.3742 180.938 12.149 180.938 14.851C180.938 17.6589 183.33 18.3742 186.416 18.745C188.551 19.0364 189.451 19.1159 189.451 20.2285C189.451 21.1821 188.525 21.6854 187.008 21.6854C185.233 21.6854 184.23 20.8642 184.102 19.6722H180.655Z" fill="#005333"></path>
<defs>
<clipPath id="clip0_1629_7928">
    <rect width="41" height="29" fill="white" transform="translate(0 0.5)"></rect>
</clipPath>
</defs>
</svg>
