<svg width="206" height="206" viewBox="0 0 206 206" fill="none" xmlns="http://www.w3.org/2000/svg">
<path d="M205.99 94.4193L193.139 82.0354L111.824 163.631L111.856 0L0 111.424L12.9137 123.776L94.2603 42.4635L94.0089 206L205.99 94.4193Z" fill="white"/>
<path d="M182.834 72.386L172.842 62.4223L124.486 111.015L124.549 130.597L182.834 72.386Z" fill="white"/>
<path d="M124.738 90.3647L162.536 52.5529L152.576 42.5264L124.706 70.1544L124.738 90.3647Z" fill="white"/>
<path d="M132.53 23.2905L124.612 30.9912V51.0443L142.616 33.0656L132.53 23.2905Z" fill="white"/>
<path d="M81.5037 73.989L22.4025 133.111L32.3627 143.106L81.4409 93.6021L81.5037 73.989Z" fill="white"/>
<path d="M42.4485 152.63L52.6915 162.342L82.1321 132.891L82.0693 112.932L42.4485 152.63Z" fill="white"/>
<path d="M72.9261 182.269L81.9436 173.06V153.29L62.9345 172.274L72.9261 182.269Z" fill="white"/>
</svg>
